<svg width="914" height="760" viewBox="0 0 914 760" fill="none" xmlns="http://www.w3.org/2000/svg">
<path d="M670.214 604.235L650.027 600.5C666.096 581.74 680.517 561.6 693.248 539.656C706.384 517.427 717.09 494.08 725.664 469.731C738.474 433.353 746.028 395.822 746.584 357.362C747.468 296.312 746.798 235.239 746.917 174.176C746.925 169.995 745.698 168.555 741.422 168.165C726.254 166.783 711.762 162.764 698.658 154.792C677.448 141.887 667.299 122.008 664.403 98.1022C663.766 92.8452 661.452 91.5299 657.067 91.3329C638.535 90.5002 620.304 87.4217 602.178 83.7111C551.795 73.3968 505.056 54.1991 462.282 25.6023C458.68 23.1946 456.332 23.0082 452.806 25.4095C415.581 50.7615 374.799 68.2154 331.301 79.4733C308.801 85.2965 285.962 89.3925 262.779 91.133C251.061 92.0126 251.076 91.6221 249.089 102.751C245.846 120.92 238.366 136.809 223.799 148.732C209.068 160.789 191.728 166.32 173.109 168.029C168.116 168.487 167.017 170.269 167.028 174.933C167.162 232.542 167.225 290.152 167.037 347.762C166.963 370.434 168.947 392.912 173.098 415.125C182.883 467.488 203.071 515.623 232.953 559.75C242.629 574.04 253.093 587.622 264.25 600.583L243.717 604.5C229.738 587.558 216.926 569.649 205.434 550.652C178.901 506.79 161.536 459.495 153.439 408.838C149.99 387.259 148.695 365.549 148.752 343.695C148.913 281.53 148.803 219.364 148.808 157.198C148.809 150.178 148.833 150.073 155.803 150.131C168.783 150.24 181.463 148.492 193.69 144.075C213.12 137.057 224.94 123.263 229.675 103.239C231.522 95.4239 232.619 87.5121 232.693 79.4899C232.729 75.4976 233.967 73.8137 238.439 73.6616C293.539 71.7878 346.118 59.3122 396.034 35.7594C416.398 26.151 435.706 14.7927 453.858 1.4876C456.394 -0.371464 458.288 -0.573593 460.925 1.36796C503.673 32.8509 551.455 53.1221 603.087 64.5974C626.7 69.8454 650.628 72.9924 674.833 73.7597C680.996 73.955 681.051 74.0235 681.432 80.1253C681.891 87.477 682.573 94.7783 684.158 102.026C689.312 125.595 703.93 139.902 726.818 146.18C737.457 149.098 748.342 150.615 759.398 150.068C763.778 149.851 765.435 151.148 765.425 155.829C765.283 222.704 765.833 289.585 765.117 356.453C764.647 400.411 755.335 442.94 739.989 484.138C723.41 528.647 699.608 568.318 670.214 604.235Z" fill="#1A3660"/>
<path d="M187.017 192.2C187.08 193.452 186.991 194.711 186.991 195.967C186.985 241.02 187.17 286.075 186.909 331.127C186.753 358.008 187.995 384.732 193.059 411.992C195.575 425.086 198.587 438.056 202.502 450.814C219.542 506.344 248.798 554.525 287.373 596.99L277.64 598.5C258.225 576.531 240.992 552.809 226.303 527.036C224.05 523.084 222.002 519.016 219.692 514.694C199.637 475.809 186.838 435.071 181.473 391.938C179.413 375.379 178.778 358.829 178.8 342.188C178.871 290.071 178.876 237.954 178.709 185.838C178.694 181 180.051 179.053 184.98 178.191C207.584 174.24 227.459 164.971 242.35 146.836C251.62 135.548 257.102 122.443 259.701 108.181C260.404 104.324 261.909 103.143 265.744 102.78C332.271 96.4885 394.341 76.7244 450.904 40.7326C455.61 37.7382 458.895 37.4609 463.829 40.5972C512.176 71.3261 564.827 90.697 621.458 99.2263C630.911 100.65 640.41 101.812 649.918 102.812C652.862 103.121 653.845 104.289 654.318 107.086C661.388 148.947 691.317 171.257 729.014 178.134C733.568 178.965 735.298 180.358 735.283 185.25C735.107 241.761 735.721 298.281 734.978 354.783C734.384 399.921 724.588 443.428 707.453 485.218C690.357 526.912 666.628 564.231 637.306 597.853L628.041 596.146C655.652 565.096 678.624 530.47 695.759 491.331C713.746 450.246 725.088 407.38 725.977 362.527C727.106 305.565 726.36 248.567 726.557 191.585C726.571 187.519 724.788 186.251 721.233 185.433C696.859 179.822 676.208 168.23 661.467 147.447C654.943 138.25 650.489 128.061 648.06 117.078C647.179 113.09 645.96 110.818 641.245 110.649C635.326 110.438 629.446 109.145 623.55 108.305C565.944 100.09 512.215 81.0488 462.687 50.4291C458.812 48.0331 455.957 47.8967 452.08 50.4069C438.099 59.4595 423.325 67.1249 408.209 74.098C364.941 94.0584 319.407 105.719 272.127 110.782C268.684 111.151 267.277 112.382 266.517 115.662C262.871 131.401 255.853 145.41 244.625 157.196C230.285 172.249 212.594 181.156 192.485 185.473C188.459 186.337 186.822 188.293 187.017 192.2Z" fill="#1A3660"/>
<path d="M393.973 684.35C394.547 684.466 394.885 684.394 395.224 684.321C395.633 684.226 396.041 684.132 396.692 684.178C397.277 684.272 397.62 684.224 397.964 684.176C398.951 682.649 400.248 683.393 401.71 683.889C402.585 684.001 403.234 683.922 403.883 683.843C404.297 683.529 404.71 682.946 405.125 682.946C406.796 682.945 408.468 683.124 410.399 683.436C411.29 683.558 411.922 683.48 412.554 683.402C412.961 683.308 413.369 683.214 414.028 683.264C414.77 683.362 415.259 683.317 415.748 683.272L415.748 683.272L414.641 681.874L414.773 681.33C416.877 681.809 418.981 682.287 421.348 682.964C422.391 683.086 423.171 683.01 423.951 682.933C424.341 682.622 424.733 682.04 425.122 682.043C429.241 682.066 433.359 682.183 437.738 682.474C439.092 682.607 440.185 682.539 441.279 682.472C442.087 682.157 442.894 681.573 443.705 681.568C453.65 681.505 463.595 681.528 473.54 681.527C474.148 681.527 474.764 681.588 475.36 681.505C476.612 681.331 477.978 680.99 477.646 679.389C477.546 678.906 476.197 678.388 475.416 678.382C465.548 678.314 455.678 678.294 445.809 678.388C444.451 678.401 443.096 679.084 441.744 679.476C440.117 679.949 438.871 679.739 438.556 677.598C437.619 677.407 436.685 677.391 435.556 677.422C435.153 677.75 434.945 678.275 434.738 678.275C431.065 678.27 427.392 678.202 423.611 678.008C422.269 677.867 421.035 677.865 419.601 677.91C419.246 678.343 419.078 679.071 418.939 679.066C416.715 678.976 414.495 678.793 412.187 678.47C410.695 678.336 409.29 678.363 407.717 678.442C407.961 678.84 408.373 679.185 409.341 679.996C406.775 679.652 404.74 679.379 402.616 678.949C402.182 678.78 401.837 678.768 401.326 678.802C400.86 679.278 400.543 680.09 400.265 680.077C398.502 679.992 396.749 679.726 394.883 679.382C394.136 679.238 393.5 679.23 392.679 679.275C392.266 679.741 392.059 680.497 391.802 680.514C388.535 680.732 385.261 680.855 381.988 680.96C381.755 680.967 381.51 680.642 381.182 680.314C380.603 680.156 380.114 680.155 379.448 680.205C378.52 682.687 377.088 681.454 375.701 680.749C374.982 680.6 374.345 680.604 373.526 680.665C372.611 683.289 371.106 681.419 369.8 681.194C369.614 681.05 369.536 681.032 369.345 681.055C367.933 683.365 366.178 682.54 364.328 681.667C364.015 681.521 363.81 681.507 363.457 681.541C362.339 683.726 360.864 683.05 359.289 682.142C359.126 681.976 359.048 681.958 358.856 681.98C357.45 683.247 356.059 683.856 354.289 682.577C353.982 682.44 353.777 682.43 353.424 682.47C353.182 682.871 353.154 683.488 352.981 683.531C349.247 684.467 345.508 685.603 341.535 683.963C341.342 683.815 341.262 683.799 341.069 683.824C340.756 684.184 340.573 684.766 340.354 684.779C338.183 684.913 336.005 684.952 333.748 684.875C333.461 684.724 333.255 684.717 332.903 684.759C332.291 686.618 331.265 686.089 330.111 685.299C329.94 685.162 329.862 685.147 329.673 685.174C328.513 685.725 327.501 686.548 326.408 686.676C324.162 686.94 321.873 686.831 319.565 686.701C319.183 686.533 318.838 686.539 318.328 686.6C315.999 690.11 314.059 690.466 309.58 688.07C309.152 687.932 308.806 687.937 308.296 687.998C307.585 688.232 307.039 688.411 306.398 688.474C306.225 688.342 306.146 688.326 305.956 688.353C305.004 688.617 304.165 688.839 303.219 688.94C302.906 688.819 302.7 688.818 302.348 688.869C302.003 690.791 301.098 690.364 300.001 689.435C299.527 689.316 299.134 689.336 298.605 689.419C298.323 689.827 298.175 690.174 298.028 690.521L298.028 690.52C297.765 690.363 297.503 690.206 297.211 689.889C296.788 689.742 296.393 689.756 295.861 689.827C295.222 690.071 294.721 690.257 294.107 690.325C293.915 690.193 293.837 690.179 293.647 690.208C292.849 690.465 292.163 690.678 291.366 690.774C291.05 690.655 290.844 690.653 290.492 690.706C288.852 693.444 286.205 694.026 283.08 692.184C282.84 692.016 282.634 692.014 282.282 692.066C281.595 692.315 281.053 692.511 280.412 692.594C280.105 692.483 279.899 692.486 279.546 692.545C278.859 692.79 278.318 692.978 277.676 693.055C277.318 692.955 277.06 692.966 276.684 693.035C276.429 693.448 276.291 693.802 276.152 694.157C275.885 694.003 275.618 693.849 275.322 693.533C274.91 693.398 274.528 693.425 274.011 693.505C273.261 694.757 269.481 696.315 267.9 696.001C267.093 695.841 266.296 695.629 265.377 695.312C265.18 695.17 265.102 695.157 264.911 695.189C264.107 695.45 263.413 695.666 262.622 695.764C262.318 695.646 262.112 695.646 261.76 695.702L261.676 695.739C261.17 695.962 260.785 696.131 260.325 696.197C259.849 696.107 259.456 696.132 258.927 696.219L258.894 696.234C258.416 696.463 258.063 696.632 257.612 696.693C256.71 696.706 255.91 696.832 254.947 697.021C255.093 697.291 255.402 697.498 255.74 697.723C252.63 700.197 251.579 700.277 250.671 698.103C250.587 697.916 250.507 697.905 250.316 697.942C249.657 698.195 249.109 698.4 248.474 698.492C248.181 698.382 247.975 698.386 247.624 698.448L247.558 698.478C247.046 698.706 246.659 698.878 246.193 698.949C245.901 698.846 245.695 698.853 245.344 698.919L245.283 698.947C244.772 699.177 244.386 699.351 243.918 699.426C243.235 699.426 242.641 699.532 241.911 699.704C241.518 700.344 241.269 701.393 241 701.398C240.274 701.412 239.539 700.981 238.778 700.534C238.068 700.464 237.387 700.587 236.576 700.771C234.73 701.318 233.014 701.805 231.18 702.169C230.215 702.209 229.368 702.369 228.374 702.592C227.919 703.204 227.721 704.092 227.281 704.234C226.291 704.553 225.044 705.562 224.184 703.709C223.857 703.698 223.557 703.88 223.147 704.146C222.879 704.185 222.721 704.14 222.481 704.001C213.437 706.051 204.47 708.191 195.505 710.331L194.731 710.516C193.928 710.708 193.12 710.879 192.033 711.122L172.142 633.059C259.514 608.714 348.538 596.362 439.264 594.021L484.547 593.795C494.393 594.319 504.21 594.349 513.973 595.09C538.966 596.986 564.001 598.619 588.895 601.45C612.805 604.168 636.607 607.965 660.369 611.825C685.945 615.98 711.173 621.889 736.266 628.335C741.483 629.675 746.682 631.087 751.885 632.482C752.672 632.693 753.437 632.988 754.375 633.298L735.05 710.717L735.023 710.711C717.266 706.73 699.625 702.775 681.801 698.832C680.427 698.678 679.238 698.513 678.008 698.193C677.766 697.987 677.566 697.937 677.212 697.905C676.182 698.583 675.246 699.179 674.452 699.926C673.84 700.501 673.407 701.265 673.019 702.207C676.25 703.114 679.356 703.761 682.639 704.444L678.086 727.027C679.56 726.755 680.668 726.587 681.759 726.344C696.734 723.017 711.722 719.743 726.669 716.296C730.133 715.497 733.388 715.547 736.71 716.837L685.788 727.219L685.915 727.93C731.021 735.155 775.344 745.745 819.388 758.643L791.762 706.02L838.039 677.31L838.054 676.495L754.57 652.449C756.042 646.593 757.612 640.358 759.178 634.121C760.426 629.149 760.428 629.13 755.442 627.684C730.04 620.316 704.305 614.306 678.362 609.211C637.101 601.109 595.511 595.16 553.581 592.018C529.12 590.185 504.586 589.028 480.063 588.395C444.949 587.489 409.869 588.804 374.848 591.706C348.639 593.878 322.518 596.759 296.52 600.702C258.411 606.484 220.652 613.983 183.441 624.109C178.462 625.464 173.49 626.853 168.55 628.344C165.624 629.228 165.473 629.742 166.236 632.508C168.126 639.355 169.964 646.217 171.886 653.305C143.694 659.911 116.191 668.168 88.5586 677.139L135.024 706.121L107.138 759.406C151.851 745.675 196.541 735.133 242.021 727.359L190.569 717.032L190.628 716.216C193.53 716.216 196.526 715.744 199.318 716.298C211.159 718.645 222.944 721.275 234.739 723.85C239.377 724.862 243.986 726.001 248.962 727.166L244.721 704.343C244.996 704.331 245.194 704.238 245.194 704.238C245.734 704.025 246.274 703.811 247.036 703.73C247.333 703.829 247.408 703.795 247.483 703.761C248.804 702.219 249.786 700.085 252.494 702.081C253.191 702.595 254.765 701.922 256.198 701.941C256.656 702.032 256.853 701.976 257.05 701.921C257.456 701.736 257.862 701.552 258.468 701.504C258.738 701.605 258.808 701.57 258.879 701.534C259.57 701.31 260.26 701.087 261.207 700.994C261.664 701.069 261.864 701.013 262.064 700.958L262.065 700.958C262.463 700.778 262.861 700.597 263.5 700.543C263.943 700.615 264.144 700.561 264.345 700.507C264.748 700.333 265.152 700.159 265.757 700.118C266.031 700.219 266.103 700.186 266.176 700.153L266.177 700.153C266.869 699.936 267.561 699.72 268.47 699.64C268.76 699.746 268.834 699.716 268.907 699.685C270.208 699.326 271.508 698.968 273.09 698.76C273.706 698.844 274.042 698.777 274.378 698.71C274.785 698.533 275.192 698.356 275.853 698.31C276.442 698.369 276.778 698.296 277.113 698.222C277.515 698.047 277.916 697.871 278.586 697.825C280.099 697.737 281.342 697.52 282.586 697.303C283.128 697.121 283.67 696.94 284.429 696.892C284.72 696.995 284.794 696.964 284.868 696.934C286.458 696.569 288.048 696.203 289.878 695.986C290.193 696.105 290.267 696.074 290.341 696.044C290.895 695.847 291.45 695.65 292.292 695.593C294.721 695.381 296.863 695.029 299.006 694.677C299.7 694.47 300.395 694.263 301.31 694.205C301.6 694.321 301.671 694.288 301.742 694.255C302.581 694.031 303.42 693.807 304.526 693.734C304.991 693.834 305.19 693.783 305.389 693.733C305.81 693.565 306.232 693.398 306.91 693.378C307.638 693.436 308.11 693.345 308.581 693.255C309.117 693.11 309.652 692.964 310.474 692.907C310.946 692.944 311.132 692.893 311.318 692.842C312.015 692.642 312.712 692.441 313.683 692.391C314.293 692.478 314.629 692.414 314.965 692.351C315.521 692.17 316.076 691.988 316.919 691.953C319.653 691.746 322.098 691.391 324.543 691.037C325.388 690.829 326.233 690.621 327.357 690.572C327.974 690.669 328.31 690.608 328.647 690.547L328.647 690.547C329.347 690.355 330.046 690.163 331.017 690.125C331.624 690.219 331.96 690.159 332.295 690.099C333.196 689.752 334.074 689.198 335.002 689.099C337.515 688.83 340.049 688.754 342.807 688.777C343.106 688.915 343.173 688.878 343.24 688.841C343.362 688.777 343.483 688.712 343.804 688.749C344.204 688.808 344.406 688.765 344.608 688.721C345.177 688.554 345.747 688.387 346.588 688.389C347.477 688.466 348.095 688.372 348.713 688.279C349.29 688.132 349.867 687.984 350.676 688.002C352.912 687.916 354.917 687.665 356.922 687.414C357.793 687.236 358.664 687.058 359.734 687.066C360.298 687.173 360.663 687.095 361.027 687.016C361.933 685.261 363.291 686.16 364.745 686.608C365.315 686.716 365.679 686.634 366.044 686.551C366.249 686.263 366.444 685.732 366.662 685.723C369.734 685.587 372.809 685.521 376.181 685.628C376.953 685.738 377.426 685.658 377.899 685.579C378.628 685.429 379.357 685.28 380.326 685.308C381.195 685.389 381.824 685.293 382.454 685.196C383.901 683.546 385.64 684.242 387.579 684.783C388.161 684.906 388.501 684.835 388.841 684.764C389.109 684.681 389.377 684.598 389.851 684.641C390.261 684.728 390.464 684.687 390.668 684.646C391.691 684.484 392.715 684.323 393.973 684.35Z" fill="#1A3660"/>
<path d="M193.75 713.102C380.75 666.101 566.75 671.102 733.25 713.101" stroke="#1A3660" stroke-width="5.5" stroke-linecap="round"/>
<path d="M243.686 618.434C276.905 611.815 310.156 606.673 343.634 602.975C394.934 597.308 446.375 595.37 497.955 597C532.008 598.077 565.935 600.845 599.722 605.137C640.447 610.31 680.862 617.284 720.755 627.074C730.913 629.567 741.044 632.171 751.412 634.78C745.294 659.317 739.237 683.61 733.219 707.743C553.347 662.895 373.704 663.235 193.79 707.891C187.651 683.718 181.484 659.434 175.262 634.933C197.863 628.411 220.606 623.14 243.686 618.434ZM378.844 620.232C378.635 620.809 378.426 621.386 378.194 622.027C382.347 622.54 383.202 623.253 383.365 626.253C383.889 635.871 384.398 645.49 384.877 655.11C385.042 658.426 384.356 659.22 381.239 660.127C380.667 660.294 380.277 661.088 379.802 661.593C379.982 661.8 380.162 662.007 380.342 662.214C388.141 661.691 395.993 661.563 403.726 660.537C412.119 659.424 418.355 654.824 420.614 646.346C422.82 638.067 421.653 630.318 414.925 624.229C409.958 619.733 403.847 618.905 397.457 619.228C391.389 619.536 385.323 619.873 378.844 620.232ZM632.691 650.663C632.185 654.811 632.621 658.851 634.437 662.633C638.476 671.049 645.567 674.648 654.553 674.458C663.715 674.265 669.975 669.381 673.312 661.011C676.722 652.46 675.634 644.367 669.157 637.616C663.158 631.365 655.563 629.679 647.408 632.291C638.806 635.046 634.126 641.422 632.691 650.663ZM689.294 664.833C690.265 659.876 691.236 654.92 692.284 649.565C692.837 650.515 693.227 651.136 693.57 651.782C699.203 662.358 704.863 672.921 710.423 683.535C711.24 685.095 712.189 685.872 714.113 685.574C714.359 684.432 714.626 683.262 714.862 682.087C716.952 671.669 719.026 661.248 721.129 650.833C721.789 647.564 722.236 647.246 725.61 646.821C726.142 646.754 726.61 646.172 727.108 645.827C726.99 645.645 726.871 645.462 726.753 645.279C722.398 644.347 718.043 643.415 713.542 642.453C713.393 643.183 713.28 643.735 713.17 644.269C718.013 645.878 718.201 646.146 717.3 651.17C716.59 655.129 715.784 659.071 715.008 663.017C714.398 666.116 713.769 669.211 713.041 672.842C712.238 671.391 711.685 670.418 711.156 669.433C706.102 660.013 701.063 650.585 695.983 641.18C695.498 640.282 694.901 638.986 694.121 638.786C690.851 637.944 687.492 637.449 684.166 636.827C684 637.024 683.834 637.221 683.668 637.418C684.086 637.97 684.385 638.782 684.94 639.034C688.623 640.704 689.545 642.194 688.841 646.143C687.323 654.654 685.77 663.16 684.165 671.655C683.299 676.237 682.827 676.565 677.466 676.63C678.053 677.482 678.344 678.407 678.815 678.51C683.032 679.433 687.28 680.211 691.456 681.019C692.269 679.794 691.988 679.239 690.692 678.8C687.675 677.777 687.116 676.835 687.612 673.706C688.062 670.862 688.668 668.043 689.294 664.833ZM339.908 663.451C339.394 663.94 338.881 664.428 338.367 664.917C338.842 665.143 339.335 665.596 339.79 665.561C349.407 664.825 359.021 664.045 368.631 663.222C369.118 663.18 369.909 662.741 369.976 662.378C370.584 659.131 371.062 655.86 371.566 652.67C369.941 651.966 369.408 652.577 369.052 653.839C368.207 656.839 366.67 659.41 363.332 659.965C360.122 660.499 356.853 660.72 353.6 660.928C352.249 661.015 351.025 660.525 350.868 658.837C350.434 654.179 349.992 649.523 349.537 644.696C352.396 644.443 355.025 644.196 357.658 643.981C360.68 643.733 361.445 644.145 362.437 646.958C362.925 648.343 363.542 648.812 364.986 647.998C364.645 643.8 364.304 639.608 363.963 635.415C363.706 635.298 363.449 635.182 363.192 635.065C362.77 635.675 362.114 636.237 361.974 636.906C361.639 638.51 361.124 639.923 359.314 640.157C356.037 640.581 352.741 640.865 349.338 641.22C348.862 636.13 348.419 631.403 347.947 626.36C351.496 626.048 354.872 625.672 358.258 625.476C362.283 625.244 363.307 625.91 364.726 629.707C365.24 631.081 365.839 631.332 367.105 630.519C366.718 627.52 366.333 624.537 365.939 621.479C355.998 622.259 346.251 623.005 336.513 623.847C336.068 623.886 335.699 624.784 335.073 625.554C340.068 625.98 340.401 626.14 340.726 629.667C341.632 639.482 342.404 649.309 343.276 659.128C343.485 661.474 342.666 662.951 339.908 663.451ZM453.98 656.456C445.261 657.366 440.735 654.072 440.398 646.214C440.076 638.712 440.042 631.196 439.963 623.685C439.933 620.832 440.503 620.2 443.363 619.942C445.007 619.795 445.223 619.144 444.81 617.952C439.341 617.952 434.033 617.911 428.727 618.012C428.178 618.022 427.644 618.869 426.705 619.664C432.332 620.678 432.39 620.746 432.502 625.841C432.522 626.751 432.511 627.662 432.531 628.572C432.663 634.564 432.592 640.569 432.987 646.544C433.5 654.299 437.673 658.756 445.331 660.073C447.481 660.442 449.732 660.551 451.907 660.388C459.977 659.786 464.416 655.929 465.793 648.447C466.093 646.817 466.189 645.132 466.21 643.47C466.293 636.796 466.303 630.12 466.353 623.445C466.371 621.085 467.578 619.801 469.934 619.572C470.363 619.53 470.782 619.386 471.865 619.138C471.088 618.349 470.637 617.486 470.164 617.475C465.927 617.369 461.686 617.413 457.389 617.413C457.389 618.256 457.389 618.879 457.389 619.489C461.911 619.846 462.489 620.353 462.564 624.737C462.678 631.489 462.751 638.244 462.662 644.995C462.581 651.108 460.106 654.337 453.98 656.456ZM554.791 642.123C552.371 635.102 549.971 628.074 547.5 621.07C547.266 620.406 546.397 619.337 546.155 619.42C545.363 619.693 544.426 620.263 544.071 620.979C538.479 632.249 532.952 643.551 527.458 654.869C526.535 656.771 525.304 658.069 523.137 658.507C522.534 658.629 522.081 659.495 521.148 660.435C526.394 660.747 530.765 661.007 535.131 661.266C535.618 660.081 535.723 659.428 534.194 659.114C531.036 658.465 530.589 657.42 531.921 654.46C532.791 652.525 533.664 650.583 534.712 648.744C535.024 648.194 535.943 647.645 536.56 647.67C540.352 647.825 544.143 648.08 547.917 648.469C548.603 648.54 549.526 649.251 549.795 649.894C550.673 651.985 551.35 654.167 552.007 656.343C552.808 658.996 552.492 659.379 549.775 660.088C549.207 660.236 548.788 660.956 548.301 661.413C551.382 662.129 554.021 662.347 556.663 662.526C559.292 662.704 561.925 662.844 564.556 663.001C564.699 662.794 564.843 662.588 564.987 662.382C564.565 661.901 564.226 661.139 563.709 660.99C561.639 660.391 560.646 658.942 559.995 657.041C558.326 652.171 556.602 647.321 554.791 642.123ZM493.463 618.604C482.131 623.06 476.444 633.386 479.274 644.829C483.278 661.021 501.216 663.382 510.893 658.556C514.367 656.824 516.351 654.131 516.9 650.309C515.469 648.924 514.917 650.083 514.182 651.133C507.982 659.992 494.857 659.404 489.742 649.891C486.002 642.935 486.421 635.637 489.443 628.561C491.762 623.131 496.747 620.297 502.365 620.596C508.578 620.927 512.472 623.962 514.63 630.014C514.836 630.592 515.642 630.956 516.447 631.663C516.447 626.825 516.447 622.767 516.447 618.524C515.785 618.673 515.086 618.654 514.998 618.876C514.135 621.048 512.835 620.279 511.358 619.624C505.662 617.095 499.805 616.586 493.463 618.604ZM279.352 664.961C280.843 667.423 282.266 669.93 283.863 672.321C284.356 673.059 285.404 674.004 286.05 673.904C286.729 673.798 287.53 672.636 287.764 671.793C291.04 659.974 294.26 648.139 297.415 636.286C298.067 633.834 299.182 632.015 301.741 631.205C302.218 631.054 302.449 630.124 303.046 629.136C297.909 629.735 293.555 630.243 289.2 630.751C289.074 630.925 288.948 631.1 288.822 631.274C289.336 631.705 289.793 632.399 290.373 632.523C293.412 633.175 294.016 633.978 293.252 637.064C291.723 643.237 290.137 649.397 288.56 655.559C287.978 657.836 287.357 660.103 286.61 662.916C281.745 654.504 277.167 646.666 272.68 638.777C271.491 636.686 272.106 635.253 274.437 634.661C275.864 634.298 275.929 633.741 275.3 632.493C270.183 633.249 265.089 633.982 260.005 634.789C259.558 634.859 259.188 635.415 258.783 635.746C259.219 636.046 259.631 636.559 260.095 636.61C262.118 636.834 263.324 637.991 264.313 639.669C269.235 648.025 274.216 656.345 279.352 664.961ZM233.496 665.649C229.751 659.764 225.979 653.895 222.274 647.985C220.773 645.592 221.184 644.547 223.652 643.353C224.182 643.097 224.484 642.372 224.891 641.862C224.721 641.693 224.551 641.523 224.38 641.353C219.085 642.29 213.787 643.211 208.501 644.197C208.14 644.264 207.868 644.813 207.554 645.138C207.902 645.426 208.244 645.956 208.597 645.963C211.426 646.024 213.16 647.582 214.597 649.848C221.299 660.416 228.053 670.952 234.854 681.457C235.239 682.053 236.224 682.595 236.898 682.56C237.387 682.534 238.081 681.574 238.24 680.923C239.143 677.241 239.878 673.519 240.734 669.826C242.79 660.96 244.871 652.1 246.968 643.244C247.456 641.179 248.368 639.415 250.525 638.542C250.893 638.393 251.036 637.686 251.283 637.237C250.781 637.095 250.249 636.766 249.782 636.841C246.335 637.392 242.891 637.974 239.474 638.685C238.952 638.794 238.579 639.618 237.852 640.428C242.942 640.812 243.384 641.335 242.501 645.698C241.689 649.71 240.74 653.694 239.843 657.689C238.898 661.897 237.942 666.103 236.879 670.803C235.587 668.825 234.637 667.372 233.496 665.649ZM589.104 627.577C594.936 626.979 600.557 626.717 600.652 634.921C601.496 634.921 602.078 634.921 602.927 634.921C602.927 631.453 602.927 628.094 602.927 624.876C591.338 623.721 579.831 622.575 568.258 621.422C567.849 624.815 567.461 628.024 567.079 631.189C568.696 631.937 569.212 631.193 569.677 629.937C570.415 627.943 571.195 625.705 573.823 625.693C576.438 625.681 579.056 626.048 581.76 626.256C581.712 627.115 581.704 627.639 581.651 628.159C580.648 638.044 579.649 647.929 578.626 657.812C578.297 660.986 577.871 661.48 574.78 661.711C573.246 661.826 573.071 662.495 573.329 663.751C579.225 664.358 585.004 664.953 590.782 665.547C590.937 665.289 591.093 665.031 591.248 664.773C590.704 664.27 590.239 663.494 589.602 663.309C586.141 662.306 585.87 662.002 586.211 658.372C587.161 648.25 588.122 638.13 589.104 627.577ZM621.052 646.837C621.619 642.477 622.217 638.122 622.742 633.757C623.117 630.638 623.677 630.054 626.858 629.828C628.325 629.723 628.325 629.723 628.027 627.961C622.551 627.32 617.075 626.678 611.514 626.026C611.42 626.441 611.31 626.722 611.305 627.005C611.298 627.356 611.379 627.709 611.416 628.013C615.365 628.766 615.876 629.366 615.394 633.215C614.206 642.693 612.968 652.165 611.704 661.634C611.276 664.839 610.797 665.264 607.452 665.373C606.1 665.417 605.682 665.837 606.086 667.158C611.342 667.838 616.536 668.48 621.72 669.201C623.227 669.41 623.576 668.795 623.412 667.519C618.796 666.027 618.631 665.745 619.251 660.998C619.85 656.414 620.422 651.826 621.052 646.837Z" fill="#1A3660"/>
<path d="M410.121 628.906C414.214 636.441 414.772 643.902 410.352 651.311C407.267 656.483 399.774 659.24 394.007 657.42C393.392 657.226 392.601 656.348 392.565 655.746C391.921 645.005 391.382 634.258 390.824 623.605C397.817 620.859 405.732 623.063 410.121 628.906Z" fill="#1A3660"/>
<path d="M642.267 663.334C639.873 655.292 640.754 647.728 644.575 640.513C646.786 636.338 650.3 634.04 655.106 634.286C660.033 634.539 663.471 637.317 665.016 641.796C668.065 650.63 667.108 659.188 661.739 666.949C656.898 673.946 645.652 672.692 642.267 663.334Z" fill="#1A3660"/>
<path d="M539.092 639.383C540.499 636.351 541.832 633.475 543.393 630.104C545.048 635.287 546.567 640.042 548.179 645.092C544.342 644.836 540.766 644.598 536.963 644.344C537.728 642.554 538.372 641.046 539.092 639.383Z" fill="#1A3660"/>
<path d="M455.066 455.368C455.051 455.335 455.072 455.265 455.03 455.174C450.573 446.325 446.18 437.556 441.739 428.811C434.233 414.029 426.751 399.234 419.16 384.495C409.944 366.601 397.523 345.021 388.239 327.161H329.055C329.813 329.133 332.131 334.948 332.844 336.75C337.472 348.46 342.104 360.169 346.751 371.871C347.06 372.648 347.146 373.177 346.361 373.82C340.794 378.389 335.269 383.007 329.744 387.625L329.055 388.201C326.366 390.448 323.705 392.728 320.941 395.069C321.502 395.455 321.939 395.77 322.389 396.063C334.593 404.04 346.835 411.961 358.995 420.004C370.981 427.932 382.876 435.995 394.839 443.956C395.701 444.529 395.978 445.083 395.899 446.09C395.346 453.168 394.851 460.249 394.345 467.33C394.219 469.09 394.122 470.851 394 472.785C394.749 472.581 395.313 472.433 395.873 472.274C411.541 467.836 427.21 463.402 442.875 458.952C446.951 457.794 451.013 456.586 455.066 455.368Z" fill="#C8102E"/>
<path d="M454.936 455.368C454.951 455.335 454.93 455.265 454.972 455.174C459.429 446.325 463.822 437.556 468.263 428.811C475.769 414.029 483.251 399.234 490.842 384.495C500.058 366.601 512.479 345.021 521.763 327.161H580.947C580.189 329.133 577.871 334.948 577.158 336.75C572.53 348.46 567.898 360.169 563.251 371.871C562.942 372.648 562.856 373.177 563.641 373.82C569.208 378.389 574.734 383.007 580.259 387.626L580.947 388.201C583.636 390.448 586.297 392.728 589.061 395.069C588.5 395.455 588.063 395.77 587.613 396.063C575.409 404.04 563.167 411.961 551.007 420.004C539.021 427.932 527.126 435.995 515.163 443.956C514.301 444.529 514.024 445.083 514.102 446.09C514.656 453.168 515.151 460.249 515.657 467.33C515.783 469.09 515.88 470.851 516.002 472.785C515.253 472.581 514.689 472.433 514.129 472.274C498.461 467.836 482.792 463.402 467.127 458.952C463.051 457.794 458.989 456.586 454.936 455.368Z" fill="#1A3660"/>
<path d="M454.951 231.829C455.208 232.125 455.531 232.386 455.713 232.722C462.396 245.065 469.07 257.412 475.735 269.764C477.784 273.56 479.801 277.372 481.838 281.174C482.032 281.537 482.268 281.878 482.522 282.288C492.829 276.777 511.38 271.311 521.789 265.746C521.789 286.262 521.789 306.547 521.789 327.016C521.301 327.016 512.479 327.016 511.983 327.016C505.66 327.015 499.336 327.077 493.015 326.968C491.438 326.941 490.734 327.484 490.09 328.848C482.672 344.559 475.199 360.244 467.717 375.926C463.677 384.394 459.592 392.84 455.524 401.295C455.398 401.558 455.236 401.805 455.036 401.888C454.989 401.084 455.004 400.45 455.004 399.816C455 356.456 454.998 313.096 454.989 269.736C454.986 257.101 454.964 244.465 454.951 231.829Z" fill="#C8102E"/>
<path d="M454.878 231.888C454.965 244.465 454.987 257.101 454.989 269.737C454.998 313.097 455 356.457 455.004 399.817C455.004 400.451 454.989 401.084 454.986 401.839C453.719 399.452 452.393 396.97 451.186 394.431C441.763 374.61 432.361 354.78 422.958 334.95C421.872 332.661 420.788 330.371 419.768 328.053C419.408 327.235 418.922 326.973 418.04 326.979C411.6 327.019 405.158 327.006 398.717 327.009C398.137 327.01 388.887 327.009 388.238 327.009C388.238 306.607 388.238 286.34 388.238 265.744C398.544 271.293 417.382 276.767 427.635 282.287C436.702 265.486 445.753 248.716 454.878 231.888Z" fill="#C8102E"/>
<path d="M468.838 539.112C461.422 542.191 454.487 541.403 447.087 539.269C429.623 534.234 411.683 531.796 393.488 530.968C356.604 529.292 320.441 533.251 285.085 544.033C277.769 546.265 277.889 546.312 276.306 538.908C271.757 517.624 266.584 496.487 261.194 475.403C253.437 445.063 244.882 414.951 235.356 385.119C225.958 355.69 216.22 326.374 205.154 297.517C204.435 295.641 203.794 293.736 202.75 290.823C216.447 290.823 229.428 290.823 243.196 290.823C237.482 272.691 232.098 255.608 226.496 237.831C282.558 241.972 333.919 257.75 380.466 288.308C359.882 281.47 339.358 274.451 318.345 269.007C297.294 263.553 276.144 258.678 254.349 257.721C253.74 259.799 254.627 261.142 255.069 262.521C268.629 304.802 281.568 347.266 292.909 390.204C300.461 418.798 307.856 447.431 313.683 476.441C314.421 480.114 315.189 483.784 315.824 487.475C316.096 489.06 316.892 489.55 318.42 489.653C328.903 490.355 339.383 491.122 349.77 492.794C383.75 498.264 416.03 508.187 444.062 529.071C448.186 532.143 452.003 535.631 455.925 538.972C457.177 540.039 458.108 540.692 459.701 539.198C484.188 516.233 513.96 503.963 546.163 496.618C562.724 492.841 579.529 490.831 596.444 489.707C599.068 489.533 599.956 488.457 600.403 486.169C608.9 442.665 621.19 400.116 633.012 357.454C642.063 324.79 652.251 292.463 662.552 260.174C662.741 259.581 662.852 258.963 663.063 258.094C658.608 257.432 654.399 258.279 650.248 258.831C625.728 262.092 601.811 268.07 578.156 275.179C565.308 279.04 552.58 283.266 539.927 287.721C538.95 288.065 537.946 288.333 536.692 288.717C539.992 282.954 583.532 262.324 609.832 253.924C635.738 245.651 662.262 240.55 689.305 238.194C689.828 240.242 689.094 241.495 688.673 242.795C683.917 257.489 679.143 272.178 674.391 286.874C673.295 290.265 673.469 290.48 677.115 290.543C687.636 290.728 698.157 290.897 708.678 291.084C709.736 291.103 710.834 290.922 712.448 291.88C680.857 374.431 656.033 459.149 637.458 545.92C581.576 529.01 525.693 524.82 468.838 539.112ZM251.841 374.987C252.989 378.673 254.144 382.356 255.281 386.044C268.653 429.406 280.483 473.17 289.526 517.656C289.986 519.916 290.813 520.421 292.993 519.912C303.969 517.352 315.074 515.645 326.301 514.5C343.483 512.748 360.604 513.429 377.717 515.093C386.175 515.915 394.607 517.027 402.941 518.851C401.778 518.278 400.559 517.945 399.355 517.565C398.024 517.146 396.706 516.686 395.384 516.24C375.717 509.616 355.424 506.475 334.765 505.505C324.24 505.011 313.731 505.62 303.277 506.875C300.799 507.172 299.915 506.549 299.437 504.069C293.87 475.216 287.031 446.652 279.465 418.264C274.218 398.58 268.822 378.933 263.256 359.336C257.808 340.152 252.045 321.058 246.463 301.911C245.832 299.745 244.918 298.85 242.552 299.811C239.175 301.183 235.69 302.288 232.247 303.496C227.885 305.027 227.959 304.994 229.533 309.299C237.418 330.86 245.004 352.524 251.841 374.987ZM621.592 478.685C619.796 487.178 617.956 495.662 616.23 504.169C615.762 506.476 614.923 507.283 612.326 506.919C606.919 506.161 601.447 505.689 595.989 505.513C575.601 504.858 555.509 507.191 535.696 511.965C531.841 512.894 528.016 513.97 524.218 515.113C520.441 516.25 516.715 517.558 512.966 518.791C528.577 515.405 544.396 514.153 560.251 513.584C580.933 512.841 601.397 514.908 621.547 519.709C624.172 520.335 625.401 519.881 625.927 516.975C627.206 509.916 628.708 502.891 630.324 495.9C643.765 437.756 660.519 380.577 680.427 324.32C682.671 317.978 684.959 311.651 687.334 305.016C683.05 303.438 679.058 301.943 675.047 300.499C670.55 298.88 670.547 298.901 669.172 303.448C659.801 334.441 650.827 365.549 642.368 396.804C635.058 423.813 627.889 450.861 621.592 478.685Z" fill="#1A3660"/>
<path d="M441.312 164L445.375 146.253L431.75 134.316L449.75 132.737L456.75 116L463.75 132.737L481.75 134.316L468.125 146.253L472.188 164L456.75 154.589L441.312 164Z" fill="#1A3660"/>
<path d="M502.488 189L504.925 178.278L496.75 171.066L507.55 170.112L511.75 160L515.95 170.112L526.75 171.066L518.575 178.278L521.013 189L511.75 183.314L502.488 189Z" fill="#1A3660"/>
<path d="M392.488 189L394.925 178.278L386.75 171.066L397.55 170.112L401.75 160L405.95 170.112L416.75 171.066L408.575 178.278L411.013 189L401.75 183.314L392.488 189Z" fill="#1A3660"/>
<path d="M558.75 174H618.75" stroke="#1A3660" stroke-width="5" stroke-linecap="round"/>
<path d="M294.75 174H354.75" stroke="#1A3660" stroke-width="5" stroke-linecap="round"/>
<path d="M84.704 374.683C84.6352 372.286 83.7326 370.993 81.7416 369.891C78.3999 368.04 75.31 365.785 72.2644 362.99C59.3593 350.698 51.8479 326.149 57.839 314.811C71.2648 322.985 81.3868 333.505 84.9014 349.466C85.9262 338.501 88.3864 327.987 85.3001 316.804C80.1764 298.239 86.7158 282.243 99.299 268.385C100.027 267.583 100.765 266.743 102.609 266.666C105.368 272.091 106.602 278.16 107.371 284.332C109.106 298.28 105.472 310.895 96.99 321.934C93.5238 326.446 92.4229 331.448 91.7499 336.711C91.0267 342.367 90.6273 348.064 90.0619 354.003C91.5563 353.618 91.3978 352.486 91.6852 351.735C96.8121 338.336 106.901 330.146 119.781 324.839C122.794 323.598 123.607 325.156 123.328 327.667C121.409 344.952 115.898 361.462 95.1003 370.159C90.9114 371.91 89.603 374.002 89.9367 378.319C90.7122 388.352 91.1345 398.411 92.7979 408.464C94.7093 403.758 96.3055 398.989 98.7369 394.542C103.591 385.664 111.026 379.349 118.985 373.511C121.435 371.714 122.391 373.019 122.642 375.464C124.329 391.89 120.249 406.263 107.684 417.647C104.639 420.405 101.417 422.921 97.8261 424.905C95.8994 425.969 95.0994 427.258 95.5309 429.518C97.4214 439.42 99.6876 449.228 102.794 459.137C104.362 442.051 113.773 429.46 125.076 418.03C127.159 418.595 127.237 420.12 127.543 421.377C132.571 442.034 127.955 460.022 112.301 474.701C109.382 477.438 108.656 479.706 110.175 483.503C114.16 493.465 117.452 503.703 122.3 513.478C119.575 495.321 127.448 481.081 138.101 467.544C140.684 469.527 140.823 471.987 141.578 474.113C148.473 493.51 145.673 511.425 133.018 527.654C131.019 530.217 130.937 532.19 132.389 534.972C137.156 544.097 142.317 552.973 148.236 562.397C145.656 542.1 149.728 522.348 157.793 514.718C159.404 514.935 159.84 516.391 160.447 517.517C170.129 535.477 172.486 553.934 163.152 572.703C160.701 577.633 161.113 580.926 164.74 584.924C170.233 590.978 175.484 597.257 181.186 603.128C181.888 603.852 182.388 604.991 184.072 604.798C177.228 588.363 176.901 571.96 183.561 554.655C188.98 559.263 192.247 564.37 195.339 569.618C201.375 579.862 208.065 599.538 207.606 613L156.519 626.5C149.1 623.215 142.241 618.078 135.895 611.26C134.81 610.094 133.391 609.096 133.236 606.48C148.455 602.836 163.369 602.376 178.282 609.509C176.95 607.996 175.635 606.468 174.281 604.975C172.907 603.461 171.444 602.024 170.107 600.478C166.45 596.249 162.67 592.11 159.271 587.681C157.199 584.982 154.867 584.117 151.579 584.344C143.212 584.923 134.981 584.252 127.107 580.961C113.194 575.146 104.171 564.438 96.456 550.821C113.312 549.713 127.784 553.593 141.165 562.751C137.948 556.992 134.727 551.234 131.515 545.472C130.386 543.447 128.939 541.522 128.23 539.357C126.631 534.48 123.318 532.861 118.414 532.491C104.72 531.458 93.2997 525.586 84.402 515.094C78.7091 508.38 74.69 500.73 71.8176 491.181C88.6369 493.584 102.708 499.586 114.553 510.97C110.886 501.195 107.226 491.418 103.548 481.647C102.71 479.422 100.571 479.479 98.7606 479.109C87.3344 476.771 77.4041 471.816 69.7682 462.765C63.7267 455.604 60.358 447.186 58.2165 438.201C57.9447 437.06 57.2741 435.673 58.3593 434.716C59.7036 433.531 61.2304 434.425 62.5909 434.927C74.8038 439.429 85.8453 445.662 93.9459 456.233C94.4793 456.929 94.8275 457.945 96.1821 458.076C94.3276 449.931 92.1171 441.942 90.7981 433.808C89.9545 428.607 87.6516 425.982 82.7273 424.068C61.5815 415.85 52.9445 397.198 51.6901 376.283C51.6678 375.911 51.9205 375.523 52.2942 374.378C67.6905 380.222 78.7576 390.415 86.4194 404.99C86.2224 401.69 86.0231 398.391 85.829 395.091C85.4288 388.289 84.8994 381.491 84.704 374.683Z" fill="#1A3660"/>
<path d="M839.733 361.339C852.518 348.922 859.792 324.301 853.692 313.022C840.345 321.326 830.326 331.943 826.966 347.937C825.835 336.983 823.273 326.493 826.251 315.281C831.195 296.667 824.501 280.735 811.785 266.999L811.755 266.966C811.029 266.182 810.278 265.371 808.458 265.313C805.752 270.764 804.576 276.844 803.868 283.024C802.267 296.988 806.023 309.567 814.611 320.524C818.121 325.002 819.27 329.993 819.994 335.249C820.772 340.898 821.226 346.591 821.849 352.524C820.351 352.153 820.499 351.02 820.204 350.272C814.948 336.923 804.781 328.83 791.849 323.649C788.825 322.437 788.027 324.003 788.33 326.511C790.416 343.777 796.086 360.232 816.967 368.727C821.173 370.439 822.501 372.517 822.209 376.837C821.531 386.877 821.206 396.941 819.64 407.009C817.683 402.321 816.041 397.568 813.567 393.145C808.627 384.314 801.132 378.071 793.116 372.31C790.649 370.537 789.706 371.852 789.478 374.299C787.95 390.74 792.169 405.073 804.844 416.335C807.915 419.064 811.16 421.549 814.771 423.498C816.708 424.543 817.52 425.825 817.111 428.089C815.316 438.008 813.145 447.837 810.135 457.776C808.401 440.706 798.868 428.207 787.455 416.886C785.379 417.472 785.315 418.997 785.021 420.257C780.193 440.961 784.983 458.905 800.779 473.432C803.723 476.14 804.471 478.401 802.989 482.213C799.101 492.212 795.907 502.482 791.154 512.303C793.704 494.12 785.693 479.958 774.911 466.524C772.347 468.532 772.232 470.993 771.496 473.126C764.79 492.589 767.763 510.476 780.575 526.582C782.597 529.125 782.699 531.098 781.273 533.894C776.596 543.065 771.52 551.99 765.693 561.47C768.077 541.149 763.814 521.438 755.675 513.887C754.067 514.118 753.645 515.579 753.049 516.711C743.54 534.764 741.362 553.242 750.877 571.92C753.376 576.827 752.995 580.123 749.407 584.156C743.974 590.263 738.783 596.593 733.139 602.518C732.443 603.249 731.954 604.393 730.269 604.216C736.954 587.716 737.122 571.31 730.295 554.07C724.92 558.731 721.703 563.869 718.662 569.146C718.662 569.146 700.678 590.321 710.008 611L758.25 623.797C765.543 621.407 772.272 617.041 778.506 610.212C779.58 609.036 780.988 608.024 781.118 605.407C765.865 601.91 750.947 601.594 736.104 608.871C737.421 607.345 738.721 605.804 740.06 604.299C741.42 602.771 742.869 601.32 744.191 599.761C747.807 595.498 751.546 591.322 754.903 586.86C756.949 584.141 759.272 583.254 762.562 583.449C770.934 583.947 779.158 583.196 787 579.829C800.856 573.88 809.776 563.085 817.358 549.395C800.492 548.449 786.058 552.469 772.767 561.756C775.928 555.966 779.093 550.178 782.25 544.385C783.359 542.349 784.787 540.41 785.475 538.238C787.027 533.346 790.324 531.695 795.225 531.278C808.908 530.112 820.271 524.13 829.066 513.552C834.694 506.784 838.639 499.096 841.419 489.519C824.624 492.085 810.611 498.222 798.877 509.721C802.449 499.91 806.015 490.098 809.598 480.292C810.414 478.059 812.554 478.096 814.36 477.708C825.764 475.259 835.645 470.209 843.194 461.085C849.165 453.866 852.453 445.415 854.507 436.41C854.768 435.267 855.425 433.872 854.331 432.927C852.975 431.755 851.457 432.663 850.101 433.178C837.933 437.798 826.952 444.138 818.954 454.787C818.427 455.488 818.089 456.507 816.736 456.651C818.511 448.488 820.644 440.478 821.885 432.332C822.678 427.123 824.955 424.476 829.861 422.514C850.926 414.092 859.382 395.358 860.435 374.432C860.453 374.06 860.197 373.674 859.812 372.533C844.473 378.526 833.505 388.825 825.984 403.473C826.15 400.172 826.317 396.871 826.479 393.569C826.814 386.764 827.277 379.961 827.407 373.151C827.452 370.753 828.342 369.452 830.323 368.33C833.646 366.448 836.714 364.163 839.733 361.339Z" fill="#1A3660"/>
<path d="M528.143 724.75C528.143 720.55 528.843 717.388 530.243 715.265C531.643 713.142 533.649 712.08 536.263 712.08C539.086 712.08 541.151 713.13 542.458 715.23C543.764 717.307 544.418 720.48 544.418 724.75C544.418 728.95 543.706 732.112 542.283 734.235C540.883 736.358 538.806 737.42 536.053 737.42C534.629 737.42 533.416 737.14 532.413 736.58C531.409 735.997 530.593 735.168 529.963 734.095C529.333 732.998 528.866 731.668 528.563 730.105C528.283 728.542 528.143 726.757 528.143 724.75ZM531.503 724.75C531.503 726.43 531.584 727.958 531.748 729.335C531.911 730.712 532.168 731.902 532.518 732.905C532.891 733.885 533.358 734.643 533.918 735.18C534.501 735.717 535.201 735.985 536.018 735.985C537.861 735.985 539.156 735.075 539.903 733.255C540.673 731.435 541.058 728.6 541.058 724.75C541.058 723.07 540.988 721.542 540.848 720.165C540.708 718.788 540.451 717.61 540.078 716.63C539.704 715.65 539.203 714.892 538.573 714.355C537.966 713.818 537.196 713.55 536.263 713.55C534.513 713.55 533.276 714.46 532.553 716.28C531.853 718.077 531.503 720.9 531.503 724.75Z" fill="#1A3660"/>
<path d="M511.51 719.325H510.635C510.378 718.648 510.11 717.855 509.83 716.945C509.573 716.035 509.352 715.172 509.165 714.355C509.982 713.655 510.962 713.107 512.105 712.71C513.248 712.29 514.485 712.08 515.815 712.08C516.982 712.08 517.985 712.243 518.825 712.57C519.665 712.897 520.353 713.34 520.89 713.9C521.45 714.46 521.858 715.113 522.115 715.86C522.372 716.583 522.5 717.342 522.5 718.135C522.5 719.442 522.197 720.783 521.59 722.16C520.983 723.537 520.225 724.878 519.315 726.185C518.428 727.468 517.46 728.682 516.41 729.825C515.36 730.968 514.392 731.972 513.505 732.835L512.035 734.2V734.34L513.995 734.13H520.015L521.73 730.21H522.605C522.652 730.723 522.698 731.283 522.745 731.89C522.792 732.497 522.827 733.115 522.85 733.745C522.897 734.352 522.932 734.947 522.955 735.53C522.978 736.09 522.99 736.58 522.99 737H508.535V735.88C509.048 735.343 509.667 734.69 510.39 733.92C511.137 733.15 511.907 732.298 512.7 731.365C513.493 730.432 514.275 729.44 515.045 728.39C515.838 727.34 516.538 726.278 517.145 725.205C517.752 724.108 518.242 723.023 518.615 721.95C519.012 720.877 519.21 719.85 519.21 718.87C519.21 718.193 519.117 717.552 518.93 716.945C518.767 716.338 518.51 715.813 518.16 715.37C517.81 714.903 517.378 714.542 516.865 714.285C516.375 714.028 515.803 713.9 515.15 713.9C514.66 713.9 514.228 713.935 513.855 714.005C513.482 714.075 513.073 714.18 512.63 714.32L511.51 719.325Z" fill="#1A3660"/>
<path d="M488.02 724.75C488.02 720.55 488.72 717.388 490.12 715.265C491.52 713.142 493.526 712.08 496.14 712.08C498.963 712.08 501.028 713.13 502.335 715.23C503.641 717.307 504.295 720.48 504.295 724.75C504.295 728.95 503.583 732.112 502.16 734.235C500.76 736.358 498.683 737.42 495.93 737.42C494.506 737.42 493.293 737.14 492.29 736.58C491.286 735.997 490.47 735.168 489.84 734.095C489.21 732.998 488.743 731.668 488.44 730.105C488.16 728.542 488.02 726.757 488.02 724.75ZM491.38 724.75C491.38 726.43 491.461 727.958 491.625 729.335C491.788 730.712 492.045 731.902 492.395 732.905C492.768 733.885 493.235 734.643 493.795 735.18C494.378 735.717 495.078 735.985 495.895 735.985C497.738 735.985 499.033 735.075 499.78 733.255C500.55 731.435 500.935 728.6 500.935 724.75C500.935 723.07 500.865 721.542 500.725 720.165C500.585 718.788 500.328 717.61 499.955 716.63C499.581 715.65 499.08 714.892 498.45 714.355C497.843 713.818 497.073 713.55 496.14 713.55C494.39 713.55 493.153 714.46 492.43 716.28C491.73 718.077 491.38 720.9 491.38 724.75Z" fill="#1A3660"/>
<path d="M471.387 719.325H470.512C470.255 718.648 469.987 717.855 469.707 716.945C469.45 716.035 469.229 715.172 469.042 714.355C469.859 713.655 470.839 713.107 471.982 712.71C473.125 712.29 474.362 712.08 475.692 712.08C476.859 712.08 477.862 712.243 478.702 712.57C479.542 712.897 480.23 713.34 480.767 713.9C481.327 714.46 481.735 715.113 481.992 715.86C482.249 716.583 482.377 717.342 482.377 718.135C482.377 719.442 482.074 720.783 481.467 722.16C480.86 723.537 480.102 724.878 479.192 726.185C478.305 727.468 477.337 728.682 476.287 729.825C475.237 730.968 474.269 731.972 473.382 732.835L471.912 734.2V734.34L473.872 734.13H479.892L481.607 730.21H482.482C482.529 730.723 482.575 731.283 482.622 731.89C482.669 732.497 482.704 733.115 482.727 733.745C482.774 734.352 482.809 734.947 482.832 735.53C482.855 736.09 482.867 736.58 482.867 737H468.412V735.88C468.925 735.343 469.544 734.69 470.267 733.92C471.014 733.15 471.784 732.298 472.577 731.365C473.37 730.432 474.152 729.44 474.922 728.39C475.715 727.34 476.415 726.278 477.022 725.205C477.629 724.108 478.119 723.023 478.492 721.95C478.889 720.877 479.087 719.85 479.087 718.87C479.087 718.193 478.994 717.552 478.807 716.945C478.644 716.338 478.387 715.813 478.037 715.37C477.687 714.903 477.255 714.542 476.742 714.285C476.252 714.028 475.68 713.9 475.027 713.9C474.537 713.9 474.105 713.935 473.732 714.005C473.359 714.075 472.95 714.18 472.507 714.32L471.387 719.325Z" fill="#1A3660"/>
<path d="M449.531 735.005C449.531 734.305 449.753 733.745 450.196 733.325C450.64 732.905 451.211 732.695 451.911 732.695C452.635 732.695 453.218 732.905 453.661 733.325C454.105 733.745 454.326 734.305 454.326 735.005C454.326 735.682 454.105 736.23 453.661 736.65C453.218 737.07 452.635 737.28 451.911 737.28C451.211 737.28 450.64 737.07 450.196 736.65C449.753 736.23 449.531 735.682 449.531 735.005Z" fill="#1A3660"/>
<path d="M441.437 737H431.602V735.985C432.115 735.798 432.628 735.635 433.142 735.495C433.678 735.355 434.25 735.238 434.857 735.145V714.32H429.502L427.647 719.325H426.772C426.702 718.858 426.643 718.333 426.597 717.75C426.55 717.143 426.503 716.537 426.457 715.93C426.433 715.3 426.41 714.693 426.387 714.11C426.363 713.503 426.352 712.967 426.352 712.5H446.687C446.687 712.967 446.675 713.492 446.652 714.075C446.628 714.658 446.593 715.265 446.547 715.895C446.523 716.502 446.488 717.108 446.442 717.715C446.418 718.298 446.372 718.835 446.302 719.325H445.392L443.572 714.32H438.217V735.145C438.823 735.262 439.383 735.378 439.897 735.495C440.433 735.612 440.947 735.775 441.437 735.985V737Z" fill="#1A3660"/>
<path d="M410.771 734.585C411.051 734.865 411.412 735.11 411.856 735.32C412.299 735.507 412.964 735.6 413.851 735.6C414.597 735.6 415.297 735.507 415.951 735.32C416.604 735.11 417.164 734.818 417.631 734.445C418.121 734.048 418.506 733.582 418.786 733.045C419.066 732.485 419.206 731.855 419.206 731.155C419.206 730.222 418.914 729.44 418.331 728.81C417.771 728.18 417.059 727.62 416.196 727.13C415.356 726.64 414.434 726.162 413.431 725.695C412.427 725.228 411.494 724.68 410.631 724.05C409.791 723.397 409.079 722.627 408.496 721.74C407.936 720.83 407.656 719.698 407.656 718.345C407.656 717.365 407.831 716.49 408.181 715.72C408.531 714.95 409.021 714.297 409.651 713.76C410.304 713.223 411.074 712.815 411.961 712.535C412.847 712.232 413.839 712.08 414.936 712.08C416.359 712.08 417.654 712.197 418.821 712.43C420.011 712.64 420.944 712.908 421.621 713.235C421.621 713.632 421.586 714.098 421.516 714.635C421.469 715.148 421.399 715.685 421.306 716.245C421.236 716.805 421.154 717.353 421.061 717.89C420.967 718.403 420.874 718.858 420.781 719.255H419.871L418.471 714.46C418.051 714.273 417.514 714.133 416.861 714.04C416.231 713.947 415.554 713.9 414.831 713.9C413.641 713.9 412.684 714.238 411.961 714.915C411.237 715.568 410.876 716.49 410.876 717.68C410.876 718.637 411.156 719.442 411.716 720.095C412.299 720.748 413.022 721.332 413.886 721.845C414.749 722.358 415.671 722.86 416.651 723.35C417.654 723.817 418.587 724.365 419.451 724.995C420.314 725.625 421.026 726.372 421.586 727.235C422.169 728.098 422.461 729.172 422.461 730.455C422.461 731.505 422.262 732.462 421.866 733.325C421.492 734.188 420.944 734.923 420.221 735.53C419.497 736.137 418.611 736.603 417.561 736.93C416.511 737.257 415.321 737.42 413.991 737.42C412.521 737.42 411.202 737.245 410.036 736.895C408.869 736.545 408.041 736.172 407.551 735.775C407.574 735.378 407.609 734.9 407.656 734.34C407.726 733.78 407.796 733.208 407.866 732.625C407.959 732.018 408.052 731.435 408.146 730.875C408.239 730.315 408.332 729.837 408.426 729.44H409.336L410.771 734.585Z" fill="#1A3660"/>
<path d="M401.356 712.5C401.332 713.433 401.286 714.378 401.216 715.335C401.169 716.268 401.087 717.213 400.971 718.17H400.061L398.626 714.32H390.996V723.595H396.701L398.066 721.005H398.941C399.081 723.315 399.081 725.672 398.941 728.075H398.066L396.701 725.415H390.996V735.18H399.046L400.761 730.98H401.636C401.799 731.96 401.916 732.952 401.986 733.955C402.056 734.958 402.067 735.973 402.021 737H384.766V735.985C385.582 735.612 386.539 735.332 387.636 735.145V714.39C387.169 714.297 386.691 714.18 386.201 714.04C385.711 713.877 385.232 713.702 384.766 713.515V712.5H401.356Z" fill="#1A3660"/>
<path d="M562.75 725H612.75" stroke="#1A3660" stroke-width="5" stroke-linecap="round"/>
<path d="M307.75 725H357.75" stroke="#1A3660" stroke-width="5" stroke-linecap="round"/>
</svg>
