<svg width="1361" height="321" viewBox="0 0 1361 321" fill="none" xmlns="http://www.w3.org/2000/svg">
<path d="M176.999 296.976C177.018 296.932 176.99 296.839 177.046 296.718C182.933 284.962 188.737 273.312 194.603 261.694C204.518 242.056 214.401 222.401 224.428 202.82C236.603 179.046 253.01 150.378 265.273 126.65H343.452C342.451 129.27 339.389 136.996 338.448 139.389C332.334 154.946 326.216 170.502 320.076 186.049C319.669 187.08 319.556 187.783 320.592 188.638C327.945 194.707 335.244 200.843 342.543 206.978L343.452 207.742C347.004 210.728 350.519 213.757 354.17 216.868C353.429 217.381 352.852 217.798 352.258 218.189C336.136 228.785 319.966 239.309 303.903 249.994C288.071 260.526 272.358 271.238 256.556 281.814C255.417 282.576 255.05 283.311 255.154 284.65C255.885 294.052 256.539 303.461 257.208 312.868C257.374 315.205 257.503 317.545 257.663 320.114C256.674 319.843 255.929 319.647 255.189 319.436C234.493 313.539 213.794 307.649 193.102 301.737C187.718 300.199 182.353 298.594 176.999 296.976Z" fill="#1A3660"/>
<path d="M88.8965 126.65C101.16 150.378 117.568 179.047 129.742 202.82C139.769 222.401 149.652 242.056 159.567 261.694C165.433 273.312 171.237 284.962 177.124 296.719C177.179 296.839 177.152 296.931 177.171 296.976C171.817 298.594 166.451 300.199 161.067 301.737C140.375 307.649 119.677 313.539 98.9805 319.436C98.2403 319.646 97.4961 319.843 96.5068 320.114C96.6674 317.545 96.7968 315.205 96.9629 312.868C97.6314 303.461 98.2851 294.053 99.0156 284.65C99.1196 283.312 98.7527 282.576 97.6143 281.814C81.8118 271.238 66.0993 260.526 50.2676 249.994C34.2046 239.308 18.033 228.785 1.91113 218.188C1.31724 217.798 0.740782 217.381 0 216.868C3.65044 213.758 7.16589 210.728 10.7178 207.742L11.627 206.978C18.9255 200.842 26.2247 194.707 33.5781 188.639C34.6145 187.783 34.5011 187.08 34.0938 186.049C27.9546 170.502 21.8361 154.946 15.7217 139.389C14.7808 136.995 11.7184 129.269 10.7178 126.65H88.8965ZM177.021 0C177.361 0.393217 177.787 0.739865 178.027 1.18652C186.855 17.5837 195.672 33.9876 204.477 50.3975C207.182 55.4401 209.846 60.5051 212.537 65.5557C212.794 66.0377 213.106 66.4904 213.44 67.0352C227.056 59.7142 251.56 52.4531 265.311 45.0596V126.457C264.667 126.457 253.012 126.457 252.357 126.457C244.005 126.456 235.652 126.538 227.302 126.394C225.219 126.357 224.289 127.079 223.438 128.891C213.639 149.763 203.767 170.602 193.884 191.436C188.547 202.685 183.151 213.907 177.778 225.139C177.611 225.488 177.397 225.816 177.133 225.927C177.102 225.393 177.092 224.915 177.089 224.466L177.091 223.174C177.091 224.016 177.071 224.859 177.066 225.861C175.393 222.69 173.641 219.392 172.047 216.02C159.599 189.688 147.18 163.342 134.759 136.997C133.325 133.957 131.893 130.914 130.546 127.835C130.07 126.748 129.428 126.4 128.264 126.407C119.756 126.461 111.247 126.444 102.738 126.448C101.97 126.449 89.7534 126.448 88.8965 126.448V45.0566C102.509 52.4274 127.393 59.7001 140.937 67.0332C152.914 44.714 164.87 22.4342 176.924 0.0771484C177.008 12.3111 177.045 24.5865 177.061 36.873C177.05 24.582 177.034 12.291 177.021 0Z" fill="#C8102E"/>
<path d="M1343.83 140.797H1321.1V129.503H1343.83V116.004H1321.1V104.709H1343.83V89.9707H1357.74V181.018H1343.83V140.797ZM1289.56 136.527C1289.01 136.527 1288.5 136.803 1288.04 137.354C1285.56 141.578 1282.35 145.894 1278.4 150.302C1274.55 154.618 1269.59 159.76 1263.53 165.729L1253.2 156.776C1260.54 149.888 1266.28 143.828 1270.41 138.594C1274.64 133.359 1277.67 128.125 1279.5 122.891C1281.43 117.565 1282.4 111.688 1282.4 105.26V95.7559H1296.45V105.949C1296.45 115.315 1294.7 123.763 1291.21 131.293L1291.9 131.706L1294.66 129.365C1296.03 128.263 1297.32 127.712 1298.51 127.712C1299.8 127.712 1300.99 128.309 1302.09 129.503L1326.06 154.021L1315.87 163.525L1291.35 137.354C1290.8 136.803 1290.2 136.527 1289.56 136.527ZM1360.22 201.817V213.25H1288.59C1285.66 213.25 1283.41 212.469 1281.85 210.908C1280.38 209.347 1279.64 207.097 1279.64 204.159V172.065H1293.55V201.817H1360.22Z" fill="#1A3660"/>
<path d="M1210.83 89.9707H1224.88V210.633H1210.83V89.9707ZM1124.05 138.869C1124.05 125.187 1127.03 114.902 1133 108.015C1139.06 101.036 1147.1 97.5465 1157.11 97.5465C1167.02 97.5465 1174.97 101.036 1180.94 108.015C1187 114.902 1190.03 125.187 1190.03 138.869C1190.03 152.46 1187 162.744 1180.94 169.723C1174.97 176.702 1167.02 180.192 1157.11 180.192C1147.19 180.192 1139.2 176.702 1133.14 169.723C1127.08 162.744 1124.05 152.46 1124.05 138.869ZM1175.15 145.618V132.12C1175.15 124.682 1173.5 119.034 1170.19 115.177C1166.89 111.229 1162.52 109.255 1157.11 109.255C1151.6 109.255 1147.19 111.229 1143.88 115.177C1140.58 119.034 1138.92 124.682 1138.92 132.12V145.618C1138.92 152.965 1140.58 158.612 1143.88 162.561C1147.19 166.509 1151.6 168.484 1157.11 168.484C1162.52 168.484 1166.89 166.509 1170.19 162.561C1173.5 158.612 1175.15 152.965 1175.15 145.618Z" fill="#1A3660"/>
<path d="M1095.59 89.9707V210.633H1082.23V89.9707H1095.59ZM1055.37 91.8991H1068.46V207.327H1055.37V146.445H1038.15C1035.49 153.607 1031.08 160.357 1024.93 166.693C1018.78 173.029 1010.24 180.054 999.309 187.767L990.493 178.539C1000.87 171.284 1008.81 164.902 1014.32 159.393C1019.92 153.791 1023.83 147.822 1026.03 141.486L991.871 144.516L990.355 133.222L1028.37 131.156C1028.65 128.952 1028.79 126.61 1028.79 124.131V112.836H994.763V101.817H1041.73V124.268C1041.73 127.574 1041.5 131.156 1041.04 135.012H1055.37V91.8991Z" fill="#1A3660"/>
<path d="M953.635 144.929H872.78V94.3779H952.67V106.086H886.967V133.221H953.635V144.929ZM969.062 171.651H941.1V214.489H927.326V171.651H897.849V214.489H884.075V171.651H856.113V159.943H969.062V171.651Z" fill="#1A3660"/>
<path d="M830.684 89.9707V210.633H817.324V89.9707H830.684ZM790.739 91.8991H803.963V207.327H790.739V145.481H780.271C779.628 157.143 776.781 165.958 771.731 171.927C766.772 177.804 760.252 180.743 752.172 180.743C743.54 180.743 736.699 177.345 731.648 170.55C726.598 163.754 724.072 153.699 724.072 140.384C724.072 126.977 726.598 116.922 731.648 110.219C736.699 103.423 743.54 100.026 752.172 100.026C760.161 100.026 766.589 102.873 771.455 108.566C776.414 114.167 779.307 122.616 780.133 133.91H790.739V91.8991ZM766.221 131.706C766.221 125.003 764.936 119.907 762.364 116.417C759.793 112.836 756.396 111.045 752.172 111.045C747.948 111.045 744.55 112.836 741.979 116.417C739.499 119.907 738.26 125.003 738.26 131.706V149.062C738.26 155.765 739.499 160.908 741.979 164.489C744.55 167.979 747.948 169.723 752.172 169.723C756.488 169.723 759.885 167.979 762.364 164.489C764.936 160.908 766.221 155.765 766.221 149.062V131.706Z" fill="#1A3660"/>
<path d="M589.019 171.59V201.067H659.405V214H583.172C580.103 214 577.636 213.182 575.893 211.438L575.885 211.431L575.877 211.422C574.235 209.677 573.469 207.217 573.469 204.159V171.59H589.019ZM656.788 89.2207V183.559H641.927V138.518H629.377V179.978H614.654V91.0117H629.377V125.585H641.927V89.2207H656.788ZM603.344 97.3477V159.592H552.119V97.4854H566.566V117.183H589.034V97.3477H603.344ZM566.566 147.072H589.034V129.701H566.566V147.072Z" fill="#1A3660" stroke="#1A3660" stroke-width="1.5"/>
<path d="M523.372 175.998V188.104H488.33C488.008 191.589 486.83 194.748 484.81 197.575L485.546 197.074C487.497 195.681 489.223 194.869 490.665 194.869C491.092 194.869 491.794 194.988 492.729 195.2L493.74 195.442L493.777 195.451L493.813 195.465L526.872 207.448L527.734 207.761L527.256 208.544L521.195 218.462L520.864 219.003L520.276 218.767L484.601 204.441L484.583 204.435L484.566 204.427C483.476 203.923 482.298 203.669 481.023 203.669C480.068 203.669 478.813 203.947 477.234 204.555L476.895 204.783L476.883 204.79C469.627 209.441 457.604 214.241 440.879 219.203L440.322 219.368L440.022 218.871L433.962 208.815L433.44 207.95L434.42 207.702C448.185 204.215 457.933 200.881 463.722 197.716L463.726 197.713C469.144 194.795 472.297 191.575 473.429 188.104H437.573V175.998H523.372ZM500.507 156.989V169.096H461.127V156.989H500.507ZM521.581 89.2207V159.729H506.169V89.2207H521.581ZM482.049 93.4902V150.363H422.146V93.6289H437.146V110.57H466.912V93.4902H482.049ZM437.146 137.844H466.912V123.228H437.146V137.844Z" fill="#1A3660" stroke="#1A3660" stroke-width="1.5"/>
<path d="M1352.7 288.523V282.027L1352.53 280.963V270.099C1352.53 267.597 1351.83 265.675 1350.41 264.331C1349.03 262.987 1346.95 262.315 1344.19 262.315C1342.29 262.315 1340.48 262.632 1338.76 263.267C1337.04 263.901 1335.59 264.741 1334.39 265.787L1332.6 262.819C1334.09 261.549 1335.88 260.579 1337.97 259.907C1340.07 259.197 1342.27 258.843 1344.58 258.843C1348.39 258.843 1351.32 259.795 1353.37 261.699C1355.47 263.565 1356.51 266.421 1356.51 270.267V288.523H1352.7ZM1342.57 288.803C1340.36 288.803 1338.44 288.448 1336.8 287.739C1335.19 286.992 1333.96 285.984 1333.1 284.715C1332.24 283.408 1331.81 281.915 1331.81 280.235C1331.81 278.704 1332.17 277.323 1332.88 276.091C1333.63 274.821 1334.82 273.813 1336.46 273.067C1338.14 272.283 1340.38 271.891 1343.18 271.891H1353.32V274.859H1343.29C1340.46 274.859 1338.48 275.363 1337.36 276.371C1336.28 277.379 1335.73 278.629 1335.73 280.123C1335.73 281.803 1336.39 283.147 1337.69 284.155C1339 285.163 1340.83 285.667 1343.18 285.667C1345.42 285.667 1347.35 285.163 1348.95 284.155C1350.59 283.109 1351.79 281.616 1352.53 279.675L1353.43 282.419C1352.68 284.36 1351.38 285.909 1349.51 287.067C1347.68 288.224 1345.37 288.803 1342.57 288.803Z" fill="#C8102E"/>
<path d="M1308.03 288.803C1305.23 288.803 1302.71 288.168 1300.47 286.899C1298.27 285.629 1296.53 283.875 1295.26 281.635C1293.99 279.357 1293.36 276.744 1293.36 273.795C1293.36 270.808 1293.99 268.195 1295.26 265.955C1296.53 263.715 1298.27 261.979 1300.47 260.747C1302.71 259.477 1305.23 258.843 1308.03 258.843C1310.61 258.843 1312.9 259.421 1314.92 260.579C1316.97 261.736 1318.59 263.435 1319.79 265.675C1321.02 267.877 1321.64 270.584 1321.64 273.795C1321.64 276.968 1321.04 279.675 1319.85 281.915C1318.65 284.155 1317.03 285.872 1314.97 287.067C1312.96 288.224 1310.64 288.803 1308.03 288.803ZM1308.31 285.275C1310.4 285.275 1312.27 284.808 1313.91 283.875C1315.59 282.904 1316.9 281.56 1317.83 279.843C1318.8 278.088 1319.29 276.072 1319.29 273.795C1319.29 271.48 1318.8 269.464 1317.83 267.747C1316.9 266.029 1315.59 264.704 1313.91 263.771C1312.27 262.8 1310.4 262.315 1308.31 262.315C1306.26 262.315 1304.41 262.8 1302.77 263.771C1301.12 264.704 1299.82 266.029 1298.85 267.747C1297.87 269.464 1297.39 271.48 1297.39 273.795C1297.39 276.072 1297.87 278.088 1298.85 279.843C1299.82 281.56 1301.12 282.904 1302.77 283.875C1304.41 284.808 1306.26 285.275 1308.31 285.275ZM1319.4 288.523V279.675L1319.79 273.739L1319.23 267.803V246.971H1323.21V288.523H1319.4Z" fill="#C8102E"/>
<path d="M1281.72 288.523V282.027L1281.55 280.963V270.099C1281.55 267.597 1280.84 265.675 1279.42 264.331C1278.04 262.987 1275.97 262.315 1273.21 262.315C1271.3 262.315 1269.49 262.632 1267.77 263.267C1266.06 263.901 1264.6 264.741 1263.41 265.787L1261.61 262.819C1263.11 261.549 1264.9 260.579 1266.99 259.907C1269.08 259.197 1271.28 258.843 1273.6 258.843C1277.41 258.843 1280.34 259.795 1282.39 261.699C1284.48 263.565 1285.53 266.421 1285.53 270.267V288.523H1281.72ZM1271.58 288.803C1269.38 288.803 1267.46 288.448 1265.81 287.739C1264.21 286.992 1262.98 285.984 1262.12 284.715C1261.26 283.408 1260.83 281.915 1260.83 280.235C1260.83 278.704 1261.18 277.323 1261.89 276.091C1262.64 274.821 1263.84 273.813 1265.48 273.067C1267.16 272.283 1269.4 271.891 1272.2 271.891H1282.33V274.859H1272.31C1269.47 274.859 1267.49 275.363 1266.37 276.371C1265.29 277.379 1264.75 278.629 1264.75 280.123C1264.75 281.803 1265.4 283.147 1266.71 284.155C1268.02 285.163 1269.85 285.667 1272.2 285.667C1274.44 285.667 1276.36 285.163 1277.97 284.155C1279.61 283.109 1280.8 281.616 1281.55 279.675L1282.45 282.419C1281.7 284.36 1280.39 285.909 1278.53 287.067C1276.7 288.224 1274.38 288.803 1271.58 288.803Z" fill="#C8102E"/>
<path d="M1225.45 288.523V259.123H1229.26V267.187L1228.64 265.675C1229.58 263.547 1231.07 261.885 1233.12 260.691C1235.18 259.459 1237.62 258.843 1240.46 258.843C1242.85 258.843 1244.94 259.309 1246.73 260.243C1248.56 261.139 1249.98 262.52 1250.99 264.387C1252.03 266.253 1252.56 268.605 1252.56 271.443V288.523H1248.58V271.835C1248.58 268.736 1247.8 266.403 1246.23 264.835C1244.7 263.229 1242.53 262.427 1239.73 262.427C1237.64 262.427 1235.81 262.856 1234.24 263.715C1232.71 264.536 1231.52 265.749 1230.66 267.355C1229.84 268.923 1229.43 270.827 1229.43 273.067V288.523H1225.45Z" fill="#C8102E"/>
<path d="M1210.84 288.523V282.027L1210.68 280.963V270.099C1210.68 267.597 1209.97 265.675 1208.55 264.331C1207.17 262.987 1205.09 262.315 1202.33 262.315C1200.43 262.315 1198.62 262.632 1196.9 263.267C1195.18 263.901 1193.73 264.741 1192.53 265.787L1190.74 262.819C1192.23 261.549 1194.02 260.579 1196.12 259.907C1198.21 259.197 1200.41 258.843 1202.72 258.843C1206.53 258.843 1209.46 259.795 1211.52 261.699C1213.61 263.565 1214.65 266.421 1214.65 270.267V288.523H1210.84ZM1200.71 288.803C1198.5 288.803 1196.58 288.448 1194.94 287.739C1193.33 286.992 1192.1 285.984 1191.24 284.715C1190.38 283.408 1189.96 281.915 1189.96 280.235C1189.96 278.704 1190.31 277.323 1191.02 276.091C1191.77 274.821 1192.96 273.813 1194.6 273.067C1196.28 272.283 1198.52 271.891 1201.32 271.891H1211.46V274.859H1201.44C1198.6 274.859 1196.62 275.363 1195.5 276.371C1194.42 277.379 1193.88 278.629 1193.88 280.123C1193.88 281.803 1194.53 283.147 1195.84 284.155C1197.14 285.163 1198.97 285.667 1201.32 285.667C1203.56 285.667 1205.49 285.163 1207.09 284.155C1208.73 283.109 1209.93 281.616 1210.68 279.675L1211.57 282.419C1210.82 284.36 1209.52 285.909 1207.65 287.067C1205.82 288.224 1203.51 288.803 1200.71 288.803Z" fill="#C8102E"/>
<path d="M1171.02 288.858C1168.07 288.858 1165.34 288.373 1162.84 287.402C1160.34 286.394 1158.17 284.994 1156.35 283.202C1154.52 281.41 1153.08 279.301 1152.03 276.874C1151.03 274.448 1150.52 271.797 1150.52 268.922C1150.52 266.048 1151.03 263.397 1152.03 260.97C1153.08 258.544 1154.52 256.434 1156.35 254.642C1158.21 252.85 1160.4 251.469 1162.9 250.498C1165.4 249.49 1168.12 248.986 1171.07 248.986C1173.91 248.986 1176.58 249.472 1179.08 250.442C1181.58 251.376 1183.69 252.794 1185.41 254.698L1182.78 257.33C1181.17 255.688 1179.4 254.512 1177.46 253.802C1175.52 253.056 1173.43 252.682 1171.19 252.682C1168.83 252.682 1166.65 253.093 1164.63 253.914C1162.62 254.698 1160.86 255.837 1159.37 257.33C1157.88 258.786 1156.7 260.504 1155.84 262.482C1155.02 264.424 1154.61 266.57 1154.61 268.922C1154.61 271.274 1155.02 273.44 1155.84 275.418C1156.7 277.36 1157.88 279.077 1159.37 280.57C1160.86 282.026 1162.62 283.165 1164.63 283.986C1166.65 284.77 1168.83 285.162 1171.19 285.162C1173.43 285.162 1175.52 284.789 1177.46 284.042C1179.4 283.296 1181.17 282.101 1182.78 280.458L1185.41 283.09C1183.69 284.994 1181.58 286.432 1179.08 287.402C1176.58 288.373 1173.89 288.858 1171.02 288.858Z" fill="#C8102E"/>
<path d="M1100.65 288.523V259.123H1104.46V267.187L1103.85 265.675C1104.78 263.547 1106.27 261.885 1108.33 260.691C1110.38 259.459 1112.82 258.843 1115.66 258.843C1118.05 258.843 1120.14 259.309 1121.93 260.243C1123.76 261.139 1125.18 262.52 1126.19 264.387C1127.24 266.253 1127.76 268.605 1127.76 271.443V288.523H1123.78V271.835C1123.78 268.736 1123 266.403 1121.43 264.835C1119.9 263.229 1117.73 262.427 1114.93 262.427C1112.84 262.427 1111.01 262.856 1109.45 263.715C1107.92 264.536 1106.72 265.749 1105.86 267.355C1105.04 268.923 1104.63 270.827 1104.63 273.067V288.523H1100.65Z" fill="#C8102E"/>
<path d="M1085.61 288.523V259.123H1089.59V288.523H1085.61ZM1087.63 252.627C1086.81 252.627 1086.12 252.347 1085.56 251.787C1085 251.227 1084.72 250.555 1084.72 249.771C1084.72 248.987 1085 248.333 1085.56 247.811C1086.12 247.251 1086.81 246.971 1087.63 246.971C1088.45 246.971 1089.14 247.232 1089.7 247.755C1090.26 248.277 1090.54 248.931 1090.54 249.715C1090.54 250.536 1090.26 251.227 1089.7 251.787C1089.18 252.347 1088.49 252.627 1087.63 252.627Z" fill="#C8102E"/>
<path d="M1051.51 288.803C1049.08 288.803 1046.79 288.467 1044.62 287.795C1042.46 287.085 1040.76 286.208 1039.53 285.163L1041.32 282.027C1042.51 282.923 1044.04 283.707 1045.91 284.379C1047.78 285.013 1049.74 285.331 1051.79 285.331C1054.59 285.331 1056.61 284.901 1057.84 284.043C1059.07 283.147 1059.69 281.971 1059.69 280.515C1059.69 279.432 1059.33 278.592 1058.62 277.995C1057.95 277.36 1057.05 276.893 1055.93 276.595C1054.81 276.259 1053.56 275.979 1052.18 275.755C1050.8 275.531 1049.42 275.269 1048.04 274.971C1046.69 274.672 1045.46 274.243 1044.34 273.683C1043.22 273.085 1042.31 272.283 1041.6 271.275C1040.93 270.267 1040.59 268.923 1040.59 267.243C1040.59 265.637 1041.04 264.2 1041.93 262.931C1042.83 261.661 1044.14 260.672 1045.85 259.963C1047.61 259.216 1049.74 258.843 1052.24 258.843C1054.14 258.843 1056.05 259.104 1057.95 259.627C1059.85 260.112 1061.42 260.765 1062.65 261.587L1060.92 264.779C1059.61 263.883 1058.21 263.248 1056.72 262.875C1055.22 262.464 1053.73 262.259 1052.24 262.259C1049.59 262.259 1047.63 262.725 1046.36 263.659C1045.13 264.555 1044.51 265.712 1044.51 267.131C1044.51 268.251 1044.85 269.128 1045.52 269.763C1046.23 270.397 1047.14 270.901 1048.26 271.275C1049.42 271.611 1050.67 271.891 1052.01 272.115C1053.39 272.339 1054.76 272.619 1056.1 272.955C1057.48 273.253 1058.73 273.683 1059.85 274.243C1061.01 274.765 1061.93 275.531 1062.6 276.539C1063.31 277.509 1063.66 278.797 1063.66 280.403C1063.66 282.12 1063.18 283.613 1062.21 284.883C1061.27 286.115 1059.89 287.085 1058.06 287.795C1056.27 288.467 1054.09 288.803 1051.51 288.803Z" fill="#C8102E"/>
<path d="M1013.81 299.666C1012.43 299.666 1011.11 299.442 1009.84 298.994C1008.61 298.546 1007.54 297.874 1006.65 296.978L1008.49 294.01C1009.24 294.719 1010.04 295.261 1010.9 295.634C1011.8 296.045 1012.79 296.25 1013.87 296.25C1015.18 296.25 1016.3 295.877 1017.23 295.13C1018.2 294.421 1019.12 293.151 1019.97 291.322L1021.88 287.01L1022.33 286.394L1034.42 259.122H1038.34L1023.61 292.05C1022.79 293.954 1021.88 295.466 1020.87 296.586C1019.9 297.706 1018.84 298.49 1017.68 298.938C1016.52 299.423 1015.23 299.666 1013.81 299.666ZM1021.65 289.362L1008.1 259.122H1012.25L1024.23 286.114L1021.65 289.362Z" fill="#C8102E"/>
<path d="M1000.08 288.523V282.027L999.909 280.963V270.099C999.909 267.597 999.2 265.675 997.781 264.331C996.4 262.987 994.328 262.315 991.565 262.315C989.661 262.315 987.851 262.632 986.133 263.267C984.416 263.901 982.96 264.741 981.765 265.787L979.973 262.819C981.467 261.549 983.259 260.579 985.349 259.907C987.44 259.197 989.643 258.843 991.957 258.843C995.765 258.843 998.696 259.795 1000.75 261.699C1002.84 263.565 1003.89 266.421 1003.89 270.267V288.523H1000.08ZM989.941 288.803C987.739 288.803 985.816 288.448 984.173 287.739C982.568 286.992 981.336 285.984 980.477 284.715C979.619 283.408 979.189 281.915 979.189 280.235C979.189 278.704 979.544 277.323 980.253 276.091C981 274.821 982.195 273.813 983.837 273.067C985.517 272.283 987.757 271.891 990.557 271.891H1000.69V274.859H990.669C987.832 274.859 985.853 275.363 984.733 276.371C983.651 277.379 983.109 278.629 983.109 280.123C983.109 281.803 983.763 283.147 985.069 284.155C986.376 285.163 988.205 285.667 990.557 285.667C992.797 285.667 994.72 285.163 996.325 284.155C997.968 283.109 999.163 281.616 999.909 279.675L1000.81 282.419C1000.06 284.36 998.752 285.909 996.885 287.067C995.056 288.224 992.741 288.803 989.941 288.803Z" fill="#C8102E"/>
<path d="M939.52 288.522L928.432 259.122H932.24L942.32 286.394H940.584L950.944 259.122H954.36L964.608 286.394H962.872L973.12 259.122H976.76L965.616 288.522H961.864L952.008 262.874H953.184L943.272 288.522H939.52Z" fill="#C8102E"/>
<path d="M896.232 288.523V246.971H900.208V267.187L899.424 265.675C900.358 263.547 901.851 261.885 903.904 260.691C905.958 259.459 908.403 258.843 911.24 258.843C913.63 258.843 915.72 259.309 917.512 260.243C919.342 261.139 920.76 262.52 921.768 264.387C922.814 266.253 923.336 268.605 923.336 271.443V288.523H919.36V271.835C919.36 268.736 918.576 266.403 917.008 264.835C915.478 263.229 913.312 262.427 910.512 262.427C908.422 262.427 906.592 262.856 905.024 263.715C903.494 264.536 902.299 265.749 901.44 267.355C900.619 268.923 900.208 270.827 900.208 273.067V288.523H896.232Z" fill="#C8102E"/>
<path d="M882.777 288.803C880.014 288.803 877.886 288.056 876.393 286.563C874.899 285.07 874.153 282.96 874.153 280.235V252.627H878.129V280.011C878.129 281.728 878.558 283.054 879.417 283.987C880.313 284.92 881.582 285.387 883.225 285.387C884.979 285.387 886.435 284.883 887.593 283.875L888.993 286.731C888.209 287.44 887.257 287.963 886.137 288.299C885.054 288.635 883.934 288.803 882.777 288.803ZM868.889 262.427V259.123H887.089V262.427H868.889Z" fill="#C8102E"/>
<path d="M858.874 288.523V282.027L858.706 280.963V270.099C858.706 267.597 857.997 265.675 856.578 264.331C855.197 262.987 853.125 262.315 850.362 262.315C848.458 262.315 846.648 262.632 844.93 263.267C843.213 263.901 841.757 264.741 840.562 265.787L838.77 262.819C840.264 261.549 842.056 260.579 844.146 259.907C846.237 259.197 848.44 258.843 850.754 258.843C854.562 258.843 857.493 259.795 859.546 261.699C861.637 263.565 862.682 266.421 862.682 270.267V288.523H858.874ZM848.738 288.803C846.536 288.803 844.613 288.448 842.97 287.739C841.365 286.992 840.133 285.984 839.274 284.715C838.416 283.408 837.986 281.915 837.986 280.235C837.986 278.704 838.341 277.323 839.05 276.091C839.797 274.821 840.992 273.813 842.634 273.067C844.314 272.283 846.554 271.891 849.354 271.891H859.49V274.859H849.466C846.629 274.859 844.65 275.363 843.53 276.371C842.448 277.379 841.906 278.629 841.906 280.123C841.906 281.803 842.56 283.147 843.866 284.155C845.173 285.163 847.002 285.667 849.354 285.667C851.594 285.667 853.517 285.163 855.122 284.155C856.765 283.109 857.96 281.616 858.706 279.675L859.602 282.419C858.856 284.36 857.549 285.909 855.682 287.067C853.853 288.224 851.538 288.803 848.738 288.803Z" fill="#C8102E"/>
<path d="M801.916 288.522V249.322H816.588C819.911 249.322 822.767 249.864 825.156 250.946C827.545 251.992 829.375 253.522 830.644 255.538C831.951 257.517 832.604 259.925 832.604 262.762C832.604 265.525 831.951 267.914 830.644 269.93C829.375 271.909 827.545 273.44 825.156 274.522C822.767 275.605 819.911 276.146 816.588 276.146H804.212L806.06 274.186V288.522H801.916ZM806.06 274.522L804.212 272.506H816.476C820.396 272.506 823.364 271.666 825.38 269.986C827.433 268.269 828.46 265.861 828.46 262.762C828.46 259.626 827.433 257.2 825.38 255.482C823.364 253.765 820.396 252.906 816.476 252.906H804.212L806.06 250.946V274.522Z" fill="#C8102E"/>
<path d="M756.291 299.666C754.91 299.666 753.584 299.442 752.315 298.994C751.083 298.546 750.019 297.874 749.123 296.978L750.971 294.01C751.718 294.719 752.52 295.261 753.379 295.634C754.275 296.045 755.264 296.25 756.347 296.25C757.654 296.25 758.774 295.877 759.707 295.13C760.678 294.421 761.592 293.151 762.451 291.322L764.355 287.01L764.803 286.394L776.899 259.122H780.819L766.091 292.05C765.27 293.954 764.355 295.466 763.347 296.586C762.376 297.706 761.312 298.49 760.155 298.938C758.998 299.423 757.71 299.666 756.291 299.666ZM764.131 289.362L750.579 259.122H754.723L766.707 286.114L764.131 289.362Z" fill="#C8102E"/>
<path d="M730.037 288.803C727.237 288.803 724.717 288.168 722.477 286.899C720.275 285.629 718.539 283.875 717.269 281.635C716 279.357 715.365 276.744 715.365 273.795C715.365 270.808 716 268.195 717.269 265.955C718.539 263.715 720.275 261.979 722.477 260.747C724.717 259.477 727.237 258.843 730.037 258.843C732.613 258.843 734.909 259.421 736.925 260.579C738.979 261.736 740.603 263.435 741.797 265.675C743.029 267.877 743.645 270.584 743.645 273.795C743.645 276.968 743.048 279.675 741.853 281.915C740.659 284.155 739.035 285.872 736.981 287.067C734.965 288.224 732.651 288.803 730.037 288.803ZM730.317 285.275C732.408 285.275 734.275 284.808 735.917 283.875C737.597 282.904 738.904 281.56 739.837 279.843C740.808 278.088 741.293 276.072 741.293 273.795C741.293 271.48 740.808 269.464 739.837 267.747C738.904 266.029 737.597 264.704 735.917 263.771C734.275 262.8 732.408 262.315 730.317 262.315C728.264 262.315 726.416 262.8 724.773 263.771C723.131 264.704 721.824 266.029 720.853 267.747C719.883 269.464 719.397 271.48 719.397 273.795C719.397 276.072 719.883 278.088 720.853 279.843C721.824 281.56 723.131 282.904 724.773 283.875C726.416 284.808 728.264 285.275 730.317 285.275ZM741.405 288.523V279.675L741.797 273.739L741.237 267.803V246.971H745.213V288.523H741.405Z" fill="#C8102E"/>
<path d="M692.86 288.802C690.358 288.802 688.174 288.335 686.308 287.402C684.441 286.469 682.985 285.069 681.94 283.202C680.932 281.335 680.428 279.002 680.428 276.202V259.122H684.404V275.754C684.404 278.89 685.169 281.261 686.7 282.866C688.268 284.434 690.452 285.218 693.252 285.218C695.305 285.218 697.078 284.807 698.572 283.986C700.102 283.127 701.26 281.895 702.044 280.29C702.865 278.685 703.276 276.762 703.276 274.522V259.122H707.252V288.522H703.444V280.458L704.06 281.914C703.126 284.079 701.67 285.778 699.692 287.01C697.75 288.205 695.473 288.802 692.86 288.802Z" fill="#C8102E"/>
<path d="M667.253 288.803C664.491 288.803 662.363 288.056 660.869 286.563C659.376 285.07 658.629 282.96 658.629 280.235V252.627H662.605V280.011C662.605 281.728 663.035 283.054 663.893 283.987C664.789 284.92 666.059 285.387 667.701 285.387C669.456 285.387 670.912 284.883 672.069 283.875L673.469 286.731C672.685 287.44 671.733 287.963 670.613 288.299C669.531 288.635 668.411 288.803 667.253 288.803ZM653.365 262.427V259.123H671.565V262.427H653.365Z" fill="#C8102E"/>
<path d="M635.154 288.858C632.242 288.858 629.442 288.392 626.754 287.458C624.103 286.488 622.05 285.256 620.594 283.762L622.218 280.57C623.599 281.914 625.447 283.053 627.762 283.986C630.114 284.882 632.578 285.33 635.154 285.33C637.618 285.33 639.615 285.032 641.146 284.434C642.714 283.8 643.852 282.96 644.562 281.914C645.308 280.869 645.682 279.712 645.682 278.442C645.682 276.912 645.234 275.68 644.338 274.746C643.479 273.813 642.34 273.085 640.922 272.562C639.503 272.002 637.935 271.517 636.218 271.106C634.5 270.696 632.783 270.266 631.066 269.818C629.348 269.333 627.762 268.698 626.306 267.914C624.887 267.13 623.73 266.104 622.834 264.834C621.975 263.528 621.546 261.829 621.546 259.738C621.546 257.797 622.05 256.024 623.058 254.418C624.103 252.776 625.69 251.469 627.818 250.498C629.946 249.49 632.671 248.986 635.994 248.986C638.196 248.986 640.38 249.304 642.546 249.938C644.711 250.536 646.578 251.376 648.146 252.458L646.746 255.762C645.066 254.642 643.274 253.821 641.37 253.298C639.503 252.776 637.692 252.514 635.938 252.514C633.586 252.514 631.644 252.832 630.114 253.466C628.583 254.101 627.444 254.96 626.698 256.042C625.988 257.088 625.634 258.282 625.634 259.626C625.634 261.157 626.063 262.389 626.922 263.322C627.818 264.256 628.975 264.984 630.394 265.506C631.85 266.029 633.436 266.496 635.154 266.906C636.871 267.317 638.57 267.765 640.25 268.25C641.967 268.736 643.535 269.37 644.954 270.154C646.41 270.901 647.567 271.909 648.426 273.178C649.322 274.448 649.77 276.109 649.77 278.162C649.77 280.066 649.247 281.84 648.202 283.482C647.156 285.088 645.551 286.394 643.386 287.402C641.258 288.373 638.514 288.858 635.154 288.858Z" fill="#C8102E"/>
<path d="M593.811 288.523V246.971H597.787V288.523H593.811Z" fill="#C8102E"/>
<path d="M579.202 288.523V282.027L579.034 280.963V270.099C579.034 267.597 578.325 265.675 576.906 264.331C575.525 262.987 573.453 262.315 570.69 262.315C568.786 262.315 566.976 262.632 565.258 263.267C563.541 263.901 562.085 264.741 560.89 265.787L559.098 262.819C560.592 261.549 562.384 260.579 564.474 259.907C566.565 259.197 568.768 258.843 571.082 258.843C574.89 258.843 577.821 259.795 579.874 261.699C581.965 263.565 583.01 266.421 583.01 270.267V288.523H579.202ZM569.066 288.803C566.864 288.803 564.941 288.448 563.298 287.739C561.693 286.992 560.461 285.984 559.602 284.715C558.744 283.408 558.314 281.915 558.314 280.235C558.314 278.704 558.669 277.323 559.378 276.091C560.125 274.821 561.32 273.813 562.962 273.067C564.642 272.283 566.882 271.891 569.682 271.891H579.818V274.859H569.794C566.957 274.859 564.978 275.363 563.858 276.371C562.776 277.379 562.234 278.629 562.234 280.123C562.234 281.803 562.888 283.147 564.194 284.155C565.501 285.163 567.33 285.667 569.682 285.667C571.922 285.667 573.845 285.163 575.45 284.155C577.093 283.109 578.288 281.616 579.034 279.675L579.93 282.419C579.184 284.36 577.877 285.909 576.01 287.067C574.181 288.224 571.866 288.803 569.066 288.803Z" fill="#C8102E"/>
<path d="M538.166 288.803C535.59 288.803 533.276 288.224 531.222 287.067C529.169 285.872 527.545 284.155 526.35 281.915C525.156 279.675 524.558 276.968 524.558 273.795C524.558 270.584 525.156 267.877 526.35 265.675C527.582 263.435 529.225 261.736 531.278 260.579C533.332 259.421 535.628 258.843 538.166 258.843C540.966 258.843 543.468 259.477 545.67 260.747C547.91 261.979 549.665 263.715 550.934 265.955C552.204 268.195 552.838 270.808 552.838 273.795C552.838 276.744 552.204 279.357 550.934 281.635C549.665 283.875 547.91 285.629 545.67 286.899C543.468 288.168 540.966 288.803 538.166 288.803ZM522.99 288.523V246.971H526.966V267.803L526.406 273.739L526.798 279.675V288.523H522.99ZM537.886 285.275C539.977 285.275 541.844 284.808 543.486 283.875C545.129 282.904 546.436 281.56 547.406 279.843C548.377 278.088 548.862 276.072 548.862 273.795C548.862 271.48 548.377 269.464 547.406 267.747C546.436 266.029 545.129 264.704 543.486 263.771C541.844 262.8 539.977 262.315 537.886 262.315C535.796 262.315 533.91 262.8 532.23 263.771C530.588 264.704 529.281 266.029 528.31 267.747C527.377 269.464 526.91 271.48 526.91 273.795C526.91 276.072 527.377 278.088 528.31 279.843C529.281 281.56 530.588 282.904 532.23 283.875C533.91 284.808 535.796 285.275 537.886 285.275Z" fill="#C8102E"/>
<path d="M499.864 288.803C497.027 288.803 494.469 288.168 492.192 286.899C489.952 285.592 488.179 283.819 486.872 281.579C485.565 279.301 484.912 276.707 484.912 273.795C484.912 270.845 485.565 268.251 486.872 266.011C488.179 263.771 489.952 262.016 492.192 260.747C494.432 259.477 496.989 258.843 499.864 258.843C502.776 258.843 505.352 259.477 507.592 260.747C509.869 262.016 511.643 263.771 512.912 266.011C514.219 268.251 514.872 270.845 514.872 273.795C514.872 276.707 514.219 279.301 512.912 281.579C511.643 283.819 509.869 285.592 507.592 286.899C505.315 288.168 502.739 288.803 499.864 288.803ZM499.864 285.275C501.992 285.275 503.877 284.808 505.52 283.875C507.163 282.904 508.451 281.56 509.384 279.843C510.355 278.088 510.84 276.072 510.84 273.795C510.84 271.48 510.355 269.464 509.384 267.747C508.451 266.029 507.163 264.704 505.52 263.771C503.877 262.8 502.011 262.315 499.92 262.315C497.829 262.315 495.963 262.8 494.32 263.771C492.677 264.704 491.371 266.029 490.4 267.747C489.429 269.464 488.944 271.48 488.944 273.795C488.944 276.072 489.429 278.088 490.4 279.843C491.371 281.56 492.677 282.904 494.32 283.875C495.963 284.808 497.811 285.275 499.864 285.275Z" fill="#C8102E"/>
<path d="M472.842 288.523V246.971H476.818V288.523H472.842Z" fill="#C8102E"/>
<path d="M447.56 288.858C444.574 288.858 441.811 288.373 439.272 287.402C436.771 286.394 434.587 284.994 432.72 283.202C430.891 281.41 429.454 279.301 428.408 276.874C427.4 274.448 426.896 271.797 426.896 268.922C426.896 266.048 427.4 263.397 428.408 260.97C429.454 258.544 430.91 256.434 432.776 254.642C434.643 252.85 436.827 251.469 439.328 250.498C441.867 249.49 444.63 248.986 447.616 248.986C450.603 248.986 453.328 249.453 455.792 250.386C458.294 251.32 460.422 252.738 462.176 254.642L459.6 257.274C457.958 255.632 456.147 254.456 454.168 253.746C452.19 253.037 450.062 252.682 447.784 252.682C445.358 252.682 443.118 253.093 441.064 253.914C439.048 254.698 437.275 255.837 435.744 257.33C434.251 258.786 433.075 260.504 432.216 262.482C431.395 264.424 430.984 266.57 430.984 268.922C430.984 271.237 431.395 273.384 432.216 275.362C433.075 277.341 434.251 279.077 435.744 280.57C437.275 282.026 439.048 283.165 441.064 283.986C443.118 284.77 445.339 285.162 447.728 285.162C449.968 285.162 452.078 284.826 454.056 284.154C456.072 283.482 457.92 282.344 459.6 280.738L461.952 283.874C460.086 285.517 457.902 286.768 455.4 287.626C452.899 288.448 450.286 288.858 447.56 288.858ZM461.952 283.874L457.976 283.37V268.922H461.952V283.874Z" fill="#C8102E"/>
</svg>
