<svg width="1636" height="321" viewBox="0 0 1636 321" fill="none" xmlns="http://www.w3.org/2000/svg">
<path d="M176.999 296.976C177.018 296.932 176.99 296.839 177.046 296.718C182.933 284.962 188.737 273.312 194.603 261.694C204.518 242.056 214.401 222.401 224.428 202.82C236.603 179.046 253.01 150.378 265.273 126.65H343.452C342.451 129.27 339.389 136.996 338.448 139.389C332.334 154.946 326.216 170.502 320.076 186.049C319.669 187.08 319.556 187.783 320.592 188.638C327.945 194.707 335.244 200.843 342.543 206.978L343.452 207.742C347.004 210.728 350.519 213.757 354.17 216.868C353.429 217.381 352.852 217.798 352.258 218.189C336.136 228.785 319.966 239.309 303.903 249.994C288.071 260.526 272.358 271.238 256.556 281.814C255.417 282.576 255.05 283.311 255.154 284.65C255.885 294.052 256.539 303.461 257.208 312.868C257.374 315.205 257.503 317.545 257.663 320.114C256.674 319.843 255.929 319.647 255.189 319.436C234.493 313.539 213.794 307.649 193.102 301.737C187.718 300.199 182.353 298.594 176.999 296.976Z" fill="#1A3660"/>
<path d="M88.8965 126.65C101.16 150.378 117.568 179.047 129.742 202.82C139.769 222.401 149.652 242.056 159.567 261.694C165.433 273.312 171.237 284.962 177.124 296.719C177.179 296.839 177.152 296.931 177.171 296.976C171.817 298.594 166.451 300.199 161.067 301.737C140.375 307.649 119.677 313.539 98.9805 319.436C98.2403 319.646 97.4961 319.843 96.5068 320.114C96.6674 317.545 96.7968 315.205 96.9629 312.868C97.6314 303.461 98.2851 294.053 99.0156 284.65C99.1196 283.312 98.7527 282.576 97.6143 281.814C81.8118 271.238 66.0993 260.526 50.2676 249.994C34.2046 239.308 18.033 228.785 1.91113 218.188C1.31724 217.798 0.740782 217.381 0 216.868C3.65044 213.758 7.16589 210.728 10.7178 207.742L11.627 206.978C18.9255 200.842 26.2247 194.707 33.5781 188.639C34.6145 187.783 34.5011 187.08 34.0938 186.049C27.9546 170.502 21.8361 154.946 15.7217 139.389C14.7808 136.995 11.7184 129.269 10.7178 126.65H88.8965ZM177.021 0C177.361 0.393217 177.787 0.739865 178.027 1.18652C186.855 17.5837 195.672 33.9876 204.477 50.3975C207.182 55.4401 209.846 60.5051 212.537 65.5557C212.794 66.0377 213.106 66.4904 213.44 67.0352C227.056 59.7142 251.56 52.4531 265.311 45.0596V126.457C264.667 126.457 253.012 126.457 252.357 126.457C244.005 126.456 235.652 126.538 227.302 126.394C225.219 126.357 224.289 127.079 223.438 128.891C213.639 149.763 203.767 170.602 193.884 191.436C188.547 202.685 183.151 213.907 177.778 225.139C177.611 225.488 177.397 225.816 177.133 225.927C177.102 225.393 177.092 224.915 177.089 224.466L177.091 223.174C177.091 224.016 177.071 224.859 177.066 225.861C175.393 222.69 173.641 219.392 172.047 216.02C159.599 189.688 147.18 163.342 134.759 136.997C133.325 133.957 131.893 130.914 130.546 127.835C130.07 126.748 129.428 126.4 128.264 126.407C119.756 126.461 111.247 126.444 102.738 126.448C101.97 126.449 89.7534 126.448 88.8965 126.448V45.0566C102.509 52.4274 127.393 59.7001 140.937 67.0332C152.914 44.714 164.87 22.4342 176.924 0.0771484C177.008 12.3111 177.045 24.5865 177.061 36.873C177.05 24.582 177.034 12.291 177.021 0Z" fill="#C8102E"/>
<path d="M1614.63 156.019H1585.09V141.342H1614.63V123.8H1585.09V109.123H1614.63V89.9707H1632.71V208.285H1614.63V156.019ZM1544.11 150.47C1543.39 150.47 1542.73 150.828 1542.14 151.544C1538.91 157.033 1534.74 162.642 1529.61 168.369C1524.6 173.978 1518.15 180.66 1510.28 188.417L1496.85 176.782C1506.4 167.832 1513.86 159.957 1519.23 153.155C1524.71 146.353 1528.65 139.552 1531.04 132.75C1533.54 125.829 1534.8 118.192 1534.8 109.839V97.4884H1553.06V110.734C1553.06 122.905 1550.79 133.884 1546.25 143.668L1547.15 144.205L1550.73 141.163C1552.52 139.731 1554.19 139.015 1555.74 139.015C1557.41 139.015 1558.96 139.79 1560.39 141.342L1591.54 173.202L1578.29 185.553L1546.43 151.544C1545.72 150.828 1544.94 150.47 1544.11 150.47ZM1635.93 235.313V250.169H1542.85C1539.03 250.169 1536.11 249.155 1534.08 247.126C1532.17 245.098 1531.22 242.174 1531.22 238.355V196.65H1549.3V235.313H1635.93Z" fill="#1A3660"/>
<path d="M1441.79 89.9707H1460.05V246.768H1441.79V89.9707ZM1329.03 153.513C1329.03 135.733 1332.91 122.368 1340.66 113.419C1348.54 104.35 1358.98 99.8153 1371.99 99.8153C1384.87 99.8153 1395.2 104.35 1402.95 113.419C1410.83 122.368 1414.77 135.733 1414.77 153.513C1414.77 171.174 1410.83 184.538 1402.95 193.607C1395.2 202.676 1384.87 207.211 1371.99 207.211C1359.1 207.211 1348.72 202.676 1340.84 193.607C1332.97 184.538 1329.03 171.174 1329.03 153.513ZM1395.44 162.284V144.742C1395.44 135.077 1393.29 127.738 1388.99 122.726C1384.7 117.595 1379.03 115.03 1371.99 115.03C1364.83 115.03 1359.1 117.595 1354.8 122.726C1350.51 127.738 1348.36 135.077 1348.36 144.742V162.284C1348.36 171.83 1350.51 179.169 1354.8 184.3C1359.1 189.431 1364.83 191.996 1371.99 191.996C1379.03 191.996 1384.7 189.431 1388.99 184.3C1393.29 179.169 1395.44 171.83 1395.44 162.284Z" fill="#1A3660"/>
<path d="M1292.05 89.9707V246.768H1274.68V89.9707H1292.05ZM1239.78 92.4766H1256.79V242.472H1239.78V163.358H1217.41C1213.95 172.665 1208.22 181.436 1200.22 189.67C1192.23 197.903 1181.13 207.032 1166.93 217.055L1155.48 205.063C1168.96 195.636 1179.28 187.343 1186.44 180.183C1193.72 172.904 1198.79 165.148 1201.66 156.914L1157.27 160.852L1155.3 146.174L1204.7 143.489C1205.06 140.626 1205.24 137.583 1205.24 134.361V119.683H1161.02V105.364H1222.06V134.54C1222.06 138.836 1221.76 143.489 1221.17 148.501H1239.78V92.4766Z" fill="#1A3660"/>
<path d="M1107.58 161.388H1002.51V95.6973H1106.33V110.912H1020.95V146.173H1107.58V161.388ZM1127.63 196.112H1091.29V251.779H1073.39V196.112H1035.09V251.779H1017.19V196.112H980.852V180.898H1127.63V196.112Z" fill="#1A3660"/>
<path d="M947.808 89.9707V246.768H930.446V89.9707H947.808ZM895.9 92.4766H913.083V242.472H895.9V162.105H882.297C881.461 177.259 877.762 188.715 871.199 196.471C864.755 204.108 856.283 207.927 845.782 207.927C834.565 207.927 825.675 203.512 819.112 194.681C812.549 185.851 809.268 172.785 809.268 155.482C809.268 138.06 812.549 124.994 819.112 116.283C825.675 107.452 834.565 103.037 845.782 103.037C856.164 103.037 864.517 106.736 870.841 114.135C877.285 121.414 881.044 132.392 882.118 147.069H895.9V92.4766ZM864.039 144.205C864.039 135.494 862.369 128.872 859.027 124.337C855.686 119.683 851.271 117.357 845.782 117.357C840.293 117.357 835.878 119.683 832.537 124.337C829.315 128.872 827.704 135.494 827.704 144.205V166.758C827.704 175.469 829.315 182.152 832.537 186.806C835.878 191.34 840.293 193.607 845.782 193.607C851.391 193.607 855.806 191.34 859.027 186.806C862.369 182.152 864.039 175.469 864.039 166.758V144.205Z" fill="#1A3660"/>
<path d="M633.544 196.258V234.562H725.009V250.919H626.171C622.222 250.919 619.081 249.867 616.87 247.656L616.854 247.641C614.772 245.428 613.787 242.293 613.787 238.355V196.258H633.544ZM721.608 89.2207V211.361H702.746V152.831H685.989V206.708H667.306V91.5479H685.989V136.475H702.746V89.2207H721.608ZM652.159 99.7812V180.217H586.043V99.96H604.368V125.557H634.013V99.7812H652.159ZM604.368 164.397H634.013V141.376H604.368V164.397Z" fill="#1A3660" stroke="#1A3660" stroke-width="1.5"/>
<path d="M548.237 201.986V217.269H502.72C502.294 222.287 500.501 226.785 497.354 230.752L499.452 229.323C501.975 227.523 504.164 226.508 505.961 226.508C506.667 226.508 508.014 226.774 509.901 227.246L509.938 227.256L509.976 227.269L552.934 242.841L553.797 243.154L553.317 243.938L545.442 256.825L545.111 257.366L544.522 257.13L498.164 238.515L498.146 238.508L498.129 238.499C496.681 237.831 495.118 237.494 493.432 237.494C492.147 237.494 490.479 237.868 488.404 238.669L487.94 238.979L487.93 238.987C478.528 245.014 462.93 251.242 441.2 257.689L440.644 257.854L440.344 257.357L432.469 244.291L431.946 243.426L432.927 243.177C450.817 238.645 463.507 234.308 471.056 230.18L471.06 230.178C478.273 226.293 482.457 221.971 483.869 217.269H437.193V201.986H548.237ZM518.524 177.285V192.567H467.802V177.285H518.524ZM545.91 89.2207V180.396H526.332V89.2207H545.91ZM494.539 94.7695V168.225H417.146V94.9482H436.188V116.965H475.319V94.7695H494.539ZM436.188 152.405H475.319V132.963H436.188V152.405Z" fill="#1A3660" stroke="#1A3660" stroke-width="1.5"/>
</svg>
