<svg width="1362" height="321" viewBox="0 0 1362 321" fill="none" xmlns="http://www.w3.org/2000/svg">
<path d="M265.577 127.15C259.473 138.949 252.357 151.954 245.256 164.958C238.099 178.064 230.957 191.168 224.873 203.048C214.847 222.627 204.964 242.28 195.049 261.919C189.233 273.439 183.479 284.989 177.642 296.646C182.83 298.213 188.026 299.767 193.239 301.257C213.931 307.168 234.63 313.058 255.326 318.955C255.887 319.115 256.448 319.263 257.122 319.446C256.981 317.145 256.86 315.025 256.709 312.903C256.04 303.495 255.387 294.089 254.656 284.688C254.6 283.969 254.666 283.35 254.941 282.794C255.216 282.239 255.67 281.805 256.277 281.398C272.073 270.827 287.796 260.109 303.626 249.578C319.69 238.891 335.864 228.366 351.983 217.771C352.424 217.481 352.851 217.181 353.354 216.828C349.877 213.863 346.521 210.975 343.131 208.125L342.221 207.36C334.922 201.225 327.625 195.09 320.273 189.023C319.696 188.547 319.368 188.052 319.297 187.471C319.23 186.922 319.407 186.383 319.611 185.865C325.75 170.318 331.868 154.763 337.982 139.206C338.853 136.99 341.531 130.229 342.722 127.15H265.577Z" fill="white" stroke="white"/>
<path d="M88.8965 126.65C101.16 150.378 117.568 179.047 129.742 202.82C139.769 222.401 149.652 242.056 159.567 261.694C165.433 273.312 171.237 284.962 177.124 296.719C177.179 296.839 177.152 296.931 177.171 296.976C171.817 298.594 166.451 300.199 161.067 301.737C140.375 307.649 119.677 313.539 98.9805 319.436C98.2403 319.646 97.4961 319.843 96.5068 320.114C96.6674 317.545 96.7968 315.205 96.9629 312.868C97.6314 303.461 98.2851 294.053 99.0156 284.65C99.1196 283.312 98.7527 282.576 97.6143 281.814C81.8118 271.238 66.0993 260.526 50.2676 249.994C34.2046 239.308 18.033 228.785 1.91113 218.188C1.31724 217.798 0.740782 217.381 0 216.868C3.65044 213.758 7.16589 210.728 10.7178 207.742L11.627 206.978C18.9255 200.842 26.2247 194.707 33.5781 188.639C34.6145 187.783 34.5011 187.08 34.0938 186.049C27.9546 170.502 21.8361 154.946 15.7217 139.389C14.7808 136.995 11.7184 129.269 10.7178 126.65H88.8965ZM177.021 0C177.361 0.393217 177.787 0.739865 178.027 1.18652C186.855 17.5837 195.672 33.9876 204.477 50.3975C207.182 55.4401 209.846 60.5051 212.537 65.5557C212.794 66.0377 213.106 66.4904 213.44 67.0352C227.056 59.7142 251.56 52.4531 265.311 45.0596V126.457C264.667 126.457 253.012 126.457 252.357 126.457C244.005 126.456 235.652 126.538 227.302 126.394C225.219 126.357 224.289 127.079 223.438 128.891C213.639 149.763 203.767 170.602 193.884 191.436C188.547 202.685 183.151 213.907 177.778 225.139C177.611 225.488 177.397 225.816 177.133 225.927C177.102 225.393 177.092 224.915 177.089 224.466L177.091 223.174C177.091 224.016 177.071 224.859 177.066 225.861C175.393 222.69 173.641 219.392 172.047 216.02C159.599 189.688 147.18 163.342 134.759 136.997C133.325 133.957 131.893 130.914 130.546 127.835C130.07 126.748 129.428 126.4 128.264 126.407C119.756 126.461 111.247 126.444 102.738 126.448C101.97 126.449 89.7534 126.448 88.8965 126.448V45.0566C102.509 52.4274 127.393 59.7001 140.937 67.0332C152.914 44.714 164.87 22.4342 176.924 0.0771484C177.008 12.3111 177.045 24.5865 177.061 36.873C177.05 24.582 177.034 12.291 177.021 0Z" fill="white"/>
<path d="M1294.05 171.564V201.317H1360.72V213.75H1288.59C1285.57 213.75 1283.17 212.944 1281.49 211.262L1281.48 211.251C1279.9 209.567 1279.14 207.177 1279.14 204.159V171.564H1294.05ZM1358.24 89.4707V181.518H1343.33V141.298H1320.6V129.003H1343.33V116.504H1320.6V104.209H1343.33V89.4707H1358.24ZM1296.95 95.2559V105.949C1296.95 115.208 1295.25 123.591 1291.85 131.09L1294.33 128.984L1294.34 128.979L1294.34 128.975C1295.77 127.834 1297.16 127.212 1298.51 127.212C1299.97 127.212 1301.28 127.893 1302.45 129.153L1326.42 153.671L1326.78 154.037L1326.4 154.387L1316.21 163.891L1315.84 164.23L1315.5 163.867L1291 137.707C1290.52 137.229 1290.04 137.027 1289.56 137.027C1289.21 137.027 1288.84 137.193 1288.45 137.646C1285.96 141.891 1282.73 146.22 1278.77 150.634L1278.78 150.635C1274.91 154.961 1269.94 160.112 1263.88 166.085L1263.55 166.409L1263.2 166.106L1252.87 157.153L1252.45 156.79L1252.85 156.411C1260.19 149.534 1265.91 143.492 1270.02 138.284L1270.02 138.279H1270.02C1274.22 133.081 1277.22 127.896 1279.03 122.726L1279.03 122.721C1280.94 117.456 1281.9 111.637 1281.9 105.26V95.2559H1296.95Z" fill="white" stroke="white"/>
<path d="M1225.38 89.4707V211.133H1210.33V89.4707H1225.38ZM1157.11 97.0469C1167.16 97.0469 1175.24 100.59 1181.32 107.689H1181.32C1187.49 114.704 1190.53 125.126 1190.53 138.869C1190.53 152.523 1187.48 162.943 1181.32 170.047L1181.32 170.048C1175.24 177.148 1167.16 180.691 1157.11 180.691C1147.06 180.691 1138.93 177.148 1132.76 170.051C1126.59 162.946 1123.55 152.525 1123.55 138.869C1123.55 125.125 1126.55 114.702 1132.62 107.688H1132.62C1138.79 100.589 1146.97 97.047 1157.11 97.0469ZM1157.11 109.755C1151.73 109.755 1147.47 111.672 1144.27 115.498L1144.26 115.503C1141.06 119.235 1139.42 124.747 1139.42 132.12V145.618C1139.42 152.896 1141.06 158.412 1144.27 162.239C1147.47 166.066 1151.73 167.983 1157.11 167.983C1162.39 167.983 1166.6 166.068 1169.81 162.239C1173.01 158.412 1174.65 152.896 1174.65 145.618V132.12C1174.65 124.747 1173.01 119.235 1169.81 115.503L1169.81 115.498C1166.6 111.67 1162.38 109.755 1157.11 109.755Z" fill="white" stroke="white"/>
<path d="M1096.09 89.4707V211.133H1081.73V89.4707H1096.09ZM1068.96 91.3994V207.827H1054.87V146.945H1038.5C1035.79 154.06 1031.39 160.759 1025.29 167.041C1019.11 173.408 1010.54 180.453 999.597 188.176L999.245 188.425L998.947 188.112L990.132 178.884L989.729 178.463L990.207 178.129C1000.57 170.882 1008.49 164.519 1013.97 159.039C1019.31 153.699 1023.08 148.035 1025.29 142.053L991.915 145.015L991.438 145.057L991.375 144.583L989.86 133.288L989.788 132.752L990.328 132.723L1027.92 130.679C1028.16 128.619 1028.29 126.436 1028.29 124.131V113.336H994.264V101.316H1042.23V124.269C1042.23 127.437 1042.02 130.851 1041.6 134.513H1054.87V91.3994H1068.96Z" fill="white" stroke="white"/>
<path d="M969.562 159.443V172.151H941.6V214.989H926.826V172.151H898.349V214.989H883.575V172.151H855.613V159.443H969.562ZM953.17 93.8779V106.586H887.468V132.721H954.135V145.429H872.28V93.8779H953.17Z" fill="white" stroke="white"/>
<path d="M831.185 89.4707V211.133H816.823V89.4707H831.185ZM804.463 91.3994V207.827H790.239V145.98H780.741C780.045 157.468 777.191 166.247 772.112 172.249C767.053 178.245 760.391 181.242 752.172 181.242C743.386 181.242 736.394 177.773 731.247 170.848C726.105 163.929 723.572 153.749 723.572 140.384C723.572 126.929 726.104 116.746 731.249 109.918C736.396 102.995 743.387 99.5254 752.172 99.5254C760.293 99.5255 766.862 102.426 771.83 108.234L772.298 108.778C777.003 114.408 779.747 122.642 780.595 133.41H790.239V91.3994H804.463ZM752.172 111.545C748.118 111.545 744.868 113.25 742.386 116.706C739.992 120.075 738.76 125.052 738.76 131.706V149.062C738.76 155.713 739.992 160.739 742.389 164.202C744.868 167.561 748.115 169.224 752.172 169.224C756.327 169.224 759.572 167.555 761.957 164.199L761.958 164.197C764.444 160.735 765.722 155.712 765.722 149.062V131.706C765.722 125.055 764.444 120.082 761.962 116.714L761.958 116.709C759.476 113.252 756.227 111.545 752.172 111.545Z" fill="white" stroke="white"/>
<path d="M589.019 171.59V201.067H659.405V214H583.172C580.103 214 577.636 213.182 575.893 211.438L575.885 211.431L575.877 211.422C574.235 209.677 573.469 207.217 573.469 204.159V171.59H589.019ZM656.788 89.2207V183.559H641.927V138.518H629.377V179.978H614.654V91.0117H629.377V125.585H641.927V89.2207H656.788ZM603.344 97.3477V159.592H552.119V97.4854H566.566V117.183H589.034V97.3477H603.344ZM566.566 147.072H589.034V129.701H566.566V147.072Z" fill="white" stroke="white" stroke-width="1.5"/>
<path d="M523.372 175.998V188.104H488.33C488.008 191.589 486.83 194.748 484.81 197.575L485.546 197.074C487.497 195.681 489.223 194.869 490.665 194.869C491.092 194.869 491.794 194.988 492.729 195.2L493.74 195.442L493.777 195.451L493.813 195.465L526.872 207.448L527.734 207.761L527.256 208.544L521.195 218.462L520.864 219.003L520.276 218.767L484.601 204.441L484.583 204.435L484.566 204.427C483.476 203.923 482.298 203.669 481.023 203.669C480.068 203.669 478.813 203.947 477.234 204.555L476.895 204.783L476.883 204.79C469.627 209.441 457.604 214.241 440.879 219.203L440.322 219.368L440.022 218.871L433.962 208.815L433.44 207.95L434.42 207.702C448.185 204.215 457.933 200.881 463.722 197.716L463.726 197.713C469.144 194.795 472.297 191.575 473.429 188.104H437.573V175.998H523.372ZM500.507 156.989V169.096H461.127V156.989H500.507ZM521.581 89.2207V159.729H506.169V89.2207H521.581ZM482.049 93.4902V150.363H422.146V93.6289H437.146V110.57H466.912V93.4902H482.049ZM437.146 137.844H466.912V123.228H437.146V137.844Z" fill="white" stroke="white" stroke-width="1.5"/>
<path d="M1344.58 258.343C1348.47 258.343 1351.54 259.315 1353.71 261.332H1353.71C1355.94 263.325 1357.01 266.338 1357.01 270.267V289.022H1352.2V285.438C1351.53 286.221 1350.72 286.907 1349.77 287.492L1349.77 287.491C1347.84 288.71 1345.43 289.303 1342.57 289.303C1340.31 289.303 1338.32 288.94 1336.6 288.198L1336.59 288.192C1334.91 287.414 1333.61 286.35 1332.69 284.995L1332.68 284.989C1331.77 283.595 1331.31 282.004 1331.31 280.234C1331.31 278.623 1331.69 277.154 1332.45 275.841L1332.45 275.837C1333.26 274.462 1334.54 273.393 1336.25 272.613C1338.02 271.787 1340.34 271.391 1343.18 271.391H1352.03V270.099C1352.03 267.694 1351.36 265.918 1350.06 264.693L1350.06 264.689C1348.8 263.469 1346.88 262.814 1344.19 262.814C1342.34 262.814 1340.59 263.122 1338.93 263.735C1337.26 264.352 1335.86 265.164 1334.72 266.163L1334.27 266.556L1333.96 266.045L1332.17 263.077L1331.95 262.713L1332.27 262.438C1333.82 261.121 1335.68 260.12 1337.82 259.431C1339.96 258.705 1342.22 258.343 1344.58 258.343ZM1343.29 275.358C1340.49 275.358 1338.67 275.864 1337.69 276.742C1336.72 277.654 1336.23 278.77 1336.23 280.123C1336.23 281.651 1336.82 282.847 1338 283.759C1339.19 284.676 1340.9 285.167 1343.18 285.167C1345.35 285.167 1347.17 284.681 1348.68 283.731C1350.21 282.762 1351.32 281.384 1352.03 279.577V275.358H1343.29Z" fill="white" stroke="white"/>
<path d="M1323.71 246.471V289.022H1318.9V284.29C1317.87 285.597 1316.65 286.67 1315.22 287.499L1315.22 287.5C1313.12 288.706 1310.72 289.303 1308.03 289.303C1305.15 289.303 1302.54 288.65 1300.22 287.334L1300.22 287.332C1297.94 286.018 1296.14 284.197 1294.83 281.881L1294.82 281.878C1293.51 279.517 1292.86 276.818 1292.86 273.795C1292.86 270.736 1293.51 268.034 1294.83 265.708C1296.14 263.391 1297.94 261.589 1300.22 260.312C1302.54 258.996 1305.15 258.343 1308.03 258.343C1310.68 258.343 1313.06 258.94 1315.16 260.144H1315.16C1316.54 260.919 1317.73 261.927 1318.73 263.163V246.471H1323.71ZM1308.31 262.814C1306.34 262.814 1304.58 263.279 1303.02 264.201L1303.01 264.205C1301.45 265.092 1300.21 266.351 1299.28 267.993C1298.36 269.623 1297.89 271.552 1297.89 273.795C1297.89 275.999 1298.36 277.93 1299.28 279.601H1299.28C1300.21 281.24 1301.45 282.517 1303.01 283.44L1303.31 283.602C1304.79 284.381 1306.46 284.774 1308.31 284.774C1310.32 284.774 1312.1 284.326 1313.66 283.441C1315.26 282.517 1316.5 281.241 1317.39 279.604L1317.39 279.601C1318.32 277.93 1318.79 275.999 1318.79 273.795C1318.79 271.552 1318.32 269.623 1317.39 267.993L1317.39 267.985C1316.5 266.35 1315.26 265.094 1313.67 264.208L1313.66 264.201C1312.1 263.28 1310.32 262.814 1308.31 262.814Z" fill="white" stroke="white"/>
<path d="M1273.6 258.343C1277.49 258.343 1280.56 259.315 1282.73 261.332H1282.73C1284.96 263.325 1286.03 266.338 1286.03 270.267V289.022H1281.22V285.438C1280.54 286.221 1279.73 286.907 1278.79 287.492L1278.79 287.491C1276.86 288.71 1274.45 289.303 1271.58 289.303C1269.33 289.303 1267.33 288.94 1265.62 288.198L1265.6 288.192C1263.93 287.414 1262.62 286.35 1261.7 284.995L1261.7 284.989C1260.78 283.595 1260.33 282.004 1260.33 280.234C1260.33 278.623 1260.7 277.154 1261.46 275.841L1261.46 275.837C1262.27 274.462 1263.55 273.393 1265.27 272.613C1267.04 271.787 1269.36 271.391 1272.2 271.391H1281.05V270.099C1281.05 267.694 1280.37 265.918 1279.08 264.693L1279.07 264.689C1277.82 263.469 1275.9 262.814 1273.21 262.814C1271.36 262.814 1269.61 263.122 1267.95 263.735C1266.28 264.352 1264.88 265.164 1263.74 266.163L1263.29 266.556L1262.98 266.045L1261.19 263.077L1260.97 262.713L1261.29 262.438C1262.84 261.121 1264.69 260.12 1266.84 259.431C1268.98 258.705 1271.23 258.343 1273.6 258.343ZM1272.31 275.358C1269.5 275.358 1267.68 275.864 1266.71 276.742C1265.73 277.654 1265.25 278.77 1265.25 280.123C1265.25 281.651 1265.83 282.847 1267.02 283.759C1268.2 284.676 1269.91 285.167 1272.2 285.167C1274.36 285.167 1276.19 284.681 1277.7 283.731C1279.22 282.762 1280.34 281.384 1281.05 279.577V275.358H1272.31Z" fill="white" stroke="white"/>
<path d="M1240.46 258.343C1242.91 258.343 1245.08 258.821 1246.95 259.794H1246.95C1248.87 260.737 1250.37 262.192 1251.42 264.143H1251.42C1252.52 266.104 1253.05 268.547 1253.05 271.442V289.022H1248.08V271.835C1248.08 268.816 1247.31 266.631 1245.87 265.188L1245.86 265.18C1244.45 263.698 1242.43 262.927 1239.73 262.927C1237.71 262.927 1235.96 263.341 1234.48 264.153L1234.48 264.155C1233.04 264.927 1231.91 266.065 1231.1 267.586C1230.32 269.066 1229.92 270.886 1229.92 273.066V289.022H1224.95V258.623H1229.76V262.888C1230.6 261.852 1231.64 260.975 1232.86 260.262L1233.27 260.028C1235.33 258.899 1237.73 258.343 1240.46 258.343Z" fill="white" stroke="white"/>
<path d="M1202.72 258.343C1206.61 258.343 1209.68 259.315 1211.86 261.332H1211.85C1214.08 263.325 1215.15 266.338 1215.15 270.267V289.022H1210.34V285.438C1209.67 286.221 1208.86 286.907 1207.91 287.492L1207.91 287.491C1205.98 288.71 1203.57 289.303 1200.71 289.303C1198.45 289.303 1196.46 288.94 1194.74 288.198L1194.73 288.192C1193.05 287.414 1191.75 286.35 1190.83 284.995L1190.83 284.989C1189.91 283.595 1189.46 282.004 1189.46 280.234C1189.46 278.623 1189.83 277.154 1190.59 275.841L1190.59 275.837C1191.4 274.462 1192.68 273.393 1194.39 272.613C1196.16 271.787 1198.48 271.391 1201.32 271.391H1210.17V270.099C1210.17 267.694 1209.5 265.918 1208.2 264.693L1208.2 264.689C1206.94 263.469 1205.02 262.814 1202.33 262.814C1200.48 262.814 1198.73 263.122 1197.07 263.735C1195.4 264.352 1194 265.164 1192.86 266.163L1192.41 266.556L1192.1 266.045L1190.31 263.077L1190.09 262.713L1190.42 262.438C1191.96 261.121 1193.82 260.12 1195.96 259.431C1198.1 258.705 1200.36 258.343 1202.72 258.343ZM1201.44 275.358C1198.63 275.358 1196.81 275.864 1195.83 276.742C1194.86 277.654 1194.38 278.77 1194.38 280.123C1194.38 281.651 1194.96 282.847 1196.14 283.759C1197.33 284.676 1199.04 285.167 1201.32 285.167C1203.49 285.167 1205.31 284.681 1206.83 283.731C1208.35 282.762 1209.46 281.384 1210.17 279.577V275.358H1201.44Z" fill="white" stroke="white"/>
<path d="M1171.07 248.486C1173.97 248.486 1176.69 248.981 1179.25 249.974H1179.26C1181.83 250.934 1184.01 252.397 1185.78 254.363L1186.1 254.716L1183.13 257.684L1182.77 258.042L1182.42 257.68C1180.86 256.085 1179.15 254.952 1177.29 254.271L1177.28 254.27V254.269C1175.4 253.546 1173.37 253.183 1171.19 253.183C1168.89 253.183 1166.77 253.582 1164.82 254.377L1164.81 254.381V254.38C1162.86 255.139 1161.17 256.241 1159.72 257.684L1159.72 257.688C1158.27 259.098 1157.13 260.761 1156.3 262.682C1155.51 264.553 1155.11 266.631 1155.11 268.922C1155.11 271.214 1155.51 273.313 1156.3 275.225C1157.14 277.104 1158.27 278.766 1159.72 280.212C1161.16 281.621 1162.86 282.724 1164.82 283.522C1166.77 284.28 1168.89 284.662 1171.19 284.662C1173.37 284.662 1175.4 284.298 1177.28 283.575C1179.15 282.857 1180.86 281.705 1182.42 280.108L1182.77 279.747L1186.1 283.072L1185.78 283.425C1184.01 285.389 1181.83 286.871 1179.26 287.868C1176.7 288.863 1173.95 289.358 1171.02 289.358C1168.01 289.358 1165.22 288.863 1162.66 287.868L1162.65 287.866C1160.1 286.835 1157.87 285.4 1156 283.56C1154.12 281.721 1152.64 279.557 1151.57 277.072L1151.57 277.066C1150.54 274.573 1150.02 271.856 1150.02 268.922C1150.02 265.988 1150.54 263.271 1151.57 260.778L1151.57 260.772C1152.64 258.288 1154.12 256.124 1156 254.285L1156 254.281C1157.91 252.443 1160.15 251.028 1162.71 250.034L1163.19 249.847C1165.63 248.938 1168.25 248.486 1171.07 248.486Z" fill="white" stroke="white"/>
<path d="M1115.66 258.343C1118.11 258.343 1120.28 258.821 1122.15 259.794H1122.15C1124.08 260.737 1125.57 262.192 1126.62 264.143H1126.62C1127.72 266.104 1128.26 268.547 1128.26 271.442V289.022H1123.28V271.835C1123.28 268.816 1122.52 266.631 1121.08 265.188L1121.07 265.18C1119.65 263.698 1117.63 262.927 1114.93 262.927C1112.91 262.927 1111.17 263.341 1109.68 264.153L1109.68 264.155C1108.24 264.927 1107.12 266.065 1106.3 267.586C1105.53 269.066 1105.13 270.886 1105.13 273.066V289.022H1100.15V258.623H1104.96V262.888C1105.81 261.852 1106.84 260.975 1108.07 260.262L1108.47 260.028C1110.53 258.899 1112.93 258.343 1115.66 258.343Z" fill="white" stroke="white"/>
<path d="M1090.09 258.623V289.022H1085.12V258.623H1090.09ZM1087.63 246.471C1088.57 246.471 1089.38 246.774 1090.04 247.39C1090.71 248.009 1091.04 248.796 1091.04 249.715C1091.04 250.663 1090.71 251.483 1090.06 252.141L1090.06 252.14C1089.43 252.805 1088.6 253.127 1087.63 253.127C1086.68 253.127 1085.86 252.798 1085.21 252.141C1084.55 251.488 1084.22 250.689 1084.22 249.771C1084.22 248.858 1084.55 248.075 1085.21 247.457C1085.86 246.799 1086.68 246.471 1087.63 246.471Z" fill="white" stroke="white"/>
<path d="M1052.24 258.343C1054.19 258.343 1056.14 258.61 1058.08 259.145H1058.08C1060.02 259.639 1061.64 260.311 1062.93 261.171L1063.31 261.424L1063.09 261.825L1061.36 265.018L1061.09 265.505L1060.64 265.191C1059.38 264.328 1058.03 263.718 1056.6 263.359L1056.59 263.357V263.356C1055.14 262.957 1053.69 262.759 1052.24 262.759C1049.63 262.759 1047.8 263.222 1046.66 264.062L1046.65 264.063C1045.54 264.873 1045.01 265.886 1045.01 267.131C1045.01 268.142 1045.31 268.875 1045.86 269.396C1046.5 269.972 1047.35 270.442 1048.42 270.798C1049.55 271.126 1050.78 271.401 1052.1 271.621H1052.1C1053.49 271.846 1054.86 272.128 1056.21 272.466H1056.21C1057.62 272.771 1058.9 273.211 1060.06 273.787H1060.06C1061.29 274.344 1062.28 275.165 1063.01 276.248C1063.79 277.328 1064.16 278.728 1064.16 280.402C1064.16 282.221 1063.65 283.823 1062.6 285.187L1062.6 285.186C1061.6 286.508 1060.14 287.527 1058.24 288.261L1058.24 288.263C1056.38 288.962 1054.13 289.303 1051.51 289.303C1049.04 289.303 1046.69 288.96 1044.48 288.272L1044.47 288.27C1042.26 287.548 1040.5 286.645 1039.2 285.544L1038.89 285.275L1039.09 284.915L1040.88 281.778L1041.17 281.287L1041.62 281.627C1042.76 282.485 1044.25 283.247 1046.08 283.907C1047.89 284.522 1049.79 284.831 1051.79 284.831C1054.56 284.831 1056.44 284.402 1057.55 283.637C1058.65 282.83 1059.19 281.802 1059.19 280.515C1059.19 279.552 1058.88 278.863 1058.3 278.377L1058.29 278.368L1058.28 278.358C1057.68 277.794 1056.87 277.361 1055.81 277.078L1055.8 277.076L1055.79 277.073C1054.7 276.745 1053.47 276.469 1052.1 276.248C1050.71 276.023 1049.32 275.76 1047.93 275.46L1047.93 275.459C1046.55 275.152 1045.28 274.71 1044.12 274.13L1044.11 274.124C1042.92 273.491 1041.95 272.636 1041.19 271.562L1041.18 271.552C1040.44 270.436 1040.09 268.985 1040.09 267.243C1040.09 265.538 1040.57 263.999 1041.53 262.643C1042.49 261.282 1043.88 260.239 1045.66 259.501C1047.5 258.722 1049.69 258.343 1052.24 258.343Z" fill="white" stroke="white"/>
<path d="M1012.57 258.622L1012.7 258.919L1023.34 282.875L1033.97 258.919L1034.1 258.622H1039.11L1038.8 259.326L1024.07 292.254L1024.07 292.253C1023.24 294.187 1022.3 295.75 1021.24 296.921L1021.24 296.92C1020.23 298.082 1019.11 298.916 1017.87 299.398C1016.65 299.912 1015.29 300.166 1013.81 300.166C1012.38 300.166 1011 299.933 1009.67 299.466L1009.67 299.464C1008.37 298.992 1007.24 298.281 1006.29 297.332L1006.01 297.051L1006.22 296.714L1008.07 293.746L1008.39 293.226L1008.84 293.647C1009.46 294.236 1010.11 294.699 1010.8 295.038L1011.1 295.176L1011.11 295.18C1011.94 295.557 1012.85 295.75 1013.87 295.75C1015.07 295.75 1016.08 295.408 1016.92 294.739L1016.93 294.732L1016.94 294.727C1017.81 294.09 1018.68 292.908 1019.52 291.109L1020.7 288.447L1007.65 259.326L1007.33 258.622H1012.57Z" fill="white" stroke="white"/>
<path d="M991.957 258.343C995.845 258.343 998.915 259.315 1001.09 261.332H1001.09C1003.32 263.325 1004.39 266.338 1004.39 270.267V289.022H999.577V285.438C998.903 286.221 998.093 286.907 997.148 287.492L997.147 287.491C995.219 288.71 992.806 289.303 989.941 289.303C987.686 289.303 985.693 288.94 983.976 288.198L983.963 288.192C982.288 287.414 980.98 286.35 980.063 284.995L980.06 284.989C979.143 283.595 978.689 282.004 978.689 280.234C978.69 278.623 979.064 277.154 979.82 275.841L979.822 275.837C980.631 274.462 981.913 273.393 983.626 272.613C985.397 271.787 987.719 271.391 990.558 271.391H999.409V270.099C999.409 267.694 998.73 265.918 997.438 264.693L997.433 264.689C996.179 263.469 994.254 262.814 991.565 262.814C989.718 262.814 987.966 263.122 986.307 263.735C984.638 264.352 983.237 265.164 982.095 266.163L981.646 266.556L981.338 266.045L979.546 263.077L979.325 262.713L979.649 262.438C981.199 261.121 983.051 260.12 985.196 259.431C987.339 258.705 989.593 258.343 991.957 258.343ZM990.67 275.358C987.86 275.358 986.044 275.864 985.068 276.742C984.092 277.654 983.609 278.77 983.609 280.123C983.609 281.651 984.194 282.847 985.375 283.759C986.564 284.676 988.27 285.167 990.558 285.167C992.721 285.167 994.547 284.681 996.06 283.731C997.581 282.762 998.697 281.384 999.409 279.577V275.358H990.67Z" fill="white" stroke="white"/>
<path d="M932.588 258.622L932.709 258.948L941.47 282.652L950.477 258.944L950.599 258.622H954.706L954.828 258.946L963.739 282.661L972.651 258.946L972.773 258.622H977.483L977.228 259.299L966.083 288.699L965.961 289.022H961.521L961.396 288.701L952.593 265.79L943.738 288.702L943.614 289.022H939.174L939.052 288.698L927.964 259.299L927.709 258.622H932.588Z" fill="white" stroke="white"/>
<path d="M900.706 246.471V262.688C901.52 261.739 902.5 260.929 903.646 260.262L904.052 260.028C906.108 258.899 908.509 258.343 911.238 258.343C913.693 258.343 915.866 258.822 917.741 259.799H917.74C919.66 260.742 921.149 262.195 922.202 264.143H922.203C923.302 266.104 923.835 268.547 923.835 271.442V289.022H918.858V271.835C918.858 268.816 918.095 266.631 916.653 265.188L916.645 265.18C915.232 263.698 913.212 262.927 910.511 262.927C908.49 262.927 906.745 263.341 905.263 264.153L905.259 264.155C903.821 264.927 902.695 266.065 901.881 267.586C901.106 269.066 900.706 270.886 900.706 273.066V289.022H895.73V246.471H900.706Z" fill="white" stroke="white"/>
<path d="M878.629 252.127V258.623H887.589V262.927H878.629V280.011C878.629 281.642 879.034 282.828 879.777 283.641C880.555 284.451 881.679 284.887 883.225 284.887C884.877 284.887 886.211 284.415 887.265 283.498L887.755 283.07L888.042 283.655L889.441 286.511L889.607 286.849L889.328 287.102C888.483 287.866 887.464 288.423 886.28 288.778L886.279 288.777C885.149 289.127 883.981 289.303 882.776 289.303C879.924 289.303 877.652 288.53 876.039 286.917C874.427 285.305 873.652 283.053 873.652 280.235V262.927H868.389V258.623H873.652V252.127H878.629Z" fill="white" stroke="white"/>
<path d="M850.754 258.343C854.642 258.343 857.712 259.315 859.887 261.332H859.886C862.113 263.325 863.183 266.338 863.183 270.267V289.022H858.374V285.438C857.699 286.221 856.891 286.907 855.946 287.492L855.945 287.491C854.016 288.71 851.604 289.303 848.738 289.303C846.483 289.303 844.49 288.94 842.772 288.198L842.76 288.192C841.085 287.414 839.777 286.35 838.86 284.995L838.856 284.989C837.94 283.595 837.486 282.004 837.486 280.234C837.486 278.623 837.861 277.154 838.617 275.841L838.619 275.837C839.428 274.462 840.71 273.393 842.423 272.613C844.194 271.787 846.515 271.391 849.354 271.391H858.206V270.099C858.206 267.694 857.527 265.918 856.234 264.693L856.229 264.689C854.975 263.469 853.051 262.814 850.362 262.814C848.515 262.814 846.763 263.122 845.104 263.735C843.435 264.352 842.034 265.164 840.892 266.163L840.442 266.556L840.135 266.045L838.343 263.077L838.122 262.713L838.446 262.438C839.995 261.121 841.847 260.12 843.993 259.431C846.136 258.705 848.39 258.343 850.754 258.343ZM849.467 275.358C846.657 275.358 844.841 275.864 843.865 276.742C842.889 277.654 842.406 278.77 842.406 280.123C842.406 281.651 842.991 282.847 844.172 283.759C845.361 284.676 847.067 285.167 849.354 285.167C851.518 285.167 853.344 284.681 854.856 283.731C856.378 282.762 857.494 281.384 858.206 279.577V275.358H849.467Z" fill="white" stroke="white"/>
<path d="M816.588 248.822C819.96 248.822 822.888 249.372 825.355 250.488H825.356C827.825 251.568 829.734 253.158 831.062 255.263L831.31 255.657C832.513 257.654 833.104 260.029 833.104 262.763C833.104 265.607 832.43 268.094 831.063 270.202C829.736 272.27 827.828 273.86 825.362 274.978C822.893 276.096 819.963 276.646 816.588 276.646H806.56V289.022H801.416V248.822H816.588ZM806.56 272.006H816.476C820.334 272.006 823.169 271.178 825.06 269.603L825.408 269.294C827.099 267.711 827.96 265.553 827.96 262.763C827.96 259.747 826.979 257.472 825.06 255.866L825.056 255.863C823.165 254.253 820.332 253.406 816.476 253.406H806.56V272.006Z" fill="white" stroke="white"/>
<path d="M755.048 258.622L755.18 258.919L765.815 282.875L776.442 258.919L776.574 258.622H781.591L781.275 259.326L766.548 292.254L766.547 292.253C765.712 294.187 764.773 295.75 763.719 296.921L763.718 296.92C762.709 298.082 761.587 298.916 760.348 299.398C759.122 299.912 757.767 300.166 756.291 300.166C754.855 300.166 753.473 299.933 752.148 299.466L752.145 299.464C750.846 298.992 749.719 298.281 748.77 297.332L748.488 297.051L748.698 296.714L750.547 293.746L750.871 293.226L751.315 293.647C751.935 294.236 752.59 294.699 753.28 295.038L753.578 295.176L753.587 295.18C754.411 295.558 755.329 295.75 756.347 295.75C757.551 295.75 758.558 295.408 759.395 294.739L759.403 294.732L759.412 294.727C760.284 294.09 761.154 292.908 761.998 291.109L763.173 288.447L750.123 259.326L749.807 258.622H755.048Z" fill="white" stroke="white"/>
<path d="M745.713 246.471V289.022H740.905V284.29C739.881 285.597 738.658 286.67 737.232 287.499L737.23 287.5C735.13 288.706 732.727 289.303 730.037 289.303C727.159 289.303 724.552 288.65 722.23 287.334L722.228 287.332C719.946 286.018 718.147 284.197 716.834 281.881L716.832 281.878C715.516 279.517 714.865 276.818 714.865 273.795C714.865 270.736 715.516 268.034 716.834 265.708C718.147 263.391 719.948 261.589 722.23 260.312C724.552 258.996 727.159 258.343 730.037 258.343C732.689 258.343 735.071 258.94 737.17 260.144H737.171C738.547 260.919 739.735 261.927 740.737 263.163V246.471H745.713ZM730.317 262.814C728.346 262.814 726.587 263.279 725.027 264.201L725.021 264.205C723.46 265.092 722.216 266.351 721.288 267.993C720.367 269.623 719.897 271.552 719.897 273.795C719.897 275.999 720.367 277.93 721.291 279.601H721.29C722.218 281.24 723.46 282.517 725.021 283.44L725.315 283.602C726.802 284.381 728.466 284.774 730.317 284.774C732.33 284.774 734.108 284.326 735.667 283.441C737.267 282.517 738.508 281.241 739.397 279.604L739.399 279.601C740.324 277.93 740.793 275.999 740.793 273.795C740.793 271.552 740.324 269.623 739.402 267.993L739.397 267.985C738.509 266.35 737.27 265.094 735.675 264.208L735.663 264.201C734.105 263.28 732.327 262.814 730.317 262.814Z" fill="white" stroke="white"/>
<path d="M684.903 258.622V275.754C684.903 278.809 685.648 281.033 687.054 282.513L687.332 282.776C688.762 284.055 690.717 284.718 693.252 284.718C695.236 284.718 696.922 284.322 698.327 283.55C699.767 282.742 700.855 281.586 701.595 280.07L701.599 280.062C702.376 278.543 702.775 276.702 702.775 274.522V258.622H707.752V289.022H702.943V284.775C702.122 285.818 701.127 286.706 699.956 287.435L699.954 287.436C697.923 288.685 695.551 289.302 692.859 289.302C690.296 289.302 688.032 288.824 686.084 287.85C684.125 286.87 682.597 285.398 681.504 283.446L681.5 283.439C680.442 281.48 679.928 279.059 679.928 276.202V258.622H684.903Z" fill="white" stroke="white"/>
<path d="M663.105 252.127V258.623H672.065V262.927H663.105V280.011C663.105 281.642 663.511 282.828 664.254 283.641C665.032 284.451 666.156 284.887 667.701 284.887C669.354 284.887 670.688 284.415 671.741 283.498L672.231 283.07L672.519 283.655L673.918 286.511L674.084 286.849L673.805 287.102C672.96 287.866 671.94 288.423 670.757 288.778L670.756 288.777C669.626 289.127 668.458 289.303 667.253 289.303C664.4 289.303 662.129 288.53 660.516 286.917C658.904 285.305 658.129 283.053 658.129 280.235V262.927H652.865V258.623H658.129V252.127H663.105Z" fill="white" stroke="white"/>
<path d="M635.994 248.486C638.243 248.486 640.471 248.81 642.678 249.456C644.888 250.066 646.808 250.927 648.43 252.047L648.765 252.278L648.606 252.653L647.206 255.957L646.971 256.513L646.469 256.179C644.832 255.088 643.089 254.288 641.237 253.78H641.235C639.408 253.269 637.642 253.015 635.938 253.015C633.626 253.015 631.756 253.327 630.306 253.928C628.841 254.535 627.789 255.341 627.109 256.326C626.461 257.282 626.134 258.377 626.134 259.626C626.134 261.057 626.532 262.159 627.288 262.981C628.123 263.849 629.21 264.537 630.566 265.037H630.565C632.001 265.552 633.57 266.013 635.271 266.42C636.995 266.832 638.701 267.282 640.389 267.77H640.388C642.132 268.263 643.73 268.909 645.181 269.709H645.182C646.704 270.49 647.926 271.55 648.834 272.89C649.806 274.267 650.269 276.038 650.27 278.162C650.27 280.163 649.719 282.03 648.624 283.751L648.621 283.755C647.513 285.456 645.826 286.818 643.597 287.855L643.593 287.857C641.378 288.868 638.556 289.358 635.153 289.358C632.187 289.358 629.332 288.883 626.59 287.931L626.582 287.928C623.885 286.94 621.759 285.674 620.235 284.111L619.985 283.854L620.148 283.535L621.772 280.344L622.08 279.738L622.566 280.212C623.89 281.499 625.678 282.607 627.949 283.522H627.948C630.239 284.394 632.64 284.83 635.153 284.83C637.58 284.83 639.507 284.536 640.958 283.971C642.465 283.361 643.511 282.574 644.148 281.634L644.154 281.624H644.155C644.842 280.662 645.182 279.606 645.182 278.442C645.182 277.016 644.768 275.916 643.978 275.093L643.97 275.085C643.174 274.22 642.107 273.532 640.749 273.031L640.738 273.027C639.345 272.477 637.799 271.999 636.102 271.593C634.381 271.181 632.66 270.751 630.939 270.302L630.93 270.3C629.18 269.805 627.559 269.157 626.068 268.354L626.063 268.352C624.582 267.533 623.366 266.457 622.425 265.123L622.421 265.116L622.416 265.109C621.488 263.698 621.046 261.894 621.046 259.738C621.046 257.705 621.575 255.839 622.635 254.152L622.636 254.149C623.673 252.519 625.206 251.218 627.204 250.235L627.61 250.043C629.826 248.995 632.629 248.486 635.994 248.486Z" fill="white" stroke="white"/>
<path d="M598.284 246.471V289.022H593.309V246.471H598.284Z" fill="white" stroke="white"/>
<path d="M571.082 258.343C574.97 258.343 578.04 259.315 580.215 261.332H580.214C582.441 263.325 583.511 266.338 583.511 270.267V289.022H578.702V285.438C578.028 286.221 577.218 286.907 576.273 287.492L576.272 287.491C574.344 288.71 571.931 289.303 569.066 289.303C566.811 289.303 564.818 288.94 563.101 288.198L563.088 288.192C561.413 287.414 560.105 286.35 559.188 284.995L559.185 284.989C558.268 283.595 557.814 282.004 557.814 280.234C557.815 278.623 558.189 277.154 558.945 275.841L558.947 275.837C559.756 274.462 561.038 273.393 562.751 272.613C564.522 271.787 566.844 271.391 569.683 271.391H578.534V270.099C578.534 267.694 577.855 265.918 576.562 264.693L576.558 264.689C575.304 263.469 573.379 262.814 570.69 262.814C568.843 262.814 567.091 263.122 565.432 263.735C563.763 264.352 562.362 265.164 561.22 266.163L560.771 266.556L560.463 266.045L558.671 263.077L558.45 262.713L558.774 262.438C560.324 261.121 562.176 260.12 564.321 259.431C566.464 258.705 568.718 258.343 571.082 258.343ZM569.795 275.358C566.985 275.358 565.169 275.864 564.193 276.742C563.217 277.654 562.734 278.77 562.734 280.123C562.734 281.651 563.319 282.847 564.5 283.759C565.689 284.676 567.395 285.167 569.683 285.167C571.846 285.167 573.672 284.681 575.185 283.731C576.706 282.762 577.822 281.384 578.534 279.577V275.358H569.795Z" fill="white" stroke="white"/>
<path d="M527.466 246.471V263.136C528.478 261.912 529.667 260.913 531.033 260.144C533.167 258.941 535.548 258.343 538.166 258.343C541.041 258.343 543.627 258.995 545.911 260.309C548.233 261.586 550.054 263.388 551.369 265.708C552.687 268.034 553.338 270.736 553.338 273.795C553.338 276.818 552.687 279.517 551.371 281.878L551.369 281.881C550.055 284.2 548.236 286.02 545.917 287.334L545.916 287.333C543.631 288.649 541.043 289.303 538.166 289.303C535.512 289.303 533.112 288.705 530.977 287.502L530.971 287.499C529.545 286.67 528.322 285.598 527.298 284.29V289.022H522.49V246.471H527.466ZM537.887 262.814C535.877 262.814 534.079 263.281 532.48 264.204L532.478 264.205C530.92 265.09 529.677 266.346 528.749 267.984L528.75 267.985C527.863 269.617 527.41 271.548 527.41 273.795C527.41 276.002 527.862 277.935 528.752 279.607H528.751C529.678 281.243 530.919 282.517 532.477 283.439C534.075 284.327 535.875 284.774 537.887 284.774C539.897 284.774 541.674 284.327 543.231 283.444L543.521 283.267C544.951 282.358 546.1 281.138 546.971 279.597C547.894 277.927 548.362 275.997 548.362 273.795C548.362 271.552 547.892 269.623 546.971 267.993C546.043 266.351 544.8 265.092 543.239 264.205L543.231 264.201C541.673 263.281 539.896 262.815 537.887 262.814Z" fill="white" stroke="white"/>
<path d="M499.864 258.343C502.849 258.343 505.511 258.994 507.835 260.31C510.189 261.622 512.028 263.441 513.343 265.759H513.344C514.701 268.085 515.372 270.769 515.372 273.795C515.372 276.784 514.7 279.466 513.346 281.827C512.031 284.146 510.194 285.982 507.841 287.332L507.836 287.336C505.477 288.651 502.815 289.303 499.864 289.303C496.949 289.303 494.306 288.65 491.948 287.336L491.94 287.331C489.626 285.981 487.791 284.145 486.44 281.831L486.438 281.827C485.084 279.466 484.412 276.784 484.412 273.795C484.412 270.769 485.083 268.085 486.44 265.759C487.791 263.443 489.628 261.625 491.945 260.312C494.269 258.995 496.913 258.343 499.864 258.343ZM499.92 262.814C497.91 262.814 496.133 263.28 494.574 264.201L494.567 264.205C493.007 265.092 491.763 266.351 490.835 267.993C489.914 269.623 489.444 271.552 489.444 273.795C489.444 275.999 489.914 277.93 490.838 279.601H490.837C491.764 281.24 493.007 282.517 494.567 283.44L494.862 283.602C496.349 284.381 498.013 284.774 499.864 284.774C501.913 284.774 503.709 284.327 505.266 283.444L505.555 283.267C506.98 282.359 508.109 281.142 508.944 279.604L508.946 279.601C509.871 277.93 510.34 275.999 510.34 273.795C510.34 271.552 509.87 269.623 508.949 267.993L508.944 267.985C508.054 266.347 506.832 265.091 505.273 264.205L505.266 264.201C503.707 263.28 501.93 262.814 499.92 262.814Z" fill="white" stroke="white"/>
<path d="M477.317 246.471V289.022H472.342V246.471H477.317Z" fill="white" stroke="white"/>
<path d="M447.616 248.486C450.654 248.486 453.44 248.961 455.967 249.918L456.445 250.104C458.813 251.062 460.847 252.463 462.544 254.304L462.866 254.652L462.534 254.992L459.958 257.624L459.604 257.985L459.247 257.628C457.651 256.032 455.902 254.899 454 254.217C452.08 253.528 450.009 253.183 447.784 253.183C445.415 253.183 443.239 253.583 441.25 254.379L441.246 254.38C439.292 255.14 437.576 256.243 436.094 257.688C434.649 259.098 433.509 260.761 432.675 262.682C431.884 264.553 431.484 266.631 431.484 268.922C431.484 271.175 431.884 273.256 432.678 275.169C433.51 277.085 434.647 278.764 436.089 280.208C437.57 281.617 439.287 282.721 441.243 283.52L441.618 283.657C443.505 284.326 445.541 284.662 447.729 284.662C449.918 284.662 451.972 284.334 453.896 283.681L453.898 283.68C455.156 283.26 456.348 282.65 457.477 281.849V268.422H462.452V283.707L462.63 283.944L462.452 284.101V284.441L462.109 284.397C460.229 286.012 458.046 287.247 455.562 288.1L455.557 288.102C453.003 288.94 450.337 289.358 447.561 289.358C444.519 289.358 441.695 288.864 439.094 287.869L439.086 287.866C436.528 286.835 434.289 285.401 432.374 283.563L432.37 283.56C430.493 281.721 429.019 279.557 427.949 277.072L427.946 277.066C426.911 274.573 426.396 271.856 426.396 268.922C426.397 265.988 426.911 263.271 427.946 260.778L427.949 260.772C429.02 258.286 430.515 256.12 432.431 254.281C434.346 252.443 436.585 251.027 439.144 250.033C441.746 249 444.572 248.486 447.616 248.486Z" fill="white" stroke="white"/>
</svg>
