<svg width="1465" height="321" viewBox="0 0 1465 321" fill="none" xmlns="http://www.w3.org/2000/svg">
<path d="M176.999 296.976C177.018 296.932 176.99 296.839 177.046 296.718C182.933 284.962 188.737 273.312 194.603 261.694C204.518 242.056 214.401 222.401 224.428 202.82C236.603 179.046 253.01 150.378 265.273 126.65H343.452C342.451 129.27 339.389 136.996 338.448 139.389C332.334 154.946 326.216 170.502 320.076 186.049C319.669 187.08 319.556 187.783 320.592 188.638C327.945 194.707 335.244 200.843 342.543 206.978L343.452 207.742C347.004 210.728 350.519 213.757 354.17 216.868C353.429 217.381 352.852 217.798 352.258 218.189C336.136 228.785 319.966 239.309 303.903 249.994C288.071 260.526 272.358 271.238 256.556 281.814C255.417 282.576 255.05 283.311 255.154 284.65C255.885 294.052 256.539 303.461 257.208 312.868C257.374 315.205 257.503 317.545 257.663 320.114C256.674 319.843 255.929 319.647 255.189 319.436C234.493 313.539 213.794 307.649 193.102 301.737C187.718 300.199 182.353 298.594 176.999 296.976Z" fill="#1A3660"/>
<path d="M88.8965 126.65C101.16 150.378 117.568 179.047 129.742 202.82C139.769 222.401 149.652 242.056 159.567 261.694C165.433 273.312 171.237 284.962 177.124 296.719C177.179 296.839 177.152 296.931 177.171 296.976C171.817 298.594 166.451 300.199 161.067 301.737C140.375 307.649 119.677 313.539 98.9805 319.436C98.2403 319.646 97.4961 319.843 96.5068 320.114C96.6674 317.545 96.7968 315.205 96.9629 312.868C97.6314 303.461 98.2851 294.053 99.0156 284.65C99.1196 283.312 98.7527 282.576 97.6143 281.814C81.8118 271.238 66.0993 260.526 50.2676 249.994C34.2046 239.308 18.033 228.785 1.91113 218.188C1.31724 217.798 0.740782 217.381 0 216.868C3.65044 213.758 7.16589 210.728 10.7178 207.742L11.627 206.978C18.9255 200.842 26.2247 194.707 33.5781 188.639C34.6145 187.783 34.5011 187.08 34.0938 186.049C27.9546 170.502 21.8361 154.946 15.7217 139.389C14.7808 136.995 11.7184 129.269 10.7178 126.65H88.8965ZM177.021 0C177.361 0.393217 177.787 0.739865 178.027 1.18652C186.855 17.5837 195.672 33.9876 204.477 50.3975C207.182 55.4401 209.846 60.5051 212.537 65.5557C212.794 66.0377 213.106 66.4904 213.44 67.0352C227.056 59.7142 251.56 52.4531 265.311 45.0596V126.457C264.667 126.457 253.012 126.457 252.357 126.457C244.005 126.456 235.652 126.538 227.302 126.394C225.219 126.357 224.289 127.079 223.438 128.891C213.639 149.763 203.767 170.602 193.884 191.436C188.547 202.685 183.151 213.907 177.778 225.139C177.611 225.488 177.397 225.816 177.133 225.927C177.102 225.393 177.092 224.915 177.089 224.466L177.091 223.174C177.091 224.016 177.071 224.859 177.066 225.861C175.393 222.69 173.641 219.392 172.047 216.02C159.599 189.688 147.18 163.342 134.759 136.997C133.325 133.957 131.893 130.914 130.546 127.835C130.07 126.748 129.428 126.4 128.264 126.407C119.756 126.461 111.247 126.444 102.738 126.448C101.97 126.449 89.7534 126.448 88.8965 126.448V45.0566C102.509 52.4274 127.393 59.7001 140.937 67.0332C152.914 44.714 164.87 22.4342 176.924 0.0771484C177.008 12.3111 177.045 24.5865 177.061 36.873C177.05 24.582 177.034 12.291 177.021 0Z" fill="#C8102E"/>
<path d="M1449.65 276.322V269.076L1449.46 267.889V255.77C1449.46 252.98 1448.67 250.835 1447.09 249.336C1445.55 247.837 1443.24 247.087 1440.15 247.087C1438.03 247.087 1436.01 247.441 1434.09 248.149C1432.18 248.857 1430.55 249.794 1429.22 250.96L1427.22 247.649C1428.89 246.233 1430.89 245.15 1433.22 244.401C1435.55 243.61 1438.01 243.214 1440.59 243.214C1444.84 243.214 1448.11 244.276 1450.4 246.4C1452.73 248.482 1453.9 251.668 1453.9 255.958V276.322H1449.65ZM1438.34 276.635C1435.88 276.635 1433.74 276.239 1431.91 275.448C1430.12 274.615 1428.74 273.49 1427.78 272.075C1426.83 270.617 1426.35 268.951 1426.35 267.077C1426.35 265.37 1426.74 263.829 1427.53 262.454C1428.37 261.038 1429.7 259.914 1431.53 259.081C1433.41 258.206 1435.91 257.769 1439.03 257.769H1450.34V261.08H1439.15C1435.99 261.08 1433.78 261.642 1432.53 262.767C1431.32 263.891 1430.72 265.286 1430.72 266.952C1430.72 268.826 1431.45 270.325 1432.91 271.45C1434.36 272.574 1436.41 273.136 1439.03 273.136C1441.53 273.136 1443.67 272.574 1445.46 271.45C1447.3 270.284 1448.63 268.618 1449.46 266.452L1450.46 269.513C1449.63 271.679 1448.17 273.407 1446.09 274.698C1444.05 275.989 1441.47 276.635 1438.34 276.635Z" fill="#C8102E"/>
<path d="M1399.81 276.635C1396.69 276.635 1393.88 275.927 1391.38 274.511C1388.92 273.095 1386.99 271.138 1385.57 268.639C1384.16 266.099 1383.45 263.183 1383.45 259.893C1383.45 256.562 1384.16 253.646 1385.57 251.148C1386.99 248.649 1388.92 246.712 1391.38 245.338C1393.88 243.922 1396.69 243.214 1399.81 243.214C1402.69 243.214 1405.25 243.86 1407.5 245.151C1409.79 246.442 1411.6 248.337 1412.93 250.835C1414.31 253.292 1414.99 256.312 1414.99 259.893C1414.99 263.433 1414.33 266.453 1413 268.951C1411.66 271.45 1409.85 273.366 1407.56 274.698C1405.31 275.989 1402.73 276.635 1399.81 276.635ZM1400.13 272.699C1402.46 272.699 1404.54 272.179 1406.37 271.138C1408.25 270.055 1409.71 268.556 1410.75 266.64C1411.83 264.683 1412.37 262.434 1412.37 259.893C1412.37 257.311 1411.83 255.062 1410.75 253.147C1409.71 251.231 1408.25 249.753 1406.37 248.711C1404.54 247.629 1402.46 247.087 1400.13 247.087C1397.84 247.087 1395.77 247.629 1393.94 248.711C1392.11 249.753 1390.65 251.231 1389.57 253.147C1388.49 255.062 1387.95 257.311 1387.95 259.893C1387.95 262.434 1388.49 264.683 1389.57 266.64C1390.65 268.556 1392.11 270.055 1393.94 271.138C1395.77 272.179 1397.84 272.699 1400.13 272.699ZM1412.5 276.323V266.453L1412.93 259.831L1412.31 253.209V229.971H1416.74V276.323H1412.5Z" fill="#C8102E"/>
<path d="M1370.46 276.322V269.076L1370.28 267.889V255.77C1370.28 252.98 1369.49 250.835 1367.9 249.336C1366.36 247.837 1364.05 247.087 1360.97 247.087C1358.85 247.087 1356.83 247.441 1354.91 248.149C1352.99 248.857 1351.37 249.794 1350.04 250.96L1348.04 247.649C1349.7 246.233 1351.7 245.15 1354.04 244.401C1356.37 243.61 1358.82 243.214 1361.41 243.214C1365.65 243.214 1368.92 244.276 1371.21 246.4C1373.55 248.482 1374.71 251.668 1374.71 255.958V276.322H1370.46ZM1359.16 276.635C1356.7 276.635 1354.56 276.239 1352.72 275.448C1350.93 274.615 1349.56 273.49 1348.6 272.075C1347.64 270.617 1347.16 268.951 1347.16 267.077C1347.16 265.37 1347.56 263.829 1348.35 262.454C1349.18 261.038 1350.52 259.914 1352.35 259.081C1354.22 258.206 1356.72 257.769 1359.85 257.769H1371.15V261.08H1359.97C1356.81 261.08 1354.6 261.642 1353.35 262.767C1352.14 263.891 1351.54 265.286 1351.54 266.952C1351.54 268.826 1352.27 270.325 1353.72 271.45C1355.18 272.574 1357.22 273.136 1359.85 273.136C1362.34 273.136 1364.49 272.574 1366.28 271.45C1368.11 270.284 1369.44 268.618 1370.28 266.452L1371.28 269.513C1370.44 271.679 1368.99 273.407 1366.9 274.698C1364.86 275.989 1362.28 276.635 1359.16 276.635Z" fill="#C8102E"/>
<path d="M1307.7 276.322V243.526H1311.95V252.522L1311.26 250.835C1312.3 248.461 1313.96 246.608 1316.26 245.275C1318.55 243.901 1321.27 243.214 1324.44 243.214C1327.1 243.214 1329.44 243.734 1331.44 244.776C1333.48 245.775 1335.06 247.316 1336.18 249.398C1337.35 251.481 1337.93 254.104 1337.93 257.269V276.322H1333.5V257.707C1333.5 254.25 1332.62 251.647 1330.87 249.898C1329.17 248.107 1326.75 247.212 1323.63 247.212C1321.29 247.212 1319.25 247.691 1317.5 248.649C1315.8 249.565 1314.46 250.918 1313.51 252.709C1312.59 254.458 1312.13 256.582 1312.13 259.081V276.322H1307.7Z" fill="#C8102E"/>
<path d="M1291.4 276.322V269.076L1291.22 267.889V255.77C1291.22 252.98 1290.42 250.835 1288.84 249.336C1287.3 247.837 1284.99 247.087 1281.91 247.087C1279.78 247.087 1277.76 247.441 1275.85 248.149C1273.93 248.857 1272.31 249.794 1270.98 250.96L1268.98 247.649C1270.64 246.233 1272.64 245.15 1274.97 244.401C1277.31 243.61 1279.76 243.214 1282.34 243.214C1286.59 243.214 1289.86 244.276 1292.15 246.4C1294.48 248.482 1295.65 251.668 1295.65 255.958V276.322H1291.4ZM1280.1 276.635C1277.64 276.635 1275.49 276.239 1273.66 275.448C1271.87 274.615 1270.5 273.49 1269.54 272.075C1268.58 270.617 1268.1 268.951 1268.1 267.077C1268.1 265.37 1268.5 263.829 1269.29 262.454C1270.12 261.038 1271.45 259.914 1273.29 259.081C1275.16 258.206 1277.66 257.769 1280.78 257.769H1292.09V261.08H1280.91C1277.74 261.08 1275.54 261.642 1274.29 262.767C1273.08 263.891 1272.47 265.286 1272.47 266.952C1272.47 268.826 1273.2 270.325 1274.66 271.45C1276.12 272.574 1278.16 273.136 1280.78 273.136C1283.28 273.136 1285.43 272.574 1287.22 271.45C1289.05 270.284 1290.38 268.618 1291.22 266.452L1292.21 269.513C1291.38 271.679 1289.92 273.407 1287.84 274.698C1285.8 275.989 1283.22 276.635 1280.1 276.635Z" fill="#C8102E"/>
<path d="M1246.98 276.697C1243.69 276.697 1240.65 276.155 1237.86 275.072C1235.07 273.948 1232.65 272.386 1230.61 270.387C1228.57 268.388 1226.97 266.035 1225.8 263.328C1224.68 260.621 1224.11 257.664 1224.11 254.458C1224.11 251.251 1224.68 248.294 1225.8 245.587C1226.97 242.88 1228.57 240.527 1230.61 238.528C1232.69 236.529 1235.13 234.988 1237.92 233.905C1240.71 232.781 1243.75 232.219 1247.04 232.219C1250.2 232.219 1253.18 232.76 1255.97 233.843C1258.76 234.884 1261.12 236.467 1263.03 238.591L1260.1 241.527C1258.3 239.694 1256.33 238.382 1254.16 237.591C1252 236.758 1249.66 236.342 1247.16 236.342C1244.54 236.342 1242.1 236.8 1239.86 237.716C1237.61 238.591 1235.65 239.861 1233.98 241.527C1232.32 243.151 1231.01 245.067 1230.05 247.274C1229.13 249.439 1228.67 251.834 1228.67 254.458C1228.67 257.081 1229.13 259.497 1230.05 261.704C1231.01 263.87 1232.32 265.785 1233.98 267.451C1235.65 269.075 1237.61 270.346 1239.86 271.262C1242.1 272.136 1244.54 272.574 1247.16 272.574C1249.66 272.574 1252 272.157 1254.16 271.324C1256.33 270.491 1258.3 269.159 1260.1 267.326L1263.03 270.262C1261.12 272.386 1258.76 273.99 1255.97 275.072C1253.18 276.155 1250.18 276.697 1246.98 276.697Z" fill="#C8102E"/>
<path d="M1168.48 276.322V243.526H1172.73V252.522L1172.05 250.835C1173.09 248.461 1174.75 246.608 1177.04 245.275C1179.33 243.901 1182.06 243.214 1185.23 243.214C1187.89 243.214 1190.22 243.734 1192.22 244.776C1194.26 245.775 1195.85 247.316 1196.97 249.398C1198.14 251.481 1198.72 254.104 1198.72 257.269V276.322H1194.28V257.707C1194.28 254.25 1193.41 251.647 1191.66 249.898C1189.95 248.107 1187.54 247.212 1184.41 247.212C1182.08 247.212 1180.04 247.691 1178.29 248.649C1176.58 249.565 1175.25 250.918 1174.29 252.709C1173.38 254.458 1172.92 256.582 1172.92 259.081V276.322H1168.48Z" fill="#C8102E"/>
<path d="M1151.71 276.323V243.526H1156.14V276.323H1151.71ZM1153.96 236.28C1153.04 236.28 1152.27 235.968 1151.65 235.343C1151.02 234.718 1150.71 233.969 1150.71 233.094C1150.71 232.22 1151.02 231.491 1151.65 230.908C1152.27 230.283 1153.04 229.971 1153.96 229.971C1154.87 229.971 1155.64 230.262 1156.27 230.845C1156.89 231.428 1157.21 232.157 1157.21 233.032C1157.21 233.948 1156.89 234.718 1156.27 235.343C1155.69 235.968 1154.92 236.28 1153.96 236.28Z" fill="#C8102E"/>
<path d="M1113.66 276.635C1110.96 276.635 1108.4 276.26 1105.98 275.51C1103.56 274.719 1101.67 273.74 1100.29 272.574L1102.29 269.076C1103.63 270.076 1105.33 270.95 1107.42 271.7C1109.5 272.408 1111.69 272.762 1113.98 272.762C1117.1 272.762 1119.35 272.283 1120.72 271.325C1122.1 270.325 1122.78 269.014 1122.78 267.389C1122.78 266.182 1122.39 265.245 1121.6 264.578C1120.85 263.87 1119.85 263.35 1118.6 263.017C1117.35 262.642 1115.95 262.329 1114.41 262.079C1112.87 261.83 1111.33 261.538 1109.79 261.205C1108.29 260.872 1106.92 260.393 1105.67 259.768C1104.42 259.102 1103.4 258.206 1102.61 257.082C1101.86 255.958 1101.48 254.458 1101.48 252.584C1101.48 250.793 1101.98 249.19 1102.98 247.774C1103.98 246.358 1105.44 245.255 1107.35 244.463C1109.31 243.63 1111.69 243.214 1114.48 243.214C1116.6 243.214 1118.72 243.505 1120.85 244.088C1122.97 244.63 1124.72 245.359 1126.09 246.275L1124.16 249.836C1122.7 248.836 1121.14 248.128 1119.47 247.712C1117.81 247.254 1116.14 247.024 1114.48 247.024C1111.52 247.024 1109.33 247.545 1107.92 248.586C1106.54 249.586 1105.85 250.877 1105.85 252.459C1105.85 253.709 1106.23 254.687 1106.98 255.395C1107.77 256.103 1108.79 256.666 1110.04 257.082C1111.33 257.457 1112.73 257.769 1114.23 258.019C1115.77 258.269 1117.29 258.581 1118.79 258.956C1120.33 259.289 1121.72 259.768 1122.97 260.393C1124.26 260.976 1125.28 261.83 1126.03 262.954C1126.82 264.037 1127.22 265.474 1127.22 267.264C1127.22 269.18 1126.68 270.846 1125.59 272.262C1124.55 273.636 1123.01 274.719 1120.97 275.51C1118.97 276.26 1116.54 276.635 1113.66 276.635Z" fill="#C8102E"/>
<path d="M1071.61 288.753C1070.07 288.753 1068.59 288.503 1067.18 288.003C1065.8 287.504 1064.62 286.754 1063.62 285.754L1065.68 282.444C1066.51 283.235 1067.41 283.839 1068.36 284.255C1069.36 284.713 1070.47 284.942 1071.68 284.942C1073.13 284.942 1074.38 284.526 1075.42 283.693C1076.51 282.902 1077.53 281.486 1078.48 279.445L1080.61 274.635L1081.11 273.948L1094.6 243.525H1098.97L1082.55 280.257C1081.63 282.381 1080.61 284.068 1079.48 285.317C1078.4 286.566 1077.21 287.441 1075.92 287.941C1074.63 288.482 1073.2 288.753 1071.61 288.753ZM1080.36 277.259L1065.24 243.525H1069.86L1083.23 273.635L1080.36 277.259Z" fill="#C8102E"/>
<path d="M1056.29 276.322V269.076L1056.1 267.889V255.77C1056.1 252.98 1055.31 250.835 1053.73 249.336C1052.19 247.837 1049.88 247.087 1046.79 247.087C1044.67 247.087 1042.65 247.441 1040.73 248.149C1038.82 248.857 1037.19 249.794 1035.86 250.96L1033.86 247.649C1035.53 246.233 1037.53 245.15 1039.86 244.401C1042.19 243.61 1044.65 243.214 1047.23 243.214C1051.48 243.214 1054.75 244.276 1057.04 246.4C1059.37 248.482 1060.54 251.668 1060.54 255.958V276.322H1056.29ZM1044.98 276.635C1042.53 276.635 1040.38 276.239 1038.55 275.448C1036.76 274.615 1035.38 273.49 1034.43 272.075C1033.47 270.617 1032.99 268.951 1032.99 267.077C1032.99 265.37 1033.38 263.829 1034.18 262.454C1035.01 261.038 1036.34 259.914 1038.17 259.081C1040.05 258.206 1042.55 257.769 1045.67 257.769H1056.98V261.08H1045.79C1042.63 261.08 1040.42 261.642 1039.17 262.767C1037.96 263.891 1037.36 265.286 1037.36 266.952C1037.36 268.826 1038.09 270.325 1039.55 271.45C1041.01 272.574 1043.05 273.136 1045.67 273.136C1048.17 273.136 1050.31 272.574 1052.1 271.45C1053.94 270.284 1055.27 268.618 1056.1 266.452L1057.1 269.513C1056.27 271.679 1054.81 273.407 1052.73 274.698C1050.69 275.989 1048.11 276.635 1044.98 276.635Z" fill="#C8102E"/>
<path d="M988.736 276.322L976.367 243.525H980.615L991.859 273.948H989.923L1001.48 243.525H1005.29L1016.72 273.948H1014.79L1026.22 243.525H1030.28L1017.85 276.322H1013.66L1002.67 247.711H1003.98L992.921 276.322H988.736Z" fill="#C8102E"/>
<path d="M940.449 276.323V229.971H944.884V252.522L944.01 250.835C945.051 248.462 946.717 246.608 949.007 245.276C951.298 243.901 954.026 243.214 957.191 243.214C959.856 243.214 962.188 243.735 964.187 244.776C966.228 245.775 967.811 247.316 968.935 249.399C970.101 251.481 970.684 254.105 970.684 257.27V276.323H966.249V257.707C966.249 254.25 965.374 251.647 963.625 249.898C961.918 248.108 959.502 247.212 956.379 247.212C954.047 247.212 952.006 247.691 950.257 248.649C948.549 249.565 947.217 250.919 946.259 252.709C945.343 254.459 944.884 256.582 944.884 259.081V276.323H940.449Z" fill="#C8102E"/>
<path d="M925.438 276.635C922.356 276.635 919.982 275.802 918.316 274.136C916.65 272.471 915.817 270.118 915.817 267.077V236.28H920.253V266.828C920.253 268.743 920.732 270.222 921.689 271.263C922.689 272.304 924.105 272.825 925.937 272.825C927.895 272.825 929.519 272.262 930.81 271.138L932.372 274.324C931.497 275.115 930.435 275.698 929.186 276.073C927.978 276.448 926.729 276.635 925.438 276.635ZM909.945 247.212V243.527H930.248V247.212H909.945Z" fill="#C8102E"/>
<path d="M898.776 276.322V269.076L898.588 267.889V255.77C898.588 252.98 897.797 250.835 896.214 249.336C894.673 247.837 892.362 247.087 889.28 247.087C887.156 247.087 885.136 247.441 883.221 248.149C881.305 248.857 879.681 249.794 878.348 250.96L876.349 247.649C878.015 246.233 880.014 245.15 882.346 244.401C884.678 243.61 887.135 243.214 889.718 243.214C893.965 243.214 897.235 244.276 899.525 246.4C901.857 248.482 903.023 251.668 903.023 255.958V276.322H898.776ZM887.469 276.635C885.012 276.635 882.867 276.239 881.034 275.448C879.244 274.615 877.869 273.49 876.911 272.075C875.954 270.617 875.475 268.951 875.475 267.077C875.475 265.37 875.87 263.829 876.662 262.454C877.494 261.038 878.827 259.914 880.66 259.081C882.534 258.206 885.032 257.769 888.156 257.769H899.463V261.08H888.281C885.116 261.08 882.908 261.642 881.659 262.767C880.451 263.891 879.847 265.286 879.847 266.952C879.847 268.826 880.576 270.325 882.034 271.45C883.491 272.574 885.532 273.136 888.156 273.136C890.655 273.136 892.799 272.574 894.59 271.45C896.423 270.284 897.755 268.618 898.588 266.452L899.588 269.513C898.755 271.679 897.297 273.407 895.215 274.698C893.174 275.989 890.592 276.635 887.469 276.635Z" fill="#C8102E"/>
<path d="M835.236 276.322V232.594H851.603C855.31 232.594 858.496 233.198 861.161 234.405C863.826 235.571 865.867 237.279 867.283 239.528C868.741 241.735 869.469 244.421 869.469 247.586C869.469 250.668 868.741 253.333 867.283 255.582C865.867 257.79 863.826 259.497 861.161 260.705C858.496 261.913 855.31 262.516 851.603 262.516H837.798L839.859 260.33V276.322H835.236ZM839.859 260.705L837.798 258.456H851.478C855.851 258.456 859.162 257.519 861.411 255.645C863.701 253.729 864.847 251.043 864.847 247.586C864.847 244.088 863.701 241.381 861.411 239.465C859.162 237.55 855.851 236.592 851.478 236.592H837.798L839.859 234.405V260.705Z" fill="#C8102E"/>
<path d="M784.342 288.753C782.801 288.753 781.322 288.503 779.906 288.003C778.532 287.504 777.345 286.754 776.346 285.754L778.407 282.444C779.24 283.235 780.135 283.839 781.093 284.255C782.093 284.713 783.196 284.942 784.404 284.942C785.862 284.942 787.111 284.526 788.152 283.693C789.235 282.902 790.255 281.486 791.213 279.445L793.337 274.635L793.837 273.948L807.33 243.525H811.703L795.274 280.257C794.358 282.381 793.337 284.068 792.213 285.317C791.13 286.566 789.943 287.441 788.652 287.941C787.361 288.482 785.924 288.753 784.342 288.753ZM793.087 277.259L777.97 243.525H782.593L795.961 273.635L793.087 277.259Z" fill="#C8102E"/>
<path d="M755.054 276.635C751.931 276.635 749.12 275.927 746.621 274.511C744.164 273.095 742.227 271.138 740.811 268.639C739.396 266.099 738.688 263.183 738.688 259.893C738.688 256.562 739.396 253.646 740.811 251.148C742.227 248.649 744.164 246.712 746.621 245.338C749.12 243.922 751.931 243.214 755.054 243.214C757.928 243.214 760.489 243.86 762.738 245.151C765.029 246.442 766.84 248.337 768.173 250.835C769.547 253.292 770.234 256.312 770.234 259.893C770.234 263.433 769.568 266.453 768.235 268.951C766.903 271.45 765.091 273.366 762.801 274.698C760.552 275.989 757.97 276.635 755.054 276.635ZM755.367 272.699C757.699 272.699 759.781 272.179 761.614 271.138C763.488 270.055 764.945 268.556 765.986 266.64C767.069 264.683 767.611 262.434 767.611 259.893C767.611 257.311 767.069 255.062 765.986 253.147C764.945 251.231 763.488 249.753 761.614 248.711C759.781 247.629 757.699 247.087 755.367 247.087C753.076 247.087 751.015 247.629 749.182 248.711C747.35 249.753 745.892 251.231 744.809 253.147C743.727 255.062 743.185 257.311 743.185 259.893C743.185 262.434 743.727 264.683 744.809 266.64C745.892 268.556 747.35 270.055 749.182 271.138C751.015 272.179 753.076 272.699 755.367 272.699ZM767.736 276.323V266.453L768.173 259.831L767.548 253.209V229.971H771.983V276.323H767.736Z" fill="#C8102E"/>
<path d="M713.583 276.634C710.793 276.634 708.356 276.113 706.274 275.072C704.192 274.031 702.568 272.469 701.401 270.387C700.277 268.305 699.715 265.702 699.715 262.578V243.525H704.15V262.079C704.15 265.577 705.004 268.221 706.711 270.012C708.46 271.761 710.897 272.636 714.02 272.636C716.311 272.636 718.289 272.178 719.955 271.262C721.662 270.304 722.953 268.929 723.828 267.139C724.744 265.348 725.202 263.203 725.202 260.704V243.525H729.637V276.322H725.39V267.326L726.077 268.95C725.036 271.366 723.411 273.261 721.204 274.635C719.039 275.968 716.498 276.634 713.583 276.634Z" fill="#C8102E"/>
<path d="M685.018 276.635C681.936 276.635 679.562 275.802 677.896 274.136C676.23 272.471 675.397 270.118 675.397 267.077V236.28H679.833V266.828C679.833 268.743 680.312 270.222 681.27 271.263C682.269 272.304 683.685 272.825 685.517 272.825C687.475 272.825 689.099 272.262 690.39 271.138L691.952 274.324C691.077 275.115 690.015 275.698 688.766 276.073C687.558 276.448 686.309 276.635 685.018 276.635ZM669.525 247.212V243.527H689.828V247.212H669.525Z" fill="#C8102E"/>
<path d="M649.211 276.697C645.962 276.697 642.839 276.176 639.84 275.135C636.883 274.052 634.593 272.678 632.969 271.012L634.78 267.451C636.321 268.95 638.383 270.221 640.965 271.262C643.588 272.261 646.337 272.761 649.211 272.761C651.959 272.761 654.187 272.428 655.895 271.762C657.644 271.054 658.914 270.117 659.705 268.95C660.538 267.784 660.955 266.493 660.955 265.077C660.955 263.37 660.455 261.996 659.456 260.954C658.498 259.913 657.228 259.101 655.645 258.518C654.062 257.893 652.313 257.352 650.398 256.894C648.482 256.436 646.566 255.957 644.65 255.457C642.735 254.916 640.965 254.208 639.341 253.333C637.758 252.459 636.467 251.313 635.467 249.897C634.51 248.44 634.031 246.545 634.031 244.213C634.031 242.047 634.593 240.069 635.717 238.278C636.883 236.446 638.653 234.988 641.027 233.905C643.401 232.781 646.441 232.219 650.148 232.219C652.605 232.219 655.041 232.573 657.457 233.281C659.872 233.947 661.954 234.884 663.703 236.092L662.142 239.777C660.268 238.528 658.269 237.612 656.145 237.029C654.062 236.446 652.043 236.154 650.085 236.154C647.462 236.154 645.296 236.508 643.588 237.216C641.881 237.924 640.611 238.882 639.778 240.09C638.987 241.256 638.591 242.589 638.591 244.088C638.591 245.795 639.07 247.17 640.028 248.211C641.027 249.252 642.318 250.064 643.901 250.647C645.525 251.23 647.295 251.751 649.211 252.209C651.126 252.667 653.021 253.167 654.895 253.708C656.811 254.249 658.56 254.957 660.143 255.832C661.767 256.665 663.058 257.789 664.016 259.205C665.015 260.621 665.515 262.475 665.515 264.765C665.515 266.889 664.932 268.867 663.766 270.7C662.6 272.49 660.809 273.948 658.394 275.072C656.02 276.155 652.959 276.697 649.211 276.697Z" fill="#C8102E"/>
<path d="M603.092 276.323V229.971H607.527V276.323H603.092Z" fill="#C8102E"/>
<path d="M586.797 276.322V269.076L586.61 267.889V255.77C586.61 252.98 585.818 250.835 584.236 249.336C582.695 247.837 580.384 247.087 577.302 247.087C575.178 247.087 573.158 247.441 571.242 248.149C569.327 248.857 567.702 249.794 566.37 250.96L564.371 247.649C566.036 246.233 568.036 245.15 570.368 244.401C572.7 243.61 575.157 243.214 577.739 243.214C581.987 243.214 585.256 244.276 587.547 246.4C589.879 248.482 591.045 251.668 591.045 255.958V276.322H586.797ZM575.49 276.635C573.033 276.635 570.888 276.239 569.056 275.448C567.265 274.615 565.891 273.49 564.933 272.075C563.975 270.617 563.496 268.951 563.496 267.077C563.496 265.37 563.892 263.829 564.683 262.454C565.516 261.038 566.849 259.914 568.681 259.081C570.555 258.206 573.054 257.769 576.177 257.769H587.484V261.08H576.302C573.137 261.08 570.93 261.642 569.681 262.767C568.473 263.891 567.869 265.286 567.869 266.952C567.869 268.826 568.598 270.325 570.055 271.45C571.513 272.574 573.554 273.136 576.177 273.136C578.676 273.136 580.821 272.574 582.612 271.45C584.444 270.284 585.777 268.618 586.61 266.452L587.609 269.513C586.776 271.679 585.319 273.407 583.236 274.698C581.196 275.989 578.614 276.635 575.49 276.635Z" fill="#C8102E"/>
<path d="M541.019 276.635C538.145 276.635 535.563 275.989 533.273 274.698C530.982 273.366 529.171 271.45 527.838 268.951C526.505 266.453 525.839 263.433 525.839 259.893C525.839 256.312 526.505 253.292 527.838 250.835C529.212 248.337 531.045 246.442 533.335 245.151C535.626 243.86 538.187 243.214 541.019 243.214C544.142 243.214 546.933 243.922 549.39 245.338C551.889 246.712 553.846 248.649 555.262 251.148C556.678 253.646 557.386 256.562 557.386 259.893C557.386 263.183 556.678 266.099 555.262 268.639C553.846 271.138 551.889 273.095 549.39 274.511C546.933 275.927 544.142 276.635 541.019 276.635ZM524.09 276.323V229.971H528.525V253.209L527.9 259.831L528.338 266.453V276.323H524.09ZM540.707 272.699C543.039 272.699 545.121 272.179 546.953 271.138C548.786 270.055 550.244 268.556 551.326 266.64C552.409 264.683 552.95 262.434 552.95 259.893C552.95 257.311 552.409 255.062 551.326 253.147C550.244 251.231 548.786 249.753 546.953 248.711C545.121 247.629 543.039 247.087 540.707 247.087C538.374 247.087 536.271 247.629 534.397 248.711C532.565 249.753 531.107 251.231 530.024 253.147C528.983 255.062 528.463 257.311 528.463 259.893C528.463 262.434 528.983 264.683 530.024 266.64C531.107 268.556 532.565 270.055 534.397 271.138C536.271 272.179 538.374 272.699 540.707 272.699Z" fill="#C8102E"/>
<path d="M498.292 276.635C495.127 276.635 492.275 275.927 489.734 274.511C487.235 273.053 485.257 271.075 483.8 268.576C482.342 266.036 481.613 263.141 481.613 259.893C481.613 256.603 482.342 253.709 483.8 251.21C485.257 248.711 487.235 246.754 489.734 245.338C492.233 243.922 495.086 243.214 498.292 243.214C501.541 243.214 504.414 243.922 506.913 245.338C509.454 246.754 511.432 248.711 512.848 251.21C514.305 253.709 515.034 256.603 515.034 259.893C515.034 263.141 514.305 266.036 512.848 268.576C511.432 271.075 509.454 273.053 506.913 274.511C504.373 275.927 501.499 276.635 498.292 276.635ZM498.292 272.699C500.666 272.699 502.769 272.179 504.602 271.137C506.434 270.055 507.871 268.555 508.912 266.64C509.995 264.682 510.536 262.433 510.536 259.893C510.536 257.311 509.995 255.062 508.912 253.146C507.871 251.231 506.434 249.752 504.602 248.711C502.769 247.628 500.687 247.087 498.355 247.087C496.023 247.087 493.94 247.628 492.108 248.711C490.276 249.752 488.818 251.231 487.735 253.146C486.652 255.062 486.111 257.311 486.111 259.893C486.111 262.433 486.652 264.682 487.735 266.64C488.818 268.555 490.276 270.055 492.108 271.137C493.94 272.179 496.002 272.699 498.292 272.699Z" fill="#C8102E"/>
<path d="M468.148 276.323V229.971H472.584V276.323H468.148Z" fill="#C8102E"/>
<path d="M439.948 276.697C436.616 276.697 433.534 276.155 430.702 275.072C427.912 273.948 425.476 272.386 423.393 270.387C421.353 268.388 419.749 266.035 418.583 263.328C417.459 260.621 416.896 257.664 416.896 254.458C416.896 251.251 417.459 248.294 418.583 245.587C419.749 242.88 421.373 240.527 423.456 238.528C425.538 236.529 427.974 234.988 430.765 233.905C433.597 232.781 436.678 232.219 440.01 232.219C443.342 232.219 446.382 232.739 449.13 233.78C451.921 234.822 454.295 236.404 456.252 238.528L453.378 241.464C451.546 239.632 449.526 238.32 447.319 237.529C445.112 236.737 442.738 236.342 440.197 236.342C437.49 236.342 434.992 236.8 432.701 237.716C430.452 238.591 428.474 239.861 426.767 241.527C425.101 243.151 423.789 245.067 422.831 247.274C421.915 249.439 421.457 251.834 421.457 254.458C421.457 257.04 421.915 259.434 422.831 261.642C423.789 263.849 425.101 265.785 426.767 267.451C428.474 269.075 430.452 270.346 432.701 271.262C434.992 272.136 437.47 272.574 440.135 272.574C442.634 272.574 444.987 272.199 447.194 271.449C449.443 270.7 451.504 269.429 453.378 267.639L456.002 271.137C453.92 272.969 451.483 274.364 448.693 275.322C445.903 276.239 442.988 276.697 439.948 276.697ZM456.002 271.137L451.567 270.575V254.458H456.002V271.137Z" fill="#C8102E"/>
<path d="M424.476 86.5707L451.356 163.011L477.956 86.5707H498.256L460.596 185.971H441.976L404.176 86.5707H424.476ZM521.886 86.5707L548.766 163.011L575.366 86.5707H595.666L558.006 185.971H539.386L501.586 86.5707H521.886ZM716.305 174.771V185.971H648.825V86.5707H715.045V97.7707H661.425V129.971H708.045V140.471H661.425V174.771H716.305ZM736.391 185.971V86.5707H770.831C781.471 86.5707 790.338 88.8107 797.431 93.2907C804.618 97.6774 809.984 103.651 813.531 111.211C817.078 118.677 818.851 126.984 818.851 136.131C818.851 146.211 816.891 154.984 812.971 162.451C809.051 169.917 803.498 175.704 796.311 179.811C789.124 183.917 780.631 185.971 770.831 185.971H736.391ZM806.111 136.131C806.111 128.664 804.711 122.037 801.911 116.251C799.204 110.464 795.238 105.937 790.011 102.671C784.784 99.404 778.391 97.7707 770.831 97.7707H748.991V174.771H770.831C778.484 174.771 784.924 173.091 790.151 169.731C795.378 166.277 799.344 161.657 802.051 155.871C804.758 149.991 806.111 143.411 806.111 136.131ZM880.426 186.671C872.493 186.671 865.819 185.317 860.406 182.611C854.993 179.811 850.653 176.077 847.386 171.411C844.119 166.651 841.739 161.284 840.246 155.311C838.753 149.337 838.006 143.177 838.006 136.831V86.5707H850.606V136.831C850.606 141.684 851.073 146.444 852.006 151.111C853.033 155.684 854.666 159.791 856.906 163.431C859.146 167.071 862.179 169.964 866.006 172.111C869.833 174.257 874.593 175.331 880.286 175.331C886.073 175.331 890.879 174.257 894.706 172.111C898.533 169.871 901.566 166.931 903.806 163.291C906.046 159.557 907.633 155.404 908.566 150.831C909.593 146.257 910.106 141.591 910.106 136.831V86.5707H922.706V136.831C922.706 143.551 921.913 149.944 920.326 156.011C918.833 161.984 916.406 167.257 913.046 171.831C909.686 176.404 905.299 180.044 899.886 182.751C894.566 185.364 888.079 186.671 880.426 186.671ZM941.449 135.571C941.449 129.504 942.476 123.577 944.529 117.791C946.676 111.911 949.756 106.591 953.769 101.831C957.876 96.9774 962.869 93.1507 968.749 90.3507C974.629 87.4574 981.303 86.0107 988.769 86.0107C997.636 86.0107 1005.24 88.064 1011.59 92.1707C1017.94 96.184 1022.65 101.364 1025.73 107.711L1015.79 114.151C1013.83 109.951 1011.31 106.637 1008.23 104.211C1005.24 101.691 1001.98 99.9174 998.429 98.8907C994.976 97.864 991.569 97.3507 988.209 97.3507C982.703 97.3507 977.803 98.4707 973.509 100.711C969.309 102.951 965.763 105.937 962.869 109.671C959.976 113.404 957.783 117.604 956.289 122.271C954.889 126.844 954.189 131.464 954.189 136.131C954.189 141.264 955.029 146.211 956.709 150.971C958.483 155.731 960.909 159.931 963.989 163.571C967.069 167.211 970.709 170.104 974.909 172.251C979.109 174.397 983.683 175.471 988.629 175.471C992.083 175.471 995.629 174.864 999.269 173.651C1002.91 172.437 1006.32 170.571 1009.49 168.051C1012.66 165.437 1015.18 162.077 1017.05 157.971L1027.55 163.711C1025.5 168.657 1022.32 172.857 1018.03 176.311C1013.74 179.764 1008.93 182.377 1003.61 184.151C998.383 185.924 993.203 186.811 988.069 186.811C981.256 186.811 975.003 185.364 969.309 182.471C963.616 179.484 958.669 175.564 954.469 170.711C950.363 165.764 947.143 160.257 944.809 154.191C942.569 148.031 941.449 141.824 941.449 135.571ZM1074.99 86.5707H1085.63L1126.23 185.971H1112.79L1101.03 156.851H1059.31L1047.69 185.971H1034.25L1074.99 86.5707ZM1098.23 147.051L1080.31 101.131L1061.83 147.051H1098.23ZM1204.54 97.7707H1170.24V185.971H1157.64V97.7707H1123.34V86.5707H1204.54V97.7707ZM1221.66 185.971V86.5707H1234.26V185.971H1221.66ZM1301.15 186.671C1294.15 186.671 1287.8 185.271 1282.11 182.471C1276.41 179.671 1271.47 175.891 1267.27 171.131C1263.16 166.277 1259.99 160.864 1257.75 154.891C1255.51 148.824 1254.39 142.617 1254.39 136.271C1254.39 129.644 1255.55 123.344 1257.89 117.371C1260.31 111.304 1263.63 105.937 1267.83 101.271C1272.12 96.5107 1277.11 92.7774 1282.81 90.0707C1288.5 87.2707 1294.71 85.8707 1301.43 85.8707C1308.43 85.8707 1314.77 87.3174 1320.47 90.2107C1326.16 93.104 1331.06 96.9774 1335.17 101.831C1339.27 106.684 1342.45 112.097 1344.69 118.071C1346.93 124.044 1348.05 130.157 1348.05 136.411C1348.05 143.037 1346.88 149.384 1344.55 155.451C1342.21 161.424 1338.9 166.791 1334.61 171.551C1330.41 176.217 1325.46 179.904 1319.77 182.611C1314.07 185.317 1307.87 186.671 1301.15 186.671ZM1267.13 136.271C1267.13 141.311 1267.92 146.211 1269.51 150.971C1271.19 155.637 1273.52 159.791 1276.51 163.431C1279.49 167.071 1283.09 169.964 1287.29 172.111C1291.49 174.257 1296.15 175.331 1301.29 175.331C1306.61 175.331 1311.37 174.211 1315.57 171.971C1319.77 169.731 1323.31 166.744 1326.21 163.011C1329.19 159.277 1331.43 155.077 1332.93 150.411C1334.51 145.744 1335.31 141.031 1335.31 136.271C1335.31 131.231 1334.47 126.377 1332.79 121.711C1331.2 117.044 1328.87 112.891 1325.79 109.251C1322.8 105.517 1319.21 102.624 1315.01 100.571C1310.9 98.424 1306.33 97.3507 1301.29 97.3507C1295.97 97.3507 1291.21 98.4707 1287.01 100.711C1282.81 102.857 1279.21 105.797 1276.23 109.531C1273.33 113.264 1271.09 117.464 1269.51 122.131C1267.92 126.704 1267.13 131.417 1267.13 136.271ZM1380.95 109.811V185.971H1368.35V86.5707H1378.99L1439.75 164.271V86.7107H1452.35V185.971H1440.87L1380.95 109.811Z" fill="#1A3660"/>
</svg>
