<svg width="1777" height="321" viewBox="0 0 1777 321" fill="none" xmlns="http://www.w3.org/2000/svg">
<path d="M176.999 296.976C177.018 296.932 176.99 296.839 177.046 296.718C182.933 284.962 188.737 273.312 194.603 261.694C204.518 242.056 214.401 222.401 224.428 202.82C236.603 179.046 253.01 150.378 265.273 126.65H343.452C342.451 129.27 339.389 136.996 338.448 139.389C332.334 154.946 326.216 170.502 320.076 186.049C319.669 187.08 319.556 187.783 320.592 188.638C327.945 194.707 335.244 200.843 342.543 206.978L343.452 207.742C347.004 210.728 350.519 213.757 354.17 216.868C353.429 217.381 352.852 217.798 352.258 218.189C336.136 228.785 319.966 239.309 303.903 249.994C288.071 260.526 272.358 271.238 256.556 281.814C255.417 282.576 255.05 283.311 255.154 284.65C255.885 294.052 256.539 303.461 257.208 312.868C257.374 315.205 257.503 317.545 257.663 320.114C256.674 319.843 255.929 319.647 255.189 319.436C234.493 313.539 213.794 307.649 193.102 301.737C187.718 300.199 182.353 298.594 176.999 296.976Z" fill="#1A3660"/>
<path d="M88.8965 126.65C101.16 150.378 117.568 179.047 129.742 202.82C139.769 222.401 149.652 242.056 159.567 261.694C165.433 273.312 171.237 284.962 177.124 296.719C177.179 296.839 177.152 296.931 177.171 296.976C171.817 298.594 166.451 300.199 161.067 301.737C140.375 307.649 119.677 313.539 98.9805 319.436C98.2403 319.646 97.4961 319.843 96.5068 320.114C96.6674 317.545 96.7968 315.205 96.9629 312.868C97.6314 303.461 98.2851 294.053 99.0156 284.65C99.1196 283.312 98.7527 282.576 97.6143 281.814C81.8118 271.238 66.0993 260.526 50.2676 249.994C34.2046 239.308 18.033 228.785 1.91113 218.188C1.31724 217.798 0.740782 217.381 0 216.868C3.65044 213.758 7.16589 210.728 10.7178 207.742L11.627 206.978C18.9255 200.842 26.2247 194.707 33.5781 188.639C34.6145 187.783 34.5011 187.08 34.0938 186.049C27.9546 170.502 21.8361 154.946 15.7217 139.389C14.7808 136.995 11.7184 129.269 10.7178 126.65H88.8965ZM177.021 0C177.361 0.393217 177.787 0.739865 178.027 1.18652C186.855 17.5837 195.672 33.9876 204.477 50.3975C207.182 55.4401 209.846 60.5051 212.537 65.5557C212.794 66.0377 213.106 66.4904 213.44 67.0352C227.056 59.7142 251.56 52.4531 265.311 45.0596V126.457C264.667 126.457 253.012 126.457 252.357 126.457C244.005 126.456 235.652 126.538 227.302 126.394C225.219 126.357 224.289 127.079 223.438 128.891C213.639 149.763 203.767 170.602 193.884 191.436C188.547 202.685 183.151 213.907 177.778 225.139C177.611 225.488 177.397 225.816 177.133 225.927C177.102 225.393 177.092 224.915 177.089 224.466L177.091 223.174C177.091 224.016 177.071 224.859 177.066 225.861C175.393 222.69 173.641 219.392 172.047 216.02C159.599 189.688 147.18 163.342 134.759 136.997C133.325 133.957 131.893 130.914 130.546 127.835C130.07 126.748 129.428 126.4 128.264 126.407C119.756 126.461 111.247 126.444 102.738 126.448C101.97 126.449 89.7534 126.448 88.8965 126.448V45.0566C102.509 52.4274 127.393 59.7001 140.937 67.0332C152.914 44.714 164.87 22.4342 176.924 0.0771484C177.008 12.3111 177.045 24.5865 177.061 36.873C177.05 24.582 177.034 12.291 177.021 0Z" fill="#C8102E"/>
<path d="M439.356 98.1707L473.916 196.451L508.116 98.1707H534.216L485.796 225.971H461.856L413.256 98.1707H439.356ZM564.597 98.1707L599.157 196.451L633.357 98.1707H659.457L611.037 225.971H587.097L538.497 98.1707H564.597ZM814.565 211.571V225.971H727.805V98.1707H812.945V112.571H744.005V153.971H803.945V167.471H744.005V211.571H814.565ZM840.389 225.971V98.1707H884.669C898.349 98.1707 909.749 101.051 918.869 106.811C928.109 112.451 935.009 120.131 939.569 129.851C944.129 139.451 946.409 150.131 946.409 161.891C946.409 174.851 943.889 186.131 938.849 195.731C933.809 205.331 926.669 212.771 917.429 218.051C908.189 223.331 897.269 225.971 884.669 225.971H840.389ZM930.029 161.891C930.029 152.291 928.229 143.771 924.629 136.331C921.149 128.891 916.049 123.071 909.329 118.871C902.609 114.671 894.389 112.571 884.669 112.571H856.589V211.571H884.669C894.509 211.571 902.789 209.411 909.509 205.091C916.229 200.651 921.329 194.711 924.809 187.271C928.289 179.711 930.029 171.251 930.029 161.891ZM1025.58 226.871C1015.38 226.871 1006.8 225.131 999.837 221.651C992.877 218.051 987.297 213.251 983.097 207.251C978.897 201.131 975.837 194.231 973.917 186.551C971.997 178.871 971.037 170.951 971.037 162.791V98.1707H987.237V162.791C987.237 169.031 987.837 175.151 989.037 181.151C990.357 187.031 992.457 192.311 995.337 196.991C998.217 201.671 1002.12 205.391 1007.04 208.151C1011.96 210.911 1018.08 212.291 1025.4 212.291C1032.84 212.291 1039.02 210.911 1043.94 208.151C1048.86 205.271 1052.76 201.491 1055.64 196.811C1058.52 192.011 1060.56 186.671 1061.76 180.791C1063.08 174.911 1063.74 168.911 1063.74 162.791V98.1707H1079.94V162.791C1079.94 171.431 1078.92 179.651 1076.88 187.451C1074.96 195.131 1071.84 201.911 1067.52 207.791C1063.2 213.671 1057.56 218.351 1050.6 221.831C1043.76 225.191 1035.42 226.871 1025.58 226.871ZM1104.04 161.171C1104.04 153.371 1105.36 145.751 1108 138.311C1110.76 130.751 1114.72 123.911 1119.88 117.791C1125.16 111.551 1131.58 106.631 1139.14 103.031C1146.7 99.3107 1155.28 97.4507 1164.88 97.4507C1176.28 97.4507 1186.06 100.091 1194.22 105.371C1202.38 110.531 1208.44 117.191 1212.4 125.351L1199.62 133.631C1197.1 128.231 1193.86 123.971 1189.9 120.851C1186.06 117.611 1181.86 115.331 1177.3 114.011C1172.86 112.691 1168.48 112.031 1164.16 112.031C1157.08 112.031 1150.78 113.471 1145.26 116.351C1139.86 119.231 1135.3 123.071 1131.58 127.871C1127.86 132.671 1125.04 138.071 1123.12 144.071C1121.32 149.951 1120.42 155.891 1120.42 161.891C1120.42 168.491 1121.5 174.851 1123.66 180.971C1125.94 187.091 1129.06 192.491 1133.02 197.171C1136.98 201.851 1141.66 205.571 1147.06 208.331C1152.46 211.091 1158.34 212.471 1164.7 212.471C1169.14 212.471 1173.7 211.691 1178.38 210.131C1183.06 208.571 1187.44 206.171 1191.52 202.931C1195.6 199.571 1198.84 195.251 1201.24 189.971L1214.74 197.351C1212.1 203.711 1208.02 209.111 1202.5 213.551C1196.98 217.991 1190.8 221.351 1183.96 223.631C1177.24 225.911 1170.58 227.051 1163.98 227.051C1155.22 227.051 1147.18 225.191 1139.86 221.471C1132.54 217.631 1126.18 212.591 1120.78 206.351C1115.5 199.991 1111.36 192.911 1108.36 185.111C1105.48 177.191 1104.04 169.211 1104.04 161.171ZM1275.73 98.1707H1289.41L1341.61 225.971H1324.33L1309.21 188.531H1255.57L1240.63 225.971H1223.35L1275.73 98.1707ZM1305.61 175.931L1282.57 116.891L1258.81 175.931H1305.61ZM1442.3 112.571H1398.2V225.971H1382V112.571H1337.9V98.1707H1442.3V112.571ZM1464.31 225.971V98.1707H1480.51V225.971H1464.31ZM1566.51 226.871C1557.51 226.871 1549.35 225.071 1542.03 221.471C1534.71 217.871 1528.35 213.011 1522.95 206.891C1517.67 200.651 1513.59 193.691 1510.71 186.011C1507.83 178.211 1506.39 170.231 1506.39 162.071C1506.39 153.551 1507.89 145.451 1510.89 137.771C1514.01 129.971 1518.27 123.071 1523.67 117.071C1529.19 110.951 1535.61 106.151 1542.93 102.671C1550.25 99.0707 1558.23 97.2707 1566.87 97.2707C1575.87 97.2707 1584.03 99.1307 1591.35 102.851C1598.67 106.571 1604.97 111.551 1610.25 117.791C1615.53 124.031 1619.61 130.991 1622.49 138.671C1625.37 146.351 1626.81 154.211 1626.81 162.251C1626.81 170.771 1625.31 178.931 1622.31 186.731C1619.31 194.411 1615.05 201.311 1609.53 207.431C1604.13 213.431 1597.77 218.171 1590.45 221.651C1583.13 225.131 1575.15 226.871 1566.51 226.871ZM1522.77 162.071C1522.77 168.551 1523.79 174.851 1525.83 180.971C1527.99 186.971 1530.99 192.311 1534.83 196.991C1538.67 201.671 1543.29 205.391 1548.69 208.151C1554.09 210.911 1560.09 212.291 1566.69 212.291C1573.53 212.291 1579.65 210.851 1585.05 207.971C1590.45 205.091 1595.01 201.251 1598.73 196.451C1602.57 191.651 1605.45 186.251 1607.37 180.251C1609.41 174.251 1610.43 168.191 1610.43 162.071C1610.43 155.591 1609.35 149.351 1607.19 143.351C1605.15 137.351 1602.15 132.011 1598.19 127.331C1594.35 122.531 1589.73 118.811 1584.33 116.171C1579.05 113.411 1573.17 112.031 1566.69 112.031C1559.85 112.031 1553.73 113.471 1548.33 116.351C1542.93 119.111 1538.31 122.891 1534.47 127.691C1530.75 132.491 1527.87 137.891 1525.83 143.891C1523.79 149.771 1522.77 155.831 1522.77 162.071ZM1669.11 128.051V225.971H1652.91V98.1707H1666.59L1744.71 198.071V98.3507H1760.91V225.971H1746.15L1669.11 128.051Z" fill="#1A3660"/>
</svg>
