<svg width="355" height="321" viewBox="0 0 355 321" fill="none" xmlns="http://www.w3.org/2000/svg">
<path d="M176.999 296.976C177.018 296.932 176.99 296.839 177.046 296.718C182.933 284.962 188.737 273.312 194.603 261.694C204.518 242.056 214.401 222.401 224.428 202.82C236.603 179.046 253.01 150.378 265.273 126.65H343.452C342.451 129.27 339.389 136.996 338.448 139.389C332.334 154.946 326.216 170.502 320.076 186.049C319.669 187.08 319.556 187.783 320.592 188.638C327.945 194.707 335.244 200.843 342.543 206.978L343.452 207.742C347.004 210.728 350.519 213.757 354.17 216.868C353.429 217.381 352.852 217.798 352.258 218.189C336.136 228.785 319.966 239.309 303.903 249.994C288.071 260.526 272.358 271.238 256.556 281.814C255.417 282.576 255.05 283.311 255.154 284.65C255.885 294.052 256.539 303.461 257.208 312.868C257.374 315.205 257.503 317.545 257.663 320.114C256.674 319.843 255.929 319.647 255.189 319.436C234.493 313.539 213.794 307.649 193.102 301.737C187.718 300.199 182.353 298.594 176.999 296.976Z" fill="#1A3660"/>
<path d="M88.8965 126.65C101.16 150.378 117.568 179.047 129.742 202.82C139.769 222.401 149.652 242.056 159.567 261.694C165.433 273.312 171.237 284.962 177.124 296.719C177.179 296.839 177.152 296.931 177.171 296.976C171.817 298.594 166.451 300.199 161.067 301.737C140.375 307.649 119.677 313.539 98.9805 319.436C98.2403 319.646 97.4961 319.843 96.5068 320.114C96.6674 317.545 96.7968 315.205 96.9629 312.868C97.6314 303.461 98.2851 294.053 99.0156 284.65C99.1196 283.312 98.7527 282.576 97.6143 281.814C81.8118 271.238 66.0993 260.526 50.2676 249.994C34.2046 239.308 18.033 228.785 1.91113 218.188C1.31724 217.798 0.740782 217.381 0 216.868C3.65044 213.758 7.16589 210.728 10.7178 207.742L11.627 206.978C18.9255 200.842 26.2247 194.707 33.5781 188.639C34.6145 187.783 34.5011 187.08 34.0938 186.049C27.9546 170.502 21.8361 154.946 15.7217 139.389C14.7808 136.995 11.7184 129.269 10.7178 126.65H88.8965ZM177.021 0C177.361 0.393217 177.787 0.739865 178.027 1.18652C186.855 17.5837 195.672 33.9876 204.477 50.3975C207.182 55.4401 209.846 60.5051 212.537 65.5557C212.794 66.0377 213.106 66.4904 213.44 67.0352C227.056 59.7142 251.56 52.4531 265.311 45.0596V126.457C264.667 126.457 253.012 126.457 252.357 126.457C244.005 126.456 235.652 126.538 227.302 126.394C225.219 126.357 224.289 127.079 223.438 128.891C213.639 149.763 203.767 170.602 193.884 191.436C188.547 202.685 183.151 213.907 177.778 225.139C177.611 225.488 177.397 225.816 177.133 225.927C177.102 225.393 177.092 224.915 177.089 224.466L177.091 223.174C177.091 224.016 177.071 224.859 177.066 225.861C175.393 222.69 173.641 219.392 172.047 216.02C159.599 189.688 147.18 163.342 134.759 136.997C133.325 133.957 131.893 130.914 130.546 127.835C130.07 126.748 129.428 126.4 128.264 126.407C119.756 126.461 111.247 126.444 102.738 126.448C101.97 126.449 89.7534 126.448 88.8965 126.448V45.0566C102.509 52.4274 127.393 59.7001 140.937 67.0332C152.914 44.714 164.87 22.4342 176.924 0.0771484C177.008 12.3111 177.045 24.5865 177.061 36.873C177.05 24.582 177.034 12.291 177.021 0Z" fill="#C8102E"/>
</svg>
