<svg width="1918" height="698" viewBox="0 0 1918 698" fill="none" xmlns="http://www.w3.org/2000/svg">
<path d="M567.365 345.83C580.175 291.421 624.708 254.967 674.44 249.031C676.746 240.964 678.632 232.544 681.566 224.506C686.799 210.172 692.499 195.998 698.389 181.919C699.795 178.56 699.754 176.286 697.712 173.309C684.414 153.925 678.687 132.347 681.188 109.046C683.322 89.1627 691.102 71.2661 703.44 55.4461C719.453 34.915 740.966 23.0034 766.092 18.8066C788.095 15.1317 809.425 19.5395 828.589 31.5492C834.877 35.4897 840.322 40.7549 846.406 45.0553C848.155 46.292 850.997 47.1582 852.988 46.6929C869.117 42.9229 885.029 38.1105 901.266 34.9475C922.185 30.8726 943.432 29.8547 964.696 32.2903C977.513 33.7582 990.271 35.7299 1003.09 37.1722C1005.1 37.3979 1008.12 36.6785 1009.26 35.2605C1022.98 18.2577 1040.9 7.91365 1061.71 2.7062C1089.53 -4.25392 1114.84 2.52892 1137.38 19.4042C1159.55 36.0081 1172.82 58.6573 1176.65 85.9113C1179.01 102.748 1177 119.725 1169.85 136.215C1173.84 133.849 1177.82 131.469 1181.82 129.121C1192.26 122.991 1202.48 116.419 1213.23 110.907C1220.88 106.986 1229.36 106.443 1237.99 108.456C1268.97 115.688 1300 122.718 1331.02 129.832C1354.92 135.316 1378.77 141.062 1402.75 146.222C1420.94 150.136 1432.95 165.391 1432.03 183.553C1431.4 195.81 1430.75 208.067 1430 220.316C1429.82 223.229 1430.88 224.881 1433.51 226.135C1461.32 239.384 1476.1 262.941 1483.78 291.48C1492.17 322.654 1488.44 352.966 1475.1 382.218C1474.36 383.851 1473.85 385.59 1472.85 388.318C1475.53 388.318 1477.58 388.318 1479.63 388.318C1567.62 388.318 1655.62 388.277 1743.61 388.344C1769.42 388.364 1787.92 401.19 1801.49 422.251C1802.92 424.476 1804.22 426.786 1805.86 429.514C1810.29 427.597 1814.65 425.725 1819 423.83C1853.13 408.96 1888.08 424.197 1905.8 453.748C1913.65 466.829 1916.83 481.087 1916.94 496.05C1917.16 525.546 1916.95 555.045 1917.02 584.543C1917.06 601.847 1912.47 617.669 1902.33 631.764C1883.01 658.617 1849.32 669.592 1817.52 655.105C1814.21 653.596 1810.85 652.201 1807.49 650.743C1805.02 655.582 1803.02 660.507 1800.19 664.891C1786.82 685.547 1768.2 697.331 1743.12 697.333C1220.99 697.362 698.862 697.27 176.734 697.591C148.714 697.608 121.551 680.265 111.182 653.426C110.835 652.527 110.403 651.662 109.756 650.211C107.363 651.325 105.128 652.267 102.981 653.379C73.7522 668.519 42.7819 662.327 20.8914 639.45C9.79621 627.854 2.48129 613.823 1.06552 597.457C0.322526 588.868 0.13466 580.212 0.0925225 571.584C-0.0295705 546.586 -0.0243598 521.588 0.0702752 496.59C0.157807 473.468 7.36474 453.195 24.6714 437.201C44.555 418.825 70.786 412.909 96.3126 423.035C100.327 424.627 104.245 426.467 108.179 428.256C110.723 429.413 112.229 428.996 113.651 426.243C124.423 405.381 141.436 392.818 164.578 388.702C167.01 388.269 169.548 388.333 172.037 388.332C301.361 388.314 430.685 388.314 560.008 388.312C562.13 388.312 564.251 388.312 566.808 388.312C564.311 373.843 564.332 360.005 567.365 345.83ZM1749.82 673.772C1749.82 673.772 1749.9 673.462 1750.63 673.609C1780.12 666.315 1790.14 645.527 1789.06 616.737C1802.78 622.862 1815.77 628.778 1828.86 634.474C1840.99 639.754 1853.22 639.596 1865.1 633.796C1884 624.565 1893.46 608.851 1893.77 588.192C1894.24 556.552 1893.91 524.9 1893.84 493.254C1893.83 490.107 1893.47 486.93 1892.95 483.819C1888.18 455.034 1858.66 430.949 1825.46 446.397C1816.11 450.748 1806.64 454.839 1797.2 459.008C1794.67 460.127 1792.08 461.098 1788.88 462.394C1788.88 459.808 1788.94 458.008 1788.87 456.214C1787.95 433.129 1768.8 412.833 1746.41 411.687C1697.25 411.646 1648.1 411.574 1598.94 411.57C1540.28 411.565 1481.62 411.618 1423.08 410.931C1426.32 408.346 1429.77 405.977 1432.79 403.144C1464.81 373.056 1474.84 318.449 1455.34 278.97C1445.55 259.154 1430.7 245.589 1407.61 243.293C1407.18 243.251 1406.8 242.818 1406.33 242.533C1407.23 222.848 1408.13 203.215 1409.01 183.581C1409.35 175.775 1406.01 170.897 1399.31 169.391C1344.7 157.133 1290.08 144.966 1235.52 132.532C1227.99 130.815 1221.73 131.919 1215.18 136.042C1197.76 147.021 1179.99 157.468 1162.51 168.04C1156.73 160.069 1151.49 152.155 1145.49 144.866C1142.63 141.394 1142.23 139.226 1144.45 135.142C1156.67 112.715 1158.99 89.4092 1147.17 66.2341C1134.1 40.6295 1113.27 24.9192 1083.91 24.2214C1055.18 23.5387 1033.47 36.8315 1019.03 61.769C1018.55 62.606 1017.97 63.3877 1017.37 64.2895C988.272 56.6311 958.872 53.6959 929.039 55.6307C899.069 57.5743 870.214 64.454 842.693 76.1869C812.433 33.217 762.321 33.5893 732.21 58.7605C704.148 82.2189 687.548 131.827 728.694 174.819C710.375 204.398 699.588 236.893 693.613 271.462C692.054 271.462 690.759 271.473 689.465 271.46C644.967 270.993 605.176 299.742 592.449 342.416C585.364 366.175 586.358 389.23 602.569 409.749C602.932 410.208 602.935 410.951 602.164 411.462C459.699 411.49 317.235 411.516 174.77 411.563C173.128 411.564 171.486 411.834 169.01 411.811C159.088 413.026 150.439 417.057 143.286 423.993C132.593 434.364 127.779 447.253 128.072 462.697C114.254 456.585 101.256 450.193 87.7554 445.142C81.2785 442.719 73.7106 441.384 66.8828 442.056C42.4393 444.461 23.4468 466.144 23.1337 491.814C22.7337 524.616 22.731 557.431 23.1228 590.234C23.4706 619.352 50.5727 642.299 78.6161 637.246C85.6788 635.973 92.3953 632.494 99.1116 629.653C108.7 625.596 118.141 621.192 128.176 616.699C128.176 621.199 128.124 624.851 128.184 628.501C128.542 650.416 146.47 671.131 167.496 673.685C168.007 673.894 168.517 674.104 169.213 675.108C171.543 675.517 173.872 676.284 176.202 676.284C698.413 676.336 1220.62 676.333 1742.83 676.331C1744.5 676.331 1746.22 676.549 1747.81 676.205C1748.62 676.029 1749.21 674.824 1749.82 673.772Z" fill="#F3DEC7"/>
<path d="M603.107 411.562C602.935 410.952 602.932 410.209 602.569 409.75C586.358 389.231 585.364 366.176 592.449 342.417C605.176 299.743 644.967 270.994 689.465 271.461C690.759 271.474 692.054 271.463 693.613 271.463C699.588 236.894 710.375 204.399 728.694 174.82C687.548 131.828 704.148 82.2199 732.21 58.7615C762.321 33.5903 812.433 33.2179 842.693 76.1879C870.214 64.455 899.069 57.5753 929.039 55.6316C958.872 53.6968 988.272 56.632 1017.37 64.2904C1017.97 63.3887 1018.55 62.6069 1019.03 61.7699C1033.47 36.8324 1055.18 23.5396 1083.91 24.2223C1113.27 24.9201 1134.1 40.6304 1147.17 66.235C1158.99 89.4101 1156.67 112.715 1144.45 135.143C1142.23 139.227 1142.63 141.395 1145.49 144.867C1151.49 152.156 1156.73 160.07 1162.51 168.041C1179.99 157.469 1197.76 147.022 1215.18 136.043C1221.73 131.92 1227.99 130.816 1235.52 132.533C1290.08 144.967 1344.7 157.134 1399.31 169.392C1406.01 170.898 1409.35 175.776 1409.01 183.582C1408.13 203.216 1407.23 222.849 1406.33 242.534C1406.8 242.818 1407.18 243.252 1407.61 243.294C1430.7 245.59 1445.55 259.155 1455.34 278.971C1474.84 318.45 1464.81 373.057 1432.79 403.145C1429.77 405.978 1426.32 408.347 1423.18 411.645C1424.83 412.682 1426.38 413.288 1427.93 413.288C1532.67 413.334 1637.42 413.338 1742.16 413.279C1743.84 413.278 1745.51 412.458 1747.18 412.02C1768.8 412.834 1787.95 433.129 1788.87 456.215C1788.94 458.009 1788.88 459.809 1788.88 462.395C1792.08 461.099 1794.67 460.128 1797.2 459.009C1806.64 454.839 1816.11 450.749 1825.46 446.398C1858.66 430.95 1888.18 455.034 1892.95 483.82C1893.47 486.931 1893.83 490.108 1893.84 493.254C1893.91 524.901 1894.24 556.553 1893.77 588.193C1893.46 608.852 1884 624.566 1865.1 633.797C1853.22 639.597 1840.99 639.755 1828.86 634.475C1815.77 628.779 1802.78 622.863 1789.06 616.738C1790.14 645.527 1780.12 666.316 1750.1 673.223C1746.44 672.674 1743.32 672.368 1740.19 672.368C1217.85 672.346 695.504 672.345 173.161 672.388C171.112 672.389 169.063 673.048 167.014 673.399C146.47 671.132 128.542 650.417 128.184 628.502C128.124 624.852 128.176 621.2 128.176 616.7C118.141 621.193 108.7 625.597 99.1115 629.654C92.3953 632.495 85.6787 635.974 78.6161 637.247C50.5727 642.3 23.4705 619.353 23.1228 590.234C22.731 557.432 22.7337 524.617 23.1337 491.815C23.4468 466.145 42.4393 444.462 66.8828 442.057C73.7106 441.385 81.2785 442.72 87.7554 445.143C101.256 450.194 114.254 456.586 128.072 462.698C127.779 447.254 132.593 434.365 143.286 423.994C150.439 417.058 159.088 413.027 169.697 412.247C172.333 412.898 174.284 413.301 176.234 413.302C316.925 413.334 457.616 413.334 598.307 413.337C599.639 413.337 600.991 413.458 602.29 413.253C602.642 413.198 602.839 412.153 603.107 411.562ZM597.941 459.745C597.315 458.609 596.69 457.474 596.255 455.621C594.068 452.829 592.451 448.805 589.585 447.476C580.99 443.493 571.668 443.396 563.017 447.217C555.989 450.321 554.174 457.077 554.186 464.378C554.227 488.529 554.2 512.68 554.201 536.832C554.202 564.981 554.169 593.13 554.226 621.279C554.247 631.783 559.846 638.53 569.149 639.13C574.125 639.451 579.15 639.405 584.133 639.142C590.599 638.8 595.396 634.629 596.37 628.781C597.002 627.627 597.634 626.473 599.014 625.081C599.351 623.88 599.982 622.679 599.983 621.477C600.031 569.116 600.038 516.755 599.95 464.393C599.947 463.046 598.837 461.701 597.941 459.745ZM1282.14 157.347C1280.76 156.812 1279.43 156.085 1278 155.77C1261.92 152.223 1245.85 148.638 1229.71 145.371C1227.74 144.972 1225.14 145.922 1223.29 147.016C1208.24 155.892 1193.23 164.824 1178.36 173.989C1161.1 184.63 1143.99 195.523 1126.17 206.371C1124.72 207.936 1123.28 209.501 1121.35 211.77C1119.61 238.176 1117.91 264.584 1116.1 290.985C1113.98 321.868 1111.88 352.754 1109.46 383.614C1109.1 388.28 1110.5 389.654 1114.82 390.39C1164.05 398.765 1213.25 407.344 1262.46 415.793C1275.57 418.042 1288.71 420.031 1302.59 422.235C1304.4 421.679 1306.21 421.123 1308.67 420.316C1322.2 410.616 1335.79 400.989 1349.17 391.09C1350.37 390.201 1350.69 387.554 1350.69 385.723C1350.7 381.135 1349.5 376.403 1350.3 372.003C1350.97 368.275 1350.23 365.866 1348.18 363.002C1340.44 352.232 1340.48 337.943 1347.68 326.889C1348.65 325.388 1348.87 322.814 1348.38 321.031C1345.41 310.314 1347.01 300.078 1353.8 291.737C1357.97 286.604 1360.02 281.826 1361.17 275.336C1363.93 259.797 1374.55 250.547 1389.29 245.959C1392.04 245.1 1393.3 244.257 1393.44 241.062C1394.26 222.782 1395.39 204.517 1396.82 185.73C1397.57 182.489 1395.69 181.588 1392.19 181.291C1390.56 180.959 1388.93 180.642 1387.31 180.292C1365.9 175.687 1344.5 171.078 1322.35 166.192C1320.45 165.677 1318.56 165.075 1316.63 164.661C1305.39 162.245 1294.14 159.874 1282.14 157.347ZM1001.65 638.756C1003.11 638.81 1004.58 638.863 1006.94 639.09C1009.96 639.006 1012.99 638.922 1016.78 639.048C1020.63 637.391 1024.48 635.734 1028.89 633.74C1029.3 632.997 1029.7 632.253 1030.73 631.012C1031.21 628.428 1032.11 625.844 1032.11 623.258C1032.2 569.871 1032.21 516.483 1032.14 463.096C1032.13 460.507 1031.27 457.92 1030.75 454.658C1027.69 448.061 1022.42 444.99 1015.26 444.962C1012.76 444.953 1010.26 444.954 1007.77 444.965C995.607 445.02 989.032 451.607 989.026 463.804C989.013 492.092 989.026 520.38 989.025 548.669C989.024 573.296 988.992 597.924 989.029 622.551C989.042 631.406 993.344 636.964 1001.65 638.756ZM379.83 591.482C377.879 591.498 375.928 591.515 373.085 591.819C328.049 591.825 283.014 591.844 237.978 591.824C230.681 591.821 223.384 591.644 215.673 590.936C214.751 591.32 213.828 591.703 212.42 592.454C203.811 595.834 200.415 600.738 200.37 609.857C200.363 611.355 200.364 612.853 200.354 614.35C200.257 627.869 205.744 633.382 219.347 633.383C269.61 633.389 319.875 633.124 370.135 633.547C385.118 633.673 393.975 630.272 392.819 611.105C392.164 600.25 390.108 596.361 379.83 591.482ZM652.421 586.612C643.896 589.878 641.203 593.689 641.139 602.729C641.1 608.226 641.125 613.725 641.155 619.223C641.232 633.045 647.213 639.119 660.928 639.127C706.578 639.153 752.228 639.145 797.878 639.121C807.358 639.116 812.024 634.59 811.972 625.632C811.922 617.023 807.787 613.365 798.104 613.372C762.117 613.398 726.13 613.425 690.143 613.452C688.212 613.453 686.282 613.452 684.343 613.452C684.343 611.304 684.343 609.899 684.343 608.027C686.406 608.027 688.205 608.027 690.005 608.027C707.499 608.033 724.992 608.041 742.486 608.043C759.646 608.044 776.807 608.058 793.967 608.03C804.137 608.013 807.945 604.267 807.998 594.283C808.035 587.286 808.066 580.288 808.009 573.291C807.918 562.095 801.791 556.053 790.584 556.043C754.597 556.012 718.61 555.991 682.623 555.968C672.46 555.962 662.295 555.838 652.135 555.999C644.646 556.118 640.499 560.53 640.391 567.971C640.264 576.682 644.232 580.634 653.288 580.638C688.442 580.654 723.596 580.634 758.75 580.627C760.716 580.627 762.681 580.627 765.384 580.627C764.841 582.658 764.46 584.082 763.537 584.846C762.905 584.683 762.272 584.378 761.639 584.378C726.581 584.349 691.524 584.328 656.467 584.421C655.322 584.424 654.181 585.612 652.421 586.612ZM987.53 398.442C1024.75 398.442 1061.96 398.442 1100.4 398.442C1095.16 392.575 1096.51 386.736 1096.91 380.939C1098.11 363.679 1099.03 346.399 1100.27 329.142C1102.79 293.984 1105.46 258.836 1108.07 223.684C1109.85 199.688 1106.73 202.882 1128.34 189.637C1134.38 185.937 1140.29 182.031 1147.35 177.52C1138.2 166.45 1129.86 155.902 1120.97 145.832C1117.58 141.989 1117.68 139.33 1120.6 135.473C1124.19 130.735 1127.89 125.838 1130.23 120.439C1138.87 100.446 1137.22 81.1398 1123.16 64.1955C1109.11 47.2608 1090.98 39.6318 1068.9 45.3041C1052.61 49.4885 1040.94 59.7743 1034 75.032C1028.35 87.4644 1028.55 87.8083 1015.76 84.2239C987.896 76.418 959.498 73.6565 930.726 75.4199C900.878 77.2491 872.349 84.8876 844.962 96.8135C835.138 101.092 834.336 102.313 829.217 92.0695C828.623 90.8803 827.898 89.7548 827.207 88.6156C815.566 69.413 792.548 58.1188 772.052 61.5482C749.134 65.3829 730.203 83.0284 725.173 105.244C720.027 127.977 729.119 151.31 748.414 164.889C754.098 168.89 754.443 170.867 750.402 176.723C730.864 205.037 719.047 236.36 713.639 270.249C713.103 273.607 713.617 274.947 716.961 275.882C739.964 282.312 757.153 296.518 768.859 316.955C783.495 342.509 785.445 368.83 771.061 395.412C770.638 396.193 770.549 397.153 770.189 398.441C842.596 398.441 914.563 398.441 987.53 398.442ZM528.377 461.737C524.923 455.303 519.277 451.604 512.264 451.471C485.453 450.963 458.632 450.792 431.815 450.831C425.562 450.84 420.454 454.246 418.29 460.271C417.041 463.748 416.989 467.766 416.944 471.546C416.787 484.674 422.193 489.993 435.401 490.006C451.067 490.022 466.735 489.908 482.397 490.131C484.249 490.158 487.616 491.878 487.67 492.945C488.106 501.506 487.913 510.098 487.913 519.03C485.417 519.03 483.61 519.031 481.803 519.03C468.137 519.027 454.47 518.929 440.805 519.047C426.273 519.173 417.389 528.061 417.304 542.54C417.199 560.539 417.235 578.539 417.257 596.538C417.26 598.696 417.451 600.867 417.727 603.009C419.698 618.285 428.64 627.37 443.956 626.928C472.242 626.111 500.504 624.278 528.752 622.491C536.567 621.997 540.556 616.85 540.701 609.099C540.76 605.933 540.805 602.765 540.747 599.6C540.57 589.987 533.772 583.835 524.123 584.61C519.973 584.943 515.85 585.667 511.697 585.915C497.068 586.787 482.431 587.53 467.797 588.322C464.64 588.493 461.766 587.705 461.672 584.064C461.441 575.135 461.596 566.196 461.596 556.892C478.124 556.892 494.086 556.868 510.049 556.9C524.393 556.928 530.527 550.963 530.563 536.671C530.617 515.672 530.679 494.673 530.511 473.675C530.481 469.92 529.353 466.175 528.377 461.737ZM958.467 584.307C952.496 584.861 946.534 585.601 940.55 585.931C927.246 586.663 913.931 587.191 900.62 587.798C897.723 587.93 894.714 587.324 894.598 584.008C894.283 574.95 894.49 565.875 894.49 556.661C911.928 556.661 928.586 556.681 945.244 556.637C947.561 556.631 949.959 556.629 952.179 556.07C960.314 554.019 964.498 547.717 964.535 537.327C964.609 516.163 964.531 495 964.535 473.836C964.538 458.848 957.09 450.796 941.986 450.621C916.826 450.332 891.659 450.434 866.496 450.565C857.098 450.614 850.923 456.887 850.459 466.215C850.376 467.877 850.473 469.547 850.477 471.214C850.51 484.55 855.892 489.938 869.325 489.954C884.823 489.973 900.321 489.926 915.819 489.908C918.344 489.906 921.363 489.617 921.451 493.179C921.658 501.622 921.517 510.073 921.517 518.954C919.259 518.954 917.62 518.953 915.982 518.954C901.651 518.961 887.317 518.832 872.988 519.016C860.748 519.174 851.361 526.917 851.151 537.943C850.746 559.263 850.643 580.61 851.264 601.922C851.682 616.256 859.932 624.41 874.135 626.52C876.923 626.934 879.791 627.192 882.597 627.049C906.71 625.822 930.819 624.531 954.924 623.167C970.676 622.276 975.765 619.887 974.86 601.407C974.843 601.075 974.86 600.741 974.858 600.407C974.818 590.086 969.853 584.905 958.467 584.307ZM1546.73 514.547C1541.62 517.955 1536.65 521.585 1531.38 524.716C1524.04 529.075 1521.95 535.947 1526.3 543.344C1528.32 546.786 1530.43 550.207 1532.83 553.386C1539.17 561.768 1545.38 563.218 1554.51 558.043C1560.73 554.521 1566.81 550.66 1572.5 546.357C1578.56 541.78 1584.08 536.503 1589.49 531.826C1597.75 538.5 1605.66 545.371 1614.06 551.577C1627.33 561.379 1634.24 559.879 1642.99 546.039C1643.08 545.899 1643.21 545.773 1643.26 545.62C1645.67 537.568 1651.16 534.56 1659.28 535.83C1659.59 535.879 1659.94 535.781 1660.27 535.728C1663.69 535.186 1664.99 536.423 1664.88 540.074C1664.64 548.396 1664.68 556.733 1664.87 565.058C1665.08 574.014 1670.53 579.24 1679.42 579.337C1684.09 579.388 1688.75 579.424 1693.41 579.302C1700.41 579.119 1705.97 573.94 1705.99 567.004C1706.09 531.522 1706.08 496.04 1705.95 460.558C1705.93 454.4 1702.88 449.34 1697.14 447.138C1689.19 444.082 1680.8 444.143 1672.8 447.155C1667.14 449.282 1664.97 454.421 1664.3 460.233C1661.21 460.233 1658.55 460.236 1655.9 460.232C1653.06 460.228 1650.23 460.171 1647.4 460.218C1641.72 460.314 1637.41 463.317 1636.03 468.853C1635.23 472.02 1635.21 475.433 1635.21 478.735C1635.21 488.453 1639.95 493.141 1649.6 493.192C1654.53 493.218 1659.45 493.196 1664.46 493.196C1664.46 496.386 1664.46 498.773 1664.46 501.578C1658.59 501.578 1653.11 501.437 1647.63 501.613C1640.5 501.842 1636.6 505.696 1636.01 512.733C1635.92 513.785 1635.84 514.837 1635.75 515.889C1635.05 516.402 1634.35 516.915 1633.65 517.427C1629.1 512.155 1624.55 506.885 1620 501.611C1618.48 499.846 1616.98 498.064 1615.45 496.305C1612.38 492.77 1610.82 488.821 1611.03 483.986C1611.31 477.502 1611.15 470.994 1611.03 464.499C1610.86 454.51 1604.07 447.597 1594.05 447.212C1590.22 447.065 1586.38 447.161 1582.55 447.224C1573.69 447.37 1567.05 453.034 1565.78 461.895C1565.22 465.824 1564.89 469.888 1565.22 473.827C1566.62 490.608 1559.63 503.519 1546.73 514.547ZM649.222 395.3C647.318 388.331 646.036 381.343 648.022 374.134C648.955 370.752 650.917 368.57 654.474 369.58C658.172 370.629 657.989 373.657 657.385 376.929C655.35 387.951 660.579 399.429 669.609 404.314C678.892 409.336 691.469 407.808 699.087 400.973C701.498 398.81 701.773 396.871 701.157 393.635C699.994 387.52 699.541 381.189 699.604 374.957C699.638 371.608 701.653 368.11 705.959 369.013C709.976 369.856 709.797 373.005 709.174 376.557C706.855 389.767 714.411 401.826 726.36 403.905C734.527 405.326 741.646 402.176 747.247 396.565C761.062 382.725 763.999 365.579 760.434 347.127C754.567 316.757 727.5 290.876 689.438 290.482C652.857 290.103 618.721 315.826 609.648 351.38C605.867 366.195 605.99 381.17 615.158 394.638C622.77 405.82 638.468 408.727 647.388 400.509C648.504 399.481 648.787 397.55 649.222 395.3ZM1172.44 486.046C1156.95 486.041 1141.45 486.016 1125.95 486.037C1116.96 486.05 1113.82 489.313 1113.8 498.538C1113.78 507.509 1117.62 511.559 1126.29 511.582C1136.46 511.609 1146.62 511.548 1156.79 511.557C1157.95 511.559 1159.11 511.768 1161.02 511.954C1159.85 512.735 1159.48 513.159 1159.05 513.246C1147 515.643 1134.98 518.236 1122.87 520.253C1118.38 521 1114.34 522.126 1113.22 526.708C1110.71 536.992 1119.25 549.998 1129.81 548.334C1141.45 546.498 1153.26 545.134 1164.61 542.086C1183.39 537.04 1201.29 529.827 1214.64 514.589C1215.28 513.857 1216.57 513.294 1217.55 513.316C1226.52 513.526 1235.48 513.994 1244.45 514.135C1247.68 514.186 1248.97 515.338 1248.85 518.565C1248.69 522.891 1248.73 527.229 1248.81 531.559C1248.96 540.165 1253.97 545.236 1262.47 545.355C1267.3 545.423 1272.13 545.347 1276.96 545.273C1284.77 545.152 1290.02 540.419 1290.07 532.592C1290.24 508.433 1290.24 484.272 1290.05 460.114C1289.98 451.469 1283.67 445.583 1274.98 445.277C1271.49 445.154 1267.98 445.179 1264.49 445.214C1255.08 445.308 1248.88 451.441 1248.74 460.847C1248.67 465.845 1248.83 470.849 1248.62 475.838C1248.56 477.034 1247.45 479.173 1246.77 479.198C1239.87 479.449 1232.96 479.351 1225.91 479.351C1225.69 475.451 1225.41 472.302 1225.36 469.15C1225.17 456.526 1218.19 449.33 1205.6 449.039C1197.61 448.854 1189.62 448.758 1181.62 448.767C1163.48 448.787 1145.34 448.873 1127.2 448.986C1122.69 449.014 1118.99 450.932 1116.89 454.913C1113.75 460.854 1113.68 467.249 1116.52 473.19C1119.18 478.781 1124.77 479.267 1130.29 479.261C1145.95 479.243 1161.62 479.262 1177.28 479.291C1179.05 479.295 1180.82 479.458 1182.41 479.537C1183.99 484.384 1182.49 486.372 1177.91 486.028C1176.42 485.916 1174.91 486.031 1172.44 486.046ZM1196.53 582.309C1179.54 582.307 1162.55 582.213 1145.56 582.336C1134.89 582.413 1128.95 588.586 1128.91 599.25C1128.88 606.746 1128.64 614.255 1129 621.733C1129.16 624.93 1130.03 628.391 1131.59 631.161C1135.18 637.532 1141.55 639.097 1148.32 639.105C1191.29 639.153 1234.27 639.132 1277.25 639.101C1278.9 639.1 1280.57 638.914 1282.18 638.567C1289.88 636.912 1293.31 630.738 1292 621.093C1291.23 615.415 1285.96 611.572 1279.18 611.629C1273.69 611.674 1268.21 611.605 1262.72 611.605C1234.57 611.601 1206.42 611.604 1178.27 611.604C1176.32 611.604 1174.37 611.604 1172.21 611.604C1172.21 609.588 1172.21 608.206 1172.21 606.293C1174.46 606.293 1176.42 606.293 1178.38 606.293C1210.7 606.305 1243.01 606.323 1275.33 606.323C1284.85 606.323 1289.14 602.12 1289.17 592.742C1289.2 585.079 1289.18 577.416 1289.15 569.754C1289.09 556.122 1283.59 550.6 1270.05 550.584C1235.9 550.541 1201.76 550.514 1167.61 550.488C1158.78 550.481 1149.95 550.395 1141.12 550.541C1132.92 550.676 1128.06 555.376 1127.89 562.974C1127.65 573.339 1131.72 577.327 1142.33 577.316C1175.65 577.282 1208.96 577.298 1242.28 577.241C1245.49 577.236 1248.12 577.389 1246.28 582.307C1230.1 582.307 1213.81 582.307 1196.53 582.309ZM280.53 451.422C262.866 451.418 245.202 451.404 227.538 451.426C225.885 451.428 224.188 451.457 222.585 451.808C213.488 453.8 209.144 460.067 209.088 471.094C209.002 487.999 214.243 493.313 231 493.309C262.995 493.303 294.99 493.283 326.985 493.296C334.169 493.299 335.671 494.946 335.811 502.176C336.192 521.965 333.75 541.378 328.5 560.468C325.719 570.58 330.942 577.509 341.532 577.979C345.523 578.156 349.529 577.999 353.528 577.998C366.065 577.996 369.908 574.837 373.342 562.794C381.784 533.183 381.677 502.867 381.039 472.508C380.907 466.234 378.345 460.845 373.309 456.882C368.1 452.782 361.999 451.44 355.518 451.437C330.855 451.427 306.193 451.426 280.53 451.422ZM725.866 500.567C726.667 500.699 727.482 500.777 728.269 500.972C750.724 506.522 773.158 512.164 795.644 517.587C801.237 518.935 805.013 517.134 807.78 512.129C809.45 509.106 810.85 505.814 811.684 502.471C813.737 494.234 809.915 488.758 801.512 487.531C793.768 486.401 785.975 485.592 778.248 484.36C768.528 482.811 758.854 480.976 749.16 479.265C749.213 478.792 749.267 478.319 749.321 477.846C750.95 477.846 752.579 477.851 754.208 477.846C768.373 477.803 782.538 477.717 796.703 477.737C801.166 477.744 805.06 476.546 807.433 472.612C810.945 466.79 811.062 460.413 808.432 454.397C805.79 448.352 800.182 446.629 793.933 446.628C746.937 446.622 699.941 446.58 652.944 446.604C643.173 446.609 637.992 452.047 638.004 461.958C638.017 472.667 642.683 477.705 652.857 477.763C666.022 477.838 679.188 477.795 692.353 477.803C693.902 477.803 695.45 477.803 696.999 477.803C695.534 479.515 693.918 480.309 692.219 480.579C677.116 482.979 662.014 485.4 646.875 487.552C642.454 488.181 638.717 489.335 636.928 493.789C632.866 503.903 642.045 518.367 652.916 518.082C678.158 517.421 702.55 512.729 725.866 500.567ZM1382.43 268.236C1380.71 270.851 1378.72 273.331 1377.35 276.113C1375.32 280.196 1376.26 283.547 1380.85 285.225C1385.06 286.761 1389.49 287.825 1393.45 289.825C1395.41 290.813 1396.54 293.442 1398.04 295.328C1395.82 296.595 1393.51 299.021 1391.39 298.872C1387.69 298.613 1383.97 297.075 1380.51 295.516C1374.13 292.639 1371.13 293.126 1367.26 299.151C1365.49 301.904 1364.13 305.084 1363.32 308.258C1361.69 314.654 1364.42 319.974 1370.68 321.926C1375.37 323.386 1380.38 324.007 1385.3 324.494C1388.52 324.813 1391.72 324.967 1391.86 328.913C1392.01 333.061 1388.62 334.382 1385.33 334.064C1379.43 333.492 1373.61 332.176 1367.73 331.275C1366.25 331.047 1364.06 330.547 1363.28 331.298C1358.17 336.231 1356.92 342.454 1358.5 349.227C1359.98 355.556 1363.42 360.36 1370.33 361.093C1374.7 361.557 1379.21 360.778 1383.6 361.185C1385.68 361.379 1387.63 363.043 1389.64 364.041C1388.47 365.967 1387.72 368.878 1386.03 369.601C1383.1 370.858 1379.59 371.068 1376.32 371.15C1373.09 371.23 1369.85 370.605 1365.73 370.204C1365.73 373.581 1365.3 376.398 1365.8 379.04C1367.93 390.272 1378.9 398.72 1391.68 399.365C1408.31 400.205 1420.6 392.152 1429.88 379.488C1445.06 358.77 1449.84 335.13 1446.65 309.919C1444.82 295.419 1439.64 282.115 1428.8 271.747C1415.09 258.643 1396.25 257.101 1382.43 268.236ZM1395.34 518.61C1400.98 516.535 1403.09 512.207 1403.09 506.508C1403.07 492.849 1403.11 479.191 1403.05 465.533C1403 454.862 1397.48 449.135 1386.76 449.045C1369.61 448.9 1352.45 448.962 1335.3 449.049C1328.39 449.084 1323.56 452.641 1322.54 459.361C1320.68 471.703 1321.97 481.107 1339.38 481.183C1347.85 481.22 1356.31 481.189 1365.1 481.189C1365.31 484.106 1365.48 486.503 1365.69 489.487C1357.06 489.487 1348.95 489.382 1340.84 489.513C1329.83 489.691 1322.57 496.472 1322.36 507.008C1322.14 517.997 1322.09 528.999 1322.37 539.986C1322.67 552.044 1330.19 560.518 1341.38 560.134C1363.14 559.386 1384.88 557.823 1406.62 556.409C1411.27 556.106 1414.24 553.066 1415.18 548.545C1415.74 545.811 1415.75 542.93 1415.74 540.115C1415.7 530.752 1411.42 526.644 1402.17 527.171C1391.2 527.796 1380.25 528.689 1369.28 529.25C1360.57 529.695 1360.56 529.551 1361.3 520.665C1361.32 520.372 1361.59 520.099 1362.24 518.905C1372.68 518.905 1383.62 518.905 1395.34 518.61ZM1571.64 639.095C1575.97 639.087 1580.3 639.072 1584.63 639.072C1620.28 639.068 1655.93 639.081 1691.58 639.056C1703.89 639.048 1710.1 632.881 1710.13 620.768C1710.13 618.936 1710.14 617.103 1710.14 615.271C1710.15 603.382 1705.07 598.337 1693.09 598.338C1660.61 598.341 1628.12 598.337 1595.64 598.336C1593.88 598.336 1592.12 598.336 1589.95 598.336C1589.95 591.828 1590.02 586.026 1589.93 580.226C1589.79 570.344 1583.76 564.337 1574.01 564.271C1570.01 564.243 1566.01 564.219 1562.02 564.286C1553 564.436 1546.29 570.601 1546.13 579.502C1545.9 593.158 1545.9 606.824 1546.15 620.479C1546.33 630.216 1552.22 636.765 1561.74 638.394C1564.67 638.896 1567.69 638.875 1571.64 639.095ZM1374.75 605.038C1400.57 605.047 1426.39 605.043 1452.21 605.072C1458.12 605.079 1458.74 605.747 1458.78 611.726C1458.8 616.057 1458.76 620.389 1458.81 624.719C1458.9 633.84 1463.84 638.872 1473.05 639.128C1477.87 639.261 1482.71 639.242 1487.54 639.168C1497.06 639.023 1502.22 633.753 1502.26 624.121C1502.3 611.627 1502.28 599.133 1502.29 586.639C1502.29 573.985 1496.06 567.669 1483.23 567.666C1473.07 567.663 1462.91 568.068 1452.76 568.081C1419.29 568.121 1385.82 568.013 1352.35 568.075C1340.24 568.098 1335.17 573.951 1335.17 587.38C1335.16 599.448 1340.43 604.908 1352.35 605.037C1359.5 605.114 1366.65 605.04 1374.75 605.038ZM673.53 550.752C685.195 550.753 696.86 550.76 708.525 550.755C741.687 550.739 774.849 550.812 808.009 550.553C811.382 550.527 815.274 549.206 817.979 547.207C822.072 544.183 822.937 534.143 820.391 528.426C817.973 522.997 813.318 521.183 807.787 521.181C752.295 521.164 696.804 521.153 641.312 521.214C631.271 521.225 627.317 525.861 627.393 536.962C627.46 546.669 631.679 550.877 641.535 550.886C651.866 550.897 662.198 550.801 673.53 550.752ZM1452.78 560.016C1457.24 556.915 1459.12 552.709 1459.09 547.231C1458.97 520.271 1458.7 493.305 1459.15 466.352C1459.41 450.434 1454.85 443.729 1437.34 445.02C1427.96 445.712 1422.88 450.324 1422.72 459.709C1422.61 466.031 1422.57 472.361 1422.77 478.679C1422.87 481.887 1421.85 482.999 1418.54 483.086C1411.13 483.282 1407.32 487.191 1406.98 494.578C1406.79 498.729 1406.8 502.903 1406.98 507.056C1407.28 513.988 1411.39 518.31 1418.29 518.336C1422.28 518.351 1422.92 519.986 1422.85 523.439C1422.68 531.756 1422.78 540.082 1422.94 548.4C1423.07 554.83 1426.18 559.942 1431.87 560.599C1438.5 561.366 1445.32 560.523 1452.78 560.016ZM1465.72 479.838C1465.71 483.001 1465.71 486.164 1465.71 489.327C1465.71 508.47 1465.7 527.613 1465.7 546.756C1465.71 557.028 1470.01 561.398 1480.14 561.428C1482.47 561.435 1484.8 561.454 1487.13 561.5C1498.15 561.716 1502.32 557.699 1502.32 546.764C1502.33 522.96 1502.31 499.156 1502.29 475.352C1502.29 469.527 1502.47 463.691 1502.18 457.879C1501.78 449.968 1496.89 445.355 1489.04 445.113C1485.88 445.015 1482.71 445.057 1479.55 445.108C1471.15 445.242 1465.91 450.385 1465.74 458.863C1465.61 465.519 1465.72 472.18 1465.72 479.838ZM78.1189 561.925C74.5704 563.353 70.938 564.604 67.4903 566.244C59.6343 569.98 56.6488 579.004 60.2544 587.577C63.3474 594.931 70.6051 597.599 79.1279 594.102C93.2897 588.292 107.466 582.489 121.367 576.096C124.468 574.67 127.395 571.213 128.75 567.995C131.35 561.817 129.652 555.863 124.719 551.164C120.119 546.783 114.861 547.171 109.394 549.379C99.2167 553.49 89.0107 557.53 78.1189 561.925ZM126.711 505.307C124.402 503.758 122.267 501.8 119.753 500.728C106.297 494.988 92.7262 489.516 79.2341 483.858C70.9715 480.394 63.2601 483.048 60.0673 490.631C56.449 499.224 59.6897 508.386 67.7096 511.664C81.7125 517.389 95.7483 523.037 109.836 528.547C112.071 529.421 114.725 529.999 117.06 529.709C128.031 528.348 132.924 516.589 126.711 505.307ZM1791.9 525.957C1796.71 530.634 1802.09 530.659 1808 528.25C1821.39 522.796 1834.83 517.476 1848.27 512.174C1857.04 508.717 1860.82 500.012 1857.36 490.943C1854.34 483.018 1846.67 480.374 1837.51 484.134C1824.6 489.436 1811.7 494.762 1798.79 500.073C1787.13 504.873 1784.27 514.631 1791.9 525.957ZM1838.78 594.385C1847.68 597.17 1854.74 594.107 1857.44 586.284C1860.57 577.252 1857.11 569.183 1848.59 565.746C1835 560.269 1821.41 554.808 1807.8 549.375C1799.39 546.013 1791.9 548.88 1788.84 556.568C1785.46 565.079 1788.92 573.39 1797.07 576.797C1810.75 582.511 1824.37 588.345 1838.78 594.385Z" fill="#271C10"/>
<path d="M167.255 673.543C169.063 673.048 171.112 672.389 173.161 672.389C695.504 672.345 1217.85 672.346 1740.19 672.369C1743.32 672.369 1746.44 672.674 1749.74 673.15C1749.9 673.463 1749.82 673.773 1749.4 673.88C1746.48 674.093 1743.98 674.29 1741.49 674.29C1410.66 674.301 1079.83 674.293 749.006 674.294C555.68 674.295 362.354 674.307 169.028 674.315C168.517 674.105 168.007 673.896 167.255 673.543Z" fill="#271C10"/>
<path d="M169.12 674.712C362.354 674.308 555.68 674.295 749.006 674.294C1079.83 674.294 1410.66 674.301 1741.49 674.291C1743.98 674.29 1746.48 674.093 1749.43 674.037C1749.21 674.826 1748.62 676.031 1747.81 676.206C1746.22 676.551 1744.5 676.333 1742.83 676.333C1220.62 676.335 698.413 676.337 176.202 676.286C173.873 676.286 171.543 675.518 169.12 674.712Z" fill="#F3DEC7"/>
<path d="M602.635 411.512C602.839 412.152 602.642 413.197 602.29 413.253C600.99 413.458 599.639 413.336 598.307 413.336C457.616 413.333 316.925 413.333 176.234 413.301C174.284 413.301 172.333 412.897 170.113 412.33C171.486 411.834 173.128 411.564 174.77 411.563C317.235 411.516 459.699 411.49 602.635 411.512Z" fill="#271C10"/>
<path d="M1746.8 411.854C1745.51 412.458 1743.84 413.278 1742.16 413.279C1637.42 413.338 1532.67 413.334 1427.93 413.288C1426.38 413.287 1424.83 412.682 1423.13 412.002C1481.62 411.618 1540.28 411.566 1598.94 411.571C1648.1 411.575 1697.26 411.646 1746.8 411.854Z" fill="#271C10"/>
<path d="M987.03 398.441C914.563 398.441 842.596 398.441 770.189 398.441C770.549 397.153 770.638 396.193 771.061 395.412C785.445 368.83 783.495 342.509 768.859 316.955C757.153 296.518 739.964 282.312 716.961 275.882C713.617 274.947 713.103 273.607 713.639 270.249C719.047 236.36 730.864 205.037 750.402 176.723C754.443 170.867 754.098 168.89 748.414 164.889C729.119 151.31 720.027 127.977 725.174 105.244C730.203 83.0284 749.134 65.3829 772.052 61.5482C792.548 58.1188 815.566 69.413 827.207 88.6156C827.898 89.7548 828.623 90.8803 829.217 92.0695C834.336 102.313 835.138 101.092 844.962 96.8135C872.35 84.8876 900.878 77.2491 930.726 75.4199C959.498 73.6565 987.896 76.418 1015.76 84.2239C1028.55 87.8083 1028.35 87.4644 1034 75.032C1040.94 59.7743 1052.61 49.4885 1068.9 45.3041C1090.98 39.6319 1109.11 47.2608 1123.16 64.1955C1137.22 81.1398 1138.87 100.446 1130.23 120.439C1127.89 125.838 1124.19 130.735 1120.6 135.473C1117.68 139.33 1117.58 141.989 1120.97 145.832C1129.86 155.902 1138.2 166.45 1147.35 177.52C1140.29 182.031 1134.38 185.937 1128.34 189.637C1106.73 202.882 1109.85 199.688 1108.07 223.684C1105.46 258.836 1102.79 293.984 1100.27 329.142C1099.03 346.399 1098.11 363.679 1096.91 380.939C1096.51 386.736 1095.16 392.575 1100.4 398.442C1061.96 398.442 1024.75 398.442 987.03 398.441ZM878.021 306.668C883.565 346.501 915.102 371.534 954.35 366.23C981.822 362.517 1001.85 347.896 1010.64 320.994C1021.76 286.966 1006.55 246.183 976.515 226.623C955.212 212.749 929.6 213.624 910.031 229.799C886.281 249.43 876.022 275.121 878.021 306.668ZM803.024 116.483C802.186 107.211 790.409 98.9162 780.524 100.806C770.598 102.703 764.734 109.054 762.616 118.651C760.627 127.665 764.507 134.859 770.908 140.908C773.329 143.195 775.298 142.066 777.303 140.013C781.594 135.619 785.883 131.202 790.454 127.109C794.385 123.589 798.708 120.506 803.024 116.483ZM1067.21 84.9435C1065.14 87.7268 1062.93 90.4154 1061.05 93.3196C1059.1 96.3263 1059.95 98.6028 1063.35 99.9862C1072.68 103.777 1081.15 108.928 1088.36 116.031C1090.91 118.548 1093.08 118.281 1095.53 115.663C1102.05 108.685 1103.05 96.8876 1097.64 88.3127C1091.51 78.5978 1079.18 77.0229 1067.21 84.9435ZM869.186 259.242C877.94 251.628 879.644 235.765 872.706 226.475C866.805 218.575 857.534 218.233 851.002 225.673C845.115 232.379 844.606 244.912 849.857 253.864C854.252 261.354 860.473 263.272 869.186 259.242ZM1014.43 213.095C1006.5 220.657 1005.4 234.517 1011.89 244.258C1014.77 248.582 1018.65 251.424 1023.89 250.913C1029.26 250.39 1033.83 247.815 1036 242.522C1039.44 234.106 1039.54 225.638 1035.01 217.552C1030.65 209.761 1022.74 207.933 1014.43 213.095Z" fill="#A1673C"/>
<path d="M1301.84 422.139C1288.71 420.031 1275.57 418.042 1262.46 415.792C1213.25 407.344 1164.05 398.764 1114.82 390.389C1110.5 389.654 1109.1 388.28 1109.46 383.613C1111.88 352.753 1113.98 321.868 1116.1 290.985C1117.91 264.584 1119.61 238.175 1121.99 211.572C1143.27 215.347 1163.92 219.269 1184.55 223.349C1187.49 223.932 1190.29 225.283 1193.07 226.71C1192.3 235.291 1191.62 243.44 1190.91 251.777C1192.36 252.032 1193.15 252.143 1193.92 252.313C1199.96 253.64 1206 254.978 1211.86 256.606C1207.43 263.773 1203.17 270.645 1198.81 277.689C1194.87 275.232 1191.49 273.13 1187.4 270.582C1188.5 283.405 1189.5 295.017 1190.5 306.63C1190.04 306.799 1189.58 306.968 1189.12 307.137C1184.53 301.068 1179.93 294.999 1175.01 288.499C1172.83 291.999 1171.2 294.626 1169.62 297.167C1163.63 295.511 1158.07 293.974 1151.69 292.209C1152.27 297.362 1152.21 301.917 1153.39 306.126C1155.05 312.068 1153.55 315.756 1147.67 317.637C1147.45 317.707 1147.35 318.165 1146.94 318.916C1154.26 326.838 1161.49 335.074 1169.21 342.829C1172.99 346.632 1174.6 350.06 1171.48 354.918C1170.59 356.302 1170.37 358.117 1169.62 360.422C1180.82 360.422 1191.08 360.422 1201.6 360.422C1201.6 362.33 1201.69 363.78 1201.59 365.216C1201.04 372.676 1200.46 380.134 1199.87 387.592C1199.69 389.922 1199.74 392.084 1202.86 392.218C1206.03 392.354 1206.04 390.139 1206.21 387.84C1206.84 379.109 1207.59 370.387 1208.32 361.272C1218.42 363.68 1228.03 365.972 1237.55 368.244C1237.9 367.451 1238.1 367.167 1238.13 366.864C1238.18 366.373 1238.29 365.789 1238.09 365.385C1234.28 357.739 1239 353.938 1244.69 350.494C1246.39 349.463 1247.94 348.172 1249.55 346.997C1255.84 342.422 1262.13 337.846 1268.72 333.052C1267.64 332.144 1267.11 331.426 1266.41 331.152C1261.69 329.314 1261.54 326.189 1263.2 321.951C1265.11 317.049 1266.47 311.93 1268.21 306.481C1265.42 306.481 1263.23 306.16 1261.16 306.539C1253.44 307.947 1246.77 307.818 1245.62 297.49C1239.96 302.573 1234.39 307.575 1228.82 312.576C1228.38 312.279 1227.93 311.982 1227.49 311.685C1230.09 300.134 1232.68 288.584 1235.39 276.535C1232.04 277.338 1229.35 277.641 1226.94 278.641C1223.39 280.119 1221.82 278.823 1220.68 275.532C1218.44 269.091 1215.95 262.735 1214.04 256.281C1221.57 257.311 1228.62 258.404 1236.01 259.547C1236.76 250.517 1237.42 242.45 1238.49 234.43C1245.64 235.569 1252.4 236.662 1259.46 237.909C1263.18 238.806 1266.61 239.548 1270.43 240.369C1282.85 242.912 1294.86 245.556 1306.95 247.743C1311.17 248.507 1312.22 250.297 1311.94 254.382C1310.17 280.417 1308.57 306.464 1307.01 332.513C1305.23 362.385 1303.56 392.263 1301.84 422.139Z" fill="#DEAD7F"/>
<path d="M528.555 462.079C529.353 466.173 530.481 469.919 530.511 473.674C530.679 494.671 530.616 515.671 530.563 536.67C530.527 550.961 524.393 556.927 510.049 556.898C494.086 556.867 478.124 556.891 461.596 556.891C461.596 566.194 461.441 575.133 461.672 584.063C461.766 587.704 464.64 588.492 467.797 588.321C482.431 587.529 497.068 586.786 511.697 585.913C515.85 585.666 519.973 584.942 524.123 584.608C533.772 583.833 540.569 589.986 540.747 599.598C540.805 602.763 540.76 605.932 540.701 609.097C540.556 616.848 536.567 621.995 528.752 622.49C500.504 624.277 472.242 626.109 443.956 626.926C428.64 627.369 419.698 618.284 417.727 603.008C417.451 600.865 417.26 598.695 417.257 596.537C417.235 578.538 417.199 560.538 417.304 542.539C417.389 528.06 426.273 519.172 440.805 519.046C454.47 518.928 468.137 519.026 481.803 519.029C483.61 519.029 485.417 519.029 487.913 519.029C487.913 510.097 488.105 501.505 487.67 492.944C487.615 491.876 484.249 490.157 482.397 490.13C466.734 489.907 451.067 490.021 435.401 490.005C422.193 489.991 416.787 484.672 416.943 471.545C416.989 467.764 417.04 463.747 418.29 460.27C420.454 454.244 425.562 450.839 431.815 450.83C458.632 450.79 485.453 450.962 512.264 451.47C519.277 451.603 524.923 455.301 528.555 462.079Z" fill="white"/>
<path d="M958.921 584.276C969.853 584.903 974.818 590.084 974.858 600.406C974.86 600.739 974.843 601.073 974.86 601.406C975.765 619.886 970.676 622.275 954.924 623.166C930.819 624.529 906.71 625.821 882.597 627.048C879.791 627.191 876.923 626.933 874.135 626.518C859.932 624.408 851.683 616.254 851.264 601.92C850.643 580.609 850.746 559.262 851.151 537.941C851.361 526.915 860.748 519.173 872.988 519.015C887.317 518.83 901.651 518.96 915.982 518.953C917.62 518.952 919.259 518.953 921.517 518.953C921.517 510.072 921.658 501.621 921.451 493.178C921.363 489.616 918.344 489.904 915.819 489.907C900.321 489.925 884.823 489.971 869.325 489.953C855.892 489.937 850.51 484.549 850.477 471.212C850.473 469.546 850.376 467.876 850.459 466.214C850.923 456.886 857.098 450.612 866.496 450.564C891.659 450.433 916.826 450.33 941.986 450.62C957.09 450.794 964.538 458.846 964.535 473.835C964.532 494.998 964.609 516.162 964.535 537.325C964.498 547.716 960.314 554.017 952.179 556.068C949.959 556.628 947.561 556.63 945.244 556.636C928.586 556.68 911.928 556.659 894.49 556.659C894.49 565.873 894.283 574.949 894.598 584.006C894.714 587.322 897.723 587.928 900.62 587.796C913.931 587.19 927.246 586.662 940.55 585.929C946.534 585.6 952.496 584.859 958.921 584.276Z" fill="white"/>
<path d="M649.339 395.668C648.787 397.549 648.504 399.48 647.388 400.508C638.468 408.726 622.77 405.819 615.158 394.636C605.99 381.168 605.867 366.194 609.648 351.378C618.721 315.825 652.857 290.102 689.438 290.481C727.5 290.875 754.567 316.756 760.434 347.126C763.999 365.577 761.062 382.724 747.247 396.564C741.646 402.175 734.527 405.324 726.36 403.903C714.411 401.824 706.855 389.766 709.174 376.556C709.797 373.003 709.976 369.854 705.959 369.012C701.653 368.108 699.638 371.607 699.604 374.955C699.541 381.188 699.994 387.519 701.157 393.633C701.773 396.87 701.498 398.808 699.087 400.971C691.469 407.807 678.892 409.335 669.609 404.313C660.579 399.428 655.35 387.95 657.385 376.928C657.989 373.656 658.172 370.628 654.474 369.578C650.917 368.569 648.955 370.751 648.022 374.132C646.036 381.341 647.318 388.33 649.339 395.668Z" fill="#A1673C"/>
<path d="M764.08 585.505C764.46 584.081 764.841 582.657 765.384 580.627C762.681 580.627 760.716 580.626 758.75 580.627C723.596 580.633 688.442 580.654 653.288 580.638C644.232 580.634 640.264 576.681 640.391 567.97C640.499 560.53 644.646 556.117 652.135 555.998C662.295 555.837 672.46 555.961 682.623 555.968C718.61 555.991 754.597 556.011 790.584 556.042C801.792 556.052 807.918 562.095 808.009 573.29C808.066 580.287 808.035 587.285 807.998 594.282C807.945 604.267 804.137 608.012 793.967 608.029C776.807 608.057 759.647 608.044 742.486 608.042C724.992 608.04 707.499 608.032 690.005 608.027C688.205 608.026 686.406 608.027 684.343 608.027C684.343 609.898 684.343 611.303 684.343 613.451C686.282 613.451 688.212 613.453 690.143 613.451C726.13 613.425 762.117 613.397 798.104 613.371C807.787 613.364 811.922 617.023 811.972 625.631C812.025 634.59 807.358 639.115 797.879 639.12C752.228 639.144 706.578 639.153 660.928 639.126C647.213 639.119 641.233 633.044 641.155 619.222C641.125 613.724 641.1 608.226 641.139 602.728C641.203 593.688 643.896 589.877 653.198 586.445C655.965 586.173 657.954 585.977 659.943 585.976C691.025 585.964 722.108 585.992 753.19 585.963C756.82 585.959 760.45 585.665 764.08 585.505Z" fill="white"/>
<path d="M281.03 451.422C306.193 451.426 330.855 451.427 355.518 451.437C361.999 451.44 368.1 452.782 373.309 456.882C378.345 460.845 380.907 466.234 381.039 472.508C381.677 502.867 381.784 533.183 373.342 562.794C369.908 574.837 366.065 577.996 353.528 577.998C349.529 577.999 345.523 578.156 341.532 577.979C330.942 577.509 325.719 570.58 328.5 560.468C333.75 541.378 336.192 521.965 335.811 502.176C335.671 494.946 334.169 493.299 326.985 493.296C294.99 493.283 262.995 493.303 231 493.309C214.243 493.313 209.002 487.999 209.088 471.094C209.144 460.067 213.488 453.8 222.585 451.808C224.188 451.457 225.885 451.428 227.538 451.426C245.202 451.404 262.866 451.418 281.03 451.422Z" fill="white"/>
<path d="M725.52 500.713C702.55 512.728 678.158 517.42 652.916 518.081C642.045 518.366 632.866 503.902 636.928 493.788C638.717 489.334 642.454 488.18 646.875 487.551C662.014 485.399 677.116 482.978 692.219 480.578C693.918 480.308 695.534 479.514 696.999 477.802C695.451 477.802 693.902 477.802 692.353 477.802C679.188 477.794 666.022 477.837 652.857 477.762C642.683 477.704 638.017 472.667 638.004 461.957C637.992 452.046 643.173 446.608 652.945 446.603C699.941 446.579 746.937 446.621 793.933 446.627C800.182 446.628 805.79 448.351 808.432 454.396C811.062 460.412 810.946 466.789 807.433 472.611C805.06 476.545 801.167 477.743 796.703 477.736C782.538 477.716 768.373 477.802 754.208 477.845C752.579 477.85 750.95 477.845 749.321 477.845C749.267 478.318 749.214 478.791 749.16 479.264C758.854 480.975 768.528 482.81 778.248 484.359C785.975 485.591 793.768 486.4 801.512 487.53C809.916 488.757 813.738 494.233 811.684 502.47C810.85 505.813 809.45 509.105 807.78 512.128C805.013 517.133 801.237 518.935 795.644 517.586C773.158 512.163 750.725 506.521 728.269 500.971C727.483 500.776 726.667 500.698 725.52 500.713Z" fill="white"/>
<path d="M1382.69 267.983C1396.25 257.1 1415.09 258.642 1428.8 271.746C1439.64 282.114 1444.82 295.418 1446.65 309.918C1449.84 335.129 1445.06 358.769 1429.88 379.488C1420.6 392.151 1408.31 400.204 1391.68 399.364C1378.9 398.719 1367.93 390.271 1365.8 379.04C1365.3 376.398 1365.73 373.58 1365.73 370.203C1369.85 370.605 1373.09 371.229 1376.32 371.149C1379.59 371.067 1383.1 370.857 1386.03 369.6C1387.72 368.877 1388.47 365.966 1389.64 364.04C1387.63 363.042 1385.68 361.378 1383.6 361.184C1379.21 360.777 1374.7 361.556 1370.33 361.092C1363.42 360.359 1359.98 355.555 1358.5 349.226C1356.92 342.453 1358.17 336.23 1363.28 331.297C1364.06 330.546 1366.25 331.046 1367.73 331.274C1373.61 332.175 1379.43 333.491 1385.33 334.063C1388.62 334.381 1392.01 333.06 1391.86 328.912C1391.72 324.966 1388.52 324.812 1385.3 324.493C1380.38 324.006 1375.37 323.386 1370.68 321.925C1364.42 319.973 1361.69 314.653 1363.32 308.257C1364.13 305.083 1365.49 301.903 1367.26 299.15C1371.13 293.125 1374.13 292.638 1380.51 295.515C1383.97 297.074 1387.69 298.612 1391.39 298.871C1393.51 299.02 1395.82 296.594 1398.04 295.327C1396.54 293.441 1395.41 290.812 1393.45 289.824C1389.49 287.824 1385.06 286.76 1380.85 285.224C1376.26 283.546 1375.32 280.196 1377.35 276.113C1378.72 273.33 1380.71 270.85 1382.69 267.983Z" fill="#A1673C"/>
<path d="M1396.42 186.246C1395.39 204.517 1394.26 222.782 1393.44 241.062C1393.3 244.257 1392.04 245.1 1389.29 245.958C1374.55 250.546 1363.93 259.796 1361.17 275.336C1360.02 281.826 1357.97 286.604 1353.8 291.737C1347.01 300.078 1345.41 310.314 1348.38 321.03C1348.87 322.813 1348.65 325.388 1347.68 326.888C1340.48 337.943 1340.44 352.232 1348.18 363.002C1350.23 365.866 1350.97 368.275 1350.3 372.003C1349.5 376.403 1350.7 381.135 1350.69 385.723C1350.69 387.554 1350.37 390.201 1349.17 391.09C1335.79 400.989 1322.2 410.616 1308.34 419.959C1309.03 398.553 1310.04 377.504 1311.11 356.456C1311.35 351.657 1311.77 346.866 1312.12 342.072C1313.41 324.388 1314.84 306.712 1315.94 289.016C1316.58 278.742 1316.31 268.398 1317.24 258.158C1317.74 252.785 1316.62 246.627 1322.99 242.803C1328.92 239.24 1334.11 234.45 1339.68 230.27C1343.76 227.21 1347.93 224.265 1352.05 221.719C1352.05 234.071 1352.05 245.972 1352.05 258.597C1354.8 256.312 1357.42 254.371 1359.76 252.13C1361.69 250.275 1364.6 248.185 1364.8 245.992C1365.91 233.809 1366.32 221.563 1367.14 209.046C1377.02 201.251 1386.72 193.749 1396.42 186.246Z" fill="#B47C4E"/>
<path d="M216.086 591.549C223.384 591.645 230.681 591.822 237.978 591.825C283.014 591.845 328.049 591.826 373.894 591.799C376.475 591.916 378.246 592.054 380.017 592.192C390.108 596.362 392.164 600.251 392.819 611.105C393.975 630.273 385.118 633.674 370.135 633.547C319.875 633.125 269.61 633.39 219.347 633.384C205.743 633.383 200.257 627.87 200.354 614.351C200.364 612.854 200.363 611.356 200.37 609.858C200.415 600.739 203.811 595.835 213.07 592.278C214.509 591.917 215.297 591.733 216.086 591.549Z" fill="white"/>
<path d="M595.956 629.339C595.396 634.629 590.598 638.8 584.133 639.141C579.15 639.404 574.125 639.451 569.149 639.13C559.846 638.53 554.247 631.783 554.225 621.278C554.169 593.129 554.202 564.98 554.201 536.831C554.2 512.68 554.226 488.528 554.186 464.377C554.174 457.077 555.989 450.321 563.016 447.217C571.668 443.396 580.99 443.492 589.585 447.476C592.451 448.804 594.067 452.829 595.751 455.988C591.392 456.583 592.045 459.487 592.044 461.891C592.026 515.928 592.03 569.965 592.03 624.001C592.03 624.5 592.055 625 592.031 625.498C591.901 628.253 593.249 629.488 595.956 629.339Z" fill="white"/>
<path d="M1016.01 638.838C1012.99 638.922 1009.96 639.005 1006.47 638.644C1004.26 635.18 1002.6 635.192 1001.03 638.341C993.344 636.963 989.042 631.406 989.029 622.551C988.992 597.923 989.024 573.296 989.025 548.668C989.026 520.38 989.013 492.091 989.026 463.803C989.032 451.607 995.607 445.02 1007.77 444.964C1010.26 444.953 1012.76 444.952 1015.26 444.962C1022.42 444.989 1027.69 448.06 1030.39 454.994C1024.81 455.34 1025.02 459.007 1025.02 462.658C1025.04 515.794 1025.09 568.931 1024.93 622.067C1024.91 626.559 1025.9 629.714 1030.11 631.509C1029.7 632.253 1029.3 632.996 1028.44 633.545C1022.69 632.193 1018.1 634.296 1016.01 638.838Z" fill="white"/>
<path d="M1323.09 166.469C1344.5 171.077 1365.9 175.687 1387.31 180.291C1388.93 180.641 1390.56 180.958 1392.58 181.689C1392.81 182.375 1392.72 182.752 1392.49 182.935C1366.97 202.612 1341.45 222.297 1315.85 241.865C1314.77 242.689 1312.78 242.832 1311.34 242.586C1299.89 240.644 1288.48 238.531 1276.68 236.353C1271.22 235.251 1266.15 234.266 1260.82 233.096C1259.47 232.889 1258.33 233.047 1257.27 232.813C1252.21 231.691 1247.17 230.464 1242.1 228.926C1242.9 227.586 1243.56 226.384 1244.56 225.634C1262.18 212.414 1279.87 199.282 1297.49 186.057C1306.08 179.606 1314.56 173.003 1323.09 166.469Z" fill="#E0B083"/>
<path d="M673.03 550.752C662.198 550.801 651.866 550.897 641.535 550.886C631.679 550.877 627.46 546.669 627.393 536.963C627.317 525.861 631.271 521.225 641.312 521.214C696.804 521.153 752.295 521.164 807.787 521.181C813.318 521.183 817.973 522.997 820.391 528.426C822.937 534.143 822.072 544.183 817.979 547.207C815.274 549.206 811.382 550.527 808.009 550.553C774.849 550.813 741.687 550.739 708.525 550.755C696.86 550.761 685.195 550.753 673.03 550.752Z" fill="white"/>
<path d="M1126.82 206.307C1143.99 195.523 1161.1 184.629 1178.36 173.989C1193.23 164.824 1208.24 155.892 1223.29 147.016C1225.14 145.922 1227.74 144.972 1229.71 145.37C1245.85 148.637 1261.92 152.223 1278 155.77C1279.43 156.085 1280.76 156.811 1282.31 157.665C1281.34 158.651 1280.13 159.23 1279.06 159.999C1259.26 174.17 1239.44 188.327 1219.69 202.573C1212.07 208.075 1204.6 213.793 1196.61 219.439C1186.71 217.783 1177.23 216.199 1167.79 214.395C1154.12 211.782 1140.48 209.011 1126.82 206.307Z" fill="#DEAE80"/>
<path d="M1197.05 219.413C1204.6 213.793 1212.07 208.076 1219.69 202.573C1239.44 188.327 1259.26 174.171 1279.06 159.999C1280.13 159.231 1281.34 158.652 1282.69 157.736C1294.14 159.874 1305.39 162.245 1316.63 164.66C1318.56 165.075 1320.45 165.676 1322.72 166.331C1314.56 173.004 1306.08 179.607 1297.49 186.058C1279.87 199.283 1262.18 212.415 1244.56 225.635C1243.56 226.385 1242.9 227.587 1241.72 228.825C1235.73 227.818 1230.12 226.542 1224.49 225.319C1215.35 223.332 1206.2 221.38 1197.05 219.413Z" fill="#AF7749"/>
<path d="M1547.01 514.331C1559.63 503.519 1566.62 490.608 1565.22 473.827C1564.89 469.888 1565.22 465.824 1565.78 461.895C1567.05 453.035 1573.69 447.37 1582.55 447.224C1586.38 447.161 1590.22 447.065 1594.05 447.212C1604.07 447.598 1610.86 454.51 1611.03 464.499C1611.15 470.994 1611.31 477.502 1611.03 483.986C1610.82 488.822 1612.38 492.77 1615.45 496.305C1616.98 498.064 1618.48 499.847 1620 501.611C1624.55 506.885 1629.1 512.156 1633.65 517.428C1634.35 516.915 1635.05 516.402 1635.75 515.889C1635.84 514.838 1635.92 513.785 1636.01 512.734C1636.6 505.696 1640.5 501.842 1647.63 501.613C1653.11 501.437 1658.59 501.578 1664.46 501.578C1664.46 498.774 1664.46 496.386 1664.46 493.197C1659.45 493.197 1654.53 493.218 1649.6 493.192C1639.95 493.142 1635.21 488.453 1635.21 478.735C1635.21 475.433 1635.23 472.02 1636.03 468.853C1637.41 463.317 1641.72 460.314 1647.4 460.219C1650.23 460.171 1653.06 460.228 1655.9 460.233C1658.55 460.237 1661.21 460.233 1664.3 460.233C1664.97 454.421 1667.14 449.283 1672.8 447.155C1680.8 444.143 1689.19 444.082 1697.14 447.138C1702.88 449.341 1705.93 454.4 1705.95 460.558C1706.08 496.04 1706.09 531.523 1705.99 567.004C1705.97 573.94 1700.41 579.119 1693.41 579.303C1688.75 579.425 1684.09 579.389 1679.42 579.338C1670.53 579.241 1665.08 574.014 1664.87 565.058C1664.68 556.733 1664.64 548.396 1664.88 540.074C1664.99 536.424 1663.69 535.187 1660.27 535.729C1659.94 535.781 1659.59 535.88 1659.28 535.83C1651.16 534.56 1645.67 537.568 1643.26 545.62C1643.21 545.773 1643.08 545.899 1642.99 546.04C1634.24 559.879 1627.33 561.379 1614.06 551.578C1605.66 545.371 1597.75 538.5 1589.49 531.826C1584.08 536.503 1578.56 541.781 1572.5 546.357C1566.81 550.66 1560.73 554.521 1554.51 558.043C1545.38 563.218 1539.17 561.768 1532.83 553.387C1530.43 550.207 1528.32 546.786 1526.3 543.345C1521.95 535.948 1524.04 529.075 1531.38 524.716C1536.65 521.585 1541.62 517.955 1547.01 514.331Z" fill="#B77F4F"/>
<path d="M1172.93 486.044C1174.91 486.031 1176.42 485.916 1177.91 486.028C1182.49 486.372 1183.99 484.384 1182.41 479.537C1180.82 479.458 1179.05 479.295 1177.28 479.291C1161.62 479.262 1145.95 479.244 1130.29 479.261C1124.77 479.267 1119.18 478.781 1116.52 473.191C1113.68 467.249 1113.75 460.854 1116.89 454.914C1118.99 450.932 1122.69 449.014 1127.2 448.986C1145.34 448.873 1163.48 448.787 1181.62 448.767C1189.62 448.758 1197.61 448.854 1205.6 449.039C1218.19 449.33 1225.17 456.526 1225.36 469.15C1225.41 472.302 1225.69 475.451 1225.91 479.351C1232.96 479.351 1239.87 479.45 1246.77 479.198C1247.45 479.173 1248.56 477.034 1248.62 475.838C1248.83 470.849 1248.67 465.845 1248.74 460.848C1248.88 451.441 1255.08 445.308 1264.49 445.214C1267.98 445.179 1271.49 445.154 1274.98 445.277C1283.67 445.583 1289.97 451.469 1290.05 460.114C1290.24 484.272 1290.24 508.433 1290.07 532.592C1290.02 540.419 1284.77 545.152 1276.96 545.273C1272.13 545.347 1267.3 545.423 1262.47 545.355C1253.97 545.236 1248.96 540.165 1248.81 531.559C1248.73 527.229 1248.69 522.891 1248.85 518.565C1248.97 515.338 1247.68 514.187 1244.45 514.135C1235.48 513.994 1226.52 513.526 1217.55 513.316C1216.57 513.294 1215.28 513.857 1214.64 514.589C1201.29 529.828 1183.39 537.04 1164.61 542.086C1153.26 545.134 1141.45 546.498 1129.81 548.334C1119.25 549.998 1110.71 536.992 1113.22 526.708C1114.34 522.126 1118.38 521.001 1122.87 520.253C1134.98 518.236 1147 515.643 1159.05 513.246C1159.48 513.16 1159.85 512.735 1161.02 511.954C1159.11 511.768 1157.95 511.559 1156.79 511.558C1146.62 511.548 1136.46 511.609 1126.29 511.582C1117.62 511.559 1113.78 507.509 1113.8 498.538C1113.82 489.314 1116.96 486.05 1125.95 486.037C1141.45 486.016 1156.95 486.041 1172.93 486.044Z" fill="#B77F4F"/>
<path d="M1197.03 582.306C1213.81 582.305 1230.1 582.305 1246.28 582.305C1248.12 577.387 1245.49 577.234 1242.28 577.24C1208.96 577.297 1175.65 577.28 1142.33 577.315C1131.72 577.326 1127.65 573.337 1127.89 562.973C1128.06 555.375 1132.92 550.675 1141.12 550.539C1149.95 550.394 1158.78 550.48 1167.61 550.486C1201.76 550.512 1235.9 550.539 1270.05 550.582C1283.59 550.599 1289.09 556.12 1289.15 569.752C1289.18 577.415 1289.2 585.078 1289.17 592.74C1289.14 602.119 1284.85 606.322 1275.33 606.322C1243.01 606.321 1210.7 606.303 1178.38 606.292C1176.42 606.291 1174.46 606.292 1172.21 606.292C1172.21 608.204 1172.21 609.586 1172.21 611.602C1174.37 611.602 1176.32 611.602 1178.27 611.602C1206.42 611.602 1234.57 611.6 1262.72 611.603C1268.21 611.604 1273.69 611.673 1279.18 611.627C1285.96 611.571 1291.23 615.413 1292 621.091C1293.31 630.736 1289.88 636.91 1282.18 638.565C1280.57 638.912 1278.9 639.098 1277.25 639.1C1234.27 639.13 1191.29 639.151 1148.32 639.103C1141.55 639.096 1135.18 637.53 1131.59 631.159C1130.03 628.389 1129.16 624.928 1129 621.731C1128.64 614.253 1128.88 606.745 1128.91 599.249C1128.95 588.585 1134.89 582.411 1145.56 582.334C1162.55 582.211 1179.54 582.305 1197.03 582.306Z" fill="#B77F4F"/>
<path d="M1394.95 518.756C1383.62 518.904 1372.68 518.904 1362.24 518.904C1361.59 520.098 1361.32 520.371 1361.3 520.664C1360.56 529.549 1360.57 529.694 1369.28 529.249C1380.25 528.688 1391.2 527.795 1402.17 527.17C1411.42 526.643 1415.7 530.751 1415.74 540.114C1415.75 542.928 1415.74 545.809 1415.18 548.544C1414.24 553.064 1411.27 556.105 1406.62 556.408C1384.88 557.821 1363.14 559.385 1341.38 560.133C1330.19 560.517 1322.67 552.043 1322.37 539.984C1322.09 528.998 1322.14 517.996 1322.36 507.006C1322.57 496.471 1329.83 489.69 1340.84 489.512C1348.94 489.38 1357.06 489.486 1365.69 489.486C1365.48 486.502 1365.31 484.105 1365.1 481.188C1356.31 481.188 1347.85 481.219 1339.38 481.182C1321.97 481.106 1320.68 471.701 1322.54 459.359C1323.56 452.64 1328.39 449.083 1335.3 449.048C1352.45 448.96 1369.61 448.899 1386.76 449.044C1397.48 449.134 1403 454.86 1403.05 465.531C1403.11 479.189 1403.07 492.848 1403.08 506.506C1403.09 512.206 1400.98 516.534 1394.95 518.756Z" fill="#B77F4F"/>
<path d="M1571.16 639.096C1567.69 638.877 1564.67 638.897 1561.74 638.395C1552.22 636.766 1546.33 630.218 1546.15 620.48C1545.9 606.825 1545.9 593.159 1546.13 579.503C1546.29 570.602 1553 564.437 1562.02 564.287C1566.01 564.22 1570.01 564.245 1574.01 564.272C1583.76 564.339 1589.79 570.345 1589.93 580.227C1590.02 586.027 1589.95 591.829 1589.95 598.337C1592.12 598.337 1593.88 598.337 1595.64 598.337C1628.12 598.338 1660.61 598.342 1693.09 598.339C1705.07 598.338 1710.15 603.383 1710.14 615.272C1710.14 617.105 1710.13 618.937 1710.13 620.769C1710.1 632.882 1703.89 639.049 1691.58 639.058C1655.93 639.083 1620.28 639.069 1584.63 639.073C1580.3 639.074 1575.97 639.088 1571.16 639.096Z" fill="#B77F4F"/>
<path d="M1374.28 605.036C1366.65 605.04 1359.5 605.115 1352.35 605.037C1340.43 604.909 1335.16 599.448 1335.17 587.381C1335.17 573.951 1340.24 568.098 1352.35 568.076C1385.82 568.014 1419.29 568.122 1452.76 568.081C1462.91 568.069 1473.07 567.663 1483.23 567.666C1496.06 567.669 1502.29 573.985 1502.29 586.64C1502.28 599.133 1502.3 611.628 1502.26 624.121C1502.22 633.753 1497.06 639.023 1487.54 639.168C1482.71 639.242 1477.87 639.262 1473.05 639.128C1463.84 638.873 1458.9 633.84 1458.81 624.72C1458.76 620.389 1458.8 616.057 1458.78 611.726C1458.74 605.747 1458.12 605.079 1452.21 605.072C1426.39 605.044 1400.57 605.047 1374.28 605.036Z" fill="#B77F4F"/>
<path d="M1452.42 560.196C1445.32 560.522 1438.5 561.365 1431.87 560.598C1426.18 559.941 1423.07 554.829 1422.94 548.399C1422.78 540.081 1422.68 531.755 1422.85 523.438C1422.92 519.985 1422.28 518.35 1418.29 518.335C1411.39 518.309 1407.28 513.987 1406.98 507.055C1406.8 502.902 1406.79 498.729 1406.98 494.577C1407.32 487.19 1411.13 483.281 1418.54 483.085C1421.85 482.998 1422.87 481.886 1422.77 478.678C1422.57 472.36 1422.61 466.03 1422.72 459.708C1422.88 450.324 1427.96 445.711 1437.34 445.019C1454.85 443.728 1459.41 450.433 1459.15 466.351C1458.7 493.304 1458.97 520.27 1459.09 547.23C1459.12 552.708 1457.24 556.914 1452.42 560.196Z" fill="#B77F4F"/>
<path d="M1465.72 479.337C1465.72 472.179 1465.61 465.518 1465.74 458.862C1465.91 450.384 1471.15 445.241 1479.55 445.107C1482.71 445.056 1485.88 445.014 1489.04 445.112C1496.89 445.354 1501.78 449.967 1502.18 457.878C1502.47 463.689 1502.29 469.526 1502.29 475.351C1502.31 499.155 1502.33 522.959 1502.32 546.763C1502.32 557.698 1498.15 561.715 1487.13 561.499C1484.8 561.453 1482.47 561.434 1480.14 561.427C1470.01 561.397 1465.7 557.027 1465.7 546.755C1465.7 527.612 1465.71 508.469 1465.71 489.326C1465.71 486.163 1465.71 483 1465.72 479.337Z" fill="#B77F4F"/>
<path d="M78.4677 561.761C89.0106 557.529 99.2166 553.489 109.394 549.378C114.861 547.17 120.119 546.782 124.719 551.163C129.652 555.862 131.35 561.816 128.75 567.994C127.395 571.212 124.468 574.669 121.367 576.095C107.466 582.488 93.2896 588.291 79.1279 594.101C70.6051 597.598 63.3474 594.93 60.2543 587.576C56.6487 579.003 59.6343 569.979 67.4902 566.243C70.9379 564.603 74.5703 563.352 78.4677 561.761Z" fill="#B77F4F"/>
<path d="M126.933 505.61C132.924 516.588 128.031 528.347 117.06 529.708C114.724 529.997 112.071 529.42 109.836 528.546C95.7482 523.035 81.7125 517.388 67.7095 511.663C59.6896 508.384 56.4489 499.223 60.0672 490.63C63.26 483.047 70.9714 480.392 79.234 483.857C92.7261 489.515 106.297 494.987 119.753 500.726C122.267 501.798 124.402 503.757 126.933 505.61Z" fill="#B77F4F"/>
<path d="M1791.64 525.678C1784.27 514.63 1787.13 504.872 1798.79 500.072C1811.7 494.76 1824.6 489.435 1837.51 484.132C1846.67 480.373 1854.34 483.017 1857.36 490.942C1860.82 500.01 1857.04 508.715 1848.27 512.172C1834.83 517.474 1821.39 522.794 1808 528.249C1802.09 530.657 1796.71 530.632 1791.64 525.678Z" fill="#B77F4F"/>
<path d="M1838.4 594.258C1824.37 588.346 1810.75 582.512 1797.07 576.798C1788.92 573.391 1785.46 565.08 1788.84 556.569C1791.9 548.881 1799.39 546.014 1807.8 549.376C1821.41 554.809 1835 560.27 1848.59 565.748C1857.11 569.184 1860.57 577.254 1857.44 586.285C1854.74 594.108 1847.68 597.171 1838.4 594.258Z" fill="#B77F4F"/>
<path d="M1277.06 236.471C1288.48 238.532 1299.89 240.645 1311.34 242.587C1312.78 242.832 1314.77 242.69 1315.85 241.865C1341.45 222.298 1366.97 202.613 1392.49 182.936C1392.72 182.753 1392.81 182.376 1392.98 181.75C1395.69 181.588 1397.57 182.489 1396.62 185.988C1386.72 193.749 1377.02 201.252 1366.84 209.186C1361.6 213.501 1356.82 217.385 1352.05 221.269C1347.93 224.265 1343.76 227.21 1339.68 230.27C1334.11 234.45 1328.92 239.24 1322.99 242.804C1316.62 246.627 1317.74 252.785 1317.24 258.158C1316.31 268.398 1316.58 278.742 1315.94 289.017C1314.84 306.712 1313.41 324.388 1312.12 342.072C1311.77 346.867 1311.35 351.657 1311.11 356.457C1310.04 377.504 1309.03 398.554 1308.01 420.085C1306.21 421.123 1304.4 421.679 1302.22 422.187C1303.56 392.264 1305.23 362.385 1307.01 332.513C1308.57 306.464 1310.17 280.417 1311.94 254.383C1312.22 250.297 1311.17 248.507 1306.95 247.743C1294.86 245.557 1282.85 242.913 1270.49 240.033C1271.3 239.502 1272.58 239.677 1273.54 239.2C1274.84 238.551 1275.9 237.404 1277.06 236.471Z" fill="#865831"/>
<path d="M1030.42 631.262C1025.9 629.715 1024.91 626.56 1024.93 622.068C1025.09 568.932 1025.04 515.795 1025.02 462.659C1025.02 459.008 1024.81 455.341 1030.42 455.332C1031.27 457.92 1032.13 460.507 1032.14 463.096C1032.21 516.484 1032.2 569.871 1032.11 623.258C1032.11 625.844 1031.21 628.428 1030.42 631.262Z" fill="white"/>
<path d="M1196.61 219.438C1206.2 221.379 1215.35 223.331 1224.49 225.318C1230.12 226.541 1235.73 227.817 1241.73 229.171C1247.17 230.463 1252.21 231.691 1257.27 232.813C1258.33 233.047 1259.47 232.888 1260.62 233.393C1260.16 235.168 1259.66 236.461 1259.16 237.753C1252.4 236.661 1245.64 235.568 1238.1 234.361C1231.68 233.038 1226.08 231.657 1220.42 230.66C1211.36 229.065 1202.25 227.725 1193.15 226.277C1190.29 225.282 1187.49 223.931 1184.55 223.348C1163.92 219.268 1143.27 215.346 1122.23 211.219C1123.28 209.499 1124.72 207.935 1126.49 206.338C1140.48 209.01 1154.12 211.782 1167.79 214.394C1177.23 216.198 1186.71 217.782 1196.61 219.438Z" fill="#865932"/>
<path d="M596.163 629.06C593.249 629.488 591.901 628.254 592.031 625.498C592.055 625 592.03 624.5 592.03 624.002C592.03 569.965 592.026 515.928 592.044 461.891C592.045 459.487 591.392 456.583 595.656 456.348C596.69 457.474 597.315 458.609 598.003 460.303C597.988 461.022 597.909 461.183 597.451 461.456C596.725 462.767 596.075 463.965 596.073 465.164C596.023 516.878 596.016 568.592 596.105 620.305C596.107 621.649 597.23 622.991 597.955 624.573C598.141 624.981 598.203 625.15 598.266 625.319C597.634 626.473 597.002 627.627 596.163 629.06Z" fill="white"/>
<path d="M597.831 461.343C597.909 461.182 597.988 461.021 598.154 460.607C598.837 461.7 599.948 463.045 599.95 464.393C600.038 516.754 600.032 569.115 599.983 621.476C599.982 622.678 599.351 623.879 598.64 625.199C598.204 625.15 598.141 624.981 598.067 624.115C598.07 570.548 598.087 517.676 598.09 464.804C598.09 463.65 597.921 462.496 597.831 461.343Z" fill="#271C10"/>
<path d="M763.809 585.176C760.45 585.665 756.82 585.96 753.19 585.963C722.108 585.993 691.025 585.964 659.943 585.977C657.954 585.977 655.965 586.173 653.507 586.263C654.181 585.612 655.322 584.424 656.467 584.421C691.524 584.328 726.581 584.349 761.639 584.377C762.272 584.378 762.905 584.683 763.809 585.176Z" fill="#271C10"/>
<path d="M1016.39 638.943C1018.1 634.296 1022.69 632.193 1028.16 633.714C1024.48 635.733 1020.63 637.39 1016.39 638.943Z" fill="white"/>
<path d="M1001.34 638.55C1002.6 635.194 1004.26 635.181 1006.03 638.559C1004.58 638.864 1003.11 638.81 1001.34 638.55Z" fill="white"/>
<path d="M379.923 591.837C378.246 592.053 376.475 591.915 374.341 591.654C375.928 591.515 377.879 591.498 379.923 591.837Z" fill="#271C10"/>
<path d="M215.88 591.24C215.297 591.73 214.509 591.914 213.313 592.091C213.828 591.701 214.751 591.318 215.88 591.24Z" fill="#271C10"/>
<path d="M877.976 306.221C876.021 275.12 886.281 249.429 910.031 229.798C929.599 213.623 955.212 212.748 976.514 226.622C1006.55 246.182 1021.76 286.965 1010.64 320.993C1001.85 347.895 981.822 362.516 954.35 366.229C915.102 371.533 883.565 346.5 877.976 306.221ZM951.156 322.651C953.512 324.993 955.633 327.654 958.274 329.611C963.823 333.723 970.048 335.765 977.063 334.129C980.399 333.351 981.87 331.201 981.237 327.884C980.595 324.529 978.261 324.436 975.218 324.359C971.438 324.264 967.168 323.772 964.032 321.903C956.369 317.339 952.934 309.728 952.056 301.047C951.605 296.584 951.785 292.06 951.515 287.573C951.345 284.744 952.38 283.364 955.007 281.887C959.722 279.236 964.518 276.201 968.165 272.287C975.222 264.711 973.519 254.945 964.908 249.192C952.657 241.008 932.981 242.251 921.874 251.911C916.25 256.803 914.62 264.287 919.109 270.254C922.088 274.214 926.285 278.637 930.743 279.824C940.644 282.459 941.42 288.726 941.218 297.112C941.008 305.814 940.205 314.056 934.676 321.154C931.15 325.68 926.952 328.913 920.725 328.401C917.683 328.151 915.317 329.503 915.194 332.774C915.065 336.184 917.479 338.471 920.53 338.012C925.33 337.29 930.908 336.68 934.457 333.873C939.866 329.596 943.823 323.482 948.296 318.265C948.631 318.777 949.699 320.41 951.156 322.651Z" fill="white"/>
<path d="M802.941 116.856C798.708 120.506 794.385 123.589 790.454 127.108C785.883 131.201 781.594 135.619 777.303 140.013C775.298 142.066 773.329 143.195 770.908 140.908C764.507 134.859 760.627 127.665 762.616 118.651C764.734 109.054 770.598 102.703 780.524 100.806C790.409 98.916 802.186 107.21 802.941 116.856Z" fill="#271C10"/>
<path d="M1067.5 84.7226C1079.18 77.0225 1091.51 78.5975 1097.64 88.3124C1103.05 96.8873 1102.05 108.685 1095.53 115.662C1093.08 118.281 1090.91 118.548 1088.36 116.03C1081.15 108.927 1072.68 103.777 1063.35 99.9858C1059.95 98.6025 1059.1 96.326 1061.05 93.3193C1062.93 90.4151 1065.14 87.7265 1067.5 84.7226Z" fill="#271C10"/>
<path d="M868.847 259.427C860.473 263.271 854.252 261.353 849.857 253.863C844.606 244.911 845.115 232.378 851.002 225.672C857.534 218.232 866.805 218.574 872.706 226.474C879.644 235.764 877.94 251.627 868.847 259.427Z" fill="#271C10"/>
<path d="M1014.73 212.87C1022.74 207.932 1030.65 209.76 1035.01 217.551C1039.54 225.638 1039.44 234.106 1036 242.522C1033.83 247.814 1029.26 250.389 1023.89 250.913C1018.65 251.424 1014.77 248.582 1011.89 244.257C1005.4 234.517 1006.5 220.656 1014.73 212.87Z" fill="#271C10"/>
<path d="M1213.57 256.343C1215.95 262.734 1218.44 269.091 1220.68 275.532C1221.82 278.822 1223.39 280.119 1226.94 278.641C1229.35 277.64 1232.04 277.338 1235.39 276.534C1232.68 288.583 1230.09 300.134 1227.49 311.685C1227.93 311.982 1228.38 312.279 1228.82 312.576C1234.39 307.574 1239.96 302.573 1245.62 297.489C1246.77 307.818 1253.45 307.947 1261.16 306.538C1263.23 306.16 1265.43 306.481 1268.21 306.481C1266.47 311.93 1265.11 317.049 1263.2 321.95C1261.54 326.189 1261.69 329.314 1266.41 331.152C1267.11 331.426 1267.64 332.143 1268.72 333.052C1262.13 337.846 1255.84 342.422 1249.56 346.997C1247.94 348.172 1246.39 349.463 1244.69 350.493C1239 353.938 1234.28 357.738 1238.09 365.385C1238.29 365.789 1238.18 366.373 1238.13 366.863C1238.1 367.166 1237.9 367.451 1237.55 368.244C1228.03 365.972 1218.42 363.68 1208.32 361.272C1207.59 370.386 1206.84 379.109 1206.21 387.84C1206.04 390.139 1206.03 392.354 1202.86 392.218C1199.74 392.083 1199.69 389.921 1199.87 387.591C1200.46 380.134 1201.04 372.676 1201.59 365.215C1201.69 363.779 1201.6 362.329 1201.6 360.422C1191.08 360.422 1180.82 360.422 1169.62 360.422C1170.37 358.116 1170.59 356.301 1171.48 354.918C1174.61 350.059 1172.99 346.632 1169.21 342.829C1161.49 335.073 1154.26 326.837 1146.94 318.916C1147.35 318.164 1147.45 317.707 1147.67 317.637C1153.55 315.756 1155.05 312.068 1153.39 306.126C1152.21 301.917 1152.27 297.362 1151.69 292.208C1158.07 293.974 1163.63 295.51 1169.62 297.167C1171.2 294.626 1172.83 291.999 1175.01 288.499C1179.93 294.998 1184.53 301.068 1189.12 307.137C1189.58 306.968 1190.04 306.799 1190.5 306.63C1189.5 295.017 1188.5 283.404 1187.4 270.581C1191.49 273.13 1194.87 275.231 1198.81 277.688C1203.17 270.645 1207.43 263.772 1212.12 256.614C1212.89 256.333 1213.23 256.338 1213.57 256.343Z" fill="#AA412D"/>
<path d="M1214.04 256.281C1213.23 256.339 1212.89 256.334 1212.29 256.321C1206 254.979 1199.96 253.64 1193.92 252.314C1193.15 252.143 1192.36 252.033 1190.91 251.778C1191.62 243.44 1192.3 235.292 1193.07 226.711C1202.24 227.727 1211.35 229.067 1220.42 230.662C1226.08 231.659 1231.68 233.04 1237.7 234.316C1237.42 242.451 1236.76 250.518 1236.01 259.548C1228.62 258.404 1221.57 257.311 1214.04 256.281Z" fill="#A66F43"/>
<path d="M1259.46 237.91C1259.66 236.462 1260.16 235.17 1260.86 233.58C1266.15 234.267 1271.22 235.252 1276.68 236.355C1275.9 237.405 1274.84 238.552 1273.54 239.2C1272.58 239.677 1271.3 239.503 1270.1 239.955C1266.61 239.549 1263.18 238.807 1259.46 237.91Z" fill="#97663B"/>
<path d="M1352.05 221.718C1356.82 217.383 1361.6 213.5 1366.67 209.477C1366.32 221.562 1365.91 233.808 1364.8 245.991C1364.6 248.184 1361.69 250.274 1359.76 252.129C1357.42 254.37 1354.8 256.311 1352.05 258.596C1352.05 245.971 1352.05 234.07 1352.05 221.718Z" fill="#935F34"/>
<path d="M597.451 461.455C597.921 462.496 598.09 463.65 598.09 464.804C598.087 517.675 598.07 570.547 597.943 623.876C597.23 622.99 596.107 621.648 596.105 620.304C596.016 568.591 596.023 516.877 596.074 465.163C596.075 463.965 596.725 462.766 597.451 461.455Z" fill="white"/>
<path d="M950.962 322.347C949.699 320.41 948.631 318.776 948.296 318.265C943.823 323.482 939.866 329.595 934.457 333.873C930.909 336.68 925.33 337.29 920.53 338.012C917.48 338.47 915.065 336.184 915.194 332.774C915.318 329.503 917.683 328.151 920.725 328.401C926.952 328.913 931.15 325.68 934.676 321.154C940.205 314.056 941.009 305.814 941.218 297.112C941.42 288.726 940.644 282.459 930.743 279.824C926.285 278.637 922.088 274.214 919.109 270.254C914.62 264.286 916.25 256.803 921.875 251.911C932.982 242.251 952.657 241.008 964.909 249.192C973.52 254.944 975.223 264.711 968.165 272.287C964.519 276.201 959.723 279.236 955.007 281.887C952.38 283.364 951.345 284.744 951.515 287.573C951.785 292.06 951.605 296.583 952.056 301.047C952.935 309.728 956.369 317.339 964.032 321.903C967.169 323.771 971.438 324.264 975.218 324.359C978.262 324.436 980.596 324.529 981.237 327.884C981.871 331.201 980.399 333.351 977.064 334.129C970.048 335.765 963.823 333.723 958.275 329.611C955.633 327.654 953.513 324.993 950.962 322.347Z" fill="#271C10"/>
</svg>
