<svg width="1187" height="999" viewBox="0 0 1187 999" fill="none" xmlns="http://www.w3.org/2000/svg">
<path d="M1129.8 415.376C1126.29 433.156 1118.98 448.907 1109.22 464.532C1113.44 465.762 1117.31 466.924 1121.2 468.022C1153.01 477.008 1180.03 502.799 1185.54 538.276C1189.19 561.79 1183.78 583.52 1171.43 603.1C1158.69 623.293 1144.34 642.482 1130.37 661.882C1126.31 667.525 1124.25 673.57 1123.61 680.264C1122.8 688.844 1122.22 697.447 1121.39 706.026C1121.1 709.093 1122.01 710.716 1125.04 712.007C1138 717.544 1149.96 724.673 1159.35 735.487C1170.53 748.362 1177.55 763.017 1179.52 780.146C1182.01 801.705 1175.82 820.418 1162.16 836.938C1160.01 839.536 1159.37 841.821 1160.9 845.405C1171.07 869.359 1169.82 892.888 1155.82 914.907C1144.06 933.401 1127.08 945.104 1105.24 948.995C1089.5 951.799 1074.17 949.771 1059.17 944.469C1052.41 942.079 1052.36 942.176 1049.11 948.724C1034.74 977.666 1011.28 994.304 979.406 997.651C967.379 998.914 954.94 996.636 942.723 995.581C932.504 994.698 922.341 993.195 912.143 992.061C900.298 990.743 888.447 989.47 876.588 988.288C868.179 987.45 859.755 986.758 851.332 986.065C835.149 984.735 818.968 983.383 802.776 982.171C791.859 981.353 780.932 980.629 769.998 980.098C753.411 979.291 736.815 978.645 720.219 978.01C701.626 977.298 683.035 976.307 664.435 976.085C619.475 975.549 574.511 975.129 529.549 975.19C507.453 975.219 485.352 976.248 463.267 977.146C445.366 977.873 427.472 978.908 409.596 980.119C387.604 981.609 365.619 983.259 343.657 985.146C323.034 986.919 302.43 988.936 281.847 991.131C262.263 993.22 242.771 996.462 223.143 997.808C185.493 1000.39 149.655 980.608 135.611 943.255C135.383 942.648 135.133 942.049 134.684 940.921C129.059 942.531 123.601 944.393 118.006 945.642C94.1017 950.979 71.2188 948.721 50.9297 934.128C30.8938 919.717 19.8737 900.065 19.3442 874.917C19.0979 863.218 21.3026 852.182 26.0577 841.524C26.6458 840.206 26.1991 837.539 25.1945 836.532C13.1269 824.443 5.72867 809.945 3.77485 793.1C1.75644 775.697 5.93693 759.385 15.4629 744.652C18.6019 739.798 22.3416 735.276 26.2273 730.983C28.1911 728.813 28.2694 727.3 26.9288 724.923C16.0484 705.633 9.42429 684.824 4.99203 663.221C0.384821 640.766 -1.03259 617.979 0.736643 595.287C3.16796 564.102 12.9285 535.127 32.4384 510.119C52.9977 483.765 79.4836 467.658 113.132 463.944C134.519 461.583 155.833 458.563 177.219 456.196C192.532 454.502 207.913 453.427 223.257 452.009C226.054 451.751 228.82 451.173 232.204 450.649C232.287 448.97 232.496 447.209 232.441 445.457C231.668 420.766 238.571 398.333 253.746 378.975C260.437 370.441 268.968 363.304 276.998 355.895C279.273 353.795 280.615 352.119 280.502 348.894C279.359 316.488 282.46 284.408 291.694 253.368C297.643 233.369 306.118 214.109 313.772 194.641C315.135 191.175 315.325 189.006 313.034 185.7C301.481 169.03 294.265 150.805 293.306 130.18C291.92 100.387 302.197 75.4919 322.667 54.1178C339.231 36.8217 359.248 26.2413 382.724 23.4278C405.171 20.7377 426.914 24.3097 446.146 37.323C452.584 41.6791 458.367 46.9928 464.649 51.5959C466.075 52.6406 468.521 53.2925 470.177 52.8698C488.328 48.2369 506.262 42.6176 524.572 38.7879C537.798 36.0219 551.471 34.7548 564.999 34.2319C585.408 33.443 605.891 33.3099 626.146 37.0172C631.355 37.9706 636.607 38.7021 641.797 39.7422C644.651 40.3142 646.672 39.9942 648.705 37.457C661.545 21.4301 677.903 10.3055 697.573 4.57669C730.709 -5.07408 760.951 0.235624 787.309 23.3884C805.953 39.7659 816.264 60.4088 819.584 84.9667C821.888 102.006 818.363 117.983 812.467 133.644C810.967 137.629 810.923 140.504 813.619 143.986C817.98 149.619 821.815 155.666 825.737 161.628C827.286 163.982 828.788 163.788 831.161 162.788C839.248 159.382 847.295 155.713 855.678 153.223C866.748 149.934 877.71 153.026 888.541 155.621C929.021 165.321 969.497 175.04 1009.98 184.732C1023.04 187.86 1036.14 190.879 1049.19 194.038C1064.78 197.809 1077.36 212.651 1077.25 228.654C1077.16 241.387 1075.59 254.11 1074.66 266.835C1074.36 270.966 1073.77 275.09 1073.77 279.218C1073.77 280.184 1075.46 281.509 1076.66 282.063C1104.22 294.852 1119.9 317.226 1128.58 345.537C1133.24 360.739 1134.07 376.253 1133.26 391.887C1132.86 399.621 1131.09 407.284 1129.8 415.376ZM454.87 957.954C484.848 957.061 514.82 955.808 544.804 955.344C634.832 953.951 724.777 956.475 814.538 963.453C860.369 967.015 906.076 972.198 951.815 976.887C966.524 978.395 981.095 979.368 995.193 973.754C1016.72 965.18 1029.37 948.626 1036.64 927.267C1039.36 919.298 1043.18 917.84 1051.23 920.455C1061.34 923.739 1071.42 927.461 1081.81 929.449C1104.42 933.774 1127.28 923.241 1139.08 904.143C1150.96 884.931 1149.85 860.964 1136.23 842.088C1135.01 840.399 1133.8 838.707 1132.5 836.908C1134.45 835.452 1135.92 834.37 1137.37 833.271C1160.38 815.895 1166.8 786.747 1153.09 761.414C1144.5 745.558 1130.94 735.547 1114.44 729.136C1102.58 724.53 1100.02 720.372 1101.23 707.493C1102.28 696.379 1103.44 685.275 1104.32 674.148C1104.92 666.611 1107.35 659.872 1111.82 653.812C1117.27 646.439 1122.87 639.176 1128.04 631.613C1137.8 617.324 1148.52 603.51 1156.67 588.335C1179.82 545.245 1161.11 501.209 1114.36 486.784C1108.97 485.12 1103.39 483.979 1097.83 482.943C1088.42 481.189 1078.96 479.712 1071.31 478.421C1075.98 473.065 1081.3 467.342 1086.19 461.269C1106.84 435.611 1114.63 405.944 1112.94 373.479C1112.2 359.321 1108.65 345.791 1101.99 333.263C1091.37 313.27 1075.59 299.718 1052.74 295.603C1052.74 293.652 1052.64 291.999 1052.76 290.363C1054.17 271.423 1055.62 252.486 1057.05 233.547C1057.85 222.834 1052.63 215.493 1042.24 213.021C987.145 199.909 932.023 186.907 876.95 173.7C867.084 171.334 857.921 172.175 848.848 176.75C839.221 181.605 829.363 186.002 819.377 190.707C818.332 188.872 817.546 187.246 816.541 185.767C807.293 172.157 798.143 158.477 788.618 145.062C786.697 142.358 786.236 140.817 787.969 137.795C798.466 119.49 802.317 99.8923 797.841 79.0835C786.425 26.0137 724.338 3.25124 679.852 35.68C669.589 43.1615 661.509 52.5086 655.27 63.6801C588.642 47.1221 523.926 53.3411 460.757 78.4236C459.348 76.6761 458.204 75.258 457.06 73.839C416.096 22.9864 341.94 39.7102 319.751 95.1575C306.888 127.301 314.487 156.645 336.468 182.596C339.301 185.94 339.979 188.198 337.744 192.376C310.036 244.174 298.117 299.518 301.493 358.123C301.755 362.675 300.537 364.969 296.566 367.416C270.326 383.587 254.696 406.757 253.247 437.971C252.77 448.243 255.025 458.643 256.067 469.362C255.941 469.381 254.829 469.592 253.707 469.708C210.622 474.16 167.545 478.69 124.446 483.004C108.9 484.56 93.8263 487.415 80.0296 495.253C53.0348 510.589 36.8857 534.321 27.64 563.224C19.9467 587.274 19.0721 612.015 21.592 636.936C25.0302 670.938 34.5018 702.891 54.3382 731.223C54.8691 731.981 55.253 732.842 55.7056 733.656C16.1221 755.147 10.7139 809.441 54.1561 834.59C51.7932 838.01 49.1568 841.272 47.1181 844.872C37.9208 861.114 36.3074 878.036 44.0546 895.206C54.9063 919.256 79.8354 932.179 106.713 927.297C116.962 925.435 126.896 921.782 136.928 918.789C143.69 916.771 147.884 918.743 150.141 925.378C150.623 926.796 151.011 928.245 151.47 929.671C162.13 962.745 190.243 981.066 224.863 977.452C252.201 974.599 279.49 971.165 306.877 968.92C355.853 964.904 404.886 961.589 454.87 957.954Z" fill="#F6E2CA"/>
<path d="M454.382 957.965C404.886 961.587 355.853 964.902 306.877 968.917C279.49 971.163 252.201 974.597 224.863 977.45C190.243 981.063 162.13 962.743 151.47 929.669C151.011 928.243 150.623 926.794 150.141 925.376C147.884 918.741 143.69 916.769 136.928 918.786C126.896 921.779 116.962 925.433 106.713 927.295C79.8354 932.177 54.9062 919.254 44.0546 895.204C36.3074 878.034 37.9208 861.112 47.1181 844.87C49.1568 841.269 51.7932 838.008 54.156 834.588C10.7139 809.439 16.1221 755.144 55.7055 733.654C55.253 732.84 54.8691 731.979 54.3382 731.221C34.5018 702.888 25.0302 670.936 21.592 636.934C19.0721 612.013 19.9467 587.272 27.64 563.222C36.8857 534.319 53.0348 510.586 80.0296 495.251C93.8263 487.413 108.9 484.558 124.446 483.001C167.545 478.687 210.622 474.158 253.707 469.705C254.829 469.59 255.941 469.379 256.067 469.36C255.025 458.641 252.77 448.241 253.247 437.968C254.696 406.755 270.326 383.585 296.566 367.414C300.537 364.966 301.755 362.673 301.493 358.121C298.117 299.516 310.036 244.172 337.744 192.374C339.979 188.196 339.301 185.937 336.468 182.593C314.487 156.643 306.888 127.298 319.751 95.1552C341.94 39.7079 416.096 22.9842 457.06 73.8368C458.204 75.2558 459.348 76.6738 460.757 78.4214C523.926 53.3388 588.642 47.1199 655.27 63.6779C661.509 52.5064 669.589 43.1592 679.852 35.6777C724.338 3.249 786.425 26.0114 797.841 79.0812C802.317 99.8901 798.466 119.487 787.969 137.793C786.236 140.815 786.697 142.356 788.618 145.06C798.143 158.474 807.293 172.155 816.541 185.765C817.546 187.243 818.332 188.87 819.377 190.704C829.363 186 839.221 181.602 848.848 176.748C857.921 172.173 867.084 171.332 876.95 173.698C932.023 186.904 987.145 199.907 1042.24 213.019C1052.63 215.491 1057.85 222.831 1057.05 233.545C1055.62 252.484 1054.17 271.421 1052.76 290.361C1052.64 291.997 1052.74 293.65 1052.74 295.601C1075.59 299.716 1091.37 313.267 1101.99 333.261C1108.65 345.789 1112.2 359.319 1112.94 373.476C1114.63 405.942 1106.84 435.609 1086.19 461.267C1081.3 467.34 1075.98 473.063 1071.31 478.418C1078.96 479.71 1088.42 481.186 1097.83 482.941C1103.39 483.976 1108.97 485.118 1114.36 486.781C1161.11 501.206 1179.82 545.242 1156.67 588.333C1148.52 603.508 1137.8 617.321 1128.04 631.611C1122.87 639.173 1117.27 646.437 1111.82 653.809C1107.35 659.87 1104.92 666.609 1104.32 674.146C1103.44 685.272 1102.28 696.377 1101.23 707.491C1100.02 720.37 1102.58 724.528 1114.44 729.134C1130.94 735.545 1144.5 745.555 1153.09 761.412C1166.8 786.745 1160.38 815.893 1137.37 833.269C1135.92 834.367 1134.45 835.45 1132.5 836.906C1133.8 838.705 1135.01 840.397 1136.23 842.086C1149.85 860.961 1150.96 884.929 1139.08 904.14C1127.28 923.239 1104.42 933.772 1081.81 929.447C1071.42 927.459 1061.34 923.737 1051.23 920.453C1043.18 917.838 1039.36 919.296 1036.64 927.265C1029.37 948.624 1016.72 965.178 995.193 973.752C981.095 979.366 966.524 978.393 951.815 976.885C906.076 972.195 860.369 967.013 814.538 963.451C724.777 956.473 634.832 953.948 544.804 955.342C514.82 955.806 484.848 957.059 454.382 957.965ZM914.078 200.363C903.89 197.966 893.464 196.285 883.573 192.997C870.543 188.664 859.25 190.482 847.085 196.868C814.738 213.851 781.778 229.666 748.386 246.041C743.945 247.797 742.129 251.191 742.05 256.641C741.008 269.093 740 281.548 738.918 293.996C734.473 345.119 729.991 396.239 725.564 447.364C724.986 454.042 727.178 456.674 733.842 458.09C773.587 466.535 813.319 475.04 853.07 483.453C876.519 488.415 899.997 493.242 924.031 498.608C927.817 497.602 931.604 496.596 936.046 495.27C951.916 484.265 967.718 473.161 983.707 462.332C987.228 459.947 988.293 458.101 985.925 454.085C981.149 445.989 978.714 437.123 981.215 427.763C982.211 424.035 981.784 421.315 979.835 418.067C972.832 406.395 974.305 389.63 982.606 379.019C983.675 377.652 984.157 375.088 983.714 373.39C979.617 357.678 985.353 342.457 998.995 333.338C999.985 332.676 1001.11 331.563 1001.32 330.492C1004.71 313.372 1015.46 303.203 1031.53 297.789C1032.74 297.38 1034.27 295.718 1034.37 294.525C1035.96 276.629 1037.33 258.715 1039 240.122C1039.27 236.298 1040.77 232.066 1035.2 229.404C1020.49 225.839 1005.81 222.199 991.086 218.736C980.907 216.341 970.671 214.191 959.902 211.445C944.844 207.888 929.786 204.331 914.078 200.363ZM558.033 701.653C564.302 702.116 570.567 702.913 576.84 702.979C594.335 703.162 611.833 703.098 629.329 703.002C633.619 702.979 637.931 702.657 642.188 702.118C647.157 701.488 652.106 700.594 656.987 699.48C657.696 699.318 657.978 697.29 658.618 695.632C658.894 695.438 659.17 695.244 660.138 694.969C660.818 693.296 661.498 691.623 662.199 689.097C662.51 683.786 663.059 678.475 663.085 673.162C663.156 658.952 657.717 653.44 643.527 653.305C625.863 653.138 608.198 653.147 590.534 653.034C588.682 653.023 586.832 652.698 584.072 652.431C586.178 649.358 587.591 647.145 589.151 645.041C610.973 615.602 633.023 586.328 654.454 556.607C658.158 551.47 660.178 544.618 661.305 538.263C662.481 531.634 661.933 524.633 661.604 517.821C661.133 508.09 655.279 501.788 645.658 500.116C643.207 499.69 640.686 499.526 638.194 499.497C618.032 499.262 597.869 498.924 577.706 498.949C563.879 498.967 550.042 499.294 536.227 499.891C523.097 500.458 516.548 507.749 516.735 520.822C516.77 523.322 516.884 525.819 516.947 528.318C517.332 543.62 522.734 548.908 538.119 548.849C554.45 548.787 570.781 548.603 587.112 548.549C589.143 548.542 591.175 549.007 594.203 549.373C591.81 552.805 590.079 555.385 588.25 557.893C568.913 584.397 550.182 611.376 529.961 637.187C519.248 650.86 514.813 665.024 516.432 682.026C517.647 694.779 523.098 700.825 535.965 701.01C543.123 701.114 550.284 701.053 558.033 701.653ZM323.343 323.614C323.343 334.332 323.343 345.05 323.343 356.166C356.268 349.18 386.079 353.697 411.846 374.809C438.085 396.309 447.081 424.563 441.08 458.597C530.292 452.485 618.699 451.757 706.71 456.089C708.343 437.148 709.917 419.254 711.421 401.355C713.204 380.135 714.843 358.902 716.697 337.688C719.188 309.189 721.949 280.713 724.331 252.205C725.14 242.526 729.293 235.534 738.07 231.238C747.647 226.55 757.148 221.707 766.681 216.928C777.528 211.491 788.374 206.051 799.458 200.494C798.802 199.148 798.357 198.099 797.802 197.113C788.109 179.897 776.403 164.177 762.714 149.932C757.607 144.618 757.59 143.81 762.186 137.768C772.604 124.074 778.404 108.948 777.52 91.4043C776.248 66.1573 753.54 43.6249 728.274 43.0087C701.814 42.3633 679.729 57.4202 669.576 83.0273C667.332 88.6893 665.672 89.6452 660.219 88.0705C623.623 77.5034 586.467 74.2592 548.581 78.8369C517.775 82.5589 488.191 90.4703 459.918 103.235C452.578 106.549 451.427 106.294 447.398 99.1126C433.78 74.8414 411.306 62.4645 384.394 66.8682C359.82 70.8895 337.254 95.6709 336.223 120.541C335.237 144.328 345.55 162.577 363.056 177.497C368.315 181.98 368.703 183.206 365.285 189.274C364.632 190.435 363.929 191.568 363.233 192.704C338.786 232.592 326.365 276.171 323.343 323.614ZM69.9288 660.947C72.3304 667.333 74.3036 673.923 77.2101 680.071C88.1356 703.181 105.096 719.677 130.24 726.593C143.734 730.304 157.495 730.754 171.382 729.148C190.516 726.934 209.098 722.768 226.519 714.261C237.255 709.018 243.416 700.69 242.656 688.464C241.219 665.35 239.629 642.24 237.673 619.165C236.694 607.61 229.584 602.017 217.958 602.919C204.173 603.989 190.386 605.13 176.643 606.629C156.925 608.78 152.74 614.151 154.554 634.023C155.932 649.113 162.124 654.173 177.3 652.605C178.129 652.52 178.953 652.395 179.782 652.307C187.029 651.537 187.064 651.572 187.63 658.626C187.87 661.615 188.04 664.615 188.435 667.584C188.944 671.413 187.282 673.919 183.683 674.569C176.187 675.924 168.629 677.796 161.084 677.85C144.389 677.97 133.124 669.673 127.181 654.034C122.043 640.514 120.701 626.444 122.648 612.227C125.806 589.169 138.673 577.34 161.948 576.138C173.244 575.555 184.593 576.067 195.917 575.939C200.397 575.889 204.933 575.818 209.335 575.093C215.632 574.055 220.219 570.428 222.882 564.468C231.283 545.669 221.267 525.391 201.232 521.051C182.533 517.001 163.633 515.749 144.607 518.151C109.806 522.544 85.3803 540.667 72.7723 573.654C61.9146 602.061 62.4023 631.033 69.9288 660.947ZM299.619 714.826C318.642 712.611 322.221 708.519 321.336 689.606C320.775 677.623 319.977 665.652 319.423 653.669C319.354 652.17 319.64 650.065 320.612 649.222C323.258 646.929 330.001 648.523 331.895 651.582C341.442 667.007 351.033 682.406 360.462 697.903C363.843 703.46 368.186 708.362 374.767 708.332C386.02 708.281 397.45 707.915 408.461 705.846C417.949 704.064 421.232 694.382 416.786 685.7C415.805 683.784 414.535 682.009 413.321 680.222C403.328 665.51 393.317 650.811 383.124 635.834C384.625 634.793 385.785 633.909 387.019 633.144C398.071 626.294 405.722 616.742 409.724 604.364C415.157 587.556 414.776 570.549 410.873 553.556C405.705 531.056 391.589 517.109 369.19 512.095C360.807 510.218 352.006 508.861 343.479 509.225C319.693 510.243 295.938 512.118 272.197 513.988C258.847 515.039 251.811 523.443 252.841 536.903C256.972 590.892 261.227 644.872 265.521 698.848C266.431 710.287 273.243 716.249 284.752 715.918C289.41 715.784 294.056 715.25 299.619 714.826ZM185.188 837.825C185.93 843.936 186.668 850.049 187.414 856.16C190.075 877.959 192.643 899.771 195.449 921.553C196.564 930.203 202.475 935.256 210.779 934.788C216.749 934.452 222.739 933.817 228.624 932.772C236.468 931.379 240.892 925.428 240.067 917.695C238.409 902.137 236.526 886.604 234.828 871.05C233.867 862.246 233.09 853.421 232.23 844.605C234.544 846.172 235.724 848.087 236.823 850.046C244.402 863.555 252.107 876.996 259.473 890.62C263.544 898.15 269.806 898.181 277.029 897.284C283.165 896.521 287.17 893.998 289.146 887.943C293.071 875.913 297.268 863.971 301.414 852.014C303.22 846.807 305.177 841.651 307.066 836.472C308.09 837.268 308.174 837.856 308.224 838.447C310.233 862 312.208 885.556 314.259 909.105C315.06 918.292 320.254 923.105 329.351 922.818C334.997 922.64 340.664 922.15 346.254 921.334C355.572 919.974 359.842 913.849 359.072 904.388C357.115 880.337 355.307 856.273 353.531 832.208C351.706 807.472 350.086 782.721 348.181 757.991C347.321 746.82 340.853 741.441 329.516 742.1C322.373 742.516 315.254 743.332 308.112 743.755C299.05 744.292 293.471 748.696 290.667 757.469C284.175 777.773 277.295 797.953 270.556 818.177C270.058 819.671 269.421 821.118 268.554 823.345C267.223 821.106 266.282 819.605 265.421 818.06C254.791 799.006 244.179 779.943 233.55 760.889C229.765 754.103 223.837 751.696 216.334 752.532C209.06 753.343 201.785 754.158 194.506 754.931C181.379 756.325 176.141 762.054 177.523 775.011C179.727 795.686 182.509 816.3 185.188 837.825ZM823.216 687.137C823.31 684.807 823.416 682.477 823.495 680.146C824.014 664.891 818.95 659.372 803.51 658.568C786.042 657.658 768.568 656.857 751.099 655.967C749.423 655.882 747.762 655.506 745.168 655.132C747.123 652.579 748.369 650.867 749.7 649.224C770.664 623.338 791.273 597.151 812.777 571.72C822.441 560.29 827.312 548.142 827.435 533.184C827.6 513.045 822.598 506.637 802.463 505.315C783.848 504.093 765.217 503.089 746.58 502.258C731.604 501.589 716.612 501.075 701.623 500.952C688.902 500.847 682.267 507.628 681.794 520.326C681.708 522.656 681.775 524.991 681.746 527.323C681.54 543.896 686.895 549.299 703.648 549.92C720.294 550.537 736.931 551.397 753.57 552.201C754.942 552.267 756.296 552.721 758.512 553.166C756.849 555.652 755.803 557.476 754.513 559.106C731.563 588.096 708.72 617.172 685.52 645.96C679.405 653.547 676.604 661.766 676.801 671.285C676.867 674.449 676.801 677.616 676.793 680.782C676.755 694.647 682.232 700.638 696.171 701.291C731.448 702.943 766.73 704.483 802.016 705.942C816.204 706.528 821.31 702.051 823.216 687.137ZM642.633 773.492C640.516 767.742 639.147 761.564 636.144 756.322C626.84 740.082 611.336 733.217 593.662 732.205C574.913 731.132 556.056 731.798 537.248 731.932C526.292 732.01 520.384 738.198 520.439 749.281C520.477 756.774 520.945 764.263 521.111 771.757C521.976 810.737 522.793 849.718 523.669 888.697C523.755 892.524 523.959 896.364 524.41 900.162C525.286 907.551 529.894 911.886 537.344 912.201C542.333 912.412 547.341 912.223 552.34 912.152C563.711 911.989 568.368 907.33 568.299 895.856C568.225 883.529 567.81 871.204 567.857 858.879C567.863 857.073 569.219 854.193 570.617 853.7C573.379 852.724 576.183 853.092 577.898 856.797C584.961 872.058 592.391 887.15 599.651 902.321C602.58 908.443 607.273 911.886 614.149 911.985C619.981 912.068 625.819 912.142 631.648 911.987C644.442 911.647 649.578 903.026 643.663 891.597C638.074 880.799 632.183 870.158 626.409 859.457C623.742 854.515 621.035 849.595 618.138 844.282C631.241 837.039 638.632 825.923 641.836 812C644.702 799.549 645.181 786.957 642.633 773.492ZM1015.76 530.388C1013.18 524.668 1008.74 520.614 1002.72 519.811C991.858 518.364 980.858 517.014 969.947 517.212C958.884 517.412 952.7 527.403 955.69 538.124C956.268 540.199 957.081 542.226 957.962 544.197C972.281 576.226 986.54 608.283 1001.06 640.222C1003.42 645.407 1004.46 650.374 1003.95 656.073C1002.5 672.496 1001.32 688.948 1000.36 705.408C999.67 717.166 1005.09 723.556 1016.68 725.262C1022.27 726.087 1027.91 726.62 1033.54 727.243C1047.65 728.806 1054.28 723.149 1055.46 708.828C1056.78 692.893 1057.99 676.939 1059.87 661.066C1060.42 656.342 1062.27 651.335 1064.89 647.358C1083.76 618.712 1103.19 590.438 1122 561.751C1131.57 547.148 1125.62 534.762 1108.45 532C1103.19 531.154 1097.92 530.404 1092.65 529.611C1079.9 527.693 1074.02 530.491 1067.57 541.795C1059.16 556.539 1050.87 571.349 1042.47 586.099C1041.47 587.85 1040.12 589.401 1038.93 591.045C1038.4 591.029 1037.87 591.014 1037.34 590.999C1030.27 571.012 1023.21 551.026 1015.76 530.388ZM751.943 809.057C763.461 791.713 775.042 774.41 786.476 757.01C793.833 745.813 788.738 735.95 775.323 735.227C770.167 734.949 764.967 735.186 759.843 734.649C751.489 733.772 745.404 736.619 741.022 743.924C732.025 758.922 722.742 773.75 713.568 788.642C711.909 791.337 710.206 794.004 708.523 796.684C707.639 794.214 707.597 792.241 707.646 790.271C708.002 775.785 708.545 761.301 708.685 746.812C708.777 737.286 703.87 732.402 694.319 731.952C689.162 731.709 683.99 731.7 678.825 731.731C667.812 731.799 662.608 736.94 662.417 747.931C662.035 769.919 661.713 791.909 661.334 813.898C661.234 819.726 660.972 825.552 660.862 831.38C660.446 853.533 659.854 875.686 659.758 897.84C659.715 907.874 665.023 912.677 675.065 912.971C679.728 913.108 684.395 913.164 689.061 913.155C699.077 913.136 704.092 908.309 704.437 898.212C704.897 884.727 705.198 871.236 705.645 857.75C705.763 854.187 706.168 850.633 706.542 845.765C707.93 848.349 708.737 849.737 709.44 851.175C718.29 869.284 727.213 887.358 735.917 905.537C738.859 911.681 743.451 915.253 750.112 915.852C756.575 916.432 763.077 916.808 769.565 916.841C782.308 916.906 787.775 908.287 782.284 896.836C771.7 874.765 761.46 852.508 750.082 830.85C745.792 822.683 744.877 816.321 751.943 809.057ZM502.73 866.214C498.089 851.263 493.463 836.308 488.803 821.363C481.218 797.04 473.669 772.705 465.984 748.414C462.648 737.867 457.842 734.556 446.78 734.887C437.958 735.151 429.139 735.549 420.323 735.992C410.921 736.465 405.396 741.403 403.455 750.75C400.952 762.802 398.36 774.836 395.852 786.887C387.818 825.487 379.775 864.086 371.806 902.701C369.909 911.895 375.5 918.875 384.623 918.728C390.613 918.631 396.607 918.27 402.579 917.781C411.416 917.058 415.413 913.399 417.074 904.687C418.103 899.295 419.041 893.882 419.845 888.453C420.309 885.316 421.654 884.034 425.041 883.944C435.857 883.658 446.667 883.04 457.471 882.402C460.312 882.234 461.755 883.2 462.452 885.982C463.868 891.633 465.401 897.262 467.115 902.829C469.484 910.526 474.22 913.935 482.338 913.8C488.165 913.703 493.992 913.415 499.809 913.051C509.691 912.432 514.396 905.85 511.684 896.18C508.942 886.401 505.897 876.706 502.73 866.214ZM843.512 643.587C842.784 657.888 842.053 672.19 841.328 686.492C840.568 701.466 845.903 707.879 860.645 709.238C882.528 711.254 904.426 713.105 926.321 714.992C935.608 715.793 944.892 716.831 954.198 717.175C965.481 717.593 971.125 712.277 972.242 701.031C972.588 697.552 972.852 694.065 973.124 690.58C974.272 675.846 969.073 669.607 954.347 668.172C938.104 666.589 921.865 664.951 905.602 663.615C901.335 663.265 899.944 661.911 900.304 657.481C902.315 632.751 904.061 607.999 905.851 583.251C907.1 565.978 908.46 548.71 909.421 531.419C910.111 518.995 904.026 511.832 891.738 510.371C884.474 509.508 877.133 509.038 869.818 508.916C857.082 508.703 850.375 515.059 849.668 527.899C847.563 566.137 845.581 604.382 843.512 643.587ZM804.534 781.734C803.244 801.993 801.912 822.25 800.678 842.512C799.464 862.447 798.202 882.381 797.247 902.329C796.706 913.621 801.537 918.452 812.746 919.193C822.872 919.862 832.978 920.835 843.093 921.667C857.189 922.825 871.273 924.174 885.386 925.06C894.242 925.616 899.147 921.527 900.308 913.119C901.035 907.854 901.487 902.522 901.616 897.21C901.836 888.126 898.317 883.783 889.359 882.744C876.138 881.211 862.876 879.923 849.598 879.065C844.755 878.752 842.601 877.707 843.397 872.413C844.162 867.328 844.387 862.128 844.403 856.976C844.417 852.811 846.001 851.45 850.117 851.817C860.726 852.763 871.352 853.577 881.988 854.12C890.412 854.55 895.279 850.352 896.255 842.166C896.825 837.379 897.179 832.555 897.38 827.737C897.758 818.703 893.23 813.794 884.159 813.028C873.384 812.117 862.62 811.051 851.836 810.265C849.028 810.061 848.001 809.14 848.256 806.322C848.766 800.686 849.376 795.03 849.358 789.384C849.342 784.781 851.241 783.766 855.448 784.139C868.708 785.313 881.982 786.384 895.272 787.133C903.902 787.619 908.664 783.83 909.947 775.51C910.857 769.609 911.301 763.58 911.304 757.608C911.308 749.703 906.658 744.735 898.784 744.088C873.742 742.029 848.694 740.02 823.627 738.287C813.081 737.557 807.054 743.349 806.361 753.889C805.771 762.856 805.161 771.821 804.534 781.734ZM288.178 474.88C293.392 478.965 299.277 480.696 305.903 480.22C313.515 479.673 317.634 475.239 317.465 467.567C317.385 463.95 316.501 460.007 317.66 456.822C318.5 454.514 321.931 452.133 324.512 451.728C327.848 451.205 330.25 453.852 330.607 457.592C330.797 459.578 331.069 461.558 331.2 463.548C331.85 473.424 336.372 478.696 346.16 479.656C357.181 480.737 366.559 473.809 365.548 462.983C365.302 460.341 365.288 457.644 365.498 454.999C365.833 450.782 368.209 448.247 372.513 448.034C376.542 447.834 379.136 450.487 379.4 454.932C379.559 457.588 379.372 460.263 379.497 462.922C379.846 470.281 384.076 474.721 391.415 475.033C402.741 475.516 410.928 470.075 416.26 460.493C427.592 440.124 420.251 409.706 400.664 393.15C380.771 376.335 357.787 371.329 332.908 376.324C306.008 381.726 285.77 396.433 277.27 423.605C271.49 442.081 272.657 459.841 288.178 474.88ZM495.072 629.682C494.879 621.69 494.683 613.698 494.495 605.706C493.833 577.567 493.23 549.425 492.487 521.288C492.158 508.834 485.504 501.708 474.002 501.6C466.514 501.53 458.996 501.726 451.535 502.336C438.583 503.396 432.476 510.413 432.671 523.369C432.691 524.7 432.776 526.031 432.833 527.363C434.048 555.816 435.27 584.27 436.477 612.724C437.522 637.351 438.463 661.983 439.624 686.604C440.201 698.861 447.166 705.03 459.431 704.615C465.256 704.418 471.08 704.171 476.903 703.915C490.196 703.331 496.432 696.52 496.136 683.107C495.751 665.623 495.45 648.137 495.072 629.682ZM952.162 748.886C948.359 748.464 944.546 748.109 940.753 747.608C931.015 746.323 924.871 750.688 923.468 760.374C922.73 765.468 922.362 770.644 922.24 775.793C922.008 785.515 926.36 790.064 936.159 791.004C941.459 791.512 946.731 792.566 952.034 792.715C956.371 792.837 956.826 794.804 956.416 798.383C953.175 826.658 950.028 854.943 946.884 883.229C945.615 894.643 944.085 906.042 943.301 917.49C942.636 927.189 947.035 931.941 956.682 933.275C961.13 933.89 965.59 934.46 970.061 934.861C980.216 935.771 986.01 931.301 987.227 921.189C990.428 894.595 993.429 867.977 996.529 841.371C998.05 828.316 999.667 815.272 1001.12 802.209C1001.44 799.285 1002.34 798.18 1005.55 798.736C1010.79 799.643 1016.14 799.876 1021.41 800.585C1031.56 801.949 1037.24 797.646 1038.58 787.357C1039.12 783.236 1039.57 779.102 1040.14 774.985C1041.47 765.466 1036.96 758.652 1027.46 757.474C1002.69 754.402 977.873 751.76 952.162 748.886ZM1091.33 396.212C1091.44 394.383 1091.46 392.542 1091.68 390.726C1093.74 373.881 1090.91 357.832 1083.2 342.799C1076.39 329.53 1066.59 319.423 1051.22 316.501C1040.79 314.518 1031.7 317.312 1024.65 325.481C1020.56 330.213 1021.38 333.742 1026.86 336.355C1028.96 337.359 1031.13 338.245 1033.16 339.376C1037 341.507 1038.31 345.136 1036.6 348.596C1034.64 352.575 1031.31 352.792 1027.68 351.547C1025.17 350.686 1022.81 349.364 1020.32 348.437C1013.9 346.048 1009.92 347.22 1006.26 352.973C1004.67 355.459 1003.41 358.307 1002.71 361.165C1000.98 368.241 1004.32 373.721 1011.28 375.83C1013.18 376.409 1015.22 376.598 1017.08 377.297C1020.68 378.656 1023.04 381.079 1022.23 385.279C1021.5 389.008 1017.98 391.1 1013.79 390.309C1011.51 389.879 1009.3 389.063 1007.05 388.478C1001.3 386.985 997.425 388.896 996.059 394.727C992.985 407.854 998.168 417.317 1011.99 417.033C1012.99 417.013 1014 416.974 1014.98 417.087C1018.73 417.516 1020.58 419.732 1020.65 423.433C1020.74 428.416 1016.24 431.459 1009.84 430.801C1002.13 430.01 999.846 432.736 1001.95 440.204C1006.07 454.869 1019.13 464.878 1034.42 465.164C1051.03 465.475 1062.76 456.761 1072.24 444.351C1082.89 430.402 1088.4 414.258 1091.33 396.212ZM88.5476 777.442C85.7595 776.354 83.0214 775.107 80.1736 774.208C72.7578 771.868 65.7072 775.292 63.2213 782.29C60.4871 789.989 63.6286 797.542 71.3042 800.123C88.3249 805.846 105.43 811.329 122.58 816.651C129.764 818.881 135.564 815.796 137.834 809.256C140.094 802.748 137.042 796.288 130.195 793.6C116.575 788.253 102.905 783.034 88.5476 777.442ZM1090.13 784.239C1080.02 788.534 1069.86 792.739 1059.8 797.158C1054.06 799.677 1051.44 806.354 1053.54 812.283C1055.58 818.067 1061.12 821.53 1067.04 819.604C1083.19 814.349 1099.28 808.892 1115.19 802.949C1122.32 800.285 1124.88 791.972 1121.84 784.838C1119.05 778.292 1112.45 775.555 1105.21 778.181C1100.36 779.94 1095.63 782.028 1090.13 784.239ZM137.159 847.354C134.863 847.412 132.39 846.931 130.3 847.617C115.919 852.336 101.561 857.137 87.3155 862.248C79.8099 864.94 76.5625 872.882 79.3422 880.266C82.1729 887.786 89.7978 890.804 98.3941 887.374C111.524 882.136 124.526 876.577 137.609 871.221C142.783 869.103 145.629 865.4 145.67 859.791C145.711 854.125 143.432 849.817 137.159 847.354ZM1097.6 891.105C1104.85 889.381 1108.93 884.952 1109.43 878.261C1109.94 871.407 1106.65 866.779 1099.32 864.098C1086.98 859.586 1074.66 855.028 1062.28 850.63C1059.98 849.814 1057.42 849.188 1055.03 849.302C1049.85 849.551 1045.61 853.798 1044.53 859.144C1043.35 864.982 1045.69 870.373 1051.14 872.841C1064.17 878.739 1077.3 884.42 1090.45 890.033C1092.37 890.849 1094.64 890.805 1097.6 891.105Z" fill="#271C10"/>
<path d="M323.348 323.125C326.365 276.17 338.786 232.592 363.233 192.703C363.929 191.567 364.632 190.434 365.285 189.274C368.703 183.206 368.315 181.979 363.056 177.497C345.55 162.577 335.237 144.327 336.223 120.54C337.254 95.6704 359.82 70.889 384.394 66.8677C411.306 62.464 433.78 74.841 447.398 99.1121C451.427 106.293 452.578 106.548 459.918 103.235C488.191 90.4699 517.775 82.5585 548.581 78.8364C586.467 74.2587 623.623 77.503 660.219 88.07C665.672 89.6447 667.332 88.6889 669.576 83.0269C679.729 57.4197 701.814 42.3629 728.274 43.0082C753.54 43.6244 776.248 66.1568 777.52 91.4038C778.404 108.948 772.604 124.074 762.186 137.768C757.59 143.809 757.607 144.618 762.714 149.932C776.403 164.177 788.109 179.897 797.802 197.113C798.357 198.099 798.802 199.147 799.458 200.494C788.374 206.051 777.528 211.491 766.681 216.928C757.148 221.706 747.647 226.55 738.07 231.238C729.293 235.533 725.14 242.525 724.331 252.204C721.949 280.712 719.188 309.188 716.697 337.687C714.843 358.901 713.204 380.134 711.421 401.354C709.917 419.254 708.343 437.148 706.71 456.089C618.699 451.757 530.292 452.485 441.08 458.596C447.081 424.563 438.085 396.308 411.846 374.809C386.079 353.697 356.268 349.18 323.343 356.166C323.343 345.05 323.343 334.331 323.348 323.125ZM503.262 322.646C502.436 336.953 504.874 350.675 512.023 363.133C527.727 390.5 552.428 401.669 583.067 401.044C618.801 400.314 648.973 376.634 656.968 343.202C662.76 318.985 656.686 297.018 643.411 276.622C616.679 235.551 561.735 230.186 527.968 265.598C513.086 281.206 505.075 300.15 503.262 322.646ZM494.444 245.564C485.542 236.935 472.818 238.014 466.993 248.607C461.352 258.865 461.507 269.762 467.21 280.106C470.738 286.506 476.749 289.319 483.963 288.758C491.341 288.185 496.499 283.892 498.677 277.045C502.088 266.321 501.804 255.738 494.444 245.564ZM651.95 259.846C655.267 266.685 660.392 271.044 668.297 270.874C675.627 270.717 680.537 266.342 683.164 260.021C686.818 251.23 686.801 242.145 682.578 233.404C679.222 226.457 674.061 221.849 665.831 222.245C658.658 222.59 653.003 227.705 650.304 235.796C647.645 243.765 648.543 251.52 651.95 259.846ZM374.114 122.549C371.723 132.338 374.716 140.571 381.529 147.6C384.422 150.584 386.905 150.613 390.358 147.411C398.73 139.646 407.468 132.229 416.491 125.228C422.086 120.887 422.864 118.874 418.121 113.38C411.583 105.807 403.48 101.894 393.362 104.094C383.665 106.202 377.085 111.996 374.114 122.549ZM722.324 112.606C724.381 114.012 726.655 115.187 728.449 116.872C731.934 120.145 734.524 118.969 737.251 115.875C744.738 107.381 744.625 92.938 736.883 84.8408C730.795 78.4732 723.344 76.5961 715.012 78.8615C706.253 81.2433 700.296 87.1296 697.122 95.4864C696.667 96.6869 698.67 99.7115 700.265 100.647C707.267 104.753 714.537 108.401 722.324 112.606Z" fill="#A1673C"/>
<path d="M602.158 400.85C584.863 404.621 568.055 404.861 551.443 399.477C520.712 389.516 501.8 365.15 499.694 332.918C497.47 298.899 518.453 262.065 548.939 247.074C571.929 235.769 594.922 236.479 617.6 248.198C652.776 266.375 672.04 310.814 660.438 348.165C651.531 376.84 630.815 393.081 602.158 400.85ZM559.088 269.047C543.086 277.497 541.471 294.72 555.924 305.739C560.239 309.029 565.214 311.625 570.207 313.803C574.82 315.816 576.889 318.901 577.107 323.708C577.378 329.695 577.752 335.678 578.15 341.657C578.633 348.931 575.198 354.519 568.431 357.432C563.673 359.479 559.028 358.897 554.368 357.073C550.975 355.745 547.879 356.206 546.505 359.886C545.129 363.573 546.689 366.56 550.347 367.903C553.283 368.981 556.399 369.842 559.5 370.151C570.485 371.245 579.095 366.573 585.469 358.918C590.178 361.23 594.291 363.88 598.792 365.323C607.187 368.015 615.287 366.492 622.612 361.6C625.797 359.474 626.766 356.287 624.772 352.907C622.855 349.657 619.908 350.012 616.922 351.536C615.442 352.291 613.957 353.074 612.396 353.621C601.726 357.36 590.653 349.829 591.236 339.552C591.591 333.277 590.673 326.925 590.257 320.612C589.989 316.547 591.551 313.773 595.106 311.568C599.324 308.952 603.556 306.119 607.074 302.66C620.867 289.098 616.42 271.406 597.904 266.036C584.94 262.276 572.194 263.656 559.088 269.047Z" fill="#FBF9F6"/>
<path d="M486.724 289.94C473.838 290.809 466.685 286.424 463.288 275.285C460.797 267.123 460.642 258.759 463.881 250.706C467.385 241.992 474.206 237.779 483.397 238.06C491.068 238.295 498.294 243.238 500.027 251.851C501.605 259.696 501.832 268.071 500.821 276.004C499.944 282.876 494.873 287.994 486.724 289.94Z" fill="#281D11"/>
<path d="M685.236 263.124C680.827 270.736 674.111 274.12 665.219 272.749C656.78 271.447 652.249 265.893 649.764 258.897C646.535 249.805 646.452 240.722 650.831 231.891C653.636 226.237 658.413 222.756 665.457 222.152C672.84 221.519 678.878 223.716 682.708 229.527C689.706 240.143 689.966 251.336 685.236 263.124Z" fill="#281D11"/>
<path d="M559.438 268.905C572.194 263.656 584.94 262.276 597.904 266.036C616.42 271.406 620.867 289.099 607.074 302.66C603.556 306.119 599.324 308.952 595.106 311.568C591.551 313.773 589.989 316.547 590.257 320.612C590.673 326.925 591.591 333.277 591.236 339.552C590.653 349.829 601.726 357.36 612.396 353.621C613.957 353.074 615.442 352.291 616.922 351.536C619.908 350.012 622.855 349.657 624.772 352.907C626.766 356.287 625.797 359.474 622.612 361.6C615.287 366.492 607.187 368.015 598.792 365.323C594.291 363.88 590.178 361.23 585.469 358.918C579.095 366.573 570.485 371.245 559.5 370.151C556.399 369.842 553.283 368.981 550.347 367.903C546.689 366.56 545.129 363.573 546.505 359.886C547.879 356.206 550.975 355.745 554.368 357.073C559.028 358.897 563.673 359.48 568.431 357.432C575.198 354.519 578.633 348.931 578.15 341.657C577.752 335.678 577.378 329.695 577.107 323.708C576.889 318.901 574.82 315.816 570.207 313.803C565.214 311.625 560.239 309.029 555.924 305.739C541.471 294.72 543.086 277.497 559.438 268.905Z" fill="#281D11"/>
<path d="M923.461 498.132C899.997 493.244 876.519 488.417 853.07 483.455C813.319 475.043 773.587 466.537 733.842 458.092C727.178 456.676 724.986 454.044 725.564 447.366C729.991 396.241 734.473 345.122 738.918 293.999C740 281.55 741.008 269.095 742.585 256.258C752.037 257.929 760.96 259.959 769.87 262.047C785.404 265.689 800.93 269.365 816.417 273.447C815.697 281.441 814.82 289.008 814.509 296.598C814.447 298.121 816.276 300.783 817.684 301.14C830.825 304.472 844.054 307.461 857.284 310.436C860.186 311.089 862.145 309.792 862.432 306.665C863.124 299.097 863.754 291.524 864.831 283.925C890.077 289.335 914.924 294.674 939.677 300.42C941.378 300.814 943.462 304.227 943.49 306.262C943.569 311.881 942.708 317.52 942.118 323.14C938.922 353.55 935.717 383.959 932.474 414.364C929.496 442.29 926.468 470.209 923.461 498.132ZM796.947 364.018C787.242 382.825 791.015 404.408 806.515 418.754C824.532 435.431 853.559 430.248 864.015 408.068C870.444 395.182 870.827 381.988 864.779 369.048C857.956 354.448 846.726 344.989 830.041 344.385C815.467 343.858 804.489 350.544 796.947 364.018ZM899.375 364.52C895.343 355.276 891.312 346.031 887.086 336.341C884.954 337.547 883.285 338.492 881.331 339.598C887.228 353.046 892.992 366.189 898.895 379.65C901.112 378.421 902.776 377.498 904.566 376.506C902.822 372.508 901.235 368.87 899.375 364.52ZM767.437 391.607C767.43 393.054 766.977 394.684 767.486 395.917C770.656 403.584 774.05 411.158 777.352 418.771C779.233 423.106 781.081 427.455 783.034 432.009C785.244 430.915 786.82 430.134 788.654 429.226C783.245 416.563 777.921 404.257 772.749 391.887C771.409 388.68 769.806 390.376 767.437 391.607ZM760.589 428.419C762.29 432.328 763.99 436.237 765.788 440.368C767.911 439.293 769.64 438.417 771.58 437.435C765.814 424.055 760.207 411.045 754.479 397.756C752.32 398.949 750.791 399.794 749.015 400.774C752.888 410.001 756.603 418.853 760.589 428.419ZM772.428 320.537C767.565 326.189 762.703 331.841 757.642 337.724C759.125 339.314 760.445 340.73 762.1 342.504C770.995 332.397 779.636 322.576 788.444 312.568C786.776 310.773 785.379 309.269 783.798 307.569C779.896 312.022 776.398 316.015 772.428 320.537ZM771.424 337.541C769.142 340.098 766.861 342.656 764.483 345.321C766.187 347.115 767.435 348.43 769.04 350.121C777.934 340.049 786.667 330.159 795.505 320.15C793.802 318.356 792.47 316.954 790.964 315.368C784.399 322.813 778.144 329.907 771.424 337.541ZM781.081 342.189C777.93 345.77 774.779 349.35 772.007 352.499C773.478 354.445 774.627 355.964 775.996 357.775C784.908 347.65 793.44 337.959 802.377 327.807C800.731 326.136 799.413 324.797 797.802 323.161C792.048 329.712 786.8 335.685 781.081 342.189ZM901.69 361.291C903.711 365.799 905.732 370.307 907.903 375.15C910.039 374.107 911.748 373.272 913.859 372.242C911.178 366.159 908.672 360.47 906.018 354.448C903.239 356.075 898.512 355.402 901.69 361.291ZM885.444 373.572C887.017 376.946 888.59 380.32 890.251 383.882C892.541 382.663 894.226 381.765 895.968 380.838C893.15 374.659 890.55 368.959 887.75 362.818C885.738 363.853 884.053 364.719 882.153 365.696C883.262 368.334 884.214 370.599 885.444 373.572ZM873.436 458.518C874.301 460.584 875.167 462.65 876.347 465.466C881.342 460.171 885.406 455.863 889.665 451.348C887.922 449.515 886.505 448.026 884.891 446.329C880.962 450.53 877.454 454.281 873.436 458.518ZM897.209 350.934C899.26 350.934 901.311 350.934 904.377 350.934C901.154 343.671 898.629 337.98 895.968 331.981C893.77 333.074 892.06 333.923 890.062 334.916C892.442 340.309 894.641 345.288 897.209 350.934ZM904.053 434.746C902.752 433.338 901.451 431.929 899.925 430.276C895.595 434.932 891.68 439.141 887.638 443.488C889.303 445.265 890.634 446.686 892.378 448.549C896.476 444.008 900.346 439.719 904.053 434.746ZM885.115 355.93C882.932 350.955 880.749 345.979 878.414 340.655C876.305 341.761 874.622 342.643 872.706 343.648C875.315 349.6 877.747 355.149 880.71 361.906C882.704 359.67 884.052 358.158 885.115 355.93ZM866.122 446.308C869.119 443.033 872.117 439.758 875.254 436.331C873.574 434.544 872.18 433.061 870.559 431.337C866.236 436.163 862.307 440.547 858.078 445.268C859.696 446.801 860.995 448.03 862.521 449.475C863.681 448.481 864.65 447.65 866.122 446.308ZM879.038 432.104C882.728 428.124 886.417 424.143 890.311 419.942C888.58 418.033 887.208 416.52 885.582 414.727C881.312 419.552 877.41 423.962 873.056 428.881C875.203 430.333 876.849 431.446 879.038 432.104ZM880.886 442.219C879.845 441.272 878.803 440.324 877.543 439.178C873.26 443.797 869.27 448.1 865.131 452.564C866.845 454.311 868.102 455.59 869.769 457.289C872.133 454.745 874.392 452.571 876.339 450.147C878.19 447.842 879.715 445.275 880.886 442.219ZM767.67 420.332C769.977 425.555 772.283 430.779 774.645 436.13C776.654 435.053 778.215 434.217 780.099 433.208C777.506 427.31 775.028 421.672 772.219 415.28C770.143 417.16 768.782 418.392 767.67 420.332ZM763.415 410.532C764.017 411.649 764.62 412.765 765.338 414.098C767.175 413.159 768.73 412.364 770.545 411.436C767.907 405.444 765.412 399.776 762.799 393.841C760.779 394.953 759.256 395.792 757.556 396.728C759.522 401.34 761.332 405.586 763.415 410.532ZM896.876 427.436C895.616 426.04 894.356 424.644 892.83 422.953C888.509 427.494 884.595 431.607 880.544 435.865C882.274 437.69 883.504 438.987 885.107 440.678C889.075 436.384 892.863 432.284 896.876 427.436Z" fill="#E8C097"/>
<path d="M287.891 474.662C272.657 459.841 271.49 442.081 277.27 423.605C285.77 396.432 306.007 381.725 332.908 376.324C357.787 371.329 380.771 376.335 400.664 393.15C420.251 409.706 427.592 440.124 416.259 460.493C410.928 470.075 402.741 475.516 391.415 475.033C384.076 474.721 379.846 470.281 379.497 462.922C379.372 460.263 379.559 457.588 379.4 454.932C379.135 450.487 376.542 447.834 372.513 448.034C368.209 448.247 365.833 450.782 365.498 454.999C365.288 457.644 365.302 460.341 365.548 462.983C366.559 473.809 357.18 480.737 346.16 479.656C336.372 478.696 331.85 473.424 331.2 463.548C331.069 461.558 330.797 459.578 330.607 457.592C330.25 453.852 327.848 451.205 324.512 451.728C321.931 452.133 318.5 454.514 317.66 456.822C316.501 460.007 317.385 463.95 317.465 467.567C317.634 475.239 313.515 479.673 305.903 480.22C299.277 480.696 293.392 478.965 287.891 474.662Z" fill="#A26C40"/>
<path d="M69.8157 660.56C62.4023 631.036 61.9146 602.063 72.7723 573.656C85.3803 540.67 109.806 522.547 144.607 518.154C163.633 515.752 182.533 517.004 201.232 521.054C221.267 525.394 231.283 545.672 222.882 564.471C220.219 570.431 215.632 574.058 209.335 575.095C204.933 575.821 200.397 575.892 195.917 575.942C184.593 576.07 173.244 575.557 161.948 576.141C138.673 577.343 125.806 589.172 122.648 612.229C120.701 626.447 122.043 640.517 127.181 654.036C133.124 669.676 144.389 677.973 161.084 677.853C168.629 677.799 176.187 675.927 183.683 674.572C187.282 673.921 188.944 671.415 188.435 667.587C188.04 664.617 187.87 661.618 187.63 658.629C187.064 651.575 187.029 651.54 179.782 652.31C178.953 652.398 178.129 652.522 177.3 652.608C162.124 654.175 155.932 649.115 154.554 634.026C152.74 614.154 156.925 608.783 176.643 606.632C190.386 605.133 204.173 603.992 217.958 602.922C229.584 602.02 236.694 607.612 237.673 619.168C239.629 642.243 241.219 665.352 242.656 688.467C243.416 700.692 237.255 709.021 226.519 714.264C209.098 722.771 190.516 726.937 171.382 729.15C157.495 730.756 143.734 730.307 130.24 726.596C105.096 719.68 88.1356 703.184 77.2101 680.073C74.3036 673.925 72.3304 667.336 69.8157 660.56Z" fill="white"/>
<path d="M299.163 714.864C294.056 715.252 289.41 715.786 284.752 715.92C273.243 716.251 266.431 710.289 265.521 698.85C261.227 644.874 256.972 590.894 252.841 536.905C251.811 523.445 258.847 515.041 272.197 513.99C295.938 512.12 319.693 510.245 343.479 509.227C352.006 508.863 360.807 510.22 369.19 512.097C391.589 517.111 405.705 531.058 410.873 553.558C414.776 570.551 415.157 587.558 409.724 604.366C405.722 616.744 398.071 626.296 387.019 633.146C385.785 633.911 384.625 634.795 383.124 635.836C393.317 650.813 403.328 665.512 413.321 680.224C414.535 682.011 415.805 683.786 416.786 685.702C421.232 694.384 417.949 704.066 408.461 705.848C397.45 707.917 386.02 708.283 374.767 708.334C368.186 708.364 363.843 703.462 360.462 697.905C351.032 682.408 341.442 667.009 331.895 651.584C330.001 648.525 323.258 646.931 320.612 649.224C319.64 650.067 319.354 652.172 319.423 653.671C319.977 665.654 320.775 677.625 321.336 689.608C322.221 708.521 318.642 712.613 299.163 714.864ZM327.405 604.437C332.807 603.6 338.435 603.455 343.563 601.779C353.683 598.472 358.531 588.918 356.89 577.298C355.226 565.521 349.229 559.475 337.667 558.938C331.218 558.639 324.721 559.481 318.242 559.69C314.784 559.802 313.639 561.44 313.884 564.799C314.635 575.09 315.141 585.4 315.872 595.692C316.556 605.322 316.629 605.317 327.405 604.437Z" fill="white"/>
<path d="M823.182 687.592C821.31 702.053 816.204 706.531 802.016 705.944C766.73 704.486 731.448 702.946 696.171 701.293C682.232 700.641 676.755 694.65 676.793 680.784C676.801 677.619 676.867 674.452 676.801 671.288C676.605 661.769 679.405 653.549 685.52 645.962C708.72 617.175 731.563 588.098 754.513 559.109C755.803 557.478 756.849 555.654 758.512 553.169C756.296 552.724 754.942 552.27 753.57 552.203C736.931 551.399 720.294 550.54 703.648 549.923C686.895 549.302 681.54 543.899 681.746 527.325C681.775 524.993 681.708 522.658 681.795 520.328C682.267 507.63 688.902 500.85 701.623 500.954C716.612 501.078 731.604 501.592 746.58 502.26C765.217 503.092 783.848 504.095 802.463 505.318C822.598 506.64 827.6 513.048 827.435 533.186C827.312 548.144 822.441 560.293 812.777 571.722C791.273 597.153 770.664 623.34 749.7 649.227C748.369 650.87 747.123 652.581 745.168 655.134C747.762 655.509 749.423 655.884 751.099 655.97C768.568 656.859 786.042 657.66 803.51 658.571C818.95 659.375 824.014 664.893 823.495 680.149C823.416 682.479 823.31 684.809 823.182 687.592Z" fill="white"/>
<path d="M659.446 695.051C659.17 695.245 658.894 695.439 658.213 696.018C652.977 700.445 647.127 700.623 641.285 700.657C613.338 700.82 585.391 700.936 557.444 701.068C550.284 701.055 543.123 701.115 535.964 701.011C523.098 700.826 517.647 694.78 516.432 682.027C514.812 665.025 519.248 650.861 529.96 637.188C550.182 611.377 568.913 584.398 588.249 557.894C590.079 555.386 591.81 552.806 594.203 549.375C591.175 549.008 589.143 548.543 587.112 548.55C570.781 548.604 554.45 548.788 538.119 548.85C522.734 548.909 517.332 543.621 516.947 528.319C516.884 525.821 516.77 523.323 516.735 520.824C516.548 507.75 523.097 500.459 536.227 499.892C550.042 499.295 563.879 498.968 577.706 498.951C597.869 498.925 618.032 499.263 638.194 499.498C640.686 499.527 643.207 499.691 645.658 500.118C655.279 501.79 661.133 508.091 661.604 517.822C661.933 524.634 662.481 531.635 661.305 538.264C660.178 544.619 658.158 551.471 654.454 556.608C633.023 586.329 610.973 615.603 589.151 645.042C587.591 647.146 586.178 649.359 584.072 652.432C586.832 652.699 588.682 653.024 590.534 653.035C608.198 653.149 625.863 653.139 643.526 653.306C657.717 653.441 663.155 658.953 663.085 673.163C663.059 678.476 662.509 683.787 661.964 689.756C660.968 691.959 660.207 693.505 659.446 695.051Z" fill="white"/>
<path d="M1015.95 530.717C1023.21 551.029 1030.27 571.015 1037.34 591.002C1037.87 591.017 1038.4 591.032 1038.93 591.048C1040.12 589.404 1041.47 587.853 1042.47 586.102C1050.87 571.352 1059.16 556.542 1067.57 541.798C1074.02 530.494 1079.9 527.696 1092.65 529.614C1097.92 530.407 1103.19 531.157 1108.45 532.003C1125.62 534.765 1131.57 547.15 1122 561.754C1103.19 590.441 1083.76 618.715 1064.89 647.361C1062.27 651.338 1060.42 656.345 1059.87 661.069C1057.99 676.942 1056.78 692.896 1055.46 708.831C1054.28 723.152 1047.65 728.809 1033.54 727.246C1027.91 726.623 1022.27 726.09 1016.68 725.265C1005.09 723.559 999.67 717.169 1000.36 705.411C1001.32 688.951 1002.5 672.499 1003.95 656.076C1004.46 650.377 1003.42 645.41 1001.06 640.225C986.54 608.286 972.281 576.229 957.962 544.2C957.081 542.229 956.268 540.202 955.69 538.127C952.7 527.406 958.884 517.415 969.946 517.215C980.858 517.017 991.857 518.367 1002.72 519.814C1008.74 520.617 1013.18 524.671 1015.95 530.717Z" fill="white"/>
<path d="M843.532 643.105C845.581 604.381 847.563 566.136 849.668 527.898C850.375 515.058 857.082 508.703 869.818 508.915C877.133 509.037 884.474 509.508 891.738 510.371C904.026 511.831 910.111 518.994 909.421 531.419C908.46 548.709 907.1 565.978 905.851 583.251C904.061 607.999 902.315 632.751 900.304 657.481C899.944 661.911 901.335 663.265 905.602 663.615C921.865 664.951 938.104 666.589 954.347 668.171C969.073 669.606 974.272 675.846 973.124 690.579C972.852 694.065 972.588 697.552 972.242 701.031C971.125 712.276 965.481 717.593 954.198 717.175C944.892 716.83 935.608 715.793 926.321 714.992C904.426 713.105 882.528 711.253 860.645 709.237C845.903 707.879 840.568 701.465 841.328 686.491C842.053 672.189 842.784 657.888 843.532 643.105Z" fill="white"/>
<path d="M495.092 630.167C495.45 648.136 495.751 665.622 496.136 683.106C496.432 696.52 490.196 703.33 476.903 703.914C471.08 704.17 465.256 704.417 459.431 704.614C447.166 705.029 440.201 698.861 439.624 686.604C438.463 661.982 437.522 637.35 436.477 612.723C435.27 584.269 434.048 555.816 432.833 527.362C432.776 526.031 432.691 524.7 432.671 523.368C432.476 510.412 438.583 503.395 451.535 502.336C458.996 501.725 466.514 501.529 474.002 501.6C485.504 501.708 492.158 508.833 492.487 521.287C493.23 549.425 493.833 577.566 494.495 605.706C494.683 613.698 494.879 621.69 495.092 630.167Z" fill="white"/>
<path d="M1091.27 396.655C1088.4 414.26 1082.89 430.404 1072.24 444.353C1062.76 456.763 1051.03 465.477 1034.42 465.166C1019.13 464.879 1006.07 454.871 1001.95 440.206C999.846 432.737 1002.13 430.011 1009.84 430.803C1016.24 431.461 1020.74 428.417 1020.65 423.434C1020.58 419.734 1018.73 417.518 1014.98 417.089C1014 416.976 1012.99 417.014 1011.99 417.035C998.168 417.319 992.985 407.856 996.059 394.728C997.425 388.898 1001.3 386.987 1007.05 388.479C1009.3 389.065 1011.51 389.881 1013.79 390.311C1017.98 391.101 1021.5 389.01 1022.23 385.281C1023.04 381.081 1020.68 378.658 1017.08 377.299C1015.22 376.6 1013.18 376.41 1011.28 375.832C1004.32 373.723 1000.98 368.243 1002.71 361.166C1003.41 358.309 1004.67 355.461 1006.26 352.975C1009.92 347.221 1013.9 346.05 1020.32 348.439C1022.81 349.366 1025.17 350.688 1027.68 351.549C1031.31 352.794 1034.64 352.577 1036.6 348.598C1038.31 345.138 1037 341.509 1033.16 339.378C1031.13 338.247 1028.96 337.361 1026.86 336.357C1021.38 333.744 1020.56 330.215 1024.65 325.483C1031.7 317.314 1040.79 314.52 1051.22 316.503C1066.59 319.424 1076.39 329.532 1083.2 342.801C1090.91 357.834 1093.74 373.883 1091.68 390.728C1091.46 392.544 1091.44 394.385 1091.27 396.655Z" fill="#A26C40"/>
<path d="M1038.75 240.805C1037.33 258.715 1035.96 276.629 1034.37 294.525C1034.27 295.718 1032.74 297.38 1031.53 297.789C1015.46 303.203 1004.71 313.372 1001.32 330.492C1001.11 331.563 999.985 332.676 998.995 333.338C985.353 342.457 979.617 357.678 983.714 373.39C984.157 375.088 983.675 377.652 982.606 379.019C974.305 389.63 972.832 406.395 979.835 418.067C981.784 421.315 982.21 424.035 981.215 427.763C978.714 437.123 981.149 445.989 985.925 454.085C988.293 458.101 987.228 459.946 983.707 462.331C967.718 473.161 951.916 484.264 935.709 494.92C936.792 478.738 938.104 462.896 939.663 447.077C941.106 432.423 942.873 417.802 944.387 403.154C945.868 388.828 947.137 374.479 948.633 360.155C950.145 345.674 952.272 331.242 953.277 316.73C954.049 305.588 956.749 297.122 967.416 290.568C985.191 279.649 1001.64 266.58 1018.71 254.497C1025.31 249.821 1032.07 245.362 1038.75 240.805Z" fill="#B58154"/>
<path d="M960.46 211.934C970.67 214.193 980.907 216.344 991.086 218.738C1005.81 222.201 1020.49 225.841 1035.1 229.836C1034.03 230.918 1033.06 231.554 1032.1 232.225C1005.67 250.814 979.264 269.454 952.738 287.916C950.476 289.49 947.113 291.138 944.726 290.618C919.367 285.098 894.102 279.145 869.038 272.988C870.004 271.999 870.671 271.22 871.496 270.683C896.153 254.613 920.848 238.601 945.479 222.492C950.589 219.15 955.472 215.462 960.46 211.934Z" fill="#E9C097"/>
<path d="M868.812 273.311C894.102 279.145 919.367 285.097 944.726 290.618C947.113 291.137 950.476 289.489 952.738 287.915C979.264 269.454 1005.67 250.814 1032.1 232.224C1033.06 231.553 1034.03 230.917 1035.33 230.141C1040.77 232.068 1039.27 236.299 1038.87 240.465C1032.07 245.364 1025.31 249.823 1018.71 254.499C1001.64 266.582 985.191 279.651 967.416 290.57C956.749 297.124 954.048 305.589 953.277 316.732C952.272 331.244 950.145 345.676 948.633 360.157C947.137 374.481 945.868 388.83 944.387 403.156C942.873 417.803 941.106 432.425 939.663 447.079C938.104 462.897 936.792 478.74 935.381 495.082C931.604 496.597 927.817 497.603 923.746 498.37C926.467 470.209 929.496 442.289 932.474 414.364C935.717 383.959 938.922 353.55 942.118 323.14C942.708 317.519 943.569 311.88 943.49 306.261C943.462 304.226 941.378 300.814 939.677 300.419C914.924 294.674 890.077 289.334 864.563 283.666C859.542 282.398 855.228 281.28 850.875 280.339C839.412 277.86 827.932 275.459 816.459 273.027C800.93 269.365 785.404 265.688 769.87 262.047C760.96 259.959 752.037 257.928 742.704 255.845C742.128 251.193 743.944 247.799 749.022 246.272C762.62 249.52 775.558 252.645 788.552 255.522C798.754 257.781 809.024 259.735 819.609 262.037C836.24 265.937 852.526 269.624 868.812 273.311Z" fill="#84552E"/>
<path d="M819.264 261.822C809.024 259.732 798.754 257.779 788.552 255.52C775.558 252.642 762.62 249.517 749.359 246.222C781.778 229.665 814.738 213.85 847.085 196.868C859.25 190.481 870.543 188.664 883.573 192.996C893.464 196.285 903.89 197.966 914.178 200.859C886.859 218.23 859.399 235.038 832.06 252.042C827.523 254.864 823.516 258.54 819.264 261.822Z" fill="#E9C298"/>
<path d="M819.609 262.036C823.516 258.541 827.523 254.865 832.06 252.043C859.399 235.039 886.859 218.231 914.503 201.066C929.786 204.332 944.844 207.889 960.181 211.689C955.472 215.461 950.589 219.149 945.479 222.491C920.848 238.6 896.153 254.612 871.496 270.681C870.671 271.219 870.004 271.998 869.038 272.987C852.526 269.623 836.24 265.936 819.609 262.036Z" fill="#B58256"/>
<path d="M185.118 837.383C182.509 816.301 179.726 795.687 177.522 775.012C176.141 762.054 181.379 756.325 194.506 754.931C201.785 754.158 209.06 753.344 216.334 752.533C223.837 751.696 229.764 754.104 233.55 760.89C244.178 779.944 254.791 799.007 265.421 818.061C266.282 819.606 267.223 821.106 268.553 823.346C269.421 821.118 270.058 819.671 270.556 818.178C277.295 797.953 284.175 777.774 290.666 757.47C293.471 748.696 299.05 744.293 308.112 743.756C315.254 743.332 322.373 742.516 329.516 742.101C340.853 741.441 347.321 746.82 348.181 757.992C350.086 782.722 351.706 807.473 353.531 832.209C355.307 856.274 357.115 880.337 359.072 904.388C359.842 913.85 355.572 919.974 346.254 921.335C340.664 922.151 334.997 922.641 329.351 922.819C320.254 923.106 315.06 918.293 314.259 909.106C312.208 885.557 310.233 862.001 308.224 838.448C308.174 837.856 308.09 837.268 307.066 836.473C305.177 841.652 303.219 846.807 301.414 852.015C297.268 863.972 293.071 875.914 289.146 887.944C287.17 893.998 283.165 896.522 277.029 897.284C269.806 898.182 263.544 898.151 259.473 890.62C252.106 876.997 244.401 863.556 236.823 850.047C235.724 848.087 234.544 846.173 232.23 844.605C233.09 853.421 233.867 862.246 234.828 871.051C236.526 886.605 238.408 902.138 240.067 917.695C240.892 925.429 236.467 931.38 228.624 932.773C222.739 933.818 216.749 934.453 210.779 934.789C202.475 935.257 196.564 930.204 195.449 921.553C192.643 899.772 190.075 877.96 187.414 856.16C186.668 850.049 185.93 843.937 185.118 837.383Z" fill="#B77F4F"/>
<path d="M642.713 773.912C645.181 786.957 644.702 799.55 641.836 812.001C638.632 825.923 631.241 837.039 618.138 844.283C621.035 849.595 623.742 854.516 626.409 859.458C632.183 870.159 638.074 880.8 643.663 891.597C649.578 903.026 644.442 911.648 631.648 911.988C625.819 912.143 619.981 912.069 614.149 911.985C607.273 911.886 602.58 908.443 599.651 902.321C592.391 887.15 584.961 872.058 577.898 856.797C576.183 853.092 573.379 852.725 570.617 853.7C569.219 854.194 567.863 857.073 567.856 858.88C567.81 871.204 568.224 883.53 568.299 895.856C568.368 907.33 563.711 911.99 552.34 912.152C547.341 912.224 542.333 912.413 537.344 912.202C529.894 911.887 525.285 907.551 524.41 900.163C523.959 896.364 523.755 892.524 523.669 888.698C522.793 849.718 521.976 810.737 521.111 771.757C520.945 764.264 520.476 756.774 520.439 749.282C520.384 738.198 526.292 732.011 537.248 731.933C556.056 731.799 574.913 731.133 593.662 732.206C611.336 733.217 626.84 740.082 636.144 756.323C639.146 761.565 640.516 767.743 642.713 773.912ZM566.697 798.509C566.697 803.58 566.697 808.651 566.697 813.926C573.278 813.926 578.626 814.427 583.843 813.813C592.544 812.789 597.693 807.677 599.007 799.034C599.573 795.314 599.512 791.344 598.886 787.63C597.462 779.191 592.042 774.512 583.512 773.952C579.368 773.68 575.185 774.008 571.036 773.775C567.419 773.572 566.416 775.223 566.518 778.544C566.711 784.865 566.65 791.194 566.697 798.509Z" fill="#B77F4F"/>
<path d="M751.747 809.363C744.877 816.322 745.792 822.683 750.082 830.85C761.46 852.508 771.7 874.766 782.284 896.837C787.774 908.287 782.308 916.907 769.564 916.842C763.077 916.809 756.575 916.433 750.112 915.852C743.451 915.253 738.859 911.682 735.917 905.537C727.213 887.358 718.29 869.284 709.439 851.176C708.736 849.737 707.93 848.35 706.541 845.766C706.168 850.633 705.763 854.187 705.645 857.75C705.198 871.236 704.897 884.727 704.436 898.212C704.092 908.31 699.077 913.136 689.06 913.155C684.395 913.164 679.728 913.108 675.065 912.972C665.023 912.677 659.715 907.874 659.758 897.841C659.854 875.686 660.446 853.533 660.862 831.38C660.972 825.552 661.234 819.727 661.334 813.898C661.713 791.909 662.035 769.92 662.417 747.931C662.608 736.941 667.812 731.799 678.825 731.732C683.99 731.7 689.162 731.71 694.319 731.952C703.87 732.402 708.777 737.286 708.685 746.813C708.545 761.301 708.002 775.785 707.646 790.272C707.597 792.242 707.639 794.214 708.523 796.684C710.206 794.005 711.909 791.337 713.568 788.643C722.742 773.75 732.024 758.922 741.022 743.924C745.404 736.62 751.489 733.773 759.843 734.649C764.967 735.186 770.167 734.949 775.323 735.227C788.738 735.95 793.833 745.814 786.476 757.01C775.042 774.41 763.461 791.713 751.747 809.363Z" fill="#B77F4F"/>
<path d="M502.857 866.597C505.897 876.708 508.942 886.403 511.684 896.182C514.396 905.852 509.691 912.434 499.809 913.053C493.992 913.417 488.165 913.705 482.338 913.802C474.219 913.937 469.484 910.528 467.115 902.831C465.401 897.264 463.867 891.635 462.452 885.984C461.755 883.202 460.312 882.236 457.471 882.404C446.667 883.042 435.857 883.66 425.041 883.947C421.654 884.036 420.309 885.318 419.844 888.455C419.041 893.884 418.103 899.298 417.074 904.69C415.413 913.401 411.416 917.061 402.579 917.784C396.607 918.272 390.613 918.633 384.623 918.73C375.5 918.877 369.909 911.897 371.806 902.703C379.774 864.088 387.818 825.49 395.852 786.889C398.36 774.838 400.952 762.805 403.455 750.753C405.396 741.405 410.921 736.468 420.323 735.995C429.139 735.551 437.958 735.153 446.78 734.889C457.842 734.559 462.648 737.869 465.984 748.416C473.669 772.707 481.218 797.042 488.803 821.365C493.463 836.31 498.089 851.266 502.857 866.597ZM434.503 796.641C431.713 812.395 428.923 828.148 426.187 843.601C434.997 843.601 442.962 843.601 451.753 843.601C446.634 825.09 441.821 807.689 437.008 790.288C436.615 790.375 436.222 790.462 435.829 790.548C435.42 792.306 435.012 794.063 434.503 796.641Z" fill="#B77F4F"/>
<path d="M804.547 781.262C805.161 771.823 805.771 762.857 806.361 753.89C807.054 743.35 813.081 737.559 823.627 738.288C848.694 740.021 873.742 742.03 898.784 744.089C906.658 744.737 911.309 749.704 911.304 757.61C911.301 763.582 910.857 769.61 909.947 775.511C908.664 783.832 903.902 787.62 895.272 787.134C881.982 786.386 868.708 785.314 855.448 784.14C851.241 783.768 849.342 784.782 849.358 789.385C849.376 795.031 848.766 800.687 848.256 806.323C848.001 809.142 849.028 810.062 851.836 810.267C862.62 811.053 873.384 812.119 884.159 813.029C893.23 813.795 897.758 818.704 897.38 827.739C897.179 832.556 896.825 837.38 896.255 842.167C895.28 850.354 890.412 854.551 881.988 854.121C871.352 853.579 860.726 852.765 850.117 851.819C846.001 851.452 844.417 852.813 844.403 856.978C844.387 862.129 844.162 867.33 843.397 872.414C842.601 877.708 844.755 878.753 849.598 879.066C862.876 879.924 876.138 881.213 889.359 882.746C898.317 883.784 901.836 888.128 901.616 897.211C901.487 902.524 901.035 907.856 900.308 913.12C899.147 921.528 894.242 925.618 885.386 925.062C871.273 924.176 857.189 922.827 843.093 921.668C832.978 920.836 822.872 919.863 812.746 919.194C801.537 918.453 796.706 913.622 797.247 902.33C798.202 882.382 799.464 862.448 800.678 842.514C801.912 822.251 803.244 801.995 804.547 781.262Z" fill="#B77F4F"/>
<path d="M952.618 748.919C977.873 751.763 1002.69 754.404 1027.46 757.476C1036.96 758.654 1041.46 765.468 1040.14 774.987C1039.57 779.104 1039.12 783.238 1038.58 787.36C1037.24 797.648 1031.56 801.951 1021.41 800.587C1016.14 799.878 1010.79 799.645 1005.55 798.739C1002.34 798.182 1001.44 799.287 1001.12 802.211C999.667 815.274 998.05 828.318 996.529 841.373C993.429 867.979 990.428 894.597 987.227 921.192C986.01 931.303 980.216 935.773 970.061 934.863C965.59 934.462 961.13 933.892 956.682 933.277C947.034 931.943 942.636 927.191 943.301 917.492C944.085 906.044 945.615 894.645 946.884 883.231C950.028 854.945 953.175 826.66 956.416 798.385C956.826 794.806 956.371 792.839 952.033 792.718C946.731 792.568 941.459 791.514 936.159 791.006C926.359 790.066 922.008 785.517 922.24 775.795C922.362 770.646 922.73 765.47 923.468 760.376C924.87 750.691 931.015 746.325 940.753 747.61C944.546 748.111 948.358 748.466 952.618 748.919Z" fill="#B77F4F"/>
<path d="M88.9012 777.603C102.904 783.035 116.575 788.253 130.195 793.6C137.042 796.288 140.094 802.748 137.834 809.256C135.564 815.797 129.764 818.881 122.58 816.652C105.429 811.329 88.3248 805.846 71.3041 800.123C63.6285 797.542 60.487 789.989 63.2213 782.291C65.7071 775.292 72.7577 771.868 80.1736 774.209C83.0214 775.108 85.7594 776.354 88.9012 777.603Z" fill="#B77F4F"/>
<path d="M1090.49 784.106C1095.63 782.031 1100.36 779.943 1105.21 778.184C1112.45 775.558 1119.05 778.295 1121.84 784.841C1124.88 791.975 1122.32 800.288 1115.19 802.952C1099.28 808.895 1083.19 814.352 1067.04 819.607C1061.12 821.533 1055.58 818.069 1053.54 812.286C1051.44 806.357 1054.06 799.68 1059.8 797.161C1069.86 792.742 1080.02 788.536 1090.49 784.106Z" fill="#B77F4F"/>
<path d="M137.537 847.495C143.432 849.817 145.711 854.125 145.67 859.79C145.629 865.4 142.782 869.103 137.609 871.221C124.526 876.577 111.524 882.136 98.394 887.374C89.7977 890.804 82.1729 887.786 79.3422 880.266C76.5625 872.882 79.8099 864.94 87.3154 862.248C101.561 857.137 115.919 852.335 130.3 847.617C132.39 846.931 134.863 847.412 137.537 847.495Z" fill="#B77F4F"/>
<path d="M1097.18 891.132C1094.64 890.805 1092.37 890.849 1090.45 890.033C1077.3 884.421 1064.17 878.739 1051.14 872.841C1045.69 870.373 1043.35 864.982 1044.53 859.144C1045.61 853.798 1049.85 849.551 1055.03 849.303C1057.42 849.188 1059.98 849.815 1062.28 850.63C1074.66 855.028 1086.98 859.586 1099.32 864.099C1106.65 866.779 1109.94 871.407 1109.43 878.261C1108.93 884.952 1104.85 889.381 1097.18 891.132Z" fill="#B77F4F"/>
<path d="M557.738 701.362C585.391 700.937 613.338 700.821 641.285 700.658C647.127 700.624 652.977 700.446 658.133 696.266C657.978 697.292 657.696 699.32 656.987 699.482C652.106 700.596 647.157 701.49 642.187 702.12C637.931 702.659 633.619 702.981 629.329 703.004C611.833 703.1 594.334 703.164 576.84 702.981C570.567 702.916 564.301 702.118 557.738 701.362Z" fill="#1C1513"/>
<path d="M659.792 695.012C660.207 693.507 660.968 691.961 661.954 690.184C661.498 691.626 660.818 693.299 659.792 695.012Z" fill="#1C1513"/>
<path d="M374.221 122.152C377.085 111.999 383.665 106.205 393.362 104.097C403.48 101.897 411.583 105.81 418.121 113.383C422.864 118.877 422.086 120.89 416.491 125.231C407.468 132.232 398.73 139.649 390.358 147.414C386.905 150.616 384.422 150.587 381.529 147.603C374.716 140.574 371.723 132.341 374.221 122.152Z" fill="#241A0F"/>
<path d="M722.017 112.412C714.537 108.403 707.267 104.755 700.265 100.649C698.67 99.7136 696.667 96.6889 697.122 95.4885C700.296 87.1317 706.253 81.2453 715.012 78.8636C723.344 76.5981 730.795 78.4753 736.883 84.8429C744.625 92.9401 744.738 107.383 737.251 115.877C734.524 118.971 731.934 120.147 728.449 116.874C726.655 115.189 724.381 114.014 722.017 112.412Z" fill="#241A0F"/>
<path d="M863.437 408.589C853.559 430.245 824.532 435.428 806.515 418.752C791.015 404.405 787.242 382.822 797.223 364.203C797.426 365.383 797.405 366.382 797.273 367.366C795.94 377.304 800.423 386.265 808.926 390.618C816.525 394.508 822.574 393.077 830.733 385.461C838.872 377.862 851.401 379.043 858.372 387.883C863.253 394.073 864.019 401.133 863.437 408.589Z" fill="#2A4575"/>
<path d="M863.726 408.329C864.018 401.135 863.253 394.075 858.372 387.886C851.401 379.046 838.872 377.865 830.732 385.463C822.574 393.08 816.525 394.51 808.926 390.62C800.423 386.267 795.939 377.306 797.273 367.369C797.405 366.384 797.426 365.386 797.485 363.926C804.489 350.543 815.467 343.857 830.041 344.384C846.726 344.988 857.956 354.448 864.779 369.047C870.827 381.988 870.444 395.181 863.726 408.329Z" fill="#B34033"/>
<path d="M816.417 273.445C827.932 275.458 839.412 277.859 850.875 280.338C855.228 281.279 859.543 282.397 864.142 283.693C863.754 291.522 863.124 299.096 862.431 306.664C862.145 309.791 860.186 311.087 857.284 310.434C844.054 307.46 830.825 304.47 817.684 301.138C816.276 300.781 814.447 298.12 814.509 296.597C814.819 289.007 815.697 281.44 816.417 273.445Z" fill="#B68256"/>
<path d="M899.511 364.875C901.235 368.869 902.822 372.507 904.566 376.505C902.776 377.497 901.112 378.42 898.895 379.649C892.992 366.188 887.228 353.045 881.331 339.597C883.284 338.491 884.954 337.546 887.086 336.34C891.312 346.03 895.343 355.275 899.511 364.875Z" fill="#2A2014"/>
<path d="M767.777 391.421C769.806 390.375 771.409 388.679 772.749 391.886C777.921 404.256 783.245 416.563 788.654 429.226C786.82 430.134 785.244 430.914 783.034 432.008C781.081 427.454 779.233 423.105 777.352 418.77C774.05 411.158 770.656 403.583 767.486 395.916C766.977 394.684 767.43 393.053 767.777 391.421Z" fill="#2A2014"/>
<path d="M760.454 428.06C756.603 418.851 752.888 409.998 749.015 400.772C750.791 399.791 752.32 398.946 754.479 397.754C760.207 411.043 765.814 424.053 771.58 437.433C769.64 438.415 767.911 439.29 765.787 440.366C763.99 436.234 762.29 432.325 760.454 428.06Z" fill="#281F13"/>
<path d="M772.663 320.27C776.398 316.012 779.896 312.019 783.798 307.566C785.379 309.267 786.776 310.77 788.444 312.565C779.636 322.574 770.995 332.394 762.1 342.502C760.445 340.727 759.125 339.312 757.642 337.721C762.703 331.839 767.565 326.186 772.663 320.27Z" fill="#291E12"/>
<path d="M771.656 337.27C778.144 329.907 784.399 322.813 790.964 315.367C792.47 316.954 793.802 318.356 795.505 320.15C786.667 330.159 777.934 340.049 769.04 350.121C767.435 348.43 766.187 347.115 764.483 345.32C766.86 342.656 769.142 340.098 771.656 337.27Z" fill="#2B1F13"/>
<path d="M781.317 341.923C786.8 335.684 792.048 329.711 797.802 323.16C799.413 324.797 800.731 326.135 802.377 327.806C793.44 337.958 784.908 347.649 775.995 357.774C774.627 355.963 773.478 354.444 772.007 352.498C774.779 349.349 777.93 345.769 781.317 341.923Z" fill="#261C11"/>
<path d="M901.538 360.934C898.512 355.399 903.239 356.072 906.018 354.445C908.672 360.468 911.178 366.156 913.859 372.239C911.748 373.27 910.039 374.104 907.903 375.147C905.732 370.305 903.711 365.797 901.538 360.934Z" fill="#261D13"/>
<path d="M885.305 373.216C884.214 370.597 883.262 368.332 882.153 365.695C884.053 364.717 885.738 363.851 887.75 362.816C890.55 368.957 893.15 374.658 895.968 380.837C894.226 381.764 892.541 382.661 890.251 383.88C888.59 380.318 887.017 376.944 885.305 373.216Z" fill="#2A2014"/>
<path d="M873.69 458.275C877.453 454.281 880.962 450.529 884.89 446.328C886.505 448.025 887.922 449.515 889.665 451.347C885.406 455.862 881.342 460.171 876.347 465.465C875.167 462.649 874.301 460.583 873.69 458.275Z" fill="#2C2114"/>
<path d="M897.024 350.6C894.641 345.287 892.442 340.307 890.062 334.915C892.06 333.922 893.77 333.073 895.968 331.98C898.629 337.979 901.154 343.67 904.377 350.933C901.311 350.933 899.26 350.933 897.024 350.6Z" fill="#312518"/>
<path d="M904.134 435.087C900.346 439.717 896.476 444.006 892.378 448.547C890.633 446.684 889.302 445.263 887.638 443.486C891.68 439.139 895.595 434.93 899.925 430.273C901.451 431.927 902.752 433.336 904.134 435.087Z" fill="#291E12"/>
<path d="M885.258 356.285C884.052 358.155 882.704 359.667 880.71 361.903C877.747 355.146 875.315 349.597 872.706 343.645C874.623 342.64 876.305 341.758 878.414 340.652C880.749 345.976 882.932 350.952 885.258 356.285Z" fill="#292116"/>
<path d="M865.87 446.562C864.65 447.648 863.681 448.479 862.521 449.474C860.995 448.029 859.696 446.799 858.078 445.267C862.307 440.546 866.235 436.162 870.559 431.336C872.18 433.06 873.574 434.543 875.254 436.33C872.117 439.757 869.119 443.032 865.87 446.562Z" fill="#261D13"/>
<path d="M878.767 432.331C876.849 431.445 875.203 430.332 873.056 428.881C877.409 423.961 881.312 419.551 885.582 414.727C887.207 416.519 888.58 418.033 890.31 419.941C886.417 424.143 882.727 428.123 878.767 432.331Z" fill="#2C2114"/>
<path d="M881.135 442.519C879.715 445.273 878.19 447.84 876.339 450.145C874.392 452.569 872.133 454.743 869.769 457.286C868.102 455.588 866.845 454.308 865.13 452.562C869.27 448.098 873.26 443.794 877.543 439.176C878.803 440.322 879.845 441.269 881.135 442.519Z" fill="#2A1F11"/>
<path d="M767.546 419.975C768.782 418.389 770.143 417.157 772.219 415.277C775.028 421.67 777.506 427.307 780.099 433.205C778.215 434.214 776.654 435.05 774.645 436.127C772.283 430.776 769.977 425.553 767.546 419.975Z" fill="#2C2114"/>
<path d="M763.279 410.181C761.332 405.585 759.522 401.338 757.556 396.727C759.256 395.791 760.779 394.952 762.799 393.84C765.412 399.775 767.907 405.442 770.545 411.435C768.73 412.362 767.175 413.157 765.338 414.096C764.62 412.764 764.017 411.647 763.279 410.181Z" fill="#2F2417"/>
<path d="M896.763 427.81C892.863 432.284 889.075 436.384 885.107 440.678C883.504 438.987 882.274 437.69 880.544 435.865C884.595 431.607 888.509 427.494 892.83 422.953C894.356 424.644 895.616 426.04 896.763 427.81Z" fill="#2A1F11"/>
<path d="M326.951 604.473C316.629 605.317 316.556 605.323 315.872 595.693C315.141 585.4 314.635 575.091 313.884 564.8C313.638 561.441 314.784 559.803 318.242 559.691C324.721 559.481 331.218 558.639 337.667 558.939C349.229 559.475 355.226 565.522 356.889 577.298C358.531 588.919 353.683 598.472 343.563 601.78C338.435 603.455 332.807 603.601 326.951 604.473Z" fill="#241C11"/>
<path d="M566.696 798.013C566.65 791.193 566.712 784.864 566.518 778.543C566.417 775.222 567.419 773.572 571.036 773.774C575.185 774.007 579.368 773.679 583.512 773.951C592.043 774.511 597.462 779.19 598.886 787.63C599.512 791.343 599.573 795.314 599.007 799.033C597.693 807.677 592.544 812.788 583.843 813.813C578.626 814.427 573.278 813.925 566.697 813.925C566.697 808.65 566.697 803.579 566.696 798.013Z" fill="#251B10"/>
<path d="M434.553 796.228C435.012 794.06 435.421 792.303 435.829 790.546C436.222 790.459 436.615 790.372 437.009 790.285C441.821 807.686 446.634 825.087 451.753 843.598C442.962 843.598 434.997 843.598 426.187 843.598C428.923 828.145 431.713 812.392 434.553 796.228Z" fill="#261C11"/>
</svg>
