<svg width="1184" height="1143" viewBox="0 0 1184 1143" fill="none" xmlns="http://www.w3.org/2000/svg">
<path d="M212.133 454.583C218.68 440.505 227.289 428.335 238.493 418.146C241.91 415.038 243.056 411.757 242.943 407.239C242.648 395.413 242.483 383.563 242.902 371.745C243.967 341.639 248.644 312.049 256.759 283.035C263.131 260.255 271.455 238.198 281.949 216.985C283.666 213.514 283.204 211.003 280.953 207.537C258.244 172.569 253.64 135.9 271.242 97.2456C277.114 84.3515 284.985 72.7914 294.928 62.9562C313.525 44.5616 335.746 33.0199 362.122 30.1712C393.289 26.8051 419.403 37.6193 442.294 58.0479C443.65 59.2584 446.621 59.8904 448.321 59.2985C469.545 51.906 491.3 46.7383 513.471 43.2663C534.355 39.9957 555.401 38.3694 576.506 39.3883C591.382 40.1065 606.249 41.6958 621.01 43.7038C625.287 44.2857 627.319 42.6638 629.376 40.0999C639.659 27.2825 652.274 17.3226 667.177 10.638C706.34 -6.92881 743.187 -2.90092 776.986 23.9254C798.487 40.9911 811.16 63.5665 815.552 90.4916C818.935 111.237 816.253 131.486 808.098 151.002C807.202 153.147 807.477 156.659 808.674 158.66C816.935 172.473 825.585 186.054 834.001 199.535C840.35 198.472 847.16 195.887 853.645 196.54C868.257 198.011 882.804 200.618 897.205 203.599C934.2 211.256 971.118 219.293 1008.03 227.331C1026.5 231.353 1044.94 235.544 1063.31 239.965C1078.26 243.561 1092.42 260.128 1092.65 275.409C1092.86 289.427 1091.58 303.467 1090.99 317.499C1090.85 320.661 1090.53 323.869 1090.92 326.975C1091.13 328.623 1092.32 330.838 1093.71 331.538C1112.15 340.856 1126.03 354.848 1135.54 372.979C1142.83 386.887 1147.19 401.782 1148.93 417.533C1151.74 442.801 1148.43 467.257 1139.87 490.981C1136.06 501.557 1130.91 511.651 1126.11 522.534C1129.32 524.386 1132.98 526.53 1136.67 528.623C1163.88 544.041 1179.87 567.549 1183.36 598.265C1185.07 613.27 1182.76 628.753 1182 644.007C1181.54 653.441 1180.61 662.853 1179.82 672.269C1178.55 687.455 1177.19 702.634 1175.94 717.821C1175.17 727.073 1174.63 736.344 1173.78 745.587C1172.63 758.115 1171.23 770.619 1170.03 783.142C1168.89 795.018 1167.78 806.898 1166.82 818.789C1164.82 843.463 1157.97 866.12 1139.58 883.865C1126.62 896.383 1110.91 903.516 1093.16 906.133C1090.44 906.534 1089.19 907.182 1088.77 910.212C1086.05 930.051 1083.07 949.856 1080.17 969.671C1077.65 986.856 1073.31 1003.51 1065.38 1019.06C1047.23 1054.63 1018.4 1075.94 979.174 1083.2C975.769 1083.83 972.268 1084.06 968.801 1084.21C963.226 1084.45 958.455 1086.07 954.878 1090.68C938.299 1112.07 916.278 1124.48 889.834 1128.89C878.911 1130.72 867.763 1131.25 856.702 1132.18C840.19 1133.58 823.666 1134.84 807.143 1136.1C801.354 1136.54 795.557 1136.92 789.756 1137.16C771.497 1137.9 753.237 1138.63 734.974 1139.23C712.381 1139.98 689.789 1140.95 667.189 1141.18C614.729 1141.72 562.264 1142.08 509.801 1142.07C490.205 1142.06 470.604 1140.99 451.017 1140.12C432.95 1139.33 414.878 1138.45 396.846 1137.1C373.881 1135.38 350.859 1133.9 328.038 1130.95C305.664 1128.06 284.698 1120.72 267.806 1104.71C263.724 1100.84 259.072 1097.24 256.12 1092.6C252.633 1087.11 247.691 1086.71 242.478 1086.28C218.556 1084.33 196.092 1077.95 176.092 1064.31C153.294 1048.77 137.205 1027.91 127.65 1002.02C119.217 979.176 114.932 955.39 111.801 931.356C110.988 925.12 110.344 918.857 109.82 912.589C109.483 908.555 107.82 907.226 103.538 907.03C78.6513 905.894 56.2335 898.476 38.8273 879.626C29.0608 869.049 22.6409 856.57 18.8913 842.694C11.712 816.126 12.5541 789.895 24.3688 764.908C29.1304 754.837 36.4614 745.939 43.0111 736.784C44.8693 734.187 48.0949 732.568 50.7829 730.43C41.1569 718.042 32.4821 706.959 23.8949 695.809C10.3935 678.278 2.59498 658.71 0.585365 636.433C-1.89886 608.895 3.42283 583.413 18.4888 560.387C34.8923 535.318 58.5336 520.473 87.9579 515.376C101.804 512.977 115.878 511.894 129.846 510.198C142.825 508.622 155.789 506.919 168.782 505.471C177.18 504.534 185.609 503.824 194.04 503.257C200.674 502.811 201.234 502.508 201.9 496.28C203.421 482.046 205.762 468.014 212.133 454.583ZM525.756 1119.85C552.654 1119.97 579.553 1120.16 606.451 1120.17C617.895 1120.17 629.34 1119.8 641.678 1119.84C719.989 1118.39 798.22 1115.4 876.27 1108.44C903.635 1105.99 925.776 1094.81 941.452 1071.91C945.695 1065.71 951.272 1063.02 958.754 1062.95C1000.23 1062.59 1034.01 1039.03 1048.94 1000.38C1057.55 978.098 1060.48 954.588 1063.8 931.186C1065.94 916.055 1067.43 900.832 1069.26 885.247C1074.35 885.247 1079.33 885.487 1084.27 885.207C1111.36 883.67 1132.84 866.96 1140.55 840.976C1142.66 833.847 1143.93 826.356 1144.63 818.941C1148.72 775.985 1152.69 733.017 1156.34 690.022C1158.51 664.463 1160.47 638.869 1161.71 613.251C1162.86 589.365 1154.57 569.14 1135.4 554.043C1125.51 546.253 1114.08 541.808 1101.9 539.186C1096.15 537.95 1090.33 537.053 1084.51 535.996C1084.68 535.454 1084.67 535.253 1084.77 535.159C1123.43 498.729 1134.38 453.711 1123.42 403.214C1117.52 376.006 1100.59 356.575 1073.13 347.849C1070.81 347.114 1068.43 346.597 1065.94 345.944C1066.11 343.086 1066.26 340.605 1066.41 338.123C1067.56 319.668 1068.88 301.22 1069.8 282.753C1070.37 271.188 1063.77 262.949 1052.62 260.39C1047.1 259.123 1041.59 257.831 1036.05 256.638C980.523 244.679 924.97 232.842 869.48 220.717C856.48 217.876 844.398 218.951 832.892 225.847C829.548 227.851 825.916 229.373 822.207 231.22C811.484 206.062 798.131 183.069 782.006 161.731C779.632 158.589 779.388 156.359 781.291 152.924C790.641 136.045 794.638 118.047 793.007 98.6331C788.747 47.953 736.859 12.6414 688.366 27.7837C666.921 34.4801 650.787 48.093 638.65 66.7151C637.112 69.075 635.872 70.6492 632.391 69.9404C570.946 57.4317 510.754 62.4665 451.742 83.237C447.084 84.8763 442.462 86.6157 437.925 88.2714C435.627 85.525 433.719 82.9865 431.551 80.6938C409.216 57.0719 382.133 48.3046 350.682 56.9749C292.162 73.1069 259.824 147.696 307.686 204.014C311.002 207.916 311.429 210.742 309.039 215.314C280.005 270.862 265.716 330.028 266.183 392.723C266.251 401.882 266.471 411.041 266.756 420.195C266.861 423.56 265.409 425.557 262.713 427.541C239.183 444.86 226.912 468.346 225.907 497.429C225.619 505.773 227.182 514.182 227.905 522.667C227.736 522.709 227.263 522.883 226.777 522.934C184.528 527.382 142.285 531.891 100.024 536.223C83.0381 537.964 67.5042 543.283 54.1427 554.074C19.4647 582.079 11.2819 636.715 36.4104 674.5C43.3121 684.878 51.461 694.43 59.0904 704.32C66.5019 713.928 73.9812 723.483 81.6687 733.367C78.9797 735.418 76.7647 737.116 74.5412 738.802C45.8629 760.549 32.4972 788.722 37.8192 825.041C43.2131 861.85 65.6314 882.732 102.728 884.644C111.628 885.102 120.573 884.712 129.859 884.712C129.844 884.565 129.94 885.36 129.997 886.157C132.363 919.449 136.347 952.516 145.859 984.616C156.561 1020.73 178.291 1047.28 215.182 1058.51C228.079 1062.44 241.995 1063.18 255.514 1064.82C261.094 1065.49 264.849 1067.7 268.439 1072.01C274.481 1079.26 280.772 1086.55 288.049 1092.48C302.941 1104.63 320.99 1108.82 339.744 1110.09C379.967 1112.81 420.188 1115.6 460.439 1117.82C481.879 1119 503.381 1119.04 525.756 1119.85Z" fill="#F6E2CA"/>
<path d="M524.855 1119.6C503.381 1119.04 481.879 1119 460.439 1117.82C420.188 1115.6 379.967 1112.81 339.744 1110.09C320.99 1108.82 302.941 1104.63 288.049 1092.48C280.772 1086.55 274.481 1079.26 268.439 1072.01C264.849 1067.7 261.094 1065.49 255.514 1064.82C241.995 1063.18 228.079 1062.44 215.182 1058.51C178.291 1047.28 156.561 1020.73 145.859 984.616C136.347 952.516 132.363 919.448 129.997 886.157C129.94 885.359 129.844 884.565 129.859 884.711C120.573 884.711 111.628 885.102 102.728 884.643C65.6314 882.732 43.2131 861.85 37.8192 825.04C32.4972 788.722 45.8629 760.548 74.5412 738.801C76.7647 737.115 78.9797 735.418 81.6687 733.367C73.9812 723.483 66.5019 713.927 59.0904 704.32C51.461 694.43 43.3121 684.878 36.4104 674.5C11.2819 636.715 19.4647 582.079 54.1427 554.073C67.5042 543.282 83.0381 537.963 100.024 536.222C142.285 531.89 184.528 527.381 226.777 522.934C227.263 522.883 227.736 522.708 227.905 522.667C227.182 514.182 225.619 505.773 225.907 497.428C226.912 468.346 239.183 444.859 262.713 427.541C265.409 425.556 266.861 423.56 266.756 420.195C266.471 411.041 266.251 401.882 266.183 392.723C265.716 330.028 280.005 270.861 309.039 215.314C311.429 210.741 311.002 207.916 307.686 204.014C259.824 147.696 292.162 73.1066 350.682 56.9746C382.133 48.3043 409.216 57.0716 431.551 80.6935C433.719 82.9862 435.627 85.5247 437.925 88.2711C442.462 86.6154 447.084 84.876 451.742 83.2367C510.754 62.4662 570.946 57.4314 632.391 69.9401C635.872 70.6489 637.112 69.0747 638.65 66.7148C650.787 48.0927 666.921 34.4798 688.366 27.7834C736.859 12.6411 788.747 47.9527 793.007 98.6328C794.638 118.047 790.641 136.045 781.291 152.924C779.388 156.359 779.632 158.589 782.006 161.73C798.131 183.069 811.484 206.062 822.207 231.22C825.916 229.373 829.548 227.85 832.892 225.846C844.398 218.951 856.48 217.875 869.48 220.716C924.97 232.842 980.523 244.679 1036.05 256.638C1041.59 257.83 1047.1 259.123 1052.62 260.39C1063.77 262.949 1070.37 271.188 1069.8 282.753C1068.88 301.22 1067.56 319.667 1066.41 338.123C1066.26 340.604 1066.11 343.086 1065.94 345.943C1068.43 346.597 1070.81 347.113 1073.13 347.849C1100.59 356.574 1117.52 376.006 1123.42 403.214C1134.38 453.711 1123.43 498.729 1084.77 535.158C1084.67 535.252 1084.68 535.454 1084.51 535.996C1090.33 537.053 1096.15 537.949 1101.9 539.186C1114.08 541.808 1125.51 546.253 1135.4 554.043C1154.57 569.14 1162.86 589.365 1161.71 613.251C1160.47 638.869 1158.51 664.462 1156.34 690.022C1152.69 733.016 1148.72 775.985 1144.63 818.941C1143.93 826.356 1142.66 833.847 1140.55 840.975C1132.84 866.96 1111.36 883.67 1084.27 885.206C1079.33 885.487 1074.35 885.246 1069.26 885.246C1067.43 900.832 1065.94 916.055 1063.8 931.186C1060.49 954.587 1057.55 978.098 1048.94 1000.38C1034.01 1039.03 1000.23 1062.59 958.754 1062.95C951.272 1063.02 945.695 1065.71 941.452 1071.91C925.776 1094.81 903.635 1105.99 876.27 1108.43C798.22 1115.4 719.989 1118.39 641.068 1119.38C639.53 1118.69 638.602 1118.25 637.674 1118.25C601.357 1118.22 565.039 1118.21 528.722 1118.28C527.432 1118.28 526.144 1119.14 524.855 1119.6ZM914.294 252.698C897.008 249.132 879.697 245.68 862.449 241.934C856.784 240.704 851.751 241.322 846.555 243.95C808.658 263.117 770.681 282.127 732.072 301.407C728.213 304.211 722.518 304.696 720.551 311.052C719.845 320.498 719.056 329.94 718.447 339.392C714.84 395.368 711.252 451.345 707.716 507.326C707.139 516.473 708.794 518.335 717.74 520.148C766.492 530.028 815.235 539.956 863.986 549.84C882.526 553.6 901.08 557.289 920.456 561.182C924.608 559.915 928.759 558.648 933.538 557.099C951.736 545.083 969.919 533.045 988.15 521.08C990.422 519.589 991.072 518.149 990.255 515.323C988.876 510.558 987.794 505.617 987.4 500.685C987.093 496.848 985.763 494.408 982.681 492.092C977.142 487.93 976.237 483.376 978.188 478.215C979.492 474.766 980.191 470.997 980.56 467.312C980.99 463.019 980.997 458.648 980.75 454.336C980.548 450.832 980.148 447.213 979.033 443.917C977.37 439.004 978.244 434.791 982.072 431.773C985.801 428.833 987.179 425.199 988.11 420.817C989.108 416.125 991.052 411.641 992.314 406.994C993.128 403.996 993.902 400.869 993.921 397.795C993.974 389.354 996.119 386.168 1003.98 383.196C1005.6 382.584 1007.49 381.153 1008.1 379.635C1013.95 365.078 1024.69 355.756 1039.12 350.496C1042.33 349.326 1043.6 347.657 1043.8 344.439C1044.84 327.339 1046 310.246 1047.55 292.529C1047.32 288.939 1049.64 284.732 1044.6 281.569C1017.37 275.558 990.135 269.546 962.129 263.244C946.404 259.861 930.679 256.478 914.294 252.698ZM372.337 80.0997C327.301 80.7398 297.095 130.105 316.858 170.555C322.765 182.646 331.425 192.395 341.384 201.123C344.264 203.647 344.951 205.68 342.639 209.086C339.468 213.756 336.805 218.784 334.095 223.752C302.96 280.814 289.246 341.908 291.842 406.761C291.912 408.517 292.117 410.267 292.246 411.852C293.116 412.057 293.457 412.249 293.739 412.185C295.195 411.852 296.646 411.488 298.08 411.072C315.301 406.082 332.769 405.094 350.382 408.324C371.435 412.184 389.899 421.378 404.677 436.972C422.407 455.68 430.669 478.072 428.958 503.962C428.833 505.859 428.942 507.773 428.942 509.884C446.664 508.691 463.736 507.347 480.83 506.44C503.422 505.243 526.025 504.167 548.636 503.452C569.436 502.795 590.253 502.441 611.064 502.402C634.21 502.359 657.356 502.82 680.502 503.071C683.224 503.1 685.754 503.461 685.921 499.276C686.325 489.146 687.147 479.032 687.779 468.91C689.086 447.998 690.353 427.083 691.681 406.172C693.748 373.642 695.919 341.118 697.899 308.582C698.487 298.912 702.664 291.812 711.35 287.409C733.636 276.112 755.923 264.815 778.189 253.477C785.412 249.799 792.571 245.995 800.046 242.1C797.696 236.888 795.587 231.841 793.182 226.938C781.967 204.073 768.06 183.026 750.393 164.601C748.005 162.111 747.804 160.313 750.261 157.992C751.215 157.091 751.928 155.917 752.672 154.814C764.169 137.779 771.438 119.598 767.807 98.5005C761.65 62.7162 723.374 41.093 689.91 54.6286C671.617 62.0275 660.333 76.255 653.139 94.0217C651.326 98.5 649.134 99.7945 644.438 98.5516C605.207 88.1693 565.451 85.4588 525.26 91.404C492.836 96.2003 461.427 104.643 431.887 119.195C429.057 120.589 427.72 119.893 426.444 117.286C425.058 114.453 423.477 111.684 421.7 109.079C410.038 91.9831 395.056 80.363 372.337 80.0997ZM512.024 756.506C511.179 739.987 504.452 733.853 487.981 734.587C487.149 734.624 486.318 734.677 485.487 734.743C460.413 736.745 435.339 738.753 410.265 740.752C404.005 741.25 401.105 738.843 400.741 732.766C400.372 726.616 400.035 720.463 399.783 714.307C399.432 705.725 401.381 703.73 409.93 703.218C431.048 701.951 452.167 700.697 473.273 699.253C487.995 698.247 494.851 691.444 496.348 676.776C496.584 674.464 496.641 672.115 496.564 669.79C495.951 651.145 495.358 632.498 494.61 613.858C494.136 602.049 493.999 590.182 492.64 578.465C491.074 564.969 483.292 558.22 469.796 557.015C467.484 556.809 465.137 556.768 462.82 556.9C437.377 558.345 411.933 559.79 386.496 561.342C375.193 562.032 363.871 562.649 352.619 563.869C339.305 565.312 333.204 572.399 333.055 585.808C333.015 589.461 333.453 593.12 333.686 596.775C334.645 611.846 342.455 618.63 357.489 617.663C379.764 616.231 402.044 614.896 424.324 613.536C431.102 613.123 433.992 615.552 434.416 622.223C434.828 628.704 435.11 635.196 435.325 641.687C435.52 647.59 433.043 650.154 427.038 650.518C406.255 651.778 385.473 653.036 364.689 654.293C347.585 655.327 339.355 664.087 339.65 681.318C339.779 688.807 340.354 696.292 340.828 703.773C342.208 725.549 343.467 747.335 345.101 769.092C346.652 789.745 358.962 799.794 379.081 797.94C402.133 795.815 425.231 794.205 448.295 792.21C465.041 790.762 481.804 789.377 498.48 787.322C506.67 786.312 510.789 781.541 511.734 773.347C512.341 768.094 511.972 762.728 512.024 756.506ZM1031.45 587.963C1025.58 586.33 1019.8 583.833 1013.82 583.224C994.931 581.299 975.972 580.031 957.032 578.606C944.405 577.656 931.776 576.646 919.13 576.075C905.597 575.465 898.498 581.532 896.816 594.914C896.113 600.512 895.627 606.222 895.9 611.84C896.34 620.897 900.94 625.8 909.791 627.625C912.061 628.093 914.409 628.225 916.73 628.395C935.671 629.788 954.619 631.091 973.555 632.56C980.443 633.095 983.082 636.381 982.493 643.096C981.999 648.738 981.462 654.376 980.931 660.015C980.35 666.198 977.698 668.424 971.365 667.965C960.73 667.195 950.101 666.333 939.463 665.608C930.154 664.974 920.842 664.323 911.52 663.954C897.109 663.383 889.341 669.925 887.376 684.153C886.83 688.107 886.674 692.117 886.398 696.104C884.687 720.871 882.79 745.627 881.361 770.409C880.375 787.533 890.194 798.092 907.291 799.437C938.68 801.906 970.055 804.562 1001.45 806.949C1008.72 807.501 1016.08 807.735 1023.34 807.278C1029.32 806.902 1033.95 803.211 1034.99 797.229C1036.49 788.586 1037.61 779.773 1037.69 771.022C1037.76 763.418 1033.29 758.765 1025.81 756.958C1021.64 755.95 1017.28 755.555 1012.97 755.259C991.031 753.747 969.08 752.391 947.137 750.905C940.92 750.484 938.488 747.764 938.745 741.565C938.98 735.908 939.454 730.26 939.855 724.611C940.315 718.155 942.976 715.765 949.557 716.154C956.709 716.576 963.849 717.185 970.995 717.705C983.624 718.624 996.244 719.685 1008.88 720.413C1022.55 721.201 1030.61 714.652 1033.02 701.189C1033.34 699.39 1033.54 697.564 1033.71 695.742C1034.98 681.472 1036.27 667.203 1037.47 652.926C1038.64 638.98 1039.85 625.035 1040.76 611.071C1041.33 602.285 1039.82 594.063 1031.45 587.963ZM230.113 691.679C230.373 700.504 230.32 709.352 230.969 718.148C231.859 730.221 238.282 737.07 250.279 737.581C258.514 737.932 266.958 737.124 275.073 735.589C284.773 733.753 290.078 726.818 291.648 717.193C292.208 713.755 292.373 710.229 292.438 706.738C292.653 695.077 292.921 683.413 292.84 671.753C292.667 646.934 292.917 622.088 291.786 597.309C290.933 578.607 280.082 569.151 261.382 568.405C258.731 568.299 256.054 568.51 253.403 568.741C232.825 570.537 212.229 572.157 191.68 574.247C160.695 577.399 129.728 580.753 98.7845 584.297C85.2452 585.848 77.5897 594.088 76.4542 607.711C76.111 611.83 76.4839 616.028 76.7542 620.174C77.9785 638.954 87.8963 646.841 106.526 644.783C143.452 640.703 180.41 636.911 217.369 633.139C226.154 632.243 228.877 634.964 229.055 643.718C229.375 659.376 229.721 675.033 230.113 691.679ZM807.986 708.642C770.86 707.196 733.735 705.702 696.606 704.329C681.288 703.762 665.964 703.321 650.638 703.078C640.633 702.92 636.818 706.936 636.649 717.021C636.635 717.854 636.639 718.687 636.645 719.52C636.718 729.526 640.065 733.082 650.056 733.431C667.874 734.055 685.696 734.541 703.515 735.144C727.16 735.945 750.804 736.781 774.446 737.661C777.496 737.774 781.008 738.087 780.824 742.253C780.639 746.432 777.185 746.309 774.088 746.196C764.431 745.844 754.775 745.435 745.116 745.143C715.473 744.248 685.83 743.333 656.183 742.56C642.922 742.215 637.189 747.59 636.592 760.871C636.219 769.19 636.106 777.53 636.194 785.857C636.342 799.749 642.093 805.477 655.948 806.125C712.365 808.765 768.782 811.429 825.198 814.094C838.345 814.714 842.671 810.817 843.412 797.617C844.013 786.904 840.525 782.826 829.88 782.363C787.602 780.524 745.32 778.778 703.039 776.993C701.71 776.937 700.076 777.288 699.128 776.647C697.655 775.649 695.967 774.076 695.704 772.522C695.55 771.608 697.862 770.077 699.288 769.18C700.015 768.723 701.239 768.996 702.235 769.032C717.386 769.569 732.538 770.115 747.688 770.672C771.83 771.561 795.967 772.575 820.113 773.301C830.811 773.623 836.33 769.32 837.377 759.429C838.532 748.509 839.221 737.506 839.395 726.527C839.546 716.928 834.817 711.635 825.343 710.045C819.946 709.139 814.403 709.099 807.986 708.642ZM726.378 973.343C730.788 976.68 735.472 976.547 739.923 973.784C744.435 970.983 748.941 968.03 752.917 964.538C762.278 956.317 771.321 947.734 780.941 938.885C781.762 939.891 782.519 940.975 783.429 941.909C792.615 951.327 801.575 960.986 811.113 970.034C817.889 976.461 824.619 975.842 830.636 968.8C836.816 961.566 841.603 953.658 838.751 943.173C843.24 943.173 847.389 943.404 851.501 943.113C856.234 942.778 857.899 944.436 857.652 949.339C857.064 960.983 856.915 972.653 856.765 984.314C856.634 994.562 860.384 998.525 870.683 999.161C874.837 999.418 879.014 999.38 883.179 999.341C891.861 999.26 896.077 995.432 896.794 986.754C897.287 980.781 897.503 974.782 897.761 968.792C898.688 947.324 899.647 925.857 900.463 904.385C901.051 888.901 901.544 873.412 901.862 857.921C902.046 848.93 898.711 845.086 889.772 843.952C885.001 843.347 880.13 843.2 875.317 843.33C866.092 843.578 861.29 848.56 860.977 857.767C860.901 860 860.966 862.237 860.966 864.249C852.757 864.249 845.454 864.156 838.154 864.278C831.798 864.384 828.418 867.025 827.656 873.322C827.062 878.227 827.141 883.292 827.587 888.226C828.248 895.53 830.181 897.452 837.485 898.287C843.431 898.967 849.442 899.17 855.431 899.355C859.085 899.468 859.787 901.41 859.748 904.565C859.708 907.757 858.892 909.703 855.233 909.53C849.908 909.278 844.576 909.185 839.246 909.053C830.424 908.835 826.821 912.588 827.132 921.514C827.241 924.621 827.15 927.735 827.15 930.846C826.751 931.039 826.352 931.232 825.953 931.425C820.349 924.497 814.766 917.551 809.135 910.645C802.489 902.494 799.847 893.338 800.682 882.747C801.385 873.833 801.254 864.806 800.788 855.866C800.507 850.473 796.692 846.985 791.354 846.376C785.089 845.661 778.718 845.288 772.426 845.557C765.435 845.855 761.526 849.916 760.761 856.935C760.166 862.39 759.971 867.892 759.72 873.379C758.948 890.248 754.037 905.444 741.968 917.788C734.398 925.531 726.869 933.316 719.23 940.991C715.243 944.997 712.993 949.877 715.308 955.015C718.131 961.278 722.241 966.962 726.378 973.343ZM821.43 612.231C806.932 608.617 792.995 603.815 780.387 593.19C797.295 593.19 812.905 593.196 828.516 593.188C843.177 593.181 847.613 589.028 848.512 574.49C848.543 573.992 848.523 573.491 848.534 572.991C848.784 561.021 844 555.725 832.157 555.077C824.509 554.658 816.853 554.373 809.198 554.114C759.603 552.431 710.01 550.691 660.41 549.162C647.868 548.775 642.376 554.268 641.777 566.727C641.697 568.389 641.691 570.058 641.734 571.722C642.002 582.112 646.673 586.886 657.122 587.31C666.938 587.709 676.76 587.973 686.577 588.334C694.458 588.624 702.337 588.97 710.216 589.291C710.444 589.933 710.672 590.574 710.899 591.216C704.704 594.492 698.717 598.275 692.269 600.942C678.122 606.793 662.97 608.211 647.931 610.064C640.527 610.976 637.164 615.057 636.854 622.463C636.237 637.225 647.524 648.497 662.176 647.335C687.466 645.328 711.836 639.465 734.653 628.22C741.733 624.731 747.63 625.062 754.332 628.999C775.515 641.441 798.428 649.254 822.669 653.145C832.249 654.682 837.083 652.411 841.538 643.903C843.686 639.802 845.483 635.431 846.774 630.989C849.198 622.648 845.487 617.034 836.936 615.316C832.041 614.333 827.145 613.358 821.43 612.231ZM590.46 710.935C590.015 679.615 589.544 648.296 589.136 616.976C588.938 601.812 588.984 586.645 588.69 571.484C588.396 556.284 580.24 548.567 565.052 548.764C561.388 548.811 557.726 548.981 554.062 549.044C532.665 549.414 526.386 555.88 526.769 577.208C527.594 623.189 528.412 669.17 529.263 715.15C529.706 739.138 530.076 763.13 530.744 787.112C531.095 799.717 537.548 806.286 550.065 806.55C558.193 806.722 566.42 806.355 574.465 805.236C584.756 803.806 590.117 797.306 590.852 786.871C591.074 783.717 591.069 780.542 591.043 777.378C590.861 755.55 590.647 733.722 590.46 710.935ZM339.734 924.64C330.089 927.808 320.469 931.06 310.785 934.108C306.497 935.458 303.123 937.776 302.115 942.229C300.747 948.272 301.545 954.224 304.777 959.589C307.078 963.409 310.619 965.641 315.207 965.195C319.332 964.794 323.47 964.164 327.5 963.207C355.325 956.598 380.663 945.737 398.229 921.601C399.13 920.364 401.192 919.407 402.767 919.321C411.745 918.834 420.739 918.606 429.729 918.381C436.17 918.22 437.563 919.663 437.688 926.2C437.797 931.863 437.695 937.543 438.112 943.184C438.751 951.838 442.628 955.311 451.296 955.476C454.627 955.539 457.961 955.494 461.292 955.434C474.875 955.188 478.962 951.149 478.665 937.659C478.099 912.017 477.364 886.379 476.651 860.741C476.559 857.421 476.413 854.074 475.897 850.802C474.941 844.749 471.129 841.382 464.997 841.158C460.339 840.987 455.669 841.145 451.004 841.209C440.45 841.352 435.796 845.998 435.768 856.59C435.749 864.087 435.784 871.59 436.077 879.079C436.209 882.426 434.987 883.462 431.776 883.385C425.616 883.24 419.437 883.188 413.287 883.501C409.37 883.7 407.871 882.413 407.995 878.443C408.186 872.286 408.264 866.099 407.862 859.959C407.319 851.657 402.551 847.308 394.322 846.958C392.659 846.887 390.987 846.878 389.324 846.95C370.355 847.774 351.385 848.573 332.42 849.481C325.608 849.807 318.791 850.231 312.01 850.939C306.29 851.536 302.766 855.164 302.281 860.728C300.771 878.037 304.741 882.138 319.331 880.927C320.326 880.844 321.319 880.711 322.316 880.673C336.297 880.147 350.279 879.642 364.259 879.109C367.344 878.992 369.541 879.875 369.596 883.443C369.645 886.644 368.263 888.43 364.873 888.535C361.547 888.637 358.229 888.98 354.904 889.145C340.934 889.835 326.958 890.436 312.991 891.195C305.488 891.603 302.151 895.083 301.769 902.5C301.709 903.663 301.74 904.832 301.747 905.998C301.812 916.703 305.287 920.199 315.851 919.974C325.676 919.765 335.498 919.418 345.322 919.168C346.658 919.134 348 919.312 349.339 919.392C349.382 919.72 349.426 920.048 349.469 920.376C346.459 921.692 343.448 923.008 339.734 924.64ZM242.456 758.28C213.331 761.606 184.195 764.829 155.087 768.296C137.566 770.383 120.026 772.46 102.615 775.284C91.3466 777.113 85.4248 784.206 84.8628 795.613C84.521 802.553 84.953 809.615 85.8624 816.514C87.7565 830.883 97.0358 837.441 111.496 835.696C157.795 830.107 204.106 824.622 250.42 819.154C268.779 816.986 287.163 815.026 305.522 812.857C319.746 811.177 326.305 803.761 325.829 789.503C325.596 782.534 325.053 775.501 323.787 768.656C321.921 758.564 315.779 753.484 305.53 752.622C302.891 752.4 300.194 752.468 297.555 752.727C279.487 754.501 261.426 756.36 242.456 758.28ZM1121.79 609.636C1121.87 608.307 1122 606.979 1122.04 605.648C1122.42 593.346 1117.03 586.43 1104.87 584.525C1098.31 583.497 1091.61 582.995 1084.96 582.893C1073.44 582.716 1067.02 588.607 1065.81 600.192C1064.66 611.293 1063.82 622.426 1062.84 633.544C1058.98 677.189 1055.1 720.832 1051.28 764.48C1049.78 781.573 1048.27 798.668 1047 815.779C1046.07 828.303 1051.03 834.501 1063.4 836.483C1068.65 837.325 1073.98 837.703 1079.29 838.118C1094.76 839.326 1101.6 833.67 1103.11 818.191C1104.93 799.62 1106.61 781.034 1108.26 762.448C1112.78 711.833 1117.25 661.214 1121.79 609.636ZM437.286 1065.16C448.276 1064.79 459.267 1064.45 470.256 1064.07C480.591 1063.71 484.112 1058.83 483.83 1045.33C483.652 1036.81 479.4 1033.19 469.567 1033.52C447.759 1034.25 425.957 1035.14 404.15 1035.87C395.157 1036.17 386.153 1036.42 377.162 1036.26C375.612 1036.24 374.1 1034.03 372.57 1032.84C373.951 1031.26 375.239 1029.58 376.77 1028.16C377.239 1027.73 378.377 1028 379.209 1027.97C398.52 1027.3 417.832 1026.63 437.144 1025.95C445.968 1025.64 454.793 1025.35 463.616 1025.01C474.32 1024.6 478.73 1021.05 479.17 1010.28C479.638 998.824 479.228 987.282 478.339 975.847C477.657 967.088 472.836 963.28 463.922 963.267C455.431 963.255 446.94 963.689 438.449 963.952C403.813 965.023 369.174 966.024 334.547 967.323C331.492 967.438 327.431 968.682 325.704 970.872C321.076 976.746 322.032 983.867 324.408 990.393C326.55 996.277 332.337 995.912 337.246 995.768C359.891 995.106 382.527 994.168 405.168 993.369C413.659 993.07 422.155 992.713 430.645 992.783C432.342 992.797 434.023 994.632 435.712 995.628C434.443 997.297 433.345 999.151 431.831 1000.56C431.125 1001.21 429.617 1001.11 428.465 1001.16C418.31 1001.52 408.152 1001.81 397.996 1002.16C378.684 1002.85 359.371 1003.5 340.063 1004.28C330.77 1004.66 326.02 1008.68 325.676 1018.04C325.266 1029.15 325.475 1040.37 326.466 1051.45C327.563 1063.71 334.059 1068.37 346.378 1067.94C376.346 1066.91 406.322 1066.08 437.286 1065.16ZM306.939 511.456C312.614 513.02 313.211 517.733 313.714 522.461C314.435 529.232 316.864 535.436 324.091 536.59C329.425 537.442 335.334 536.595 340.605 535.13C343.15 534.423 345.926 530.83 346.631 528.046C347.828 523.321 347.515 518.205 347.749 513.249C347.974 508.474 350.737 505.235 354.78 505.167C358.776 505.1 361.337 507.785 361.829 512.657C362.147 515.795 362.252 518.958 362.654 522.083C363.593 529.37 366.818 532.17 374.181 532.293C390.031 532.557 404.619 518.119 405.871 500.898C407.62 476.853 397.89 458.166 378.728 444.272C347.651 421.739 302.959 425.209 274.475 448.507C253.865 465.365 244.654 487.312 252.032 514.242C256.835 531.773 275.545 543.472 291.94 539.44C297.966 537.958 300.455 534.328 299.73 528.117C299.404 525.318 298.856 522.514 298.869 519.714C298.89 514.958 301.086 511.801 306.939 511.456ZM1104.81 428.881C1103.47 421.202 1103.03 413.227 1100.62 405.902C1094.28 386.677 1083.27 371.832 1061.41 368.576C1049.75 366.84 1034.81 374.011 1029.92 383.741C1028.1 387.376 1028.72 389.493 1032.55 391.156C1036.17 392.727 1039.8 394.548 1042.91 396.941C1045.93 399.271 1046.82 402.855 1044.59 406.335C1042.47 409.641 1039.14 409.926 1035.72 408.701C1032.59 407.581 1029.62 406.028 1026.47 404.961C1019.77 402.686 1014.9 404.37 1011.85 410.614C1009.75 414.902 1008.23 419.559 1007.11 424.21C1005.92 429.167 1008.74 433.418 1013.66 435.071C1016.49 436.023 1019.46 436.583 1022.28 437.574C1027.2 439.304 1029.71 442.712 1028.63 446.296C1027.17 451.154 1023.24 451.714 1018.98 451.245C1015.85 450.9 1012.74 450.278 1009.61 449.889C1003.32 449.111 1000.53 451.275 999.954 457.544C999.683 460.522 999.729 463.538 999.773 466.534C999.879 473.654 1002.52 477.401 1009.41 479.214C1012.73 480.086 1016.31 480.035 1019.78 480.272C1023.94 480.557 1026.99 482.478 1027.54 486.661C1028.07 490.783 1025.28 493.15 1021.6 494.145C1018.57 494.962 1015.42 495.336 1012.31 495.807C1008.93 496.318 1007.72 498.593 1008.2 501.522C1009.44 508.968 1012.32 515.557 1019.02 519.849C1028.94 526.202 1039.79 527.76 1051.13 525.554C1064.86 522.883 1074.54 514.032 1082.66 503.36C1099.18 481.653 1105.71 456.845 1104.81 428.881ZM592.972 878.72C592.944 873.059 592.938 867.396 592.882 861.735C592.757 849.006 588.044 844.318 575.239 844.297C558.086 844.27 540.934 844.293 523.782 844.328C506.998 844.362 504.296 847.119 504.597 863.774C504.778 873.791 508.181 877.204 518.262 877.296C528.087 877.385 537.913 877.364 547.738 877.41C554.427 877.441 555.434 878.384 555.595 883.497C555.774 889.142 552.332 889.442 548.068 889.37C539.745 889.231 531.41 889.141 523.092 889.414C511.021 889.81 505.337 894.689 505.141 906.221C504.859 922.69 505.245 939.189 505.949 955.649C506.362 965.321 511.546 969.981 521.171 970.91C523.316 971.117 525.501 971.05 527.66 970.956C547.612 970.084 567.561 969.135 587.515 968.297C603.572 967.622 606.524 964.409 605.596 948.25C604.993 937.755 601.786 934.811 591.179 935.159C578.367 935.579 565.56 936.122 552.747 936.484C546.466 936.661 545.092 935.088 545.047 928.407C545 921.31 546.472 919.533 552.603 919.472C560.928 919.389 569.254 919.391 577.579 919.305C588.505 919.193 592.86 914.785 592.946 903.7C593.009 895.707 592.966 887.714 592.972 878.72ZM665.43 694.924C669.259 695.036 673.089 695.108 676.916 695.267C731.156 697.515 785.394 699.845 839.638 701.993C857.837 702.713 860.6 700.028 862.141 681.798C863.305 668.026 858.67 662.679 844.904 662.134C788.997 659.922 733.089 657.721 677.18 655.574C662.704 655.018 648.222 654.548 633.738 654.279C623.459 654.089 618.794 658.263 617.46 668.49C617.053 671.609 617.034 674.8 617.093 677.953C617.3 688.958 622.068 693.779 632.999 694.101C643.486 694.409 653.975 694.646 665.43 694.924ZM650.716 1044.68C650.727 1046.68 650.684 1048.68 650.758 1050.68C651.115 1060.38 655.708 1064.91 665.481 1065.12C669.31 1065.2 673.143 1065.11 676.975 1065.1C689.641 1065.08 694.522 1060.35 694.728 1047.67C694.937 1034.85 695.07 1022.02 695.139 1009.19C695.166 1004.22 695.357 999.183 694.705 994.277C693.831 987.704 689.687 983.989 683.134 983.032C680.509 982.649 677.835 982.412 675.185 982.42C631.376 982.554 587.568 982.73 543.76 982.93C541.436 982.941 539.085 983.074 536.797 983.454C531.113 984.4 526.989 987.677 526.445 993.422C525.84 999.81 525.795 1006.39 526.648 1012.74C527.476 1018.9 531.556 1021.79 537.724 1022.34C539.876 1022.52 542.05 1022.5 544.215 1022.49C576.864 1022.46 609.513 1022.41 642.162 1022.37C649.454 1022.37 650.797 1023.77 650.763 1031.2C650.744 1035.36 650.728 1039.53 650.716 1044.68ZM867.324 1024.21C841.692 1023.3 816.063 1022.3 790.426 1021.57C785.906 1021.44 784.714 1019.57 784.838 1015.45C785.054 1008.3 785.195 1001.12 784.832 993.974C784.455 986.538 780.659 982.819 773.206 982.104C768.075 981.612 762.902 981.37 757.747 981.356C747.024 981.325 741.923 986.066 741.587 996.658C741.107 1011.81 740.774 1026.96 740.667 1042.12C740.568 1056.09 745.897 1061.44 759.855 1061.95C780.829 1062.7 801.803 1063.42 822.778 1064.15C841.921 1064.81 861.062 1065.55 880.209 1066.07C889.81 1066.33 894.869 1062.84 896.318 1054.61C897.264 1049.24 897.695 1043.66 897.418 1038.22C896.97 1029.41 893.147 1025.75 884.289 1024.93C878.99 1024.43 873.644 1024.45 867.324 1024.21ZM602.484 888.239C597.366 893.669 599 900.446 598.946 906.805C598.863 916.497 601.628 919.796 611.044 921.197C614.095 921.651 614.928 922.963 614.854 925.761C614.721 930.758 614.694 935.763 614.83 940.759C615.019 947.737 615.092 954.742 615.8 961.675C616.3 966.567 619.479 970.178 624.402 970.864C629.275 971.543 634.359 971.647 639.241 971.076C645.202 970.378 648.527 966.141 649.729 960.443C650.342 957.533 650.628 954.502 650.636 951.525C650.726 920.193 650.744 888.861 650.727 857.529C650.725 855.216 650.442 852.877 650.043 850.593C649.159 845.518 646.095 842.649 640.915 842.241C636.938 841.928 632.952 841.514 628.971 841.528C618.893 841.566 614.974 845.433 614.834 855.408C614.717 863.74 614.615 872.079 614.873 880.404C614.995 884.336 614.122 886.242 609.744 886.045C607.562 885.947 605.322 887.138 602.484 888.239ZM671.362 972.467C676.173 972.692 680.995 973.235 685.792 973.062C691.962 972.84 695.619 969.567 696.927 963.528C697.52 960.788 697.789 957.93 697.815 955.123C697.945 940.641 697.879 926.157 698.013 911.674C698.187 892.87 698.589 874.067 698.687 855.262C698.74 845.19 694.602 840.984 684.53 840.566C680.399 840.394 676.187 840.407 672.112 841.013C665.979 841.923 663.086 845.049 662.066 851.104C661.71 853.221 661.722 855.415 661.716 857.574C661.657 879.883 661.62 902.191 661.594 924.5C661.58 936.652 661.458 948.807 661.658 960.956C661.772 967.923 664.039 970.498 671.362 972.467ZM242.584 899.92C230.434 896.452 218.358 892.691 206.112 889.605C195.717 886.986 187.969 891.527 185.469 900.834C182.419 912.185 188.249 921.798 200.462 924.079C214.34 926.671 228.37 928.447 242.334 930.577C251.811 932.022 257.192 928.78 259.355 920.325C261.481 912.017 257.896 905.437 249.471 902.26C247.449 901.498 245.383 900.851 242.584 899.92ZM965.642 929.574C971.729 928.697 977.924 928.272 983.877 926.838C992.709 924.711 1001.63 922.523 1010.02 919.134C1017.41 916.149 1020.15 907.374 1017.73 899.12C1015.65 892.006 1010.38 888.269 1002.08 889.03C996.996 889.496 991.918 890.787 987.022 892.301C976.071 895.687 965.093 899.077 954.4 903.178C947.059 905.994 944.264 913.324 946.449 920.942C948.51 928.13 952.921 930.884 961.302 930.193C962.46 930.097 963.612 929.918 965.642 929.574ZM247.778 993.665C251.914 991.539 256.21 989.67 260.148 987.224C265.899 983.653 267.533 977.219 265.002 969.999C262.944 964.127 258.511 961.293 251.637 962.315C236.842 964.513 223.01 969.727 210.187 977.302C203.052 981.517 201.5 990.404 205.602 998.505C208.996 1005.21 215.299 1007.56 223.396 1004.41C231.432 1001.28 239.221 997.509 247.778 993.665ZM950.712 962.02C944.381 963.443 940.748 967.249 939.858 973.393C938.913 979.917 941.091 985.188 946.865 988.06C958.029 993.615 969.289 999.004 980.711 1004C988.902 1007.58 995.261 1005.25 998.984 998.211C1003.18 990.272 1001.79 981.077 994.62 976.893C981.323 969.131 967.057 963.674 950.712 962.02Z" fill="#271C10"/>
<path d="M525.305 1119.72C526.144 1119.14 527.432 1118.28 528.722 1118.28C565.039 1118.21 601.357 1118.22 637.674 1118.25C638.602 1118.25 639.53 1118.69 640.621 1119.26C629.34 1119.8 617.895 1120.17 606.451 1120.17C579.553 1120.16 552.654 1119.97 525.305 1119.72Z" fill="#1B1106"/>
<path d="M372.817 80.1003C395.056 80.3637 410.038 91.9838 421.7 109.08C423.477 111.685 425.058 114.454 426.444 117.286C427.72 119.894 429.057 120.589 431.887 119.195C461.427 104.643 492.836 96.201 525.26 91.4047C565.451 85.4595 605.207 88.17 644.438 98.5523C649.134 99.7952 651.326 98.5007 653.139 94.0224C660.333 76.2557 671.617 62.0282 689.91 54.6293C723.374 41.0937 761.65 62.7169 767.807 98.5012C771.438 119.599 764.169 137.779 752.672 154.815C751.928 155.917 751.215 157.091 750.261 157.993C747.804 160.314 748.005 162.112 750.393 164.602C768.06 183.026 781.967 204.074 793.182 226.939C795.587 231.841 797.696 236.889 800.046 242.101C792.571 245.996 785.412 249.8 778.189 253.478C755.923 264.816 733.636 276.113 711.35 287.41C702.664 291.813 698.487 298.912 697.899 308.583C695.919 341.118 693.748 373.643 691.681 406.173C690.353 427.084 689.086 447.999 687.779 468.911C687.147 479.033 686.325 489.146 685.921 499.277C685.754 503.462 683.224 503.101 680.502 503.071C657.356 502.821 634.209 502.359 611.064 502.403C590.253 502.442 569.436 502.796 548.636 503.453C526.025 504.167 503.422 505.244 480.83 506.441C463.736 507.347 446.664 508.692 428.942 509.884C428.942 507.773 428.833 505.86 428.958 503.962C430.669 478.073 422.407 455.68 404.677 436.973C389.899 421.379 371.435 412.185 350.382 408.324C332.769 405.094 315.301 406.083 298.08 411.073C296.646 411.488 295.195 411.853 293.739 412.185C293.457 412.25 293.116 412.058 292.246 411.853C292.117 410.268 291.912 408.517 291.842 406.761C289.247 341.909 302.96 280.815 334.095 223.752C336.805 218.785 339.468 213.757 342.639 209.086C344.951 205.68 344.264 203.647 341.384 201.124C331.425 192.396 322.765 182.647 316.858 170.555C297.095 130.105 327.301 80.7405 372.817 80.1003ZM618.758 411.674C631.519 400.35 639.879 386.494 642.844 369.58C647.259 344.405 639.825 322.033 625.859 301.568C596.275 258.217 539.335 254.169 504.435 293.207C485.913 313.924 477.522 338.915 480.222 366.568C483.238 397.453 499.668 419.51 529.634 428.644C561.498 438.356 591.583 433.137 618.758 411.674ZM461.634 264.33C449.86 263.412 443.556 266.416 440.02 276.035C436.228 286.35 436.358 296.942 441.24 307.009C444.816 314.381 453.286 318.381 461.255 317.037C468.429 315.827 474.735 309.693 475.56 301.676C476.249 294.985 476.343 288.061 475.41 281.422C474.33 273.737 470.429 267.351 461.634 264.33ZM634.641 265.871C635.418 272.255 635.461 278.841 637.157 284.97C639.324 292.8 645.636 297.034 652.937 297.245C660.856 297.473 667.399 293.811 670.097 286.162C674.444 273.838 674.121 261.625 666.02 250.646C659.976 242.455 646.243 241.777 640.375 249.916C637.353 254.108 636.515 259.875 634.641 265.871ZM388.772 123.593C375.41 117.014 362.073 119.783 354.546 130.7C346.553 142.292 348.07 157.799 357.969 167.129C360.628 169.636 362.597 169.89 365.584 167.276C375.952 158.204 386.484 149.307 397.218 140.672C400.348 138.154 400.649 135.669 398.521 133.073C395.812 129.769 392.477 126.979 388.772 123.593ZM714.479 88.6465C700.404 85.9662 691.372 93.2266 684.255 104.094C681.485 108.322 682.15 109.635 686.584 112.218C697.336 118.482 708.049 124.824 718.581 131.446C721.717 133.418 723.8 132.86 725.896 130.427C738.698 115.565 732.769 93.155 714.479 88.6465Z" fill="#A1673C"/>
<path d="M919.628 561.01C901.08 557.288 882.526 553.599 863.986 549.84C815.235 539.955 766.492 530.027 717.739 520.147C708.794 518.335 707.139 516.472 707.716 507.325C711.252 451.345 714.84 395.368 718.447 339.392C719.056 329.939 719.845 320.498 721.101 310.697C739.4 313.625 757.16 316.849 774.894 320.211C784.617 322.055 794.296 324.132 803.91 326.529C803.16 333.708 802.156 340.457 802.039 347.22C802.004 349.212 804.152 352.639 805.859 353.042C819.396 356.238 833.06 358.905 846.707 361.629C849.626 362.212 851.526 360.918 851.798 357.757C852.452 350.167 853.104 342.577 854.193 334.984C862.297 336.417 869.973 337.806 877.629 339.3C895.719 342.831 913.788 346.467 931.891 349.933C936.306 350.778 938.235 353.219 937.894 357.562C937.634 360.872 937.216 364.169 936.915 367.475C934.612 392.78 932.287 418.082 930.032 443.391C926.538 482.595 923.093 521.803 919.628 561.01ZM839.948 396.39C837.084 397.541 835.75 396.214 834.731 393.587C832.112 386.832 829.271 380.163 826.028 372.264C822.284 377.525 819.22 381.781 816.209 386.073C811.934 392.165 811.951 392.176 805.111 389.304C800.572 387.398 800.27 387.715 800.592 392.866C801.168 402.072 801.599 411.288 802.091 420.5C801.691 420.641 801.291 420.781 800.89 420.922C796.51 415.106 792.129 409.29 787.509 403.156C786.278 404.583 785.307 405.218 785.072 406.06C783.355 412.196 779.542 412.123 774.814 409.741C774.079 409.371 773.258 409.112 772.447 408.965C769.929 408.507 767.398 408.128 764.872 407.718C765.128 410.247 765.057 412.863 765.702 415.29C767.396 421.668 770.051 428.153 760.967 431.283C760.871 431.316 760.855 431.582 760.688 432.08C761.22 432.822 761.794 433.808 762.543 434.634C768.134 440.8 773.8 446.897 779.364 453.087C786.301 460.807 786.265 460.834 781.174 470.005C781.05 470.23 781.244 470.63 781.379 471.573C791.024 472.414 800.823 473.268 811.259 474.177C810.343 482.011 809.27 489.048 808.823 496.124C808.657 498.748 809.96 501.464 810.594 504.139C811.285 504.091 811.976 504.044 812.668 503.997C820.245 496.248 814.929 484.864 819.827 475.76C828.941 478.333 838.1 480.918 847.729 483.636C847.729 481.278 848.149 479.657 847.656 478.391C845.479 472.802 848.606 470.096 852.906 467.763C860.368 463.715 867.746 459.512 875.221 455.488C877.838 454.079 879.282 452.102 876.188 450.455C870.624 447.494 871.866 444.027 874.344 439.938C875.198 438.528 875.693 436.9 876.353 435.372C880.279 426.297 880.279 426.297 870.356 426.251C860.926 426.207 860.93 426.206 858.579 417.27C858.51 417.01 858.129 416.831 857.455 416.21C852.255 419.914 846.942 423.698 841.629 427.482C841.256 427.243 840.882 427.004 840.509 426.765C842.987 416.472 845.465 406.179 848.074 395.34C844.942 395.747 842.837 396.021 839.948 396.39Z" fill="#D6AE82"/>
<path d="M306.566 511.401C301.086 511.801 298.89 514.958 298.869 519.715C298.856 522.514 299.404 525.318 299.73 528.117C300.455 534.329 297.966 537.958 291.94 539.44C275.545 543.472 256.835 531.773 252.032 514.243C244.654 487.312 253.865 465.365 274.475 448.507C302.959 425.209 347.651 421.74 378.728 444.272C397.89 458.166 407.62 476.853 405.871 500.898C404.619 518.119 390.031 532.558 374.181 532.293C366.818 532.171 363.593 529.37 362.654 522.084C362.252 518.958 362.147 515.795 361.829 512.657C361.337 507.786 358.776 505.1 354.78 505.167C350.737 505.235 347.974 508.475 347.749 513.249C347.515 518.205 347.828 523.322 346.631 528.046C345.926 530.83 343.15 534.423 340.605 535.13C335.334 536.595 329.425 537.442 324.091 536.59C316.864 535.436 314.435 529.232 313.714 522.461C313.211 517.733 312.614 513.02 306.566 511.401Z" fill="#A1673C"/>
<path d="M1047.11 293.152C1046 310.247 1044.84 327.34 1043.8 344.44C1043.6 347.658 1042.33 349.327 1039.12 350.497C1024.69 355.757 1013.95 365.079 1008.1 379.637C1007.49 381.154 1005.6 382.585 1003.98 383.197C996.119 386.169 993.974 389.355 993.921 397.796C993.902 400.87 993.128 403.997 992.314 406.995C991.052 411.643 989.108 416.126 988.11 420.818C987.179 425.201 985.801 428.834 982.072 431.774C978.244 434.792 977.37 439.005 979.033 443.919C980.148 447.214 980.548 450.833 980.75 454.337C980.997 458.649 980.989 463.02 980.56 467.313C980.191 470.999 979.492 474.768 978.188 478.216C976.237 483.377 977.142 487.931 982.681 492.093C985.763 494.409 987.093 496.849 987.4 500.687C987.794 505.618 988.876 510.559 990.255 515.324C991.072 518.151 990.422 519.59 988.15 521.081C969.919 533.047 951.736 545.084 932.921 556.97C932.806 550.115 933.281 543.387 933.816 536.665C934.513 527.913 935.193 519.159 935.998 510.417C937.212 497.234 938.625 484.07 939.775 470.882C940.941 457.516 941.825 444.125 942.951 430.755C944.173 416.241 945.513 401.736 946.839 387.23C947.834 376.35 948.63 365.439 950.113 354.625C950.455 352.13 952.754 349.195 954.987 347.788C966.366 340.62 977.998 333.85 989.582 327.009C1008.74 315.696 1027.93 304.435 1047.11 293.152Z" fill="#A3744C"/>
<path d="M1104.82 429.363C1105.71 456.845 1099.18 481.653 1082.66 503.361C1074.54 514.032 1064.86 522.883 1051.13 525.554C1039.79 527.761 1028.94 526.202 1019.02 519.849C1012.32 515.557 1009.44 508.968 1008.2 501.522C1007.72 498.593 1008.93 496.318 1012.31 495.807C1015.42 495.336 1018.57 494.962 1021.6 494.145C1025.28 493.15 1028.07 490.783 1027.54 486.661C1026.99 482.479 1023.94 480.558 1019.78 480.273C1016.31 480.035 1012.73 480.086 1009.41 479.214C1002.52 477.402 999.879 473.655 999.773 466.534C999.729 463.538 999.683 460.522 999.954 457.544C1000.53 451.275 1003.32 449.111 1009.61 449.89C1012.74 450.278 1015.85 450.901 1018.98 451.246C1023.24 451.714 1027.17 451.154 1028.63 446.297C1029.71 442.712 1027.2 439.304 1022.28 437.574C1019.46 436.583 1016.49 436.023 1013.66 435.072C1008.74 433.418 1005.92 429.167 1007.11 424.21C1008.23 419.559 1009.75 414.903 1011.85 410.614C1014.9 404.37 1019.77 402.686 1026.47 404.961C1029.62 406.028 1032.59 407.581 1035.72 408.701C1039.14 409.926 1042.47 409.641 1044.59 406.335C1046.82 402.855 1045.93 399.271 1042.91 396.941C1039.8 394.549 1036.17 392.727 1032.55 391.156C1028.72 389.493 1028.1 387.376 1029.92 383.741C1034.81 374.011 1049.75 366.84 1061.41 368.576C1083.27 371.833 1094.28 386.677 1100.62 405.902C1103.03 413.227 1103.47 421.202 1104.82 429.363Z" fill="#A1673C"/>
<path d="M512.032 756.96C511.972 762.728 512.341 768.094 511.734 773.347C510.789 781.541 506.67 786.313 498.48 787.322C481.804 789.377 465.041 790.762 448.295 792.21C425.231 794.205 402.133 795.815 379.081 797.94C358.962 799.794 346.652 789.745 345.101 769.092C343.467 747.335 342.208 725.549 340.828 703.773C340.354 696.292 339.779 688.808 339.65 681.318C339.355 664.087 347.585 655.327 364.689 654.293C385.473 653.036 406.255 651.778 427.038 650.518C433.043 650.154 435.52 647.59 435.325 641.687C435.11 635.196 434.828 628.705 434.416 622.223C433.992 615.552 431.102 613.123 424.324 613.536C402.044 614.896 379.764 616.231 357.489 617.663C342.455 618.63 334.645 611.847 333.686 596.775C333.453 593.12 333.015 589.461 333.055 585.808C333.204 572.399 339.305 565.312 352.619 563.869C363.871 562.649 375.193 562.032 386.496 561.342C411.933 559.79 437.377 558.345 462.82 556.9C465.137 556.768 467.484 556.809 469.796 557.015C483.292 558.22 491.074 564.969 492.64 578.465C493.999 590.182 494.136 602.049 494.61 613.858C495.358 632.498 495.951 651.145 496.564 669.79C496.641 672.115 496.584 674.464 496.348 676.776C494.851 691.445 487.995 698.247 473.273 699.253C452.167 700.697 431.048 701.951 409.93 703.218C401.381 703.73 399.432 705.725 399.783 714.307C400.035 720.463 400.372 726.616 400.741 732.766C401.105 738.843 404.005 741.25 410.265 740.752C435.339 738.753 460.413 736.745 485.487 734.743C486.318 734.677 487.149 734.624 487.981 734.587C504.452 733.853 511.179 739.987 512.032 756.96Z" fill="white"/>
<path d="M1031.76 588.153C1039.82 594.063 1041.33 602.285 1040.76 611.071C1039.85 625.035 1038.64 638.98 1037.47 652.925C1036.27 667.202 1034.98 681.471 1033.71 695.742C1033.54 697.564 1033.34 699.39 1033.02 701.189C1030.61 714.652 1022.55 721.201 1008.88 720.413C996.244 719.684 983.624 718.624 970.995 717.705C963.849 717.185 956.709 716.576 949.557 716.153C942.976 715.764 940.315 718.155 939.856 724.61C939.454 730.26 938.98 735.908 938.745 741.565C938.488 747.764 940.92 750.483 947.137 750.905C969.08 752.391 991.031 753.747 1012.97 755.259C1017.28 755.555 1021.64 755.949 1025.81 756.958C1033.29 758.765 1037.76 763.418 1037.69 771.022C1037.61 779.773 1036.49 788.586 1034.99 797.229C1033.95 803.211 1029.32 806.902 1023.34 807.278C1016.08 807.735 1008.72 807.501 1001.45 806.948C970.055 804.562 938.68 801.905 907.291 799.436C890.194 798.091 880.375 787.533 881.361 770.409C882.79 745.626 884.687 720.871 886.398 696.104C886.674 692.116 886.83 688.107 887.376 684.153C889.341 669.925 897.109 663.382 911.52 663.953C920.842 664.323 930.154 664.974 939.463 665.608C950.101 666.333 960.73 667.195 971.365 667.965C977.698 668.424 980.35 666.198 980.931 660.015C981.462 654.376 981.999 648.738 982.493 643.096C983.082 636.381 980.443 633.095 973.555 632.56C954.619 631.091 935.671 629.788 916.73 628.395C914.409 628.225 912.061 628.092 909.791 627.624C900.94 625.799 896.34 620.897 895.9 611.839C895.627 606.222 896.113 600.512 896.816 594.914C898.498 581.531 905.597 575.465 919.13 576.075C931.776 576.645 944.406 577.656 957.032 578.606C975.972 580.031 994.931 581.299 1013.82 583.224C1019.8 583.833 1025.58 586.33 1031.76 588.153Z" fill="white"/>
<path d="M230.084 691.185C229.721 675.033 229.375 659.376 229.055 643.718C228.877 634.964 226.154 632.243 217.369 633.139C180.41 636.911 143.452 640.702 106.526 644.783C87.8963 646.841 77.9785 638.954 76.7542 620.174C76.4839 616.027 76.111 611.83 76.4542 607.711C77.5897 594.088 85.2452 585.848 98.7845 584.297C129.728 580.752 160.695 577.399 191.68 574.247C212.229 572.157 232.825 570.537 253.403 568.741C256.054 568.51 258.731 568.299 261.382 568.405C280.082 569.151 290.933 578.607 291.786 597.309C292.917 622.088 292.667 646.934 292.84 671.753C292.921 683.413 292.653 695.077 292.438 706.738C292.373 710.229 292.208 713.755 291.648 717.193C290.078 726.818 284.773 733.753 275.073 735.588C266.958 737.124 258.514 737.932 250.279 737.581C238.282 737.069 231.859 730.221 230.969 718.148C230.32 709.352 230.373 700.504 230.084 691.185Z" fill="white"/>
<path d="M808.456 708.656C814.403 709.099 819.945 709.139 825.343 710.045C834.817 711.635 839.546 716.929 839.395 726.528C839.221 737.506 838.532 748.509 837.377 759.429C836.33 769.321 830.811 773.623 820.113 773.302C795.967 772.576 771.83 771.561 747.688 770.673C732.538 770.115 717.386 769.569 702.235 769.032C701.239 768.996 700.015 768.723 699.288 769.18C697.862 770.078 695.55 771.608 695.704 772.522C695.967 774.077 697.655 775.65 699.128 776.647C700.076 777.289 701.71 776.937 703.039 776.993C745.32 778.778 787.602 780.525 829.88 782.363C840.525 782.826 844.013 786.904 843.412 797.618C842.671 810.817 838.345 814.715 825.198 814.094C768.782 811.43 712.365 808.765 655.948 806.126C642.093 805.478 636.342 799.749 636.194 785.858C636.106 777.53 636.219 769.19 636.592 760.871C637.189 747.591 642.922 742.215 656.183 742.561C685.83 743.333 715.473 744.249 745.116 745.143C754.775 745.435 764.431 745.844 774.088 746.197C777.185 746.31 780.639 746.433 780.824 742.253C781.008 738.087 777.495 737.774 774.446 737.661C750.804 736.781 727.16 735.945 703.515 735.145C685.696 734.542 667.874 734.055 650.056 733.432C640.065 733.082 636.718 729.526 636.645 719.521C636.639 718.687 636.635 717.854 636.649 717.021C636.818 706.937 640.633 702.92 650.638 703.079C665.963 703.321 681.288 703.762 696.606 704.329C733.735 705.702 770.86 707.197 808.456 708.656Z" fill="white"/>
<path d="M821.84 612.305C827.145 613.358 832.041 614.333 836.936 615.316C845.487 617.034 849.198 622.648 846.774 630.989C845.483 635.431 843.686 639.802 841.538 643.902C837.083 652.411 832.249 654.682 822.669 653.144C798.428 649.254 775.515 641.441 754.332 628.999C747.63 625.062 741.733 624.731 734.653 628.22C711.836 639.464 687.466 645.328 662.176 647.334C647.524 648.497 636.237 637.225 636.854 622.463C637.164 615.057 640.527 610.976 647.931 610.064C662.97 608.211 678.122 606.793 692.269 600.942C698.717 598.275 704.704 594.492 710.899 591.216C710.672 590.574 710.444 589.933 710.216 589.291C702.337 588.97 694.458 588.624 686.578 588.334C676.76 587.973 666.938 587.709 657.122 587.31C646.673 586.886 642.002 582.112 641.734 571.722C641.691 570.058 641.697 568.389 641.777 566.727C642.376 554.268 647.868 548.775 660.41 549.162C710.01 550.691 759.603 552.431 809.198 554.114C816.853 554.373 824.51 554.658 832.157 555.077C844 555.725 848.784 561.021 848.534 572.991C848.523 573.49 848.543 573.991 848.512 574.49C847.613 589.028 843.177 593.181 828.516 593.188C812.905 593.196 797.295 593.19 780.387 593.19C792.995 603.815 806.932 608.617 821.84 612.305Z" fill="white"/>
<path d="M590.451 711.414C590.647 733.722 590.861 755.549 591.043 777.378C591.069 780.542 591.074 783.717 590.852 786.871C590.117 797.306 584.756 803.806 574.465 805.236C566.42 806.355 558.193 806.722 550.065 806.55C537.548 806.285 531.095 799.717 530.744 787.112C530.076 763.129 529.706 739.138 529.263 715.15C528.412 669.169 527.595 623.188 526.769 577.208C526.386 555.88 532.665 549.413 554.062 549.044C557.726 548.981 561.388 548.811 565.052 548.763C580.24 548.566 588.396 556.284 588.69 571.484C588.984 586.645 588.938 601.812 589.136 616.975C589.544 648.296 590.015 679.615 590.451 711.414Z" fill="white"/>
<path d="M242.91 758.236C261.426 756.36 279.487 754.5 297.555 752.727C300.194 752.468 302.891 752.4 305.53 752.622C315.779 753.484 321.921 758.564 323.787 768.656C325.053 775.5 325.596 782.533 325.829 789.503C326.305 803.761 319.746 811.177 305.522 812.857C287.163 815.025 268.779 816.986 250.42 819.154C204.106 824.622 157.795 830.106 111.496 835.696C97.0358 837.441 87.7565 830.883 85.8624 816.514C84.953 809.615 84.521 802.552 84.8629 795.613C85.4248 784.206 91.3466 777.112 102.615 775.284C120.026 772.459 137.566 770.383 155.087 768.296C184.195 764.829 213.331 761.606 242.91 758.236Z" fill="white"/>
<path d="M1121.76 610.116C1117.25 661.214 1112.78 711.832 1108.26 762.447C1106.61 781.034 1104.93 799.619 1103.11 818.19C1101.6 833.669 1094.76 839.325 1079.29 838.117C1073.98 837.702 1068.65 837.324 1063.4 836.482C1051.03 834.501 1046.07 828.303 1047 815.778C1048.27 798.667 1049.78 781.573 1051.28 764.479C1055.1 720.832 1058.98 677.189 1062.84 633.544C1063.82 622.425 1064.66 611.292 1065.81 600.191C1067.02 588.607 1073.44 582.715 1084.96 582.893C1091.61 582.995 1098.31 583.496 1104.87 584.524C1117.03 586.429 1122.42 593.345 1122.04 605.648C1122 606.978 1121.87 608.306 1121.76 610.116Z" fill="white"/>
<path d="M664.946 694.92C653.974 694.646 643.486 694.409 632.999 694.101C622.068 693.78 617.3 688.959 617.093 677.953C617.034 674.8 617.053 671.609 617.46 668.49C618.794 658.264 623.459 654.089 633.738 654.28C648.222 654.548 662.704 655.019 677.18 655.575C733.089 657.721 788.997 659.922 844.904 662.134C858.67 662.679 863.305 668.027 862.14 681.798C860.599 700.028 857.837 702.714 839.638 701.993C785.394 699.846 731.156 697.515 676.916 695.267C673.089 695.108 669.259 695.037 664.946 694.92Z" fill="white"/>
<path d="M962.904 263.535C990.135 269.547 1017.37 275.558 1044.47 281.996C1041.29 284.124 1038.22 285.777 1035.2 287.533C1005.45 304.843 975.723 322.206 945.907 339.405C944.096 340.45 941.459 340.827 939.37 340.492C930.85 339.128 922.397 337.347 913.913 335.755C896.619 332.508 879.321 329.284 861.986 325.714C862.579 324.671 863.083 323.753 863.858 323.292C884.011 311.311 904.25 299.474 924.348 287.401C937.303 279.618 950.059 271.502 962.904 263.535Z" fill="#D6AE83"/>
<path d="M862.024 326.052C879.321 329.285 896.619 332.509 913.913 335.755C922.397 337.348 930.85 339.128 939.37 340.493C941.459 340.827 944.096 340.45 945.907 339.406C975.723 322.207 1005.45 304.844 1035.2 287.534C1038.22 285.778 1041.29 284.125 1044.69 282.316C1049.64 284.733 1047.32 288.94 1047.33 292.841C1027.93 304.435 1008.74 315.696 989.583 327.009C977.998 333.849 966.366 340.619 954.987 347.788C952.754 349.195 950.455 352.13 950.113 354.624C948.63 365.439 947.834 376.35 946.839 387.23C945.513 401.735 944.174 416.24 942.951 430.755C941.825 444.125 940.941 457.516 939.775 470.882C938.625 484.07 937.212 497.234 935.998 510.416C935.193 519.159 934.513 527.913 933.816 536.664C933.281 543.387 932.806 550.115 932.607 557.111C928.759 558.648 924.608 559.916 920.042 561.097C923.093 521.805 926.538 482.596 930.032 443.392C932.287 418.084 934.612 392.781 936.915 367.477C937.216 364.17 937.634 360.873 937.894 357.564C938.235 353.22 936.306 350.78 931.891 349.934C913.789 346.468 895.719 342.832 877.629 339.302C869.973 337.807 862.297 336.419 853.91 334.751C848.008 333.556 842.838 332.522 837.641 331.645C826.433 329.756 815.211 327.947 803.994 326.105C794.296 324.133 784.617 322.056 774.894 320.213C757.16 316.85 739.4 313.626 721.254 310.312C722.518 304.697 728.213 304.212 732.567 301.652C749.653 305 766.22 308.249 782.848 311.152C792.115 312.77 801.483 313.81 811.044 315.413C813.353 316.222 815.409 316.809 817.498 317.226C832.336 320.187 847.182 323.114 862.024 326.052Z" fill="#7A5232"/>
<path d="M810.806 315.11C801.483 313.81 792.115 312.769 782.848 311.151C766.22 308.248 749.653 304.999 732.895 301.541C770.681 282.127 808.658 263.117 846.555 243.95C851.751 241.322 856.784 240.704 862.449 241.935C879.697 245.68 897.008 249.132 914.426 253.19C887.853 269.275 861.12 284.821 834.46 300.492C826.471 305.187 818.685 310.228 810.806 315.11Z" fill="#D6AE83"/>
<path d="M811.044 315.411C818.685 310.227 826.471 305.186 834.46 300.491C861.12 284.82 887.853 269.274 914.756 253.387C930.679 256.477 946.404 259.86 962.516 263.389C950.059 271.501 937.303 279.617 924.348 287.4C904.25 299.473 884.011 311.31 863.858 323.291C863.083 323.752 862.579 324.67 861.986 325.713C847.182 323.112 832.336 320.186 817.498 317.224C815.409 316.807 813.353 316.221 811.044 315.411Z" fill="#A5764E"/>
<path d="M726.086 973.121C722.241 966.963 718.131 961.28 715.308 955.016C712.993 949.878 715.243 944.999 719.23 940.992C726.869 933.317 734.398 925.532 741.968 917.789C754.037 905.445 758.948 890.249 759.72 873.38C759.971 867.893 760.166 862.391 760.761 856.936C761.526 849.917 765.435 845.856 772.426 845.558C778.718 845.289 785.089 845.662 791.354 846.377C796.692 846.987 800.507 850.475 800.788 855.867C801.254 864.807 801.385 873.834 800.682 882.748C799.847 893.339 802.489 902.495 809.135 910.646C814.766 917.552 820.349 924.498 825.953 931.426C826.352 931.233 826.751 931.04 827.15 930.847C827.15 927.736 827.241 924.622 827.132 921.515C826.821 912.589 830.424 908.836 839.246 909.054C844.576 909.186 849.908 909.279 855.233 909.531C858.892 909.705 859.708 907.758 859.748 904.566C859.787 901.411 859.085 899.469 855.431 899.356C849.442 899.171 843.431 898.968 837.485 898.288C830.181 897.453 828.248 895.531 827.587 888.227C827.141 883.293 827.062 878.228 827.656 873.323C828.418 867.026 831.798 864.385 838.154 864.279C845.454 864.157 852.757 864.25 860.966 864.25C860.966 862.238 860.901 860.001 860.977 857.768C861.29 848.561 866.092 843.579 875.317 843.331C880.13 843.201 885.001 843.348 889.772 843.953C898.711 845.087 902.046 848.931 901.862 857.922C901.544 873.413 901.051 888.902 900.463 904.386C899.647 925.858 898.688 947.325 897.761 968.793C897.503 974.783 897.287 980.782 896.794 986.755C896.077 995.433 891.861 999.261 883.179 999.342C879.014 999.381 874.837 999.419 870.683 999.162C860.384 998.526 856.634 994.563 856.765 984.315C856.915 972.654 857.064 960.984 857.652 949.341C857.899 944.437 856.234 942.779 851.501 943.114C847.389 943.405 843.24 943.175 838.751 943.175C841.603 953.659 836.816 961.567 830.636 968.801C824.619 975.843 817.89 976.462 811.113 970.035C801.575 960.987 792.615 951.328 783.429 941.91C782.519 940.976 781.762 939.892 780.941 938.886C771.321 947.735 762.278 956.318 752.917 964.539C748.941 968.031 744.435 970.984 739.923 973.785C735.472 976.548 730.788 976.681 726.086 973.121Z" fill="#B77F4F"/>
<path d="M340.086 924.481C343.448 923.008 346.459 921.691 349.469 920.375C349.426 920.047 349.382 919.719 349.339 919.391C348 919.311 346.658 919.133 345.322 919.167C335.498 919.417 325.676 919.764 315.851 919.973C305.287 920.198 301.812 916.702 301.747 905.997C301.74 904.831 301.709 903.662 301.769 902.499C302.151 895.082 305.488 891.602 312.991 891.194C326.958 890.435 340.934 889.834 354.904 889.144C358.229 888.979 361.547 888.636 364.873 888.534C368.263 888.43 369.645 886.643 369.596 883.442C369.541 879.874 367.344 878.991 364.259 879.108C350.279 879.641 336.297 880.146 322.316 880.672C321.319 880.71 320.326 880.843 319.331 880.926C304.741 882.137 300.771 878.036 302.281 860.727C302.766 855.163 306.29 851.536 312.01 850.938C318.791 850.231 325.608 849.807 332.42 849.48C351.385 848.572 370.355 847.773 389.324 846.949C390.987 846.877 392.659 846.886 394.322 846.957C402.551 847.307 407.319 851.656 407.862 859.958C408.264 866.098 408.186 872.285 407.995 878.442C407.871 882.412 409.37 883.699 413.287 883.5C419.437 883.187 425.616 883.239 431.776 883.385C434.987 883.461 436.209 882.425 436.077 879.078C435.784 871.589 435.749 864.086 435.768 856.589C435.796 845.997 440.45 841.351 451.004 841.208C455.669 841.144 460.339 840.986 464.997 841.157C471.129 841.381 474.941 844.749 475.897 850.801C476.413 854.073 476.559 857.42 476.651 860.74C477.364 886.378 478.099 912.016 478.665 937.658C478.962 951.149 474.875 955.187 461.292 955.433C457.961 955.493 454.627 955.538 451.296 955.475C442.628 955.31 438.751 951.837 438.112 943.183C437.695 937.542 437.797 931.862 437.688 926.199C437.562 919.662 436.17 918.219 429.729 918.38C420.739 918.605 411.745 918.833 402.767 919.32C401.192 919.406 399.13 920.363 398.229 921.6C380.663 945.737 355.325 956.597 327.5 963.206C323.47 964.164 319.332 964.793 315.207 965.194C310.619 965.64 307.078 963.408 304.777 959.588C301.545 954.223 300.747 948.271 302.115 942.228C303.123 937.775 306.497 935.457 310.785 934.107C320.469 931.059 330.089 927.808 340.086 924.481Z" fill="#B77F4F"/>
<path d="M436.791 1065.16C406.322 1066.08 376.347 1066.91 346.378 1067.95C334.059 1068.37 327.563 1063.71 326.466 1051.45C325.475 1040.37 325.266 1029.16 325.676 1018.04C326.021 1008.68 330.77 1004.66 340.063 1004.28C359.371 1003.5 378.684 1002.85 397.996 1002.17C408.152 1001.81 418.31 1001.52 428.465 1001.16C429.617 1001.12 431.125 1001.21 431.831 1000.56C433.345 999.152 434.443 997.298 435.712 995.628C434.023 994.633 432.342 992.798 430.645 992.784C422.155 992.714 413.659 993.071 405.168 993.37C382.527 994.169 359.891 995.107 337.246 995.769C332.337 995.913 326.55 996.277 324.408 990.394C322.032 983.867 321.076 976.746 325.704 970.873C327.431 968.682 331.492 967.439 334.547 967.324C369.174 966.025 403.813 965.024 438.449 963.953C446.94 963.69 455.431 963.256 463.922 963.268C472.836 963.281 477.658 967.089 478.339 975.848C479.228 987.283 479.638 998.825 479.17 1010.28C478.73 1021.05 474.32 1024.6 463.616 1025.01C454.793 1025.35 445.968 1025.64 437.144 1025.95C417.832 1026.63 398.52 1027.3 379.209 1027.98C378.377 1028 377.239 1027.73 376.77 1028.16C375.239 1029.58 373.951 1031.26 372.57 1032.84C374.1 1034.04 375.612 1036.24 377.162 1036.26C386.153 1036.42 395.157 1036.18 404.15 1035.87C425.957 1035.14 447.759 1034.25 469.567 1033.52C479.4 1033.19 483.652 1036.81 483.83 1045.33C484.112 1058.83 480.591 1063.71 470.256 1064.07C459.267 1064.45 448.276 1064.8 436.791 1065.16Z" fill="#B77F4F"/>
<path d="M592.972 879.222C592.966 887.716 593.009 895.709 592.946 903.702C592.86 914.787 588.505 919.195 577.579 919.307C569.254 919.393 560.928 919.391 552.603 919.474C546.472 919.535 545 921.311 545.047 928.409C545.092 935.09 546.466 936.663 552.747 936.485C565.56 936.124 578.367 935.581 591.179 935.161C601.786 934.813 604.993 937.757 605.596 948.252C606.524 964.411 603.573 967.624 587.515 968.299C567.561 969.137 547.612 970.086 527.66 970.958C525.501 971.052 523.316 971.119 521.171 970.912C511.546 969.983 506.362 965.323 505.949 955.651C505.245 939.191 504.859 922.692 505.141 906.223C505.337 894.691 511.021 889.811 523.092 889.415C531.41 889.143 539.745 889.233 548.068 889.372C552.332 889.443 555.774 889.144 555.595 883.499C555.434 878.386 554.427 877.443 547.738 877.412C537.913 877.366 528.087 877.387 518.262 877.297C508.181 877.206 504.778 873.793 504.597 863.776C504.296 847.121 506.998 844.363 523.782 844.33C540.934 844.295 558.086 844.272 575.239 844.299C588.044 844.32 592.757 849.008 592.882 861.737C592.938 867.398 592.944 873.06 592.972 879.222Z" fill="#B77F4F"/>
<path d="M650.713 1044.19C650.728 1039.53 650.744 1035.36 650.763 1031.2C650.797 1023.77 649.454 1022.37 642.162 1022.37C609.513 1022.41 576.864 1022.46 544.215 1022.49C542.05 1022.5 539.876 1022.52 537.724 1022.34C531.556 1021.79 527.476 1018.9 526.648 1012.74C525.795 1006.39 525.84 999.81 526.445 993.422C526.989 987.677 531.113 984.4 536.797 983.455C539.085 983.074 541.436 982.941 543.76 982.93C587.568 982.73 631.376 982.554 675.185 982.42C677.835 982.412 680.509 982.649 683.134 983.032C689.687 983.989 693.831 987.704 694.705 994.278C695.357 999.183 695.166 1004.22 695.139 1009.19C695.07 1022.02 694.937 1034.85 694.728 1047.67C694.522 1060.35 689.641 1065.08 676.975 1065.1C673.143 1065.11 669.31 1065.2 665.481 1065.12C655.708 1064.91 651.115 1060.38 650.758 1050.68C650.684 1048.68 650.727 1046.68 650.713 1044.19Z" fill="#B77F4F"/>
<path d="M867.821 1024.22C873.644 1024.45 878.99 1024.43 884.289 1024.93C893.147 1025.75 896.97 1029.41 897.418 1038.22C897.695 1043.66 897.264 1049.24 896.318 1054.62C894.869 1062.84 889.81 1066.34 880.209 1066.07C861.062 1065.55 841.921 1064.81 822.778 1064.15C801.803 1063.43 780.829 1062.71 759.855 1061.95C745.897 1061.45 740.568 1056.1 740.667 1042.12C740.774 1026.97 741.107 1011.81 741.587 996.66C741.923 986.068 747.024 981.327 757.747 981.358C762.902 981.372 768.075 981.614 773.206 982.106C780.659 982.821 784.455 986.54 784.832 993.976C785.195 1001.12 785.054 1008.3 784.838 1015.45C784.714 1019.57 785.906 1021.44 790.426 1021.57C816.063 1022.31 841.692 1023.3 867.821 1024.22Z" fill="#B77F4F"/>
<path d="M602.796 887.994C605.322 887.14 607.562 885.948 609.744 886.046C614.122 886.243 614.995 884.337 614.873 880.405C614.615 872.081 614.717 863.741 614.834 855.409C614.974 845.434 618.893 841.567 628.971 841.53C632.952 841.515 636.938 841.929 640.915 842.242C646.095 842.65 649.159 845.519 650.043 850.595C650.442 852.879 650.725 855.217 650.727 857.531C650.744 888.863 650.726 920.195 650.636 951.527C650.628 954.504 650.342 957.534 649.729 960.444C648.527 966.142 645.202 970.38 639.241 971.077C634.359 971.649 629.275 971.545 624.402 970.865C619.479 970.179 616.3 966.568 615.8 961.677C615.092 954.743 615.019 947.738 614.83 940.76C614.695 935.764 614.721 930.759 614.854 925.763C614.928 922.965 614.095 921.652 611.044 921.198C601.628 919.798 598.863 916.498 598.946 906.806C599 900.448 597.367 893.671 602.796 887.994Z" fill="#B77F4F"/>
<path d="M670.948 972.408C664.039 970.498 661.772 967.923 661.658 960.956C661.458 948.807 661.58 936.652 661.594 924.5C661.62 902.191 661.657 879.883 661.716 857.574C661.722 855.415 661.71 853.221 662.066 851.103C663.086 845.049 665.979 841.923 672.112 841.012C676.187 840.407 680.399 840.394 684.53 840.566C694.602 840.983 698.74 845.19 698.687 855.262C698.589 874.066 698.187 892.869 698.013 911.674C697.879 926.156 697.945 940.64 697.815 955.122C697.789 957.93 697.52 960.788 696.927 963.528C695.619 969.567 691.962 972.84 685.791 973.062C680.995 973.235 676.173 972.692 670.948 972.408Z" fill="#B77F4F"/>
<path d="M242.96 900.038C245.383 900.853 247.449 901.5 249.471 902.262C257.896 905.438 261.481 912.018 259.355 920.326C257.192 928.782 251.811 932.024 242.334 930.578C228.37 928.449 214.34 926.672 200.462 924.081C188.249 921.8 182.419 912.187 185.469 900.836C187.969 891.529 195.718 886.988 206.112 889.607C218.358 892.692 230.434 896.454 242.96 900.038Z" fill="#B77F4F"/>
<path d="M965.205 929.674C963.612 929.917 962.46 930.096 961.302 930.191C952.921 930.883 948.51 928.129 946.449 920.94C944.264 913.323 947.06 905.993 954.4 903.177C965.093 899.075 976.071 895.686 987.022 892.3C991.918 890.786 996.996 889.495 1002.08 889.029C1010.38 888.268 1015.65 892.004 1017.73 899.118C1020.15 907.373 1017.41 916.147 1010.02 919.133C1001.63 922.521 992.709 924.709 983.877 926.837C977.925 928.271 971.729 928.696 965.205 929.674Z" fill="#B77F4F"/>
<path d="M247.449 993.844C239.221 997.511 231.432 1001.28 223.396 1004.41C215.299 1007.57 208.996 1005.21 205.602 998.507C201.5 990.405 203.052 981.518 210.187 977.303C223.01 969.729 236.842 964.515 251.637 962.316C258.511 961.295 262.944 964.129 265.002 970.001C267.533 977.22 265.899 983.655 260.148 987.226C256.21 989.671 251.914 991.54 247.449 993.844Z" fill="#B77F4F"/>
<path d="M951.144 961.998C967.057 963.673 981.323 969.129 994.62 976.891C1001.79 981.075 1003.18 990.271 998.984 998.21C995.261 1005.25 988.902 1007.58 980.711 1004C969.289 999.003 958.029 993.613 946.865 988.059C941.091 985.187 938.913 979.915 939.858 973.391C940.748 967.247 944.381 963.441 951.144 961.998Z" fill="#B77F4F"/>
<path d="M618.494 411.91C591.583 433.137 561.498 438.356 529.634 428.643C499.668 419.509 483.238 397.452 480.222 366.568C477.522 338.914 485.913 313.924 504.435 293.207C539.335 254.169 596.275 258.217 625.859 301.567C639.825 322.032 647.259 344.405 642.844 369.579C639.879 386.493 631.519 400.35 618.494 411.91ZM587.359 395.572C594.015 395.564 600.241 394.021 605.707 390.11C608.783 387.909 610.104 384.947 607.821 381.49C605.689 378.262 602.716 378.335 599.478 379.965C597.261 381.082 594.981 382.199 592.602 382.846C583.687 385.27 572.216 380.636 571.887 368.863C571.715 362.721 570.811 356.601 570.26 350.469C569.835 345.739 571.525 342.417 575.714 339.649C580.792 336.295 585.96 332.581 589.811 327.957C600.602 314.999 595.631 299.054 579.555 294.012C566.153 289.808 552.893 291.176 539.917 296.038C531.971 299.016 526.041 304.047 524.719 312.955C523.341 322.232 527.533 329.264 534.762 334.361C539.614 337.782 545.003 340.548 550.417 343.03C554.604 344.949 556.461 347.8 556.768 352.212C557.219 358.686 557.783 365.158 558.522 371.605C559.105 376.695 557.349 380.804 553.701 384.101C548.112 389.152 541.672 390.002 534.633 387.556C530.978 386.285 527.583 386.429 525.904 390.651C524.49 394.208 526.252 397.599 530.971 398.816C535.561 400 540.468 400.81 545.166 400.546C554.481 400.023 561.626 394.984 567.063 387.507C572.89 392.477 579.127 395.332 587.359 395.572Z" fill="#FBF9F6"/>
<path d="M462.035 264.443C470.429 267.35 474.33 273.736 475.41 281.421C476.343 288.06 476.249 294.984 475.56 301.675C474.735 309.692 468.429 315.826 461.255 317.036C453.286 318.38 444.816 314.38 441.24 307.007C436.358 296.941 436.228 286.349 440.02 276.034C443.556 266.415 449.86 263.411 462.035 264.443Z" fill="#281D11"/>
<path d="M634.666 265.401C636.515 259.876 637.353 254.109 640.375 249.917C646.243 241.778 659.976 242.455 666.02 250.646C674.121 261.625 674.444 273.839 670.097 286.162C667.399 293.811 660.856 297.474 652.937 297.245C645.636 297.034 639.324 292.801 637.157 284.971C635.461 278.841 635.418 272.255 634.666 265.401Z" fill="#281D11"/>
<path d="M389.092 123.781C392.477 126.98 395.812 129.77 398.521 133.074C400.649 135.669 400.348 138.155 397.218 140.673C386.484 149.308 375.952 158.205 365.584 167.277C362.597 169.89 360.628 169.636 357.969 167.13C348.07 157.799 346.553 142.292 354.546 130.7C362.073 119.784 375.41 117.014 389.092 123.781Z" fill="#271C10"/>
<path d="M714.875 88.7802C732.769 93.1553 738.698 115.565 725.896 130.428C723.8 132.861 721.717 133.418 718.581 131.446C708.049 124.824 697.336 118.482 686.584 112.218C682.15 109.635 681.485 108.322 684.254 104.094C691.372 93.2268 700.404 85.9664 714.875 88.7802Z" fill="#271C10"/>
<path d="M840.34 396.344C842.837 396.022 844.942 395.749 848.074 395.341C845.465 406.18 842.987 416.473 840.509 426.766C840.883 427.005 841.256 427.245 841.629 427.484C846.942 423.7 852.255 419.916 857.455 416.212C858.129 416.833 858.51 417.011 858.579 417.272C860.93 426.207 860.926 426.209 870.356 426.252C880.279 426.298 880.279 426.298 876.353 435.374C875.693 436.901 875.198 438.529 874.344 439.939C871.866 444.029 870.624 447.496 876.188 450.456C879.282 452.103 877.838 454.081 875.221 455.49C867.747 459.514 860.368 463.716 852.906 467.765C848.606 470.098 845.479 472.804 847.656 478.393C848.149 479.658 847.729 481.279 847.729 483.638C838.1 480.92 828.941 478.334 819.827 475.762C814.929 484.866 820.245 496.249 812.668 503.999C811.976 504.046 811.285 504.093 810.594 504.14C809.96 501.466 808.657 498.75 808.823 496.126C809.27 489.049 810.343 482.013 811.26 474.179C800.823 473.269 791.024 472.415 781.379 471.575C781.244 470.632 781.05 470.231 781.174 470.007C786.265 460.836 786.301 460.808 779.364 453.089C773.8 446.899 768.134 440.801 762.543 434.636C761.794 433.81 761.22 432.824 760.688 432.082C760.855 431.584 760.871 431.318 760.967 431.285C770.051 428.154 767.396 421.669 765.702 415.291C765.057 412.865 765.128 410.249 764.872 407.719C767.398 408.129 769.929 408.509 772.447 408.967C773.258 409.114 774.079 409.372 774.814 409.742C779.542 412.124 783.355 412.198 785.072 406.061C785.307 405.22 786.278 404.584 787.509 403.157C792.129 409.291 796.51 415.108 800.89 420.924C801.291 420.783 801.691 420.642 802.091 420.502C801.599 411.29 801.168 402.074 800.592 392.867C800.271 387.717 800.572 387.4 805.111 389.306C811.951 392.178 811.934 392.166 816.209 386.074C819.22 381.782 822.284 377.527 826.029 372.266C829.271 380.165 832.112 386.834 834.731 393.588C835.75 396.216 837.084 397.543 840.34 396.344Z" fill="#AA412D"/>
<path d="M803.91 326.529C815.211 327.946 826.433 329.755 837.641 331.644C842.838 332.521 848.008 333.555 853.473 334.753C853.104 342.577 852.452 350.167 851.798 357.757C851.526 360.919 849.626 362.212 846.707 361.63C833.06 358.905 819.396 356.238 805.859 353.042C804.152 352.639 802.004 349.212 802.039 347.221C802.156 340.457 803.16 333.709 803.91 326.529Z" fill="#A7774F"/>
<path d="M586.893 395.571C579.127 395.333 572.89 392.477 567.063 387.507C561.626 394.984 554.481 400.024 545.166 400.547C540.468 400.81 535.561 400 530.971 398.816C526.252 397.599 524.49 394.208 525.904 390.651C527.583 386.429 530.978 386.285 534.633 387.556C541.672 390.003 548.112 389.153 553.701 384.101C557.349 380.805 559.105 376.695 558.522 371.605C557.783 365.158 557.219 358.686 556.768 352.212C556.461 347.8 554.604 344.949 550.417 343.03C545.003 340.548 539.614 337.782 534.762 334.361C527.533 329.264 523.341 322.232 524.719 312.956C526.041 304.047 531.971 299.016 539.917 296.038C552.893 291.176 566.153 289.808 579.555 294.012C595.631 299.054 600.602 314.999 589.811 327.957C585.96 332.581 580.792 336.295 575.714 339.65C571.525 342.417 569.835 345.739 570.26 350.469C570.811 356.601 571.715 362.721 571.887 368.863C572.216 380.636 583.687 385.27 592.602 382.846C594.981 382.199 597.261 381.082 599.478 379.965C602.716 378.335 605.689 378.262 607.821 381.49C610.104 384.947 608.783 387.909 605.707 390.111C600.241 394.021 594.015 395.564 586.893 395.571Z" fill="#281D11"/>
</svg>
