<svg width="1131" height="1161" viewBox="0 0 1131 1161" fill="none" xmlns="http://www.w3.org/2000/svg">
<path d="M1088.94 444.783C1086.28 466.364 1080.61 486.55 1070.27 505.281C1068.04 509.312 1065.64 513.249 1063.87 516.292C1074.12 521.68 1084.66 525.964 1093.79 532.279C1114.7 546.735 1126.28 567.092 1129.43 592.511C1131.35 608.074 1128.8 623.253 1127.43 638.572C1126.35 650.619 1125.37 662.676 1124.25 674.719C1123.05 687.576 1121.7 700.418 1120.48 713.274C1119.68 721.687 1119.06 730.116 1118.27 738.53C1117.02 751.883 1115.67 765.225 1114.42 778.578C1113.33 790.289 1112.09 801.993 1111.32 813.726C1109.96 834.217 1106.16 853.805 1093.58 870.863C1082.87 885.391 1069.33 895.727 1052.1 901.283C1050.55 901.781 1048.66 903.779 1048.41 905.324C1044.81 927.038 1041.9 948.874 1037.9 970.512C1035.11 985.638 1031.69 1000.74 1027.18 1015.44C1019.44 1040.62 1004.66 1061.42 983.572 1077.2C967.938 1088.91 950.142 1096.34 930.702 1099.19C923.014 1100.32 915.183 1100.45 907.462 1101.4C905.627 1101.62 903.401 1102.91 902.324 1104.41C883.646 1130.37 858.097 1144.53 826.665 1148.22C813.345 1149.78 799.909 1150.4 786.516 1151.28C769.968 1152.38 753.413 1153.38 736.854 1154.3C723.267 1155.06 709.673 1155.7 696.077 1156.29C679.487 1157.02 662.88 1157.42 646.302 1158.35C587.236 1161.68 528.12 1160.02 469.026 1160.12C448.601 1160.16 428.161 1159.16 407.751 1158.17C387.051 1157.15 366.347 1155.93 345.706 1154.1C330.065 1152.72 314.242 1151.73 299.381 1145.8C279.942 1138.03 263.236 1126.78 252.314 1108.32C250.485 1105.23 248.044 1104.18 244.483 1104.25C221.295 1104.73 199.32 1099.88 178.713 1089.04C158.917 1078.62 143.71 1063.48 131.921 1044.61C119.707 1025.07 114.134 1003.17 109.415 981.051C105.619 963.257 102.709 945.271 99.524 927.349C98.8031 923.292 98.5708 919.149 98.1174 915.081C90.9274 913.582 83.8185 912.702 77.0945 910.594C46.716 901.072 26.018 881.329 17.4217 850.482C14.2588 839.132 12.4782 826.977 12.6013 815.215C12.8938 787.275 22.4792 762.571 42.5521 742.509C45.4762 739.587 48.6943 736.958 51.6841 734.277C41.9602 720.728 32.6382 708.237 23.8561 695.377C12.974 679.442 4.75769 662.202 1.74326 642.962C-4.27962 604.52 4.96526 570.823 34.7738 544.602C50.625 530.659 69.7634 523.439 90.896 521.167C106.187 519.524 121.365 516.833 136.606 514.703C145.458 513.465 154.315 512.182 163.211 511.392C166.543 511.096 167.594 510.115 167.23 506.904C162.908 468.756 174.936 436.222 201.346 408.799C205.933 404.036 211.449 400.178 216.199 395.556C217.779 394.019 218.489 391.463 219.242 389.251C219.648 388.059 219.299 386.61 219.297 385.277C219.282 375.35 219.187 365.422 219.272 355.495C219.498 329.281 224.221 303.768 231.019 278.527C237.444 254.672 246.603 231.907 257.026 209.579C257.716 208.101 257.351 205.32 256.353 203.989C244.782 188.573 236.626 171.59 233.645 152.531C229.467 125.815 234.246 100.474 248.06 77.2254C265.942 47.1296 292.503 28.3227 326.729 21.8941C357.739 16.0696 386.556 22.6502 411.369 43.0213C416.849 47.5202 421.643 52.8895 426.504 58.091C428.688 60.4277 430.541 61.1453 433.783 60.1172C457.092 52.7258 480.887 47.7203 505.358 46.2355C514.455 45.6835 523.57 44.2207 532.631 44.5264C546.854 45.0062 561.042 46.5909 575.237 47.8064C578.529 48.0883 581.776 48.8623 585.064 49.2381C588.284 49.6063 590.541 49.0548 592.841 45.7413C609.294 22.037 631.575 6.57355 660.186 1.60482C689.536 -3.49222 716.314 3.65374 739.97 21.5947C761.432 37.8722 775.178 59.3945 780.885 85.7728C786.132 110.025 782.682 133.292 771.611 155.389C769.749 159.106 769.68 161.706 772.102 165.274C777.691 173.51 782.667 182.163 788.074 190.943C794.163 188.467 800.299 185.604 806.678 183.461C817.286 179.898 827.83 181.416 838.507 184.081C870.362 192.034 902.333 199.518 934.228 207.312C958.397 213.218 982.521 219.309 1006.66 225.336C1024.96 229.905 1037.79 245.736 1037.15 264.618C1036.62 280.325 1034.75 295.989 1033.38 311.664C1032.93 316.86 1033.4 320.562 1038.89 323.951C1063.71 339.26 1078.52 361.889 1085.56 390.085C1088.76 402.929 1090.25 415.837 1090.19 428.973C1090.17 434.101 1089.47 439.226 1088.94 444.783ZM1018.74 338.228C1015.67 337.11 1012.6 335.992 1009.59 334.894C1011.68 312.447 1013.71 290.391 1015.79 268.34C1016.78 257.825 1011.28 249.609 1001.12 247.11C944.37 233.16 887.597 219.316 830.854 205.355C822.266 203.242 814.16 203.707 806.082 207.611C796.846 212.074 787.363 216.024 777.834 220.266C776.469 217.433 775.5 214.938 774.142 212.677C764.731 197.005 755.399 181.281 745.639 165.828C743.653 162.683 743.191 160.794 745.323 157.616C756.727 140.62 762.076 121.907 760.552 101.357C757.973 66.6007 734.159 36.7741 701.018 26.8564C668.625 17.1628 634.553 28.5756 613.073 56.6652C608.667 62.4261 605.248 68.9409 601.247 75.3089C596.041 74.269 590.69 73.033 585.281 72.1455C530.514 63.1595 476.999 67.755 424.931 87.2681C421.479 88.5618 419.874 88.1441 417.862 84.8905C410.198 72.4937 400.137 62.2931 387.208 55.4377C357.468 39.6683 327.738 41.3916 299.711 58.8455C269.867 77.4312 254.757 105.165 256.087 140.699C256.938 163.42 266.333 182.918 281.754 199.429C284.564 202.437 284.686 204.464 282.784 207.904C279.082 214.599 275.811 221.546 272.634 228.513C247.582 283.442 236.054 340.764 242.581 401.17C243.006 405.104 241.166 406.271 238.463 407.931C206.385 427.638 188.99 456 188.248 493.992C188.011 506.107 190.652 517.729 195.386 529.196C193.903 529.533 192.805 529.87 191.682 530.025C157.201 534.797 122.694 539.385 88.2436 544.366C64.8042 547.756 46.163 559.368 34.2384 579.922C16.3377 610.778 19.117 641.937 35.8139 672.248C41.8153 683.143 49.5045 693.134 56.7176 703.33C65.0768 715.145 73.7598 726.732 82.3513 738.485C76.0529 743.284 69.8712 747.54 64.2002 752.393C36.3558 776.219 26.8228 818.226 41.4295 851.875C53.1784 878.94 78.9662 893.997 110.941 892.464C113.188 892.356 115.437 892.264 117.611 892.168C118.556 900.385 119.284 907.995 120.327 915.562C124.583 946.437 129.858 977.15 139.354 1006.89C150.898 1043.04 174.354 1067.6 211.565 1077.8C225.655 1081.66 240.112 1082.68 254.671 1082.27C260.438 1082.11 264.443 1084.3 267.06 1089.65C271.364 1098.44 277.557 1105.77 285.201 1111.96C299.92 1123.89 317.043 1129.21 335.587 1130.15C389.33 1132.87 443.062 1136.29 496.844 1137.69C578.181 1139.81 659.473 1136.67 740.695 1132.23C768.644 1130.7 796.615 1129.07 824.46 1126.31C849.156 1123.87 870.182 1112.87 883.746 1091.72C890.03 1081.92 896.897 1078.01 907.741 1079.4C908.396 1079.49 909.073 1079.4 909.739 1079.39C958.183 1078.1 995.775 1049.54 1008.25 1002.77C1014.29 980.149 1018.17 956.912 1022.26 933.818C1025.13 917.634 1026.71 901.222 1028.9 884.668C1030.48 884.355 1032.25 883.988 1034.03 883.652C1064.66 877.873 1085.45 855.035 1088.31 824.08C1094.84 753.229 1101.39 682.379 1107.94 611.53C1110.62 582.6 1097.95 557.988 1072.69 545.363C1064.17 541.103 1054.6 538.839 1045.35 536.185C1038.2 534.133 1030.82 532.896 1022.53 531.074C1025.85 527.273 1028.45 524.078 1031.28 521.103C1064.38 486.27 1073.82 444.556 1065.06 398.562C1059.93 371.634 1045.55 350.245 1018.74 338.228Z" fill="#F6E2CA"/>
<path d="M1019.1 338.358C1045.55 350.244 1059.93 371.633 1065.06 398.561C1073.82 444.555 1064.38 486.27 1031.28 521.102C1028.45 524.077 1025.85 527.272 1022.53 531.073C1030.82 532.896 1038.2 534.133 1045.35 536.184C1054.6 538.838 1064.17 541.102 1072.69 545.362C1097.95 557.987 1110.62 582.599 1107.94 611.529C1101.39 682.379 1094.84 753.228 1088.31 824.079C1085.45 855.034 1064.66 877.873 1034.03 883.651C1032.25 883.987 1030.48 884.354 1028.9 884.667C1026.71 901.221 1025.13 917.633 1022.26 933.817C1018.17 956.911 1014.29 980.148 1008.25 1002.77C995.775 1049.54 958.183 1078.1 909.739 1079.39C909.073 1079.4 908.396 1079.49 907.741 1079.4C896.897 1078.01 890.03 1081.92 883.746 1091.72C870.182 1112.86 849.156 1123.86 824.46 1126.31C796.615 1129.07 768.644 1130.7 740.695 1132.23C659.473 1136.67 578.181 1139.81 496.844 1137.69C443.062 1136.29 389.33 1132.87 335.587 1130.15C317.043 1129.21 299.92 1123.89 285.201 1111.96C277.557 1105.76 271.364 1098.44 267.06 1089.65C264.443 1084.3 260.438 1082.11 254.671 1082.27C240.112 1082.68 225.655 1081.66 211.565 1077.8C174.354 1067.6 150.898 1043.04 139.354 1006.89C129.858 977.149 124.583 946.436 120.327 915.562C119.284 907.995 118.556 900.384 117.611 892.167C115.437 892.263 113.188 892.355 110.941 892.463C78.9662 893.996 53.1784 878.939 41.4295 851.874C26.8228 818.225 36.3558 776.218 64.2002 752.392C69.8712 747.539 76.0529 743.283 82.3513 738.484C73.7598 726.731 65.0768 715.145 56.7176 703.329C49.5045 693.133 41.8153 683.143 35.8139 672.247C19.117 641.936 16.3377 610.777 34.2384 579.921C46.163 559.367 64.8042 547.755 88.2436 544.366C122.694 539.384 157.201 534.797 191.682 530.025C192.805 529.869 193.903 529.532 195.386 529.196C190.652 517.728 188.011 506.106 188.248 493.992C188.99 455.999 206.385 427.638 238.463 407.93C241.166 406.27 243.006 405.104 242.581 401.169C236.054 340.763 247.582 283.441 272.634 228.513C275.811 221.546 279.082 214.598 282.784 207.903C284.686 204.463 284.564 202.436 281.754 199.428C266.333 182.917 256.938 163.42 256.087 140.698C254.757 105.164 269.867 77.4304 299.711 58.8447C327.738 41.3908 357.468 39.6675 387.208 55.4369C400.137 62.2923 410.198 72.4929 417.862 84.8897C419.874 88.1433 421.479 88.561 424.931 87.2673C476.999 67.7542 530.514 63.1587 585.281 72.1447C590.69 73.0322 596.041 74.2682 601.247 75.3081C605.248 68.9401 608.667 62.4253 613.073 56.6644C634.553 28.5748 668.625 17.162 701.018 26.8556C734.159 36.7733 757.973 66.5999 760.552 101.356C762.076 121.906 756.727 140.62 745.323 157.615C743.191 160.793 743.653 162.682 745.639 165.827C755.399 181.28 764.731 197.005 774.142 212.676C775.5 214.937 776.469 217.432 777.834 220.265C787.363 216.023 796.846 212.073 806.082 207.61C814.16 203.706 822.266 203.241 830.854 205.354C887.597 219.315 944.37 233.16 1001.12 247.109C1011.28 249.608 1016.78 257.824 1015.79 268.339C1013.71 290.39 1011.68 312.446 1009.59 334.893C1012.6 335.991 1015.67 337.109 1019.1 338.358ZM785.524 765.737C785.769 765.417 786.013 765.096 786.625 764.27C790.795 760.805 792.128 756.117 792.367 750.955C792.768 742.3 793.18 733.645 793.574 724.99C794.171 711.859 788.074 704.648 775.029 704.229C721.233 702.499 667.431 700.948 613.628 699.476C603.736 699.205 599.465 703.672 599.407 713.297C599.334 725.496 602.462 729.151 613.09 729.432C650.739 730.428 688.387 731.44 726.034 732.473C728.529 732.541 731.193 732.355 733.445 733.188C734.91 733.729 736.727 735.97 736.633 737.328C736.54 738.679 734.446 740.506 732.881 740.985C730.918 741.586 728.599 741.026 726.434 740.971C690.283 740.069 654.134 739.091 617.98 738.309C605.457 738.038 599.173 744.434 599.101 756.91C599.054 764.909 599.07 772.909 599.092 780.909C599.134 796.103 605.072 801.787 620.29 802.174C649.776 802.923 679.259 803.826 708.733 804.943C733.709 805.89 758.668 807.287 783.64 808.356C790.296 808.641 795.03 805.894 796.417 800.203C798.095 793.314 799.701 786.004 793.97 779.942C792.797 778.702 790.857 778.036 789.147 777.496C787.263 776.901 785.237 776.757 783.275 775.507C783.755 772.257 784.236 769.007 784.832 765.738C784.832 765.738 784.901 765.644 785.524 765.737ZM868.489 236.203C855.539 233.117 842.504 230.343 829.675 226.818C822.774 224.922 816.796 225.867 810.453 228.777C774.449 245.294 738.336 261.576 702.28 277.982C701.138 278.501 700.209 279.489 698.45 280.173C693.774 281.489 690.278 284.039 688.647 289.731C681.844 355.313 675.039 420.896 668.239 486.479C667.162 496.859 667.949 497.892 678.295 500.313C725.948 511.462 773.588 522.667 821.251 533.768C840.853 538.334 860.504 542.689 881.004 547.267C885.115 545.964 889.226 544.662 893.935 543.041C907.601 533.52 921.187 523.88 934.988 514.56C938.427 512.237 938.723 510.51 936.571 507.042C930.102 496.617 927.513 485.253 930.22 473.096C930.889 470.095 930.526 467.891 928.871 465.269C920.55 452.09 921.764 433.767 931.229 421.614C932.342 420.185 932.891 417.73 932.625 415.908C930.621 402.155 932.59 389.209 942.868 379.394C948.475 374.039 953.882 369.316 955.013 361.225C955.208 359.833 956.285 358.532 957.068 357.259C963.402 346.968 972.672 340.562 984.13 337.26C987.073 336.412 988.339 335.189 988.61 331.913C990.034 314.677 991.784 297.468 993.91 279.62C993.445 275.509 992.979 271.398 992.133 266.623C981.855 263.985 971.613 261.197 961.291 258.746C946.333 255.192 931.317 251.882 915.873 247.838C900.328 244.026 884.782 240.214 868.489 236.203ZM267.156 331.683C264.284 353.114 263.103 374.556 266.124 396.406C268.083 396.111 269.387 395.995 270.654 395.711C284.286 392.658 298.024 392.254 311.831 394.164C363.575 401.321 404.522 447.888 393.573 504.718C393.025 507.564 393.407 509.008 397.035 508.741C419.766 507.069 442.5 505.381 465.259 504.162C498.153 502.401 531.055 500.597 563.978 499.639C589.454 498.898 614.966 499.425 640.462 499.389C642.242 499.387 644.023 499.389 645.963 499.389C647.776 482.127 649.564 465.46 651.271 448.784C653.727 424.799 656.1 400.805 658.551 376.819C661.746 345.554 665.009 314.297 668.186 283.031C669.011 274.907 672.833 268.754 680.191 265.287C696.157 257.763 712.265 250.538 728.291 243.139C737.451 238.91 746.564 234.579 756.06 230.125C745.679 207.694 732.913 187.529 716.92 169.458C711.888 163.772 711.699 161.144 716.579 155.314C729.189 140.253 736.675 123.522 735.469 103.214C733.46 69.3502 699.12 43.0455 666.069 50.8235C641.882 56.5156 628.401 73.3013 620.736 95.7305C617.92 103.97 615.986 105.164 607.59 102.768C578.54 94.476 548.986 91.2467 518.769 92.93C482.779 94.9349 448.38 102.977 415.617 118.027C409.713 120.74 406.85 119.441 404.275 113.53C398.514 100.304 390.643 88.5214 378.226 80.7906C357.48 67.8752 336.262 68.9091 315.178 80.243C291.457 92.9946 278.093 121.199 283.012 147.333C286.418 165.427 296.337 179.37 310.099 190.945C316.175 196.055 316.76 198.842 312.83 205.387C289.506 244.235 273.865 285.881 267.156 331.683ZM324.495 666.304C324.197 670.602 323.454 674.924 323.69 679.193C324.278 689.831 325.286 700.446 326.172 711.067C327.819 730.815 329.184 750.592 331.257 770.296C333.24 789.152 347.74 799.971 366.611 797.69C387.932 795.114 409.309 792.984 430.598 790.176C444.436 788.351 458.304 786.289 471.894 783.178C484.737 780.239 489.999 772.194 489.662 759.119C489.529 753.958 489.374 748.795 489.127 743.638C488.555 731.699 480.98 724.602 469.054 724.886C466.231 724.954 463.414 725.353 460.598 725.648C438.73 727.938 416.866 730.281 394.992 732.514C388.284 733.199 385.708 730.948 385.182 724.425C384.7 718.452 384.228 712.478 383.742 706.506C383.273 700.751 385.693 697.713 391.548 697.187C410.129 695.518 428.709 693.8 447.311 692.379C466.305 690.929 475.731 680.967 475.244 661.925C474.555 634.949 473.642 607.979 472.859 581.006C472.301 561.783 462.142 552.096 442.89 553.432C407.666 555.875 372.463 558.634 337.267 561.458C324.514 562.482 317.297 570.243 317.125 582.504C317.067 586.662 317.287 590.834 317.602 594.983C318.799 610.763 327.099 617.402 342.762 615.983C363.328 614.119 383.93 612.638 404.527 611.125C411.357 610.623 413.867 613.06 414.243 619.983C414.514 624.972 414.707 629.965 414.897 634.957C415.098 640.261 412.671 642.833 407.217 643.285C386.969 644.965 366.71 646.538 346.48 648.416C335.714 649.416 328.226 655.04 324.495 666.304ZM316.1 923.014C319.063 964.686 321.88 1006.37 325.056 1048.02C326.48 1066.7 332.726 1072.18 351.209 1071.18C381.961 1069.51 412.689 1067.4 443.432 1065.55C459.159 1064.61 465.77 1057.84 465.37 1042.19C464.933 1025.05 464.124 1007.91 463.517 990.769C462.062 949.66 460.616 908.55 459.197 867.44C458.62 850.716 450.356 842.403 433.726 843.273C400.48 845.013 367.265 847.338 334.029 849.281C319.344 850.14 311.605 858.062 312.419 872.78C313.329 889.229 314.816 905.647 316.1 923.014ZM973.759 698.04C974.364 694.948 975.289 691.88 975.525 688.76C977.6 661.356 979.605 633.945 981.521 606.528C982.761 588.79 973.629 578.308 955.853 576.35C937.148 574.29 918.48 571.906 899.784 569.759C888.367 568.448 876.951 567.028 865.495 566.185C853.395 565.294 845.538 571.212 843.344 583.062C842.14 589.561 841.652 596.331 841.922 602.935C842.405 614.767 849.605 621.436 861.252 622.402C879.345 623.902 897.42 625.604 915.498 627.275C920.607 627.748 923.269 630.622 923.133 635.893C922.991 641.382 922.563 646.874 922.006 652.339C921.517 657.144 918.607 659.36 913.818 658.935C909.837 658.581 905.866 658.119 901.883 657.779C888.107 656.605 874.344 655.193 860.545 654.382C845.401 653.493 836.392 661.828 835.318 677.036C835.083 680.359 834.948 683.689 834.77 687.016C833.397 712.633 831.931 738.245 830.683 763.867C829.752 782.97 840.177 796.601 857.408 798.066C890.931 800.917 924.486 803.41 958.046 805.8C969.864 806.642 978.138 799.188 979.338 787.362C979.859 782.226 980.207 777.071 980.552 771.919C981.52 757.504 975.002 750.133 960.624 748.943C939.206 747.17 917.799 745.25 896.391 743.356C890.292 742.816 887.918 740.124 888.07 733.887C888.191 728.892 888.426 723.897 888.727 718.91C889.235 710.491 891.27 708.652 899.605 709.319C916.047 710.636 932.476 712.105 948.916 713.428C960.922 714.394 968.671 709.699 973.759 698.04ZM597.947 840.301C593.877 843.791 592.134 848.281 592.169 853.57C592.195 857.569 592.083 861.568 592.14 865.566C592.276 875.092 597.505 880.277 607.114 880.444C621.768 880.7 636.423 880.927 651.077 881.168C657.252 881.27 658.37 882.32 658.326 887.96C658.283 893.444 657.401 894.27 651.31 894.267C636.149 894.259 620.987 894.137 605.827 894.225C597.952 894.27 592.764 898.613 592.225 905.943C591.811 911.567 591.867 917.285 592.369 922.902C592.949 929.381 597.042 933.715 603.53 934.495C608.945 935.146 614.483 934.81 619.966 934.839C627.517 934.878 635.069 934.849 642.62 934.849C642.773 935.343 642.926 935.837 643.079 936.332C639.975 938.705 637.173 941.737 633.709 943.324C624.064 947.743 614.209 951.734 604.303 955.545C599.25 957.49 594.752 959.857 593.148 965.333C589.984 976.135 593.71 985.595 600.524 993.562C606.441 1000.48 614.642 999.307 622.347 996.677C651.987 986.559 676.213 969.366 692.949 942.381C693.867 940.901 696.213 939.481 697.916 939.455C705.234 939.344 712.558 939.857 719.883 939.947C723.123 939.987 724.384 941.374 724.25 944.517C723.975 951.001 724.039 957.507 723.549 963.973C722.741 974.645 728.425 981.147 739.178 981.399C743.175 981.492 747.185 981.405 751.166 981.708C765.466 982.795 770.69 978.066 771.128 963.726C771.682 945.588 772.43 927.455 773.002 909.317C773.579 891.007 774.122 872.695 774.524 854.381C774.739 844.627 769.985 838.93 761.268 838.257C755.297 837.795 749.308 837.477 743.321 837.337C732.177 837.076 726.602 842.458 726.39 853.555C726.233 861.717 726.428 869.892 726.044 878.041C725.224 895.467 727.384 890.792 711.964 891.369C708.898 891.483 707.906 890.25 708.044 887.23C708.471 877.925 708.612 868.607 708.994 859.299C709.508 846.77 702.07 838.654 689.464 838.435C662.821 837.97 636.176 837.514 609.53 837.347C605.878 837.324 602.216 838.975 597.947 840.301ZM82.1517 593.486C74.7911 597.755 71.6194 604.54 71.5201 612.651C71.4491 618.452 71.9534 624.328 72.8846 630.059C75.0379 643.311 84.1555 649.956 97.504 648.241C113.364 646.203 129.192 643.915 145.052 641.87C166.859 639.059 188.677 636.329 210.502 633.661C216.906 632.879 220.283 635.89 220.581 642.299C220.875 648.622 221.453 654.957 221.3 661.272C220.851 679.919 220.059 698.558 219.482 717.203C218.976 733.553 228.675 742.538 244.814 740.81C249.781 740.278 254.745 739.697 259.722 739.286C267.768 738.621 273.689 734.534 276.95 727.417C279.063 722.808 280.505 717.662 281.097 712.622C285.663 673.752 284.898 634.789 282.363 595.838C281.138 577.031 270.203 567.788 251.395 570.054C204.605 575.692 157.846 581.6 111.11 587.666C101.604 588.9 92.2496 591.303 82.1517 593.486ZM799.782 581.922C800.344 577.664 801.289 573.414 801.396 569.144C801.743 555.336 796.684 550.156 782.85 549.59C760.713 548.685 738.583 547.603 716.44 546.886C684.142 545.838 651.837 544.955 619.53 544.196C607.492 543.913 601.029 550.444 600.675 562.534C600.611 564.698 600.637 566.867 600.712 569.031C601.099 580.216 606.327 585.293 617.539 585.553C633.026 585.913 648.512 586.328 663.997 586.761C665.323 586.798 666.641 587.149 668.737 587.475C662.698 593.765 656.081 597.432 648.852 599.255C635.826 602.54 622.622 605.172 609.415 607.666C603.444 608.794 599.019 611.169 597.539 617.358C594.18 631.411 606.825 646.334 621.097 644.992C646.05 642.646 669.98 636.42 691.944 624.161C699.049 620.196 704.51 620.612 711.238 624.781C731.709 637.468 754.066 645.281 777.91 648.84C784.487 649.822 790.212 648.192 793.411 642.345C796.474 636.745 798.926 630.653 800.597 624.492C802.115 618.892 798.474 613.906 792.814 612.366C789.45 611.451 785.956 611.023 782.535 610.312C767.814 607.251 753.371 603.427 740.908 594.462C739.279 593.29 737.899 591.773 735.344 589.455C738.382 589.455 739.823 589.435 741.263 589.458C755.587 589.69 769.909 589.968 784.233 590.147C790.531 590.226 796.156 588.745 799.782 581.922ZM550.87 801.842C561.09 798.436 565.253 792.261 565.189 780.063C564.854 716.95 564.483 653.838 564.074 590.726C564.007 580.412 564.193 570.057 563.338 559.798C562.482 549.538 554.697 543.058 544.384 542.976C536.226 542.912 528.061 542.986 519.909 543.278C507.958 543.706 500.513 551.355 500.093 563.353C500.023 565.348 500.089 567.349 500.137 569.347C501.412 622.618 502.699 675.89 503.968 729.161C504.405 747.472 504.615 765.791 505.28 784.094C505.712 795.966 512.754 802.99 524.1 803.035C532.746 803.069 541.395 802.423 550.87 801.842ZM573.31 950.774C573.292 946.442 573.418 942.103 573.227 937.778C572.824 928.637 566.928 923.062 557.799 923.032C553.8 923.019 549.773 922.8 545.81 923.192C540.835 923.683 539.2 922.038 539.244 916.859C539.419 895.867 539.165 874.871 539.005 853.877C538.904 840.564 532.139 833.917 518.936 834.017C513.271 834.06 507.607 834.168 501.942 834.193C487.183 834.259 480.819 840.604 481.159 855.241C482.044 893.37 483.096 931.496 483.915 969.627C484.566 999.94 484.957 1030.26 485.507 1060.57C485.558 1063.4 485.762 1066.23 486.157 1069.03C487.327 1077.3 493.098 1082.44 501.458 1082.55C508.12 1082.64 514.786 1082.44 521.451 1082.4C534.201 1082.33 540.282 1076.17 540.275 1063.25C540.261 1036.59 540.23 1009.93 540.206 983.266C540.205 981.368 540.206 979.471 540.206 977.179C546.643 977.179 552.135 977.286 557.622 977.155C566.846 976.935 572.886 970.963 573.261 961.765C573.396 958.438 573.302 955.101 573.31 950.774ZM298.611 534.36C309.052 531.626 313.396 526.055 313.354 515.407C313.344 513.075 313.211 510.745 313.202 508.414C313.182 503.183 316.138 499.54 320.489 499.371C324.536 499.213 327.7 502.458 328.175 507.591C328.45 510.568 328.374 513.582 328.377 516.579C328.388 524.937 332.236 528.974 340.671 529.213C350.664 529.496 358.412 524.972 364.04 517.118C377.579 498.227 376.162 467.685 360.198 446.918C338.604 418.827 309.416 410.762 275.693 417.447C234.06 425.701 205.582 464.381 211.277 502.939C212.897 513.906 216.728 523.826 225.51 531.263C234.789 539.122 247.621 541.225 257.183 536.527C260.507 534.894 261.872 533.24 260.338 529.19C258.657 524.754 257.533 519.893 257.326 515.166C257.066 509.204 262.32 505.454 267.281 507.414C271.093 508.921 271.783 512.403 272.159 516.008C273.626 530.054 283.834 537.389 298.611 534.36ZM1053.96 740.492C1055.25 725.057 1056.5 709.619 1057.84 694.188C1060.48 663.657 1063.23 633.135 1065.82 602.6C1066.78 591.247 1060.59 582.465 1050.03 580.464C1041.86 578.915 1033.6 577.707 1025.33 576.872C1018.42 576.173 1012.08 578.454 1008.76 584.787C1006.7 588.741 1005.92 593.618 1005.54 598.162C1003.82 618.903 1002.48 639.675 1000.95 660.432C997.22 711.079 993.419 761.721 989.752 812.373C988.903 824.107 995.46 831.82 1007.07 833.344C1012.85 834.102 1018.63 834.876 1024.41 835.56C1038.39 837.211 1046.28 830.575 1047.44 816.581C1049.5 791.518 1051.72 766.468 1053.96 740.492ZM304.301 755.354C300.508 755.193 296.635 754.449 292.935 754.959C249.244 760.976 205.564 767.078 161.914 773.383C142.483 776.19 123.118 779.463 103.736 782.603C87.5725 785.222 80.1432 794.745 81.6363 810.787C81.991 814.598 82.3852 818.408 82.8792 822.202C85.2617 840.503 94.0483 846.709 112.432 843.802C152.043 837.538 191.673 831.385 231.334 825.445C254.041 822.044 276.831 819.206 299.569 816.008C312.467 814.194 319.555 806.751 319.598 794.042C319.623 786.434 318.55 778.785 317.503 771.22C316.465 763.722 312.066 758.529 304.301 755.354ZM987.434 388.589C985.647 393.838 982.483 395.411 977.597 393.303C974.698 392.053 972.025 390.059 969.024 389.322C966.312 388.657 962.948 388.416 960.477 389.444C954.235 392.039 949.297 403.037 950.497 409.783C951.307 414.332 953.573 417.386 958.207 418.502C960.467 419.046 962.687 419.757 964.922 420.399C969.964 421.846 972.336 425.27 971.244 429.518C970.31 433.151 966.383 434.88 961.415 433.769C958.82 433.189 956.215 432.605 953.68 431.814C948.917 430.328 945.763 432.34 944.099 436.545C939.525 448.104 942.367 462.729 960.137 462.336C960.803 462.322 961.47 462.332 962.135 462.362C966.22 462.548 968.881 464.692 969.1 468.714C969.318 472.727 966.758 475.275 962.929 476.038C960.685 476.486 958.286 476.227 955.959 476.176C950.383 476.055 948.997 477.218 949.197 482.703C949.292 485.319 949.712 488.036 950.591 490.491C955.836 505.142 969.459 514.887 985.342 515.19C1003.98 515.546 1017.17 505.866 1027.24 491.288C1043.48 467.77 1048.69 441.274 1045.98 413.336C1044.23 395.234 1037.5 378.841 1023.71 366.055C1010.15 353.476 990.074 352.148 977.867 363.132C970.075 370.143 970.534 374.198 979.669 378.575C983.663 380.488 987.626 382.365 987.434 388.589ZM651.513 1030.1C645.391 1031.66 639.35 1033.88 633.131 1034.64C614.774 1036.88 609.739 1042.33 611.328 1063.36C612.416 1077.77 621.044 1085.32 635.302 1083.12C655.07 1080.06 673.905 1073.96 690.868 1063.2C699.516 1057.71 707.477 1051.14 715.927 1044.92C715.973 1044.95 716.449 1045.14 716.807 1045.46C717.673 1046.24 718.508 1047.06 719.315 1047.9C742.147 1071.7 771.127 1082.21 802.971 1086.15C814.743 1087.61 822.286 1080.64 823.237 1068.68C823.435 1066.19 823.523 1063.69 823.85 1061.22C825.644 1047.67 820.774 1041.45 807.197 1039.2C790.994 1036.52 775.292 1032.11 761.473 1022.84C752.554 1016.85 745.439 1009.47 744.096 997.911C743.377 991.726 738.506 987.622 731.993 987.222C722.855 986.66 713.693 986.312 704.539 986.252C696.232 986.198 691.504 990.454 688.942 998.35C687.589 1002.52 685.646 1006.76 682.977 1010.19C675.127 1020.3 663.923 1025.51 651.513 1030.1ZM801.068 657.811C793.245 657.486 785.424 657.064 777.598 656.852C719.48 655.278 661.355 653.902 603.243 652.108C584.732 651.536 581.542 658.691 581.953 673.55C582.3 686.071 586.612 690.616 599.125 690.895C638.435 691.77 677.746 692.623 717.048 693.781C744.355 694.585 771.648 695.909 798.949 696.934C808.652 697.299 814.341 692.027 814.885 682.403C815.035 679.743 815.134 677.08 815.26 674.418C815.726 664.606 811.633 659.535 801.068 657.811ZM835.054 851.502C832.9 843.708 828.668 839.65 821.889 839.211C815.245 838.78 808.59 838.416 801.935 838.289C792.701 838.112 786.923 843.513 786.288 852.767C786.037 856.421 786.12 860.096 785.984 863.759C784.405 906.193 782.759 948.625 781.261 991.062C780.903 1001.22 786.121 1006.62 796.21 1007.04C802.203 1007.29 808.205 1007.38 814.203 1007.41C822.642 1007.47 827.958 1002.56 828.486 994.057C829.189 982.759 829.712 971.449 830.303 960.143C831.243 942.188 832.272 924.236 833.083 906.275C833.895 888.309 834.485 870.334 835.054 851.502ZM250.937 937.453C259.016 926.88 255.944 915.963 243.544 911.141C242.304 910.659 241.113 910.049 239.865 909.594C225.177 904.252 210.58 898.638 195.756 893.704C186.352 890.574 178.371 894.642 174.962 903.206C170.738 913.82 174.805 923.992 185.758 927.189C203.291 932.307 221.029 936.792 238.845 940.809C242.309 941.59 246.529 939.015 250.937 937.453ZM897.507 935.722C901.122 936.561 905.063 938.778 908.299 938.012C926.241 933.766 944.131 929.182 961.751 923.777C965.761 922.547 969.793 918.199 971.777 914.26C975.285 907.294 973.285 900.203 968.122 894.407C963.217 888.9 956.892 888.094 950.283 890.577C934.399 896.544 918.512 902.523 902.804 908.933C890.885 913.796 888.5 925.398 897.507 935.722ZM248.571 1004.1C251.121 1002.52 253.698 1000.99 256.215 999.358C263.377 994.721 265.395 987.507 261.714 979.857C258.425 973.021 252.531 970.369 244.503 973.572C230.448 979.178 216.517 985.166 202.867 991.691C193.639 996.103 191.352 1005.35 196.09 1014.6C200.371 1022.96 208.586 1025.61 217.682 1020.96C227.902 1015.72 237.855 1009.96 248.571 1004.1ZM909.957 973.062C908.225 972.467 906.501 971.848 904.759 971.281C896.233 968.508 890.331 970.61 887.051 977.573C883.419 985.283 885.293 992.716 892.796 996.953C906.125 1004.48 919.608 1011.76 933.254 1018.7C941.447 1022.87 949.226 1019.69 953.181 1011.43C957.405 1002.61 954.663 993.262 945.794 988.97C934.269 983.392 922.421 978.48 909.957 973.062Z" fill="#271C10"/>
<path d="M267.191 331.244C273.865 285.884 289.506 244.238 312.83 205.39C316.76 198.845 316.175 196.058 310.099 190.948C296.337 179.373 286.418 165.431 283.012 147.336C278.093 121.202 291.457 92.9978 315.178 80.2463C336.262 68.9123 357.48 67.8784 378.226 80.7938C390.643 88.5246 398.514 100.308 404.275 113.533C406.85 119.444 409.713 120.743 415.617 118.03C448.38 102.98 482.779 94.9381 518.769 92.9332C548.986 91.2499 578.54 94.4792 607.59 102.771C615.986 105.168 617.921 103.974 620.736 95.7337C628.401 73.3045 641.882 56.5188 666.069 50.8267C699.12 43.0487 733.46 69.3534 735.47 103.217C736.675 123.526 729.189 140.257 716.579 155.317C711.699 161.147 711.888 163.775 716.92 169.462C732.913 187.532 745.679 207.697 756.06 230.128C746.564 234.583 737.451 238.913 728.291 243.142C712.265 250.541 696.158 257.766 680.191 265.29C672.833 268.757 669.011 274.91 668.186 283.034C665.009 314.3 661.746 345.558 658.551 376.822C656.1 400.808 653.727 424.802 651.271 448.787C649.564 465.463 647.776 482.131 645.963 499.392C644.023 499.392 642.242 499.39 640.462 499.392C614.966 499.429 589.454 498.901 563.978 499.643C531.055 500.601 498.153 502.404 465.259 504.165C442.5 505.384 419.766 507.072 397.035 508.745C393.407 509.012 393.025 507.568 393.573 504.722C404.522 447.891 363.575 401.324 311.831 394.167C298.024 392.257 284.286 392.662 270.654 395.715C269.387 395.998 268.083 396.114 266.124 396.409C263.103 374.559 264.284 353.118 267.191 331.244ZM550.411 422.982C578.665 415.317 599.381 399.076 608.288 370.401C619.89 333.05 600.626 288.611 565.45 270.434C542.772 258.715 519.779 258.005 496.79 269.31C466.303 284.301 445.32 321.136 447.544 355.154C449.651 387.386 468.562 411.752 499.293 421.713C515.905 427.097 532.713 426.857 550.411 422.982ZM337.02 115.337C319.439 125.58 317.463 148.849 333.039 161.738C335.679 163.922 337.822 163.777 340.508 161.556C350.617 153.2 360.846 144.985 371.154 136.874C373.918 134.7 374.87 132.654 373.359 129.22C367.089 114.962 352.001 108.871 337.02 115.337ZM432.95 309.883C440.204 308.055 444.97 302.957 445.793 296.112C446.744 288.21 446.531 279.868 445.048 272.054C443.419 263.475 436.629 258.551 429.421 258.317C420.784 258.037 414.375 262.233 411.082 270.914C408.039 278.935 408.184 287.265 410.524 295.396C413.717 306.491 420.438 310.859 432.95 309.883ZM635.865 282.136C640.004 270.58 639.767 259.285 633.38 248.574C629.883 242.71 624.373 240.493 617.634 241.132C611.205 241.741 606.845 245.254 604.285 250.959C600.288 259.869 600.364 269.035 603.311 278.209C605.579 285.268 609.714 290.873 617.417 292.186C625.533 293.57 631.663 290.155 635.865 282.136ZM653.662 98.173C651.899 100.983 650.011 103.725 648.402 106.621C646.272 110.456 647.564 112.849 651.41 115.031C661.529 120.774 671.529 126.758 681.284 133.097C684.941 135.474 687.33 135.059 689.794 131.981C690.834 130.682 691.84 129.343 692.736 127.942C700.665 115.542 698.159 100.784 686.724 92.3782C676.9 85.1564 662.77 87.4179 653.662 98.173Z" fill="#A1673C"/>
<path d="M880.133 547.141C860.504 542.69 840.853 538.335 821.251 533.769C773.588 522.668 725.948 511.463 678.295 500.314C667.949 497.893 667.162 496.86 668.239 486.48C675.039 420.897 681.844 355.314 689.304 289.48C703.55 292.229 717.152 295.167 730.722 298.246C743.608 301.17 756.461 304.241 769.166 307.631C768.119 316.047 766.92 324.066 766.586 332.121C766.508 334.001 769.046 337.266 770.929 337.747C784.534 341.219 798.27 344.181 811.987 347.207C815.618 348.009 817.811 346.256 818.182 342.618C819.003 334.563 819.675 326.492 820.811 318.375C846.544 323.796 871.884 329.224 897.197 334.769C904.677 336.407 906.007 338.766 905.034 346.3C902.692 364.425 900.463 382.565 898.244 400.705C895.441 423.633 892.743 446.573 889.907 469.496C886.703 495.384 883.395 521.26 880.133 547.141ZM746.846 399.278C736.85 417.82 740.109 441.07 754.812 456.109C774.054 475.791 804.994 473.029 818.827 449.952C830.677 428.183 825.372 402.721 805.802 387.444C786.509 372.383 759.33 377.622 746.846 399.278ZM852.608 406.525C854.204 410.135 855.8 413.745 857.53 417.657C859.826 416.504 861.661 415.581 863.934 414.439C857.503 399.91 851.287 385.867 844.932 371.512C842.532 372.647 840.786 373.472 838.659 374.478C843.326 385.172 847.83 395.495 852.608 406.525ZM720.276 351.764C715.937 356.567 711.606 361.377 707.258 366.171C702.988 370.879 703.107 371.545 709.191 375.261C717.164 366.454 725.165 357.596 733.19 348.761C737.709 343.786 737.71 343.648 731.68 339.197C728.067 343.185 724.414 347.217 720.276 351.764ZM716.794 473.215C711.392 460.458 705.99 447.702 700.683 435.169C695.144 436.293 694.381 438.451 696.352 442.789C701.299 453.671 705.737 464.785 710.41 475.792C711.032 477.257 711.836 478.644 712.647 480.248C715.738 478.78 719.947 478.77 716.794 473.215ZM727.672 464.444C728.74 466.822 729.807 469.199 730.841 471.502C735.786 470.835 737.275 469.048 735.205 464.467C729.999 452.945 725.179 441.248 720.15 429.645C719.654 428.501 718.784 427.519 718.199 426.63C713.042 427.502 712.331 429.785 714.308 434.037C718.869 443.844 723.041 453.831 727.672 464.444ZM742.867 360.356C734.791 369.151 726.715 377.946 718.449 386.949C720.159 388.851 721.558 390.408 724.056 393.187C725.372 391.202 726.207 389.526 727.417 388.188C734.231 380.647 741.125 373.179 748.013 365.705C752.639 360.685 752.624 360.432 746.702 356.273C745.601 357.433 744.469 358.626 742.867 360.356ZM730.251 357.74C723.907 364.686 717.563 371.632 711.128 378.676C712.847 380.62 714.232 382.185 715.923 384.097C725.668 373.459 735.053 363.213 744.6 352.79C742.9 350.902 741.49 349.337 739.765 347.422C736.545 350.905 733.633 354.056 730.251 357.74ZM847.149 494.912C845.742 493.337 844.334 491.762 843.612 490.954C838.649 495.473 833.936 499.765 828.604 504.62C830.409 506.289 832.053 507.81 834.179 509.776C838.71 504.831 842.928 500.228 847.149 494.912ZM852.218 367.524C850.971 368.277 849.725 369.03 848.057 370.037C850.952 376.489 853.743 382.708 856.64 389.161C858.987 387.922 860.695 387.021 862.901 385.857C860.316 379.908 857.885 374.177 855.283 368.523C854.987 367.879 853.737 367.673 852.218 367.524ZM849.615 421.402C851.177 420.61 852.738 419.817 854.524 418.912C851.561 412.341 848.814 406.247 845.953 399.903C843.623 401.082 841.901 401.953 839.822 403.005C841.132 406.196 842.162 409.141 843.529 411.921C845.153 415.224 847.068 418.385 849.615 421.402ZM865.394 392.058C863.309 392.679 861.223 393.3 858.813 394.017C861.807 400.817 864.451 406.821 867.257 413.195C869.77 411.91 871.606 410.971 873.759 409.869C871.027 403.79 868.511 398.191 865.394 392.058ZM823.544 477.053C821.597 479.094 819.658 481.143 817.702 483.174C812.968 488.091 812.968 488.114 819.076 492.697C823.493 487.998 827.95 483.259 832.497 478.422C830.583 476.336 829.159 474.784 826.976 472.405C825.737 474.137 824.876 475.34 823.544 477.053ZM843.801 466.297C845.327 464.602 846.853 462.907 848.616 460.949C846.064 459.401 845.703 453.965 841.719 457.39C837.524 460.997 834.135 465.541 830.244 469.841C832.14 471.859 833.657 473.475 835.317 475.242C838.31 472.098 840.82 469.462 843.801 466.297ZM859.453 482.894C860.954 481.218 862.454 479.543 864.113 477.692C862.287 475.626 860.889 474.045 859.173 472.104C854.382 477.169 850.196 481.595 845.746 486.3C847.553 488.299 849.066 489.973 850.857 491.954C853.731 488.927 856.346 486.174 859.453 482.894ZM835.279 491.742C836.704 490.159 838.128 488.577 840.191 486.286C838.406 484.538 836.833 482.997 834.946 481.149C829.97 486.427 825.621 491.04 821.221 495.706C823.237 497.68 824.715 499.126 826.38 500.755C829.248 497.862 832.021 495.064 835.279 491.742ZM841.458 395.835C842.032 394.989 843.288 393.87 843.076 393.339C840.759 387.552 838.212 381.858 835.754 376.197C828.969 378.642 829 378.627 831.633 384.312C833.239 387.779 834.895 391.239 836.223 394.815C837.252 397.582 838.774 397.351 841.458 395.835ZM850.866 475.317C852.53 473.495 854.194 471.673 856.131 469.553C854.456 467.625 853.02 465.974 851.287 463.98C846.602 469.046 842.374 473.618 838.549 477.754C840.348 479.862 841.707 481.454 843.257 483.269C845.794 480.616 848.08 478.225 850.866 475.317ZM708.602 431.065C707.171 432.477 704.261 434.403 704.545 435.219C706.574 441.059 709.253 446.672 711.834 452.607C714.07 451.399 715.633 450.555 717.712 449.432C714.85 443.239 712.097 437.28 708.602 431.065ZM726.318 469.759C724.123 464.831 721.929 459.903 719.607 454.689C717.298 455.882 715.739 456.688 713.902 457.637C716.623 464.007 719.193 470.024 722.092 476.812C724.097 474.221 728.986 475.235 726.318 469.759Z" fill="#E0B485"/>
<path d="M316.076 922.55C314.816 905.65 313.328 889.233 312.419 872.783C311.605 858.065 319.344 850.143 334.029 849.285C367.265 847.342 400.48 845.017 433.726 843.277C450.356 842.407 458.62 850.719 459.197 867.443C460.616 908.554 462.062 949.663 463.517 990.772C464.124 1007.91 464.933 1025.05 465.37 1042.2C465.769 1057.85 459.159 1064.61 443.432 1065.56C412.689 1067.4 381.961 1069.51 351.209 1071.18C332.726 1072.19 326.48 1066.7 325.056 1048.03C321.88 1006.37 319.063 964.689 316.076 922.55ZM414.377 998.672C413.259 974.085 412.14 949.498 411.023 924.91C410.669 917.102 410.296 909.294 409.98 901.484C409.821 897.574 408.436 895.157 403.948 895.481C393.667 896.224 383.38 896.935 373.083 897.4C369.333 897.569 368.201 899.115 368.471 902.68C369.174 911.961 369.688 921.257 370.232 930.55C371.9 959.095 373.583 987.639 375.15 1016.19C375.315 1019.2 376.359 1020.33 379.379 1020.12C390.16 1019.38 400.947 1018.7 411.739 1018.17C414.653 1018.03 415.449 1016.71 415.253 1014.07C414.896 1009.26 414.67 1004.44 414.377 998.672Z" fill="#B77F4F"/>
<path d="M598.253 840.076C602.216 838.975 605.878 837.324 609.53 837.347C636.176 837.514 662.821 837.971 689.464 838.435C702.07 838.655 709.508 846.77 708.994 859.3C708.612 868.607 708.471 877.925 708.044 887.231C707.906 890.25 708.898 891.484 711.964 891.369C727.384 890.792 725.223 895.467 726.044 878.041C726.428 869.892 726.233 861.717 726.39 853.555C726.602 842.458 732.177 837.076 743.321 837.337C749.308 837.477 755.297 837.796 761.268 838.257C769.985 838.931 774.739 844.627 774.524 854.381C774.122 872.695 773.579 891.008 773.002 909.318C772.43 927.456 771.682 945.588 771.128 963.727C770.689 978.066 765.466 982.796 751.166 981.708C747.185 981.406 743.175 981.492 739.178 981.399C728.425 981.147 722.741 974.646 723.549 963.973C724.039 957.508 723.975 951.002 724.25 944.518C724.384 941.374 723.123 939.988 719.883 939.948C712.558 939.857 705.234 939.344 697.916 939.456C696.213 939.482 693.867 940.901 692.949 942.381C676.213 969.366 651.987 986.559 622.347 996.677C614.642 999.307 606.441 1000.48 600.524 993.563C593.71 985.596 589.984 976.135 593.148 965.333C594.752 959.857 599.25 957.49 604.303 955.546C614.209 951.734 624.064 947.743 633.709 943.325C637.173 941.738 639.975 938.705 643.079 936.332C642.926 935.838 642.773 935.343 642.62 934.849C635.069 934.849 627.517 934.878 619.966 934.839C614.483 934.811 608.945 935.146 603.53 934.495C597.042 933.716 592.949 929.382 592.369 922.902C591.867 917.285 591.811 911.567 592.225 905.943C592.764 898.614 597.952 894.27 605.827 894.225C620.987 894.138 636.149 894.259 651.31 894.267C657.401 894.27 658.283 893.444 658.326 887.96C658.37 882.32 657.252 881.27 651.077 881.168C636.423 880.927 621.768 880.7 607.114 880.444C597.505 880.277 592.276 875.092 592.14 865.566C592.083 861.569 592.195 857.569 592.169 853.571C592.134 848.281 593.877 843.791 598.253 840.076Z" fill="#B67E4E"/>
<path d="M573.312 951.271C573.302 955.101 573.396 958.437 573.261 961.765C572.886 970.963 566.846 976.935 557.622 977.155C552.135 977.286 546.643 977.179 540.206 977.179C540.206 979.471 540.205 981.368 540.206 983.266C540.23 1009.93 540.261 1036.59 540.275 1063.25C540.282 1076.17 534.201 1082.33 521.451 1082.4C514.786 1082.44 508.12 1082.64 501.458 1082.55C493.097 1082.44 487.327 1077.3 486.157 1069.03C485.762 1066.23 485.558 1063.4 485.506 1060.57C484.957 1030.26 484.566 999.939 483.915 969.626C483.096 931.496 482.044 893.37 481.159 855.24C480.819 840.604 487.183 834.259 501.942 834.193C507.607 834.168 513.271 834.06 518.936 834.017C532.139 833.917 538.904 840.564 539.005 853.877C539.165 874.871 539.419 895.867 539.244 916.859C539.2 922.038 540.835 923.683 545.81 923.191C549.773 922.8 553.8 923.019 557.799 923.032C566.928 923.062 572.824 928.637 573.227 937.778C573.418 942.103 573.292 946.442 573.312 951.271Z" fill="#B77F4F"/>
<path d="M298.198 534.41C283.834 537.39 273.626 530.056 272.159 516.01C271.783 512.405 271.093 508.922 267.281 507.416C262.32 505.455 257.066 509.206 257.327 515.168C257.533 519.895 258.657 524.756 260.338 529.192C261.872 533.242 260.507 534.896 257.183 536.529C247.621 541.227 234.789 539.123 225.51 531.265C216.728 523.828 212.897 513.908 211.277 502.941C205.582 464.382 234.06 425.703 275.693 417.449C309.416 410.763 338.604 418.829 360.198 446.92C376.162 467.687 377.579 498.229 364.04 517.12C358.412 524.973 350.664 529.498 340.671 529.215C332.236 528.976 328.388 524.939 328.377 516.581C328.374 513.583 328.45 510.57 328.175 507.592C327.7 502.46 324.536 499.215 320.489 499.373C316.138 499.542 313.182 503.184 313.202 508.416C313.211 510.747 313.344 513.077 313.354 515.408C313.396 526.057 309.052 531.628 298.198 534.41Z" fill="#A26B3F"/>
<path d="M987.457 388.18C987.626 382.367 983.663 380.49 979.668 378.577C970.534 374.2 970.075 370.145 977.867 363.134C990.074 352.15 1010.15 353.478 1023.71 366.057C1037.5 378.843 1044.23 395.236 1045.98 413.338C1048.69 441.276 1043.48 467.772 1027.24 491.29C1017.17 505.868 1003.98 515.548 985.342 515.192C969.459 514.889 955.836 505.144 950.591 490.493C949.712 488.038 949.292 485.321 949.197 482.705C948.997 477.22 950.383 476.057 955.959 476.178C958.286 476.229 960.684 476.488 962.929 476.04C966.758 475.277 969.318 472.729 969.1 468.716C968.881 464.694 966.22 462.549 962.135 462.364C961.47 462.334 960.803 462.324 960.137 462.338C942.367 462.731 939.525 448.105 944.099 436.547C945.763 432.342 948.917 430.329 953.68 431.816C956.215 432.607 958.82 433.191 961.415 433.771C966.382 434.882 970.31 433.153 971.244 429.52C972.336 425.272 969.964 421.848 964.922 420.401C962.687 419.759 960.467 419.048 958.207 418.504C953.573 417.388 951.307 414.334 950.497 409.785C949.296 403.039 954.235 392.041 960.477 389.445C962.948 388.418 966.312 388.659 969.024 389.324C972.025 390.061 974.697 392.054 977.597 393.305C982.483 395.413 985.647 393.84 987.457 388.18Z" fill="#A26C40"/>
<path d="M651.879 1029.96C663.923 1025.51 675.127 1020.3 682.977 1010.2C685.646 1006.76 687.589 1002.52 688.942 998.352C691.504 990.456 696.232 986.201 704.539 986.254C713.693 986.314 722.855 986.663 731.993 987.224C738.506 987.624 743.377 991.728 744.096 997.913C745.439 1009.48 752.554 1016.85 761.473 1022.84C775.292 1032.12 790.994 1036.53 807.197 1039.21C820.774 1041.45 825.644 1047.67 823.85 1061.22C823.523 1063.69 823.435 1066.2 823.237 1068.68C822.286 1080.64 814.743 1087.61 802.971 1086.16C771.127 1082.22 742.147 1071.7 719.315 1047.9C718.508 1047.06 717.673 1046.24 716.807 1045.47C716.449 1045.14 715.973 1044.95 715.927 1044.93C707.477 1051.14 699.516 1057.71 690.868 1063.2C673.905 1073.96 655.07 1080.06 635.302 1083.12C621.045 1085.33 612.416 1077.77 611.328 1063.36C609.739 1042.33 614.774 1036.89 633.131 1034.64C639.35 1033.88 645.391 1031.66 651.879 1029.96Z" fill="#B77F4F"/>
<path d="M324.63 665.923C328.226 655.042 335.714 649.418 346.48 648.419C366.71 646.54 386.969 644.968 407.217 643.288C412.671 642.835 415.098 640.264 414.897 634.96C414.707 629.967 414.514 624.974 414.243 619.986C413.867 613.063 411.357 610.626 404.527 611.127C383.93 612.641 363.328 614.121 342.762 615.985C327.099 617.404 318.799 610.766 317.602 594.986C317.287 590.837 317.067 586.664 317.125 582.507C317.297 570.246 324.514 562.485 337.267 561.461C372.463 558.636 407.666 555.878 442.89 553.434C462.142 552.099 472.301 561.785 472.859 581.008C473.642 607.982 474.555 634.952 475.244 661.928C475.731 680.97 466.305 690.931 447.311 692.382C428.709 693.802 410.129 695.52 391.548 697.19C385.693 697.716 383.273 700.753 383.742 706.508C384.228 712.481 384.7 718.455 385.182 724.428C385.708 730.951 388.284 733.201 394.992 732.517C416.866 730.284 438.73 727.94 460.598 725.65C463.414 725.355 466.231 724.956 469.054 724.889C480.98 724.604 488.555 731.701 489.127 743.641C489.374 748.798 489.529 753.96 489.662 759.121C489.999 772.196 484.737 780.241 471.894 783.181C458.304 786.291 444.436 788.353 430.598 790.178C409.309 792.986 387.932 795.116 366.611 797.693C347.74 799.973 333.24 789.155 331.257 770.298C329.184 750.595 327.819 730.817 326.172 711.07C325.286 700.449 324.278 689.833 323.69 679.195C323.454 674.927 324.197 670.605 324.63 665.923Z" fill="white"/>
<path d="M973.602 698.4C968.671 709.7 960.922 714.394 948.916 713.428C932.476 712.106 916.047 710.637 899.605 709.32C891.27 708.652 889.235 710.492 888.727 718.91C888.426 723.898 888.191 728.893 888.07 733.888C887.918 740.124 890.292 742.817 896.391 743.357C917.799 745.251 939.206 747.17 960.624 748.944C975.002 750.134 981.52 757.505 980.553 771.92C980.207 777.072 979.859 782.227 979.338 787.363C978.138 799.188 969.864 806.643 958.046 805.801C924.486 803.411 890.931 800.918 857.408 798.067C840.177 796.601 829.752 782.97 830.683 763.868C831.931 738.245 833.397 712.633 834.77 687.017C834.948 683.69 835.084 680.359 835.318 677.036C836.392 661.829 845.401 653.493 860.545 654.383C874.344 655.193 888.107 656.606 901.883 657.78C905.866 658.12 909.837 658.582 913.818 658.936C918.607 659.361 921.517 657.145 922.006 652.339C922.563 646.875 922.991 641.383 923.133 635.894C923.269 630.623 920.607 627.748 915.498 627.276C897.42 625.605 879.345 623.903 861.252 622.402C849.605 621.437 842.405 614.767 841.922 602.935C841.652 596.332 842.14 589.562 843.344 583.062C845.538 571.212 853.395 565.295 865.495 566.185C876.951 567.029 888.367 568.449 899.784 569.76C918.48 571.906 937.148 574.29 955.853 576.351C973.629 578.308 982.761 588.791 981.521 606.529C979.605 633.946 977.6 661.356 975.525 688.761C975.289 691.881 974.364 694.949 973.602 698.4Z" fill="white"/>
<path d="M82.4886 593.328C92.2496 591.305 101.604 588.902 111.11 587.668C157.846 581.601 204.605 575.693 251.395 570.055C270.203 567.789 281.138 577.032 282.363 595.839C284.898 634.791 285.663 673.754 281.097 712.623C280.505 717.664 279.063 722.81 276.95 727.419C273.689 734.536 267.768 738.622 259.722 739.287C254.745 739.699 249.781 740.279 244.814 740.811C228.675 742.54 218.976 733.555 219.482 717.204C220.059 698.56 220.851 679.921 221.3 661.273C221.453 654.958 220.875 648.624 220.581 642.301C220.283 635.892 216.906 632.88 210.502 633.663C188.677 636.33 166.859 639.06 145.052 641.872C129.192 643.917 113.364 646.204 97.504 648.243C84.1555 649.958 75.0379 643.312 72.8846 630.06C71.9534 624.329 71.4491 618.453 71.5201 612.653C71.6194 604.541 74.7911 597.756 82.4886 593.328Z" fill="white"/>
<path d="M783.273 776.417C785.237 776.758 787.263 776.902 789.147 777.497C790.857 778.037 792.797 778.703 793.97 779.943C799.701 786.005 798.095 793.315 796.417 800.204C795.03 805.895 790.296 808.642 783.64 808.357C758.668 807.288 733.709 805.891 708.733 804.944C679.259 803.827 649.776 802.924 620.29 802.174C605.072 801.788 599.134 796.104 599.092 780.91C599.07 772.91 599.054 764.91 599.101 756.911C599.173 744.434 605.457 738.039 617.98 738.31C654.134 739.092 690.283 740.07 726.434 740.972C728.599 741.026 730.918 741.587 732.881 740.986C734.446 740.506 736.54 738.68 736.633 737.329C736.727 735.971 734.91 733.73 733.445 733.188C731.193 732.356 728.529 732.542 726.034 732.474C688.387 731.441 650.739 730.428 613.09 729.433C602.462 729.151 599.334 725.497 599.407 713.298C599.465 703.673 603.736 699.206 613.628 699.476C667.431 700.949 721.233 702.5 775.029 704.23C788.074 704.649 794.171 711.86 793.574 724.99C793.18 733.646 792.768 742.301 792.367 750.956C792.128 756.117 790.795 760.805 786.184 764.622C785.461 765.197 785.181 765.421 784.901 765.645C784.901 765.645 784.832 765.739 784.416 765.862C780.611 766.671 777.211 767.98 773.831 767.931C762.346 767.763 750.87 767.043 739.386 766.667C713.422 765.816 687.454 765.05 661.488 764.233C658.534 764.14 655.811 764.79 655.759 768.222C655.706 771.758 658.532 772.183 661.434 772.24C668.926 772.386 676.417 772.623 683.907 772.863C708.367 773.646 732.826 774.447 757.698 775.351C759.808 775.475 761.507 775.489 763.564 775.671C766.38 775.914 768.836 775.991 771.645 776.164C774.759 776.27 777.521 776.281 780.645 776.419C781.762 776.502 782.518 776.46 783.273 776.417Z" fill="white"/>
<path d="M799.605 582.272C796.156 588.746 790.531 590.227 784.233 590.148C769.909 589.969 755.587 589.69 741.263 589.459C739.823 589.435 738.382 589.455 735.344 589.455C737.899 591.774 739.279 593.291 740.908 594.462C753.371 603.427 767.814 607.251 782.535 610.312C785.956 611.024 789.45 611.452 792.814 612.367C798.474 613.907 802.115 618.893 800.597 624.493C798.926 630.653 796.475 636.745 793.411 642.346C790.212 648.192 784.487 649.822 777.91 648.841C754.066 645.282 731.709 637.468 711.238 624.782C704.511 620.613 699.049 620.197 691.944 624.162C669.98 636.42 646.05 642.646 621.097 644.992C606.825 646.334 594.18 631.412 597.539 617.359C599.019 611.169 603.444 608.794 609.415 607.666C622.622 605.172 635.826 602.54 648.852 599.255C656.081 597.433 662.698 593.765 668.737 587.475C666.641 587.149 665.324 586.798 663.997 586.761C648.512 586.328 633.026 585.914 617.539 585.554C606.327 585.293 601.099 580.217 600.712 569.031C600.637 566.868 600.611 564.698 600.675 562.535C601.029 550.445 607.492 543.914 619.53 544.196C651.837 544.955 684.142 545.839 716.44 546.886C738.583 547.604 760.713 548.685 782.85 549.591C796.684 550.156 801.743 555.336 801.396 569.144C801.289 573.415 800.344 577.664 799.605 582.272Z" fill="white"/>
<path d="M550.457 801.964C541.395 802.426 532.746 803.071 524.1 803.037C512.754 802.992 505.712 795.969 505.28 784.096C504.615 765.794 504.405 747.475 503.968 729.164C502.699 675.892 501.412 622.621 500.137 569.349C500.089 567.352 500.023 565.351 500.093 563.356C500.513 551.358 507.958 543.709 519.909 543.281C528.061 542.989 536.226 542.914 544.384 542.979C554.697 543.06 562.482 549.541 563.338 559.8C564.193 570.059 564.007 580.414 564.074 590.729C564.483 653.841 564.854 716.953 565.189 780.065C565.253 792.264 561.09 798.438 550.457 801.964Z" fill="white"/>
<path d="M1053.92 740.956C1051.72 766.471 1049.5 791.521 1047.44 816.584C1046.28 830.578 1038.39 837.214 1024.41 835.563C1018.63 834.88 1012.85 834.105 1007.07 833.347C995.46 831.823 988.903 824.11 989.752 812.376C993.419 761.724 997.22 711.082 1000.95 660.435C1002.48 639.678 1003.82 618.906 1005.54 598.165C1005.92 593.621 1006.7 588.744 1008.76 584.79C1012.08 578.457 1018.42 576.177 1025.33 576.875C1033.6 577.71 1041.86 578.918 1050.03 580.467C1060.59 582.468 1066.78 591.25 1065.82 602.603C1063.23 633.139 1060.48 663.66 1057.84 694.191C1056.5 709.622 1055.25 725.06 1053.92 740.956Z" fill="white"/>
<path d="M304.68 755.476C312.066 758.529 316.465 763.723 317.503 771.221C318.55 778.786 319.623 786.434 319.598 794.043C319.555 806.752 312.467 814.195 299.569 816.009C276.831 819.206 254.041 822.045 231.334 825.446C191.673 831.386 152.043 837.539 112.432 843.803C94.0483 846.71 85.2617 840.504 82.8792 822.203C82.3852 818.408 81.991 814.598 81.6363 810.788C80.1432 794.746 87.5725 785.222 103.736 782.604C123.118 779.464 142.483 776.19 161.914 773.384C205.564 767.078 249.244 760.977 292.935 754.959C296.635 754.45 300.508 755.193 304.68 755.476Z" fill="white"/>
<path d="M801.501 657.862C811.633 659.537 815.726 664.608 815.26 674.42C815.134 677.082 815.035 679.745 814.885 682.405C814.341 692.029 808.652 697.301 798.949 696.936C771.648 695.91 744.355 694.587 717.048 693.783C677.746 692.625 638.435 691.771 599.126 690.897C586.612 690.618 582.3 686.073 581.953 673.552C581.542 658.693 584.732 651.538 603.243 652.11C661.355 653.904 719.48 655.28 777.598 656.854C785.425 657.066 793.245 657.488 801.501 657.862Z" fill="white"/>
<path d="M993.42 280.25C991.784 297.469 990.034 314.678 988.61 331.914C988.339 335.189 987.073 336.412 984.13 337.261C972.672 340.562 963.402 346.968 957.068 357.26C956.285 358.532 955.208 359.833 955.013 361.226C953.882 369.317 948.475 374.039 942.868 379.395C932.59 389.209 930.621 402.155 932.625 415.908C932.891 417.731 932.342 420.186 931.229 421.615C921.764 433.767 920.55 452.09 928.871 465.27C930.526 467.891 930.889 470.095 930.22 473.097C927.513 485.253 930.102 496.617 936.571 507.042C938.723 510.51 938.427 512.238 934.988 514.56C921.187 523.881 907.601 533.52 893.34 542.946C893.695 533.511 894.514 524.158 895.625 514.839C897.405 499.899 899.418 484.988 901.259 470.055C902.736 458.07 904.033 446.063 905.539 434.083C907.373 419.486 909.463 404.922 911.218 390.316C913.093 374.716 914.806 359.094 916.382 343.46C916.957 337.764 919.465 333.86 924.214 330.52C936.42 321.935 948.202 312.752 960.263 303.958C971.241 295.953 982.362 288.145 993.42 280.25Z" fill="#A97446"/>
<path d="M835.113 851.933C834.485 870.334 833.895 888.31 833.083 906.276C832.272 924.237 831.243 942.188 830.303 960.143C829.712 971.449 829.189 982.759 828.486 994.058C827.957 1002.56 822.642 1007.47 814.203 1007.41C808.205 1007.38 802.203 1007.29 796.21 1007.04C786.121 1006.63 780.903 1001.22 781.261 991.063C782.759 948.626 784.405 906.194 785.984 863.76C786.12 860.097 786.037 856.422 786.288 852.768C786.923 843.514 792.701 838.113 801.935 838.289C808.59 838.417 815.245 838.781 821.889 839.212C828.668 839.651 832.9 843.709 835.113 851.933Z" fill="#B57E4E"/>
<path d="M916.325 248.469C931.317 251.883 946.333 255.193 961.291 258.746C971.613 261.198 981.855 263.986 991.996 267.091C990.466 268.463 989.031 269.309 987.686 270.28C963.415 287.816 939.214 305.448 914.802 322.784C912.397 324.492 908.471 325.56 905.664 324.967C878.84 319.299 852.105 313.21 825.476 306.936C826.258 306.127 826.871 305.564 827.564 305.128C852.168 289.663 876.801 274.247 901.369 258.727C906.476 255.5 911.346 251.898 916.325 248.469Z" fill="#E0B484"/>
<path d="M825.344 307.245C852.105 313.213 878.84 319.302 905.664 324.969C908.471 325.562 912.397 324.495 914.802 322.787C939.214 305.451 963.415 287.818 987.686 270.283C989.031 269.311 990.466 268.465 992.187 267.426C992.979 271.402 993.445 275.513 993.665 279.938C982.362 288.148 971.241 295.956 960.263 303.961C948.202 312.755 936.42 321.938 924.214 330.523C919.465 333.863 916.957 337.767 916.382 343.463C914.806 359.097 913.093 374.719 911.218 390.319C909.463 404.925 907.373 419.489 905.539 434.086C904.033 446.066 902.736 458.073 901.259 470.058C899.418 484.991 897.405 499.902 895.625 514.842C894.514 524.161 893.695 533.514 893.042 543.108C889.226 544.665 885.115 545.968 880.568 547.207C883.395 521.262 886.703 495.387 889.906 469.498C892.743 446.575 895.44 423.635 898.244 400.708C900.463 382.567 902.692 364.427 905.034 346.302C906.007 338.768 904.677 336.41 897.197 334.771C871.884 329.226 846.544 323.798 820.452 318.194C814.711 316.896 809.752 315.64 804.751 314.582C792.955 312.088 781.138 309.688 769.329 307.251C756.461 304.244 743.608 301.172 730.721 298.248C717.152 295.169 703.55 292.231 689.559 289.152C690.278 284.043 693.774 281.492 699.238 280.213C715.948 283.708 731.852 287.249 747.798 290.591C755.908 292.291 764.092 293.635 772.477 295.449C790.255 299.588 807.799 303.416 825.344 307.245Z" fill="#80542E"/>
<path d="M772.243 295.138C764.092 293.633 755.908 292.29 747.798 290.59C731.852 287.247 715.948 283.707 699.604 280.254C700.209 279.491 701.138 278.504 702.28 277.984C738.336 261.578 774.449 245.296 810.453 228.779C816.796 225.869 822.774 224.924 829.675 226.82C842.504 230.345 855.539 233.119 868.826 236.643C868.863 237.46 868.642 237.975 868.253 238.197C838.951 254.895 809.608 271.519 780.367 288.322C777.35 290.055 774.937 292.841 772.243 295.138Z" fill="#DFB383"/>
<path d="M772.477 295.447C774.937 292.84 777.35 290.055 780.367 288.321C809.608 271.518 838.951 254.894 868.253 238.196C868.642 237.974 868.863 237.459 869.199 236.742C884.782 240.215 900.328 244.027 916.099 248.154C911.346 251.898 906.476 255.501 901.369 258.727C876.801 274.247 852.168 289.664 827.564 305.128C826.871 305.564 826.258 306.127 825.476 306.937C807.799 303.414 790.255 299.586 772.477 295.447Z" fill="#AD784A"/>
<path d="M250.669 937.723C246.529 939.018 242.309 941.593 238.845 940.812C221.029 936.795 203.291 932.31 185.758 927.192C174.805 923.995 170.738 913.823 174.962 903.209C178.371 894.645 186.352 890.577 195.756 893.707C210.58 898.641 225.177 904.255 239.865 909.597C241.113 910.051 242.304 910.662 243.544 911.144C255.944 915.966 259.016 926.883 250.669 937.723Z" fill="#B67F4F"/>
<path d="M897.217 935.477C888.5 925.401 890.885 913.799 902.804 908.936C918.512 902.527 934.399 896.547 950.283 890.58C956.892 888.097 963.217 888.903 968.122 894.41C973.285 900.207 975.285 907.297 971.777 914.263C969.793 918.202 965.761 922.55 961.751 923.78C944.131 929.185 926.241 933.769 908.299 938.015C905.063 938.781 901.122 936.564 897.217 935.477Z" fill="#B7804F"/>
<path d="M248.248 1004.27C237.855 1009.97 227.902 1015.72 217.682 1020.96C208.586 1025.62 200.371 1022.96 196.09 1014.6C191.352 1005.36 193.639 996.104 202.867 991.692C216.517 985.167 230.448 979.179 244.503 973.573C252.531 970.371 258.425 973.022 261.714 979.858C265.395 987.508 263.377 994.722 256.215 999.359C253.698 1000.99 251.121 1002.52 248.248 1004.27Z" fill="#B98151"/>
<path d="M910.334 973.172C922.421 978.48 934.269 983.392 945.794 988.97C954.663 993.262 957.405 1002.61 953.181 1011.43C949.226 1019.69 941.447 1022.87 933.254 1018.7C919.608 1011.76 906.125 1004.48 892.796 996.953C885.293 992.716 883.419 985.283 887.051 977.573C890.331 970.61 896.233 968.507 904.759 971.281C906.501 971.848 908.225 972.467 910.334 973.172Z" fill="#B98251"/>
<path d="M757.285 775.243C732.826 774.449 708.367 773.648 683.907 772.865C676.417 772.625 668.926 772.388 661.434 772.242C658.532 772.186 655.706 771.76 655.759 768.224C655.811 764.792 658.534 764.142 661.488 764.235C687.454 765.052 713.422 765.818 739.386 766.669C750.87 767.045 762.346 767.766 773.831 767.933C777.211 767.983 780.611 766.673 784.359 765.873C784.236 769.01 783.755 772.26 783.274 775.965C782.518 776.462 781.762 776.505 780.567 776.041C777.584 773.24 773.693 774.375 770.975 770.956C769.463 769.053 763.741 770.085 760.026 770.596C758.92 770.748 758.189 773.618 757.285 775.243Z" fill="#302519"/>
<path d="M785.212 765.691C785.181 765.421 785.461 765.197 786 764.875C786.013 765.097 785.769 765.417 785.212 765.691Z" fill="#302519"/>
<path d="M337.365 115.176C352.001 108.869 367.089 114.961 373.359 129.219C374.87 132.653 373.918 134.698 371.154 136.873C360.846 144.984 350.617 153.198 340.508 161.555C337.822 163.775 335.679 163.921 333.039 161.736C317.463 148.848 319.439 125.579 337.365 115.176Z" fill="#281C0F"/>
<path d="M653.878 97.8863C662.77 87.4174 676.9 85.1559 686.724 92.3777C698.159 100.784 700.665 115.542 692.736 127.942C691.84 129.343 690.834 130.681 689.794 131.981C687.33 135.059 684.941 135.473 681.284 133.097C671.529 126.758 661.529 120.774 651.409 115.031C647.564 112.848 646.272 110.456 648.402 106.621C650.011 103.725 651.899 100.983 653.878 97.8863Z" fill="#281C0F"/>
<path d="M818.302 450.443C804.994 473.031 774.054 475.793 754.812 456.111C740.109 441.072 736.85 417.821 747.119 399.516C747.327 402.576 747.016 405.42 747.241 408.221C748.014 417.83 752.83 424.898 761.632 428.737C769.815 432.306 776.611 429.446 782.879 423.54C792.091 414.86 805.973 416.604 813.973 426.811C819.608 434.001 820.032 441.986 818.302 450.443Z" fill="#2A4575"/>
<path d="M818.564 450.197C820.032 441.985 819.608 434 813.973 426.81C805.973 416.603 792.091 414.859 782.879 423.539C776.611 429.445 769.815 432.305 761.632 428.736C752.83 424.897 748.014 417.829 747.241 408.22C747.016 405.419 747.327 402.575 747.371 399.231C759.33 377.622 786.509 372.383 805.802 387.445C825.372 402.722 830.677 428.183 818.564 450.197Z" fill="#B34033"/>
<path d="M769.166 307.633C781.138 309.688 792.955 312.087 804.751 314.581C809.752 315.639 814.711 316.896 820.049 318.245C819.675 326.494 819.003 334.564 818.182 342.62C817.811 346.258 815.618 348.01 811.987 347.209C798.27 344.183 784.534 341.221 770.929 337.748C769.046 337.268 766.508 334.003 766.586 332.122C766.92 324.067 768.119 316.048 769.166 307.633Z" fill="#AE794B"/>
<path d="M852.471 406.172C847.83 395.495 843.326 385.172 838.659 374.478C840.786 373.472 842.532 372.647 844.932 371.512C851.286 385.867 857.503 399.91 863.934 414.439C861.661 415.581 859.826 416.503 857.53 417.657C855.8 413.745 854.204 410.135 852.471 406.172Z" fill="#2C2012"/>
<path d="M720.519 351.508C724.414 347.219 728.067 343.187 731.68 339.199C737.71 343.65 737.709 343.788 733.19 348.763C725.165 357.598 717.164 366.456 709.191 375.264C703.107 371.547 702.988 370.881 707.258 366.173C711.606 361.379 715.937 356.569 720.519 351.508Z" fill="#2E2113"/>
<path d="M716.947 473.561C719.947 478.769 715.738 478.778 712.647 480.247C711.836 478.643 711.032 477.256 710.41 475.791C705.737 464.784 701.299 453.67 696.352 442.788C694.381 438.45 695.144 436.292 700.683 435.168C705.99 447.7 711.392 460.457 716.947 473.561Z" fill="#2E2213"/>
<path d="M727.522 464.097C723.041 453.833 718.869 443.846 714.308 434.04C712.331 429.788 713.042 427.505 718.199 426.633C718.784 427.521 719.654 428.503 720.15 429.648C725.179 441.251 729.999 452.948 735.205 464.47C737.275 469.05 735.786 470.837 730.841 471.505C729.807 469.202 728.74 466.824 727.522 464.097Z" fill="#2B1F12"/>
<path d="M743.102 360.088C744.469 358.626 745.601 357.434 746.702 356.273C752.624 360.432 752.639 360.685 748.013 365.705C741.125 373.179 734.231 380.648 727.417 388.188C726.207 389.526 725.372 391.202 724.056 393.187C721.558 390.409 720.159 388.852 718.449 386.949C726.715 377.947 734.791 369.152 743.102 360.088Z" fill="#2A1E11"/>
<path d="M730.486 357.473C733.633 354.056 736.545 350.905 739.765 347.422C741.49 349.337 742.9 350.902 744.6 352.79C735.053 363.212 725.668 373.459 715.923 384.097C714.232 382.185 712.847 380.619 711.128 378.676C717.562 371.632 723.907 364.685 730.486 357.473Z" fill="#2E2012"/>
<path d="M847.148 495.268C842.928 500.227 838.71 504.83 834.179 509.775C832.053 507.809 830.409 506.288 828.604 504.619C833.936 499.764 838.649 495.472 843.612 490.953C844.334 491.761 845.742 493.336 847.148 495.268Z" fill="#312315"/>
<path d="M852.574 367.395C853.737 367.674 854.987 367.88 855.283 368.524C857.885 374.178 860.316 379.909 862.901 385.858C860.695 387.022 858.987 387.923 856.64 389.162C853.743 382.709 850.952 376.49 848.057 370.038C849.725 369.031 850.971 368.278 852.574 367.395Z" fill="#2F2314"/>
<path d="M849.236 421.505C847.068 418.385 845.153 415.224 843.529 411.921C842.162 409.141 841.132 406.196 839.822 403.005C841.901 401.953 843.623 401.082 845.953 399.902C848.814 406.247 851.561 412.34 854.523 418.912C852.738 419.817 851.177 420.609 849.236 421.505Z" fill="#2C2113"/>
<path d="M865.694 392.324C868.511 398.19 871.027 403.79 873.759 409.868C871.606 410.97 869.77 411.909 867.257 413.194C864.451 406.82 861.807 400.816 858.813 394.016C861.223 393.299 863.309 392.678 865.694 392.324Z" fill="#291E12"/>
<path d="M823.779 476.8C824.876 475.342 825.737 474.138 826.976 472.406C829.159 474.786 830.583 476.338 832.497 478.424C827.95 483.26 823.493 488 819.076 492.698C812.968 488.115 812.968 488.092 817.702 483.176C819.658 481.144 821.597 479.095 823.779 476.8Z" fill="#2B1F12"/>
<path d="M843.565 466.561C840.82 469.461 838.31 472.098 835.317 475.241C833.657 473.475 832.14 471.859 830.244 469.841C834.135 465.541 837.524 460.997 841.719 457.39C845.703 453.964 846.064 459.4 848.616 460.948C846.853 462.906 845.327 464.601 843.565 466.561Z" fill="#2E2113"/>
<path d="M859.207 483.159C856.346 486.176 853.731 488.929 850.857 491.955C849.066 489.975 847.552 488.3 845.746 486.302C850.196 481.596 854.382 477.171 859.173 472.105C860.889 474.047 862.287 475.628 864.113 477.693C862.454 479.544 860.953 481.22 859.207 483.159Z" fill="#2B1F12"/>
<path d="M835.037 492.003C832.021 495.063 829.248 497.861 826.38 500.755C824.715 499.125 823.237 497.679 821.221 495.705C825.621 491.039 829.97 486.426 834.946 481.148C836.833 482.996 838.406 484.537 840.191 486.285C838.128 488.576 836.704 490.158 835.037 492.003Z" fill="#251A10"/>
<path d="M841.116 396.002C838.774 397.353 837.252 397.584 836.223 394.817C834.895 391.241 833.239 387.782 831.633 384.314C829 378.63 828.969 378.644 835.754 376.199C838.212 381.86 840.759 387.554 843.076 393.341C843.288 393.872 842.032 394.991 841.116 396.002Z" fill="#2C2113"/>
<path d="M850.616 475.576C848.08 478.225 845.794 480.616 843.257 483.27C841.707 481.455 840.348 479.862 838.549 477.754C842.374 473.618 846.602 469.047 851.287 463.98C853.02 465.974 854.456 467.625 856.131 469.553C854.194 471.673 852.53 473.495 850.616 475.576Z" fill="#261C11"/>
<path d="M708.973 431.195C712.097 437.282 714.85 443.241 717.712 449.434C715.633 450.557 714.07 451.402 711.834 452.609C709.253 446.674 706.574 441.061 704.545 435.222C704.261 434.405 707.171 432.48 708.973 431.195Z" fill="#2F2314"/>
<path d="M726.462 470.117C728.986 475.238 724.097 474.224 722.092 476.814C719.193 470.026 716.623 464.01 713.902 457.64C715.739 456.691 717.298 455.885 719.607 454.691C721.929 459.906 724.123 464.834 726.462 470.117Z" fill="#2F2314"/>
<path d="M414.383 999.148C414.67 1004.44 414.896 1009.26 415.253 1014.07C415.449 1016.7 414.653 1018.02 411.739 1018.17C400.947 1018.7 390.16 1019.38 379.379 1020.12C376.359 1020.32 375.315 1019.2 375.15 1016.19C373.583 987.636 371.9 959.092 370.232 930.547C369.688 921.254 369.174 911.958 368.471 902.677C368.201 899.112 369.333 897.566 373.083 897.397C383.38 896.932 393.667 896.221 403.948 895.478C408.436 895.154 409.821 897.571 409.98 901.481C410.296 909.291 410.669 917.099 411.023 924.907C412.14 949.495 413.259 974.082 414.383 999.148Z" fill="#281C10"/>
<path d="M757.698 775.351C758.189 773.616 758.92 770.746 760.026 770.594C763.741 770.082 769.463 769.05 770.975 770.953C773.693 774.373 777.583 773.237 780.205 775.912C777.521 776.281 774.759 776.27 771.54 775.8C768.457 775.395 765.831 775.449 763.205 775.503C761.507 775.489 759.808 775.475 757.698 775.351Z" fill="#271C10"/>
<path d="M763.564 775.67C765.831 775.449 768.457 775.395 771.188 775.704C768.836 775.991 766.38 775.914 763.564 775.67Z" fill="#302519"/>
<path d="M550.008 423.084C532.713 426.855 515.905 427.095 499.293 421.711C468.562 411.751 449.651 387.384 447.544 355.153C445.32 321.134 466.303 284.3 496.79 269.308C519.779 258.003 542.772 258.714 565.45 270.432C600.626 288.609 619.89 333.048 608.288 370.399C599.381 399.074 578.665 415.315 550.008 423.084ZM506.938 291.282C490.936 299.731 489.321 316.954 503.774 327.974C508.089 331.263 513.064 333.859 518.057 336.038C522.67 338.051 524.739 341.135 524.957 345.943C525.229 351.929 525.603 357.912 526 363.892C526.483 371.165 523.048 376.754 516.281 379.666C511.523 381.714 506.879 381.131 502.218 379.307C498.826 377.98 495.73 378.44 494.355 382.12C492.979 385.807 494.539 388.794 498.197 390.137C501.133 391.216 504.249 392.077 507.35 392.385C518.335 393.48 526.945 388.807 533.319 381.153C538.028 383.465 542.142 386.114 546.642 387.557C555.037 390.249 563.137 388.727 570.463 383.835C573.647 381.708 574.616 378.521 572.622 375.141C570.705 371.892 567.759 372.246 564.772 373.77C563.293 374.525 561.807 375.309 560.246 375.856C549.576 379.594 538.503 372.063 539.086 361.786C539.442 355.511 538.524 349.159 538.107 342.846C537.839 338.781 539.401 336.008 542.957 333.802C547.174 331.186 551.406 328.353 554.924 324.894C568.717 311.333 564.27 293.64 545.754 288.27C532.791 284.51 520.044 285.89 506.938 291.282Z" fill="#FBF9F6"/>
<path d="M432.547 309.99C420.438 310.856 413.717 306.488 410.524 295.393C408.184 287.262 408.039 278.932 411.082 270.911C414.375 262.23 420.784 258.034 429.421 258.314C436.629 258.548 443.419 263.472 445.048 272.051C446.531 279.865 446.744 288.207 445.793 296.109C444.97 302.954 440.204 308.052 432.547 309.99Z" fill="#281D11"/>
<path d="M635.687 282.472C631.663 290.153 625.533 293.567 617.417 292.184C609.714 290.87 605.579 285.266 603.311 278.207C600.364 269.032 600.288 259.867 604.285 250.957C606.845 245.252 611.205 241.739 617.634 241.13C624.373 240.491 629.883 242.708 633.38 248.571C639.767 259.283 640.005 270.578 635.687 282.472Z" fill="#281D11"/>
<path d="M507.288 291.139C520.044 285.89 532.791 284.51 545.754 288.27C564.27 293.64 568.717 311.333 554.924 324.894C551.406 328.353 547.174 331.186 542.957 333.802C539.401 336.008 537.839 338.781 538.107 342.846C538.524 349.159 539.442 355.511 539.086 361.786C538.503 372.063 549.576 379.594 560.246 375.856C561.807 375.309 563.293 374.525 564.772 373.77C567.759 372.247 570.705 371.892 572.622 375.141C574.616 378.522 573.647 381.708 570.463 383.835C563.137 388.727 555.037 390.249 546.642 387.557C542.142 386.114 538.028 383.465 533.319 381.153C526.945 388.807 518.335 393.48 507.35 392.386C504.249 392.077 501.133 391.216 498.197 390.137C494.539 388.794 492.979 385.807 494.355 382.12C495.73 378.44 498.826 377.98 502.218 379.307C506.879 381.132 511.523 381.714 516.281 379.666C523.048 376.754 526.483 371.165 526 363.892C525.603 357.912 525.229 351.929 524.957 345.943C524.739 341.135 522.67 338.051 518.057 336.038C513.064 333.859 508.089 331.263 503.774 327.974C489.321 316.954 490.936 299.731 507.288 291.139Z" fill="#281D11"/>
</svg>
