<svg width="1196" height="963" viewBox="0 0 1196 963" fill="none" xmlns="http://www.w3.org/2000/svg">
<path d="M14.068 563.448C26.4118 532.884 45.1912 507.765 72.0936 489.132C87.7773 478.269 105.211 471.872 124.228 469.381C146.708 466.436 169.09 462.753 191.54 459.571C205.458 457.598 219.423 455.96 233.811 454.114C233.905 452.332 234.114 450.722 234.057 449.122C232.919 417.261 244.69 390.463 267.509 368.93C275.367 361.516 277.846 353.547 278.068 343.715C278.785 311.974 285.017 281.179 294.06 250.857C299.875 231.359 307.439 212.571 316.663 194.463C318.538 190.78 318.076 188.015 315.791 184.863C304.439 169.206 297.32 151.679 295.326 132.531C293.588 115.837 295.711 99.3353 302.477 83.7123C317.831 48.2582 344.209 25.4465 382.073 17.8759C411.135 12.0651 437.794 19.406 460.767 38.6299C464.332 41.6126 467.846 44.6967 471.06 48.0442C473.517 50.6031 476.013 50.7162 479.187 49.9101C497.657 45.2201 516.049 40.1225 534.697 36.2757C545.992 33.9458 557.675 33.1998 569.229 32.4879C597.391 30.7526 625.115 33.8453 652.437 40.9035C654.122 41.3388 657.025 40.3039 658.209 38.9474C676.239 18.2907 698.146 4.0656 725.631 0.735655C751.302 -2.37451 774.673 4.38666 795.075 20.8371C810.555 33.3189 821.339 48.9503 827.634 67.6809C834.132 87.0135 833.739 106.557 828.233 126.011C826.432 132.373 823.958 138.582 821.312 144.652C820.006 147.646 819.868 149.977 822.034 152.388C822.252 152.631 822.352 152.978 822.56 153.235C829.957 162.371 827.267 161.658 837.037 156.927C849.733 150.78 862.694 152.098 875.991 154.803C904.722 160.649 933.584 165.844 962.344 171.544C991.764 177.375 1021.17 183.283 1050.5 189.567C1065.91 192.87 1078.39 207.005 1078.88 222.836C1079.32 237.326 1077.88 251.875 1077.27 266.398C1077.19 268.394 1077.3 270.413 1077.04 272.383C1076.61 275.652 1077.78 277.492 1080.88 278.92C1102.35 288.794 1117.59 304.941 1127.43 326.248C1134.04 340.569 1137.21 355.662 1138.28 371.468C1139.5 389.474 1136.86 406.839 1132.03 423.959C1128.37 436.954 1122.96 449.286 1115.37 460.557C1114.27 462.183 1113.21 463.831 1111.57 466.314C1114.93 467.102 1117.66 467.98 1120.46 468.361C1135.13 470.362 1147.69 477.03 1158.58 486.599C1176.72 502.557 1188.8 522.46 1193.38 546.271C1197.7 568.768 1195.69 590.63 1183.47 610.736C1166.97 637.858 1150.29 664.866 1134.13 692.187C1131.85 696.039 1131.77 701.344 1131.23 706.04C1129.37 722.497 1127.83 738.99 1126.01 755.452C1125.41 760.875 1124.12 766.224 1123.59 771.651C1123.37 773.906 1123.58 776.821 1124.84 778.507C1139.11 797.615 1143.59 819.001 1141.23 842.451C1139.07 863.918 1133.3 884.223 1123.11 903.135C1107.75 931.631 1084.37 949.207 1052.01 954.568C1038.85 956.748 1026.26 953.958 1013.52 951.99C1006.32 950.879 999.229 949.125 992.035 948.013C990.329 947.75 988.107 948.463 986.626 949.469C970.661 960.312 953.313 964.181 934.102 961.624C920.651 959.834 907.022 959.341 893.463 958.401C873.117 956.991 852.764 955.669 832.41 954.365C821.154 953.645 809.897 952.881 798.629 952.413C772.076 951.309 745.516 950.357 718.958 949.37C709.162 949.006 699.366 948.536 689.566 948.424C654.771 948.027 619.974 947.604 585.176 947.515C567.547 947.47 549.915 948.076 532.285 948.47C521.32 948.715 510.355 949.061 499.394 949.453C481.798 950.083 464.202 950.719 446.612 951.487C434.346 952.022 422.08 952.63 409.832 953.475C387.842 954.992 365.867 956.727 343.883 958.342C329.499 959.399 315.056 959.928 300.737 961.552C282.03 963.674 265.285 959.353 249.709 949.004C247.674 947.652 243.991 948.196 241.206 948.662C230.594 950.437 220.074 952.778 209.451 954.471C188.366 957.832 168.435 954.281 149.868 943.618C120.461 926.728 105.009 899.885 97.3987 868.066C94.414 855.586 93.6153 842.56 92.2185 829.739C91.8139 826.026 92.2774 822.02 93.2775 818.407C94.2358 814.945 92.7179 813.54 90.2515 812.166C76.4466 804.477 64.7748 794.177 53.9073 782.819C38.3974 766.609 27.2103 747.646 18.2147 727.295C10.3204 709.436 5.07779 690.713 2.41452 671.43C0.0305603 654.169 -0.794367 636.8 0.881762 619.286C2.71517 600.128 7.04929 581.704 14.068 563.448ZM717.573 931.408C789.879 933.485 862.092 937.281 934.105 944.192C952.046 945.914 968.153 943.107 982.378 931.403C984.294 929.827 988.052 929.611 990.763 930.027C1005.08 932.227 1019.26 935.695 1033.64 937.116C1063.14 940.029 1085.73 927.233 1102.24 903.494C1116.19 883.425 1122.51 860.519 1124.11 836.339C1125.18 820.06 1122.17 804.184 1111.5 791.677C1104.57 783.562 1104.55 776.398 1106.03 766.704C1109.84 741.856 1111.98 716.755 1114.91 691.77C1115.17 689.555 1115.99 687.233 1117.15 685.323C1133.2 658.815 1149.15 632.246 1165.55 605.958C1175.57 589.9 1178.66 572.768 1175.99 554.267C1170.99 519.656 1145.68 492.488 1112.88 486.755C1107.47 485.809 1102.02 485.063 1096.57 484.329C1087.47 483.102 1078.35 481.959 1068.45 480.678C1071.48 478.517 1073.83 476.971 1076.03 475.243C1078.39 473.395 1080.82 471.573 1082.86 469.401C1116.95 433.084 1127.11 390.709 1112.57 343.308C1104.6 317.335 1086.72 299.838 1059.83 292.633C1058.75 292.343 1057.68 291.992 1056.66 291.685C1056.59 290.917 1056.48 290.425 1056.5 289.94C1057.61 270.142 1058.72 250.344 1059.85 230.547C1060.5 219.16 1054.53 211.144 1043.56 208.978C984.556 197.328 925.526 185.789 866.543 174.015C857.224 172.155 848.754 173.314 840.543 177.965C834.221 181.545 827.72 184.808 821.742 187.977C813.26 175.677 804.977 163.833 796.985 151.797C796.264 150.711 796.94 148.102 797.774 146.671C804.813 134.594 810.043 121.885 811.419 107.868C814.662 74.8209 802.222 48.7442 774.135 31.6081C746.782 14.9195 719.036 17.9789 692.681 35.262C680.956 42.9504 671.982 53.4578 664.727 65.2537C596.671 43.9059 526.47 51.9226 467.585 76.0358C466.54 74.648 465.457 73.1977 464.362 71.7568C453.082 56.9221 439.265 45.2763 421.037 40.349C389.248 31.7557 361.729 40.6362 339.516 64.0247C316.919 87.8168 309.678 116.188 319.53 148.104C324.14 163.039 332.866 175.573 343.359 187.029C342.72 188.313 342.251 189.363 341.693 190.363C311.555 244.432 297.759 302.645 297.793 364.307C297.796 368.343 296.413 370.494 293.223 372.687C263.513 393.117 248.688 429.365 256.137 462.882C256.702 465.424 257.404 467.936 258.07 470.571C257.025 470.821 256.399 471.027 255.757 471.116C216.488 476.548 177.225 482.026 137.944 487.369C121.729 489.574 105.704 492.043 91.1202 500.354C59.5351 518.354 39.5322 545.645 28.1958 579.459C13.6149 622.949 15.6138 666.536 30.8014 709.409C45.7865 751.71 71.383 785.255 113.447 804.194C114.022 804.453 114.518 804.888 115.257 805.376C110.393 818.355 109.068 831.618 111.055 845.234C114.496 868.812 120.874 891.351 136.743 909.816C155.994 932.217 180.249 942.02 209.886 936.618C222.339 934.348 234.764 931.879 247.279 930.02C250.2 929.586 254.147 930.358 256.406 932.128C268.911 941.923 282.947 945.237 298.562 944.228C359.746 940.274 420.906 935.688 482.146 932.93C560.24 929.412 638.413 929.184 717.573 931.408Z" fill="#F6E2CA"/>
<path d="M717.073 931.404C638.413 929.184 560.24 929.412 482.146 932.93C420.906 935.689 359.746 940.274 298.562 944.229C282.947 945.238 268.911 941.923 256.406 932.128C254.147 930.359 250.199 929.587 247.279 930.02C234.764 931.879 222.339 934.349 209.886 936.619C180.249 942.021 155.994 932.217 136.743 909.816C120.874 891.352 114.496 868.812 111.055 845.234C109.068 831.618 110.393 818.356 115.257 805.376C114.518 804.888 114.022 804.453 113.446 804.194C71.3829 785.256 45.7864 751.71 30.8014 709.409C15.6138 666.536 13.6149 622.95 28.1957 579.459C39.5321 545.646 59.535 518.355 91.1202 500.355C105.704 492.044 121.729 489.574 137.944 487.369C177.225 482.026 216.488 476.548 255.757 471.116C256.399 471.027 257.025 470.821 258.07 470.571C257.404 467.937 256.702 465.425 256.136 462.882C248.688 429.365 263.513 393.118 293.223 372.687C296.413 370.494 297.796 368.343 297.793 364.307C297.759 302.645 311.555 244.432 341.693 190.364C342.251 189.363 342.72 188.314 343.359 187.029C332.866 175.574 324.14 163.04 319.53 148.105C309.678 116.189 316.919 87.8171 339.516 64.025C361.729 40.6365 389.248 31.756 421.037 40.3493C439.265 45.2766 453.082 56.9224 464.361 71.7571C465.457 73.198 466.54 74.6483 467.585 76.0361C526.47 51.9229 596.671 43.9062 664.727 65.254C671.982 53.4581 680.956 42.9507 692.681 35.2623C719.036 17.9792 746.782 14.9198 774.135 31.6084C802.222 48.7445 814.662 74.8213 811.419 107.869C810.043 121.886 804.813 134.594 797.774 146.671C796.94 148.103 796.264 150.711 796.985 151.797C804.977 163.834 813.26 175.678 821.742 187.978C827.72 184.809 834.221 181.546 840.543 177.965C848.754 173.314 857.224 172.155 866.543 174.015C925.526 185.789 984.556 197.328 1043.56 208.979C1054.53 211.144 1060.5 219.16 1059.85 230.547C1058.72 250.344 1057.61 270.142 1056.5 289.94C1056.48 290.425 1056.59 290.917 1056.66 291.686C1057.68 291.993 1058.75 292.343 1059.83 292.633C1086.72 299.839 1104.6 317.336 1112.57 343.308C1127.11 390.71 1116.95 433.084 1082.86 469.401C1080.82 471.573 1078.39 473.395 1076.03 475.243C1073.83 476.971 1071.48 478.517 1068.45 480.679C1078.35 481.959 1087.47 483.102 1096.57 484.329C1102.02 485.063 1107.47 485.81 1112.88 486.756C1145.68 492.488 1170.99 519.657 1175.99 554.268C1178.66 572.768 1175.57 589.9 1165.55 605.959C1149.15 632.246 1133.2 658.816 1117.15 685.323C1115.99 687.234 1115.17 689.556 1114.91 691.77C1111.98 716.755 1109.84 741.857 1106.03 766.704C1104.55 776.398 1104.57 783.563 1111.5 791.678C1122.17 804.184 1125.18 820.061 1124.11 836.339C1122.51 860.519 1116.19 883.425 1102.24 903.495C1085.73 927.233 1063.14 940.03 1033.64 937.116C1019.26 935.696 1005.08 932.227 990.763 930.027C988.052 929.611 984.294 929.827 982.378 931.404C968.153 943.107 952.046 945.914 934.105 944.192C862.092 937.281 789.879 933.486 717.073 931.404ZM911.26 203.199C895.11 199.97 878.943 196.827 862.821 193.463C857.66 192.386 853.036 193.057 848.393 195.519C826.048 207.369 803.617 219.056 781.258 230.879C768.478 237.637 755.776 244.544 742.336 251.439C739.46 253.815 736.584 256.191 733.183 259.242C732.834 261.36 732.318 263.465 732.162 265.597C731.217 278.545 730.362 291.5 729.461 304.452C725.993 354.267 722.492 404.08 719.073 453.899C718.533 461.771 720.364 463.943 728.118 465.465C780.838 475.812 833.561 486.144 886.283 496.483C896.189 498.426 906.093 500.378 916.856 502.476C920.257 501.64 923.659 500.804 927.743 499.691C946.044 487.919 964.345 476.147 981.32 465.229C978.714 455.656 976.077 447.169 974.234 438.513C973.635 435.7 973.104 433.805 970.579 432.183C965.185 428.716 962.872 424.497 965.155 420.195C967.962 414.907 966.887 409.671 967.115 404.342C967.293 400.199 967.957 396.076 968.124 391.933C968.212 389.749 968.166 387.35 967.366 385.379C965.079 379.747 966.125 375.723 970.913 371.71C972.524 370.359 973.775 368.279 974.548 366.283C977.299 359.18 979.8 351.98 982.333 344.795C982.979 342.964 983.772 341.067 983.85 339.173C984.176 331.267 986.425 328.497 994.378 326.301C995.801 325.909 997.716 324.962 998.181 323.788C1004.7 307.308 1017.05 297.669 1033.64 292.693C1034.74 292.365 1036.02 290.483 1036.1 289.252C1037.2 272.318 1038.1 255.372 1039.14 237.553C1038.8 233.783 1040.65 229.111 1034.2 227.412C1019.58 224.497 1004.97 221.497 990.316 218.695C978.939 216.519 967.514 214.59 955.623 211.94C941.077 209.129 926.532 206.318 911.26 203.199ZM533.455 449.319C589.018 446.57 644.602 446.897 700.564 448.776C701.052 442.104 701.513 436.012 701.942 429.918C703.598 406.358 705.284 382.799 706.885 359.234C709.039 327.531 711.6 295.844 713.023 264.108C713.646 250.195 718.801 241.37 731.708 235.415C748.618 227.614 764.745 218.111 781.178 209.281C787.271 206.007 793.274 202.566 799.609 199.039C790.651 183.254 780.591 169.012 768.98 155.893C766.289 152.853 766.104 150.703 768.625 147.33C778.291 134.395 785.658 120.526 787.43 103.945C789.747 82.2548 776.882 58.6989 756.691 50.483C734.568 41.4812 714.571 46.3398 697.826 62.4892C690.406 69.646 684.917 78.8904 679.029 87.5129C676.377 91.3954 674.09 93.3142 669.291 91.1933C665.053 89.3207 660.491 88.16 656.036 86.8052C616.797 74.8721 576.929 72.7036 536.625 79.8219C511.129 84.3249 486.448 91.709 463.166 103.272C459.282 105.201 456.812 104.663 454.627 100.671C452.32 96.4544 449.473 92.5025 446.587 88.6402C438.127 77.3175 427.896 68.0873 413.923 64.3718C373.405 53.598 333.483 91.6667 341.438 133.18C344.82 150.832 354.443 164.692 367.3 176.572C373.744 182.526 373.967 182.375 369.535 189.61C358.011 208.424 348.56 228.233 341.297 249.06C331.943 275.886 326.068 303.504 323.211 331.745C322.331 340.444 322.157 349.214 321.624 358.572C354.372 349.67 384.48 353.103 411.375 372.835C438.584 392.799 450.503 420.22 447.521 453.882C476.073 452.352 504.278 450.842 533.455 449.319ZM334.293 725.662C333.997 722.344 333.706 719.026 333.402 715.709C332.246 703.106 331.002 690.509 330.032 677.891C329.908 676.282 330.742 673.659 331.924 673.055C336.446 670.745 340.612 672.279 343.168 676.693C354.251 695.84 365.36 714.973 376.319 734.191C379.831 740.349 384.601 743.38 391.856 742.509C403.924 741.06 416.037 739.985 428.103 738.52C438.112 737.304 443.135 727.394 438.48 718.32C437.345 716.106 435.893 714.053 434.55 711.949C423.004 693.852 411.522 675.714 399.833 657.709C397.664 654.369 397.903 652.528 401.124 650.009C410.065 643.014 416.706 634.088 421.114 623.61C430.168 602.086 430.206 580.111 423.266 558.16C415.007 532.04 396.963 515.707 370.511 509.433C359.922 506.921 348.673 505.114 337.912 505.823C313.037 507.464 288.261 510.704 263.481 513.601C257.288 514.325 252.58 520.122 252.191 526.531C251.98 529.995 252.31 533.518 252.667 536.987C257.481 583.872 262.33 630.754 267.198 677.634C269.383 698.674 271.548 719.716 273.886 740.74C274.939 750.202 280.648 754.281 290.149 753.098C298.741 752.028 307.368 751.249 315.966 750.23C333.877 748.109 336.663 744.493 334.293 725.662ZM243.145 739.987C248.266 734.616 253.446 729.092 252.553 720.948C249.393 692.135 246.129 663.332 242.64 634.557C241.561 625.649 235.789 621.329 226.92 622.508C206.774 625.186 186.65 628.036 166.553 631.064C157.708 632.397 153.682 638.03 154.719 647.022C155.634 654.959 156.707 662.882 157.925 670.778C159.279 679.545 164.566 683.356 173.439 682.187C177.73 681.621 182.012 680.976 186.285 680.288C189.284 679.806 190.606 681.17 190.893 684.022C191.292 687.998 191.376 692.066 192.334 695.91C193.686 701.336 191.148 703.798 186.673 705.87C164.159 716.299 141.141 708.753 129.772 686.689C120.551 668.792 117.777 649.665 121.175 629.889C123.848 614.337 131.815 602.18 147.066 596.271C163.503 589.903 179.884 589.691 195.819 598.34C204.568 603.088 209.782 601.45 213.973 592.545C218.506 582.914 222.93 573.228 227.186 563.473C230.765 555.27 229.089 548.895 221.758 543.824C217.128 540.621 212.194 537.722 207.08 535.378C188.052 526.657 167.95 525.03 147.436 527.422C105.926 532.263 77.4177 554.023 63.5669 593.653C51.4624 628.286 54.1877 662.944 66.0454 697.055C74.3877 721.052 87.9952 741.579 109.412 756.026C148.835 782.619 207.804 775.648 243.145 739.987ZM638.573 731.517C648.735 731.61 658.896 731.734 669.057 731.787C677.791 731.833 682.808 727.212 683.07 718.432C683.393 707.61 683.521 696.777 683.438 685.952C683.369 677.058 678.637 672.404 669.805 672.206C653.318 671.835 636.828 671.585 620.341 671.251C618.609 671.216 616.883 670.949 614.153 670.697C615.779 667.577 616.879 665.231 618.182 663.004C639.101 627.233 660.155 591.54 680.838 555.633C683.208 551.517 684.33 546.275 684.64 541.465C685.272 531.672 684.971 521.818 685.025 511.99C685.09 500.201 680.499 495.01 668.595 494.894C632.128 494.536 595.657 494.451 559.187 494.405C548.872 494.392 543.676 499.905 543.688 510.371C543.699 520.199 543.807 530.029 544.019 539.855C544.231 549.665 548.882 554.075 558.689 554.015C573.183 553.927 587.676 553.8 602.169 553.744C612.092 553.706 612.166 553.962 607.198 562.821C586.692 599.383 566.125 635.913 545.895 672.627C543.686 676.637 542.716 681.734 542.544 686.377C542.181 696.184 542.734 706.025 542.899 715.853C543.105 728.087 547.542 732.404 559.618 732.273C585.603 731.992 611.588 731.762 638.573 731.517ZM835.979 704.82C836.049 702.654 836.118 700.489 836.188 698.324C836.583 686.017 832.814 681.716 820.487 680.711C804.877 679.438 789.257 678.285 773.641 677.075C766.021 676.485 765.788 676.108 769.759 669.768C791.677 634.778 813.66 599.83 835.486 564.784C837.194 562.042 838.659 558.719 838.892 555.566C839.777 543.608 840.367 531.613 840.563 519.623C840.706 510.86 835.607 505.133 827.171 504.47C790.31 501.572 753.44 498.773 716.556 496.191C706.083 495.458 700.685 500.836 700.418 511.316C700.18 520.645 700.064 529.978 699.982 539.31C699.877 551.227 703.924 555.475 715.93 556.183C730.402 557.037 744.876 557.864 759.348 558.728C766.043 559.128 766.573 560.095 763.204 565.724C744.135 597.589 725.434 629.685 705.786 661.191C698.279 673.229 693.455 685.197 694.773 699.566C695.423 706.657 694.265 713.898 694.642 721.033C695.05 728.754 699.668 733.08 706.986 733.551C744.729 735.98 782.471 738.402 820.218 740.762C829.459 741.34 834.602 736.526 834.997 727.258C835.302 720.1 835.623 712.943 835.979 704.82ZM969.55 524.447C965.166 529.835 965.372 535.57 967.699 541.81C982.518 581.544 997.229 621.317 1011.87 661.115C1012.71 663.376 1013.08 665.995 1012.92 668.398C1012.27 678.201 1011.34 687.986 1010.5 697.776C1009 715.198 1007.32 732.606 1006.05 750.044C1005.25 761.002 1009.7 766.002 1020.54 767.581C1030.59 769.045 1040.63 770.604 1050.67 772.125C1061.35 773.742 1067.18 769.242 1068.28 758.424C1071.01 731.582 1073.67 704.732 1076.48 677.898C1076.75 675.342 1077.43 672.583 1078.74 670.421C1090.69 650.8 1102.84 631.296 1114.91 611.747C1124.79 595.734 1134.71 579.739 1144.5 563.671C1150.93 553.115 1146.98 543.356 1135.02 540.334C1124.7 537.725 1114.33 535.33 1103.95 532.958C1093.94 530.668 1089.32 532.913 1084.31 541.952C1074.96 558.841 1065.54 575.69 1056.12 592.54C1055.27 594.056 1054.22 595.458 1052.6 597.922C1051.51 594.994 1050.78 593.228 1050.19 591.411C1044.13 572.406 1038.04 553.409 1032.06 534.376C1029.99 527.807 1026.38 522.895 1019.07 522.391C1006.44 521.522 993.796 520.703 981.15 520.533C977.476 520.483 973.771 522.714 969.55 524.447ZM931.805 754.234C943.523 755.811 955.239 757.404 966.96 758.958C976.019 760.159 981.371 755.948 982.172 746.816C983.047 736.861 983.634 726.88 984.551 716.929C985.444 707.233 981.428 701.601 971.775 700.163C955.469 697.733 939.14 695.435 922.792 693.305C918.737 692.777 917.065 691.493 917.384 687.019C919.628 655.609 921.63 624.182 923.689 592.758C925.018 572.475 926.374 552.192 927.597 531.902C928.183 522.179 923.177 515.746 914.177 514.58C902.45 513.062 890.712 511.61 878.953 510.368C866.936 509.098 861.785 513.923 861.227 526.096C859.358 566.871 857.379 607.642 855.454 648.415C854.174 675.542 852.883 702.668 851.664 729.798C851.311 737.651 854.735 743.263 861.085 745.066C863.941 745.878 866.99 746.034 869.961 746.41C890.282 748.982 910.606 751.534 931.805 754.234ZM483.061 735.912C491.547 735.461 500.033 735.015 508.519 734.559C516.749 734.116 521.691 729.124 521.996 720.851C522.082 718.524 521.962 716.186 521.884 713.855C519.644 647.073 517.394 580.29 515.156 513.507C514.778 502.234 509.333 496.955 498.144 497.438C486.993 497.921 475.853 498.671 464.706 499.273C451.03 500.011 446.523 504.717 447.197 518.402C450.296 581.311 453.511 644.215 456.675 707.122C456.943 712.447 456.963 717.792 457.42 723.1C458.203 732.21 463.173 736.644 472.142 736.481C475.472 736.42 478.799 736.173 483.061 735.912ZM412.091 401.953C395.118 382.284 373.519 373.885 347.761 375.232C320.286 376.669 298.836 388.607 284.896 412.355C274.068 430.8 271.95 450.368 282.313 469.963C288.255 481.2 302.366 488.035 313.252 485.678C320.154 484.183 322.693 480.408 321.715 473.485C321.321 470.702 320.989 467.82 321.283 465.052C321.699 461.13 324.158 458.713 328.236 458.515C332.433 458.312 334.053 461.168 334.797 464.687C335.103 466.136 334.971 467.674 335.087 469.167C336.004 480.943 343.04 485.914 356.574 484.36C366.813 483.184 371.978 476.102 370.653 465.357C370.355 462.94 370.413 460.374 370.884 457.991C371.626 454.236 374.29 452.222 378.098 452.509C382.04 452.806 383.811 455.471 384.124 459.25C384.426 462.889 384.59 466.551 385.121 470.159C385.844 475.071 389.245 478.113 394.226 478.55C400.557 479.105 406.553 477.989 411.781 474.224C424.735 464.895 427.634 451.358 426.535 436.652C425.582 423.899 420.443 412.564 412.091 401.953ZM1091.63 346.538C1090.17 343.542 1088.96 340.402 1087.22 337.576C1077.62 321.895 1064.67 311.252 1045.28 311.542C1034.31 311.706 1025.3 316.392 1019.32 325.837C1016.51 330.277 1017.37 332.117 1022.18 334.124C1024.64 335.148 1027.2 335.997 1029.5 337.287C1033.31 339.417 1034.23 343.055 1032.59 346.74C1031.03 350.265 1027.73 351.02 1024.11 349.612C1021.17 348.466 1018.29 347.112 1015.29 346.14C1010.3 344.525 1004.63 343.812 1001.61 348.633C998.159 354.13 995.617 360.478 994.067 366.797C992.735 372.225 995.489 375.042 1001 376.447C1003.74 377.145 1006.54 377.601 1009.25 378.375C1014.2 379.785 1016.57 382.883 1015.58 386.377C1014.47 390.318 1010.95 392.065 1005.94 391.178C1002.18 390.511 998.442 389.661 994.652 389.27C990.12 388.802 987.22 391.166 986.534 395.573C985.976 399.164 985.882 402.858 985.914 406.503C985.988 415.107 990.773 419.97 999.483 420.454C1002.31 420.611 1005.15 420.447 1007.98 420.637C1011.39 420.867 1013.55 422.778 1014.06 426.182C1014.58 429.613 1012.99 432.247 1009.79 433.202C1007.15 433.994 1004.24 434.069 1001.44 434.11C994.356 434.215 992.625 436.564 994.8 443.471C999.532 458.495 1014.6 469.046 1032.14 469.316C1051.67 469.616 1066.43 460.278 1077.24 444.941C1098.36 414.975 1103.41 382.276 1091.63 346.538ZM944.337 823.62C941.55 816.127 938.73 808.646 935.99 801.136C934.715 797.641 932.443 795.652 928.62 795.448C926.464 795.333 924.326 794.914 922.176 794.658C914.991 793.802 912.847 795.61 912.174 802.77C909.708 828.971 907.318 855.18 904.645 881.361C903.185 895.666 903.878 896.743 918.261 897.54C923.591 897.836 925.6 896.162 926.097 890.92C927.102 880.308 928.059 869.691 929.081 859.08C929.348 856.3 929.779 853.535 930.135 850.764C936.196 864.568 941.572 878.191 945.918 892.135C948.262 899.657 952.286 902.868 960.044 903.27C969.749 903.772 971.331 902.847 972.11 892.944C972.227 891.451 972.43 889.964 972.581 888.473C975.254 861.962 977.965 835.454 980.558 808.935C980.971 804.717 979.075 801.86 974.548 801.286C971.243 800.867 967.946 800.377 964.637 800.004C960.546 799.543 958.317 801.561 957.842 805.517C957.446 808.822 957.263 812.152 956.955 815.467C955.979 825.958 954.99 836.447 954.006 846.937C953.663 846.98 953.321 847.022 952.978 847.065C950.198 839.488 947.417 831.912 944.337 823.62ZM337.328 844.388C339.825 853.146 341.299 862.372 345.051 870.554C351.054 883.643 361.741 891.181 376.753 890.672C391.729 890.165 402.502 882.722 407.984 868.922C416.41 847.713 414.853 826.435 405.617 805.883C401.108 795.851 393.516 788.396 382.341 785.508C362.684 780.426 344.35 791.629 339.327 813.286C337.075 822.991 337.827 833.393 337.328 844.388ZM820.055 820.062C816.203 836.773 815.578 853.437 821.988 869.664C827.185 882.821 836.845 890.899 851.243 891.99C864.706 893.011 875.599 887.447 882.451 876.041C886.568 869.189 889.663 861.327 891.384 853.514C894.866 837.708 895.387 821.643 888.045 806.567C882.083 794.326 872.261 786.975 858.25 786.273C843.983 785.558 833.515 791.995 826.628 804.152C823.948 808.882 822.326 814.21 820.055 820.062ZM589.731 815.567C587.596 814.882 583.865 814.552 583.619 813.447C582.806 809.789 583.016 805.83 583.377 802.038C583.466 801.107 585.566 799.776 586.834 799.661C590.638 799.316 594.488 799.462 598.32 799.449C613.762 799.398 613.802 799.362 613.304 783.827C613.101 777.505 611.103 775.416 604.839 775.415C592.844 775.414 580.848 775.496 568.854 775.624C561.704 775.7 559.217 778.199 559.296 785.335C559.387 793.661 559.691 801.986 559.859 810.312C560.266 830.465 560.635 850.619 561.046 870.773C561.16 876.385 563.135 878.931 568.243 878.936C581.734 878.95 595.229 878.768 608.715 878.389C613.376 878.258 614.923 875.343 614.933 868.304C614.948 857.65 613.851 855.215 608.733 854.607C608.075 854.528 607.402 854.555 606.736 854.56C603.237 854.582 599.737 854.693 596.24 854.628C581.606 854.358 584.443 857.596 583.891 841.847C583.792 839.003 584.985 838.011 587.732 838.066C592.894 838.167 598.061 838.067 603.225 838.043C607.301 838.023 609.745 835.772 609.541 831.905C609.25 826.419 612.316 820.031 606.111 815.858C605.268 815.291 603.844 815.505 602.688 815.501C598.69 815.486 594.691 815.534 589.731 815.567ZM642.398 783.219C639.481 787.026 635.723 790.451 633.787 794.704C623.581 817.132 623.159 839.961 634.035 862.154C643.374 881.21 666.62 886.564 684.476 874.743C694.026 868.42 694.683 865.603 688.897 855.769C688.56 855.196 688.23 854.617 687.881 854.05C683.701 847.26 682.384 846.99 675.944 851.599C668.226 857.124 659.528 855.956 655.434 847.936C648.463 834.278 648.92 820.235 656.095 806.771C659.695 800.013 667.088 798.54 673.815 802.335C675.393 803.225 676.756 804.492 678.225 805.575C681.395 807.91 684.137 807.581 686.152 804.09C688.065 800.777 689.781 797.352 691.649 794.013C693.971 789.859 693.071 786.594 689.524 783.459C676.142 771.63 656.904 771.257 642.398 783.219ZM287.952 826.004C292.549 818.447 298.215 816.305 305.503 819.368C316.146 823.84 316.148 823.841 320.732 813.107C321.189 812.037 321.632 810.958 322.029 809.864C324.192 803.912 323.458 801.687 318.17 798.074C300.883 786.262 276.199 791.915 267.39 811.172C255.632 836.875 258.189 862.368 274.567 885.417C285.486 900.784 306.484 902.83 321.787 891.605C333.271 883.182 333.776 879.091 324.655 868.403C324.439 868.149 324.226 867.893 324.003 867.646C319.915 863.09 318.24 863.003 313.718 867.108C304.855 875.153 294.819 873.463 289.691 862.563C284.251 851.003 283.024 838.954 287.952 826.004ZM721.841 844.658C721.494 852.139 721.431 859.647 720.743 867.097C719.259 883.17 723.58 881.358 734.36 881.676C741.935 881.9 743.709 880.226 744.062 872.611C745.049 851.333 746.146 830.06 747.089 808.779C747.224 805.738 747.992 804.133 751.437 804.42C767.234 805.739 766.684 805.426 767.183 788.656C767.188 788.49 767.202 788.323 767.202 788.157C767.2 782.814 765.191 780.519 759.834 780.224C744.216 779.363 728.596 778.438 712.965 777.995C710.667 777.93 706.502 780.091 706.283 781.654C705.45 787.603 704.639 794.076 706.211 799.683C707.599 804.631 713.783 801.98 717.853 802.669C718.178 802.724 718.521 802.735 718.85 802.704C722.687 802.344 723.559 804.13 723.348 807.786C722.655 819.748 722.325 831.731 721.841 844.658ZM495.822 876.727C497.322 880.438 500.353 881.251 503.956 881.108C513.114 880.746 522.282 880.581 531.429 880.06C547.102 879.166 547.718 881.749 546.539 861.983C546.268 857.443 543.992 855.006 539.098 855.298C533.611 855.625 528.083 855.406 522.617 855.903C519.038 856.229 518.008 855.137 517.879 851.612C517.16 831.967 516.197 812.331 515.346 792.691C514.666 777.002 514.425 776.768 498.869 777.875C493.257 778.274 491.058 780.466 491.183 786.092C491.334 792.92 491.729 799.743 492.067 806.566C493.213 829.692 494.381 852.817 495.822 876.727ZM458.601 883.432C464.08 883.098 469.556 882.68 475.04 882.455C479.521 882.27 481.903 879.983 481.882 875.616C481.862 871.466 481.555 867.296 481.045 863.175C480.614 859.7 478.431 857.984 474.794 858.204C469.482 858.525 464.106 858.346 458.865 859.116C453.903 859.844 452.565 858.059 452.325 853.382C451.335 834.109 450.05 814.851 448.828 795.59C447.902 780.989 448.625 780.391 431.971 781.965C426.178 782.513 424.435 784.579 424.832 790.526C426.76 819.406 428.771 848.281 430.836 877.152C431.245 882.869 433.497 884.805 439.216 884.577C445.366 884.332 451.506 883.857 458.601 883.432ZM795.507 884.806C800.397 882.277 799.465 877.448 799.743 873.329C801.521 846.952 803.131 820.562 804.762 794.175C805.366 784.401 803.926 782.851 794.151 782.419C792.987 782.367 791.823 782.326 790.66 782.267C783.107 781.884 781.481 783.538 781.119 791.314C780.67 800.948 780.009 810.572 779.456 820.201C778.378 838.962 777.267 857.721 776.268 876.487C775.981 881.876 777.987 884.294 783.272 884.823C787.058 885.203 790.9 885.028 795.507 884.806ZM220.83 839.36C221.172 831.605 218.075 827.309 211.408 826.605C198.331 825.222 185.251 823.86 172.156 822.657C164.895 821.99 159.7 826.169 159.184 832.711C158.672 839.198 163.184 844.506 170.196 845.005C183.313 845.938 196.454 846.525 209.579 847.36C215.164 847.715 218.888 845.505 220.83 839.36ZM1073.39 824.382C1070.35 823.854 1067.26 822.677 1064.28 822.912C1052.18 823.868 1040.12 825.268 1028.04 826.485C1021.12 827.182 1016.9 831.534 1017.21 837.689C1017.53 844.041 1021.77 847.649 1029.22 847.295C1041.68 846.704 1054.12 845.794 1066.57 845.046C1071.48 844.75 1075.25 842.674 1077.1 837.988C1079.08 832.975 1077.99 828.531 1073.39 824.382ZM223.096 886.011C228.438 881.789 229.707 876.491 226.644 871.195C223.903 866.456 219.688 865.355 213.182 867.891C202.796 871.94 192.454 876.098 182.087 880.196C174.924 883.028 171.887 888.854 174.361 895.071C176.705 900.958 182.974 903.244 189.889 900.362C200.788 895.819 211.588 891.037 223.096 886.011ZM1063.14 892.524C1063.59 887.19 1061.93 882.863 1056.77 880.693C1046.02 876.172 1035.24 871.73 1024.38 867.489C1018.43 865.168 1013.26 867.365 1011.09 872.623C1008.72 878.382 1010.82 884.103 1016.68 886.755C1026.99 891.429 1037.35 896 1047.8 900.367C1055.14 903.436 1060.19 900.942 1063.14 892.524Z" fill="#271C10"/>
<path d="M334.338 726.121C336.663 744.494 333.877 748.109 315.966 750.231C307.368 751.249 298.741 752.029 290.149 753.098C280.649 754.281 274.939 750.203 273.886 740.74C271.548 719.717 269.383 698.674 267.198 677.634C262.33 630.755 257.481 583.873 252.667 536.987C252.31 533.518 251.98 529.995 252.191 526.531C252.58 520.122 257.288 514.325 263.481 513.601C288.261 510.705 313.037 507.464 337.912 505.824C348.673 505.114 359.922 506.921 370.511 509.433C396.963 515.707 415.007 532.04 423.266 558.161C430.206 580.111 430.168 602.086 421.114 623.61C416.706 634.089 410.065 643.015 401.124 650.009C397.903 652.528 397.664 654.37 399.833 657.71C411.522 675.714 423.004 693.853 434.55 711.949C435.893 714.053 437.345 716.107 438.48 718.32C443.135 727.395 438.112 737.305 428.103 738.52C416.037 739.986 403.924 741.061 391.856 742.509C384.601 743.38 379.831 740.35 376.319 734.191C365.36 714.973 354.251 695.84 343.168 676.693C340.612 672.279 336.446 670.745 331.924 673.056C330.742 673.66 329.908 676.282 330.032 677.892C331.002 690.509 332.246 703.106 333.402 715.709C333.706 719.026 333.997 722.345 334.338 726.121ZM363.493 594.554C363.406 592.397 363.44 590.226 363.214 588.083C361.72 573.937 352.838 565.951 338.548 566.122C333.905 566.178 329.274 566.941 324.627 567.137C320.987 567.29 319.677 568.844 320.032 572.496C321.433 586.893 322.736 601.3 323.904 615.718C324.155 618.813 325.437 619.81 328.349 619.422C332.797 618.828 337.287 618.508 341.712 617.786C354.504 615.7 361.644 608.252 363.493 594.554Z" fill="#FBF6F3"/>
<path d="M915.998 502.326C906.093 500.378 896.189 498.426 886.283 496.483C833.562 486.144 780.839 475.812 728.118 465.465C720.364 463.943 718.533 461.771 719.074 453.898C722.492 404.08 725.993 354.267 729.461 304.452C730.362 291.5 731.217 278.545 732.163 265.596C732.318 263.465 732.834 261.359 733.83 259.166C746.021 261.19 757.573 263.253 769.108 265.401C781.438 267.697 793.753 270.075 806.104 272.877C805.763 279.3 805.431 285.266 805.006 291.226C804.738 294.988 806.078 296.995 810.1 297.686C822.346 299.791 834.524 302.286 846.746 304.532C852.471 305.585 853.76 304.384 854.083 298.592C854.416 292.627 854.917 286.672 855.717 280.724C860.652 281.627 865.208 282.55 869.778 283.407C888.711 286.955 907.633 290.563 926.593 293.959C930.925 294.735 932.634 296.958 932.269 301.136C931.922 305.108 931.559 309.079 931.23 313.053C928.558 345.337 925.839 377.618 923.239 409.909C920.759 440.709 918.407 471.52 915.998 502.326ZM766.279 355.612C766.604 357.242 766.829 358.899 767.273 360.495C769.081 366.992 771.751 373.717 761.259 376.269C762.658 378.142 763.431 379.348 764.371 380.407C771.547 388.492 778.86 396.461 785.841 404.711C786.864 405.92 786.91 408.578 786.429 410.291C785.716 412.831 784.128 415.126 782.613 418.117C789.171 418.61 794.771 419.147 800.384 419.431C814.321 420.134 814.537 420.393 812.403 434.313C811.825 438.085 811.041 441.945 811.341 445.685C811.502 447.687 813.771 449.519 815.088 451.428C816.448 449.754 817.87 448.123 819.127 446.374C819.463 445.907 819.295 445.078 819.36 444.415C820.068 437.196 820.775 429.976 821.556 422.01C831.848 425.013 841.603 427.859 852.269 430.971C851.83 427.935 851.657 426.012 851.26 424.138C850.369 419.94 851.291 416.798 855.494 414.764C860.131 412.519 864.601 409.917 869.08 407.358C873.786 404.67 878.416 401.849 883.493 398.841C882.147 397.346 881.472 396.019 880.407 395.512C875.487 393.167 875.967 390.027 878.138 385.854C880.379 381.548 881.882 376.86 884.144 371.26C879.008 371.26 875.234 371.233 871.461 371.265C863.676 371.331 864.507 371.963 863.022 364.279C862.786 363.056 862.184 361.903 861.596 360.291C855.712 364.47 850.222 368.369 843.558 373.102C846.356 361.091 848.835 350.449 851.229 340.177C846.335 339.609 841.209 340.487 838.624 338.326C835.682 335.866 834.983 330.703 833.359 326.695C832.736 325.156 832.331 323.527 831.68 322.001C830.883 320.134 829.933 318.334 828.626 315.629C824.151 321.958 820.204 327.284 816.565 332.812C815.067 335.087 813.634 335.534 811.264 334.4C808.655 333.152 805.925 332.155 802.327 330.668C803.044 342.972 803.701 354.235 804.358 365.498C803.975 365.62 803.592 365.741 803.209 365.863C798.654 359.718 794.098 353.573 789.026 346.733C787.717 349.204 786.682 350.697 786.101 352.349C784.834 355.95 782.794 356.744 779.28 355.171C776.106 353.75 772.703 352.828 769.379 351.756C766.571 350.85 765.678 352.129 766.279 355.612Z" fill="#D8AE83"/>
<path d="M242.901 740.241C207.804 775.648 148.835 782.619 109.413 756.026C87.9953 741.579 74.3877 721.052 66.0454 697.054C54.1878 662.944 51.4625 628.286 63.567 593.653C77.4177 554.023 105.926 532.262 147.436 527.422C167.95 525.03 188.052 526.657 207.08 535.378C212.194 537.722 217.128 540.621 221.758 543.824C229.089 548.895 230.765 555.27 227.186 563.473C222.93 573.228 218.506 582.914 213.973 592.545C209.782 601.45 204.568 603.088 195.819 598.339C179.884 589.691 163.503 589.903 147.066 596.271C131.816 602.179 123.848 614.336 121.175 629.889C117.777 649.665 120.551 668.792 129.772 686.689C141.141 708.753 164.159 716.299 186.673 705.87C191.148 703.798 193.686 701.336 192.334 695.91C191.376 692.066 191.292 687.998 190.893 684.022C190.606 681.17 189.284 679.806 186.285 680.288C182.012 680.976 177.73 681.621 173.439 682.187C164.566 683.356 159.279 679.545 157.925 670.778C156.707 662.882 155.634 654.959 154.719 647.022C153.682 638.03 157.708 632.396 166.554 631.064C186.65 628.036 206.775 625.186 226.92 622.508C235.79 621.329 241.561 625.649 242.641 634.557C246.129 663.332 249.393 692.135 252.553 720.948C253.446 729.092 248.267 734.616 242.901 740.241Z" fill="#FBF6F3"/>
<path d="M638.073 731.513C611.588 731.761 585.603 731.991 559.618 732.272C547.542 732.403 543.105 728.086 542.899 715.852C542.734 706.024 542.181 696.183 542.544 686.376C542.716 681.733 543.686 676.636 545.895 672.626C566.125 635.912 586.692 599.382 607.198 562.82C612.166 553.961 612.092 553.705 602.17 553.744C587.676 553.799 573.183 553.926 558.689 554.015C548.882 554.074 544.231 549.664 544.019 539.854C543.807 530.028 543.699 520.198 543.688 510.37C543.676 499.904 548.872 494.392 559.187 494.404C595.657 494.45 632.128 494.535 668.595 494.893C680.499 495.009 685.09 500.2 685.025 511.989C684.971 521.817 685.272 531.671 684.64 541.464C684.33 546.274 683.208 551.516 680.838 555.632C660.155 591.539 639.101 627.232 618.182 663.003C616.879 665.23 615.779 667.576 614.153 670.696C616.883 670.948 618.609 671.215 620.341 671.25C636.828 671.584 653.318 671.834 669.805 672.205C678.637 672.403 683.369 677.057 683.438 685.951C683.521 696.776 683.393 707.609 683.07 718.431C682.808 727.212 677.791 731.832 669.057 731.786C658.896 731.733 648.735 731.609 638.073 731.513Z" fill="#FBF7F3"/>
<path d="M835.958 705.303C835.623 712.943 835.302 720.1 834.997 727.258C834.602 736.526 829.459 741.34 820.218 740.763C782.471 738.402 744.729 735.98 706.986 733.551C699.668 733.08 695.05 728.754 694.642 721.034C694.265 713.898 695.423 706.657 694.773 699.567C693.455 685.197 698.279 673.229 705.786 661.191C725.434 629.685 744.135 597.59 763.204 565.724C766.573 560.095 766.043 559.128 759.348 558.728C744.876 557.864 730.402 557.037 715.93 556.183C703.924 555.475 699.877 551.227 699.982 539.31C700.064 529.978 700.18 520.645 700.418 511.316C700.685 500.836 706.083 495.458 716.556 496.191C753.44 498.773 790.31 501.572 827.171 504.47C835.607 505.133 840.706 510.861 840.563 519.623C840.367 531.613 839.777 543.608 838.892 555.566C838.659 558.719 837.194 562.042 835.486 564.784C813.66 599.83 791.677 634.778 769.759 669.768C765.788 676.108 766.021 676.485 773.641 677.075C789.257 678.285 804.877 679.438 820.487 680.711C832.814 681.716 836.583 686.017 836.188 698.324C836.118 700.489 836.049 702.655 835.958 705.303Z" fill="#FBF6F3"/>
<path d="M969.815 524.172C973.771 522.713 977.476 520.483 981.15 520.532C993.796 520.702 1006.44 521.521 1019.07 522.39C1026.38 522.894 1029.99 527.807 1032.06 534.375C1038.04 553.408 1044.13 572.406 1050.19 591.41C1050.78 593.227 1051.51 594.993 1052.6 597.922C1054.22 595.457 1055.27 594.055 1056.12 592.54C1065.54 575.689 1074.96 558.84 1084.31 541.951C1089.32 532.912 1093.94 530.667 1103.95 532.957C1114.33 535.329 1124.7 537.724 1135.02 540.333C1146.98 543.356 1150.93 553.115 1144.5 563.67C1134.71 579.738 1124.79 595.733 1114.91 611.746C1102.84 631.296 1090.69 650.799 1078.74 670.421C1077.43 672.582 1076.75 675.341 1076.48 677.897C1073.67 704.731 1071.01 731.581 1068.28 758.424C1067.18 769.241 1061.35 773.741 1050.67 772.124C1040.63 770.603 1030.59 769.045 1020.54 767.581C1009.7 766.001 1005.25 761.001 1006.05 750.044C1007.32 732.605 1009 715.197 1010.5 697.775C1011.34 687.985 1012.27 678.2 1012.92 668.397C1013.08 665.994 1012.71 663.375 1011.87 661.115C997.229 621.317 982.518 581.543 967.699 541.81C965.372 535.57 965.166 529.835 969.815 524.172Z" fill="#FBF6F3"/>
<path d="M931.367 754.162C910.606 751.533 890.282 748.981 869.961 746.409C866.99 746.033 863.941 745.877 861.085 745.066C854.735 743.262 851.311 737.65 851.664 729.797C852.883 702.667 854.174 675.541 855.454 648.414C857.379 607.641 859.358 566.871 861.228 526.095C861.785 513.922 866.936 509.097 878.953 510.367C890.712 511.61 902.45 513.061 914.177 514.58C923.177 515.745 928.183 522.178 927.597 531.901C926.374 552.192 925.018 572.474 923.689 592.758C921.63 624.181 919.628 655.609 917.385 687.019C917.065 691.492 918.737 692.777 922.792 693.305C939.14 695.434 955.469 697.732 971.775 700.162C981.428 701.601 985.444 707.232 984.551 716.928C983.634 726.879 983.047 736.86 982.172 746.816C981.371 755.947 976.019 760.158 966.96 758.957C955.239 757.403 943.523 755.81 931.367 754.162Z" fill="#FBF6F3"/>
<path d="M482.594 735.961C478.8 736.173 475.472 736.42 472.142 736.481C463.173 736.645 458.203 732.21 457.42 723.1C456.963 717.792 456.943 712.447 456.675 707.122C453.511 644.215 450.296 581.312 447.197 518.402C446.523 504.717 451.03 500.011 464.706 499.273C475.853 498.671 486.993 497.921 498.144 497.439C509.333 496.955 514.778 502.234 515.156 513.508C517.394 580.29 519.644 647.073 521.884 713.855C521.963 716.187 522.082 718.524 521.996 720.852C521.691 729.124 516.749 734.117 508.519 734.559C500.033 735.015 491.547 735.461 482.594 735.961Z" fill="#FBF6F3"/>
<path d="M532.969 449.325C504.278 450.841 476.073 452.352 447.521 453.881C450.503 420.22 438.584 392.799 411.375 372.835C384.48 353.103 354.372 349.67 321.624 358.572C322.157 349.214 322.331 340.444 323.211 331.745C326.068 303.503 331.943 275.885 341.297 249.06C348.56 228.232 358.011 208.424 369.535 189.61C373.967 182.375 373.744 182.526 367.3 176.572C354.443 164.692 344.82 150.832 341.438 133.18C333.483 91.6665 373.405 53.5979 413.923 64.3717C427.896 68.0872 438.127 77.3173 446.587 88.64C449.473 92.5024 452.32 96.4542 454.627 100.671C456.812 104.663 459.282 105.201 463.166 103.272C486.448 91.7089 511.129 84.3247 536.625 79.8217C576.929 72.7035 616.797 74.872 656.036 86.805C660.491 88.1599 665.053 89.3206 669.291 91.1932C674.09 93.314 676.377 91.3953 679.029 87.5127C684.917 78.8902 690.406 69.6458 697.826 62.489C714.571 46.3396 734.568 41.481 756.691 50.4828C776.882 58.6987 789.747 82.2546 787.43 103.945C785.658 120.526 778.291 134.395 768.625 147.33C766.104 150.703 766.289 152.853 768.98 155.893C780.591 169.011 790.651 183.254 799.609 199.039C793.274 202.566 787.271 206.007 781.178 209.281C764.745 218.111 748.618 227.614 731.708 235.415C718.801 241.37 713.646 250.195 713.023 264.107C711.6 295.844 709.039 327.531 706.885 359.234C705.284 382.798 703.598 406.357 701.942 429.918C701.513 436.012 701.053 442.104 700.564 448.776C644.602 446.897 589.018 446.569 532.969 449.325ZM555.242 385.805C597.901 402.575 646.801 377.302 655.86 331.945C662.615 298.127 644.303 257.067 614.819 239.024C589.728 223.668 559.593 226.95 538.488 247.452C524.432 261.107 516.121 278.028 511.575 296.818C502.172 335.681 519.026 370.262 555.242 385.805ZM426.329 111.89C418.104 101.059 406.668 96.7624 395.349 100.511C385.345 103.824 379.138 110.887 377.172 121.137C374.863 133.181 379.59 142.923 388.413 150.904C391.024 153.265 392.894 151.625 394.555 149.398C403.087 137.951 413.434 128.388 425.179 120.348C428.492 118.08 429.206 115.715 426.329 111.89ZM752.301 88.801C750.586 87.0121 749.077 84.9516 747.125 83.4776C732.287 72.2739 713.918 81.0685 705.697 96.0077C705.189 96.9307 706.486 99.7132 707.696 100.58C718.742 108.497 730.018 116.092 741.071 123.998C743.613 125.817 745.318 125.807 747.563 123.739C756.749 115.276 759.043 100.365 752.301 88.801ZM480.284 234.89C470.015 241.024 469.491 264.087 477.499 273.575C481.81 278.682 487.167 280.586 493.51 279.243C499.63 277.947 504.004 273.578 504.71 267.802C505.637 260.206 505.978 252.087 504.27 244.727C501.604 233.234 491.452 229.406 480.284 234.89ZM672.421 216.282C664.248 212.803 658.482 214.097 653.366 220.561C646.77 228.895 647.661 248.892 654.977 256.701C661.832 264.019 672.82 263.376 678.07 254.843C684.563 244.293 683.731 233.254 678.378 222.497C677.256 220.241 674.864 218.616 672.421 216.282Z" fill="#A1673C"/>
<path d="M412.315 402.23C420.443 412.563 425.582 423.898 426.535 436.652C427.634 451.357 424.735 464.894 411.781 474.223C406.553 477.988 400.557 479.104 394.226 478.549C389.245 478.112 385.844 475.07 385.121 470.158C384.59 466.551 384.426 462.889 384.124 459.249C383.811 455.47 382.04 452.805 378.098 452.508C374.29 452.222 371.626 454.235 370.884 457.99C370.413 460.373 370.355 462.939 370.653 465.356C371.978 476.101 366.813 483.183 356.574 484.359C343.04 485.913 336.004 480.942 335.087 469.166C334.971 467.673 335.103 466.135 334.797 464.686C334.053 461.167 332.433 458.311 328.236 458.515C324.158 458.712 321.699 461.129 321.283 465.051C320.989 467.819 321.321 470.702 321.715 473.485C322.693 480.407 320.154 484.182 313.252 485.677C302.366 488.034 288.255 481.199 282.313 469.962C271.95 450.367 274.068 430.799 284.896 412.354C298.836 388.607 320.286 376.668 347.761 375.231C373.519 373.884 395.118 382.283 412.315 402.23Z" fill="#A1673C"/>
<path d="M1091.77 346.893C1103.41 382.275 1098.36 414.974 1077.24 444.94C1066.43 460.277 1051.67 469.615 1032.14 469.315C1014.6 469.045 999.532 458.494 994.8 443.47C992.625 436.563 994.356 434.214 1001.44 434.109C1004.24 434.068 1007.15 433.993 1009.79 433.201C1012.99 432.246 1014.58 429.612 1014.06 426.181C1013.55 422.777 1011.39 420.866 1007.98 420.636C1005.15 420.446 1002.31 420.61 999.483 420.453C990.773 419.969 985.988 415.106 985.914 406.502C985.882 402.857 985.976 399.163 986.534 395.572C987.22 391.165 990.12 388.801 994.652 389.269C998.442 389.66 1002.18 390.51 1005.94 391.177C1010.95 392.064 1014.47 390.317 1015.58 386.376C1016.57 382.882 1014.2 379.784 1009.25 378.374C1006.54 377.6 1003.74 377.144 1001 376.446C995.489 375.041 992.735 372.224 994.067 366.796C995.617 360.477 998.158 354.129 1001.61 348.632C1004.63 343.811 1010.3 344.524 1015.29 346.139C1018.29 347.111 1021.17 348.465 1024.11 349.611C1027.73 351.019 1031.03 350.264 1032.59 346.739C1034.23 343.054 1033.31 339.416 1029.5 337.286C1027.2 335.996 1024.64 335.147 1022.18 334.123C1017.37 332.116 1016.51 330.276 1019.32 325.836C1025.3 316.391 1034.31 311.705 1045.28 311.541C1064.67 311.251 1077.62 321.894 1087.22 337.575C1088.96 340.401 1090.17 343.541 1091.77 346.893Z" fill="#A1673C"/>
<path d="M1039.06 238.428C1038.1 255.371 1037.2 272.317 1036.1 289.251C1036.02 290.482 1034.74 292.364 1033.64 292.692C1017.05 297.668 1004.7 307.307 998.181 323.787C997.716 324.961 995.801 325.908 994.378 326.3C986.425 328.496 984.176 331.266 983.85 339.172C983.772 341.066 982.979 342.963 982.333 344.794C979.8 351.979 977.299 359.179 974.548 366.282C973.775 368.278 972.524 370.358 970.913 371.709C966.125 375.722 965.079 379.746 967.366 385.378C968.166 387.349 968.212 389.748 968.124 391.932C967.957 396.075 967.293 400.198 967.116 404.341C966.887 409.67 967.962 414.906 965.155 420.194C962.872 424.496 965.185 428.715 970.579 432.182C973.104 433.804 973.635 435.699 974.234 438.512C976.077 447.168 978.714 455.655 981.32 465.228C964.345 476.146 946.044 487.918 927.394 499.332C927.064 497.641 927.008 496.302 927.11 494.976C928.43 477.796 929.769 460.619 931.111 443.441C931.808 434.519 932.483 425.595 933.24 416.677C934.486 401.993 935.824 387.316 937.057 372.63C937.833 363.382 938.428 354.118 939.21 344.871C940.451 330.186 941.932 315.519 942.979 300.822C943.282 296.564 944.674 293.825 948.443 291.604C970.059 278.868 991.503 265.843 1013.09 253.056C1021.63 247.994 1030.39 243.293 1039.06 238.428Z" fill="#A8764C"/>
<path d="M956.111 212.551C967.514 214.59 978.939 216.519 990.316 218.695C1004.97 221.497 1019.58 224.498 1034.58 227.81C1034.5 228.653 1034.11 229.213 1033.58 229.526C1003.24 247.44 972.933 265.414 942.457 283.1C939.562 284.78 935.633 285.053 932.148 285.222C929.407 285.356 926.609 284.323 923.837 283.807C903.289 279.983 882.74 276.159 862.307 272.027C862.922 271.295 863.376 270.795 863.93 270.458C891.682 253.572 919.471 236.743 947.167 219.765C950.405 217.78 953.142 214.976 956.111 212.551Z" fill="#D8B085"/>
<path d="M862.192 272.334C882.74 276.158 903.289 279.982 923.837 283.806C926.609 284.322 929.407 285.355 932.148 285.222C935.633 285.052 939.562 284.779 942.457 283.099C972.933 265.413 1003.24 247.439 1033.58 229.525C1034.11 229.212 1034.5 228.652 1034.98 227.869C1040.65 229.11 1038.8 233.782 1039.1 237.99C1030.39 243.293 1021.63 247.994 1013.09 253.056C991.503 265.843 970.059 278.869 948.443 291.604C944.674 293.825 943.282 296.564 942.979 300.822C941.932 315.52 940.451 330.186 939.21 344.871C938.428 354.119 937.833 363.382 937.057 372.631C935.824 387.316 934.486 401.993 933.24 416.678C932.483 425.595 931.808 434.519 931.111 443.442C929.768 460.619 928.43 477.797 927.11 494.976C927.008 496.302 927.064 497.641 927.053 499.471C923.659 500.803 920.257 501.639 916.427 502.4C918.407 471.519 920.759 440.709 923.239 409.909C925.838 377.618 928.558 345.337 931.23 313.052C931.559 309.079 931.922 305.108 932.269 301.136C932.634 296.957 930.925 294.735 926.593 293.959C907.633 290.563 888.711 286.955 869.778 283.406C865.208 282.55 860.652 281.627 855.272 280.63C849.246 279.622 844.041 278.689 838.825 277.82C827.911 276.001 816.992 274.216 806.075 272.417C793.753 270.075 781.438 267.697 769.108 265.401C757.573 263.252 746.021 261.19 734.093 258.828C736.584 256.19 739.46 253.814 742.984 251.679C746.101 252.238 748.582 252.476 751.035 252.886C770.687 256.17 790.333 259.486 810.094 262.911C810.207 263.031 810.665 263.151 810.665 263.151C810.665 263.151 811.112 262.976 811.483 262.912C812.602 262.788 813.35 262.728 814.293 262.977C817.008 263.831 819.515 264.436 822.047 264.908C835.426 267.402 848.81 269.862 862.192 272.334Z" fill="#825632"/>
<path d="M809.98 262.791C790.333 259.485 770.687 256.169 751.035 252.885C748.582 252.475 746.101 252.237 743.335 251.65C755.776 244.542 768.478 237.635 781.258 230.877C803.617 219.054 826.048 207.367 848.393 195.518C853.036 193.056 857.66 192.384 862.821 193.461C878.943 196.826 895.111 199.969 911.414 203.604C886.59 218.785 861.578 233.502 836.653 248.367C829.011 252.926 821.609 257.889 814.097 262.667C813.35 262.727 812.602 262.787 811.213 262.784C810.375 262.744 810.178 262.768 809.98 262.791Z" fill="#D8B085"/>
<path d="M814.293 262.977C821.609 257.89 829.011 252.927 836.653 248.369C861.578 233.503 886.59 218.786 911.778 203.76C926.532 206.318 941.078 209.129 955.867 212.245C953.142 214.975 950.406 217.78 947.167 219.765C919.471 236.743 891.682 253.571 863.93 270.457C863.376 270.794 862.922 271.295 862.307 272.027C848.81 269.863 835.426 267.402 822.047 264.909C819.515 264.437 817.008 263.831 814.293 262.977Z" fill="#AB794F"/>
<path d="M944.487 823.977C947.417 831.911 950.198 839.488 952.978 847.064C953.321 847.022 953.663 846.979 954.006 846.936C954.99 836.447 955.979 825.957 956.955 815.467C957.263 812.151 957.446 808.821 957.842 805.516C958.317 801.561 960.546 799.542 964.637 800.004C967.946 800.377 971.243 800.867 974.548 801.285C979.075 801.859 980.97 804.717 980.558 808.934C977.965 835.453 975.254 861.961 972.581 888.472C972.43 889.963 972.227 891.45 972.11 892.943C971.331 902.847 969.749 903.771 960.044 903.269C952.285 902.867 948.262 899.656 945.918 892.134C941.572 878.19 936.196 864.567 930.135 850.763C929.779 853.535 929.348 856.299 929.081 859.079C928.059 869.69 927.102 880.307 926.097 890.92C925.6 896.161 923.591 897.835 918.261 897.54C903.878 896.742 903.185 895.666 904.645 881.36C907.318 855.18 909.708 828.97 912.174 802.769C912.847 795.609 914.991 793.801 922.176 794.657C924.326 794.914 926.464 795.333 928.62 795.448C932.442 795.651 934.714 797.64 935.99 801.136C938.73 808.645 941.55 816.126 944.487 823.977Z" fill="#B77F4F"/>
<path d="M337.272 843.931C337.827 833.391 337.075 822.989 339.327 813.283C344.35 791.626 362.684 780.424 382.341 785.505C393.516 788.394 401.108 795.849 405.617 805.881C414.853 826.433 416.41 847.71 407.984 868.92C402.502 882.72 391.729 890.163 376.753 890.67C361.741 891.178 351.054 883.641 345.051 870.552C341.299 862.37 339.825 853.144 337.272 843.931ZM361.227 825.455C360.472 836.339 360.68 847.111 365.63 857.18C367.96 861.918 371.373 865.648 377.17 865.134C383.07 864.612 386.146 860.52 387.687 855.184C390.593 845.12 389.69 835.04 387.098 825.127C386.152 821.512 384.431 817.896 382.267 814.846C377.56 808.21 369.205 808.462 364.848 815.345C363.123 818.07 362.486 821.484 361.227 825.455Z" fill="#B77F4F"/>
<path d="M820.139 819.664C822.326 814.21 823.948 808.882 826.628 804.152C833.515 791.995 843.983 785.558 858.25 786.273C872.261 786.975 882.083 794.326 888.045 806.567C895.387 821.643 894.866 837.708 891.384 853.514C889.663 861.327 886.568 869.189 882.451 876.041C875.599 887.447 864.706 893.011 851.243 891.99C836.845 890.899 827.185 882.821 821.988 869.664C815.578 853.437 816.203 836.773 820.139 819.664ZM864.637 859.35C870.14 847.408 871.083 834.996 868.112 822.3C866.808 816.725 863.57 812.324 857.462 811.849C851.529 811.387 847.792 815.345 845.674 820.325C840.631 832.181 839.606 844.481 843.176 856.945C844.57 861.813 847.377 865.758 852.902 866.533C858.294 867.29 861.656 864.23 864.637 859.35Z" fill="#B77F4F"/>
<path d="M590.212 815.562C594.691 815.533 598.69 815.485 602.688 815.5C603.844 815.504 605.267 815.29 606.111 815.857C612.316 820.03 609.25 826.418 609.541 831.904C609.745 835.771 607.301 838.022 603.225 838.042C598.061 838.066 592.894 838.166 587.732 838.065C584.985 838.01 583.792 839.002 583.891 841.846C584.443 857.595 581.606 854.357 596.24 854.627C599.737 854.692 603.237 854.581 606.736 854.558C607.402 854.554 608.075 854.527 608.733 854.606C613.851 855.214 614.948 857.649 614.933 868.303C614.923 875.342 613.376 878.257 608.715 878.388C595.229 878.767 581.734 878.949 568.243 878.935C563.135 878.93 561.16 876.384 561.046 870.772C560.635 850.618 560.266 830.464 559.859 810.311C559.691 801.985 559.387 793.66 559.296 785.334C559.217 778.198 561.704 775.699 568.854 775.623C580.848 775.495 592.844 775.413 604.839 775.414C611.103 775.415 613.101 777.504 613.304 783.826C613.802 799.36 613.762 799.397 598.32 799.448C594.488 799.461 590.638 799.315 586.834 799.66C585.566 799.775 583.466 801.106 583.377 802.037C583.016 805.829 582.806 809.788 583.619 813.446C583.865 814.551 587.596 814.881 590.212 815.562Z" fill="#B77F4F"/>
<path d="M642.663 782.976C656.904 771.256 676.142 771.628 689.524 783.458C693.071 786.593 693.971 789.858 691.649 794.011C689.781 797.351 688.065 800.776 686.152 804.088C684.137 807.579 681.395 807.909 678.225 805.573C676.756 804.491 675.393 803.224 673.816 802.334C667.088 798.538 659.696 800.011 656.095 806.769C648.921 820.233 648.463 834.277 655.434 847.934C659.528 855.954 668.226 857.123 675.944 851.598C682.384 846.988 683.701 847.258 687.881 854.049C688.23 854.615 688.56 855.194 688.897 855.768C694.683 865.601 694.027 868.419 684.476 874.741C666.62 886.563 643.374 881.209 634.035 862.153C623.159 839.96 623.581 817.131 633.787 794.703C635.723 790.449 639.481 787.024 642.663 782.976Z" fill="#B77F4F"/>
<path d="M287.791 826.347C283.024 838.952 284.251 851.001 289.691 862.561C294.819 873.461 304.855 875.151 313.718 867.106C318.24 863.001 319.915 863.088 324.003 867.643C324.226 867.891 324.439 868.147 324.655 868.401C333.776 879.088 333.271 883.18 321.787 891.603C306.484 902.828 285.486 900.781 274.567 885.415C258.189 862.366 255.632 836.873 267.39 811.17C276.199 791.913 300.883 786.26 318.17 798.072C323.458 801.685 324.192 803.91 322.029 809.861C321.632 810.955 321.189 812.035 320.732 813.105C316.148 823.839 316.146 823.838 305.503 819.366C298.215 816.303 292.549 818.445 287.791 826.347Z" fill="#B77F4F"/>
<path d="M721.848 844.18C722.325 831.73 722.655 819.747 723.348 807.785C723.559 804.129 722.687 802.343 718.85 802.703C718.521 802.734 718.178 802.723 717.853 802.668C713.783 801.979 707.599 804.63 706.211 799.682C704.639 794.075 705.45 787.602 706.283 781.653C706.502 780.09 710.667 777.928 712.965 777.994C728.597 778.437 744.216 779.362 759.834 780.223C765.191 780.518 767.2 782.813 767.202 788.156C767.202 788.322 767.188 788.489 767.183 788.655C766.684 805.425 767.234 805.738 751.437 804.419C747.992 804.132 747.224 805.737 747.089 808.778C746.146 830.059 745.049 851.332 744.062 872.61C743.709 880.225 741.935 881.899 734.36 881.675C723.58 881.357 719.26 883.169 720.743 867.096C721.431 859.646 721.494 852.138 721.848 844.18Z" fill="#B77F4F"/>
<path d="M495.682 876.335C494.381 852.817 493.213 829.692 492.067 806.565C491.729 799.743 491.334 792.92 491.183 786.092C491.058 780.466 493.257 778.274 498.869 777.875C514.425 776.768 514.666 777.002 515.346 792.691C516.197 812.331 517.16 831.967 517.879 851.612C518.008 855.137 519.038 856.228 522.617 855.903C528.083 855.406 533.611 855.625 539.098 855.298C543.992 855.006 546.268 857.442 546.539 861.983C547.718 881.749 547.102 879.165 531.429 880.059C522.282 880.581 513.114 880.746 503.956 881.108C500.353 881.251 497.322 880.438 495.682 876.335Z" fill="#B77F4F"/>
<path d="M458.126 883.457C451.506 883.856 445.366 884.332 439.216 884.577C433.497 884.805 431.245 882.869 430.836 877.152C428.771 848.281 426.76 819.406 424.832 790.526C424.435 784.579 426.178 782.513 431.971 781.965C448.625 780.391 447.902 780.989 448.828 795.59C450.05 814.851 451.335 834.109 452.325 853.382C452.565 858.059 453.903 859.844 458.865 859.116C464.106 858.346 469.482 858.525 474.794 858.204C478.432 857.984 480.614 859.7 481.045 863.175C481.555 867.296 481.862 871.466 481.882 875.616C481.903 879.983 479.521 882.27 475.04 882.454C469.556 882.68 464.08 883.098 458.126 883.457Z" fill="#B77F4F"/>
<path d="M795.111 884.951C790.9 885.026 787.058 885.201 783.272 884.822C777.987 884.292 775.981 881.874 776.268 876.485C777.267 857.72 778.378 838.961 779.456 820.199C780.009 810.57 780.67 800.946 781.119 791.312C781.481 783.537 783.107 781.883 790.66 782.266C791.823 782.325 792.987 782.366 794.151 782.417C803.926 782.849 805.366 784.4 804.762 794.174C803.131 820.561 801.521 846.95 799.743 873.328C799.465 877.446 800.397 882.276 795.111 884.951Z" fill="#B77F4F"/>
<path d="M220.724 839.739C218.888 845.504 215.164 847.713 209.579 847.358C196.454 846.524 183.313 845.936 170.196 845.003C163.184 844.504 158.672 839.197 159.184 832.709C159.7 826.168 164.895 821.988 172.156 822.656C185.251 823.859 198.331 825.221 211.408 826.603C218.075 827.308 221.172 831.604 220.724 839.739Z" fill="#B77F4F"/>
<path d="M1073.7 824.616C1077.99 828.532 1079.08 832.976 1077.1 837.989C1075.25 842.675 1071.48 844.751 1066.57 845.047C1054.12 845.795 1041.68 846.705 1029.22 847.296C1021.77 847.65 1017.53 844.042 1017.21 837.69C1016.9 831.535 1021.12 827.183 1028.04 826.486C1040.12 825.269 1052.18 823.869 1064.28 822.913C1067.26 822.678 1070.35 823.855 1073.7 824.616Z" fill="#B77F4F"/>
<path d="M222.763 886.182C211.588 891.035 200.788 895.817 189.889 900.36C182.974 903.242 176.705 900.956 174.361 895.069C171.887 888.852 174.924 883.026 182.087 880.194C192.454 876.096 202.796 871.938 213.182 867.889C219.688 865.352 223.903 866.454 226.644 871.193C229.707 876.489 228.438 881.787 222.763 886.182Z" fill="#B77F4F"/>
<path d="M1063.08 892.93C1060.19 900.94 1055.14 903.434 1047.8 900.365C1037.35 895.998 1026.99 891.427 1016.68 886.753C1010.82 884.101 1008.72 878.38 1011.09 872.621C1013.26 867.363 1018.43 865.166 1024.38 867.487C1035.24 871.728 1046.02 876.17 1056.77 880.691C1061.93 882.861 1063.6 887.188 1063.08 892.93Z" fill="#B77F4F"/>
<path d="M426.548 112.193C429.206 115.715 428.492 118.08 425.179 120.348C413.434 128.388 403.087 137.951 394.555 149.398C392.894 151.626 391.024 153.266 388.413 150.904C379.589 142.923 374.863 133.181 377.172 121.138C379.138 110.887 385.345 103.824 395.349 100.511C406.668 96.7627 418.104 101.06 426.548 112.193Z" fill="#271C10"/>
<path d="M752.505 89.1073C759.043 100.365 756.749 115.276 747.563 123.739C745.318 125.807 743.613 125.817 741.071 123.999C730.018 116.092 718.742 108.497 707.696 100.581C706.486 99.7134 705.189 96.9308 705.697 96.0078C713.918 81.0686 732.287 72.274 747.125 83.4777C749.077 84.9517 750.586 87.0122 752.505 89.1073Z" fill="#271C10"/>
<path d="M363.453 594.969C361.644 608.252 354.504 615.699 341.712 617.786C337.287 618.508 332.797 618.827 328.349 619.421C325.437 619.81 324.155 618.813 323.904 615.717C322.736 601.3 321.433 586.893 320.032 572.496C319.677 568.844 320.987 567.29 324.627 567.137C329.274 566.941 333.905 566.177 338.548 566.122C352.838 565.951 361.72 573.936 363.214 588.083C363.44 590.226 363.406 592.396 363.453 594.969Z" fill="#271C10"/>
<path d="M766.203 355.199C765.678 352.129 766.571 350.85 769.379 351.756C772.703 352.828 776.106 353.75 779.28 355.171C782.794 356.744 784.834 355.95 786.101 352.349C786.682 350.697 787.717 349.204 789.026 346.733C794.098 353.573 798.654 359.718 803.209 365.863C803.592 365.741 803.975 365.62 804.359 365.498C803.701 354.235 803.044 342.972 802.327 330.668C805.925 332.155 808.655 333.152 811.264 334.4C813.634 335.534 815.067 335.087 816.565 332.812C820.204 327.284 824.151 321.958 828.626 315.629C829.933 318.334 830.883 320.134 831.68 322.001C832.331 323.526 832.736 325.156 833.359 326.695C834.983 330.703 835.682 335.866 838.624 338.326C841.209 340.487 846.335 339.609 851.229 340.177C848.836 350.449 846.356 361.091 843.558 373.102C850.222 368.369 855.712 364.47 861.596 360.291C862.184 361.903 862.786 363.056 863.022 364.279C864.507 371.963 863.676 371.331 871.461 371.265C875.234 371.233 879.008 371.26 884.144 371.26C881.882 376.859 880.379 381.548 878.138 385.854C875.967 390.027 875.487 393.167 880.407 395.512C881.472 396.019 882.147 397.346 883.493 398.841C878.416 401.849 873.786 404.67 869.08 407.358C864.601 409.917 860.131 412.519 855.494 414.764C851.291 416.798 850.369 419.94 851.26 424.138C851.657 426.012 851.83 427.934 852.269 430.971C841.603 427.859 831.848 425.013 821.556 422.01C820.775 429.976 820.068 437.196 819.36 444.415C819.295 445.078 819.464 445.907 819.128 446.374C817.87 448.123 816.448 449.754 815.088 451.428C813.771 449.519 811.502 447.687 811.341 445.685C811.041 441.945 811.825 438.085 812.403 434.313C814.537 420.393 814.321 420.134 800.384 419.431C794.771 419.147 789.171 418.61 782.613 418.117C784.128 415.126 785.716 412.831 786.429 410.291C786.91 408.578 786.864 405.92 785.841 404.71C778.86 396.461 771.547 388.492 764.371 380.407C763.431 379.348 762.659 378.142 761.26 376.269C771.751 373.717 769.081 366.992 767.273 360.495C766.829 358.899 766.604 357.242 766.203 355.199Z" fill="#AA412D"/>
<path d="M806.104 272.877C816.992 274.216 827.911 276.001 838.825 277.82C844.041 278.689 849.246 279.622 854.9 280.62C854.917 286.672 854.416 292.627 854.083 298.592C853.76 304.384 852.471 305.585 846.746 304.532C834.524 302.286 822.346 299.79 810.1 297.686C806.078 296.995 804.738 294.988 805.006 291.226C805.431 285.266 805.763 279.3 806.104 272.877Z" fill="#AB794E"/>
<path d="M361.29 825.021C362.486 821.485 363.123 818.072 364.848 815.347C369.205 808.463 377.56 808.211 382.267 814.848C384.431 817.898 386.152 821.514 387.098 825.129C389.69 835.042 390.593 845.122 387.687 855.185C386.146 860.522 383.07 864.613 377.17 865.136C371.373 865.649 367.96 861.92 365.63 857.182C360.68 847.113 360.472 836.341 361.29 825.021Z" fill="#271C10"/>
<path d="M810.094 262.911C810.178 262.769 810.375 262.746 810.842 262.849C811.112 262.976 810.665 263.152 810.665 263.152C810.665 263.152 810.207 263.031 810.094 262.911Z" fill="#AB794F"/>
<path d="M864.444 859.667C861.656 864.23 858.294 867.29 852.902 866.533C847.377 865.758 844.57 861.813 843.176 856.945C839.606 844.481 840.631 832.181 845.674 820.325C847.792 815.345 851.529 811.388 857.462 811.849C863.57 812.324 866.808 816.726 868.112 822.3C871.083 834.996 870.14 847.408 864.444 859.667Z" fill="#271C10"/>
<path d="M604.3 391.479C587.005 395.25 570.197 395.49 553.585 390.106C522.854 380.145 503.943 355.779 501.836 323.547C499.612 289.528 520.595 252.694 551.082 237.703C574.071 226.398 597.064 227.108 619.742 238.826C654.918 257.003 674.182 301.442 662.58 338.794C653.673 367.468 632.957 383.71 604.3 391.479ZM561.23 259.676C545.228 268.126 543.613 285.349 558.066 296.368C562.381 299.658 567.356 302.254 572.349 304.432C576.962 306.445 579.031 309.53 579.249 314.337C579.521 320.324 579.895 326.306 580.292 332.286C580.775 339.56 577.34 345.148 570.573 348.061C565.815 350.108 561.171 349.526 556.51 347.702C553.118 346.374 550.022 346.835 548.647 350.515C547.271 354.202 548.831 357.189 552.489 358.532C555.425 359.61 558.541 360.471 561.642 360.78C572.627 361.874 581.237 357.201 587.611 349.547C592.32 351.859 596.434 354.509 600.934 355.952C609.329 358.644 617.429 357.121 624.755 352.229C627.939 350.103 628.908 346.916 626.914 343.536C624.997 340.286 622.051 340.641 619.064 342.165C617.585 342.92 616.099 343.703 614.538 344.25C603.868 347.989 592.795 340.458 593.378 330.181C593.734 323.906 592.816 317.554 592.399 311.241C592.131 307.176 593.693 304.402 597.249 302.197C601.466 299.581 605.698 296.748 609.216 293.289C623.009 279.727 618.562 262.035 600.046 256.665C587.083 252.905 574.336 254.285 561.23 259.676Z" fill="#FBF9F6"/>
<path d="M492.839 281.385C480.73 282.25 474.009 277.883 470.816 266.788C468.476 258.657 468.331 250.326 471.374 242.305C474.667 233.625 481.076 229.428 489.713 229.708C496.921 229.942 503.711 234.866 505.34 243.445C506.823 251.259 507.036 259.601 506.085 267.504C505.262 274.349 500.496 279.446 492.839 281.385Z" fill="#281D11"/>
<path d="M681.979 253.866C677.955 261.547 671.825 264.962 663.709 263.578C656.006 262.265 651.871 256.66 649.603 249.602C646.656 240.427 646.58 231.262 650.577 222.351C653.137 216.646 657.497 213.134 663.926 212.524C670.665 211.885 676.175 214.102 679.672 219.966C686.059 230.677 686.296 241.972 681.979 253.866Z" fill="#281D11"/>
<path d="M561.58 259.533C574.336 254.285 587.083 252.905 600.046 256.665C618.562 262.035 623.009 279.727 609.216 293.289C605.698 296.748 601.466 299.581 597.249 302.197C593.693 304.402 592.131 307.176 592.399 311.241C592.816 317.554 593.734 323.906 593.378 330.181C592.795 340.458 603.868 347.989 614.538 344.25C616.099 343.703 617.585 342.92 619.064 342.165C622.051 340.641 624.997 340.286 626.914 343.536C628.908 346.916 627.939 350.103 624.755 352.229C617.429 357.121 609.329 358.644 600.934 355.952C596.434 354.509 592.32 351.859 587.611 349.547C581.237 357.201 572.627 361.874 561.642 360.78C558.541 360.471 555.425 359.61 552.489 358.532C548.831 357.189 547.271 354.202 548.647 350.515C550.021 346.835 553.118 346.374 556.51 347.702C561.171 349.526 565.815 350.108 570.573 348.061C577.34 345.148 580.775 339.56 580.292 332.286C579.895 326.307 579.521 320.324 579.249 314.337C579.031 309.53 576.962 306.445 572.349 304.432C567.356 302.254 562.381 299.658 558.066 296.368C543.613 285.349 545.228 268.126 561.58 259.533Z" fill="#281D11"/>
</svg>
