<svg width="1162" height="294" viewBox="0 0 1162 294" fill="none" xmlns="http://www.w3.org/2000/svg">
<path d="M1162 23.6978L435.5 27.1978L470 124.198L397.5 216.698C413 211.198 593.5 207.198 593.5 207.198L946.5 211.698C946.5 211.698 1070.5 218.198 1125.5 235.198L1075.5 123.198L1162 23.6978Z" fill="#2D8A00"/>
<path d="M1140 34.6978L451.583 37.9247L481.797 123.357L418 205.641C432.922 200.57 609.693 197.882 609.693 197.882L943.534 202.031C943.534 202.031 1055 206.698 1106.86 220.698L1063.72 122.435L1140 34.6978Z" fill="#0D0D0D"/>
<path d="M1054.8 54.7619C1066.25 54.763 1077.46 54.763 1089.3 54.763C1088.63 55.7301 1088.33 56.3366 1087.88 56.7992C1074.53 70.4961 1061.19 84.1911 1047.81 97.8587C1040.56 105.268 1033.27 112.64 1025.97 119.995C1024.73 121.244 1024.31 122.292 1025.08 124.15C1032.79 142.837 1040.36 161.578 1047.96 180.309C1049.68 184.54 1051.34 188.793 1053.21 193.498C1051.32 193.397 1049.87 193.348 1048.41 193.238C1031.05 191.92 1013.7 190.492 996.325 189.353C992.94 189.131 991.54 187.895 990.407 184.744C985.606 171.385 980.451 158.154 975.409 144.883C975.305 144.609 975.003 144.41 974.605 143.967C974.206 144.557 973.804 144.956 973.63 145.437C968.849 158.627 964.12 171.836 959.26 184.996C958.958 185.815 957.635 186.835 956.826 186.802C941.017 186.157 925.212 185.371 909.408 184.598C909.016 184.579 908.632 184.385 908.069 184.222C909.815 179.416 911.57 174.754 913.206 170.052C919.216 152.777 925.246 135.508 931.152 118.198C935.817 104.529 940.264 90.7853 944.92 77.1131C945.877 74.3028 945.532 71.7096 944.691 69.0364C943.266 64.5077 941.857 59.9738 940.328 55.0777C960.425 55.0777 980.385 55.0777 1000.7 55.0777C995.97 70.753 991.335 86.1184 986.7 101.484C986.895 101.606 987.089 101.728 987.283 101.851C988.126 100.918 988.954 99.971 989.814 99.0534C1003.01 84.9655 1016.22 70.8934 1029.38 56.7776C1030.67 55.3955 1031.99 54.7188 1033.94 54.7495C1040.81 54.8571 1047.68 54.7725 1054.8 54.7619Z" fill="white"/>
<path d="M483.368 172.205C487.618 160.746 491.862 149.493 495.941 138.18C502.683 119.484 509.05 100.647 516.157 82.0935C518.354 76.3599 518.092 71.8525 514.725 66.9467C512.241 63.326 510.334 59.309 507.949 55.0782C529.974 55.0782 551.699 55.0782 573.789 55.0782C573.411 56.1897 573.067 57.162 572.748 58.1421C568.09 72.4444 563.442 86.7501 558.767 101.047C558.344 102.342 558.598 102.939 560.06 102.931C569.103 102.879 578.146 102.824 587.189 102.854C589.336 102.861 589.241 101.126 589.642 99.9361C592.122 92.5707 594.528 85.1793 596.887 77.7737C599.043 71.0047 601.184 64.2286 603.169 57.4085C603.764 55.3623 604.668 54.7049 606.847 54.7225C621.5 54.8411 636.154 54.776 650.807 54.805C653.709 54.8108 653.775 54.9019 652.889 57.5532C644.517 82.5899 636.203 107.646 627.703 132.639C622.348 148.384 616.689 164.025 611.218 179.73C610.682 181.27 609.997 182.039 608.222 182.075C592.988 182.381 577.757 182.782 562.524 183.142C562.139 183.151 561.75 183.005 560.958 182.854C566.494 167.567 571.965 152.46 577.565 136.996C576.565 136.867 575.873 136.695 575.182 136.701C566.306 136.777 557.431 136.949 548.556 136.917C546.599 136.91 546.182 138.009 545.685 139.38C540.9 152.571 536.206 165.797 531.273 178.933C528.8 185.52 530.498 184.128 523.68 184.476C509.383 185.206 495.088 185.961 480.791 186.697C479.993 186.738 479.19 186.703 478 186.703C479.851 181.69 481.57 177.038 483.368 172.205Z" fill="white"/>
<path d="M663.338 181.51C658.944 181.084 654.615 181.279 650.693 180.111C639.382 176.743 635.008 167.782 638.813 156.554C645.649 136.387 652.607 116.263 659.451 96.0989C662.216 87.9556 665.272 79.8684 667.31 71.5389C668.431 66.9589 667.838 61.9263 667.755 57.1023C667.724 55.3041 668.081 54.7796 669.902 54.7845C686.398 54.8293 702.895 54.782 719.391 54.7779C722.727 54.7771 722.725 54.8082 721.668 58.0044C716.237 74.4334 710.851 90.8773 705.362 107.287C701.173 119.81 696.853 132.289 692.594 144.788C690.921 149.695 692.373 151.744 697.562 151.743C702.921 151.743 708.281 151.746 713.639 151.668C719.18 151.587 722.017 149.379 723.766 144.121C731.283 121.513 738.861 98.9263 746.338 76.3057C748.41 70.0353 750.286 63.6964 752.088 57.3423C752.644 55.3836 753.504 54.738 755.571 54.7517C770.81 54.8525 786.051 54.8011 801.291 54.831C804.791 54.8378 804.792 54.8977 803.7 58.176C799.262 71.4944 794.927 84.8484 790.359 98.1223C783.753 117.317 777.215 136.541 770.192 155.585C765.634 167.944 756.102 175.541 743.731 179.263C738.85 180.732 733.532 181.245 728.403 181.305C706.8 181.555 685.194 181.47 663.338 181.51Z" fill="white"/>
<path d="M900.821 165.594C898.751 171.275 896.709 176.759 894.758 182.275C894.257 183.69 893.511 184.152 891.984 184.117C855.735 183.267 819.486 182.474 783.237 181.664C782.511 181.648 781.787 181.555 780.671 181.467C781.99 177.759 783.212 174.34 784.424 170.918C789.775 155.808 795.174 140.715 800.462 125.584C806.825 107.376 813.23 89.1814 819.303 70.8768C820.755 66.4998 821.025 61.719 821.708 57.1046C821.964 55.377 822.613 54.6912 824.447 54.6978C841.111 54.7582 857.776 54.7317 874.441 54.7398C875.169 54.7402 875.897 54.8291 877.247 54.9174C865.826 87.3602 854.528 119.456 843.063 152.025C863.873 152.506 884.378 152.979 905.392 153.465C903.796 157.693 902.339 161.55 900.821 165.594Z" fill="white"/>
<path d="M580.5 231.698L444.5 239.198L578.5 244.698L580.5 231.698Z" fill="#2D8A00"/>
<path d="M933.5 244.698L935.5 231.698L1071 239.698L933.5 244.698Z" fill="#2D8A00"/>
<path d="M901.154 255.698H874.094L880.94 219.698H908L906.491 227.498H889.133L887.893 234.248H902.232L900.723 242.048H886.384L885.306 247.898H902.663L901.154 255.698Z" fill="#2D8A00"/>
<path d="M839.683 256.398C834.534 256.398 830.969 255.364 828.989 253.298C827.621 251.831 826.937 249.781 826.937 247.148C826.937 246.014 827.063 244.798 827.315 243.498L829.529 231.998C831.149 223.564 837.001 219.348 847.083 219.348C851.259 219.348 854.428 220.181 856.588 221.848C858.749 223.481 859.829 225.731 859.829 228.598C859.829 229.931 859.613 231.264 859.181 232.598C858.785 233.898 858.389 234.864 857.993 235.498L857.399 236.498H847.839C849.027 235.231 849.621 233.431 849.621 231.098C849.621 229.864 849.279 228.898 848.595 228.198C847.911 227.464 846.902 227.098 845.57 227.098C841.933 227.098 839.773 228.964 839.089 232.698L837.199 242.798C837.019 243.664 836.929 244.514 836.929 245.348C836.929 247.548 838.351 248.648 841.195 248.648C844.616 248.648 846.668 246.864 847.353 243.298H857.074L856.804 244.748C855.364 252.514 849.657 256.398 839.683 256.398Z" fill="#2D8A00"/>
<path d="M810.097 219.698L803.711 255.698H794.537L800.974 219.698H810.097Z" fill="#2D8A00"/>
<path d="M762.199 246.948L772.47 219.698H783.01L768.253 255.698H750.956L750.523 219.698H761.118L760.956 246.948H762.199Z" fill="#2D8A00"/>
<path d="M721.008 219.698C725.111 219.698 728.025 220.531 729.753 222.198C731.048 223.464 731.696 225.064 731.696 226.998C731.696 227.664 731.624 228.364 731.48 229.098L730.724 232.998C730.292 235.164 729.537 236.914 728.457 238.248C727.414 239.581 726.244 240.531 724.949 241.098L729.861 255.698H718.957L714.423 242.248H711.076L708.863 255.698H698.499L705.355 219.698H721.008ZM717.608 227.498H713.559L712.156 236.198H715.934C717.841 236.198 719.209 235.781 720.037 234.948C720.864 234.081 721.278 232.948 721.278 231.548C721.278 228.848 720.055 227.498 717.608 227.498Z" fill="#2D8A00"/>
<path d="M679.075 255.698H652.014L658.86 219.698H685.921L684.411 227.498H667.054L665.814 234.248H680.153L678.643 242.048H664.305L663.227 247.898H680.584L679.075 255.698Z" fill="#2D8A00"/>
<path d="M613.931 245.448C613.931 247.748 615.657 248.898 619.111 248.898C622.599 248.898 624.344 247.864 624.344 245.798C624.344 244.698 623.751 243.798 622.565 243.098C621.378 242.398 619.931 241.814 618.221 241.348C616.547 240.881 614.855 240.348 613.146 239.748C611.471 239.114 610.041 238.148 608.855 236.848C607.669 235.514 607.076 233.864 607.076 231.898C607.076 223.531 612.71 219.348 623.977 219.348C628.094 219.348 631.199 220.098 633.292 221.598C635.42 223.064 636.484 225.114 636.484 227.748C636.484 228.714 636.344 229.648 636.065 230.548C635.821 231.414 635.559 232.031 635.28 232.398L634.861 232.998H625.6C626.367 232.231 626.751 231.264 626.751 230.098C626.751 227.931 625.268 226.848 622.303 226.848C618.57 226.848 616.704 227.981 616.704 230.248C616.704 231.381 617.297 232.281 618.483 232.948C619.669 233.614 621.099 234.148 622.774 234.548C624.483 234.914 626.193 235.381 627.902 235.948C629.611 236.514 631.059 237.464 632.245 238.798C633.431 240.098 634.024 241.798 634.024 243.898C634.024 248.131 632.699 251.281 630.047 253.348C627.396 255.381 623.315 256.398 617.803 256.398C612.291 256.398 608.523 255.464 606.5 253.598C605 252.198 604.25 250.264 604.25 247.798C604.25 246.864 604.355 245.848 604.564 244.748L604.721 243.948H614.14L614.035 244.548C613.965 244.881 613.931 245.181 613.931 245.448Z" fill="#2D8A00"/>
<path d="M265 65.6976L122.5 90.6976L259.5 82.1976L265 65.6976Z" fill="#2D8A00"/>
<path d="M253.5 103.698L44 139.198L247.5 127.698L253.5 103.698Z" fill="#2D8A00"/>
<path d="M228 152.198L0 193.198L199 177.698L228 152.198Z" fill="#2D8A00"/>
<path d="M170 202.198L51 223.698L149 221.198L170 202.198Z" fill="#2D8A00"/>
<path d="M370 1.69761C362 6.69761 350 17.1976 346.5 23.1976C346.5 23.1976 346 24.1978 346.5 24.6976C347 25.1975 368 49.6976 368 49.6976C368 49.6976 369 50.6978 370 49.6976C370 49.6976 391.5 34.6978 398 23.1976C398 23.1976 400 18.1978 398 16.1976C398 16.1976 386 4.1977 376.5 0.197612C376.5 0.197612 374 -0.802634 370 1.69761Z" fill="#2D8A00"/>
<path d="M386 103.198C385.5 104.698 385 106.698 386 108.698C387.5 112.698 395 123.698 399 127.198C400.5 128.51 403 128.198 404.5 127.198C408 125.198 443.5 99.6978 449.5 92.1979C450.5 90.6978 450.5 87.6978 449.5 85.1979C449.5 85.1979 442 70.6978 435 64.6979C434.5 64.1978 432 63.1982 430 64.6979C430 64.6979 401 87.6979 386 103.198Z" fill="#2D8A00"/>
<path d="M411 27.6979C411 27.6979 408 25.6981 404.5 27.6979C404.5 27.6979 385.5 45.1979 375.5 55.6979C374.5 57.1979 374 58.1979 375.5 59.6979C377.921 63.1979 383.5 70.6978 384.5 74.1979C384.881 76.7076 384.768 78.6978 384.5 80.6979C384 81.6978 377.5 87.1978 376 89.6979C376.5 90.6978 380.335 93.1572 383.5 94.6979C385.5 93.6978 423.5 61.6978 430 54.1979C430.5 53.6978 431.5 50.1978 430 47.6979C430 47.6979 418.5 32.1978 411 27.6979Z" fill="#2D8A00"/>
<path d="M405 136.198C404 138.198 405 139.698 405 139.698C405 139.698 411.5 154.198 415 155.698C416 156.198 419 156.198 421 155.698C424 154.698 454 130.698 457 127.698C458 126.698 457.334 123.714 457 121.198C455.5 115.198 450 106.198 448 105.198C446.5 103.698 444 105.198 444 105.198C444 105.198 406 132.698 405 136.198Z" fill="#2D8A00"/>
<path d="M251 239.198H154.5C154.5 239.198 252.5 150.698 260.5 145.198C263 131.698 272 87.1978 286 51.6977C296.5 42.1978 302.5 37.1978 314.5 29.1977C318.86 26.795 321 25.1978 326 23.6977C327.927 23.1978 331 21.6979 335 23.6977C337 24.1979 368.5 56.6977 376 72.1977C376 72.1977 376.5 75.6977 375 77.1977C373.5 78.6977 361.5 89.6977 358 90.1977C358 90.1977 354 91.6977 350.5 89.1977C343.5 84.1977 339.5 82.1977 328.5 70.1977C328.5 70.1977 325 72.1977 319.5 73.1977C319.5 73.1977 367.5 106.698 333.5 169.698C333.5 169.698 338 168.198 347 155.198C361 131.698 351.5 103.698 351.5 103.698C351.5 103.698 356 104.198 359 103.698C361.783 102.943 362.5 102.698 365.5 100.198C377 108.198 400.5 146.698 410 161.698L410.053 161.737C412.012 163.207 412.684 163.711 416 163.698C419.5 163.198 424.5 160.698 424.5 160.698L355 239.198H287.5C287.5 239.198 337.5 200.198 347 194.698C348 194.198 348 192.198 347 192.198L251 239.198Z" fill="#2D8A00"/>
<path d="M557.864 293.998C556.481 293.998 555.206 293.781 554.039 293.348C552.889 292.898 551.881 292.265 551.014 291.448C550.164 290.631 549.497 289.673 549.014 288.573C548.547 287.473 548.314 286.265 548.314 284.948C548.314 283.631 548.547 282.423 549.014 281.323C549.497 280.223 550.172 279.265 551.039 278.448C551.906 277.631 552.922 277.006 554.089 276.573C555.256 276.123 556.539 275.898 557.939 275.898C559.489 275.898 560.881 276.156 562.114 276.673C563.364 277.19 564.414 277.94 565.264 278.923L562.664 281.323C562.031 280.656 561.339 280.165 560.589 279.848C559.839 279.515 559.022 279.348 558.139 279.348C557.289 279.348 556.514 279.481 555.814 279.748C555.114 280.015 554.506 280.398 553.989 280.898C553.489 281.398 553.097 281.99 552.814 282.673C552.547 283.356 552.414 284.115 552.414 284.948C552.414 285.765 552.547 286.515 552.814 287.198C553.097 287.881 553.489 288.481 553.989 288.998C554.506 289.498 555.106 289.881 555.789 290.148C556.489 290.415 557.256 290.548 558.089 290.548C558.889 290.548 559.664 290.423 560.414 290.173C561.181 289.906 561.922 289.465 562.639 288.848L564.939 291.773C563.989 292.49 562.881 293.04 561.614 293.423C560.364 293.806 559.114 293.998 557.864 293.998ZM564.939 291.773L561.239 291.248V284.673H564.939V291.773Z" fill="#0D0D0D"/>
<path d="M525.973 293.698V276.198H529.323L539.648 288.798H538.023V276.198H542.023V293.698H538.698L528.348 281.098H529.973V293.698H525.973Z" fill="#0D0D0D"/>
<path d="M514.52 293.698V276.198H518.57V293.698H514.52Z" fill="#0D0D0D"/>
<path d="M498.234 293.698L490.684 276.198H495.059L501.659 291.698H499.084L505.784 276.198H509.809L502.234 293.698H498.234Z" fill="#0D0D0D"/>
<path d="M477.702 293.998C476.319 293.998 475.035 293.773 473.852 293.323C472.685 292.873 471.669 292.24 470.802 291.423C469.952 290.606 469.285 289.648 468.802 288.548C468.335 287.448 468.102 286.248 468.102 284.948C468.102 283.648 468.335 282.448 468.802 281.348C469.285 280.248 469.96 279.29 470.827 278.473C471.694 277.656 472.71 277.023 473.877 276.573C475.044 276.123 476.31 275.898 477.677 275.898C479.06 275.898 480.327 276.123 481.477 276.573C482.644 277.023 483.652 277.656 484.502 278.473C485.369 279.29 486.044 280.248 486.527 281.348C487.01 282.431 487.252 283.631 487.252 284.948C487.252 286.248 487.01 287.456 486.527 288.573C486.044 289.673 485.369 290.631 484.502 291.448C483.652 292.248 482.644 292.873 481.477 293.323C480.327 293.773 479.069 293.998 477.702 293.998ZM477.677 290.548C478.46 290.548 479.177 290.415 479.827 290.148C480.494 289.881 481.077 289.498 481.577 288.998C482.077 288.498 482.46 287.906 482.727 287.223C483.01 286.54 483.152 285.781 483.152 284.948C483.152 284.115 483.01 283.356 482.727 282.673C482.46 281.99 482.077 281.398 481.577 280.898C481.094 280.398 480.519 280.015 479.852 279.748C479.185 279.481 478.46 279.348 477.677 279.348C476.894 279.348 476.169 279.481 475.502 279.748C474.852 280.015 474.277 280.398 473.777 280.898C473.277 281.398 472.885 281.99 472.602 282.673C472.335 283.356 472.202 284.115 472.202 284.948C472.202 285.765 472.335 286.523 472.602 287.223C472.885 287.906 473.269 288.498 473.752 288.998C474.252 289.498 474.835 289.881 475.502 290.148C476.169 290.415 476.894 290.548 477.677 290.548Z" fill="#0D0D0D"/>
<path d="M442.075 293.698V276.198H445.425L452.875 288.548H451.1L458.425 276.198H461.75L461.8 293.698H458L457.975 282.023H458.675L452.825 291.848H451L445.025 282.023H445.875V293.698H442.075Z" fill="#0D0D0D"/>
<path d="M850.235 293.698V276.198H854.285V290.398H863.06V293.698H850.235Z" fill="#0D0D0D"/>
<path d="M825.544 293.698L833.344 276.198H837.344L845.169 293.698H840.919L834.519 278.248H836.119L829.694 293.698H825.544ZM829.444 289.948L830.519 286.873H839.519L840.619 289.948H829.444Z" fill="#0D0D0D"/>
<path d="M812.144 293.698L804.594 276.198H808.969L815.569 291.698H812.994L819.694 276.198H823.719L816.144 293.698H812.144Z" fill="#0D0D0D"/>
<path d="M791.612 293.998C790.229 293.998 788.946 293.773 787.762 293.323C786.596 292.873 785.579 292.24 784.712 291.423C783.862 290.606 783.196 289.648 782.712 288.548C782.246 287.448 782.012 286.248 782.012 284.948C782.012 283.648 782.246 282.448 782.712 281.348C783.196 280.248 783.871 279.29 784.737 278.473C785.604 277.656 786.621 277.023 787.787 276.573C788.954 276.123 790.221 275.898 791.587 275.898C792.971 275.898 794.237 276.123 795.387 276.573C796.554 277.023 797.562 277.656 798.412 278.473C799.279 279.29 799.954 280.248 800.437 281.348C800.921 282.431 801.162 283.631 801.162 284.948C801.162 286.248 800.921 287.456 800.437 288.573C799.954 289.673 799.279 290.631 798.412 291.448C797.562 292.248 796.554 292.873 795.387 293.323C794.237 293.773 792.979 293.998 791.612 293.998ZM791.587 290.548C792.371 290.548 793.087 290.415 793.737 290.148C794.404 289.881 794.987 289.498 795.487 288.998C795.987 288.498 796.371 287.906 796.637 287.223C796.921 286.54 797.062 285.781 797.062 284.948C797.062 284.115 796.921 283.356 796.637 282.673C796.371 281.99 795.987 281.398 795.487 280.898C795.004 280.398 794.429 280.015 793.762 279.748C793.096 279.481 792.371 279.348 791.587 279.348C790.804 279.348 790.079 279.481 789.412 279.748C788.762 280.015 788.187 280.398 787.687 280.898C787.187 281.398 786.796 281.99 786.512 282.673C786.246 283.356 786.112 284.115 786.112 284.948C786.112 285.765 786.246 286.523 786.512 287.223C786.796 287.906 787.179 288.498 787.662 288.998C788.162 289.498 788.746 289.881 789.412 290.148C790.079 290.415 790.804 290.548 791.587 290.548Z" fill="#0D0D0D"/>
<path d="M755.985 293.698V276.198H759.335L766.785 288.548H765.01L772.335 276.198H775.66L775.71 293.698H771.91L771.885 282.023H772.585L766.735 291.848H764.91L758.935 282.023H759.785V293.698H755.985Z" fill="#0D0D0D"/>
<path d="M735.963 293.698V276.198H749.188V279.448H739.988V290.448H749.513V293.698H735.963ZM739.688 286.398V283.248H748.113V286.398H739.688Z" fill="#0D0D0D"/>
<path d="M714.329 293.698V276.198H721.804C724.237 276.198 726.129 276.764 727.479 277.898C728.829 279.014 729.504 280.564 729.504 282.548C729.504 283.848 729.196 284.973 728.579 285.923C727.962 286.856 727.087 287.573 725.954 288.073C724.821 288.573 723.471 288.823 721.904 288.823H716.579L718.379 287.048V293.698H714.329ZM725.454 293.698L721.079 287.348H725.404L729.829 293.698H725.454ZM718.379 287.498L716.579 285.598H721.679C722.929 285.598 723.862 285.331 724.479 284.798C725.096 284.248 725.404 283.498 725.404 282.548C725.404 281.581 725.096 280.831 724.479 280.298C723.862 279.764 722.929 279.498 721.679 279.498H716.579L718.379 277.573V287.498Z" fill="#0D0D0D"/>
<path d="M685.868 289.698L685.643 285.023L694.018 276.198H698.518L690.968 284.323L688.718 286.723L685.868 289.698ZM682.243 293.698V276.198H686.268V293.698H682.243ZM694.218 293.698L687.993 286.073L690.643 283.198L698.943 293.698H694.218Z" fill="#0D0D0D"/>
<path d="M658.802 293.698V276.198H662.152L672.477 288.798H670.852V276.198H674.852V293.698H671.527L661.177 281.098H662.802V293.698H658.802Z" fill="#0D0D0D"/>
<path d="M643.625 293.998C641.142 293.998 639.2 293.306 637.8 291.923C636.4 290.539 635.7 288.564 635.7 285.998V276.198H639.75V285.848C639.75 287.514 640.092 288.714 640.775 289.448C641.459 290.181 642.417 290.548 643.65 290.548C644.884 290.548 645.842 290.181 646.525 289.448C647.209 288.714 647.55 287.514 647.55 285.848V276.198H651.55V285.998C651.55 288.564 650.85 290.539 649.45 291.923C648.05 293.306 646.109 293.998 643.625 293.998Z" fill="#0D0D0D"/>
<path d="M622.3 293.998C621.117 293.998 620.025 293.781 619.025 293.348C618.042 292.898 617.233 292.264 616.6 291.448L618.85 288.748C619.333 289.381 619.842 289.864 620.375 290.198C620.908 290.514 621.483 290.673 622.1 290.673C623.75 290.673 624.575 289.706 624.575 287.773V279.448H618.425V276.198H628.6V287.548C628.6 289.714 628.067 291.331 627 292.398C625.933 293.464 624.367 293.998 622.3 293.998Z" fill="#0D0D0D"/>
<path d="M1064.95 293.998C1063.57 293.998 1062.29 293.781 1061.13 293.348C1059.98 292.898 1058.97 292.265 1058.1 291.448C1057.25 290.631 1056.58 289.673 1056.1 288.573C1055.63 287.473 1055.4 286.265 1055.4 284.948C1055.4 283.631 1055.63 282.423 1056.1 281.323C1056.58 280.223 1057.26 279.265 1058.13 278.448C1058.99 277.631 1060.01 277.006 1061.18 276.573C1062.34 276.123 1063.63 275.898 1065.03 275.898C1066.58 275.898 1067.97 276.156 1069.2 276.673C1070.45 277.19 1071.5 277.94 1072.35 278.923L1069.75 281.323C1069.12 280.656 1068.43 280.165 1067.68 279.848C1066.93 279.515 1066.11 279.348 1065.23 279.348C1064.38 279.348 1063.6 279.481 1062.9 279.748C1062.2 280.015 1061.59 280.398 1061.08 280.898C1060.58 281.398 1060.18 281.99 1059.9 282.673C1059.63 283.356 1059.5 284.115 1059.5 284.948C1059.5 285.765 1059.63 286.515 1059.9 287.198C1060.18 287.881 1060.58 288.481 1061.08 288.998C1061.59 289.498 1062.19 289.881 1062.88 290.148C1063.58 290.415 1064.34 290.548 1065.18 290.548C1065.98 290.548 1066.75 290.423 1067.5 290.173C1068.27 289.906 1069.01 289.465 1069.73 288.848L1072.03 291.773C1071.08 292.49 1069.97 293.04 1068.7 293.423C1067.45 293.806 1066.2 293.998 1064.95 293.998ZM1072.03 291.773L1068.33 291.248V284.673H1072.03V291.773Z" fill="#0D0D0D"/>
<path d="M1033.06 293.698V276.198H1036.41L1046.74 288.798H1045.11V276.198H1049.11V293.698H1045.79L1035.44 281.098H1037.06V293.698H1033.06Z" fill="#0D0D0D"/>
<path d="M1021.61 293.698V276.198H1025.66V293.698H1021.61Z" fill="#0D0D0D"/>
<path d="M998.167 293.698V276.198H1001.52L1011.84 288.798H1010.22V276.198H1014.22V293.698H1010.89L1000.54 281.098H1002.17V293.698H998.167Z" fill="#0D0D0D"/>
<path d="M973.476 293.698L981.276 276.198H985.276L993.101 293.698H988.851L982.451 278.248H984.051L977.626 293.698H973.476ZM977.376 289.948L978.451 286.873H987.451L988.551 289.948H977.376Z" fill="#0D0D0D"/>
<path d="M955.754 293.698V276.198H968.979V279.448H959.779V290.448H969.304V293.698H955.754ZM959.479 286.398V283.248H967.904V286.398H959.479Z" fill="#0D0D0D"/>
<path d="M937.416 293.698V276.198H941.466V290.398H950.241V293.698H937.416Z" fill="#0D0D0D"/>
<path d="M924.45 293.998C923.1 293.998 921.842 293.781 920.675 293.348C919.525 292.898 918.525 292.265 917.675 291.448C916.825 290.631 916.158 289.673 915.675 288.573C915.208 287.473 914.975 286.265 914.975 284.948C914.975 283.631 915.208 282.423 915.675 281.323C916.158 280.223 916.825 279.265 917.675 278.448C918.542 277.631 919.55 277.006 920.7 276.573C921.85 276.123 923.108 275.898 924.475 275.898C925.992 275.898 927.358 276.165 928.575 276.698C929.808 277.215 930.842 277.981 931.675 278.998L929.075 281.398C928.475 280.715 927.808 280.206 927.075 279.873C926.342 279.523 925.542 279.348 924.675 279.348C923.858 279.348 923.108 279.481 922.425 279.748C921.742 280.015 921.15 280.398 920.65 280.898C920.15 281.398 919.758 281.99 919.475 282.673C919.208 283.356 919.075 284.115 919.075 284.948C919.075 285.781 919.208 286.54 919.475 287.223C919.758 287.906 920.15 288.498 920.65 288.998C921.15 289.498 921.742 289.881 922.425 290.148C923.108 290.415 923.858 290.548 924.675 290.548C925.542 290.548 926.342 290.381 927.075 290.048C927.808 289.698 928.475 289.173 929.075 288.473L931.675 290.873C930.842 291.89 929.808 292.665 928.575 293.198C927.358 293.731 925.983 293.998 924.45 293.998Z" fill="#0D0D0D"/>
<circle cx="592" cy="285.698" r="4" fill="#2D8A00"/>
<circle cx="889" cy="285.698" r="4" fill="#2D8A00"/>
</svg>
