<svg width="782" height="622" viewBox="0 0 782 622" fill="none" xmlns="http://www.w3.org/2000/svg">
<path d="M781.5 291C526 329.5 263.5 331.5 21 294L46.5 348.5L0 541C255 483.5 569 500.5 749 539.5L725 419L781.5 291Z" fill="#2D8A00"/>
<path d="M761 307C518.087 340.418 272.519 342.154 41.9655 309.604L60 347.5L16.5 523.5C258.938 473.59 562.969 488.846 734.101 522.698L712.283 418.104L761 307Z" fill="#0D0D0D"/>
<path d="M65.5521 465.5C62.3947 476.778 59.2541 488.06 55.9309 499.966L116.5 492.5C120.734 477.732 127.015 451.513 131.212 437.155C131.56 435.964 132.798 434.192 133.714 434.135C144.791 433.437 155.885 433.01 167.58 432.486L151.785 488.092C169.916 486.383 187.292 484.622 204.696 483.217C207.858 482.962 208.862 481.717 209.642 479.006C219.513 444.674 229.475 410.368 239.423 376.058C242.041 367.028 244.688 358.006 247.43 348.61L191.188 345.093C186.969 360.618 182.946 375.737 178.661 390.781C178.149 392.581 176.262 395.302 174.932 395.349C164.319 395.725 153.688 395.559 142.32 395.559L156.917 342.63L80.1612 334.593C84.4749 342.072 88.3228 349.03 92.4694 355.805C94.3455 358.87 94.709 361.686 93.7207 365.172C84.247 398.591 74.9173 432.051 65.5521 465.5Z" fill="white"/>
<path d="M577.075 484.948C563.038 483.784 549.455 482.652 535.237 481.468C535.828 479.355 536.32 477.5 536.866 475.661C547.124 441.078 557.248 406.455 567.778 371.955C569.711 365.62 569.556 359.99 566.847 354.15C565.737 351.755 564.949 349.211 563.763 346.07C585.232 344.471 606.329 342.9 628.036 341.284C623.893 357.546 619.907 373.193 615.921 388.84C616.237 389.067 616.554 389.293 616.87 389.52C618.462 388.015 620.204 386.64 621.621 384.985C634.083 370.441 646.418 355.787 658.999 341.346C660.536 339.581 663.2 338.099 665.506 337.814C684.51 335.464 703.553 333.428 723.559 331.188C719.208 336.511 715.345 341.366 711.347 346.107C693.845 366.861 676.376 387.643 658.692 408.242C656.246 411.09 656.094 413.242 657.408 416.561C667.187 441.267 676.774 466.049 686.382 490.823C687.268 493.11 687.874 495.506 688.869 498.676C677.546 496.968 666.899 495.322 656.24 493.764C647.017 492.417 637.795 491.046 628.541 489.954C625.828 489.633 624.645 488.664 623.687 486.055C617.893 470.28 611.841 454.599 605.86 438.892C605.589 438.181 605.174 437.525 603.605 436.695C598.813 453.053 594.021 469.411 589.152 486.032C585.102 485.665 581.316 485.323 577.075 484.948Z" fill="white"/>
<path d="M413 351.205C405.25 376.986 397.213 406.29 389.477 432.075C388.187 436.374 387.027 440.711 385.739 445.01C379.991 464.19 364.594 476.032 344.504 476.805C318.543 477.805 292.585 478.925 266.618 479.755C262.54 479.885 258.271 479.266 254.348 478.115C241.847 474.451 236.439 464.821 239.888 452.271C247.594 424.229 255.647 396.282 263.268 368.217C264.882 362.275 265.283 357.5 265.283 349.36C283.883 349.946 304.458 350.562 324.721 351.199C322.056 360.134 319.495 368.701 316.947 377.272C311.11 396.908 305.279 416.546 299.446 436.184C297.176 443.828 298.625 445.713 306.785 445.558C312.282 445.454 317.778 445.284 323.27 445.053C328.019 444.854 331.581 442.927 332.981 438.019C340.738 410.832 349.508 378.648 357.958 351.205H375.5C388.926 351.003 399.572 351.293 413 351.205Z" fill="white"/>
<path d="M457.487 350.522C468.877 350.511 479.797 350.511 491.056 350.511C481.591 381.249 471.972 412.486 462.168 444.321C484.812 445.188 506.908 446.033 529.512 446.898C529.156 448.525 528.944 449.897 528.553 451.217C526.001 459.826 523.529 468.463 520.715 476.987C520.26 478.367 518.201 480.227 516.938 480.186C477.645 478.91 438.359 477.426 399.072 475.958C398.776 475.947 398.487 475.719 397.842 475.44C409.523 436.019 432.233 360 432.233 360C433.5 357 434 353 432.853 350.532C432.853 350.532 449.242 350.532 457.487 350.522Z" fill="white"/>
<path d="M180 547.5L45 556.37L178.5 563L180 547.5Z" fill="#2D8A00"/>
<path d="M592 563.5L593.5 547.5L698.5 557L592 563.5Z" fill="#2D8A00"/>
<path d="M560.136 575.05H528.212L536.289 532.05H568.212L566.432 541.366H545.955L544.492 549.429H561.408L559.627 558.746H542.712L541.44 565.733H561.917L560.136 575.05Z" fill="#2D8A00"/>
<path d="M487.326 576.05C481.221 576.05 476.994 574.823 474.646 572.368C473.024 570.627 472.212 568.192 472.212 565.065C472.212 563.719 472.362 562.274 472.661 560.73L475.286 547.073C477.207 537.057 484.145 532.05 496.099 532.05C501.051 532.05 504.808 533.039 507.37 535.019C509.932 536.958 511.212 539.631 511.212 543.035C511.212 544.618 510.956 546.202 510.444 547.785C509.974 549.329 509.505 550.477 509.035 551.229L508.331 552.417H496.996C498.405 550.913 499.109 548.775 499.109 546.004C499.109 544.539 498.703 543.391 497.892 542.56C497.081 541.689 495.886 541.254 494.306 541.254C489.994 541.254 487.432 543.47 486.621 547.904L484.38 559.899C484.166 560.928 484.06 561.937 484.06 562.927C484.06 565.54 485.746 566.846 489.119 566.846C493.175 566.846 495.608 564.728 496.419 560.492H507.946L507.626 562.214C505.918 571.438 499.152 576.05 487.326 576.05Z" fill="#2D8A00"/>
<path d="M452.212 532.05L444.414 575.05H433.212L441.072 532.05H452.212Z" fill="#2D8A00"/>
<path d="M395.229 564.598L407.558 532.05H420.212L402.497 575.05H381.732L381.212 532.05H393.931L393.737 564.598H395.229Z" fill="#2D8A00"/>
<path d="M346.334 532.05C351.277 532.05 354.79 533.045 356.871 535.036C358.432 536.549 359.212 538.46 359.212 540.769C359.212 541.566 359.126 542.402 358.952 543.278L358.042 547.936C357.521 550.524 356.611 552.614 355.31 554.207C354.053 555.799 352.643 556.934 351.082 557.611L357.001 575.05H343.863L338.399 558.985H334.367L331.7 575.05H319.212L327.473 532.05H346.334ZM342.237 541.366H337.359L335.668 551.758H340.221C342.519 551.758 344.166 551.26 345.164 550.265C346.161 549.23 346.66 547.876 346.66 546.204C346.66 542.979 345.185 541.366 342.237 541.366Z" fill="#2D8A00"/>
<path d="M296.136 575.05H264.212L272.289 532.05H304.212L302.432 541.366H281.955L280.492 549.429H297.408L295.627 558.746H278.712L277.44 565.733H297.917L296.136 575.05Z" fill="#2D8A00"/>
<path d="M218.925 563.046C218.925 565.777 221.014 567.143 225.193 567.143C229.414 567.143 231.524 565.916 231.524 563.461C231.524 562.155 230.806 561.086 229.371 560.255C227.936 559.424 226.185 558.731 224.117 558.177C222.091 557.622 220.043 556.989 217.975 556.277C215.949 555.524 214.219 554.376 212.784 552.833C211.349 551.249 210.631 549.29 210.631 546.954C210.631 537.018 217.448 532.05 231.081 532.05C236.061 532.05 239.818 532.94 242.35 534.722C244.925 536.464 246.212 538.898 246.212 542.026C246.212 543.174 246.043 544.282 245.706 545.351C245.41 546.38 245.094 547.112 244.756 547.548L244.25 548.26H233.043C233.972 547.35 234.436 546.202 234.436 544.816C234.436 542.243 232.642 540.957 229.055 540.957C224.539 540.957 222.28 542.303 222.28 544.994C222.28 546.34 222.998 547.409 224.433 548.201C225.868 548.993 227.599 549.626 229.625 550.101C231.693 550.537 233.761 551.091 235.829 551.764C237.897 552.437 239.649 553.565 241.084 555.148C242.519 556.692 243.237 558.711 243.237 561.205C243.237 566.232 241.633 569.973 238.425 572.428C235.217 574.842 230.279 576.05 223.61 576.05C216.941 576.05 212.383 574.941 209.935 572.725C208.12 571.062 207.212 568.766 207.212 565.837C207.212 564.728 207.339 563.521 207.592 562.214L207.782 561.264H219.178L219.052 561.977C218.967 562.373 218.925 562.729 218.925 563.046Z" fill="#2D8A00"/>
<path d="M398.628 88.1658L207.394 121.716L391.247 110.309L398.628 88.1658Z" fill="#2D8A00"/>
<path d="M383.195 139.162L102.048 186.802L375.143 171.369L383.195 139.162Z" fill="#2D8A00"/>
<path d="M348.975 204.248L43 259.27L310.057 238.469L348.975 204.248Z" fill="#2D8A00"/>
<path d="M271.139 271.348L111.442 300.201L242.957 296.846L271.139 271.348Z" fill="#2D8A00"/>
<path d="M539.538 2.27818C528.802 8.98815 512.698 23.0791 508.001 31.131C508.001 31.131 507.33 32.4732 508.001 33.144C508.672 33.8148 536.854 66.6939 536.854 66.6939C536.854 66.6939 538.196 68.0361 539.538 66.6939C539.538 66.6939 568.39 46.5642 577.113 31.131C577.113 31.131 579.797 24.4213 577.113 21.7371C577.113 21.7371 561.009 5.63329 548.261 0.265194C548.261 0.265194 544.906 -1.07713 539.538 2.27818Z" fill="#2D8A00"/>
<path d="M561.009 138.491C560.338 140.504 559.667 143.188 561.009 145.872C563.022 151.24 573.087 166.001 578.455 170.699C580.468 172.46 583.823 172.041 585.836 170.699C590.533 168.015 638.174 133.794 646.226 123.729C647.568 121.716 647.568 117.69 646.226 114.335C646.226 114.335 636.161 94.8761 626.767 86.8243C626.096 86.1531 622.741 84.8117 620.057 86.8243C620.057 86.8243 581.139 117.69 561.009 138.491Z" fill="#2D8A00"/>
<path d="M594.559 37.1703C594.559 37.1703 590.533 34.4866 585.836 37.1703C585.836 37.1703 560.339 60.6552 546.919 74.7461C545.577 76.7591 544.906 78.1011 546.919 80.1141C550.167 84.8111 557.655 94.8759 558.997 99.573C559.508 102.941 559.356 105.612 558.997 108.296C558.326 109.638 549.603 117.019 547.59 120.374C548.261 121.716 553.407 125.016 557.655 127.084C560.339 125.742 611.334 82.7979 620.057 72.7332C620.728 72.062 622.07 67.365 620.057 64.0102C620.057 64.0102 604.624 43.2091 594.559 37.1703Z" fill="#2D8A00"/>
<path d="M586.507 182.777C585.165 185.461 586.507 187.474 586.507 187.474C586.507 187.474 595.23 206.932 599.927 208.946C601.269 209.616 605.295 209.617 607.979 208.946C612.005 207.604 652.265 175.396 656.291 171.37C657.633 170.028 656.739 166.024 656.291 162.647C654.278 154.595 646.897 142.517 644.213 141.175C642.2 139.162 638.845 141.175 638.845 141.175C638.845 141.175 587.849 178.08 586.507 182.777Z" fill="#2D8A00"/>
<path d="M379.84 321.002H250.338C250.338 321.002 381.853 202.235 392.589 194.854C395.944 176.738 408.022 117.019 426.81 69.378C440.901 56.6291 448.953 49.9191 465.057 39.1831C470.908 35.9587 473.78 33.8153 480.49 31.8022C483.075 31.1312 487.2 29.1184 492.568 31.8022C495.252 32.4734 537.525 76.088 547.59 96.8889C547.59 96.8889 548.261 101.586 546.248 103.599C544.235 105.612 528.131 120.374 523.434 121.045C523.434 121.045 518.066 123.058 513.369 119.703C503.975 112.993 498.607 110.309 483.845 94.2049C483.845 94.2049 479.148 96.8889 471.767 98.2308C471.767 98.2308 536.183 143.188 490.555 227.733C490.555 227.733 496.594 225.72 508.672 208.274C527.46 176.737 514.711 139.162 514.711 139.162C514.711 139.162 520.75 139.833 524.776 139.162C528.51 138.149 529.473 137.82 533.499 134.465C548.932 145.201 580.468 196.867 593.217 216.997L593.288 217.05C595.917 219.022 596.82 219.699 601.269 219.681C605.966 219.01 612.676 215.655 612.676 215.655L519.408 321.002H428.823C428.823 321.002 495.923 268.664 508.672 261.283C510.014 260.612 510.014 257.928 508.672 257.928L379.84 321.002Z" fill="#2D8A00"/>
<path d="M172.864 621.3C171.481 621.3 170.206 621.084 169.039 620.65C167.889 620.2 166.881 619.567 166.014 618.75C165.164 617.934 164.497 616.975 164.014 615.875C163.547 614.775 163.314 613.567 163.314 612.25C163.314 610.934 163.547 609.725 164.014 608.625C164.497 607.525 165.172 606.567 166.039 605.75C166.906 604.934 167.922 604.309 169.089 603.875C170.256 603.425 171.539 603.2 172.939 603.2C174.489 603.2 175.881 603.459 177.114 603.975C178.364 604.492 179.414 605.242 180.264 606.225L177.664 608.625C177.031 607.959 176.339 607.467 175.589 607.15C174.839 606.817 174.022 606.65 173.139 606.65C172.289 606.65 171.514 606.784 170.814 607.05C170.114 607.317 169.506 607.7 168.989 608.2C168.489 608.7 168.097 609.292 167.814 609.975C167.547 610.659 167.414 611.417 167.414 612.25C167.414 613.067 167.547 613.817 167.814 614.5C168.097 615.184 168.489 615.784 168.989 616.3C169.506 616.8 170.106 617.184 170.789 617.45C171.489 617.717 172.256 617.85 173.089 617.85C173.889 617.85 174.664 617.725 175.414 617.475C176.181 617.209 176.922 616.767 177.639 616.15L179.939 619.075C178.989 619.792 177.881 620.342 176.614 620.725C175.364 621.109 174.114 621.3 172.864 621.3ZM179.939 619.075L176.239 618.55V611.975H179.939V619.075Z" fill="#0D0D0D"/>
<path d="M140.973 621V603.5H144.323L154.648 616.1H153.023V603.5H157.023V621H153.698L143.348 608.4H144.973V621H140.973Z" fill="#0D0D0D"/>
<path d="M129.52 621V603.5H133.57V621H129.52Z" fill="#0D0D0D"/>
<path d="M113.234 621L105.684 603.5H110.059L116.659 619H114.084L120.784 603.5H124.809L117.234 621H113.234Z" fill="#0D0D0D"/>
<path d="M92.7019 621.3C91.3186 621.3 90.0353 621.075 88.8519 620.625C87.6853 620.175 86.6686 619.542 85.8019 618.725C84.9519 617.909 84.2853 616.95 83.8019 615.85C83.3353 614.75 83.1019 613.55 83.1019 612.25C83.1019 610.95 83.3353 609.75 83.8019 608.65C84.2853 607.55 84.9603 606.592 85.8269 605.775C86.6936 604.959 87.7103 604.325 88.8769 603.875C90.0436 603.425 91.3103 603.2 92.6769 603.2C94.0603 603.2 95.3269 603.425 96.4769 603.875C97.6436 604.325 98.6519 604.959 99.5019 605.775C100.369 606.592 101.044 607.55 101.527 608.65C102.01 609.734 102.252 610.934 102.252 612.25C102.252 613.55 102.01 614.759 101.527 615.875C101.044 616.975 100.369 617.934 99.5019 618.75C98.6519 619.55 97.6436 620.175 96.4769 620.625C95.3269 621.075 94.0686 621.3 92.7019 621.3ZM92.6769 617.85C93.4603 617.85 94.1769 617.717 94.8269 617.45C95.4936 617.184 96.0769 616.8 96.5769 616.3C97.0769 615.8 97.4603 615.209 97.7269 614.525C98.0103 613.842 98.1519 613.084 98.1519 612.25C98.1519 611.417 98.0103 610.659 97.7269 609.975C97.4603 609.292 97.0769 608.7 96.5769 608.2C96.0936 607.7 95.5186 607.317 94.8519 607.05C94.1853 606.784 93.4603 606.65 92.6769 606.65C91.8936 606.65 91.1686 606.784 90.5019 607.05C89.8519 607.317 89.2769 607.7 88.7769 608.2C88.2769 608.7 87.8853 609.292 87.6019 609.975C87.3353 610.659 87.2019 611.417 87.2019 612.25C87.2019 613.067 87.3353 613.825 87.6019 614.525C87.8853 615.209 88.2686 615.8 88.7519 616.3C89.2519 616.8 89.8353 617.184 90.5019 617.45C91.1686 617.717 91.8936 617.85 92.6769 617.85Z" fill="#0D0D0D"/>
<path d="M57.075 621V603.5H60.425L67.875 615.85H66.1L73.425 603.5H76.75L76.8 621H73L72.975 609.325H73.675L67.825 619.15H66L60.025 609.325H60.875V621H57.075Z" fill="#0D0D0D"/>
<path d="M465.235 621V603.5H469.285V617.7H478.06V621H465.235Z" fill="#0D0D0D"/>
<path d="M440.544 621L448.344 603.5H452.344L460.169 621H455.919L449.519 605.55H451.119L444.694 621H440.544ZM444.444 617.25L445.519 614.175H454.519L455.619 617.25H444.444Z" fill="#0D0D0D"/>
<path d="M427.144 621L419.594 603.5H423.969L430.569 619H427.994L434.694 603.5H438.719L431.144 621H427.144Z" fill="#0D0D0D"/>
<path d="M406.612 621.3C405.229 621.3 403.946 621.075 402.762 620.625C401.596 620.175 400.579 619.542 399.712 618.725C398.862 617.909 398.196 616.95 397.712 615.85C397.246 614.75 397.012 613.55 397.012 612.25C397.012 610.95 397.246 609.75 397.712 608.65C398.196 607.55 398.871 606.592 399.737 605.775C400.604 604.959 401.621 604.325 402.787 603.875C403.954 603.425 405.221 603.2 406.587 603.2C407.971 603.2 409.237 603.425 410.387 603.875C411.554 604.325 412.562 604.959 413.412 605.775C414.279 606.592 414.954 607.55 415.437 608.65C415.921 609.734 416.162 610.934 416.162 612.25C416.162 613.55 415.921 614.759 415.437 615.875C414.954 616.975 414.279 617.934 413.412 618.75C412.562 619.55 411.554 620.175 410.387 620.625C409.237 621.075 407.979 621.3 406.612 621.3ZM406.587 617.85C407.371 617.85 408.087 617.717 408.737 617.45C409.404 617.184 409.987 616.8 410.487 616.3C410.987 615.8 411.371 615.209 411.637 614.525C411.921 613.842 412.062 613.084 412.062 612.25C412.062 611.417 411.921 610.659 411.637 609.975C411.371 609.292 410.987 608.7 410.487 608.2C410.004 607.7 409.429 607.317 408.762 607.05C408.096 606.784 407.371 606.65 406.587 606.65C405.804 606.65 405.079 606.784 404.412 607.05C403.762 607.317 403.187 607.7 402.687 608.2C402.187 608.7 401.796 609.292 401.512 609.975C401.246 610.659 401.112 611.417 401.112 612.25C401.112 613.067 401.246 613.825 401.512 614.525C401.796 615.209 402.179 615.8 402.662 616.3C403.162 616.8 403.746 617.184 404.412 617.45C405.079 617.717 405.804 617.85 406.587 617.85Z" fill="#0D0D0D"/>
<path d="M370.985 621V603.5H374.335L381.785 615.85H380.01L387.335 603.5H390.66L390.71 621H386.91L386.885 609.325H387.585L381.735 619.15H379.91L373.935 609.325H374.785V621H370.985Z" fill="#0D0D0D"/>
<path d="M350.963 621V603.5H364.188V606.75H354.988V617.75H364.513V621H350.963ZM354.688 613.7V610.55H363.113V613.7H354.688Z" fill="#0D0D0D"/>
<path d="M329.329 621V603.5H336.804C339.237 603.5 341.129 604.067 342.479 605.2C343.829 606.317 344.504 607.867 344.504 609.85C344.504 611.15 344.196 612.275 343.579 613.225C342.962 614.158 342.087 614.875 340.954 615.375C339.821 615.875 338.471 616.125 336.904 616.125H331.579L333.379 614.35V621H329.329ZM340.454 621L336.079 614.65H340.404L344.829 621H340.454ZM333.379 614.8L331.579 612.9H336.679C337.929 612.9 338.862 612.633 339.479 612.1C340.096 611.55 340.404 610.8 340.404 609.85C340.404 608.883 340.096 608.133 339.479 607.6C338.862 607.067 337.929 606.8 336.679 606.8H331.579L333.379 604.875V614.8Z" fill="#0D0D0D"/>
<path d="M300.868 617L300.643 612.325L309.018 603.5H313.518L305.968 611.625L303.718 614.025L300.868 617ZM297.243 621V603.5H301.268V621H297.243ZM309.218 621L302.993 613.375L305.643 610.5L313.943 621H309.218Z" fill="#0D0D0D"/>
<path d="M273.802 621V603.5H277.152L287.477 616.1H285.852V603.5H289.852V621H286.527L276.177 608.4H277.802V621H273.802Z" fill="#0D0D0D"/>
<path d="M258.625 621.3C256.142 621.3 254.2 620.608 252.8 619.225C251.4 617.842 250.7 615.867 250.7 613.3V603.5H254.75V613.15C254.75 614.817 255.092 616.017 255.775 616.75C256.459 617.483 257.417 617.85 258.65 617.85C259.884 617.85 260.842 617.483 261.525 616.75C262.209 616.017 262.55 614.817 262.55 613.15V603.5H266.55V613.3C266.55 615.867 265.85 617.842 264.45 619.225C263.05 620.608 261.109 621.3 258.625 621.3Z" fill="#0D0D0D"/>
<path d="M237.3 621.3C236.117 621.3 235.025 621.083 234.025 620.65C233.042 620.2 232.233 619.567 231.6 618.75L233.85 616.05C234.333 616.683 234.842 617.167 235.375 617.5C235.908 617.817 236.483 617.975 237.1 617.975C238.75 617.975 239.575 617.008 239.575 615.075V606.75H233.425V603.5H243.6V614.85C243.6 617.017 243.067 618.633 242 619.7C240.933 620.767 239.367 621.3 237.3 621.3Z" fill="#0D0D0D"/>
<path d="M679.951 621.3C678.568 621.3 677.293 621.084 676.126 620.65C674.976 620.2 673.968 619.567 673.101 618.75C672.251 617.934 671.584 616.975 671.101 615.875C670.634 614.775 670.401 613.567 670.401 612.25C670.401 610.934 670.634 609.725 671.101 608.625C671.584 607.525 672.259 606.567 673.126 605.75C673.993 604.934 675.009 604.309 676.176 603.875C677.343 603.425 678.626 603.2 680.026 603.2C681.576 603.2 682.968 603.459 684.201 603.975C685.451 604.492 686.501 605.242 687.351 606.225L684.751 608.625C684.118 607.959 683.426 607.467 682.676 607.15C681.926 606.817 681.109 606.65 680.226 606.65C679.376 606.65 678.601 606.784 677.901 607.05C677.201 607.317 676.593 607.7 676.076 608.2C675.576 608.7 675.184 609.292 674.901 609.975C674.634 610.659 674.501 611.417 674.501 612.25C674.501 613.067 674.634 613.817 674.901 614.5C675.184 615.184 675.576 615.784 676.076 616.3C676.593 616.8 677.193 617.184 677.876 617.45C678.576 617.717 679.343 617.85 680.176 617.85C680.976 617.85 681.751 617.725 682.501 617.475C683.268 617.209 684.009 616.767 684.726 616.15L687.026 619.075C686.076 619.792 684.968 620.342 683.701 620.725C682.451 621.109 681.201 621.3 679.951 621.3ZM687.026 619.075L683.326 618.55V611.975H687.026V619.075Z" fill="#0D0D0D"/>
<path d="M648.06 621V603.5H651.41L661.735 616.1H660.11V603.5H664.11V621H660.785L650.435 608.4H652.06V621H648.06Z" fill="#0D0D0D"/>
<path d="M636.607 621V603.5H640.657V621H636.607Z" fill="#0D0D0D"/>
<path d="M613.167 621V603.5H616.517L626.842 616.1H625.217V603.5H629.217V621H625.892L615.542 608.4H617.167V621H613.167Z" fill="#0D0D0D"/>
<path d="M588.476 621L596.276 603.5H600.276L608.101 621H603.851L597.451 605.55H599.051L592.626 621H588.476ZM592.376 617.25L593.451 614.175H602.451L603.551 617.25H592.376Z" fill="#0D0D0D"/>
<path d="M570.754 621V603.5H583.979V606.75H574.779V617.75H584.304V621H570.754ZM574.479 613.7V610.55H582.904V613.7H574.479Z" fill="#0D0D0D"/>
<path d="M552.416 621V603.5H556.466V617.7H565.241V621H552.416Z" fill="#0D0D0D"/>
<path d="M539.45 621.3C538.1 621.3 536.842 621.084 535.675 620.65C534.525 620.2 533.525 619.567 532.675 618.75C531.825 617.934 531.158 616.975 530.675 615.875C530.208 614.775 529.975 613.567 529.975 612.25C529.975 610.934 530.208 609.725 530.675 608.625C531.158 607.525 531.825 606.567 532.675 605.75C533.542 604.934 534.55 604.309 535.7 603.875C536.85 603.425 538.108 603.2 539.475 603.2C540.992 603.2 542.358 603.467 543.575 604C544.808 604.517 545.842 605.284 546.675 606.3L544.075 608.7C543.475 608.017 542.808 607.509 542.075 607.175C541.342 606.825 540.542 606.65 539.675 606.65C538.858 606.65 538.108 606.784 537.425 607.05C536.742 607.317 536.15 607.7 535.65 608.2C535.15 608.7 534.758 609.292 534.475 609.975C534.208 610.659 534.075 611.417 534.075 612.25C534.075 613.084 534.208 613.842 534.475 614.525C534.758 615.209 535.15 615.8 535.65 616.3C536.15 616.8 536.742 617.184 537.425 617.45C538.108 617.717 538.858 617.85 539.675 617.85C540.542 617.85 541.342 617.684 542.075 617.35C542.808 617 543.475 616.475 544.075 615.775L546.675 618.175C545.842 619.192 544.808 619.967 543.575 620.5C542.358 621.034 540.983 621.3 539.45 621.3Z" fill="#0D0D0D"/>
<circle cx="207" cy="613" r="4" fill="#2D8A00"/>
<circle cx="504" cy="613" r="4" fill="#2D8A00"/>
</svg>
