<svg width="782" height="577" viewBox="0 0 782 577" fill="none" xmlns="http://www.w3.org/2000/svg">
<path d="M781.5 291C526 329.5 263.5 331.5 21 294L46.5 348.5L0 541C255 483.5 569 500.5 749 539.5L725 419L781.5 291Z" fill="#2D8A00"/>
<path d="M761 307C518.087 340.418 272.519 342.154 41.9655 309.604L60 347.5L16.5 523.5C258.938 473.59 562.969 488.846 734.101 522.698L712.283 418.104L761 307Z" fill="#0D0D0D"/>
<path d="M65.5521 465.5C62.3947 476.778 59.2541 488.06 55.9309 499.966L116.5 492.5C120.734 477.732 127.015 451.513 131.212 437.155C131.56 435.964 132.798 434.192 133.714 434.135C144.791 433.437 155.885 433.01 167.58 432.486L151.785 488.092C169.916 486.383 187.292 484.622 204.696 483.217C207.858 482.962 208.862 481.717 209.642 479.006C219.513 444.674 229.475 410.368 239.423 376.058C242.041 367.028 244.688 358.006 247.43 348.61L191.188 345.093C186.969 360.618 182.946 375.737 178.661 390.781C178.149 392.581 176.262 395.302 174.932 395.349C164.319 395.725 153.688 395.559 142.32 395.559L156.917 342.63L80.1612 334.593C84.4749 342.072 88.3228 349.03 92.4694 355.805C94.3455 358.87 94.709 361.686 93.7207 365.172C84.247 398.591 74.9173 432.051 65.5521 465.5Z" fill="white"/>
<path d="M577.075 484.948C563.038 483.784 549.455 482.652 535.237 481.468C535.828 479.355 536.32 477.5 536.866 475.661C547.124 441.078 557.248 406.455 567.778 371.955C569.711 365.62 569.556 359.99 566.847 354.15C565.737 351.755 564.949 349.211 563.763 346.07C585.232 344.471 606.329 342.9 628.036 341.284C623.893 357.546 619.907 373.193 615.921 388.84C616.237 389.067 616.554 389.293 616.87 389.52C618.462 388.015 620.204 386.64 621.621 384.985C634.083 370.441 646.418 355.787 658.999 341.346C660.536 339.581 663.2 338.099 665.506 337.814C684.51 335.464 703.553 333.428 723.559 331.188C719.208 336.511 715.345 341.366 711.347 346.107C693.845 366.861 676.376 387.643 658.692 408.242C656.246 411.09 656.094 413.242 657.408 416.561C667.187 441.267 676.774 466.049 686.382 490.823C687.268 493.11 687.874 495.506 688.869 498.676C677.546 496.968 666.899 495.322 656.24 493.764C647.017 492.417 637.795 491.046 628.541 489.954C625.828 489.633 624.645 488.664 623.687 486.055C617.893 470.28 611.841 454.599 605.86 438.892C605.589 438.181 605.174 437.525 603.605 436.695C598.813 453.053 594.021 469.411 589.152 486.032C585.102 485.665 581.316 485.323 577.075 484.948Z" fill="white"/>
<path d="M413 351.205C405.25 376.986 397.213 406.29 389.477 432.075C388.187 436.374 387.027 440.711 385.739 445.01C379.991 464.19 364.594 476.032 344.504 476.805C318.543 477.805 292.585 478.925 266.618 479.755C262.54 479.885 258.271 479.266 254.348 478.115C241.847 474.451 236.439 464.821 239.888 452.271C247.594 424.229 255.647 396.282 263.268 368.217C264.882 362.275 265.283 357.5 265.283 349.36C283.883 349.946 304.458 350.562 324.721 351.199C322.056 360.134 319.495 368.701 316.947 377.272C311.11 396.908 305.279 416.546 299.446 436.184C297.176 443.828 298.625 445.713 306.785 445.558C312.282 445.454 317.778 445.284 323.27 445.053C328.019 444.854 331.581 442.927 332.981 438.019C340.738 410.832 349.508 378.648 357.958 351.205H375.5C388.926 351.003 399.572 351.293 413 351.205Z" fill="white"/>
<path d="M457.487 350.522C468.877 350.511 479.797 350.511 491.056 350.511C481.591 381.249 471.972 412.486 462.168 444.321C484.812 445.188 506.908 446.033 529.512 446.898C529.156 448.525 528.944 449.897 528.553 451.217C526.001 459.826 523.529 468.463 520.715 476.987C520.26 478.367 518.201 480.227 516.938 480.186C477.645 478.91 438.359 477.426 399.072 475.958C398.776 475.947 398.487 475.719 397.842 475.44C409.523 436.019 432.233 360 432.233 360C433.5 357 434 353 432.853 350.532C432.853 350.532 449.242 350.532 457.487 350.522Z" fill="white"/>
<path d="M180 547.5L45 556.37L178.5 563L180 547.5Z" fill="#2D8A00"/>
<path d="M592 563.5L593.5 547.5L698.5 557L592 563.5Z" fill="#2D8A00"/>
<path d="M560.136 575.05H528.212L536.289 532.05H568.212L566.432 541.366H545.955L544.492 549.429H561.408L559.627 558.746H542.712L541.44 565.733H561.917L560.136 575.05Z" fill="#2D8A00"/>
<path d="M487.326 576.05C481.221 576.05 476.994 574.823 474.646 572.368C473.024 570.627 472.212 568.192 472.212 565.065C472.212 563.719 472.362 562.274 472.661 560.73L475.286 547.073C477.207 537.057 484.145 532.05 496.099 532.05C501.051 532.05 504.808 533.039 507.37 535.019C509.932 536.958 511.212 539.631 511.212 543.035C511.212 544.618 510.956 546.202 510.444 547.785C509.974 549.329 509.505 550.477 509.035 551.229L508.331 552.417H496.996C498.405 550.913 499.109 548.775 499.109 546.004C499.109 544.539 498.703 543.391 497.892 542.56C497.081 541.689 495.886 541.254 494.306 541.254C489.994 541.254 487.432 543.47 486.621 547.904L484.38 559.899C484.166 560.928 484.06 561.937 484.06 562.927C484.06 565.54 485.746 566.846 489.119 566.846C493.175 566.846 495.608 564.728 496.419 560.492H507.946L507.626 562.214C505.918 571.438 499.152 576.05 487.326 576.05Z" fill="#2D8A00"/>
<path d="M452.212 532.05L444.414 575.05H433.212L441.072 532.05H452.212Z" fill="#2D8A00"/>
<path d="M395.229 564.598L407.558 532.05H420.212L402.497 575.05H381.732L381.212 532.05H393.931L393.737 564.598H395.229Z" fill="#2D8A00"/>
<path d="M346.334 532.05C351.277 532.05 354.79 533.045 356.871 535.036C358.432 536.549 359.212 538.46 359.212 540.769C359.212 541.566 359.126 542.402 358.952 543.278L358.042 547.936C357.521 550.524 356.611 552.614 355.31 554.207C354.053 555.799 352.643 556.934 351.082 557.611L357.001 575.05H343.863L338.399 558.985H334.367L331.7 575.05H319.212L327.473 532.05H346.334ZM342.237 541.366H337.359L335.668 551.758H340.221C342.519 551.758 344.166 551.26 345.164 550.265C346.161 549.23 346.66 547.876 346.66 546.204C346.66 542.979 345.185 541.366 342.237 541.366Z" fill="#2D8A00"/>
<path d="M296.136 575.05H264.212L272.289 532.05H304.212L302.432 541.366H281.955L280.492 549.429H297.408L295.627 558.746H278.711L277.44 565.733H297.917L296.136 575.05Z" fill="#2D8A00"/>
<path d="M218.925 563.046C218.925 565.777 221.014 567.143 225.193 567.143C229.414 567.143 231.524 565.916 231.524 563.461C231.524 562.155 230.806 561.086 229.371 560.255C227.936 559.424 226.185 558.731 224.117 558.177C222.091 557.622 220.043 556.989 217.975 556.277C215.949 555.524 214.219 554.376 212.784 552.833C211.349 551.249 210.631 549.29 210.631 546.954C210.631 537.018 217.448 532.05 231.081 532.05C236.061 532.05 239.818 532.94 242.35 534.722C244.925 536.464 246.212 538.898 246.212 542.026C246.212 543.174 246.043 544.282 245.706 545.351C245.41 546.38 245.094 547.112 244.756 547.548L244.25 548.26H233.043C233.972 547.35 234.436 546.202 234.436 544.816C234.436 542.243 232.642 540.957 229.055 540.957C224.539 540.957 222.28 542.303 222.28 544.994C222.28 546.34 222.998 547.409 224.433 548.201C225.868 548.993 227.599 549.626 229.625 550.101C231.693 550.537 233.761 551.091 235.829 551.764C237.897 552.437 239.649 553.565 241.084 555.148C242.519 556.692 243.237 558.711 243.237 561.205C243.237 566.232 241.633 569.973 238.425 572.428C235.217 574.842 230.279 576.05 223.61 576.05C216.941 576.05 212.383 574.941 209.935 572.725C208.12 571.062 207.212 568.766 207.212 565.837C207.212 564.728 207.339 563.521 207.592 562.214L207.782 561.264H219.178L219.052 561.977C218.967 562.373 218.925 562.729 218.925 563.046Z" fill="#2D8A00"/>
<path d="M398.628 88.1658L207.394 121.716L391.247 110.309L398.628 88.1658Z" fill="#2D8A00"/>
<path d="M383.195 139.162L102.048 186.802L375.143 171.369L383.195 139.162Z" fill="#2D8A00"/>
<path d="M348.975 204.248L43 259.27L310.057 238.469L348.975 204.248Z" fill="#2D8A00"/>
<path d="M271.139 271.348L111.442 300.201L242.957 296.846L271.139 271.348Z" fill="#2D8A00"/>
<path d="M539.538 2.27818C528.802 8.98815 512.698 23.0791 508.001 31.131C508.001 31.131 507.33 32.4732 508.001 33.144C508.672 33.8148 536.854 66.6939 536.854 66.6939C536.854 66.6939 538.196 68.0361 539.538 66.6939C539.538 66.6939 568.39 46.5642 577.113 31.131C577.113 31.131 579.797 24.4213 577.113 21.7371C577.113 21.7371 561.009 5.63329 548.261 0.265194C548.261 0.265194 544.906 -1.07713 539.538 2.27818Z" fill="#2D8A00"/>
<path d="M561.009 138.491C560.338 140.504 559.667 143.188 561.009 145.872C563.022 151.24 573.087 166.001 578.455 170.699C580.468 172.46 583.823 172.041 585.836 170.699C590.533 168.015 638.174 133.794 646.226 123.729C647.568 121.716 647.568 117.69 646.226 114.335C646.226 114.335 636.161 94.8761 626.767 86.8243C626.096 86.1531 622.741 84.8117 620.057 86.8243C620.057 86.8243 581.139 117.69 561.009 138.491Z" fill="#2D8A00"/>
<path d="M594.559 37.1703C594.559 37.1703 590.533 34.4866 585.836 37.1703C585.836 37.1703 560.338 60.6552 546.918 74.7461C545.577 76.7591 544.906 78.1011 546.918 80.1141C550.167 84.8111 557.655 94.8759 558.996 99.573C559.508 102.941 559.356 105.612 558.996 108.296C558.326 109.638 549.603 117.019 547.589 120.374C548.261 121.716 553.407 125.016 557.654 127.084C560.338 125.742 611.334 82.7979 620.057 72.7332C620.728 72.062 622.07 67.365 620.057 64.0102C620.057 64.0102 604.624 43.2091 594.559 37.1703Z" fill="#2D8A00"/>
<path d="M586.507 182.777C585.165 185.461 586.507 187.474 586.507 187.474C586.507 187.474 595.23 206.932 599.927 208.946C601.269 209.616 605.295 209.617 607.979 208.946C612.005 207.604 652.265 175.396 656.291 171.37C657.633 170.028 656.739 166.024 656.291 162.647C654.278 154.595 646.897 142.517 644.213 141.175C642.2 139.162 638.845 141.175 638.845 141.175C638.845 141.175 587.849 178.08 586.507 182.777Z" fill="#2D8A00"/>
<path d="M379.84 321.002H250.338C250.338 321.002 381.853 202.235 392.589 194.854C395.944 176.738 408.022 117.019 426.81 69.378C440.901 56.6291 448.953 49.9191 465.057 39.1831C470.908 35.9587 473.78 33.8153 480.49 31.8022C483.075 31.1312 487.2 29.1184 492.568 31.8022C495.252 32.4734 537.525 76.088 547.59 96.8889C547.59 96.8889 548.261 101.586 546.248 103.599C544.235 105.612 528.131 120.374 523.434 121.045C523.434 121.045 518.066 123.058 513.369 119.703C503.975 112.993 498.607 110.309 483.845 94.2049C483.845 94.2049 479.148 96.8889 471.767 98.2308C471.767 98.2308 536.183 143.188 490.555 227.733C490.555 227.733 496.594 225.72 508.672 208.274C527.46 176.737 514.711 139.162 514.711 139.162C514.711 139.162 520.75 139.833 524.776 139.162C528.51 138.149 529.473 137.82 533.499 134.465C548.932 145.201 580.468 196.867 593.217 216.997L593.288 217.05C595.917 219.022 596.82 219.699 601.269 219.681C605.966 219.01 612.676 215.655 612.676 215.655L519.408 321.002H428.823C428.823 321.002 495.923 268.664 508.672 261.283C510.014 260.612 510.014 257.928 508.672 257.928L379.84 321.002Z" fill="#2D8A00"/>
</svg>
