<svg width="800" height="752" viewBox="0 0 800 752" fill="none" xmlns="http://www.w3.org/2000/svg">
<path d="M706.176 383.352C703.065 378.508 702.401 382.714 702.064 384.293C701.28 387.96 699.286 389.787 695.733 389.056C692.389 388.369 693.041 385.303 692.965 382.838C691.465 334.312 681.027 287.915 659.888 244.08C638.686 200.113 608.532 163.472 570.281 133.206C542.624 111.324 511.475 96.2702 478.873 83.6004C449.251 72.0888 418.127 70.2997 386.988 67.516C363.602 65.4254 340.721 68.5517 318.462 73.79C281.309 82.5333 245.407 95.3466 213.265 116.901C208.802 119.894 204.869 124.179 198.576 123.899C196.134 123.791 195.717 127.145 194.167 128.703C191.366 131.52 189.729 136.42 183.928 134.085C181.454 133.089 180.341 135.982 179.807 137.601C177.788 143.715 173.095 147.585 168.705 151.697C136.377 181.984 111.727 217.803 93.3929 257.922C77.6562 292.359 69.8856 328.889 66.5053 366.538C64.5544 388.267 66.8631 409.59 69.1257 431.115C71.5676 454.345 79.8492 475.725 87.5486 497.293C95.3747 519.215 106.402 539.624 119.04 559.25C150.09 607.466 191.17 644.657 241.41 671.82C261.186 682.513 282.01 691.034 303.725 696.889C314.841 699.886 326.435 701.101 337.799 703.201C341.288 703.846 345.452 704.333 341.341 709.559C343.917 711.26 346.663 710.17 349.329 710.199C354.242 710.253 359.101 705.784 364.159 710.235C365.154 711.111 366.831 709.594 368.144 708.767C374.942 704.486 382.511 705.401 389.213 707.864C396.681 710.609 402.57 711.573 410.038 706.89C415.334 703.57 422.725 702.203 429.589 704.353C430.809 704.736 431.724 705.246 433.069 704.729C460.21 694.288 488.629 687.527 514.657 673.766C555.7 652.065 590.845 623.518 619.896 587.462C637.212 565.971 652.565 543.17 662.787 517.28C663.513 515.441 664.174 513.439 666.424 512.635C668.868 513.303 668.431 515.457 668.043 516.926C665.377 527.035 666.525 537.067 668.668 547.007C669.378 550.296 668.848 552.803 667.134 555.533C653.459 577.31 639.442 598.685 621.926 617.835C610.646 630.167 600.013 643.354 586.148 652.392C571.75 661.778 559.888 675.213 542.581 680.242C537.056 681.847 534.137 687.845 528.968 690.806C511.118 701.031 492.291 709.3 472.628 714.576C456.012 719.035 439.59 724.681 421.926 725.806C411.941 726.442 401.508 725.512 392.269 727.273C378.985 729.804 366.218 727.723 353.479 727.375C340.754 727.027 327.659 725.627 315.003 721.203C305.296 717.811 294.403 717.814 284.496 714.051C262.045 705.523 239.486 697.81 219.089 684.12C208.392 676.939 197.349 669.83 186.135 663.245C181.499 660.523 180.522 654.057 175.714 652.773C170.126 651.282 166.309 647.983 162.974 644.033C154.021 633.428 143.729 624.051 134.204 614.051C125.8 605.23 118.281 595.879 111.426 586.112C104.593 576.378 96.9962 567.193 91.4077 556.333C87.1738 548.104 84.9621 538.264 77.398 531.786C76.6745 531.166 76.2328 530.123 75.8657 529.195C65.8102 503.775 54.2416 478.836 49.6822 451.596C47.1498 436.467 45.1237 421.244 43.252 406.016C42.2628 397.967 45.6925 390.222 45.5916 382.067C45.4991 374.589 46.1077 367.478 43.7313 359.907C41.5168 352.851 44.9432 345.044 45.9507 337.573C48.4846 318.787 52.2743 300.236 59.2193 282.595C66.262 264.706 74.0459 247.122 82.18 229.657C87.9449 217.278 95.1653 205.84 101.226 193.718C104.479 187.213 109.025 181.329 114.77 176.585C118.272 173.693 121.389 170.721 122.843 165.987C123.748 163.037 126.116 160.101 128.603 158.147C141.934 147.674 152.713 134.444 165.954 123.893C170.511 120.262 175.049 116.722 180.657 114.74C182.744 114.003 185.213 112.934 186.385 111.24C196.827 96.1375 213.312 89.6728 228.596 81.6973C253.746 68.5737 280.003 58.0297 307.844 52.2224C316.148 50.4901 324.57 49.1997 332.821 47.1093C333.309 46.9858 333.884 46.7401 334.303 46.8851C344.59 50.4446 353.985 43.2924 363.828 44.2623C373.98 45.2626 384.099 43.1556 393.94 44.1152C412.76 45.9502 431.771 46.0717 450.197 52.8649C458.695 55.9977 468.352 57.4414 477.481 59.7751C494.413 64.1038 509.596 72.0441 524.421 80.1975C547.502 92.8918 569.657 107.307 589.445 125.138C596.554 131.544 603.943 137.611 610.327 144.766C612.037 146.682 614.52 148.186 612.873 151.842C610.28 157.594 615.073 160.304 618.918 159.783C623.405 159.175 625.551 161.024 627.834 163.638C648.716 187.538 666.417 213.608 679.583 242.51C689.919 265.197 697.308 289.157 701.472 313.563C703.725 326.772 708.318 339.66 708.472 353.294C708.518 357.283 708.327 360.579 705.547 363.749C702.302 367.451 701.536 371.232 706.954 374.166C711.162 376.445 710.742 380.459 709.509 384.115C708.816 386.171 707.245 385.503 706.176 383.352ZM159.837 625.691C152.204 618.583 146.028 609.978 136.682 602.728C150.217 623.391 192.959 660.339 212.596 668.325C194.996 654.695 177.345 641.129 159.837 625.691ZM690.913 296.748C687.714 291.757 689.964 284.541 683.737 279.002C682.349 289.696 688.339 296.427 690.749 305.729C692.989 301.906 691.436 299.866 690.913 296.748Z" fill="#A31621"/>
<path d="M193.151 143.681C225.186 117.208 260.905 99.118 300.412 88.2122C314.35 84.3647 328.537 82.5003 342.839 81.6662C358.409 80.7581 373.725 77.7617 389.488 78.0581C433.672 78.8891 475.231 89.4886 514.57 109.283C582.422 143.424 629.308 197.28 660.211 265.749C671.48 290.719 677.514 317.339 681.167 344.466C681.33 345.681 681.14 346.966 680.954 348.194C680.894 348.594 680.321 348.917 679.576 349.707C676.658 348.577 674.123 347.268 673.513 343.365C668.889 313.764 658.6 285.987 647.737 258.184C642.667 245.21 633.377 234.877 628.996 221.676C627.416 216.915 621.576 213.717 618.269 209.358C593.112 176.211 563.242 148.274 527.392 127.01C514.15 119.156 500.053 112.979 485.864 106.962C441.493 88.1461 395.026 84.0539 347.782 88.3172C302.256 92.4255 260.65 108.832 222.339 133.563C183.532 158.614 153.857 192.623 128.143 230.468C112.518 253.464 103.893 279.61 94.2627 305.311C93.3154 307.84 93.0245 310.691 90.4668 312.842C88.2123 311.05 87.7498 308.757 88.2549 306.21C93.0938 281.805 102.432 259.114 114.161 237.273C133.826 200.652 161.144 170.548 193.151 143.681Z" fill="#A31621"/>
<path d="M167.381 593.156C175.158 600.37 182.663 607.103 190.09 613.921C230.496 651.015 278.375 672.849 331.863 682.848C352.183 686.646 373.023 686.577 393.43 689.177C403.723 690.489 413.521 691.576 422.942 688.414C445.715 680.772 468.873 674.202 490.939 664.474C515.08 653.831 537.866 640.706 558.544 624.538C587.598 601.82 611.507 574.203 630.267 542.282C635.13 534.008 640.086 525.786 645.163 517.642C646.881 514.887 648.121 509.933 652.762 512.739C656.486 514.991 653.103 518.231 651.964 520.65C631.266 564.643 601.38 601.189 563.128 631.149C537.282 651.392 509.726 668.576 478.543 679.046C419.176 698.979 359.106 702.749 298.597 684.249C223.204 661.198 165.679 614.857 123.335 548.853C102.674 516.647 87.9659 481.989 80.4006 444.458C76.8636 426.911 73.8817 409.219 75.0575 391.155C75.2794 387.746 75.1075 384.221 78.3389 381.158C81.3083 384.647 81.3205 388.479 81.6345 392.043C84.3904 423.329 89.8976 454.001 99.9207 483.887C112.606 521.711 134.686 553.701 160.059 583.793C162.496 586.683 164.74 589.736 167.381 593.156Z" fill="#A31621"/>
<path d="M82.7906 323.08C84.3681 320.34 82.9198 316.83 86.9901 314.971C89.6859 320.546 86.6634 324.413 84.1412 328.643C81.8101 327.068 82.5905 325.252 82.7906 323.08Z" fill="#A31621"/>
<path d="M215.257 404.421C225.586 403.643 235.558 402.99 245.505 402.059C250.98 401.547 262.444 407.12 264.697 413.859C265.434 416.066 264.261 417.697 262.683 418.943C258.607 422.159 253.998 424.145 248.725 424.033C243.967 423.933 239.102 425.053 234.483 422.875C233.86 422.581 232.933 422.796 232.179 422.941C221.35 425.033 210.181 425.003 199.241 428.464C201.46 429.586 204.381 430.118 205.552 431.84C208.574 436.284 212.91 435.823 217.276 436.921C226.178 439.159 234.016 443.496 236 453.964C236.992 459.196 235.75 463.824 232.989 468.047C226.413 478.106 216.61 483.29 205.171 485.836C201.498 486.653 197.856 487.56 194.136 488.229C184.831 489.902 176.196 488.566 167.631 484.545C159.981 480.952 156.349 473.407 159.734 465.745C162.223 460.111 165.733 455.095 170.132 450.756C174.856 446.099 179.66 441.524 184.394 436.877C187.426 433.9 190.746 431.326 194.563 429.336C183.236 431.683 171.783 433.025 160.693 436.155C159.944 436.366 158.921 436.954 158.473 436.667C154.555 434.157 152.871 438.245 150.124 439.115C141.679 441.788 134.402 448.294 124.919 447.423C118.929 446.873 113.113 445.491 109.64 439.681C108.912 438.463 107.945 437.384 107.061 436.262C102.91 430.998 104.966 423.819 111.225 421.422C114.255 420.261 117.134 418.704 120.332 417.984C122.624 417.467 124.898 416.833 127.061 418.482C128.08 419.26 129.241 418.951 130.427 418.695C143.508 415.87 156.591 413.054 169.697 410.346C172.016 409.867 173.542 408.75 175.062 406.931C178.378 402.964 181.773 399.1 184.247 393.945C179.081 395.138 174.188 395.811 169.627 397.421C161.291 400.364 154.717 397.171 149.024 391.806C142.892 386.028 143.442 378.096 149.498 372.497C151.574 370.579 153.257 368.237 155.088 366.125C150.48 359.844 151.561 356.163 158.757 353.412C161.057 352.533 162.373 350.609 164.114 348.941C159.802 349.443 155.725 349.366 151.617 347.866C145.771 345.731 142.291 341.566 139.952 336.071C138.124 331.777 139.944 327.894 142.185 324.815C144.623 321.465 149.212 319.983 153.066 321.128C157.611 322.478 161.864 321.916 166.155 321.295C177.434 319.665 188.854 318.813 199.921 315.945C204.546 314.746 208.843 314.215 213.626 315.734C218.899 317.407 220.716 321.512 222.482 325.8C223.268 327.709 219.64 333.082 217.155 334.315C215.877 334.949 214.562 335.685 213.185 335.919C204.834 337.338 197.127 341.184 188.711 342.336C187.307 342.528 185.916 342.857 184.739 343.761C185.592 347.481 187.618 348.021 191.079 347.232C199.666 345.272 208.192 342.685 217.21 343.538C221.296 343.925 224.97 346.156 229.273 345.79C230.919 345.65 232.992 347.013 232.991 349.132C232.991 351.343 230.878 351.881 229.127 352.357C227.377 352.833 225.524 352.956 223.797 353.493C220.404 354.55 217.294 355.849 214.32 358.2C210.24 361.425 204.63 361.349 199.58 362.356C194.24 363.421 188.924 364.605 183.597 365.737C182.626 365.944 182.028 366.608 181.557 367.419C180.196 369.766 178.84 372.116 177.49 374.451C178.46 375.838 179.689 375.307 180.756 375.106C190.61 373.244 200.254 370.591 209.495 366.69C216.239 363.843 222.376 364.541 228.205 368.838C232.294 371.853 230.799 379.359 225.467 382.016C222.916 383.287 220.25 384.364 217.555 385.297C215.004 386.181 212.222 386.399 209.545 388.218C214.685 394.944 207.882 399.059 205.64 404.575C208.872 405.756 211.887 404.324 215.257 404.421ZM192.144 456.114C190.405 457.696 188.802 459.348 187.954 461.641C186.636 465.206 187.728 467.477 191.509 467.339C197.525 467.119 203.404 465.816 208.155 461.702C210.176 459.952 211.024 457.752 209.514 455.096C206.092 449.076 200.48 448.096 195.618 452.736C194.584 453.722 193.574 454.734 192.144 456.114Z" fill="#1C1A18"/>
<path d="M431.885 408.726C451.335 404.106 470.742 401.498 490.301 399.612C496.717 398.994 503.211 399.362 509.619 397.659C516.472 395.837 527.862 403.866 529.058 410.578C529.303 411.952 528.849 413.234 527.909 414.165C523.937 418.101 519.516 419.865 513.549 419.221C504.29 418.222 494.883 416.35 485.602 419.647C483.316 420.459 481.849 421.212 483.008 424.013C483.812 425.956 483.757 428.074 483.378 430.168C482.103 437.218 482.822 444.412 481.807 451.512C481.404 454.33 482.39 457.391 482.475 460.391C482.725 469.204 479.846 476.406 472.311 481.382C470.667 482.468 470.894 485.765 468.005 485.226C465.241 484.71 466.413 481.661 465.09 480.163C464.577 479.582 464.112 478.559 463.539 478.493C458.59 477.929 457.76 473.626 456.286 470.242C454.716 466.641 455.115 462.764 455.784 458.813C457.644 447.817 458.635 436.728 457.647 424.959C452.543 426.616 447.467 426.403 442.807 428.568C436.1 431.684 429.207 434.405 422.553 437.625C419.288 439.206 415.939 439.631 412.703 438.819C405.618 437.042 399.491 433.496 395.444 427.123C392.858 423.052 394.319 417.917 398.41 415.362C401.64 413.345 404.95 411.662 408.733 411.023C409.372 410.916 410.093 410.464 410.619 410.639C417.883 413.065 424.573 409.253 431.885 408.726Z" fill="#1C1A18"/>
<path d="M383.13 410.799C379.802 411.809 376.586 411.17 373.592 412.377C369.299 414.108 367.729 417.113 367.126 421.674C365.842 431.396 367.708 440.69 369.581 450.09C370.505 454.733 369.277 459.179 365.936 462.751C363.626 465.22 362.243 468.348 359.819 470.768C358.142 472.443 356.867 472.771 354.74 471.661C351.84 470.147 349.297 468.18 346.752 466.204C342.901 463.214 342.529 458.466 341.712 454.304C340.951 450.431 339.644 446.076 342.64 442.252C343.308 441.398 342.78 440.254 342.612 439.224C342.19 436.628 342.598 434.21 344.082 431.987C346.497 433.041 345.299 435.292 347.172 437.532C347.015 434.326 347.697 431.921 345.246 430.446C343.147 429.182 342.547 427.416 342.472 425.242C341.976 410.801 341.984 396.291 343.535 381.992C344.495 373.14 344.249 364.398 344.517 355.611C344.616 352.376 343.703 349.141 342.136 346.271C340.693 343.629 341.096 341.296 342.561 338.934C345.454 334.27 352.344 332.158 357.535 334.147C360.835 335.411 363.972 336.892 366.81 339.019C372.382 343.193 373.433 347.657 371.595 354.475C370.257 359.442 369.606 364.682 369.356 369.835C368.991 377.337 369.262 384.87 369.262 392.831C373.841 391.668 378.291 391.14 382.205 389.403C388.147 386.765 392.875 389.313 397.464 392.112C399.679 393.464 401.276 396.003 402.824 398.233C404.852 401.156 402.8 406.474 399.134 408.508C396.025 410.233 392.657 410.23 389.255 410.104C387.299 410.031 385.349 410.078 383.13 410.799Z" fill="#1C1A18"/>
<path d="M642.576 463.507C645.343 471.541 633.099 482.662 624.772 479.036C620.83 477.32 617.019 477.187 613.489 478.923C606.892 482.165 603.089 477.864 598.882 474.303C598.124 473.662 597.881 472.438 596.264 472.274C596.473 476.607 590.828 477.78 590.979 482.361C591.007 483.215 589.563 483.261 588.641 482.863C579.256 478.821 571.139 467.509 571.094 457.143C571.049 446.612 571.737 436.146 572.021 425.65C572.2 419.042 579.782 413.971 586.014 416.165C588.73 417.121 591.352 418.192 593.302 420.49C595.409 422.972 596.374 425.467 594.67 428.662C593.237 431.347 592.84 434.276 594.134 437.87C601.591 431.884 610.702 430.365 619.004 426.888C621.927 425.664 620.575 422.96 620.27 421.041C619.556 416.551 623.625 410.649 628.179 410.452C635.04 410.156 640.974 411.97 645.2 417.971C647.705 421.528 648.499 424.89 647.189 429.254C645.171 435.979 645.018 443.094 644.303 450.058C643.851 454.46 642.329 458.704 642.576 463.507ZM615.652 446.276C609.562 448.758 603.84 452.119 597.459 453.899C596.434 454.185 595.861 454.769 595.843 455.796C595.805 457.943 595.831 460.091 595.831 462.238C599.206 459.482 602.785 459.963 606.203 459.587C609.158 459.263 612.07 458.501 614.982 457.846C616.28 457.555 617.493 456.955 617.8 455.47C618.491 452.122 620.165 448.882 619.021 445.241C617.863 444.867 617.042 445.616 615.652 446.276Z" fill="#1C1A18"/>
<path d="M569.531 396.447C563.503 403.13 558.695 410.389 553.87 417.619C551.306 421.459 547.797 423.963 543.793 425.961C542.949 426.383 541.851 426.747 541.186 426.137C538.062 423.274 535.464 425.36 532.805 426.868C531.679 427.507 530.583 428.598 529.274 427.668C527.769 426.599 528.408 425.184 529.045 423.827C530.094 421.593 528.233 419.397 529.112 416.982C530.696 412.634 532.895 408.747 535.817 405.188C545.312 393.619 553.725 381.235 562.722 369.29C563.084 368.809 563.685 368.378 563.286 367.365C559.121 368.235 555.295 370.108 551.485 371.91C546.399 374.316 541.99 373.702 537.882 369.85C534.049 366.255 530.301 362.79 530.502 356.816C530.644 352.575 535.58 347.251 539.969 347.681C550.865 348.748 561.113 345.58 571.282 342.697C580.137 340.187 588.045 340.136 595.207 346.541C600.429 351.211 602.002 358.025 595.71 364.097C590.778 368.855 586.576 374.371 582.073 379.57C581.586 380.132 580.926 380.697 581.335 381.894C584.999 382.47 588.844 382.691 592.566 383.871C600.935 386.526 605.658 392.43 608.13 400.47C608.965 403.185 606.529 404.656 605.359 406.589C601 413.79 592.854 411.904 587.817 407.827C582.979 403.91 578.255 399.852 573.529 395.799C572.002 394.489 570.796 394.498 569.531 396.447Z" fill="#1C1A18"/>
<path d="M464.638 337.462C469.736 335.784 474.711 334.659 479.142 332.065C479.365 331.935 479.613 331.842 479.857 331.753C485.98 329.529 501.16 337.687 502.606 344.051C503.04 345.962 503.097 348.007 502.169 349.797C498.413 357.038 497.69 365.587 492.154 372.065C494.04 374.151 496.71 375.038 497.371 377.921C498.797 384.129 494.467 390.051 487.304 390.546C478.124 391.181 469.073 392.268 459.995 393.89C456.278 394.554 453.003 394.742 449.981 397.241C448.129 398.773 445.414 398.974 443.43 400.566C442.497 401.314 440.945 401.596 440.411 400.188C439.412 397.551 436.982 396.355 435.309 394.42C432.82 391.542 431.206 388.357 430.454 384.44C428.23 372.857 425.625 361.343 422.933 349.858C421.966 345.729 423.754 342.509 426.159 339.976C428.628 337.376 431.599 334.625 436.072 336.147C440.464 337.641 444.466 339.664 447.524 343.215C448.604 344.47 449.555 345.226 451.064 343.92C454.911 340.59 459.759 339.348 464.638 337.462ZM451.542 361.734C452.164 367.206 451.721 372.816 453.608 378.694C457.963 376.48 462.486 375.498 466.889 374.119C468.827 373.512 470.011 372.46 470.604 370.556C472.029 365.979 473.581 361.44 474.919 356.838C475.289 355.564 475.732 354.038 474.399 352.774C472.083 352.792 469.878 353.293 467.627 354.041C463.465 355.426 459.223 357.164 454.941 357.398C451.714 357.574 451.035 358.326 451.542 361.734Z" fill="#1C1A18"/>
<path d="M301.007 440.366C295.296 445.557 289.183 447.701 281.919 444.65C273.659 441.18 266.585 436.458 263.345 427.533C262.795 426.017 262.381 424.535 263.08 422.998C267.738 412.763 268.504 401.735 269.755 390.789C270.165 387.204 271.663 383.78 271.339 380.055C271.215 378.629 271.337 377.187 270.624 375.875C268.736 372.398 269.893 369.341 272.576 367.152C275.481 364.783 278.333 361.723 282.946 363.493C291.31 366.703 297.616 371.656 299.517 381.011C300.268 384.706 299.075 387.962 297.956 391.243C296.143 396.556 294.745 401.974 294.313 407.541C293.784 414.345 294.419 414.391 300.763 412.094C311.417 408.236 321.649 403.458 331.845 398.598C334.795 397.192 337.303 397.125 339.731 399.125C342.281 401.225 341.006 405.031 340.22 406.249C337.778 410.032 336.735 415.033 332.067 417.251C330.088 418.191 328.202 419.408 326.455 420.738C320.994 424.897 315.217 428.616 310.379 433.627C307.814 436.284 304.296 438.019 301.007 440.366Z" fill="#1C1A18"/>
<path d="M636.003 321.857C641.936 323.491 647.218 325.517 649.756 331.467C650.442 333.074 650.844 334.741 650.374 336.409C647.463 346.745 647.315 357.383 646.494 367.983C645.895 375.706 644.453 383.413 642.735 390.98C641.701 395.536 639.084 399.847 635.396 402.698C632.926 404.607 629.633 405.37 627.012 407.617C622.931 411.114 619.259 414.885 615.964 419.086C614.942 420.39 613.739 422.277 611.95 420.812C610.341 419.495 611.931 417.981 612.837 416.782C617.534 410.564 618.786 403.581 618.305 395.906C618.007 391.164 618.916 386.354 619.163 381.568C619.861 368.093 621.847 354.684 621.18 341.136C621.075 339.013 620.831 337.083 619.647 335.224C616.77 330.704 617.026 327.509 621.473 324.223C625.599 321.174 630.223 318.199 636.003 321.857Z" fill="#1C1A18"/>
<path d="M674.686 419.156C674.544 413.631 675.66 408.851 679.123 404.744C680.948 402.579 682.929 400.736 685.915 400.689C687.57 400.663 688.466 399.607 689.547 398.69C690.397 397.968 691.396 397.65 692.4 398.386C693.331 399.068 693.594 400.087 693.387 401.171C693.176 402.278 692.503 402.952 691.337 403.236C683.626 405.114 679.608 411.242 680.735 418.914C681.174 421.905 681.054 424.977 681.229 428.927C683.782 425.671 683.141 422.757 683.124 420.064C683.072 411.489 689.246 405.745 697.787 406.283C703.661 406.653 709.423 404.605 715.379 405.699C715.387 405.13 715.395 404.56 715.404 403.99C711.36 403.99 707.315 404.054 703.273 403.962C701.414 403.92 698.695 404.667 698.141 402.384C697.485 399.677 700.656 399.178 702.292 398.66C706.421 397.353 710.851 396.878 715.107 396.329C721.899 395.454 728.93 395.398 735.743 396.111C739.836 396.538 743.707 399.141 748.124 398.698C753.567 398.152 759.022 398.605 764.464 398.429C774.977 398.088 782.365 406.5 781.443 416.903C780.841 423.688 781.692 430.593 781.714 437.444C781.76 451.953 781.701 466.433 780.894 480.959C780.398 489.873 780.642 499.096 781.391 508.185C781.875 514.051 781.818 520.149 779.935 525.916C779.307 527.836 780.259 529.501 780.131 531.291C780.019 532.863 779.972 534.89 778.115 535.042C775.928 535.22 776.048 533.086 776.095 531.591C776.209 527.955 775.914 524.354 775.057 520.654C774.709 523.186 774.041 525.723 774.071 528.251C774.18 537.565 772.38 546.793 772.991 556.132C773.203 559.364 772.868 562.631 771.221 565.602C767.597 572.136 761.503 572.786 755.037 572.316C749.348 571.903 743.829 572.514 738.36 573.709C738.377 574.285 738.395 574.86 738.413 575.436C744.166 575.436 749.919 575.475 755.671 575.411C757.294 575.392 759.085 575.1 759.156 577.344C759.219 579.319 757.568 579.765 755.921 580.016C749.022 581.063 742.223 583.307 735.199 582.858C726.125 582.278 716.817 583.63 708.054 581.771C701.595 580.402 695.415 582.2 689.233 580.929C679.575 578.942 674.83 573.465 674.562 563.724C674.238 551.957 673.231 540.197 673.808 528.419C674.148 521.49 673.695 514.523 674.274 507.647C675.076 498.125 673.424 488.544 674.719 479.178C676.14 468.898 673.45 458.893 674.173 448.677C674.592 442.755 674.539 436.627 673.707 430.595C673.198 426.902 675.529 423.289 674.686 419.156ZM679.083 499.43C678.983 500.851 678.811 502.271 678.794 503.694C678.682 512.98 681.251 522.11 680.357 531.456C679.898 536.253 681.055 541.025 680.741 545.864C680.374 551.519 680.227 557.21 680.404 562.873C680.56 567.823 686.806 574.856 691.025 575.053C702.696 575.598 714.371 575.387 726.039 574.817C726.309 574.804 726.56 574.409 727.074 573.981C724.045 572.733 721.187 572.145 718.181 572.147C710.118 572.151 702.055 572.141 693.992 572.11C687.518 572.085 684.12 568.957 683.212 562.794C682.618 558.758 683.568 554.858 683.616 550.943C683.882 529.372 684.553 507.773 682.916 486.239C682.609 482.198 683.57 478.233 682.776 474.268C681.999 470.39 682.418 466.516 682.591 462.615C682.877 456.144 682.871 449.66 682.947 443.181C682.95 442.946 682.531 442.707 682.095 442.243C680.246 447.863 679.095 453.501 679.796 458.936C681.522 472.32 680.476 485.552 679.083 499.43ZM724.077 426.778C718.745 427.061 713.346 426.382 707.73 427.433C709.118 431.099 711.288 432.315 714.583 431.776C717.655 431.274 720.738 430.817 723.831 430.467C725.068 430.327 726.629 430.083 727.072 431.79C727.479 433.358 726.203 434.065 725.112 434.806C721.573 437.214 718.169 439.805 714.302 441.733C711.202 443.278 708.274 445.169 705.27 446.906C706.364 447.616 707.135 447.7 707.884 447.603C714.267 446.782 720.23 444.553 725.997 441.848C728.54 440.655 730.849 440.297 733.439 441.461C736.748 442.947 740.293 443.84 743.426 445.806C746.015 447.431 749.768 446.668 750.587 444.407C751.856 440.9 748.965 440.336 746.681 439.447C744.59 438.633 742.382 438.497 740.18 438.293C738.886 438.172 737.419 438.088 737.116 436.456C736.83 434.914 738.004 434.118 739.14 433.441C741.49 432.039 743.949 430.957 746.636 430.258C749.072 429.624 749.368 427.475 747.388 425.939C746.241 425.05 744.894 424.458 743.388 424.803C737.276 426.208 730.981 425.826 724.077 426.778ZM717.328 525.84C719.481 524.341 720.944 525.466 722.299 527.12C724.11 529.331 725.922 531.543 727.79 533.706C728.732 534.798 729.833 536.005 731.429 535.067C732.806 534.258 733.768 532.959 733.691 531.224C733.58 528.692 732.41 526.756 730.159 525.553C728.44 524.634 726.676 523.8 724.944 522.905C722.429 521.604 722.32 519.985 724.22 517.975C726.183 515.898 728.072 513.75 729.946 511.592C730.901 510.492 732.87 509.593 731.658 507.764C730.39 505.852 728.286 504.271 726.022 505.278C719.131 508.345 711.927 506.924 704.848 507.297C703.366 507.375 701.719 506.696 700.327 508.221C701.628 511.405 703.949 512.734 707.334 512.175C709.128 511.879 710.889 511.382 712.685 511.111C714.323 510.863 716.226 510.276 717.348 512C718.482 513.743 717.209 515.237 716.197 516.565C711.144 523.201 705.833 529.587 698.709 534.178C698.054 534.6 696.91 534.862 697.463 536.232C704.661 534.232 711.556 531.748 717.328 525.84ZM746.128 540.542C746.172 541.703 746.052 542.951 747.831 543.391C750.37 541.98 752.337 539.855 752.369 536.77C752.428 531.17 753.566 525.659 753.375 520.036C753.168 513.925 753.112 507.79 753.445 501.69C753.589 499.05 753.902 496.928 751.147 495.435C748.253 493.867 745.465 493.257 741.876 495.069C745.391 497.787 745.275 501.291 745.16 504.817C745.096 506.767 745.175 508.722 745.143 510.674C745.07 515.113 744.184 515.98 739.686 516.555C737.466 516.838 735.048 515.906 732.923 517.397C733.707 522.072 736.794 521.268 739.805 520.662C743.927 519.832 745.029 520.672 745.113 524.874C745.213 529.929 744.663 535.023 746.128 540.542ZM772.371 427.047C771.886 450.817 771.952 474.568 774.612 498.244C775.224 491.83 775.8 485.418 775.853 479.002C776.019 458.886 775.951 438.767 776.05 418.65C776.093 409.95 770.663 404.256 762.003 404.102C760.715 404.079 759.434 403.746 758.143 403.687C750.286 403.33 742.487 403.98 734.723 405.144C734.674 405.152 734.683 405.553 734.649 405.965C743.609 406.211 752.533 407.396 761.501 406.831C768.722 406.376 772.565 409.939 772.4 417.285C772.333 420.277 772.373 423.272 772.371 427.047ZM758.896 452.881C755.819 450.056 752.285 449.412 748.439 450.907C743.68 452.757 738.887 452.972 733.895 451.984C731.637 451.536 729.123 451.281 726.929 451.802C718.315 453.85 709.601 453.035 700.919 453.207C699.425 453.237 697.772 452.851 696.559 454.199C698.17 457.68 700.892 459.022 705.508 458.282C710.521 457.478 715.541 456.949 720.615 456.741C723.418 456.625 724.689 457.697 724.858 460.483C725.014 463.071 725.378 465.65 725.75 468.218C726.139 470.907 727.682 471.265 729.949 470.204C733.296 468.638 733.949 465.911 733.866 462.497C733.737 457.165 734.554 456.423 739.913 456.336C745.11 456.252 750.311 456.399 755.507 456.312C757.35 456.282 759.748 456.557 758.896 452.881ZM742.119 483.447C744.068 483.412 746.036 483.536 747.958 483.291C749.516 483.093 751.156 482.37 751.387 480.606C751.587 479.082 749.982 478.585 748.921 477.909C747.309 476.882 745.487 476.518 743.678 477.088C737.376 479.073 730.873 479.014 724.388 479.111C717.315 479.216 716.15 477.77 717.489 470.812C717.725 469.587 718.565 468.41 717.521 467.124C715.656 464.829 708.649 463.696 705.271 465.56C709.313 467.861 709.053 471.447 708.542 475.196C708.318 476.842 708.262 478.573 708.927 480.203C709.876 482.531 711.213 484.353 714.093 484.016C723.165 482.952 732.275 483.753 742.119 483.447ZM752.497 559.959C753.886 559.279 755.663 558.727 755.485 556.838C755.298 554.855 753.358 554.393 751.813 553.787C750.209 553.157 748.407 552.851 746.857 553.559C741.814 555.862 736.479 555.596 731.175 555.638C721.541 555.714 721.222 555.34 722.065 545.827C722.261 543.608 722.645 541.203 719.913 540.208C716.902 539.111 713.797 537.48 710.048 540.361C713.865 542.142 713.913 545.121 713.82 548.214C713.746 550.677 713.66 553.165 713.92 555.605C714.224 558.455 715.759 560.813 718.886 560.491C729.882 559.361 740.865 559.041 752.497 559.959ZM730.275 417.301C726.749 417.485 723.188 415.782 719.613 417.286C721.279 421.876 730.859 424.357 734.41 421.302C735.611 420.268 735.328 419.286 734.216 418.401C733.261 417.642 732.122 417.403 730.275 417.301ZM720.324 502.076C721.873 501.392 724.792 500.257 722.275 498.747C718.857 496.697 714.531 495.806 710.14 496.747C711.967 502.23 712.67 502.6 720.324 502.076Z" fill="#A31621"/>
<path d="M781.495 562.885C779.36 571.616 774.628 577.53 765.989 579.901C764.156 580.404 762.47 580.612 761.797 578.541C761.128 576.483 762.72 576.126 764.37 575.588C771.614 573.222 776.661 568.886 776.112 557.504C775.953 554.216 776.998 551.506 779.281 548.376C781.984 553.176 781.397 557.934 781.495 562.885Z" fill="#A31621"/>
<path d="M360.645 625.47L360.573 625.388C352.182 616.286 349.048 601.25 354.366 596.101C354.624 596.375 355.076 596.626 355.109 596.924C355.803 603.154 360.767 606.612 364.241 611.027C365.067 612.075 366.164 613.051 367.562 612.201C368.815 611.44 368.262 610.165 367.989 609.016C367.418 606.615 367.053 604.157 366.353 601.798C365.486 598.879 365.39 596.423 368.696 594.961C369.697 594.518 370.245 593.498 370.286 592.416C370.374 590.082 371.468 588.1 372.681 586.307C376.743 580.301 381.184 574.508 380.618 566.597C382.318 566.997 382.345 568.019 382.429 568.856C383.123 575.799 384.612 582.696 383.472 589.745C382.655 594.795 383.588 595.872 388.437 595.597C389.715 600.209 390.079 604.901 389.253 609.673C389.076 610.699 388.589 611.814 389.835 612.414C391.003 612.977 391.785 612.176 392.431 611.294C393.66 609.616 394.753 607.816 396.134 606.275C398.625 603.494 398.32 599.005 402.401 596.681C404.3 600.66 405.156 604.825 404.057 608.943C402.413 615.1 400.191 621.115 395.152 625.533C394.145 626.416 393.196 627.469 393.895 628.887C394.55 630.216 395.84 629.834 397.01 629.626C412.007 626.954 423.09 619.245 428.88 604.786C433.128 594.178 433.582 583.616 428.288 573.171C426.529 569.701 424.607 566.297 423.084 562.725C419.99 555.467 416.465 548.205 419.986 540.013C420.379 539.098 420.232 538.213 419.435 537.537C418.638 536.861 417.749 536.947 416.872 537.35C413.537 538.883 410.448 540.549 408.773 544.223C407.313 547.427 405.268 550.365 402.987 554.264C401.28 544.87 396.95 537.862 392.184 531.049C388.428 525.681 387.395 519.881 388.425 513.282C389.301 507.665 390.396 502.085 391.195 496.461C391.585 493.722 391.264 490.954 387.035 492.068C376 494.974 355.037 524.5 360.75 543.703C362 549.5 358.602 554.816 355.037 556.954C353.895 554.075 352.927 551.125 351.581 548.36C349.71 544.519 346.54 541.768 343.029 539.468C341.82 538.675 340.197 538.465 338.976 539.448C337.517 540.621 338.717 541.79 339.407 542.834C340.319 544.211 340.352 545.746 340.503 547.313C341.352 556.161 335.344 562.071 331.083 568.546C325.387 577.2 321.808 585.868 324.495 596.548C329.044 614.629 339.233 626.546 358.32 629.56C359.599 629.762 361.022 630.429 361.857 629.03C362.638 627.721 361.679 626.638 360.645 625.47Z" fill="#A31621"/>
<path d="M224.274 540.007C236.464 540.123 248.29 540.565 260.098 540.286C272.03 540.003 283.986 540.222 295.899 539.085C299.768 538.715 303.704 538.651 307.503 539.929C310.888 541.069 312.352 543.821 311.822 548.004C311.391 551.402 308.758 550.899 306.482 551.136C297.92 552.03 289.348 551.139 280.782 551.203C249.179 551.44 217.572 551.196 185.967 551.131C176.601 551.112 167.236 551.105 157.871 551.05C154.571 551.031 151.852 549.489 149.488 547.361C148.237 546.235 147.053 544.868 147.773 542.93C148.532 540.885 150.215 540.489 152.191 540.494C163.382 540.527 174.624 541.181 185.752 540.34C198.501 539.376 211.208 541.584 224.274 540.007Z" fill="#A31621"/>
<path d="M545.188 550.965C516.196 551.015 487.594 551.073 458.992 551.117C455.87 551.122 452.731 551.239 449.633 550.947C446.409 550.643 444.192 548.76 444.368 545.34C444.524 542.304 446.156 540.51 449.597 540.271C464.676 539.225 479.762 540.014 494.84 539.961C507.303 539.917 519.765 540.243 532.235 540.043C542.362 539.88 552.497 540.403 562.63 540.474C575.491 540.565 588.352 540.47 601.213 540.545C603.673 540.559 606.882 539.796 607.492 543.465C607.994 546.483 603.747 550.62 600.547 550.64C582.224 550.752 563.901 550.86 545.188 550.965Z" fill="#A31621"/>
<path d="M526.438 567.293C508.362 567.32 490.677 567.376 472.993 567.372C470.269 567.371 467.529 567.23 464.826 566.904C462.111 566.576 459.992 565.147 460.203 562.131C460.407 559.209 462.614 557.9 465.324 557.718C469.343 557.447 473.376 557.288 477.404 557.257C488.193 557.174 499.014 556.649 509.765 557.278C528.097 558.351 546.393 556.391 564.693 557.252C572.198 557.606 579.727 557.087 587.218 558.057C589.556 558.359 592.221 557.81 592.38 561.233C592.515 564.154 589.715 566.83 586.526 566.719C580.268 566.501 574.048 567.212 567.811 567.267C554.151 567.388 540.489 567.303 526.438 567.293Z" fill="#A31621"/>
<path d="M206.265 557.665C215.712 558.098 224.87 557.878 233.861 557.58C251.418 557 268.964 557.668 286.5 557.009C289.035 556.914 291.44 556.992 293.249 559.186C295.375 561.766 294.879 564.389 291.897 565.915C290.458 566.652 288.903 566.695 287.335 566.76C264.454 567.704 241.559 567.4 218.669 567.505C203.706 567.573 188.742 567.399 173.778 567.366C170.988 567.359 168.287 567.072 166.027 565.283C164.631 564.179 163.724 562.739 164.435 560.849C165.072 559.158 166.483 558.568 168.166 558.57C178.677 558.586 189.161 556.791 199.706 558.221C201.706 558.492 203.828 557.877 206.265 557.665Z" fill="#A31621"/>
<path d="M304.328 637.081C304.985 635.763 305.963 635.605 307.055 635.539C338.371 633.665 369.722 634.417 401.061 634.296C410.561 634.26 420.071 634.629 429.56 634.307C435.994 634.089 442.168 636.254 448.579 635.746C449.677 635.658 450.738 636.121 450.954 637.334C451.19 638.66 449.996 638.873 449.12 639.447C444.718 642.328 439.966 642.216 434.908 642.078C424.513 641.795 414.099 642.327 403.692 642.364C382.867 642.438 362.041 642.56 341.218 642.345C331.992 642.25 322.764 641.789 313.532 641.597C310.1 641.526 306.581 640.43 304.328 637.081Z" fill="#A31621"/>
<path d="M544.783 573.914C548.779 574.05 552.415 574.101 556.051 574.166C557.22 574.187 558.417 574.095 559.551 574.314C561.976 574.782 564.176 575.928 564.632 578.521C565.105 581.204 562.788 582.284 560.868 583.365C559.107 584.355 557.123 584.504 555.171 584.335C542.576 583.246 529.956 583.937 517.349 583.753C504.413 583.564 491.476 583.409 478.539 583.238C478.019 583.231 477.495 583.241 476.979 583.188C474.263 582.906 470.867 582.958 470.389 579.618C469.883 576.077 473.374 575.189 475.934 574.078C476.965 573.63 478.227 573.559 479.381 573.575C494.194 573.772 509.003 573.208 523.827 573.788C530.658 574.055 537.553 573.234 544.783 573.914Z" fill="#A31621"/>
<path d="M226.437 583.069C217.851 583.167 209.648 582.755 201.461 583.543C198.993 583.78 196.468 583.715 194.346 582.109C192.78 580.922 191.011 579.646 191.812 577.333C192.608 575.038 194.462 573.799 196.911 573.781C213.951 573.658 230.992 573.569 248.032 573.48C256.491 573.435 264.95 573.43 273.409 573.372C277.083 573.347 280.696 573.571 284.091 575.178C285.611 575.897 286.707 576.934 286.705 578.718C286.703 580.693 285.452 581.741 283.759 582.418C281.891 583.165 279.931 583.115 277.981 583.114C260.93 583.106 243.879 583.086 226.437 583.069Z" fill="#A31621"/>
<path d="M373.313 645.402C387.104 645.373 400.505 645.352 413.906 645.304C416.782 645.294 419.637 645.449 422.414 646.225C424.124 646.703 425.736 647.545 425.484 649.647C425.275 651.393 423.896 652.299 422.212 652.513C419.25 652.889 416.276 653.432 413.306 653.436C388.976 653.469 364.646 653.389 340.316 653.36C338.35 653.358 336.424 653.224 334.558 652.542C332.923 651.944 331.875 650.831 331.926 649.077C331.981 647.147 333.508 646.351 335.097 646.208C339.368 645.822 343.656 645.499 347.942 645.439C356.267 645.322 364.595 645.402 373.313 645.402Z" fill="#A31621"/>
<path d="M280.623 599.133C274.558 600.886 268.728 599.523 262.939 599.689C253.975 599.946 245.038 599.533 236.089 599.554C234.922 599.557 233.717 599.646 232.595 599.397C230.112 598.847 228.121 597.309 228.099 594.728C228.077 592.129 230.373 590.986 232.636 590.705C236.364 590.242 240.135 589.973 243.892 589.917C252.971 589.783 262.046 589.994 271.129 589.322C274.252 589.091 277.591 590.01 280.638 590.999C284.225 592.164 284.232 595.649 280.623 599.133Z" fill="#A31621"/>
<path d="M524.049 593.989C523.01 598.49 519.767 600.123 515.944 600.194C504.239 600.411 492.527 600.364 480.818 600.33C477.485 600.321 473.996 597.503 473.947 595.084C473.895 592.528 477.011 589.935 480.743 589.962C491.533 590.042 502.332 589.371 513.114 590.317C514.791 590.464 516.51 590.506 518.177 590.311C521.043 589.976 522.991 590.965 524.049 593.989Z" fill="#A31621"/>
<path d="M380.302 664.481C377.227 664.623 374.5 664.738 371.777 664.918C366.793 665.247 361.934 664.889 357.346 662.652C355.866 661.931 353.725 661.694 354.111 659.451C354.459 657.427 356.448 657.168 358.132 657.058C362.02 656.806 365.917 656.685 369.811 656.54C378.778 656.207 387.744 656.014 396.695 656.881C398.407 657.047 400.284 657.173 400.544 659.369C400.781 661.36 398.908 661.684 397.658 662.563C392.311 666.321 386.414 664.711 380.302 664.481Z" fill="#A31621"/>
<path d="M341.027 126.994C343.654 126.512 344.437 127.268 344.077 129.773C343.885 131.105 343.368 132.337 342.981 133.609C342.839 134.076 342.775 134.432 343.413 134.628C344.747 135.04 345.019 135.544 344.689 136.96C344.214 138.995 343.09 140.659 341.527 142.015C339.302 143.944 336.662 145.019 333.807 145.635C333.232 145.759 332.606 145.758 332.111 146.123C332.147 146.692 332.615 146.779 332.942 146.965C340.442 151.22 345.206 157.687 348.212 165.609C350.178 170.792 350.821 176.239 351.607 181.667C352.356 186.836 353.705 191.801 357.219 195.889C360.866 200.132 365.643 202.481 370.963 203.863C374.939 204.896 379.004 205.237 383.102 205.377C386.531 205.494 389.857 206.15 392.889 207.883C393.233 208.08 393.576 208.32 394.159 208.267C394.083 207.131 394.036 205.989 393.927 204.852C392.649 191.469 399.314 173.544 413.141 165.118C426.566 156.936 443.686 158.78 454.45 170.693C459.106 175.845 461.798 181.959 462.691 188.832C463.221 192.902 463.071 196.964 462.229 200.99C462.166 201.291 462.231 201.659 461.825 201.82C461.283 201.68 461.319 201.143 461.166 200.769C458.549 194.368 454.705 188.888 448.769 185.166C439.402 179.292 429.859 179.663 420.299 184.775C419.048 185.443 417.872 186.236 416.761 187.117C416.387 187.413 416.063 187.772 415.828 188.291C416.47 187.948 417.113 187.607 417.754 187.262C422.094 184.92 426.672 183.444 431.662 183.525C441.663 183.688 449.116 188.239 453.561 197.062C458.36 206.587 458.062 216.21 452.695 225.547C451.516 227.597 449.964 229.355 448.154 230.876C447.745 231.221 447.369 231.703 446.573 231.672C446.91 229.865 447.407 228.133 447.617 226.348C448.393 219.72 447.397 213.503 443.026 208.223C439.186 203.585 434.108 201.719 428.121 202.271C427.96 202.286 427.798 202.309 427.642 202.348C427.575 202.365 427.521 202.433 427.381 202.537C428.23 203.138 429.244 203.025 430.131 203.281C436.903 205.237 440.97 209.566 441.797 216.598C442.658 223.912 440.865 230.526 435.994 236.184C435.135 237.181 434.108 237.995 432.654 238.603C432.918 236.645 433.461 235.005 433.739 233.312C435.076 225.164 430.169 218.776 421.947 218.059C420.043 217.893 420.043 217.893 419.049 218.344C419.399 219.226 419.786 220.103 420.101 221.005C422.012 226.472 421.481 231.901 419.265 237.075C412.754 252.277 401.223 261.532 385.065 265.09C384.19 265.283 383.751 265.619 383.588 266.533C382.81 270.885 380.503 274.291 376.909 276.829C375.85 277.577 375.26 278.481 375.052 279.78C374.203 285.075 373.288 290.36 372.364 295.643C372.15 296.861 373.032 297.096 373.812 297.36C375.689 297.994 377.596 298.542 379.416 299.339C380.245 299.702 381.014 300.144 381.475 300.959C381.816 301.562 382.17 302.208 381.715 302.885C381.229 303.609 380.529 303.37 379.846 303.203C377.132 302.539 374.405 301.97 371.592 301.914C370.524 301.893 369.587 302.191 368.767 302.832C366.637 304.496 364.342 305.445 361.553 304.856C360.283 304.588 359.07 304.96 357.976 305.692C357.202 306.209 356.381 306.655 355.472 306.9C354.989 307.031 354.479 307.101 354.119 306.666C353.709 306.172 353.944 305.643 354.232 305.205C354.86 304.248 355.74 303.528 356.633 302.825C356.967 302.563 357.453 302.446 357.597 301.856C356.288 301.473 355.04 301.788 353.801 302.075C351.938 302.506 350.197 303.277 348.463 304.06C348.168 304.193 347.869 304.323 347.562 304.421C346.933 304.621 346.273 304.788 345.741 304.243C345.224 303.713 345.495 303.117 345.722 302.547C345.809 302.329 345.994 302.134 345.865 301.807C344.985 301.51 344.146 301.835 343.334 302.152C341.979 302.683 340.658 303.3 339.303 303.833C338.703 304.069 338.004 304.298 337.544 303.599C337.114 302.944 337.428 302.265 337.902 301.84C340.664 299.361 343.547 297.079 347.529 297.001C349.833 296.956 352.14 297.087 354.413 296.498C356.078 296.066 357.241 295.209 357.734 293.505C359.046 288.97 360.229 284.402 361.343 279.815C361.463 279.323 361.358 278.97 360.9 278.691C355.513 275.419 352.127 270.407 349.147 265.08C348.5 263.925 347.677 263.3 346.465 262.87C337.675 259.757 329.35 255.757 322.008 249.919C312.99 242.75 307.096 233.659 304.916 222.292C303.191 213.293 304.559 204.637 307.878 196.203C309.465 192.171 311.613 188.411 313.53 184.539C314.138 183.31 314.651 182.032 315.169 180.761C315.326 180.376 315.617 179.966 315.319 179.484C314.733 179.494 314.41 179.957 313.994 180.247C311.425 182.038 308.65 182.908 305.513 182.12C301.185 181.033 298.802 176.843 299.786 172.06C300.448 168.848 302.02 166.111 304.22 163.709C304.575 163.322 304.937 162.942 305.287 162.551C305.335 162.498 305.338 162.403 305.395 162.218C304.183 161.172 302.635 161.095 301.136 160.902C298.638 160.58 296.125 160.64 293.614 160.65C293.068 160.652 292.398 160.842 292.089 160.202C291.791 159.586 292.311 159.127 292.624 158.69C294.79 155.668 297.693 153.503 300.899 151.699C301.357 151.441 301.82 151.19 302.273 150.924C302.372 150.866 302.438 150.753 302.532 150.652C302.517 150.538 302.545 150.38 302.479 150.312C298.437 146.09 299.905 138.277 302.919 134.332C304.233 132.613 305.792 131.158 307.353 129.693C308.709 128.42 310.079 127.161 311.472 125.928C311.988 125.472 312.608 125.026 313.334 125.411C313.968 125.748 313.817 126.446 313.89 127.041C313.968 127.678 313.46 128.606 314.261 128.885C314.958 129.128 315.421 128.281 315.884 127.805C317.351 126.299 318.76 124.737 320.231 123.236C321.114 122.334 322.126 121.587 323.369 121.229C324.793 120.818 325.795 121.598 325.711 123.074C325.663 123.915 325.546 124.751 325.445 125.729C326.298 125.676 326.865 125.222 327.44 124.835C329.284 123.592 331.069 122.261 333.157 121.419C333.927 121.109 334.706 120.977 335.528 121.003C337.121 121.054 337.797 121.947 337.342 123.499C336.933 124.895 336.39 126.245 335.77 127.563C335.586 127.955 335.324 128.331 335.404 129.095C337.307 128.381 339.118 127.703 341.027 126.994ZM337.889 228.306C335.362 224.252 334.456 219.725 334.141 215.027C333.283 216.537 332.983 220.641 333.424 223.291C334.556 230.105 337.929 235.645 343.376 239.813C352.495 246.79 362.933 248.986 374.202 247.661C380.841 246.881 386.927 244.606 392.261 240.506C392.591 240.251 393.071 240.094 393.092 239.534C392.519 239.251 392.065 239.594 391.609 239.799C380.651 244.726 369.368 245.533 357.832 242.275C349.646 239.962 342.65 235.843 337.889 228.306ZM366.505 296.35C367.283 295.665 367.535 294.722 367.715 293.769C368.461 289.804 368.896 285.803 369.016 281.77C369.031 281.251 369.104 280.66 368.322 280.602C367.65 280.553 367.076 280.573 366.802 281.411C365.345 285.854 363.909 290.303 362.67 294.813C362.363 295.928 362.903 296.532 363.836 296.855C364.714 297.159 365.596 297.082 366.505 296.35ZM313.336 153.436C313.943 154.383 314.807 154.712 315.843 154.301C316.696 153.963 317.191 153.269 317.17 152.317C317.147 151.298 316.541 150.703 315.621 150.375C314.826 150.091 314.174 150.412 313.641 150.943C312.975 151.606 312.851 152.412 313.336 153.436Z" fill="#A31621"/>
</svg>
