<svg width="800" height="752" viewBox="0 0 800 752" fill="none" xmlns="http://www.w3.org/2000/svg">
<path d="M706.176 383.352C703.065 378.508 702.401 382.714 702.064 384.293C701.28 387.96 699.286 389.787 695.733 389.056C692.389 388.369 693.041 385.303 692.965 382.838C691.465 334.312 681.027 287.915 659.888 244.08C638.686 200.113 608.532 163.472 570.281 133.206C542.624 111.324 511.475 96.2702 478.873 83.6004C449.251 72.0888 418.127 70.2997 386.988 67.516C363.602 65.4254 340.721 68.5517 318.462 73.79C281.309 82.5333 245.407 95.3466 213.265 116.901C208.802 119.894 204.869 124.179 198.576 123.899C196.134 123.791 195.717 127.145 194.167 128.703C191.366 131.52 189.729 136.42 183.928 134.085C181.454 133.089 180.341 135.982 179.807 137.601C177.788 143.715 173.095 147.585 168.705 151.697C136.377 181.984 111.727 217.803 93.3929 257.922C77.6562 292.359 69.8856 328.889 66.5053 366.538C64.5544 388.267 66.8631 409.59 69.1257 431.115C71.5676 454.345 79.8492 475.725 87.5486 497.293C95.3747 519.215 106.402 539.624 119.04 559.25C150.09 607.466 191.17 644.657 241.41 671.82C261.186 682.513 282.01 691.034 303.725 696.889C314.841 699.886 326.435 701.101 337.799 703.201C341.288 703.846 345.452 704.333 341.341 709.559C343.917 711.26 346.663 710.17 349.329 710.199C354.242 710.253 359.101 705.784 364.159 710.235C365.154 711.111 366.831 709.594 368.144 708.767C374.942 704.486 382.511 705.401 389.213 707.864C396.681 710.609 402.57 711.573 410.038 706.89C415.334 703.57 422.725 702.203 429.589 704.353C430.809 704.736 431.724 705.246 433.069 704.729C460.21 694.288 488.629 687.527 514.657 673.766C555.7 652.065 590.845 623.518 619.896 587.462C637.212 565.971 652.565 543.17 662.787 517.28C663.513 515.441 664.174 513.439 666.424 512.635C668.868 513.303 668.431 515.457 668.043 516.926C665.377 527.035 666.525 537.067 668.668 547.007C669.378 550.296 668.848 552.803 667.134 555.533C653.459 577.31 639.442 598.685 621.926 617.835C610.646 630.167 600.013 643.354 586.148 652.392C571.75 661.778 559.888 675.213 542.581 680.242C537.056 681.847 534.137 687.845 528.968 690.806C511.118 701.031 492.291 709.3 472.628 714.576C456.012 719.035 439.59 724.681 421.926 725.806C411.941 726.442 401.508 725.512 392.269 727.273C378.985 729.804 366.218 727.723 353.479 727.375C340.754 727.027 327.659 725.627 315.003 721.203C305.296 717.811 294.403 717.814 284.496 714.051C262.045 705.523 239.486 697.81 219.089 684.12C208.392 676.939 197.349 669.83 186.135 663.245C181.499 660.523 180.522 654.057 175.714 652.773C170.126 651.282 166.309 647.983 162.974 644.033C154.021 633.428 143.729 624.051 134.204 614.051C125.8 605.23 118.281 595.879 111.426 586.112C104.593 576.378 96.9962 567.193 91.4077 556.333C87.1738 548.104 84.9621 538.264 77.398 531.786C76.6745 531.166 76.2328 530.123 75.8657 529.195C65.8102 503.775 54.2416 478.836 49.6822 451.596C47.1498 436.467 45.1237 421.244 43.252 406.016C42.2628 397.967 45.6925 390.222 45.5916 382.067C45.4991 374.589 46.1077 367.478 43.7313 359.907C41.5168 352.851 44.9432 345.044 45.9507 337.573C48.4846 318.787 52.2743 300.236 59.2193 282.595C66.262 264.706 74.0459 247.122 82.18 229.657C87.9449 217.278 95.1653 205.84 101.226 193.718C104.479 187.213 109.025 181.329 114.77 176.585C118.272 173.693 121.389 170.721 122.843 165.987C123.748 163.037 126.116 160.101 128.603 158.147C141.934 147.674 152.713 134.444 165.954 123.893C170.511 120.262 175.049 116.722 180.657 114.74C182.744 114.003 185.213 112.934 186.385 111.24C196.827 96.1375 213.312 89.6728 228.596 81.6973C253.746 68.5737 280.003 58.0297 307.844 52.2224C316.148 50.4901 324.57 49.1997 332.821 47.1093C333.309 46.9858 333.884 46.7401 334.303 46.8851C344.59 50.4446 353.985 43.2924 363.828 44.2623C373.98 45.2626 384.099 43.1556 393.94 44.1152C412.76 45.9502 431.771 46.0717 450.197 52.8649C458.695 55.9977 468.352 57.4414 477.481 59.7751C494.413 64.1038 509.596 72.0441 524.421 80.1975C547.502 92.8918 569.657 107.307 589.445 125.138C596.554 131.544 603.943 137.611 610.327 144.766C612.037 146.682 614.52 148.186 612.873 151.842C610.28 157.594 615.073 160.304 618.918 159.783C623.405 159.175 625.551 161.024 627.834 163.638C648.716 187.538 666.417 213.608 679.583 242.51C689.919 265.197 697.308 289.157 701.472 313.563C703.725 326.772 708.318 339.66 708.472 353.294C708.518 357.283 708.327 360.579 705.547 363.749C702.302 367.451 701.536 371.232 706.954 374.166C711.162 376.445 710.742 380.459 709.509 384.115C708.816 386.171 707.245 385.503 706.176 383.352ZM159.837 625.691C152.204 618.583 146.028 609.978 136.682 602.728C150.217 623.391 192.959 660.339 212.596 668.325C194.996 654.695 177.345 641.129 159.837 625.691ZM690.913 296.748C687.714 291.757 689.964 284.541 683.737 279.002C682.349 289.696 688.339 296.427 690.749 305.729C692.989 301.906 691.436 299.866 690.913 296.748Z" fill="#A31621"/>
<path d="M193.151 143.681C225.186 117.208 260.905 99.118 300.412 88.2122C314.35 84.3647 328.537 82.5003 342.839 81.6662C358.409 80.7581 373.725 77.7617 389.488 78.0581C433.672 78.8891 475.231 89.4886 514.57 109.283C582.422 143.424 629.308 197.28 660.211 265.749C671.48 290.719 677.514 317.339 681.167 344.466C681.33 345.681 681.14 346.966 680.954 348.194C680.894 348.594 680.321 348.917 679.576 349.707C676.658 348.577 674.123 347.268 673.513 343.365C668.889 313.764 658.6 285.987 647.737 258.184C642.667 245.21 633.377 234.877 628.996 221.676C627.416 216.915 621.576 213.717 618.269 209.358C593.112 176.211 563.242 148.274 527.392 127.01C514.15 119.156 500.053 112.979 485.864 106.962C441.493 88.1461 395.026 84.0539 347.782 88.3172C302.256 92.4255 260.65 108.832 222.339 133.563C183.532 158.614 153.857 192.623 128.143 230.468C112.518 253.464 103.893 279.61 94.2627 305.311C93.3154 307.84 93.0245 310.691 90.4668 312.842C88.2123 311.05 87.7498 308.757 88.2549 306.21C93.0938 281.805 102.432 259.114 114.161 237.273C133.826 200.652 161.144 170.548 193.151 143.681Z" fill="#A31621"/>
<path d="M167.381 593.156C175.158 600.37 182.663 607.103 190.09 613.921C230.496 651.015 278.375 672.849 331.863 682.848C352.183 686.646 373.023 686.577 393.43 689.177C403.723 690.489 413.521 691.576 422.942 688.414C445.715 680.772 468.873 674.202 490.939 664.474C515.08 653.831 537.866 640.706 558.544 624.538C587.598 601.82 611.507 574.203 630.267 542.282C635.13 534.008 640.086 525.786 645.163 517.642C646.881 514.887 648.121 509.933 652.762 512.739C656.486 514.991 653.103 518.231 651.964 520.65C631.266 564.643 601.38 601.189 563.128 631.149C537.282 651.392 509.726 668.576 478.543 679.046C419.176 698.979 359.106 702.749 298.597 684.249C223.204 661.198 165.679 614.857 123.335 548.853C102.674 516.647 87.9659 481.989 80.4006 444.458C76.8636 426.911 73.8817 409.219 75.0575 391.155C75.2794 387.746 75.1075 384.221 78.3389 381.158C81.3083 384.647 81.3205 388.479 81.6345 392.043C84.3904 423.329 89.8976 454.001 99.9207 483.887C112.606 521.711 134.686 553.701 160.059 583.793C162.496 586.683 164.74 589.736 167.381 593.156Z" fill="#A31621"/>
<path d="M82.7906 323.08C84.3681 320.34 82.9198 316.83 86.9901 314.971C89.6859 320.546 86.6634 324.413 84.1412 328.643C81.8101 327.068 82.5905 325.252 82.7906 323.08Z" fill="#A31621"/>
<path d="M215.36 404.421C225.689 403.643 235.661 402.99 245.608 402.059C251.083 401.547 262.547 407.12 264.8 413.859C265.537 416.066 264.364 417.697 262.786 418.943C258.71 422.159 254.101 424.145 248.828 424.033C244.07 423.933 239.205 425.053 234.586 422.875C233.964 422.581 233.036 422.796 232.282 422.941C221.453 425.033 210.284 425.003 199.344 428.464C201.563 429.586 204.484 430.118 205.655 431.84C208.677 436.284 213.013 435.823 217.379 436.921C226.281 439.159 234.119 443.496 236.103 453.964C237.095 459.196 235.853 463.824 233.092 468.047C226.516 478.106 216.713 483.29 205.274 485.836C201.601 486.653 197.959 487.56 194.239 488.229C184.934 489.902 176.299 488.566 167.734 484.545C160.084 480.952 156.452 473.407 159.837 465.745C162.326 460.111 165.836 455.095 170.235 450.756C174.959 446.099 179.763 441.524 184.497 436.877C187.529 433.9 190.849 431.326 194.666 429.336C183.339 431.683 171.886 433.025 160.796 436.155C160.047 436.366 159.024 436.954 158.576 436.667C154.658 434.157 152.974 438.245 150.227 439.115C141.782 441.788 134.505 448.294 125.022 447.423C119.032 446.873 113.216 445.491 109.743 439.681C109.015 438.463 108.048 437.384 107.164 436.262C103.013 430.998 105.069 423.819 111.328 421.422C114.358 420.261 117.237 418.704 120.435 417.984C122.727 417.467 125.001 416.833 127.164 418.482C128.183 419.26 129.344 418.951 130.53 418.695C143.611 415.87 156.694 413.054 169.8 410.346C172.119 409.867 173.645 408.75 175.165 406.931C178.481 402.964 181.876 399.1 184.351 393.945C179.184 395.138 174.291 395.811 169.73 397.421C161.394 400.364 154.82 397.171 149.127 391.806C142.995 386.028 143.545 378.096 149.602 372.497C151.677 370.579 153.36 368.237 155.191 366.125C150.583 359.844 151.664 356.163 158.86 353.412C161.16 352.533 162.476 350.609 164.217 348.941C159.905 349.443 155.828 349.366 151.72 347.866C145.874 345.731 142.394 341.566 140.055 336.071C138.227 331.777 140.047 327.894 142.288 324.815C144.726 321.465 149.315 319.983 153.169 321.128C157.714 322.478 161.967 321.916 166.258 321.295C177.537 319.665 188.957 318.813 200.024 315.945C204.649 314.746 208.946 314.215 213.729 315.734C219.002 317.407 220.819 321.512 222.585 325.8C223.371 327.709 219.743 333.082 217.258 334.315C215.98 334.949 214.665 335.685 213.289 335.919C204.937 337.338 197.23 341.184 188.814 342.336C187.41 342.528 186.019 342.857 184.842 343.761C185.695 347.481 187.721 348.021 191.182 347.232C199.769 345.272 208.295 342.685 217.313 343.538C221.399 343.925 225.073 346.156 229.376 345.79C231.022 345.65 233.095 347.013 233.094 349.132C233.094 351.343 230.981 351.881 229.23 352.357C227.48 352.833 225.627 352.956 223.9 353.493C220.507 354.55 217.397 355.849 214.423 358.2C210.343 361.425 204.733 361.349 199.683 362.356C194.343 363.421 189.027 364.605 183.7 365.737C182.729 365.944 182.131 366.608 181.66 367.419C180.299 369.766 178.943 372.116 177.593 374.451C178.563 375.838 179.792 375.307 180.859 375.106C190.713 373.244 200.357 370.591 209.598 366.69C216.342 363.843 222.479 364.541 228.308 368.838C232.397 371.853 230.902 379.359 225.57 382.016C223.019 383.287 220.353 384.364 217.658 385.297C215.107 386.181 212.325 386.399 209.648 388.218C214.788 394.944 207.985 399.059 205.743 404.575C208.975 405.756 211.99 404.324 215.36 404.421ZM192.247 456.114C190.508 457.696 188.905 459.348 188.057 461.641C186.739 465.206 187.831 467.477 191.612 467.339C197.628 467.119 203.507 465.816 208.258 461.702C210.279 459.952 211.127 457.752 209.617 455.096C206.195 449.076 200.583 448.096 195.721 452.736C194.687 453.722 193.677 454.734 192.247 456.114Z" fill="#1C1A18"/>
<path d="M431.988 408.726C451.438 404.106 470.845 401.498 490.404 399.612C496.82 398.994 503.314 399.362 509.722 397.659C516.576 395.837 527.965 403.866 529.161 410.578C529.406 411.952 528.952 413.234 528.012 414.165C524.04 418.101 519.619 419.865 513.652 419.221C504.393 418.222 494.986 416.35 485.705 419.647C483.419 420.459 481.952 421.212 483.111 424.013C483.915 425.956 483.86 428.074 483.481 430.168C482.206 437.218 482.925 444.412 481.91 451.512C481.507 454.33 482.493 457.391 482.578 460.391C482.828 469.204 479.949 476.406 472.414 481.382C470.77 482.468 470.997 485.765 468.108 485.226C465.344 484.71 466.516 481.661 465.193 480.163C464.68 479.582 464.215 478.559 463.642 478.493C458.693 477.929 457.863 473.626 456.389 470.242C454.819 466.641 455.218 462.764 455.887 458.813C457.747 447.817 458.738 436.728 457.75 424.959C452.646 426.616 447.57 426.403 442.91 428.568C436.203 431.684 429.31 434.405 422.656 437.625C419.391 439.206 416.042 439.631 412.806 438.819C405.721 437.042 399.594 433.496 395.547 427.123C392.961 423.052 394.422 417.917 398.513 415.362C401.743 413.345 405.053 411.662 408.836 411.023C409.475 410.916 410.196 410.464 410.722 410.639C417.986 413.065 424.676 409.253 431.988 408.726Z" fill="#1C1A18"/>
<path d="M383.233 410.799C379.905 411.809 376.689 411.17 373.695 412.377C369.402 414.108 367.832 417.113 367.229 421.674C365.945 431.396 367.812 440.69 369.684 450.09C370.608 454.733 369.381 459.179 366.039 462.751C363.729 465.22 362.347 468.348 359.922 470.768C358.245 472.443 356.97 472.771 354.843 471.661C351.943 470.147 349.4 468.18 346.855 466.204C343.004 463.214 342.632 458.466 341.815 454.304C341.054 450.431 339.748 446.076 342.743 442.252C343.411 441.398 342.883 440.254 342.715 439.224C342.293 436.628 342.701 434.21 344.185 431.987C346.601 433.041 345.402 435.292 347.275 437.532C347.118 434.326 347.8 431.921 345.349 430.446C343.25 429.182 342.65 427.416 342.575 425.242C342.079 410.801 342.087 396.291 343.638 381.992C344.598 373.14 344.352 364.398 344.62 355.611C344.719 352.376 343.806 349.141 342.239 346.271C340.796 343.629 341.199 341.296 342.664 338.934C345.557 334.27 352.447 332.158 357.638 334.147C360.938 335.411 364.075 336.892 366.913 339.019C372.485 343.193 373.536 347.657 371.698 354.475C370.36 359.442 369.709 364.682 369.459 369.835C369.094 377.337 369.365 384.87 369.365 392.831C373.944 391.668 378.394 391.14 382.308 389.403C388.25 386.765 392.978 389.313 397.567 392.112C399.782 393.464 401.379 396.003 402.927 398.233C404.955 401.156 402.903 406.474 399.237 408.508C396.128 410.233 392.76 410.23 389.358 410.104C387.403 410.031 385.452 410.078 383.233 410.799Z" fill="#1C1A18"/>
<path d="M642.68 463.507C645.446 471.541 633.202 482.662 624.875 479.036C620.933 477.32 617.122 477.187 613.592 478.923C606.995 482.165 603.192 477.864 598.985 474.303C598.227 473.662 597.984 472.438 596.367 472.274C596.576 476.607 590.931 477.78 591.082 482.361C591.11 483.215 589.667 483.261 588.744 482.863C579.359 478.821 571.242 467.509 571.197 457.143C571.152 446.612 571.84 436.146 572.124 425.65C572.303 419.042 579.885 413.971 586.117 416.165C588.833 417.121 591.455 418.192 593.405 420.49C595.512 422.972 596.477 425.467 594.773 428.662C593.34 431.347 592.943 434.276 594.237 437.87C601.694 431.884 610.806 430.365 619.107 426.888C622.03 425.664 620.678 422.96 620.373 421.041C619.659 416.551 623.728 410.649 628.282 410.452C635.143 410.156 641.077 411.97 645.303 417.971C647.808 421.528 648.602 424.89 647.292 429.254C645.274 435.979 645.121 443.094 644.406 450.058C643.954 454.46 642.433 458.704 642.68 463.507ZM615.755 446.276C609.665 448.758 603.943 452.119 597.562 453.899C596.537 454.185 595.964 454.769 595.946 455.796C595.908 457.943 595.934 460.091 595.934 462.238C599.309 459.482 602.888 459.963 606.306 459.587C609.261 459.263 612.173 458.501 615.085 457.846C616.383 457.555 617.596 456.955 617.903 455.47C618.594 452.122 620.268 448.882 619.124 445.241C617.966 444.867 617.145 445.616 615.755 446.276Z" fill="#1C1A18"/>
<path d="M569.634 396.447C563.606 403.13 558.798 410.389 553.973 417.619C551.409 421.459 547.9 423.963 543.896 425.961C543.052 426.383 541.954 426.747 541.289 426.137C538.165 423.274 535.567 425.36 532.908 426.868C531.782 427.507 530.686 428.598 529.377 427.668C527.872 426.599 528.511 425.184 529.148 423.827C530.197 421.593 528.336 419.397 529.215 416.982C530.799 412.634 532.998 408.747 535.92 405.188C545.415 393.619 553.828 381.235 562.825 369.29C563.187 368.809 563.788 368.378 563.389 367.365C559.224 368.235 555.398 370.108 551.588 371.91C546.502 374.316 542.093 373.702 537.985 369.85C534.152 366.255 530.404 362.79 530.605 356.816C530.747 352.575 535.683 347.251 540.072 347.681C550.968 348.748 561.216 345.58 571.385 342.697C580.24 340.187 588.148 340.136 595.31 346.541C600.532 351.211 602.105 358.025 595.813 364.097C590.881 368.855 586.679 374.371 582.176 379.57C581.689 380.132 581.029 380.697 581.438 381.894C585.102 382.47 588.947 382.691 592.669 383.871C601.038 386.526 605.761 392.43 608.233 400.47C609.068 403.185 606.632 404.656 605.462 406.589C601.103 413.79 592.957 411.904 587.92 407.827C583.082 403.91 578.358 399.852 573.632 395.799C572.105 394.489 570.899 394.498 569.634 396.447Z" fill="#1C1A18"/>
<path d="M464.741 337.462C469.839 335.784 474.814 334.659 479.245 332.065C479.468 331.935 479.716 331.842 479.96 331.753C486.083 329.529 501.263 337.687 502.709 344.051C503.143 345.962 503.2 348.007 502.272 349.797C498.516 357.038 497.793 365.587 492.257 372.065C494.144 374.151 496.813 375.038 497.475 377.921C498.9 384.129 494.57 390.051 487.407 390.546C478.227 391.181 469.176 392.268 460.098 393.89C456.381 394.554 453.106 394.742 450.084 397.241C448.232 398.773 445.517 398.974 443.533 400.566C442.6 401.314 441.048 401.596 440.514 400.188C439.515 397.551 437.085 396.355 435.412 394.42C432.923 391.542 431.309 388.357 430.557 384.44C428.333 372.857 425.728 361.343 423.036 349.858C422.069 345.729 423.857 342.509 426.262 339.976C428.731 337.376 431.702 334.625 436.175 336.147C440.567 337.641 444.569 339.664 447.627 343.215C448.708 344.47 449.658 345.226 451.167 343.92C455.014 340.59 459.862 339.348 464.741 337.462ZM451.645 361.734C452.267 367.206 451.825 372.816 453.711 378.694C458.066 376.48 462.589 375.498 466.992 374.119C468.93 373.512 470.114 372.46 470.707 370.556C472.132 365.979 473.684 361.44 475.022 356.838C475.392 355.564 475.835 354.038 474.502 352.774C472.186 352.792 469.981 353.293 467.73 354.041C463.568 355.426 459.326 357.164 455.044 357.398C451.817 357.574 451.138 358.326 451.645 361.734Z" fill="#1C1A18"/>
<path d="M301.11 440.366C295.399 445.557 289.286 447.701 282.022 444.65C273.762 441.18 266.688 436.458 263.448 427.533C262.898 426.017 262.484 424.535 263.183 422.998C267.841 412.763 268.607 401.735 269.858 390.789C270.268 387.204 271.766 383.78 271.442 380.055C271.318 378.629 271.44 377.187 270.727 375.875C268.839 372.398 269.996 369.341 272.679 367.152C275.584 364.783 278.436 361.723 283.049 363.493C291.413 366.703 297.719 371.656 299.62 381.011C300.371 384.706 299.178 387.962 298.059 391.243C296.246 396.556 294.848 401.974 294.416 407.541C293.887 414.345 294.522 414.391 300.866 412.094C311.52 408.236 321.752 403.458 331.948 398.598C334.898 397.192 337.406 397.125 339.834 399.125C342.384 401.225 341.109 405.031 340.323 406.249C337.881 410.032 336.838 415.033 332.17 417.251C330.191 418.191 328.305 419.408 326.558 420.738C321.097 424.897 315.32 428.616 310.482 433.627C307.917 436.284 304.4 438.019 301.11 440.366Z" fill="#1C1A18"/>
<path d="M636.106 321.857C642.039 323.491 647.321 325.517 649.859 331.467C650.545 333.074 650.947 334.741 650.477 336.409C647.566 346.745 647.418 357.383 646.597 367.983C645.998 375.706 644.556 383.413 642.838 390.98C641.804 395.536 639.187 399.847 635.499 402.698C633.029 404.607 629.736 405.37 627.115 407.617C623.034 411.114 619.362 414.885 616.067 419.086C615.045 420.39 613.842 422.277 612.053 420.812C610.444 419.495 612.034 417.981 612.94 416.782C617.637 410.564 618.889 403.581 618.408 395.906C618.11 391.164 619.019 386.354 619.266 381.568C619.964 368.093 621.95 354.684 621.283 341.136C621.178 339.013 620.934 337.083 619.75 335.224C616.873 330.704 617.129 327.509 621.576 324.223C625.702 321.174 630.326 318.199 636.106 321.857Z" fill="#1C1A18"/>
<path d="M674.686 419.156C674.544 413.631 675.66 408.851 679.123 404.744C680.948 402.579 682.929 400.736 685.915 400.689C687.57 400.663 688.466 399.607 689.547 398.69C690.397 397.968 691.396 397.65 692.4 398.386C693.331 399.068 693.594 400.087 693.387 401.171C693.176 402.278 692.503 402.952 691.337 403.236C683.626 405.114 679.608 411.242 680.735 418.914C681.174 421.905 681.054 424.977 681.229 428.927C683.782 425.671 683.141 422.757 683.124 420.064C683.072 411.489 689.246 405.745 697.787 406.283C703.661 406.653 709.423 404.605 715.379 405.699C715.387 405.13 715.395 404.56 715.404 403.99C711.36 403.99 707.315 404.054 703.273 403.962C701.414 403.92 698.695 404.667 698.141 402.384C697.485 399.677 700.656 399.178 702.292 398.66C706.421 397.353 710.851 396.878 715.107 396.329C721.899 395.454 728.93 395.398 735.743 396.111C739.836 396.538 743.707 399.141 748.124 398.698C753.567 398.152 759.022 398.605 764.464 398.429C774.977 398.088 782.365 406.5 781.443 416.903C780.841 423.688 781.692 430.593 781.714 437.444C781.76 451.953 781.701 466.433 780.894 480.959C780.398 489.873 780.642 499.096 781.391 508.185C781.875 514.051 781.818 520.149 779.935 525.916C779.307 527.836 780.259 529.501 780.131 531.291C780.019 532.863 779.972 534.89 778.115 535.042C775.928 535.22 776.048 533.086 776.095 531.591C776.209 527.955 775.914 524.354 775.057 520.654C774.709 523.186 774.041 525.723 774.071 528.251C774.18 537.565 772.38 546.793 772.991 556.132C773.203 559.364 772.868 562.631 771.221 565.602C767.597 572.136 761.503 572.786 755.037 572.316C749.348 571.903 743.829 572.514 738.36 573.709C738.377 574.285 738.395 574.86 738.413 575.436C744.166 575.436 749.919 575.475 755.671 575.411C757.294 575.392 759.085 575.1 759.156 577.344C759.219 579.319 757.568 579.765 755.921 580.016C749.022 581.063 742.223 583.307 735.199 582.858C726.125 582.278 716.817 583.63 708.054 581.771C701.595 580.402 695.415 582.2 689.233 580.929C679.575 578.942 674.83 573.465 674.562 563.724C674.238 551.957 673.231 540.197 673.808 528.419C674.148 521.49 673.695 514.523 674.274 507.647C675.076 498.125 673.424 488.544 674.719 479.178C676.14 468.898 673.45 458.893 674.173 448.677C674.592 442.755 674.539 436.627 673.707 430.595C673.198 426.902 675.529 423.289 674.686 419.156ZM679.083 499.43C678.983 500.851 678.811 502.271 678.794 503.694C678.682 512.98 681.251 522.11 680.357 531.456C679.898 536.253 681.055 541.025 680.741 545.864C680.374 551.519 680.227 557.21 680.404 562.873C680.56 567.823 686.806 574.856 691.025 575.053C702.696 575.598 714.371 575.387 726.039 574.817C726.309 574.804 726.56 574.409 727.074 573.981C724.045 572.733 721.187 572.145 718.181 572.147C710.118 572.151 702.055 572.141 693.992 572.11C687.518 572.085 684.12 568.957 683.212 562.794C682.618 558.758 683.568 554.858 683.616 550.943C683.882 529.372 684.553 507.773 682.916 486.239C682.609 482.198 683.57 478.233 682.776 474.268C681.999 470.39 682.418 466.516 682.591 462.615C682.877 456.144 682.871 449.66 682.947 443.181C682.95 442.946 682.531 442.707 682.095 442.243C680.246 447.863 679.095 453.501 679.796 458.936C681.522 472.32 680.476 485.552 679.083 499.43ZM724.077 426.778C718.745 427.061 713.346 426.382 707.73 427.433C709.118 431.099 711.288 432.315 714.583 431.776C717.655 431.274 720.738 430.817 723.831 430.467C725.068 430.327 726.629 430.083 727.072 431.79C727.479 433.358 726.203 434.065 725.112 434.806C721.573 437.214 718.169 439.805 714.302 441.733C711.202 443.278 708.274 445.169 705.27 446.906C706.364 447.616 707.135 447.7 707.884 447.603C714.267 446.782 720.23 444.553 725.997 441.848C728.54 440.655 730.849 440.297 733.439 441.461C736.748 442.947 740.293 443.84 743.426 445.806C746.015 447.431 749.768 446.668 750.587 444.407C751.856 440.9 748.965 440.336 746.681 439.447C744.59 438.633 742.382 438.497 740.18 438.293C738.886 438.172 737.419 438.088 737.116 436.456C736.83 434.914 738.004 434.118 739.14 433.441C741.49 432.039 743.949 430.957 746.636 430.258C749.072 429.624 749.368 427.475 747.388 425.939C746.241 425.05 744.894 424.458 743.388 424.803C737.276 426.208 730.981 425.826 724.077 426.778ZM717.328 525.84C719.481 524.341 720.944 525.466 722.299 527.12C724.11 529.331 725.922 531.543 727.79 533.706C728.732 534.798 729.833 536.005 731.429 535.067C732.806 534.258 733.768 532.959 733.691 531.224C733.58 528.692 732.41 526.756 730.159 525.553C728.44 524.634 726.676 523.8 724.944 522.905C722.429 521.604 722.32 519.985 724.22 517.975C726.183 515.898 728.072 513.75 729.946 511.592C730.901 510.492 732.87 509.593 731.658 507.764C730.39 505.852 728.286 504.271 726.022 505.278C719.131 508.345 711.927 506.924 704.848 507.297C703.366 507.375 701.719 506.696 700.327 508.221C701.628 511.405 703.949 512.734 707.334 512.175C709.128 511.879 710.889 511.382 712.685 511.111C714.323 510.863 716.226 510.276 717.348 512C718.482 513.743 717.209 515.237 716.197 516.565C711.144 523.201 705.833 529.587 698.709 534.178C698.054 534.6 696.91 534.862 697.463 536.232C704.661 534.232 711.556 531.748 717.328 525.84ZM746.128 540.542C746.172 541.703 746.052 542.951 747.831 543.391C750.37 541.98 752.337 539.855 752.369 536.77C752.428 531.17 753.566 525.659 753.375 520.036C753.168 513.925 753.112 507.79 753.445 501.69C753.589 499.05 753.902 496.928 751.147 495.435C748.253 493.867 745.465 493.257 741.876 495.069C745.391 497.787 745.275 501.291 745.16 504.817C745.096 506.767 745.175 508.722 745.143 510.674C745.07 515.113 744.184 515.98 739.686 516.555C737.466 516.838 735.048 515.906 732.923 517.397C733.707 522.072 736.794 521.268 739.805 520.662C743.927 519.832 745.029 520.672 745.113 524.874C745.213 529.929 744.663 535.023 746.128 540.542ZM772.371 427.047C771.886 450.817 771.952 474.568 774.612 498.244C775.224 491.83 775.8 485.418 775.853 479.002C776.019 458.886 775.951 438.767 776.05 418.65C776.093 409.95 770.663 404.256 762.003 404.102C760.715 404.079 759.434 403.746 758.143 403.687C750.286 403.33 742.487 403.98 734.723 405.144C734.674 405.152 734.683 405.553 734.649 405.965C743.609 406.211 752.533 407.396 761.501 406.831C768.722 406.376 772.565 409.939 772.4 417.285C772.333 420.277 772.373 423.272 772.371 427.047ZM758.896 452.881C755.819 450.056 752.285 449.412 748.439 450.907C743.68 452.757 738.887 452.972 733.895 451.984C731.637 451.536 729.123 451.281 726.929 451.802C718.315 453.85 709.601 453.035 700.919 453.207C699.425 453.237 697.772 452.851 696.559 454.199C698.17 457.68 700.892 459.022 705.508 458.282C710.521 457.478 715.541 456.949 720.615 456.741C723.418 456.625 724.689 457.697 724.858 460.483C725.014 463.071 725.378 465.65 725.75 468.218C726.139 470.907 727.682 471.265 729.949 470.204C733.296 468.638 733.949 465.911 733.866 462.497C733.737 457.165 734.554 456.423 739.913 456.336C745.11 456.252 750.311 456.399 755.507 456.312C757.35 456.282 759.748 456.557 758.896 452.881ZM742.119 483.447C744.068 483.412 746.036 483.536 747.958 483.291C749.516 483.093 751.156 482.37 751.387 480.606C751.587 479.082 749.982 478.585 748.921 477.909C747.309 476.882 745.487 476.518 743.678 477.088C737.376 479.073 730.873 479.014 724.388 479.111C717.315 479.216 716.15 477.77 717.489 470.812C717.725 469.587 718.565 468.41 717.521 467.124C715.656 464.829 708.649 463.696 705.271 465.56C709.313 467.861 709.053 471.447 708.542 475.196C708.318 476.842 708.262 478.573 708.927 480.203C709.876 482.531 711.213 484.353 714.093 484.016C723.165 482.952 732.275 483.753 742.119 483.447ZM752.497 559.959C753.886 559.279 755.663 558.727 755.485 556.838C755.298 554.855 753.358 554.393 751.813 553.787C750.209 553.157 748.407 552.851 746.857 553.559C741.814 555.862 736.479 555.596 731.175 555.638C721.541 555.714 721.222 555.34 722.065 545.827C722.261 543.608 722.645 541.203 719.913 540.208C716.902 539.111 713.797 537.48 710.048 540.361C713.865 542.142 713.913 545.121 713.82 548.214C713.746 550.677 713.66 553.165 713.92 555.605C714.224 558.455 715.759 560.813 718.886 560.491C729.882 559.361 740.865 559.041 752.497 559.959ZM730.275 417.301C726.749 417.485 723.188 415.782 719.613 417.286C721.279 421.876 730.859 424.357 734.41 421.302C735.611 420.268 735.328 419.286 734.216 418.401C733.261 417.642 732.122 417.403 730.275 417.301ZM720.324 502.076C721.873 501.392 724.792 500.257 722.275 498.747C718.857 496.697 714.531 495.806 710.14 496.747C711.967 502.23 712.67 502.6 720.324 502.076Z" fill="#A31621"/>
<path d="M781.495 562.885C779.36 571.616 774.628 577.53 765.989 579.901C764.156 580.404 762.47 580.612 761.797 578.541C761.128 576.483 762.72 576.126 764.37 575.588C771.614 573.222 776.661 568.886 776.112 557.504C775.953 554.216 776.998 551.506 779.281 548.376C781.984 553.176 781.397 557.934 781.495 562.885Z" fill="#A31621"/>
<path d="M304.328 637.081C304.985 635.763 305.963 635.605 307.055 635.539C338.371 633.665 369.722 634.417 401.061 634.296C410.561 634.26 420.071 634.629 429.56 634.307C435.994 634.089 442.168 636.254 448.579 635.746C449.677 635.658 450.738 636.121 450.954 637.334C451.19 638.66 449.996 638.873 449.12 639.447C444.718 642.328 439.966 642.216 434.908 642.078C424.513 641.795 414.099 642.327 403.692 642.364C382.867 642.438 362.041 642.56 341.218 642.345C331.992 642.25 322.764 641.789 313.532 641.597C310.1 641.526 306.581 640.43 304.328 637.081Z" fill="#A31621"/>
<path d="M373.313 645.402C387.104 645.373 400.505 645.352 413.906 645.304C416.782 645.294 419.637 645.449 422.414 646.225C424.124 646.703 425.736 647.545 425.484 649.647C425.275 651.393 423.896 652.299 422.212 652.513C419.25 652.889 416.276 653.432 413.306 653.436C388.976 653.469 364.646 653.389 340.316 653.36C338.35 653.358 336.424 653.224 334.558 652.542C332.923 651.944 331.875 650.831 331.926 649.077C331.981 647.147 333.508 646.351 335.097 646.208C339.368 645.822 343.656 645.499 347.942 645.439C356.267 645.322 364.595 645.402 373.313 645.402Z" fill="#A31621"/>
<path d="M380.302 664.481C377.227 664.623 374.5 664.738 371.777 664.918C366.793 665.247 361.934 664.889 357.346 662.652C355.866 661.931 353.725 661.694 354.111 659.451C354.459 657.427 356.448 657.168 358.132 657.058C362.02 656.806 365.917 656.685 369.811 656.54C378.778 656.207 387.744 656.014 396.695 656.881C398.407 657.047 400.284 657.173 400.544 659.369C400.781 661.36 398.908 661.684 397.658 662.563C392.311 666.321 386.414 664.711 380.302 664.481Z" fill="#A31621"/>
<path d="M341.027 126.994C343.654 126.512 344.437 127.268 344.077 129.773C343.885 131.105 343.368 132.337 342.981 133.609C342.839 134.076 342.775 134.432 343.413 134.628C344.747 135.04 345.019 135.544 344.689 136.96C344.214 138.995 343.09 140.659 341.527 142.015C339.302 143.944 336.662 145.019 333.807 145.635C333.232 145.759 332.606 145.758 332.111 146.123C332.147 146.692 332.615 146.779 332.942 146.965C340.442 151.22 345.206 157.687 348.212 165.609C350.178 170.792 350.821 176.239 351.607 181.667C352.356 186.836 353.705 191.801 357.219 195.889C360.866 200.132 365.643 202.481 370.963 203.863C374.939 204.896 379.004 205.237 383.102 205.377C386.531 205.494 389.857 206.15 392.889 207.883C393.233 208.08 393.576 208.32 394.159 208.267C394.083 207.131 394.036 205.989 393.927 204.852C392.649 191.469 399.314 173.544 413.141 165.118C426.566 156.936 443.686 158.78 454.45 170.693C459.106 175.845 461.798 181.959 462.691 188.832C463.221 192.902 463.071 196.964 462.229 200.99C462.166 201.291 462.231 201.659 461.825 201.82C461.283 201.68 461.319 201.143 461.166 200.769C458.549 194.368 454.705 188.888 448.769 185.166C439.402 179.292 429.859 179.663 420.299 184.775C419.048 185.443 417.872 186.236 416.761 187.117C416.387 187.413 416.063 187.772 415.828 188.291C416.47 187.948 417.113 187.607 417.754 187.262C422.094 184.92 426.672 183.444 431.662 183.525C441.663 183.688 449.116 188.239 453.561 197.062C458.36 206.587 458.062 216.21 452.695 225.547C451.516 227.597 449.964 229.355 448.154 230.876C447.745 231.221 447.369 231.703 446.573 231.672C446.91 229.865 447.407 228.133 447.617 226.348C448.393 219.72 447.397 213.503 443.026 208.223C439.186 203.585 434.108 201.719 428.121 202.271C427.96 202.286 427.798 202.309 427.642 202.348C427.575 202.365 427.521 202.433 427.381 202.537C428.23 203.138 429.244 203.025 430.131 203.281C436.903 205.237 440.97 209.566 441.797 216.598C442.658 223.912 440.865 230.526 435.994 236.184C435.135 237.181 434.108 237.995 432.654 238.603C432.918 236.645 433.461 235.005 433.739 233.312C435.076 225.164 430.169 218.776 421.947 218.059C420.043 217.893 420.043 217.893 419.049 218.344C419.399 219.226 419.786 220.103 420.101 221.005C422.012 226.472 421.481 231.901 419.265 237.075C412.754 252.277 401.223 261.532 385.065 265.09C384.19 265.283 383.751 265.619 383.588 266.533C382.81 270.885 380.503 274.291 376.909 276.829C375.85 277.577 375.26 278.481 375.052 279.78C374.203 285.075 373.288 290.36 372.364 295.643C372.15 296.861 373.032 297.096 373.812 297.36C375.689 297.994 377.596 298.542 379.416 299.339C380.245 299.702 381.014 300.144 381.475 300.959C381.816 301.562 382.17 302.208 381.715 302.885C381.229 303.609 380.529 303.37 379.846 303.203C377.132 302.539 374.405 301.97 371.592 301.914C370.524 301.893 369.587 302.191 368.767 302.832C366.637 304.496 364.342 305.445 361.553 304.856C360.283 304.588 359.07 304.96 357.976 305.692C357.202 306.209 356.381 306.655 355.472 306.9C354.989 307.031 354.479 307.101 354.119 306.666C353.709 306.172 353.944 305.643 354.232 305.205C354.86 304.248 355.74 303.528 356.633 302.825C356.967 302.563 357.453 302.446 357.597 301.856C356.288 301.473 355.04 301.788 353.801 302.075C351.938 302.506 350.197 303.277 348.463 304.06C348.168 304.193 347.869 304.323 347.562 304.421C346.933 304.621 346.273 304.788 345.741 304.243C345.224 303.713 345.495 303.117 345.722 302.547C345.809 302.329 345.994 302.134 345.865 301.807C344.985 301.51 344.146 301.835 343.334 302.152C341.979 302.683 340.658 303.3 339.303 303.833C338.703 304.069 338.004 304.298 337.544 303.599C337.114 302.944 337.428 302.265 337.902 301.84C340.664 299.361 343.547 297.079 347.529 297.001C349.833 296.956 352.14 297.087 354.413 296.498C356.078 296.066 357.241 295.209 357.734 293.505C359.046 288.97 360.229 284.402 361.343 279.815C361.463 279.323 361.358 278.97 360.9 278.691C355.513 275.419 352.127 270.407 349.147 265.08C348.5 263.925 347.677 263.3 346.465 262.87C337.675 259.757 329.35 255.757 322.008 249.919C312.99 242.75 307.096 233.659 304.916 222.292C303.191 213.293 304.559 204.637 307.878 196.203C309.465 192.171 311.613 188.411 313.53 184.539C314.138 183.31 314.651 182.032 315.169 180.761C315.326 180.376 315.617 179.966 315.319 179.484C314.733 179.494 314.41 179.957 313.994 180.247C311.425 182.038 308.65 182.908 305.513 182.12C301.185 181.033 298.802 176.843 299.786 172.06C300.448 168.848 302.02 166.111 304.22 163.709C304.575 163.322 304.937 162.942 305.287 162.551C305.335 162.498 305.338 162.403 305.395 162.218C304.183 161.172 302.635 161.095 301.136 160.902C298.638 160.58 296.125 160.64 293.614 160.65C293.068 160.652 292.398 160.842 292.089 160.202C291.791 159.586 292.311 159.127 292.624 158.69C294.79 155.668 297.693 153.503 300.899 151.699C301.357 151.441 301.82 151.19 302.273 150.924C302.372 150.866 302.438 150.753 302.532 150.652C302.517 150.538 302.545 150.38 302.479 150.312C298.437 146.09 299.905 138.277 302.919 134.332C304.233 132.613 305.792 131.158 307.353 129.693C308.709 128.42 310.079 127.161 311.472 125.928C311.988 125.472 312.608 125.026 313.334 125.411C313.968 125.748 313.817 126.446 313.89 127.041C313.968 127.678 313.46 128.606 314.261 128.885C314.958 129.128 315.421 128.281 315.884 127.805C317.351 126.299 318.76 124.737 320.231 123.236C321.114 122.334 322.126 121.587 323.369 121.229C324.793 120.818 325.795 121.598 325.711 123.074C325.663 123.915 325.546 124.751 325.445 125.729C326.298 125.676 326.865 125.222 327.44 124.835C329.284 123.592 331.069 122.261 333.157 121.419C333.927 121.109 334.706 120.977 335.528 121.003C337.121 121.054 337.797 121.947 337.342 123.499C336.933 124.895 336.39 126.245 335.77 127.563C335.586 127.955 335.324 128.331 335.404 129.095C337.307 128.381 339.118 127.703 341.027 126.994ZM337.889 228.306C335.362 224.252 334.456 219.725 334.141 215.027C333.283 216.537 332.983 220.641 333.424 223.291C334.556 230.105 337.929 235.645 343.376 239.813C352.495 246.79 362.933 248.986 374.202 247.661C380.841 246.881 386.927 244.606 392.261 240.506C392.591 240.251 393.071 240.094 393.092 239.534C392.519 239.251 392.065 239.594 391.609 239.799C380.651 244.726 369.368 245.533 357.832 242.275C349.646 239.962 342.65 235.843 337.889 228.306ZM366.505 296.35C367.283 295.665 367.535 294.722 367.715 293.769C368.461 289.804 368.896 285.803 369.016 281.77C369.031 281.251 369.104 280.66 368.322 280.602C367.65 280.553 367.076 280.573 366.802 281.411C365.345 285.854 363.909 290.303 362.67 294.813C362.363 295.928 362.903 296.532 363.836 296.855C364.714 297.159 365.596 297.082 366.505 296.35ZM313.336 153.436C313.943 154.383 314.807 154.712 315.843 154.301C316.696 153.963 317.191 153.269 317.17 152.317C317.147 151.298 316.541 150.703 315.621 150.375C314.826 150.091 314.174 150.412 313.641 150.943C312.975 151.606 312.851 152.412 313.336 153.436Z" fill="#A31621"/>
<path d="M442.397 577.195C443.157 576.435 443.917 575.105 444.297 574.725V553.255C443.727 553.445 443.157 553.255 442.587 553.255H440.022C435.557 553.255 432.042 553.065 431.187 552.875C428.907 552.4 427.292 551.26 426.532 548.98C426.342 548.125 426.152 547.365 426.342 546.415C426.342 545.655 426.722 544.895 427.292 544.04C427.672 543.47 428.527 542.9 429.287 542.52C430.047 541.95 430.807 541.76 431.567 541.57H444.107C444.107 540.145 444.297 537.295 444.297 536.155C444.582 534.54 445.152 533.21 445.722 532.07C446.482 530.835 447.622 530.075 449.047 529.695C450.377 529.125 451.897 529.315 453.322 529.885C454.272 530.265 455.222 531.025 455.602 531.88C456.267 532.64 456.837 533.59 457.027 534.54C457.217 535.585 457.407 536.725 457.407 537.865V541.57H463.867C466.432 541.57 468.332 541.76 470.137 541.95C471.847 542.33 473.462 543.28 474.412 544.895C474.982 545.845 475.172 546.605 475.172 547.555C475.362 548.315 475.172 549.17 474.792 549.93C474.032 551.45 472.512 552.4 470.327 552.875C468.997 553.065 467.192 553.065 465.292 553.255C463.297 553.255 460.542 553.445 457.407 553.255C457.407 555.345 457.217 559.05 457.407 560.57V571.02C457.407 571.59 457.217 572.16 457.407 572.92V574.44C457.977 574.915 458.547 575.865 459.497 576.815C460.352 577.575 460.922 578.335 461.492 579C462.062 579.76 462.632 580.52 463.392 581.28C464.057 581.85 464.627 582.895 465.387 583.655C465.767 584.225 466.147 584.795 466.527 585.175C466.907 585.745 467.287 586.41 467.477 586.79C468.712 588.31 469.852 589.83 470.992 591.825C472.417 593.535 473.177 595.53 473.557 597.24C473.747 598.095 473.747 599.045 473.557 599.995C473.367 600.945 472.987 601.705 472.227 602.56C471.372 603.32 470.232 603.7 468.712 603.7C467.287 603.7 466.147 603.32 464.817 602.75C463.582 601.99 462.632 601.135 461.682 600.375C460.542 599.235 459.497 597.81 458.547 596.67C457.597 595.53 456.647 594.2 455.602 592.775C454.842 592.015 454.082 591.065 453.322 590.02C452.562 588.88 451.517 588.12 450.757 587.36C449.997 588.31 449.237 589.26 448.477 590.305C447.622 591.255 446.862 592.205 446.102 593.155C445.342 594.39 444.297 595.72 443.347 596.86C442.587 598.095 441.637 599.425 440.402 600.565C437.932 603.13 435.747 603.89 433.467 603.89C432.897 603.89 432.232 603.89 431.662 603.7C430.332 603.32 429.382 602.56 428.717 601.135C428.337 600.185 428.147 599.235 428.337 598.095C428.527 596.86 428.717 595.72 429.382 594.96C429.762 593.915 430.332 592.965 430.902 592.015C431.472 591.255 432.042 590.305 432.897 589.45C433.277 589.07 433.657 588.5 434.037 588.12L435.177 586.41C435.557 585.555 435.937 585.175 436.982 583.845C437.932 582.705 438.882 581.47 439.642 580.52C440.687 579.38 441.637 578.145 442.397 577.195ZM494.362 601.135C494.172 601.895 494.172 602.655 493.982 603.415C493.982 605.41 492.842 608.07 491.037 609.115C489.707 609.685 487.902 609.875 486.572 609.685C483.817 609.115 482.677 606.74 482.297 604.175C482.107 603.225 482.107 602.275 481.917 601.325C481.917 599.52 482.107 597.24 482.107 595.055C481.917 590.4 482.107 585.935 482.107 581.185C482.107 575.77 481.917 570.165 482.107 564.655V538.53C482.297 537.58 482.487 536.82 482.677 536.06C483.057 535.3 483.247 534.635 483.817 534.255C484.387 533.685 485.242 533.115 486.002 533.115C486.762 532.925 487.522 532.735 488.282 532.735C489.517 532.735 490.467 533.115 491.227 533.685C492.177 534.255 492.842 535.11 493.222 536.25C493.792 537.39 494.172 539.005 494.172 540.335C494.362 544.23 494.362 547.935 494.362 551.83C494.552 554.585 494.552 557.055 494.362 559.81V601.135Z" fill="#1C1A18"/>
<path d="M396.368 556.01C396.368 553.635 396.748 548.885 394.183 547.555C393.328 547.175 391.998 547.365 390.953 547.365H374.518C374.518 549.17 374.708 557.435 374.708 558.29C374.708 562.47 374.708 567.6 374.518 571.78C374.518 574.535 374.708 577.575 373.378 579.95C371.573 582.895 366.253 584.035 363.878 580.9C362.643 579.475 362.453 577.385 362.073 575.58C361.693 572.35 361.883 568.17 361.883 565.035V547.555C361.503 547.745 361.313 547.555 361.123 547.555C358.083 547.745 355.138 547.555 352.953 547.555C351.813 547.555 350.578 547.365 349.248 547.175C346.873 546.51 345.448 545.085 345.258 542.9C345.068 541.855 345.068 541.095 345.448 540.05C346.398 536.345 350.768 535.11 354.378 534.92C355.138 534.92 356.088 534.92 357.323 534.73C361.693 534.54 366.063 534.54 370.148 534.54C376.133 534.54 381.833 534.54 387.628 534.73H392.948C395.133 534.92 397.318 534.92 399.503 534.92C403.303 535.11 407.388 535.775 408.433 540.05C409.193 542.71 409.003 544.8 409.003 547.365C409.193 549.93 409.193 553.445 409.193 556.295C409.193 560.19 409.383 563.23 409.003 567.22C408.813 571.115 409.383 575.295 407.863 579.285C406.818 581.47 404.633 582.23 402.068 582.04C399.693 581.66 398.268 580.045 397.318 577.86C396.178 574.915 396.178 571.495 396.368 568.36V556.01ZM343.263 593.82C343.833 592.68 344.688 592.015 345.448 591.635C346.873 591.255 348.013 590.875 349.438 590.875C355.708 590.875 361.883 590.685 368.248 590.685C370.813 590.685 374.993 590.875 377.368 590.875V575.77C377.368 575.105 377.368 574.535 377.558 573.965C377.748 573.585 377.938 572.92 378.318 572.35C378.508 571.78 379.078 571.21 379.933 570.83C380.693 570.165 381.643 569.785 382.688 569.785C383.638 569.595 384.873 569.785 385.633 569.975C386.583 570.355 387.438 571.02 388.198 571.78C388.768 572.54 389.243 573.585 389.243 574.725L389.433 590.685H396.368C397.698 590.685 399.503 590.685 401.118 590.875C403.683 590.875 406.248 591.065 408.623 591.065C410.808 590.875 412.803 591.445 414.323 593.06C415.368 593.82 415.748 595.055 415.748 596.385C415.748 597.05 415.748 597.81 415.368 598.57C415.178 599.425 414.988 599.995 414.513 600.375C413.943 600.945 413.373 601.325 412.613 601.61C411.758 601.8 411.188 601.99 410.428 602.18H360.648C357.893 602.18 355.138 602.18 352.573 602.37H348.203C346.873 602.18 345.448 601.8 344.498 600.755C342.313 599.235 341.838 596.005 343.263 593.82Z" fill="#1C1A18"/>
<path d="M299.84 578.905H310.29C313.805 578.905 316.37 579.095 319.6 580.9C321.69 582.135 322.735 584.89 322.735 587.93V598.475C322.735 601.61 323.115 605.695 321.595 608.45C319.885 611.49 314.945 612.44 313.045 609.305C310.86 605.79 311.525 601.04 311.335 597.145V593.63C311.335 590.875 310.1 589.925 307.82 589.83C305.635 589.735 306.395 589.83 304.21 589.83H302.12C300.22 589.83 298.51 589.83 297.085 589.545V592.395C297.085 594.105 296.42 596.005 294.425 597.24C292.81 598.095 291.195 598.095 288.63 598.095H274.285V602.275H289.58C290.72 602.275 291.765 602.275 292.715 602.37C294.71 602.465 296.42 603.225 296.99 605.22C297.75 607.595 296.895 609.305 294.615 610.255C293.095 610.825 291.385 610.92 290.055 610.92H275.805C273.24 610.92 270.485 610.92 267.73 610.73C265.07 610.635 263.17 608.64 262.885 605.695C262.6 603.51 262.6 603.795 262.6 601.99V598.095C262.505 596.67 262.41 594.39 263.645 593.06C265.26 591.16 268.68 590.875 271.435 590.875C272.575 590.875 273.62 590.97 286.16 590.97V586.79H273.81C273.05 586.79 272.385 586.695 271.72 586.79H269.345C268.11 586.79 267.065 586.79 266.115 586.6C264.975 586.315 264.12 586.315 263.455 585.27C262.6 583.845 262.315 582.61 262.79 580.995C263.455 578.905 266.305 578.62 267.73 578.335C268.68 578.24 269.63 578.145 270.77 578.145H272.385C272.955 578.24 273.525 578.24 274.095 578.24H287.11C290.72 578.24 293.475 578.905 295.09 580.235C296.705 579.095 298.985 578.905 299.84 578.905ZM291.765 560.095C295.47 560.095 300.6 560.19 300.6 565.415C300.6 570.83 291.385 571.115 286.54 571.115H273.145C268.585 571.21 263.55 571.21 261.555 568.17C259.37 564.845 259.845 558.29 259.845 557.91L260.035 543.66C260.035 542.9 260.035 539.195 260.985 537.58C262.125 535.775 263.17 535.015 265.165 534.73C266.59 534.445 268.395 534.35 270.675 534.35C271.91 534.35 288.06 534.54 289.295 534.73C292.62 534.73 296.61 534.635 298.605 537.865C300.03 540.05 299.935 541.855 298.415 543.945C296.99 546.035 292.81 546.225 290.72 546.225L273.05 546.13L273.24 559.81C276.565 560.095 288.44 560.19 291.765 560.095ZM325.395 560.57H322.26V569.12C322.26 572.445 320.36 575.295 316.465 575.295C315.515 575.295 314.375 575.105 313.615 574.63C311.05 573.11 310.67 570.355 310.67 569.405V540.145C310.575 539.67 310.765 536.725 311.525 535.205C312.095 533.97 313.71 533.115 315.515 532.925C317.7 532.64 319.695 533.21 320.74 534.35C321.5 535.3 321.69 536.25 321.975 537.295C322.355 538.435 322.355 541.095 322.26 542.33V550.025C323.305 550.12 329.385 550.215 330.525 550.5C332.995 550.975 333.85 552.02 334.135 553.35C334.515 554.68 334.61 556.865 333.85 558.1C332.33 560.57 329.1 560.475 325.395 560.57Z" fill="#1C1A18"/>
</svg>
