<svg width="800" height="752" viewBox="0 0 800 752" fill="none" xmlns="http://www.w3.org/2000/svg">
<path d="M193.151 143.681C225.186 117.208 260.905 99.118 300.412 88.2122C314.35 84.3647 328.537 82.5003 342.839 81.6662C358.409 80.7581 373.725 77.7617 389.488 78.0581C433.672 78.8891 475.231 89.4886 514.57 109.283C582.422 143.424 629.308 197.28 660.211 265.749C671.48 290.719 677.514 317.339 681.167 344.466C681.33 345.681 681.14 346.966 680.954 348.194C680.894 348.594 680.321 348.917 679.576 349.707C676.658 348.577 674.123 347.268 673.513 343.365C668.889 313.764 658.6 285.987 647.736 258.184C642.667 245.21 633.377 234.877 628.996 221.676C627.416 216.915 621.576 213.717 618.269 209.358C593.112 176.211 563.242 148.274 527.392 127.01C514.15 119.156 500.053 112.979 485.864 106.962C441.493 88.1461 395.026 84.0539 347.782 88.3172C302.256 92.4255 260.65 108.832 222.339 133.563C183.532 158.614 153.857 192.623 128.143 230.468C112.518 253.464 103.893 279.61 94.2627 305.311C93.3154 307.84 93.0245 310.691 90.4668 312.842C88.2123 311.05 87.7498 308.757 88.2549 306.21C93.0938 281.805 102.432 259.114 114.161 237.273C133.826 200.652 161.144 170.548 193.151 143.681Z" fill="#A31621"/>
<path d="M526 692.483L526 667.507C562.211 646.669 593.558 620.152 619.896 587.463C637.212 565.972 652.565 543.17 662.787 517.28C663.513 515.441 664.174 513.439 666.424 512.635C668.868 513.304 668.431 515.457 668.043 516.927C665.377 527.036 666.525 537.067 668.668 547.008C669.377 550.297 668.848 552.804 667.134 555.533C653.459 577.31 639.442 598.685 621.926 617.835C610.646 630.168 600.013 643.354 586.148 652.393C571.75 661.778 559.888 675.214 542.581 680.242C537.056 681.847 534.137 687.845 528.968 690.807C527.981 691.372 526.992 691.931 526 692.483Z" fill="#A31621"/>
<path d="M709.509 384.115C708.816 386.171 707.245 385.503 706.176 383.352C703.065 378.508 702.401 382.714 702.064 384.293C701.28 387.96 699.286 389.787 695.733 389.056C692.389 388.369 693.041 385.303 692.965 382.838C691.465 334.312 681.027 287.915 659.888 244.08C638.686 200.113 608.532 163.472 570.281 133.206C542.624 111.324 511.475 96.2702 478.873 83.6004C449.251 72.0888 418.127 70.2997 386.988 67.516C363.602 65.4254 340.721 68.5517 318.462 73.79C281.309 82.5333 245.407 95.3467 213.265 116.901C208.802 119.894 204.869 124.179 198.576 123.899C196.134 123.791 195.717 127.145 194.167 128.703C191.366 131.52 189.729 136.42 183.928 134.085C181.454 133.089 180.341 135.982 179.807 137.601C177.788 143.715 173.095 147.585 168.705 151.697C136.377 181.984 111.727 217.803 93.3929 257.922C77.6562 292.359 69.8856 328.889 66.5053 366.538C64.5544 388.267 66.8631 409.59 69.1257 431.115C71.5676 454.345 79.8492 475.725 87.5486 497.293C95.3747 519.215 106.402 539.624 119.04 559.25C150.09 607.466 191.17 644.657 241.41 671.82C242.105 672.197 243.302 672.629 244 673V697.903C235.454 693.957 227.105 689.5 219.089 684.12C208.392 676.939 197.349 669.83 186.135 663.245C181.499 660.523 180.522 654.057 175.714 652.773C170.126 651.282 166.309 647.983 162.974 644.033C154.021 633.428 143.729 624.051 134.204 614.051C125.8 605.229 118.281 595.879 111.426 586.112C104.593 576.378 96.9962 567.193 91.4077 556.333C87.1738 548.104 84.9621 538.264 77.398 531.786C76.6745 531.166 76.2328 530.123 75.8657 529.195C65.8102 503.775 54.2416 478.836 49.6822 451.596C47.1498 436.467 45.1237 421.244 43.252 406.016C42.2628 397.967 45.6925 390.222 45.5916 382.067C45.4991 374.589 46.1077 367.478 43.7313 359.907C41.5168 352.851 44.9432 345.044 45.9507 337.573C48.4846 318.787 52.2743 300.236 59.2193 282.595C66.262 264.706 74.0459 247.122 82.18 229.657C87.9449 217.278 95.1653 205.84 101.226 193.718C104.479 187.213 109.025 181.329 114.77 176.585C118.272 173.693 121.389 170.721 122.843 165.987C123.748 163.037 126.116 160.101 128.603 158.147C141.934 147.674 152.713 134.444 165.954 123.893C170.511 120.262 175.049 116.722 180.657 114.74C182.744 114.003 185.213 112.934 186.385 111.24C196.827 96.1375 213.312 89.6728 228.596 81.6973C253.746 68.5737 280.003 58.0297 307.844 52.2224C316.148 50.4901 324.57 49.1997 332.821 47.1093C333.309 46.9858 333.884 46.7401 334.303 46.8851C344.59 50.4446 353.985 43.2924 363.828 44.2623C373.98 45.2626 384.099 43.1556 393.94 44.1152C412.76 45.9502 431.771 46.0717 450.197 52.8649C458.695 55.9977 468.352 57.4414 477.481 59.7751C494.413 64.1038 509.596 72.0441 524.421 80.1975C547.502 92.8918 569.657 107.307 589.445 125.138C596.554 131.544 603.943 137.611 610.327 144.766C612.037 146.682 614.52 148.186 612.873 151.842C610.28 157.594 615.073 160.304 618.918 159.783C623.405 159.175 625.551 161.024 627.834 163.638C648.716 187.538 666.417 213.608 679.583 242.51C689.919 265.197 697.308 289.157 701.472 313.563C703.725 326.772 708.318 339.66 708.472 353.294C708.518 357.283 708.327 360.579 705.547 363.749C702.302 367.451 701.536 371.232 706.954 374.166C711.162 376.445 710.742 380.459 709.509 384.115ZM690.913 296.748C687.714 291.757 689.964 284.541 683.737 279.002C682.349 289.696 688.339 296.427 690.749 305.729C692.989 301.906 691.436 299.866 690.913 296.748ZM159.837 625.691C152.204 618.583 146.028 609.978 136.682 602.728C150.217 623.391 192.959 660.339 212.596 668.325C194.996 654.695 177.345 641.129 159.837 625.691Z" fill="#A31621"/>
<path d="M244 661.942V652.397C224.837 642.026 206.823 629.282 190.09 613.921C182.663 607.103 175.158 600.37 167.381 593.156C164.74 589.736 162.496 586.683 160.059 583.793C134.686 553.701 112.606 521.711 99.9207 483.887C89.8976 454.001 84.3904 423.329 81.6345 392.043C81.3205 388.479 81.3083 384.647 78.3389 381.158C75.1075 384.221 75.2794 387.746 75.0575 391.155C73.8817 409.219 76.8636 426.911 80.4006 444.458C87.9659 481.989 102.674 516.647 123.335 548.853C154.804 597.906 194.658 636.099 244 661.942Z" fill="#A31621"/>
<path d="M244 661.942C243.349 661.62 244 662.5 244 661.942C244.676 662.297 243.32 661.593 244 661.942Z" fill="#A31621"/>
<path d="M526.5 656.6C539.187 648.985 551.335 640.385 563.128 631.149C601.38 601.189 631.266 564.643 651.964 520.65C653.103 518.231 656.486 514.991 652.762 512.739C648.121 509.933 646.881 514.887 645.163 517.642C640.085 525.786 635.13 534.008 630.267 542.283C611.507 574.203 587.598 601.82 558.544 624.538C548.345 632.512 537.634 639.746 526.5 646.307V656.6Z" fill="#A31621"/>
<path d="M82.7906 323.08C84.3681 320.34 82.9198 316.83 86.9901 314.971C89.6859 320.546 86.6634 324.413 84.1412 328.643C81.8101 327.068 82.5905 325.252 82.7906 323.08Z" fill="#A31621"/>
<path d="M215.36 404.421C225.689 403.643 235.661 402.99 245.608 402.059C251.083 401.547 262.547 407.12 264.8 413.859C265.537 416.066 264.364 417.697 262.786 418.943C258.71 422.159 254.101 424.145 248.828 424.033C244.07 423.933 239.205 425.053 234.586 422.875C233.963 422.581 233.036 422.796 232.282 422.941C221.453 425.033 210.284 425.003 199.344 428.464C201.563 429.586 204.484 430.118 205.655 431.84C208.677 436.284 213.013 435.823 217.379 436.921C226.281 439.159 234.119 443.496 236.103 453.964C237.095 459.196 235.853 463.824 233.092 468.047C226.516 478.106 216.713 483.29 205.274 485.836C201.601 486.653 197.959 487.56 194.239 488.229C184.934 489.902 176.299 488.566 167.734 484.545C160.084 480.952 156.452 473.407 159.837 465.745C162.326 460.111 165.836 455.095 170.235 450.756C174.959 446.099 179.763 441.524 184.497 436.877C187.529 433.9 190.849 431.326 194.666 429.336C183.339 431.683 171.886 433.025 160.796 436.155C160.047 436.366 159.024 436.954 158.576 436.667C154.658 434.157 152.974 438.245 150.227 439.115C141.782 441.788 134.505 448.294 125.022 447.423C119.032 446.873 113.216 445.491 109.743 439.681C109.015 438.463 108.048 437.384 107.164 436.262C103.013 430.998 105.069 423.819 111.328 421.422C114.358 420.261 117.237 418.704 120.435 417.984C122.727 417.467 125.001 416.833 127.164 418.482C128.183 419.26 129.344 418.951 130.53 418.695C143.611 415.87 156.694 413.054 169.8 410.346C172.119 409.867 173.645 408.75 175.165 406.931C178.481 402.964 181.876 399.1 184.351 393.945C179.184 395.138 174.291 395.811 169.73 397.421C161.394 400.364 154.82 397.171 149.127 391.806C142.995 386.028 143.545 378.096 149.602 372.497C151.677 370.579 153.36 368.237 155.191 366.125C150.583 359.844 151.664 356.163 158.86 353.412C161.16 352.533 162.476 350.609 164.217 348.941C159.905 349.443 155.828 349.366 151.72 347.866C145.874 345.731 142.394 341.566 140.055 336.071C138.227 331.777 140.047 327.894 142.288 324.815C144.726 321.465 149.315 319.983 153.169 321.128C157.714 322.478 161.967 321.916 166.258 321.295C177.537 319.665 188.957 318.813 200.024 315.945C204.649 314.746 208.946 314.215 213.729 315.734C219.002 317.407 220.819 321.512 222.585 325.8C223.371 327.709 219.743 333.082 217.258 334.315C215.98 334.949 214.665 335.685 213.289 335.919C204.937 337.338 197.23 341.184 188.814 342.336C187.41 342.528 186.019 342.857 184.842 343.761C185.695 347.481 187.721 348.021 191.182 347.232C199.769 345.272 208.295 342.685 217.313 343.538C221.399 343.925 225.073 346.156 229.376 345.79C231.022 345.65 233.095 347.013 233.094 349.132C233.094 351.343 230.981 351.881 229.23 352.357C227.48 352.833 225.627 352.956 223.9 353.493C220.507 354.55 217.397 355.849 214.423 358.2C210.343 361.425 204.733 361.349 199.683 362.356C194.343 363.421 189.027 364.605 183.7 365.737C182.729 365.944 182.131 366.608 181.66 367.419C180.3 369.766 178.943 372.116 177.593 374.451C178.563 375.838 179.792 375.307 180.859 375.106C190.713 373.244 200.357 370.591 209.598 366.69C216.342 363.843 222.479 364.541 228.308 368.838C232.397 371.853 230.902 379.359 225.57 382.016C223.019 383.287 220.353 384.364 217.658 385.297C215.107 386.181 212.325 386.399 209.648 388.218C214.788 394.944 207.985 399.059 205.743 404.575C208.975 405.756 211.99 404.324 215.36 404.421ZM192.247 456.114C190.508 457.696 188.905 459.348 188.057 461.641C186.739 465.206 187.831 467.477 191.612 467.339C197.628 467.119 203.507 465.816 208.258 461.702C210.279 459.952 211.127 457.752 209.617 455.096C206.195 449.076 200.583 448.096 195.721 452.736C194.687 453.722 193.677 454.734 192.247 456.114Z" fill="#1C1A18"/>
<path d="M431.988 408.726C451.438 404.106 470.845 401.498 490.404 399.612C496.82 398.994 503.314 399.362 509.722 397.659C516.576 395.837 527.965 403.866 529.161 410.578C529.406 411.952 528.952 413.234 528.012 414.165C524.04 418.101 519.619 419.865 513.652 419.221C504.393 418.222 494.986 416.35 485.705 419.647C483.419 420.459 481.952 421.212 483.111 424.013C483.915 425.956 483.86 428.074 483.481 430.168C482.206 437.218 482.925 444.412 481.91 451.512C481.507 454.33 482.493 457.391 482.578 460.391C482.828 469.204 479.949 476.406 472.414 481.382C470.77 482.468 470.997 485.765 468.108 485.226C465.344 484.71 466.516 481.661 465.193 480.163C464.68 479.582 464.215 478.559 463.642 478.493C458.693 477.929 457.863 473.626 456.389 470.242C454.819 466.641 455.218 462.764 455.887 458.813C457.747 447.817 458.738 436.728 457.75 424.959C452.646 426.616 447.57 426.403 442.91 428.568C436.203 431.684 429.31 434.405 422.656 437.625C419.391 439.206 416.042 439.631 412.806 438.819C405.721 437.042 399.594 433.496 395.547 427.123C392.961 423.052 394.422 417.917 398.513 415.362C401.743 413.345 405.053 411.662 408.836 411.023C409.475 410.916 410.196 410.464 410.722 410.639C417.986 413.065 424.676 409.253 431.988 408.726Z" fill="#1C1A18"/>
<path d="M383.233 410.799C379.905 411.809 376.689 411.17 373.695 412.377C369.402 414.108 367.832 417.113 367.229 421.674C365.945 431.396 367.812 440.69 369.684 450.09C370.608 454.733 369.381 459.179 366.039 462.751C363.729 465.22 362.347 468.348 359.922 470.768C358.245 472.443 356.97 472.771 354.843 471.661C351.943 470.147 349.4 468.18 346.855 466.204C343.004 463.214 342.632 458.466 341.815 454.304C341.054 450.431 339.748 446.076 342.743 442.252C343.411 441.398 342.883 440.254 342.715 439.224C342.293 436.628 342.701 434.21 344.185 431.987C346.601 433.041 345.402 435.292 347.275 437.532C347.118 434.326 347.8 431.921 345.349 430.446C343.25 429.182 342.65 427.416 342.575 425.242C342.079 410.801 342.087 396.291 343.638 381.992C344.598 373.14 344.352 364.398 344.62 355.611C344.719 352.376 343.806 349.141 342.239 346.271C340.796 343.629 341.199 341.296 342.664 338.934C345.557 334.27 352.447 332.158 357.638 334.147C360.938 335.411 364.075 336.892 366.913 339.019C372.485 343.193 373.536 347.657 371.698 354.475C370.36 359.442 369.709 364.682 369.459 369.835C369.094 377.337 369.365 384.87 369.365 392.831C373.944 391.668 378.394 391.14 382.308 389.403C388.25 386.765 392.978 389.313 397.567 392.112C399.782 393.464 401.379 396.003 402.927 398.233C404.955 401.156 402.903 406.474 399.237 408.508C396.128 410.233 392.76 410.23 389.358 410.104C387.403 410.031 385.452 410.078 383.233 410.799Z" fill="#1C1A18"/>
<path d="M642.68 463.507C645.446 471.541 633.202 482.662 624.875 479.036C620.933 477.32 617.122 477.187 613.592 478.923C606.995 482.165 603.192 477.864 598.985 474.303C598.227 473.662 597.984 472.438 596.367 472.274C596.576 476.607 590.931 477.78 591.082 482.361C591.11 483.215 589.667 483.261 588.744 482.863C579.359 478.821 571.242 467.509 571.197 457.143C571.152 446.612 571.84 436.146 572.124 425.65C572.303 419.042 579.885 413.971 586.117 416.165C588.833 417.121 591.455 418.192 593.405 420.49C595.512 422.972 596.477 425.467 594.773 428.662C593.34 431.347 592.943 434.276 594.237 437.87C601.694 431.884 610.806 430.365 619.107 426.888C622.03 425.664 620.678 422.96 620.373 421.041C619.659 416.551 623.728 410.649 628.282 410.452C635.143 410.156 641.077 411.97 645.303 417.971C647.808 421.528 648.602 424.89 647.292 429.254C645.274 435.979 645.121 443.094 644.406 450.058C643.954 454.46 642.433 458.704 642.68 463.507ZM615.755 446.276C609.665 448.758 603.943 452.119 597.562 453.899C596.537 454.185 595.964 454.769 595.946 455.796C595.908 457.943 595.934 460.091 595.934 462.238C599.309 459.482 602.888 459.963 606.306 459.587C609.261 459.263 612.173 458.501 615.085 457.846C616.383 457.555 617.596 456.955 617.903 455.47C618.594 452.122 620.268 448.882 619.124 445.241C617.966 444.867 617.145 445.616 615.755 446.276Z" fill="#1C1A18"/>
<path d="M569.634 396.447C563.606 403.13 558.798 410.389 553.973 417.619C551.409 421.459 547.9 423.963 543.896 425.961C543.052 426.383 541.954 426.747 541.289 426.137C538.165 423.274 535.567 425.36 532.908 426.868C531.782 427.507 530.686 428.598 529.377 427.668C527.872 426.599 528.511 425.184 529.148 423.827C530.197 421.593 528.336 419.397 529.215 416.982C530.799 412.634 532.998 408.747 535.92 405.188C545.415 393.619 553.828 381.235 562.825 369.29C563.187 368.809 563.788 368.378 563.389 367.365C559.224 368.235 555.398 370.108 551.588 371.91C546.502 374.316 542.093 373.702 537.985 369.85C534.152 366.255 530.404 362.79 530.605 356.816C530.747 352.575 535.683 347.251 540.072 347.681C550.968 348.748 561.216 345.58 571.385 342.697C580.24 340.187 588.148 340.136 595.31 346.541C600.532 351.211 602.105 358.025 595.813 364.097C590.881 368.855 586.679 374.371 582.176 379.57C581.689 380.132 581.029 380.697 581.438 381.894C585.102 382.47 588.947 382.691 592.669 383.871C601.038 386.526 605.761 392.43 608.233 400.47C609.068 403.185 606.632 404.656 605.462 406.589C601.103 413.79 592.957 411.904 587.92 407.827C583.082 403.91 578.358 399.852 573.632 395.799C572.105 394.489 570.899 394.498 569.634 396.447Z" fill="#1C1A18"/>
<path d="M464.741 337.462C469.839 335.784 474.814 334.659 479.245 332.065C479.468 331.935 479.716 331.842 479.96 331.753C486.083 329.529 501.263 337.687 502.709 344.051C503.143 345.962 503.2 348.007 502.272 349.797C498.516 357.038 497.793 365.587 492.257 372.065C494.144 374.151 496.813 375.038 497.475 377.921C498.9 384.129 494.57 390.051 487.407 390.546C478.227 391.181 469.176 392.268 460.098 393.89C456.381 394.554 453.106 394.742 450.084 397.241C448.232 398.773 445.517 398.974 443.533 400.566C442.6 401.314 441.048 401.596 440.514 400.188C439.515 397.551 437.085 396.355 435.412 394.42C432.923 391.542 431.309 388.357 430.557 384.44C428.333 372.857 425.728 361.343 423.036 349.858C422.069 345.729 423.857 342.509 426.262 339.976C428.731 337.376 431.702 334.625 436.175 336.147C440.567 337.641 444.569 339.664 447.627 343.215C448.708 344.47 449.658 345.226 451.167 343.92C455.014 340.59 459.862 339.348 464.741 337.462ZM451.645 361.734C452.267 367.206 451.825 372.816 453.711 378.694C458.066 376.48 462.589 375.498 466.992 374.119C468.93 373.512 470.114 372.46 470.707 370.556C472.132 365.979 473.684 361.44 475.022 356.838C475.392 355.564 475.835 354.038 474.502 352.774C472.186 352.792 469.981 353.293 467.73 354.041C463.568 355.426 459.326 357.164 455.044 357.398C451.817 357.574 451.138 358.326 451.645 361.734Z" fill="#1C1A18"/>
<path d="M301.11 440.366C295.399 445.557 289.286 447.701 282.022 444.65C273.762 441.18 266.688 436.458 263.448 427.533C262.898 426.017 262.484 424.535 263.183 422.998C267.841 412.763 268.607 401.735 269.858 390.789C270.268 387.204 271.766 383.78 271.442 380.055C271.318 378.629 271.44 377.187 270.727 375.875C268.839 372.398 269.996 369.341 272.679 367.152C275.584 364.783 278.436 361.723 283.049 363.493C291.413 366.703 297.719 371.656 299.62 381.011C300.371 384.706 299.178 387.962 298.059 391.243C296.246 396.556 294.848 401.974 294.416 407.541C293.887 414.345 294.522 414.391 300.866 412.094C311.52 408.236 321.752 403.458 331.948 398.598C334.898 397.192 337.406 397.125 339.834 399.125C342.384 401.225 341.109 405.031 340.323 406.249C337.881 410.032 336.838 415.033 332.17 417.251C330.191 418.191 328.305 419.408 326.558 420.738C321.097 424.897 315.32 428.616 310.482 433.627C307.917 436.284 304.4 438.019 301.11 440.366Z" fill="#1C1A18"/>
<path d="M636.106 321.857C642.039 323.491 647.321 325.517 649.859 331.467C650.545 333.074 650.947 334.741 650.477 336.409C647.566 346.745 647.418 357.383 646.597 367.983C645.998 375.706 644.556 383.413 642.838 390.98C641.804 395.536 639.187 399.847 635.499 402.698C633.029 404.607 629.736 405.37 627.115 407.617C623.034 411.114 619.362 414.885 616.067 419.086C615.045 420.39 613.842 422.277 612.053 420.812C610.444 419.495 612.034 417.981 612.94 416.782C617.637 410.564 618.889 403.581 618.408 395.906C618.11 391.164 619.019 386.354 619.266 381.568C619.964 368.093 621.95 354.684 621.283 341.136C621.178 339.013 620.934 337.083 619.75 335.224C616.873 330.704 617.129 327.509 621.576 324.223C625.702 321.174 630.326 318.199 636.106 321.857Z" fill="#1C1A18"/>
<path d="M674.686 419.156C674.544 413.631 675.66 408.851 679.123 404.744C680.948 402.579 682.929 400.736 685.915 400.689C687.57 400.663 688.466 399.607 689.547 398.69C690.397 397.968 691.396 397.65 692.4 398.386C693.331 399.068 693.594 400.087 693.387 401.171C693.176 402.278 692.503 402.952 691.337 403.236C683.626 405.114 679.608 411.242 680.735 418.914C681.174 421.905 681.054 424.977 681.229 428.927C683.782 425.671 683.141 422.757 683.124 420.064C683.072 411.489 689.246 405.745 697.787 406.283C703.661 406.653 709.423 404.605 715.379 405.699C715.387 405.13 715.395 404.56 715.404 403.99C711.36 403.99 707.315 404.054 703.273 403.962C701.414 403.92 698.695 404.667 698.141 402.384C697.485 399.677 700.656 399.178 702.292 398.66C706.421 397.353 710.851 396.878 715.107 396.329C721.899 395.454 728.93 395.398 735.743 396.111C739.836 396.538 743.707 399.141 748.124 398.698C753.567 398.152 759.022 398.605 764.464 398.429C774.977 398.088 782.365 406.5 781.443 416.903C780.841 423.688 781.692 430.593 781.714 437.444C781.76 451.953 781.701 466.433 780.894 480.959C780.398 489.873 780.642 499.096 781.391 508.185C781.875 514.051 781.818 520.149 779.935 525.916C779.307 527.836 780.259 529.501 780.131 531.291C780.019 532.863 779.972 534.89 778.115 535.042C775.928 535.22 776.048 533.086 776.095 531.591C776.209 527.955 775.914 524.354 775.057 520.654C774.709 523.186 774.041 525.723 774.071 528.251C774.18 537.565 772.38 546.793 772.991 556.132C773.203 559.364 772.868 562.631 771.221 565.602C767.597 572.136 761.503 572.786 755.037 572.316C749.348 571.903 743.829 572.514 738.36 573.709C738.377 574.285 738.395 574.86 738.413 575.436C744.166 575.436 749.919 575.475 755.671 575.411C757.294 575.392 759.085 575.1 759.156 577.344C759.219 579.319 757.568 579.765 755.921 580.016C749.022 581.063 742.223 583.307 735.199 582.858C726.125 582.278 716.817 583.629 708.054 581.771C701.595 580.402 695.415 582.2 689.233 580.929C679.575 578.942 674.83 573.465 674.562 563.724C674.238 551.957 673.231 540.197 673.808 528.419C674.148 521.49 673.695 514.523 674.274 507.647C675.076 498.125 673.424 488.544 674.719 479.178C676.14 468.898 673.45 458.893 674.173 448.677C674.592 442.755 674.539 436.627 673.707 430.595C673.198 426.902 675.529 423.289 674.686 419.156ZM679.083 499.43C678.983 500.851 678.811 502.271 678.794 503.694C678.682 512.98 681.251 522.11 680.357 531.456C679.898 536.253 681.055 541.025 680.741 545.864C680.374 551.519 680.227 557.21 680.404 562.873C680.56 567.823 686.806 574.856 691.025 575.053C702.696 575.598 714.371 575.387 726.039 574.817C726.309 574.804 726.56 574.409 727.074 573.981C724.045 572.733 721.187 572.145 718.181 572.147C710.118 572.151 702.055 572.141 693.992 572.11C687.518 572.085 684.12 568.957 683.212 562.794C682.618 558.758 683.568 554.858 683.616 550.943C683.882 529.372 684.553 507.773 682.916 486.239C682.609 482.198 683.57 478.233 682.776 474.268C681.999 470.39 682.418 466.516 682.591 462.615C682.877 456.144 682.871 449.66 682.947 443.181C682.95 442.946 682.531 442.707 682.095 442.243C680.246 447.863 679.095 453.501 679.796 458.936C681.522 472.32 680.476 485.552 679.083 499.43ZM724.077 426.778C718.745 427.061 713.346 426.382 707.73 427.433C709.118 431.099 711.288 432.315 714.583 431.776C717.655 431.274 720.738 430.817 723.831 430.467C725.068 430.327 726.629 430.083 727.072 431.79C727.479 433.358 726.203 434.065 725.112 434.806C721.573 437.214 718.169 439.805 714.302 441.733C711.202 443.278 708.274 445.169 705.27 446.906C706.364 447.616 707.135 447.7 707.884 447.603C714.267 446.782 720.23 444.553 725.997 441.848C728.54 440.655 730.849 440.297 733.439 441.461C736.748 442.947 740.293 443.84 743.426 445.806C746.015 447.431 749.768 446.668 750.587 444.407C751.856 440.9 748.965 440.336 746.681 439.447C744.59 438.633 742.382 438.497 740.18 438.293C738.886 438.172 737.419 438.088 737.116 436.456C736.83 434.914 738.004 434.118 739.14 433.441C741.49 432.039 743.949 430.957 746.636 430.258C749.072 429.624 749.368 427.475 747.388 425.939C746.241 425.05 744.894 424.458 743.388 424.803C737.276 426.208 730.981 425.826 724.077 426.778ZM717.328 525.84C719.481 524.341 720.944 525.466 722.299 527.12C724.11 529.331 725.922 531.543 727.79 533.706C728.732 534.798 729.833 536.005 731.429 535.067C732.806 534.258 733.768 532.959 733.691 531.224C733.58 528.692 732.41 526.756 730.159 525.553C728.44 524.634 726.676 523.8 724.944 522.905C722.429 521.604 722.32 519.985 724.22 517.975C726.183 515.898 728.072 513.75 729.946 511.592C730.901 510.492 732.87 509.593 731.658 507.764C730.39 505.852 728.286 504.271 726.022 505.278C719.131 508.345 711.927 506.924 704.848 507.297C703.366 507.375 701.719 506.696 700.327 508.221C701.628 511.405 703.949 512.734 707.334 512.175C709.128 511.879 710.889 511.382 712.685 511.111C714.323 510.863 716.226 510.276 717.348 512C718.482 513.743 717.209 515.237 716.197 516.565C711.144 523.201 705.833 529.587 698.709 534.178C698.054 534.6 696.91 534.862 697.463 536.232C704.661 534.232 711.556 531.748 717.328 525.84ZM746.128 540.542C746.172 541.703 746.052 542.951 747.831 543.391C750.37 541.98 752.337 539.855 752.369 536.77C752.428 531.17 753.566 525.659 753.375 520.036C753.168 513.925 753.112 507.79 753.445 501.69C753.589 499.05 753.902 496.928 751.147 495.435C748.253 493.867 745.465 493.257 741.876 495.069C745.391 497.787 745.275 501.291 745.16 504.817C745.096 506.767 745.175 508.722 745.143 510.674C745.07 515.113 744.184 515.98 739.686 516.555C737.466 516.838 735.048 515.906 732.923 517.397C733.707 522.072 736.794 521.268 739.805 520.662C743.927 519.832 745.029 520.672 745.113 524.874C745.213 529.929 744.663 535.023 746.128 540.542ZM772.371 427.047C771.886 450.817 771.952 474.568 774.612 498.244C775.224 491.83 775.8 485.418 775.853 479.002C776.019 458.886 775.951 438.767 776.05 418.65C776.093 409.95 770.663 404.256 762.003 404.102C760.715 404.079 759.434 403.746 758.143 403.687C750.286 403.33 742.487 403.98 734.723 405.144C734.674 405.152 734.683 405.553 734.649 405.965C743.609 406.211 752.533 407.396 761.501 406.831C768.722 406.376 772.565 409.939 772.4 417.285C772.333 420.277 772.373 423.272 772.371 427.047ZM758.896 452.881C755.819 450.056 752.285 449.412 748.439 450.907C743.68 452.757 738.887 452.972 733.895 451.984C731.637 451.536 729.123 451.281 726.929 451.802C718.315 453.85 709.601 453.035 700.919 453.207C699.425 453.237 697.772 452.851 696.559 454.199C698.17 457.68 700.892 459.022 705.508 458.282C710.521 457.478 715.541 456.949 720.615 456.741C723.418 456.625 724.689 457.697 724.858 460.483C725.014 463.071 725.378 465.65 725.75 468.218C726.139 470.907 727.682 471.265 729.949 470.204C733.296 468.638 733.949 465.911 733.866 462.497C733.737 457.165 734.554 456.423 739.913 456.336C745.11 456.252 750.311 456.399 755.507 456.312C757.35 456.282 759.748 456.557 758.896 452.881ZM742.119 483.447C744.068 483.412 746.036 483.536 747.958 483.291C749.516 483.093 751.156 482.37 751.387 480.606C751.587 479.082 749.982 478.585 748.921 477.909C747.309 476.882 745.487 476.518 743.678 477.088C737.376 479.073 730.873 479.014 724.388 479.111C717.315 479.216 716.15 477.77 717.489 470.812C717.725 469.587 718.565 468.41 717.521 467.124C715.656 464.829 708.649 463.696 705.271 465.56C709.313 467.861 709.053 471.447 708.542 475.196C708.318 476.842 708.262 478.573 708.927 480.203C709.876 482.531 711.213 484.353 714.093 484.016C723.165 482.952 732.275 483.753 742.119 483.447ZM752.497 559.959C753.886 559.279 755.663 558.727 755.485 556.838C755.298 554.855 753.358 554.393 751.813 553.787C750.209 553.157 748.407 552.851 746.857 553.559C741.814 555.862 736.479 555.596 731.175 555.638C721.541 555.714 721.222 555.34 722.065 545.827C722.261 543.608 722.645 541.203 719.913 540.208C716.902 539.111 713.797 537.48 710.048 540.361C713.865 542.142 713.913 545.121 713.82 548.214C713.746 550.677 713.66 553.165 713.92 555.605C714.224 558.455 715.759 560.813 718.886 560.491C729.882 559.361 740.865 559.041 752.497 559.959ZM730.275 417.301C726.749 417.485 723.188 415.782 719.613 417.286C721.279 421.876 730.859 424.357 734.41 421.302C735.611 420.268 735.328 419.286 734.216 418.401C733.261 417.642 732.122 417.403 730.275 417.301ZM720.324 502.076C721.873 501.392 724.792 500.257 722.275 498.747C718.857 496.697 714.531 495.806 710.14 496.747C711.967 502.23 712.67 502.6 720.324 502.076Z" fill="#A31621"/>
<path d="M781.495 562.885C779.36 571.616 774.628 577.53 765.989 579.901C764.156 580.404 762.47 580.612 761.797 578.541C761.128 576.483 762.72 576.126 764.37 575.588C771.614 573.222 776.661 568.886 776.112 557.504C775.953 554.216 776.998 551.506 779.281 548.376C781.984 553.176 781.397 557.934 781.495 562.885Z" fill="#A31621"/>
<path d="M341.027 126.994C343.654 126.512 344.437 127.268 344.077 129.773C343.885 131.105 343.368 132.337 342.981 133.609C342.839 134.076 342.775 134.432 343.413 134.628C344.747 135.04 345.019 135.544 344.689 136.96C344.214 138.995 343.09 140.659 341.527 142.015C339.302 143.944 336.662 145.019 333.807 145.635C333.232 145.759 332.606 145.758 332.111 146.123C332.147 146.692 332.615 146.779 332.942 146.965C340.442 151.22 345.206 157.687 348.212 165.609C350.178 170.792 350.821 176.239 351.607 181.667C352.356 186.836 353.705 191.801 357.219 195.889C360.866 200.132 365.643 202.481 370.963 203.863C374.939 204.896 379.004 205.237 383.102 205.377C386.531 205.494 389.857 206.15 392.889 207.883C393.233 208.08 393.576 208.32 394.159 208.267C394.083 207.131 394.036 205.989 393.927 204.852C392.649 191.469 399.314 173.544 413.141 165.118C426.566 156.936 443.686 158.78 454.45 170.693C459.106 175.845 461.798 181.959 462.691 188.832C463.221 192.902 463.071 196.964 462.229 200.99C462.166 201.291 462.231 201.659 461.825 201.82C461.283 201.68 461.319 201.143 461.166 200.769C458.549 194.368 454.705 188.888 448.769 185.166C439.402 179.292 429.859 179.663 420.299 184.775C419.048 185.443 417.872 186.236 416.761 187.117C416.387 187.413 416.063 187.772 415.828 188.291C416.47 187.948 417.113 187.607 417.754 187.262C422.094 184.92 426.672 183.444 431.662 183.525C441.663 183.688 449.116 188.239 453.561 197.062C458.36 206.587 458.062 216.21 452.695 225.547C451.516 227.597 449.964 229.355 448.154 230.876C447.745 231.221 447.369 231.703 446.573 231.672C446.91 229.865 447.407 228.133 447.616 226.348C448.393 219.72 447.397 213.503 443.026 208.223C439.186 203.585 434.108 201.719 428.121 202.271C427.96 202.286 427.798 202.309 427.642 202.348C427.575 202.365 427.521 202.433 427.381 202.537C428.23 203.138 429.244 203.025 430.131 203.281C436.903 205.237 440.97 209.566 441.797 216.598C442.658 223.912 440.865 230.526 435.994 236.184C435.135 237.181 434.108 237.995 432.654 238.603C432.918 236.645 433.461 235.005 433.739 233.312C435.076 225.164 430.169 218.776 421.947 218.059C420.043 217.893 420.043 217.893 419.049 218.344C419.399 219.226 419.786 220.103 420.101 221.005C422.012 226.472 421.481 231.901 419.265 237.075C412.754 252.277 401.223 261.532 385.065 265.09C384.19 265.283 383.751 265.619 383.588 266.533C382.81 270.885 380.503 274.291 376.909 276.829C375.85 277.577 375.26 278.481 375.052 279.78C374.203 285.075 373.288 290.36 372.364 295.643C372.15 296.861 373.032 297.096 373.812 297.36C375.689 297.994 377.596 298.542 379.416 299.339C380.245 299.702 381.014 300.144 381.475 300.959C381.816 301.562 382.17 302.208 381.715 302.885C381.229 303.609 380.529 303.37 379.846 303.203C377.132 302.539 374.405 301.97 371.592 301.914C370.524 301.893 369.587 302.191 368.767 302.832C366.637 304.496 364.342 305.445 361.553 304.856C360.283 304.588 359.07 304.96 357.976 305.692C357.202 306.209 356.381 306.655 355.472 306.9C354.989 307.031 354.479 307.101 354.119 306.666C353.709 306.172 353.944 305.643 354.232 305.205C354.86 304.248 355.74 303.528 356.633 302.825C356.967 302.563 357.453 302.446 357.597 301.856C356.288 301.473 355.04 301.788 353.801 302.075C351.938 302.506 350.197 303.277 348.463 304.06C348.168 304.193 347.869 304.323 347.562 304.421C346.933 304.621 346.273 304.788 345.741 304.243C345.224 303.713 345.495 303.117 345.722 302.547C345.809 302.329 345.994 302.134 345.865 301.807C344.985 301.51 344.146 301.835 343.334 302.152C341.979 302.683 340.658 303.3 339.303 303.833C338.703 304.069 338.004 304.298 337.544 303.599C337.114 302.944 337.428 302.265 337.902 301.84C340.664 299.361 343.547 297.079 347.529 297.001C349.833 296.956 352.14 297.087 354.413 296.498C356.078 296.066 357.241 295.209 357.734 293.505C359.046 288.97 360.229 284.402 361.343 279.815C361.463 279.323 361.358 278.97 360.9 278.691C355.513 275.419 352.127 270.407 349.147 265.08C348.5 263.925 347.677 263.3 346.465 262.87C337.675 259.757 329.35 255.757 322.008 249.919C312.99 242.75 307.096 233.659 304.916 222.292C303.191 213.293 304.559 204.637 307.878 196.203C309.465 192.171 311.613 188.411 313.53 184.539C314.138 183.31 314.651 182.032 315.169 180.761C315.326 180.376 315.617 179.966 315.319 179.484C314.733 179.494 314.41 179.957 313.994 180.247C311.425 182.038 308.65 182.908 305.513 182.12C301.185 181.033 298.802 176.843 299.786 172.06C300.448 168.848 302.02 166.111 304.22 163.709C304.575 163.322 304.937 162.942 305.287 162.551C305.335 162.498 305.338 162.403 305.395 162.218C304.183 161.172 302.635 161.095 301.136 160.902C298.638 160.58 296.125 160.64 293.614 160.65C293.068 160.652 292.398 160.842 292.089 160.202C291.791 159.586 292.311 159.127 292.624 158.69C294.79 155.668 297.693 153.503 300.899 151.699C301.357 151.441 301.82 151.19 302.273 150.924C302.372 150.866 302.438 150.753 302.532 150.652C302.517 150.538 302.545 150.38 302.479 150.312C298.437 146.09 299.905 138.277 302.919 134.332C304.233 132.613 305.792 131.158 307.353 129.693C308.709 128.42 310.079 127.161 311.472 125.928C311.988 125.472 312.608 125.026 313.334 125.411C313.968 125.748 313.817 126.446 313.89 127.041C313.968 127.678 313.46 128.606 314.261 128.885C314.958 129.128 315.421 128.281 315.884 127.805C317.351 126.299 318.76 124.737 320.231 123.236C321.114 122.334 322.126 121.587 323.369 121.229C324.793 120.818 325.795 121.598 325.711 123.074C325.663 123.915 325.546 124.751 325.445 125.729C326.298 125.676 326.865 125.222 327.44 124.835C329.284 123.592 331.069 122.261 333.157 121.419C333.927 121.109 334.706 120.977 335.528 121.003C337.121 121.054 337.797 121.947 337.342 123.499C336.933 124.895 336.39 126.245 335.77 127.563C335.586 127.955 335.324 128.331 335.404 129.095C337.307 128.381 339.118 127.703 341.027 126.994ZM337.889 228.306C335.362 224.252 334.456 219.725 334.141 215.027C333.283 216.537 332.983 220.641 333.424 223.291C334.556 230.105 337.929 235.645 343.376 239.813C352.495 246.79 362.933 248.986 374.202 247.661C380.841 246.881 386.927 244.606 392.261 240.506C392.591 240.251 393.071 240.094 393.092 239.534C392.519 239.251 392.065 239.594 391.609 239.8C380.651 244.726 369.368 245.533 357.832 242.275C349.646 239.962 342.65 235.843 337.889 228.306ZM366.505 296.35C367.283 295.665 367.535 294.722 367.715 293.769C368.461 289.804 368.896 285.803 369.016 281.77C369.031 281.251 369.104 280.66 368.322 280.602C367.65 280.553 367.076 280.573 366.802 281.411C365.345 285.854 363.909 290.303 362.67 294.813C362.363 295.928 362.903 296.532 363.836 296.855C364.714 297.159 365.596 297.082 366.505 296.35ZM313.336 153.436C313.943 154.383 314.807 154.712 315.843 154.301C316.696 153.963 317.191 153.269 317.17 152.317C317.147 151.298 316.541 150.703 315.621 150.375C314.826 150.091 314.174 150.412 313.641 150.943C312.975 151.606 312.851 152.412 313.336 153.436Z" fill="#A31621"/>
<path d="M371.695 613.442L371.638 613.376C364.914 606.059 362.403 593.972 366.664 589.833C366.87 590.053 367.233 590.255 367.259 590.495C367.816 595.503 371.793 598.282 374.577 601.831C375.238 602.674 376.117 603.458 377.238 602.775C378.242 602.164 377.799 601.139 377.58 600.215C377.122 598.285 376.83 596.309 376.268 594.412C375.574 592.066 375.497 590.091 378.146 588.916C378.948 588.56 379.388 587.74 379.42 586.871C379.49 584.995 380.367 583.401 381.339 581.959C384.594 577.132 388.152 572.475 387.699 566.115C389.061 566.437 389.083 567.258 389.15 567.931C389.706 573.513 390.899 579.057 389.986 584.723C389.331 588.783 390.078 589.649 393.964 589.428C394.988 593.136 395.28 596.907 394.618 600.743C394.476 601.568 394.086 602.464 395.084 602.947C396.02 603.399 396.647 602.755 397.164 602.046C398.149 600.697 399.025 599.25 400.131 598.011C402.128 595.776 401.883 592.167 405.153 590.299C406.674 593.498 407.36 596.846 406.479 600.156C405.163 605.106 403.382 609.941 399.344 613.492C398.537 614.202 397.777 615.049 398.337 616.189C398.862 617.257 399.896 616.95 400.833 616.782C412.85 614.634 421.73 608.438 426.37 596.814C429.774 588.287 430.137 579.796 425.895 571.4C424.486 568.61 422.946 565.875 421.725 563.003C419.247 557.168 416.422 551.331 419.243 544.745C419.558 544.01 419.44 543.298 418.802 542.755C418.163 542.212 417.451 542.281 416.748 542.605C414.076 543.837 411.601 545.176 410.259 548.13C409.089 550.705 407.45 553.067 405.622 556.202C404.255 548.65 400.786 543.016 396.966 537.54C393.957 533.224 393.129 528.562 393.954 523.257C394.656 518.741 395.534 514.256 396.174 509.735C396.486 507.533 396.229 505.308 392.841 506.203C383.999 508.54 367.201 532.275 371.78 547.711C372.781 552.372 370.058 556.645 367.201 558.364C366.287 556.049 365.511 553.678 364.432 551.455C362.933 548.368 360.394 546.156 357.58 544.307C356.611 543.67 355.311 543.501 354.332 544.291C353.163 545.234 354.125 546.174 354.678 547.013C355.408 548.12 355.435 549.354 355.556 550.613C356.236 557.726 351.422 562.477 348.008 567.682C343.444 574.639 340.576 581.607 342.729 590.192C346.374 604.727 354.539 614.306 369.832 616.729C370.857 616.892 371.997 617.428 372.666 616.303C373.292 615.251 372.524 614.38 371.695 613.442Z" fill="#A31621"/>
<path d="M516.438 567.293C498.362 567.32 480.677 567.376 462.993 567.372C460.269 567.371 457.529 567.23 454.826 566.904C452.111 566.576 449.992 565.147 450.203 562.131C450.407 559.209 452.614 557.9 455.324 557.718C459.343 557.447 463.376 557.288 467.404 557.257C478.193 557.174 489.014 556.649 499.765 557.278C518.097 558.351 536.393 556.391 554.693 557.252C562.198 557.606 569.727 557.087 577.218 558.057C579.556 558.359 582.221 557.81 582.38 561.233C582.515 564.154 579.715 566.83 576.526 566.719C570.268 566.501 564.048 567.212 557.811 567.267C544.151 567.388 530.489 567.303 516.438 567.293Z" fill="#A31621"/>
<path d="M216.265 557.665C225.712 558.098 234.87 557.878 243.861 557.58C261.418 557 278.964 557.668 296.5 557.009C299.035 556.914 301.44 556.992 303.249 559.186C305.375 561.766 304.879 564.389 301.897 565.915C300.458 566.652 298.903 566.695 297.335 566.76C274.454 567.704 251.559 567.4 228.669 567.505C213.706 567.573 198.742 567.399 183.778 567.366C180.988 567.359 178.287 567.072 176.027 565.283C174.631 564.179 173.724 562.739 174.435 560.849C175.072 559.158 176.483 558.568 178.166 558.57C188.677 558.586 199.161 556.791 209.706 558.221C211.706 558.492 213.828 557.877 216.265 557.665Z" fill="#A31621"/>
<path d="M534.783 573.914C538.779 574.05 542.415 574.101 546.051 574.166C547.22 574.187 548.417 574.095 549.551 574.314C551.976 574.782 554.176 575.928 554.632 578.521C555.105 581.204 552.788 582.284 550.868 583.365C549.107 584.355 547.123 584.504 545.171 584.335C532.576 583.246 519.956 583.937 507.349 583.753C494.413 583.564 481.476 583.409 468.539 583.238C468.019 583.231 467.495 583.241 466.979 583.188C464.263 582.906 460.867 582.958 460.389 579.618C459.883 576.077 463.374 575.189 465.934 574.078C466.965 573.63 468.227 573.559 469.381 573.575C484.194 573.772 499.003 573.208 513.827 573.788C520.658 574.055 527.553 573.234 534.783 573.914Z" fill="#A31621"/>
<path d="M236.437 583.069C227.851 583.167 219.648 582.755 211.461 583.543C208.993 583.78 206.468 583.715 204.346 582.109C202.78 580.922 201.011 579.646 201.812 577.333C202.608 575.038 204.462 573.799 206.911 573.781C223.951 573.658 240.992 573.569 258.032 573.48C266.491 573.435 274.95 573.43 283.409 573.372C287.083 573.347 290.696 573.571 294.091 575.178C295.611 575.897 296.707 576.934 296.705 578.718C296.703 580.693 295.452 581.741 293.759 582.418C291.891 583.165 289.931 583.115 287.981 583.114C270.93 583.106 253.879 583.086 236.437 583.069Z" fill="#A31621"/>
<path d="M290.623 599.133C284.558 600.886 278.728 599.523 272.939 599.689C263.975 599.946 255.038 599.533 246.089 599.554C244.922 599.557 243.717 599.646 242.595 599.397C240.112 598.847 238.121 597.309 238.099 594.728C238.077 592.129 240.373 590.986 242.636 590.705C246.364 590.242 250.135 589.973 253.892 589.917C262.971 589.783 272.046 589.994 281.129 589.322C284.252 589.091 287.591 590.01 290.638 590.999C294.225 592.164 294.232 595.649 290.623 599.133Z" fill="#A31621"/>
<path d="M514.049 593.989C513.01 598.49 509.767 600.123 505.944 600.194C494.239 600.411 482.527 600.364 470.818 600.33C467.485 600.321 463.996 597.503 463.947 595.084C463.895 592.528 467.011 589.935 470.743 589.962C481.533 590.042 492.332 589.371 503.114 590.317C504.791 590.464 506.51 590.506 508.177 590.311C511.043 589.976 512.991 590.965 514.049 593.989Z" fill="#A31621"/>
<path d="M447.397 679.195C448.157 678.435 448.917 677.105 449.297 676.725V655.255C448.727 655.445 448.157 655.255 447.587 655.255H445.022C440.557 655.255 437.042 655.065 436.187 654.875C433.907 654.4 432.292 653.26 431.532 650.98C431.342 650.125 431.152 649.365 431.342 648.415C431.342 647.655 431.722 646.895 432.292 646.04C432.672 645.47 433.527 644.9 434.287 644.52C435.047 643.95 435.807 643.76 436.567 643.57H449.107C449.107 642.145 449.297 639.295 449.297 638.155C449.582 636.54 450.152 635.21 450.722 634.07C451.482 632.835 452.622 632.075 454.047 631.695C455.377 631.125 456.897 631.315 458.322 631.885C459.272 632.265 460.222 633.025 460.602 633.88C461.267 634.64 461.837 635.59 462.027 636.54C462.217 637.585 462.407 638.725 462.407 639.865V643.57H468.867C471.432 643.57 473.332 643.76 475.137 643.95C476.847 644.33 478.462 645.28 479.412 646.895C479.982 647.845 480.172 648.605 480.172 649.555C480.362 650.315 480.172 651.17 479.792 651.93C479.032 653.45 477.512 654.4 475.327 654.875C473.997 655.065 472.192 655.065 470.292 655.255C468.297 655.255 465.542 655.445 462.407 655.255C462.407 657.345 462.217 661.05 462.407 662.57V673.02C462.407 673.59 462.217 674.16 462.407 674.92V676.44C462.977 676.915 463.547 677.865 464.497 678.815C465.352 679.575 465.922 680.335 466.492 681C467.062 681.76 467.632 682.52 468.392 683.28C469.057 683.85 469.627 684.895 470.387 685.655C470.767 686.225 471.147 686.795 471.527 687.175C471.907 687.745 472.287 688.41 472.477 688.79C473.712 690.31 474.852 691.83 475.992 693.825C477.417 695.535 478.177 697.53 478.557 699.24C478.747 700.095 478.747 701.045 478.557 701.995C478.367 702.945 477.987 703.705 477.227 704.56C476.372 705.32 475.232 705.7 473.712 705.7C472.287 705.7 471.147 705.32 469.817 704.75C468.582 703.99 467.632 703.135 466.682 702.375C465.542 701.235 464.497 699.81 463.547 698.67C462.597 697.53 461.647 696.2 460.602 694.775C459.842 694.015 459.082 693.065 458.322 692.02C457.562 690.88 456.517 690.12 455.757 689.36C454.997 690.31 454.237 691.26 453.477 692.305C452.622 693.255 451.862 694.205 451.102 695.155C450.342 696.39 449.297 697.72 448.347 698.86C447.587 700.095 446.637 701.425 445.402 702.565C442.932 705.13 440.747 705.89 438.467 705.89C437.897 705.89 437.232 705.89 436.662 705.7C435.332 705.32 434.382 704.56 433.717 703.135C433.337 702.185 433.147 701.235 433.337 700.095C433.527 698.86 433.717 697.72 434.382 696.96C434.762 695.915 435.332 694.965 435.902 694.015C436.472 693.255 437.042 692.305 437.897 691.45C438.277 691.07 438.657 690.5 439.037 690.12L440.177 688.41C440.557 687.555 440.937 687.175 441.982 685.845C442.932 684.705 443.882 683.47 444.642 682.52C445.687 681.38 446.637 680.145 447.397 679.195ZM499.362 703.135C499.172 703.895 499.172 704.655 498.982 705.415C498.982 707.41 497.842 710.07 496.037 711.115C494.707 711.685 492.902 711.875 491.572 711.685C488.817 711.115 487.677 708.74 487.297 706.175C487.107 705.225 487.107 704.275 486.917 703.325C486.917 701.52 487.107 699.24 487.107 697.055C486.917 692.4 487.107 687.935 487.107 683.185C487.107 677.77 486.917 672.165 487.107 666.655V640.53C487.297 639.58 487.487 638.82 487.677 638.06C488.057 637.3 488.247 636.635 488.817 636.255C489.387 635.685 490.242 635.115 491.002 635.115C491.762 634.925 492.522 634.735 493.282 634.735C494.517 634.735 495.467 635.115 496.227 635.685C497.177 636.255 497.842 637.11 498.222 638.25C498.792 639.39 499.172 641.005 499.172 642.335C499.362 646.23 499.362 649.935 499.362 653.83C499.552 656.585 499.552 659.055 499.362 661.81V703.135Z" fill="#1C1A18"/>
<path d="M401.368 658.01C401.368 655.635 401.748 650.885 399.183 649.555C398.328 649.175 396.998 649.365 395.953 649.365H379.518C379.518 651.17 379.708 659.435 379.708 660.29C379.708 664.47 379.708 669.6 379.518 673.78C379.518 676.535 379.708 679.575 378.378 681.95C376.573 684.895 371.253 686.035 368.878 682.9C367.643 681.475 367.453 679.385 367.073 677.58C366.693 674.35 366.883 670.17 366.883 667.035V649.555C366.503 649.745 366.313 649.555 366.123 649.555C363.083 649.745 360.138 649.555 357.953 649.555C356.813 649.555 355.578 649.365 354.248 649.175C351.873 648.51 350.448 647.085 350.258 644.9C350.068 643.855 350.068 643.095 350.448 642.05C351.398 638.345 355.768 637.11 359.378 636.92C360.138 636.92 361.088 636.92 362.323 636.73C366.693 636.54 371.063 636.54 375.148 636.54C381.133 636.54 386.833 636.54 392.628 636.73H397.948C400.133 636.92 402.318 636.92 404.503 636.92C408.303 637.11 412.388 637.775 413.433 642.05C414.193 644.71 414.003 646.8 414.003 649.365C414.193 651.93 414.193 655.445 414.193 658.295C414.193 662.19 414.383 665.23 414.003 669.22C413.813 673.115 414.383 677.295 412.863 681.285C411.818 683.47 409.633 684.23 407.068 684.04C404.693 683.66 403.268 682.045 402.318 679.86C401.178 676.915 401.178 673.495 401.368 670.36V658.01ZM348.263 695.82C348.833 694.68 349.688 694.015 350.448 693.635C351.873 693.255 353.013 692.875 354.438 692.875C360.708 692.875 366.883 692.685 373.248 692.685C375.813 692.685 379.993 692.875 382.368 692.875V677.77C382.368 677.105 382.368 676.535 382.558 675.965C382.748 675.585 382.938 674.92 383.318 674.35C383.508 673.78 384.078 673.21 384.933 672.83C385.693 672.165 386.643 671.785 387.688 671.785C388.638 671.595 389.873 671.785 390.633 671.975C391.583 672.355 392.438 673.02 393.198 673.78C393.768 674.54 394.243 675.585 394.243 676.725L394.433 692.685H401.368C402.698 692.685 404.503 692.685 406.118 692.875C408.683 692.875 411.248 693.065 413.623 693.065C415.808 692.875 417.803 693.445 419.323 695.06C420.368 695.82 420.748 697.055 420.748 698.385C420.748 699.05 420.748 699.81 420.368 700.57C420.178 701.425 419.988 701.995 419.513 702.375C418.943 702.945 418.373 703.325 417.613 703.61C416.758 703.8 416.188 703.99 415.428 704.18H365.648C362.893 704.18 360.138 704.18 357.573 704.37H353.203C351.873 704.18 350.448 703.8 349.498 702.755C347.313 701.235 346.838 698.005 348.263 695.82Z" fill="#1C1A18"/>
<path d="M304.84 680.905H315.29C318.805 680.905 321.37 681.095 324.6 682.9C326.69 684.135 327.735 686.89 327.735 689.93V700.475C327.735 703.61 328.115 707.695 326.595 710.45C324.885 713.49 319.945 714.44 318.045 711.305C315.86 707.79 316.525 703.04 316.335 699.145V695.63C316.335 692.875 315.1 691.925 312.82 691.83C310.635 691.735 311.395 691.83 309.21 691.83H307.12C305.22 691.83 303.51 691.83 302.085 691.545V694.395C302.085 696.105 301.42 698.005 299.425 699.24C297.81 700.095 296.195 700.095 293.63 700.095H279.285V704.275H294.58C295.72 704.275 296.765 704.275 297.715 704.37C299.71 704.465 301.42 705.225 301.99 707.22C302.75 709.595 301.895 711.305 299.615 712.255C298.095 712.825 296.385 712.92 295.055 712.92H280.805C278.24 712.92 275.485 712.92 272.73 712.73C270.07 712.635 268.17 710.64 267.885 707.695C267.6 705.51 267.6 705.795 267.6 703.99V700.095C267.505 698.67 267.41 696.39 268.645 695.06C270.26 693.16 273.68 692.875 276.435 692.875C277.575 692.875 278.62 692.97 291.16 692.97V688.79H278.81C278.05 688.79 277.385 688.695 276.72 688.79H274.345C273.11 688.79 272.065 688.79 271.115 688.6C269.975 688.315 269.12 688.315 268.455 687.27C267.6 685.845 267.315 684.61 267.79 682.995C268.455 680.905 271.305 680.62 272.73 680.335C273.68 680.24 274.63 680.145 275.77 680.145H277.385C277.955 680.24 278.525 680.24 279.095 680.24H292.11C295.72 680.24 298.475 680.905 300.09 682.235C301.705 681.095 303.985 680.905 304.84 680.905ZM296.765 662.095C300.47 662.095 305.6 662.19 305.6 667.415C305.6 672.83 296.385 673.115 291.54 673.115H278.145C273.585 673.21 268.55 673.21 266.555 670.17C264.37 666.845 264.845 660.29 264.845 659.91L265.035 645.66C265.035 644.9 265.035 641.195 265.985 639.58C267.125 637.775 268.17 637.015 270.165 636.73C271.59 636.445 273.395 636.35 275.675 636.35C276.91 636.35 293.06 636.54 294.295 636.73C297.62 636.73 301.61 636.635 303.605 639.865C305.03 642.05 304.935 643.855 303.415 645.945C301.99 648.035 297.81 648.225 295.72 648.225L278.05 648.13L278.24 661.81C281.565 662.095 293.44 662.19 296.765 662.095ZM330.395 662.57H327.26V671.12C327.26 674.445 325.36 677.295 321.465 677.295C320.515 677.295 319.375 677.105 318.615 676.63C316.05 675.11 315.67 672.355 315.67 671.405V642.145C315.575 641.67 315.765 638.725 316.525 637.205C317.095 635.97 318.71 635.115 320.515 634.925C322.7 634.64 324.695 635.21 325.74 636.35C326.5 637.3 326.69 638.25 326.975 639.295C327.355 640.435 327.355 643.095 327.26 644.33V652.025C328.305 652.12 334.385 652.215 335.525 652.5C337.995 652.975 338.85 654.02 339.135 655.35C339.515 656.68 339.61 658.865 338.85 660.1C337.33 662.57 334.1 662.475 330.395 662.57Z" fill="#1C1A18"/>
</svg>
