<svg width="500" height="500" viewBox="0 0 500 500" fill="none" xmlns="http://www.w3.org/2000/svg">
<circle cx="250" cy="250" r="249.5" fill="#252422" stroke="#C9A84C"/>
<circle cx="250" cy="250" r="222.576" stroke="#C9A84C" stroke-width="0.5"/>
<path d="M499 260.5C499 227.581 487.937 195.5 464.386 172.223C440.834 148.946 408.891 135.87 375.584 135.87C342.277 135.87 310.335 148.946 286.783 172.223C263.231 195.5 250 247.283 250 259.989C250 277.174 236.769 324.478 213.217 347.755C189.666 371.032 157.723 384.108 124.416 384.108C91.1091 384.108 59.1663 371.032 35.6147 347.755C17 327.5 1.99999 308.5 1.49999 272.5C6.93477 344.033 46.1957 404.891 95.1087 445.652C151 486.5 188.5 496.783 251 499.5C317.614 499.5 371 477.5 427.5 426C475 371 493.5 332 499 260.5Z" fill="white" fill-opacity="0.08"/>
<path d="M149.052 189.87V309.348C149.052 313.522 149.461 316.739 150.277 319C151.094 321.087 152.728 322.478 155.178 323.174C157.832 323.87 161.61 324.217 166.51 324.217H176.923C192.85 324.217 206.632 320.565 218.27 313.261C229.909 305.957 237.668 296.217 241.547 284.043C241.751 283.522 242.364 283.348 243.385 283.522C244.406 283.696 244.916 284.043 244.916 284.565C244.304 290.304 243.691 297.261 243.078 305.435C242.466 313.435 242.16 320.826 242.16 327.609C242.16 330.217 240.628 331.522 237.566 331.522H93.0041C92.5958 331.522 92.3916 331 92.3916 329.957C92.3916 328.913 92.5958 328.391 93.0041 328.391C99.3338 328.391 104.03 327.957 107.093 327.087C110.156 326.217 112.197 324.478 113.218 321.87C114.443 319.261 115.056 315.435 115.056 310.391V189.609C115.056 184.565 114.443 180.826 113.218 178.391C112.197 175.783 110.156 174.043 107.093 173.174C104.03 172.13 99.3338 171.609 93.0041 171.609C92.5958 171.609 92.3916 171.087 92.3916 170.043C92.3916 169 92.5958 168.478 93.0041 168.478C97.9045 168.478 103.724 168.652 110.462 169C117.404 169.174 124.55 169.261 131.901 169.261C139.66 169.261 146.806 169.174 153.34 169C159.874 168.652 165.693 168.478 170.798 168.478C171.41 168.478 171.717 169 171.717 170.043C171.717 171.087 171.41 171.609 170.798 171.609C164.672 171.609 159.976 172.13 156.709 173.174C153.646 174.043 151.605 175.783 150.584 178.391C149.563 181 149.052 184.826 149.052 189.87Z" fill="white"/>
<path d="M252.38 325.515C252.38 324.908 252.417 324.03 252.703 323.178C252.955 322.425 254.019 320.165 256.77 320.165L258.583 320.142C262.624 320.054 265.358 319.666 266.998 319.123L267.032 319.112L267.066 319.104C268.613 318.624 269.361 317.834 269.768 316.62L269.803 316.514L269.844 316.408C270.565 314.619 271.06 311.577 271.061 306.958V192.388C271.061 188.295 270.739 185.489 270.259 183.738L270.042 183.05L270.031 183.013L270.015 182.971C269.659 181.909 269.044 181.176 267.86 180.687L267.317 180.49L267.172 180.445L267.032 180.389C265.241 179.677 262.104 179.18 257.268 179.18C256.462 179.18 255.583 178.971 254.782 178.44C254.005 177.925 253.521 177.256 253.227 176.673C252.696 175.618 252.631 174.523 252.631 173.83C252.631 173.138 252.696 172.042 253.227 170.987C253.521 170.405 254.006 169.738 254.782 169.224C255.583 168.693 256.462 168.48 257.268 168.48C261.676 168.48 266.567 168.645 271.935 168.978C277.175 169.14 282.749 169.224 288.654 169.224V173.09L284.23 173.075C279.872 173.044 275.699 172.965 271.714 172.841C266.401 172.511 261.585 172.346 257.268 172.346C256.77 172.347 256.523 172.841 256.523 173.83L256.568 174.48C256.662 175.037 256.894 175.314 257.268 175.314C262.249 175.314 265.985 175.812 268.476 176.802C271.133 177.626 272.879 179.274 273.71 181.748C274.54 184.057 274.952 187.605 274.953 192.388V306.958L274.93 308.694C274.821 312.628 274.331 315.678 273.459 317.843C272.629 320.317 270.886 321.968 268.229 322.793C265.738 323.618 261.918 324.031 256.77 324.031L256.652 324.054C256.399 324.164 256.272 324.651 256.272 325.515L256.302 326.165C256.365 326.721 256.521 326.999 256.77 326.999C258.929 326.999 261.234 326.98 263.683 326.939L271.467 326.75C276.947 326.585 282.677 326.504 288.654 326.504L293.276 326.52C297.791 326.55 301.98 326.626 305.841 326.75C309.826 326.874 313.53 326.953 316.955 326.984L320.288 326.999C320.869 326.999 321.196 326.62 321.269 325.863L321.284 325.515C321.284 324.649 321.029 324.162 320.52 324.054L320.288 324.031C315.783 324.031 312.295 323.715 309.825 323.084L308.829 322.793C306.338 321.968 304.676 320.317 303.846 317.843C303.12 315.678 302.713 312.628 302.622 308.694L302.603 306.958V253.09L308.171 247.471L340.713 291.119C346.691 299.202 351.507 305.636 355.16 310.42C358.813 315.204 361.72 318.835 363.879 321.309C366.202 323.782 368.194 325.43 369.854 326.255C371.307 326.977 372.952 327.385 374.787 327.475L375.585 327.494C376.249 327.494 376.975 327.474 377.763 327.433L380.317 327.248C381.687 327.124 383.244 327.045 384.988 327.014L386.794 326.999H414.691L414.866 326.976C415.138 326.899 415.313 326.628 415.391 326.165L415.44 325.515C415.44 324.649 415.247 324.162 414.866 324.054L414.691 324.031C412.034 324.031 409.544 323.863 407.219 323.533C405.33 323.244 403.378 322.515 401.362 321.343L400.492 320.814C398.167 319.33 395.429 316.936 392.274 313.637C389.285 310.173 385.549 305.553 381.066 299.78C376.582 293.841 371.1 286.335 364.624 277.262L327.654 227.815L355.905 199.316C362.91 192.512 370.648 187.015 379.112 182.82L380.815 181.997C389.948 177.543 398.334 175.314 405.972 175.314C406.346 175.314 406.578 175.037 406.672 174.48L406.721 173.83C406.721 172.841 406.47 172.346 405.972 172.346C401.655 172.346 397.171 172.511 392.521 172.841C387.872 173.006 381.56 173.09 373.59 173.09V169.224C381.518 169.224 387.764 169.14 392.343 168.978C397.042 168.647 401.586 168.48 405.972 168.48C406.778 168.48 407.656 168.693 408.458 169.224C409.234 169.738 409.719 170.405 410.012 170.987C410.543 172.042 410.613 173.138 410.613 173.83L410.594 174.419C410.55 175.069 410.411 175.882 410.012 176.673C409.719 177.256 409.235 177.926 408.458 178.44C407.656 178.971 406.778 179.18 405.972 179.18C399.092 179.18 391.298 181.191 382.529 185.467L382.503 185.478L382.48 185.493C373.751 189.592 365.8 195.115 358.626 202.084L332.766 228.17L367.748 274.959L367.775 274.993L367.797 275.027C374.262 284.084 379.723 291.56 384.179 297.462C388.592 303.144 392.25 307.663 395.159 311.039C398.191 314.203 400.663 316.324 402.597 317.56C404.581 318.827 406.315 319.483 407.812 319.712H407.808C409.387 319.935 411.069 320.078 412.855 320.135L414.691 320.165C415.497 320.165 416.375 320.374 417.177 320.905C417.954 321.42 418.438 322.09 418.731 322.672C419.263 323.727 419.332 324.823 419.332 325.515L419.313 326.1C419.269 326.75 419.13 327.566 418.731 328.358C418.438 328.94 417.953 329.607 417.177 330.122C416.375 330.652 415.497 330.865 414.691 330.865H386.794C384.383 330.865 382.347 330.944 380.671 331.096C378.768 331.268 377.066 331.36 375.585 331.36C372.921 331.36 370.395 330.848 368.113 329.714C366.111 328.719 364.044 327.024 361.937 324.888L361.032 323.945L360.983 323.895L360.937 323.839C359.256 321.911 357.165 319.346 354.677 316.155L352.059 312.757C348.388 307.951 343.557 301.5 337.574 293.41V293.407L307.753 253.407L306.495 254.675V306.958L306.514 308.63C306.59 311.838 306.882 314.21 307.312 315.857L307.54 316.62C307.928 317.775 308.549 318.49 309.589 318.945L310.06 319.123C311.7 319.666 314.433 320.054 318.475 320.142L320.288 320.165C321.753 320.165 323.295 320.803 324.271 322.257C324.864 323.14 325.077 324.079 325.145 324.832L325.176 325.515L325.145 326.195C325.077 326.948 324.864 327.89 324.271 328.774C323.295 330.227 321.753 330.865 320.288 330.865C318.105 330.865 315.799 330.843 313.371 330.801L305.72 330.616H305.716C300.618 330.453 294.931 330.371 288.654 330.371C282.712 330.371 277.022 330.453 271.585 330.616C266.076 330.782 261.135 330.865 256.77 330.865C254.02 330.865 252.956 328.606 252.703 327.852C252.417 327.001 252.38 326.123 252.38 325.515ZM336.821 173.83C336.821 173.138 336.887 172.042 337.418 170.987C337.711 170.405 338.197 169.738 338.973 169.224C339.774 168.693 340.653 168.48 341.458 168.48C346.004 168.48 350.629 168.647 355.331 168.978C359.91 169.14 365.991 169.224 373.59 169.224V173.09L368.143 173.075C364.697 173.054 361.625 173.012 358.926 172.95L355.16 172.841C350.51 172.511 345.942 172.346 341.458 172.346C340.961 172.347 340.713 172.842 340.713 173.83L340.759 174.48C340.852 175.036 341.085 175.313 341.458 175.314C349.761 175.314 354.661 177.543 356.156 181.997C357.816 186.451 355.572 191.729 349.428 197.832L302.603 245.433V192.882C302.603 188.697 302.921 185.396 303.557 182.979L303.846 181.997C304.718 179.832 306.163 178.234 308.179 177.206L309.08 176.802C311.259 175.936 314.392 175.449 318.479 175.34L320.288 175.314C320.786 175.313 321.033 174.819 321.033 173.83C321.033 172.965 320.844 172.477 320.463 172.369L320.288 172.346C316.137 172.346 311.402 172.511 306.088 172.841C300.775 173.006 294.964 173.09 288.654 173.09V169.224C294.89 169.224 300.626 169.14 305.864 168.978C311.23 168.645 316.041 168.48 320.288 168.48L320.904 168.522C321.528 168.606 322.173 168.826 322.774 169.224C323.55 169.738 324.035 170.405 324.328 170.987C324.859 172.042 324.925 173.138 324.925 173.83C324.925 174.522 324.859 175.618 324.328 176.673C324.035 177.256 323.551 177.925 322.774 178.44C321.972 178.971 321.093 179.18 320.288 179.18C315.452 179.18 312.315 179.677 310.524 180.389C309.058 180.971 308.109 181.895 307.506 183.326C306.895 185.215 306.495 188.316 306.495 192.882V235.944L346.646 195.129L346.677 195.099C352.282 189.53 353.2 185.949 352.636 183.76L352.507 183.341L352.461 183.22C351.836 181.356 349.496 179.18 341.458 179.18C340.653 179.18 339.774 178.971 338.973 178.44C338.195 177.926 337.711 177.256 337.418 176.673C336.887 175.618 336.821 174.522 336.821 173.83Z" fill="url(#paint0_linear_35_661)"/>
<path d="M276.889 307.355V193.45C276.889 188.694 276.472 185.168 275.638 182.872C274.804 180.411 273.053 178.771 270.384 177.951C267.883 176.967 264.13 176.475 259.127 176.475C258.626 176.475 258.376 175.983 258.376 174.999C258.376 174.015 258.626 173.523 259.127 173.523C263.463 173.523 268.3 173.687 273.637 174.015C278.974 174.179 284.644 174.261 290.648 174.261C296.986 174.261 302.823 174.179 308.161 174.015C313.498 173.687 318.251 173.523 322.42 173.523C322.921 173.523 323.171 174.015 323.171 174.999C323.171 175.983 322.921 176.475 322.42 176.475C317.417 176.475 313.664 176.967 311.163 177.951C308.661 178.935 306.91 180.657 305.909 183.118C305.075 185.578 304.658 189.186 304.658 193.942V307.355C304.658 312.111 305.075 315.719 305.909 318.18C306.743 320.64 308.411 322.28 310.912 323.1C313.414 323.92 317.25 322.928 322.42 322.928C323.087 322.928 323.421 324.822 323.421 325.806C323.421 326.79 323.087 327.282 322.42 327.282C318.084 327.282 313.247 327.2 307.91 327.036C302.74 326.872 296.986 326.79 290.648 326.79C284.644 326.79 278.89 326.872 273.387 327.036C267.883 327.2 262.963 327.282 258.626 327.282C258.293 327.282 258.126 326.79 258.126 325.806C258.126 324.822 258.293 324.33 258.626 324.33C263.797 324.33 267.633 323.92 270.134 323.1C272.803 322.28 274.554 320.64 275.388 318.18C276.389 315.719 276.889 312.111 276.889 307.355ZM342.935 291.61L308.661 246.097L328.675 227.154L366.951 277.833C373.456 286.854 378.959 294.316 383.462 300.22C387.966 305.961 391.718 310.553 394.72 313.997C397.889 317.278 400.641 319.656 402.976 321.132C405.311 322.608 407.562 322.108 409.731 322.436C412.066 322.764 414.567 324.33 417.236 324.33C417.736 324.33 417.986 324.822 417.986 325.806C417.986 326.79 417.736 327.282 417.236 327.282C409.897 327.282 403.977 327.282 399.474 327.282C394.97 327.282 391.551 327.282 389.216 327.282C386.715 327.282 384.547 327.364 382.712 327.528C380.877 327.692 379.293 327.774 377.959 327.774C375.791 327.774 373.873 327.364 372.205 326.544C370.537 325.724 368.536 324.084 366.201 321.624C364.032 319.164 361.114 315.555 357.445 310.799C353.775 306.043 348.939 299.646 342.935 291.61ZM287.146 263.81L351.691 198.862C357.861 192.794 360.113 187.546 358.445 183.118C356.944 178.689 352.024 176.475 343.685 176.475C343.185 176.475 342.935 175.983 342.935 174.999C342.935 174.015 343.185 173.523 343.685 173.523C348.188 173.523 352.775 173.687 357.445 174.015C362.114 174.179 368.285 174.261 375.957 174.261C383.963 174.261 390.301 174.179 394.97 174.015C399.64 173.687 404.143 173.523 408.48 173.523C408.98 173.523 409.23 174.015 409.23 174.999C409.23 175.983 408.98 176.475 408.48 176.475C400.808 176.475 392.385 178.689 383.212 183.118C374.039 187.382 365.7 193.122 358.195 200.339L293.901 264.548L287.146 263.81Z" fill="url(#paint1_linear_35_661)"/>
<defs>
<linearGradient id="paint0_linear_35_661" x1="259.286" y1="250.529" x2="426.513" y2="250.529" gradientUnits="userSpaceOnUse">
<stop stop-color="#A9831C"/>
<stop offset="0.33" stop-color="#C9A84C"/>
<stop offset="0.66" stop-color="#937115"/>
<stop offset="1" stop-color="#A9831C"/>
</linearGradient>
<linearGradient id="paint1_linear_35_661" x1="257.904" y1="250.559" x2="422.129" y2="250.559" gradientUnits="userSpaceOnUse">
<stop stop-color="#A9831C"/>
<stop offset="0.33" stop-color="#C9A84C"/>
<stop offset="0.66" stop-color="#937115"/>
<stop offset="1" stop-color="#A9831C"/>
</linearGradient>
</defs>
</svg>
