<svg width="500" height="500" viewBox="0 0 500 500" fill="none" xmlns="http://www.w3.org/2000/svg">
<circle cx="250" cy="250" r="222.576" stroke="#C9A84C" stroke-width="0.5"/>
<path d="M499 260.5C499 227.581 487.937 195.5 464.386 172.223C440.834 148.946 408.891 135.87 375.584 135.87C342.277 135.87 310.335 148.946 286.783 172.223C263.231 195.5 250 247.283 250 259.989C250 277.174 236.769 324.478 213.217 347.755C189.666 371.032 157.723 384.108 124.416 384.108C91.1091 384.108 59.1663 371.032 35.6147 347.755C17 327.5 1.99999 308.5 1.49999 272.5C6.93477 344.033 46.1957 404.891 95.1087 445.652C151 486.5 188.5 496.783 251 499.5C317.614 499.5 371 477.5 427.5 426C475 371 493.5 332 499 260.5Z" fill="#C9A84C" fill-opacity="0.2"/>
<circle cx="250" cy="250" r="249.5" stroke="#C9A84C"/>
<path d="M149.052 189.87V309.348C149.052 313.522 149.461 316.739 150.277 319C151.094 321.087 152.728 322.478 155.178 323.174C157.832 323.87 161.61 324.217 166.51 324.217H176.923C192.85 324.217 206.632 320.565 218.27 313.261C229.909 305.957 237.668 296.217 241.547 284.043C241.751 283.522 242.364 283.348 243.385 283.522C244.406 283.696 244.916 284.043 244.916 284.565C244.304 290.304 243.691 297.261 243.079 305.435C242.466 313.435 242.16 320.826 242.16 327.609C242.16 330.217 240.628 331.522 237.566 331.522H93.0042C92.5958 331.522 92.3916 331 92.3916 329.957C92.3916 328.913 92.5958 328.391 93.0042 328.391C99.3338 328.391 104.03 327.957 107.093 327.087C110.156 326.217 112.197 324.478 113.218 321.87C114.443 319.261 115.056 315.435 115.056 310.391V189.609C115.056 184.565 114.443 180.826 113.218 178.391C112.197 175.783 110.156 174.043 107.093 173.174C104.03 172.13 99.3338 171.609 93.0042 171.609C92.5958 171.609 92.3916 171.087 92.3916 170.043C92.3916 169 92.5958 168.478 93.0042 168.478C97.9045 168.478 103.724 168.652 110.462 169C117.404 169.174 124.55 169.261 131.901 169.261C139.66 169.261 146.806 169.174 153.34 169C159.874 168.652 165.693 168.478 170.798 168.478C171.41 168.478 171.717 169 171.717 170.043C171.717 171.087 171.41 171.609 170.798 171.609C164.672 171.609 159.976 172.13 156.709 173.174C153.646 174.043 151.605 175.783 150.584 178.391C149.563 181 149.052 184.826 149.052 189.87Z" fill="#252422"/>
<path d="M247.39 325.669C247.39 325.061 247.427 324.183 247.713 323.33C247.966 322.577 249.03 320.314 251.784 320.314L253.599 320.291C257.644 320.203 260.38 319.814 262.022 319.271L262.056 319.26L262.09 319.252C263.639 318.771 264.387 317.981 264.795 316.765L264.829 316.659L264.871 316.554C265.592 314.763 266.089 311.717 266.089 307.094V192.411C266.089 188.315 265.767 185.505 265.286 183.753L265.069 183.065L265.058 183.027L265.042 182.985C264.686 181.922 264.07 181.188 262.885 180.699L262.341 180.502L262.197 180.457L262.056 180.4C260.264 179.688 257.124 179.191 252.282 179.191C251.476 179.191 250.596 178.981 249.794 178.45C249.016 177.935 248.531 177.264 248.238 176.681C247.706 175.625 247.641 174.528 247.641 173.835C247.641 173.142 247.707 172.045 248.238 170.99C248.531 170.407 249.017 169.739 249.794 169.225C250.596 168.693 251.476 168.48 252.282 168.48C256.695 168.48 261.591 168.646 266.964 168.979C272.209 169.141 277.788 169.225 283.7 169.225V173.095L279.271 173.08C274.909 173.049 270.732 172.969 266.743 172.845C261.424 172.515 256.604 172.35 252.282 172.35C251.784 172.35 251.537 172.846 251.537 173.835L251.582 174.485C251.676 175.043 251.908 175.32 252.282 175.321C257.269 175.321 261.008 175.819 263.502 176.81C266.161 177.635 267.909 179.284 268.74 181.761C269.571 184.072 269.984 187.623 269.985 192.411V307.094L269.962 308.832C269.853 312.77 269.362 315.822 268.489 317.99C267.658 320.466 265.913 322.119 263.254 322.944C260.761 323.77 256.937 324.184 251.784 324.184L251.666 324.207C251.412 324.316 251.285 324.804 251.285 325.669L251.316 326.32C251.378 326.876 251.535 327.155 251.784 327.155C253.945 327.155 256.252 327.136 258.704 327.094L266.496 326.905C271.981 326.74 277.716 326.66 283.7 326.66L288.326 326.675C292.845 326.706 297.039 326.781 300.904 326.905C304.892 327.029 308.6 327.109 312.028 327.14L315.364 327.155C315.946 327.154 316.273 326.775 316.346 326.017L316.361 325.669C316.361 324.802 316.106 324.315 315.597 324.207L315.364 324.184C310.855 324.184 307.363 323.868 304.891 323.236L303.894 322.944C301.401 322.119 299.737 320.466 298.906 317.99C298.179 315.822 297.772 312.769 297.681 308.832L297.662 307.094V253.173L303.236 247.549L335.81 291.239C341.794 299.33 346.614 305.771 350.271 310.559C353.927 315.348 356.837 318.982 358.998 321.459C361.324 323.934 363.317 325.584 364.979 326.41C366.433 327.133 368.081 327.541 369.917 327.631L370.716 327.65C371.38 327.65 372.107 327.631 372.896 327.589L375.453 327.404C376.824 327.28 378.383 327.201 380.128 327.17L381.935 327.155H409.86L410.035 327.132C410.308 327.055 410.482 326.783 410.56 326.32L410.61 325.669C410.61 324.803 410.417 324.315 410.035 324.207L409.86 324.184C407.201 324.184 404.708 324.015 402.381 323.685C400.49 323.396 398.536 322.667 396.518 321.493L395.647 320.964C393.32 319.478 390.579 317.082 387.421 313.779C384.43 310.312 380.69 305.688 376.202 299.909C371.714 293.964 366.226 286.45 359.744 277.369L322.738 227.873L351.016 199.346C358.029 192.535 365.773 187.033 374.247 182.834L375.951 182.01C385.093 177.552 393.487 175.321 401.133 175.321C401.507 175.321 401.739 175.043 401.833 174.485L401.882 173.835C401.882 172.845 401.631 172.35 401.133 172.35C396.811 172.35 392.323 172.515 387.669 172.845C383.015 173.01 376.697 173.095 368.719 173.095V169.225C376.655 169.225 382.907 169.141 387.49 168.979C392.194 168.647 396.742 168.48 401.133 168.48C401.939 168.48 402.818 168.693 403.621 169.225C404.398 169.739 404.884 170.407 405.177 170.99C405.709 172.045 405.778 173.142 405.778 173.835L405.759 174.425C405.715 175.075 405.576 175.889 405.177 176.681C404.884 177.264 404.399 177.935 403.621 178.45C402.819 178.981 401.939 179.191 401.133 179.191C394.246 179.191 386.444 181.203 377.667 185.484L377.64 185.495L377.617 185.51C368.88 189.613 360.922 195.141 353.74 202.117L327.855 228.229L362.871 275.063L362.898 275.097L362.921 275.131C369.392 284.197 374.858 291.681 379.318 297.588C383.736 303.276 387.397 307.8 390.309 311.179C393.344 314.346 395.818 316.469 397.754 317.706C399.74 318.974 401.476 319.631 402.974 319.86H402.97C404.551 320.083 406.235 320.227 408.023 320.284L409.86 320.314C410.667 320.314 411.546 320.523 412.348 321.055C413.127 321.57 413.611 322.241 413.905 322.824C414.436 323.88 414.506 324.976 414.506 325.669L414.487 326.255C414.443 326.906 414.304 327.722 413.905 328.515C413.611 329.098 413.125 329.766 412.348 330.28C411.546 330.812 410.667 331.025 409.86 331.025H381.935C379.522 331.025 377.484 331.104 375.806 331.255C373.902 331.427 372.198 331.52 370.716 331.52C368.049 331.52 365.521 331.007 363.236 329.872C361.233 328.877 359.164 327.18 357.054 325.042L356.149 324.097L356.099 324.048L356.053 323.991C354.37 322.062 352.277 319.494 349.787 316.3L347.166 312.899C343.492 308.088 338.656 301.631 332.667 293.533V293.529L302.817 253.49L301.558 254.76V307.094L301.577 308.768C301.653 311.979 301.945 314.353 302.376 316.002L302.604 316.765C302.992 317.922 303.614 318.638 304.655 319.093L305.127 319.271C306.768 319.815 309.504 320.203 313.55 320.291L315.364 320.314C316.831 320.314 318.375 320.952 319.352 322.408C319.945 323.292 320.158 324.232 320.227 324.985L320.257 325.669L320.227 326.35C320.158 327.104 319.945 328.046 319.352 328.931C318.375 330.386 316.831 331.025 315.364 331.025C313.179 331.025 310.871 331.002 308.44 330.961L300.782 330.775H300.778C295.675 330.612 289.983 330.53 283.7 330.53C277.752 330.53 272.056 330.612 266.614 330.775C261.099 330.941 256.154 331.025 251.784 331.025C249.032 331.025 247.967 328.763 247.713 328.009C247.427 327.157 247.39 326.278 247.39 325.669ZM331.914 173.835C331.914 173.142 331.98 172.045 332.511 170.99C332.805 170.407 333.291 169.739 334.067 169.225C334.869 168.693 335.749 168.48 336.555 168.48C341.106 168.48 345.735 168.647 350.442 168.979C355.026 169.141 361.113 169.225 368.719 169.225V173.095L363.267 173.08C359.817 173.059 356.742 173.017 354.041 172.955L350.271 172.845C345.616 172.515 341.043 172.35 336.555 172.35C336.058 172.351 335.81 172.846 335.81 173.835L335.855 174.485C335.949 175.043 336.182 175.32 336.555 175.321C344.867 175.321 349.771 177.552 351.267 182.01C352.929 186.469 350.683 191.752 344.533 197.861L297.662 245.508V192.906C297.662 188.717 297.981 185.413 298.617 182.993L298.906 182.01C299.779 179.843 301.225 178.244 303.243 177.214L304.145 176.81C306.327 175.943 309.463 175.455 313.554 175.347L315.364 175.321C315.863 175.32 316.11 174.826 316.11 173.835C316.11 172.969 315.921 172.481 315.539 172.373L315.364 172.35C311.209 172.35 306.47 172.515 301.151 172.845C295.832 173.01 290.015 173.095 283.7 173.095V169.225C289.941 169.225 295.683 169.14 300.926 168.979C306.298 168.646 311.114 168.48 315.364 168.48L315.981 168.522C316.606 168.606 317.251 168.826 317.853 169.225C318.629 169.739 319.115 170.407 319.409 170.99C319.94 172.045 320.006 173.142 320.006 173.835C320.006 174.528 319.94 175.625 319.409 176.681C319.115 177.264 318.631 177.935 317.853 178.45C317.05 178.981 316.171 179.191 315.364 179.191C310.523 179.191 307.383 179.688 305.591 180.4C304.124 180.983 303.174 181.908 302.57 183.341C301.959 185.232 301.558 188.335 301.558 192.906V236.01L341.749 195.155L341.779 195.125C347.39 189.551 348.309 185.966 347.744 183.775L347.615 183.356L347.569 183.235C346.943 181.369 344.601 179.191 336.555 179.191C335.749 179.191 334.869 178.981 334.067 178.45C333.29 177.935 332.805 177.264 332.511 176.681C331.98 175.625 331.914 174.528 331.914 173.835Z" fill="url(#paint0_linear_35_670)"/>
<path d="M271.922 307.492V193.475C271.922 188.714 271.505 185.184 270.67 182.886C269.835 180.423 268.082 178.782 265.411 177.961C262.907 176.976 259.151 176.483 254.142 176.483C253.641 176.483 253.391 175.991 253.391 175.006C253.391 174.021 253.641 173.528 254.142 173.528C258.483 173.528 263.324 173.692 268.667 174.021C274.009 174.185 279.685 174.267 285.695 174.267C292.039 174.267 297.882 174.185 303.224 174.021C308.567 173.692 313.325 173.528 317.498 173.528C317.999 173.528 318.249 174.021 318.249 175.006C318.249 175.991 317.999 176.483 317.498 176.483C312.49 176.483 308.734 176.976 306.229 177.961C303.725 178.946 301.972 180.67 300.971 183.132C300.136 185.595 299.718 189.206 299.718 193.967V307.492C299.718 312.252 300.136 315.864 300.971 318.327C301.805 320.789 303.475 322.431 305.979 323.252C308.483 324.073 312.323 323.08 317.498 323.08C318.166 323.08 318.5 324.976 318.5 325.961C318.5 326.946 318.166 327.438 317.498 327.438C313.158 327.438 308.316 327.356 302.974 327.192C297.799 327.028 292.039 326.946 285.695 326.946C279.685 326.946 273.925 327.028 268.416 327.192C262.907 327.356 257.982 327.438 253.641 327.438C253.308 327.438 253.141 326.946 253.141 325.961C253.141 324.976 253.308 324.483 253.641 324.483C258.817 324.483 262.657 324.073 265.161 323.252C267.832 322.431 269.585 320.789 270.419 318.327C271.421 315.864 271.922 312.252 271.922 307.492ZM338.032 291.731L303.725 246.174L323.759 227.212L362.073 277.941C368.584 286.97 374.093 294.44 378.6 300.35C383.108 306.096 386.864 310.693 389.869 314.14C393.041 317.424 395.796 319.804 398.133 321.282C400.47 322.759 402.724 322.259 404.894 322.587C407.231 322.915 409.736 324.483 412.407 324.483C412.908 324.483 413.158 324.976 413.158 325.961C413.158 326.946 412.908 327.438 412.407 327.438C405.061 327.438 399.135 327.438 394.627 327.438C390.119 327.438 386.697 327.438 384.36 327.438C381.856 327.438 379.685 327.52 377.849 327.685C376.013 327.849 374.427 327.931 373.091 327.931C370.921 327.931 369.001 327.52 367.331 326.699C365.662 325.879 363.659 324.237 361.321 321.774C359.151 319.312 356.23 315.7 352.557 310.939C348.884 306.178 344.043 299.775 338.032 291.731ZM282.189 263.904L346.797 198.892C352.974 192.818 355.228 187.565 353.558 183.132C352.056 178.699 347.131 176.483 338.784 176.483C338.283 176.483 338.032 175.991 338.032 175.006C338.032 174.021 338.283 173.528 338.784 173.528C343.291 173.528 347.882 173.692 352.557 174.021C357.231 174.185 363.408 174.267 371.088 174.267C379.101 174.267 385.445 174.185 390.119 174.021C394.794 173.692 399.301 173.528 403.642 173.528C404.143 173.528 404.393 174.021 404.393 175.006C404.393 175.991 404.143 176.483 403.642 176.483C395.963 176.483 387.532 178.699 378.35 183.132C369.168 187.401 360.821 193.146 353.308 200.37L288.95 264.643L282.189 263.904Z" fill="url(#paint1_linear_35_670)"/>
<defs>
<linearGradient id="paint0_linear_35_670" x1="254.303" y1="250.61" x2="421.694" y2="250.61" gradientUnits="userSpaceOnUse">
<stop stop-color="#A9831C"/>
<stop offset="0.33" stop-color="#C9A84C"/>
<stop offset="0.66" stop-color="#937115"/>
<stop offset="1" stop-color="#A9831C"/>
</linearGradient>
<linearGradient id="paint1_linear_35_670" x1="252.918" y1="250.64" x2="417.304" y2="250.64" gradientUnits="userSpaceOnUse">
<stop stop-color="#A9831C"/>
<stop offset="0.33" stop-color="#C9A84C"/>
<stop offset="0.66" stop-color="#937115"/>
<stop offset="1" stop-color="#A9831C"/>
</linearGradient>
</defs>
</svg>
