<svg width="700" height="185" viewBox="0 0 700 185" fill="none" xmlns="http://www.w3.org/2000/svg">
<path d="M324.38 120.057H222.247C221.785 120.057 221.554 119.686 221.554 118.942C221.554 118.199 221.785 117.827 222.247 117.827C227.022 117.827 230.565 117.517 232.876 116.898C235.187 116.278 236.727 115.039 237.498 113.181C238.268 111.322 238.653 108.597 238.653 105.004V18.9573C238.653 15.3643 238.268 12.7005 237.498 10.9659C236.727 9.10747 235.187 7.8685 232.876 7.24902C230.565 6.50564 227.022 6.13395 222.247 6.13395C221.785 6.13395 221.554 5.76226 221.554 5.01888C221.554 4.2755 221.785 3.90381 222.247 3.90381H320.221C321.762 3.90381 322.532 4.46134 322.532 5.57641L322.994 30.2939C322.994 30.5416 322.609 30.7275 321.839 30.8514C321.068 30.9753 320.529 30.8514 320.221 30.4797C317.756 23.1698 313.597 17.8422 307.743 14.497C301.889 11.0279 294.187 9.29332 284.636 9.29332H277.704C274.623 9.29332 272.081 9.66501 270.079 10.4084C268.076 11.0279 266.613 12.081 265.688 13.5678C264.764 15.0545 264.302 16.913 264.302 19.1431V104.26C264.302 106.614 264.687 108.597 265.457 110.207C266.227 111.818 267.383 112.995 268.923 113.738C270.464 114.482 272.466 114.854 274.931 114.854H282.556C294.572 114.854 304.2 112.871 311.44 108.906C318.681 104.942 323.995 98.8089 327.384 90.5078C327.538 90.1361 328 90.0741 328.771 90.3219C329.695 90.4458 330.157 90.6317 330.157 90.8795C329.541 94.4725 329.002 98.7469 328.54 103.703C328.077 108.535 327.846 113.057 327.846 117.27C327.846 119.128 326.691 120.057 324.38 120.057ZM311.44 78.6137C311.44 73.5339 309.053 69.5692 304.277 66.7196C299.502 63.746 292.493 62.2593 283.25 62.2593H252.055V57.0556H283.481C292.57 57.0556 299.425 55.8166 304.046 53.3387C308.822 50.7369 311.209 47.2677 311.209 42.9313C311.209 42.5597 311.594 42.3738 312.365 42.3738C313.289 42.3738 313.751 42.5597 313.751 42.9313C313.751 47.0199 313.674 50.2413 313.52 52.5953C313.52 54.8254 313.52 57.1795 313.52 59.6574C313.52 62.7549 313.597 65.7903 313.751 68.7639C314.059 71.7374 314.213 75.0207 314.213 78.6137C314.213 78.8615 313.751 78.9854 312.827 78.9854C311.903 78.9854 311.44 78.8615 311.44 78.6137Z" fill="#252422"/>
<path d="M213.919 120.057H111.786C111.324 120.057 111.093 119.686 111.093 118.942C111.093 118.199 111.324 117.827 111.786 117.827C116.561 117.827 120.105 117.517 122.415 116.898C124.726 116.278 126.266 115.039 127.037 113.181C127.807 111.322 128.192 108.597 128.192 105.004V18.9573C128.192 15.3643 127.807 12.7005 127.037 10.9659C126.266 9.10747 124.726 7.8685 122.415 7.24902C120.105 6.50564 116.561 6.13395 111.786 6.13395C111.324 6.13395 111.093 5.76226 111.093 5.01888C111.093 4.2755 111.324 3.90381 111.786 3.90381H209.76C211.301 3.90381 212.071 4.46134 212.071 5.57641L212.533 30.2939C212.533 30.5416 212.148 30.7275 211.378 30.8514C210.607 30.9753 210.068 30.8514 209.76 30.4797C207.295 23.1698 203.136 17.8422 197.282 14.497C191.429 11.0279 183.726 9.29332 174.175 9.29332H167.243C164.162 9.29332 161.62 9.66501 159.618 10.4084C157.615 11.0279 156.152 12.081 155.227 13.5678C154.303 15.0545 153.841 16.913 153.841 19.1431V104.26C153.841 106.614 154.226 108.597 154.996 110.207C155.767 111.818 156.922 112.995 158.462 113.738C160.003 114.482 162.005 114.854 164.47 114.854H172.096C184.111 114.854 193.739 112.871 200.979 108.906C208.22 104.942 213.534 98.8089 216.923 90.5078C217.077 90.1361 217.54 90.0741 218.31 90.3219C219.234 90.4458 219.696 90.6317 219.696 90.8795C219.08 94.4725 218.541 98.7469 218.079 103.703C217.617 108.535 217.385 113.057 217.385 117.27C217.385 119.128 216.23 120.057 213.919 120.057ZM200.979 78.6137C200.979 73.5339 198.592 69.5692 193.816 66.7196C189.041 63.746 182.032 62.2593 172.789 62.2593H141.594V57.0556H173.02C182.109 57.0556 188.964 55.8166 193.585 53.3387C198.361 50.7369 200.748 47.2677 200.748 42.9313C200.748 42.5597 201.133 42.3738 201.904 42.3738C202.828 42.3738 203.29 42.5597 203.29 42.9313C203.29 47.0199 203.213 50.2413 203.059 52.5953C203.059 54.8254 203.059 57.1795 203.059 59.6574C203.059 62.7549 203.136 65.7903 203.29 68.7639C203.598 71.7374 203.752 75.0207 203.752 78.6137C203.752 78.8615 203.29 78.9854 202.366 78.9854C201.442 78.9854 200.979 78.8615 200.979 78.6137Z" fill="#252422"/>
<path d="M40.2691 19.1431V104.26C40.2691 107.234 40.5594 109.526 41.1398 111.137C41.7203 112.623 42.8812 113.615 44.6226 114.11C46.509 114.606 49.1936 114.854 52.6764 114.854H60.0772C71.3961 114.854 81.1913 112.252 89.4628 107.048C97.7343 101.844 103.249 94.9061 106.006 86.2333C106.151 85.8616 106.586 85.7377 107.312 85.8616C108.037 85.9855 108.4 86.2333 108.4 86.605C107.965 90.6936 107.529 95.6495 107.094 101.473C106.659 107.172 106.441 112.438 106.441 117.27C106.441 119.128 105.353 120.057 103.176 120.057H0.435342C0.145114 120.057 0 119.686 0 118.942C0 118.199 0.145114 117.827 0.435342 117.827C4.93388 117.827 8.2715 117.517 10.4482 116.898C12.6249 116.278 14.0761 115.039 14.8016 113.181C15.6723 111.322 16.1077 108.597 16.1077 105.004V18.9573C16.1077 15.3643 15.6723 12.7005 14.8016 10.9659C14.0761 9.10747 12.6249 7.8685 10.4482 7.24902C8.2715 6.50564 4.93388 6.13395 0.435342 6.13395C0.145114 6.13395 0 5.76226 0 5.01888C0 4.2755 0.145114 3.90381 0.435342 3.90381C3.91808 3.90381 8.05383 4.0277 12.8426 4.27549C17.7765 4.39939 22.8555 4.46134 28.0796 4.46134C33.5939 4.46134 38.6729 4.39939 43.3165 4.27549C47.9602 4.0277 52.0959 3.90381 55.7238 3.90381C56.1591 3.90381 56.3768 4.2755 56.3768 5.01888C56.3768 5.76226 56.1591 6.13395 55.7238 6.13395C51.3704 6.13395 48.0327 6.50564 45.7109 7.24902C43.5342 7.8685 42.0831 9.10747 41.3575 10.9659C40.6319 12.8244 40.2691 15.5501 40.2691 19.1431Z" fill="#252422"/>
<path d="M427.219 61.7724C427.219 61.312 427.067 61.0812 426.761 61.0812L402.834 61.1964L402.725 61.2071C402.491 61.2577 402.373 61.485 402.373 61.8877C402.45 62.3486 402.605 62.5789 402.834 62.5789C406.343 62.5791 408.557 63.3474 409.473 64.8831C410.466 66.4195 410.961 68.4183 410.961 70.8766L410.932 72.2537C410.799 75.4549 410.198 78.5689 409.13 81.5936C408.557 83.2849 407.846 84.8873 407.005 86.4055C403.494 83.7211 400.111 80.8556 396.86 77.8051L395.39 76.4065C391.574 72.6425 388.176 68.7624 385.199 64.7679C384.213 63.444 383.301 62.1134 382.457 60.7811C383.06 60.3757 383.668 59.9751 384.284 59.5835C386.459 58.1431 388.549 56.6812 390.553 55.1976L392.528 53.7079C395.2 51.6338 397.336 49.4046 398.939 47.0231C400.408 44.8725 401.236 42.399 401.42 39.6016L401.457 38.3825C401.457 35.3866 400.771 33.0806 399.397 31.4674C398.195 29.9887 396.73 28.9209 395.002 28.2657L394.246 28.0111C392.442 27.4063 390.639 27.066 388.836 26.9903L388.061 26.9743C384.245 26.9745 380.926 27.8192 378.102 29.5088C375.278 31.1219 373.063 33.3105 371.46 36.0757C369.857 38.8411 369.056 41.9151 369.056 45.295C369.056 47.2155 369.361 49.2144 369.972 51.2885C370.582 53.3622 371.384 55.5129 372.376 57.7402C373.339 59.679 374.464 61.6481 375.743 63.6506C373.335 65.3294 371.028 67.0828 368.827 68.918C366.232 71.1454 364.095 73.6032 362.416 76.2913L362.11 76.8004C360.634 79.3706 359.898 82.3128 359.898 85.6259L359.93 86.6868C360.088 89.1572 360.804 91.5681 362.073 93.9208C363.6 96.5326 365.926 98.6852 369.056 100.375C372.262 101.988 376.308 102.795 381.193 102.795C385.849 102.795 389.933 102.065 393.444 100.606C397.032 99.146 400.124 97.2265 402.719 94.8452C403.293 94.3019 403.84 93.7418 404.372 93.176C406.475 94.8356 408.324 96.2033 409.931 97.2645C412.449 98.8005 414.51 99.8758 416.113 100.49C417.516 101.028 418.686 101.332 419.621 101.399L420.008 101.412H432.373L432.53 101.377C432.626 101.329 432.702 101.232 432.759 101.088L432.831 100.836C432.898 100.432 432.788 100.176 432.504 100.067L432.373 100.03C429.769 99.4918 426.638 98.3353 422.981 96.5626L421.381 95.7668C417.346 93.6295 413.117 90.9253 408.688 87.6648C408.876 87.3707 409.065 87.0768 409.244 86.7779C411.076 83.782 412.564 80.785 413.709 77.789C414.625 75.4847 415.391 73.3102 416.006 71.265L416.571 69.2636C416.914 68.1114 417.281 67.11 417.667 66.2602L418.061 65.4618C418.596 64.4631 419.511 63.7311 420.809 63.2701C422.106 62.7327 424.091 62.4637 426.761 62.4637C427.067 62.4637 427.219 62.2334 427.219 61.7724ZM367.224 81.5936C367.224 78.1368 368.025 75.1397 369.628 72.6047C371.308 69.9928 373.446 67.6511 376.041 65.577C376.249 65.4046 376.462 65.2383 376.672 65.0679C377.575 66.4132 378.546 67.7749 379.59 69.1484C382.643 72.9892 386.003 76.7159 389.667 80.3263C393.33 83.9361 397.069 87.2771 400.885 90.3494C401.583 90.9324 402.264 91.4853 402.919 92.0159C401.024 94.0257 398.824 95.7036 396.306 97.0341C393.253 98.5704 389.931 99.3383 386.344 99.3383V96.5947C389.519 96.5947 392.41 95.9198 395.057 94.5933C396.396 93.8844 397.631 93.07 398.766 92.1525C395.02 89.1135 391.35 85.8246 387.758 82.2848C384.019 78.6007 380.586 74.792 377.46 70.8605L377.442 70.839L377.423 70.8149C376.985 70.238 376.561 69.6605 376.145 69.0868C374.484 70.6208 373.083 72.2862 371.928 74.0783L371.476 74.8606C370.482 76.7353 369.95 78.9551 369.95 81.5936L369.982 82.6117C370.129 84.9511 370.79 87.1229 371.966 89.1625C373.383 91.4157 375.311 93.2346 377.809 94.6255C380.264 95.9171 383.088 96.5946 386.344 96.5947V99.3383L384.989 99.3008C382.313 99.1567 379.851 98.581 377.604 97.5727L376.499 97.0341C373.599 95.4209 371.308 93.2685 369.628 90.5798C368.226 88.16 367.437 85.5638 367.262 82.7912L367.224 81.5936ZM391.977 40.2259C391.977 37.6222 391.381 35.8735 390.447 34.6878L390.029 34.2136L390.007 34.1949L389.989 34.1734C388.738 32.8622 387.078 32.1372 384.742 32.1372C382.438 32.1373 380.991 32.8114 380.016 33.876C379.136 34.9188 378.424 36.9182 378.424 40.4563L378.459 41.812C378.624 44.9826 379.372 48.2473 380.735 51.6181C381.235 52.8317 381.804 54.0427 382.431 55.2565C382.922 54.8514 383.412 54.4502 383.89 54.0401L383.903 54.0267L383.919 54.0133C386.415 51.9314 388.404 49.7434 389.917 47.4599C391.272 45.414 391.977 43.0344 391.977 40.2259ZM394.663 41.4449C394.48 44.2512 393.654 46.7635 392.185 48.9817L391.53 49.9248C389.952 52.1094 387.995 54.1779 385.657 56.1273C384.359 57.2417 383.012 58.3361 381.619 59.412C380.287 57.1757 379.149 54.931 378.216 52.671C376.747 49.0411 375.919 45.469 375.735 41.9567L375.698 40.4563C375.698 36.6153 376.461 33.8103 377.988 32.0434C379.59 30.2771 381.842 29.3938 384.742 29.3936C387.718 29.3936 390.124 30.3534 391.956 32.2738C393.788 34.1175 394.703 36.769 394.703 40.2259L394.663 41.4449ZM404.173 39.0899C404.059 42.5994 403.085 45.7859 401.194 48.561L401.196 48.5637C399.405 51.2253 397.053 53.6574 394.192 55.8781L394.184 55.8861C391.677 57.8159 389.031 59.7046 386.254 61.5581C386.618 62.079 386.992 62.6018 387.38 63.1228C390.268 66.998 393.574 70.7738 397.299 74.448C400.102 77.1577 403.006 79.7216 406.01 82.1455C406.199 81.6735 406.385 81.1954 406.55 80.7067L406.955 79.4823C407.809 76.6954 408.235 73.8297 408.235 70.8766C408.235 69.0355 407.908 67.7115 407.41 66.7639L407.186 66.3808L407.16 66.3379L407.136 66.295C407.099 66.2333 406.928 65.9887 406.236 65.7485C405.699 65.5623 404.946 65.4162 403.933 65.3546L402.834 65.3225C401.615 65.3225 400.743 64.6307 400.278 63.9292C399.986 63.4889 399.835 63.031 399.751 62.6673L399.684 62.3404L399.647 62.1154V61.8877C399.647 61.4391 399.707 60.6235 400.219 59.8487C400.86 58.8811 401.877 58.4564 402.82 58.4528L426.748 58.3376H426.761C427.708 58.3376 428.729 58.7617 429.373 59.7335C429.886 60.5085 429.945 61.3237 429.945 61.7724C429.945 62.2211 429.887 63.0386 429.373 63.814C428.729 64.7854 427.708 65.2073 426.761 65.2073C424.184 65.2073 422.638 65.48 421.847 65.8074L421.781 65.8342L421.717 65.8583C420.91 66.1448 420.606 66.4894 420.46 66.7612C420.041 67.5451 419.607 68.626 419.182 70.0513C418.463 72.767 417.481 75.689 416.241 78.8098C415.199 81.5293 413.892 84.2311 412.332 86.9199C415.93 89.4606 419.369 91.5982 422.651 93.3368C426.884 95.5018 430.288 96.7989 432.919 97.3422C433.661 97.4938 434.575 97.9349 435.139 98.9284C435.651 99.8292 435.611 100.736 435.52 101.286L435.512 101.332L435.504 101.375C435.426 101.768 435.251 102.399 434.788 102.982C434.235 103.678 433.377 104.155 432.373 104.156H420.008C418.897 104.156 417.684 103.907 416.422 103.505L415.144 103.054C413.316 102.354 411.093 101.18 408.518 99.6089L408.478 99.5848L408.435 99.558C407.269 98.7877 405.993 97.8731 404.604 96.8225L404.569 96.8573L404.554 96.8707C401.696 99.4923 398.323 101.579 394.466 103.148L394.464 103.146C390.562 104.764 386.12 105.538 381.193 105.538C376.353 105.538 372.098 104.793 368.539 103.167L367.837 102.829L367.767 102.792C364.495 101.025 361.888 98.7384 360.074 95.8901L359.722 95.314L359.698 95.2712L359.677 95.231C358.027 92.1721 357.172 88.9599 357.172 85.6259C357.172 81.6357 358.126 78.0054 360.108 74.8311C361.946 71.8891 364.271 69.2243 367.059 66.8309L367.073 66.8175L367.089 66.8041C368.699 65.4611 370.367 64.1655 372.083 62.9058C371.592 62.0734 371.124 61.2472 370.685 60.4221L369.937 58.9673L369.913 58.9164L369.889 58.8628C368.853 56.5376 368.007 54.2704 367.357 52.0655C366.682 49.7703 366.33 47.5099 366.33 45.295C366.33 41.4575 367.247 37.9019 369.106 34.6932C370.957 31.501 373.522 28.9684 376.755 27.1216C380.053 25.1605 383.855 24.2309 388.061 24.2307C390.431 24.2307 392.784 24.6274 395.108 25.4069C397.641 26.1798 399.774 27.6211 401.465 29.683C401.473 29.6917 401.482 29.7011 401.489 29.7098C401.495 29.7169 401.502 29.7241 401.508 29.7312C403.421 32.0065 404.183 35.0208 404.183 38.3825L404.173 39.0899Z" fill="#8A8A88"/>
<path d="M455.902 115.889C455.902 115.456 455.929 114.83 456.133 114.222C456.313 113.686 457.071 112.074 459.033 112.074L460.326 112.058C463.208 111.995 465.157 111.718 466.327 111.331L466.351 111.323L466.375 111.317C467.479 110.975 468.012 110.412 468.302 109.546L468.327 109.47L468.357 109.395C468.87 108.119 469.224 105.949 469.224 102.655V20.953C469.224 18.0347 468.995 16.0331 468.652 14.7844L468.498 14.2943L468.489 14.2674L468.479 14.2378C468.224 13.4804 467.786 12.9574 466.942 12.6088L466.554 12.4688L466.451 12.4365L466.351 12.3961C465.074 11.8887 462.837 11.5345 459.388 11.5345C458.814 11.5344 458.187 11.3853 457.615 11.0067C457.061 10.6396 456.716 10.1619 456.507 9.74662C456.128 8.99402 456.081 8.21287 456.081 7.71913C456.081 7.22537 456.128 6.44396 456.507 5.69165C456.716 5.27677 457.062 4.80101 457.615 4.43424C458.187 4.05569 458.814 3.90388 459.388 3.90381C462.531 3.90381 466.02 4.02184 469.847 4.25922C473.584 4.37442 477.559 4.43424 481.77 4.43424V7.1914L478.616 7.18063C475.507 7.15856 472.532 7.10191 469.69 7.01369C465.901 6.77844 462.467 6.66097 459.388 6.66097C459.033 6.66124 458.857 7.01396 458.857 7.71913L458.889 8.18225C458.956 8.57946 459.122 8.7771 459.388 8.7773C462.94 8.7773 465.605 9.13241 467.381 9.83816C469.275 10.4263 470.521 11.6011 471.113 13.3654C471.705 15.0121 471.999 17.542 471.999 20.953V102.655L471.983 103.894C471.906 106.699 471.556 108.874 470.934 110.418C470.342 112.182 469.099 113.36 467.205 113.948C465.428 114.536 462.704 114.831 459.033 114.831L458.949 114.847C458.768 114.925 458.678 115.273 458.678 115.889L458.699 116.352C458.744 116.749 458.855 116.947 459.033 116.947C460.573 116.947 462.216 116.934 463.963 116.904L469.514 116.77C473.422 116.652 477.508 116.595 481.77 116.595L485.066 116.605C488.286 116.627 491.273 116.681 494.027 116.77C496.868 116.858 499.51 116.914 501.952 116.937L504.329 116.947C504.743 116.947 504.977 116.677 505.028 116.137L505.039 115.889C505.039 115.271 504.857 114.924 504.494 114.847L504.329 114.831C501.117 114.831 498.629 114.606 496.867 114.155L496.157 113.948C494.381 113.36 493.196 112.182 492.604 110.418C492.086 108.874 491.796 106.699 491.731 103.894L491.718 102.655V64.2409L495.688 60.2344L518.895 91.3601C523.158 97.1244 526.592 101.713 529.197 105.124C531.802 108.536 533.875 111.125 535.415 112.89C537.072 114.653 538.492 115.829 539.676 116.417C540.712 116.932 541.885 117.222 543.194 117.287L543.763 117.3C544.236 117.3 544.754 117.286 545.316 117.257L547.137 117.125C548.114 117.037 549.225 116.98 550.468 116.958L551.756 116.947H571.65L571.775 116.931C571.969 116.876 572.093 116.683 572.149 116.352L572.184 115.889C572.184 115.272 572.047 114.924 571.775 114.847L571.65 114.831C569.756 114.831 567.979 114.711 566.322 114.476C564.975 114.27 563.582 113.75 562.145 112.914L561.524 112.537C559.866 111.478 557.914 109.771 555.664 107.418C553.533 104.948 550.868 101.654 547.671 97.5368C544.474 93.3018 540.564 87.9486 535.946 81.4785L509.582 46.217L529.728 25.8938C534.724 21.0413 540.242 17.1216 546.278 14.1301L547.492 13.5431C554.005 10.3669 559.985 8.77738 565.433 8.7773C565.699 8.7773 565.865 8.57958 565.931 8.18225L565.966 7.71913C565.966 7.01369 565.788 6.66097 565.433 6.66097C562.354 6.66098 559.156 6.77843 555.84 7.01369C552.525 7.13131 548.024 7.1914 542.34 7.1914V4.43424C547.994 4.43424 552.448 4.37448 555.713 4.25922C559.064 4.02294 562.304 3.90382 565.433 3.90381C566.007 3.90381 566.633 4.0556 567.205 4.43424C567.759 4.80097 568.105 5.2767 568.314 5.69165C568.692 6.44396 568.742 7.22537 568.742 7.71913L568.728 8.13917C568.697 8.6023 568.598 9.18226 568.314 9.74662C568.105 10.1618 567.759 10.6397 567.205 11.0067C566.634 11.3851 566.007 11.5345 565.433 11.5345C560.526 11.5345 554.968 12.9681 548.715 16.0175L548.696 16.0256L548.679 16.0364C542.455 18.9596 536.785 22.898 531.669 27.8674L513.227 46.4701L538.174 79.8361L538.193 79.8603L538.209 79.8845C542.82 86.3434 546.714 91.6753 549.891 95.8836C553.038 99.9358 555.647 103.158 557.721 105.566C559.884 107.822 561.646 109.335 563.026 110.216C564.44 111.119 565.677 111.588 566.744 111.751H566.742C567.868 111.909 569.067 112.011 570.341 112.052L571.65 112.074C572.225 112.074 572.851 112.223 573.423 112.602C573.977 112.969 574.322 113.446 574.531 113.862C574.91 114.614 574.96 115.395 574.96 115.889L574.946 116.306C574.915 116.77 574.816 117.352 574.531 117.917C574.322 118.332 573.976 118.807 573.423 119.174C572.851 119.553 572.225 119.704 571.65 119.704H551.756C550.036 119.704 548.585 119.761 547.389 119.869C546.032 119.991 544.819 120.057 543.763 120.057C541.863 120.057 540.062 119.692 538.434 118.883C537.007 118.174 535.533 116.965 534.03 115.442L533.385 114.769L533.349 114.734L533.317 114.694C532.118 113.319 530.627 111.49 528.853 109.214L526.985 106.791C524.368 103.363 520.923 98.7637 516.656 92.9945V92.9918L495.39 64.4671L494.493 65.3718V102.655L494.507 103.848C494.56 106.136 494.769 107.827 495.076 109.002L495.238 109.546C495.515 110.369 495.958 110.88 496.699 111.204L497.035 111.331C498.205 111.718 500.154 111.995 503.036 112.058L504.329 112.074C505.374 112.074 506.474 112.529 507.17 113.565C507.592 114.195 507.744 114.865 507.793 115.402L507.815 115.889L507.793 116.374C507.744 116.911 507.593 117.582 507.17 118.213C506.474 119.249 505.374 119.704 504.329 119.704C502.772 119.704 501.128 119.688 499.396 119.659L493.94 119.527H493.937C490.302 119.41 486.247 119.352 481.77 119.352C477.533 119.352 473.475 119.41 469.598 119.527C465.669 119.645 462.146 119.704 459.033 119.704C457.072 119.704 456.313 118.093 456.133 117.556C455.929 116.949 455.902 116.323 455.902 115.889ZM516.119 7.71913C516.119 7.22537 516.166 6.44396 516.545 5.69165C516.754 5.27681 517.1 4.80104 517.653 4.43424C518.225 4.05579 518.852 3.90396 519.426 3.90381C522.668 3.90381 525.966 4.023 529.319 4.25922C532.585 4.37463 536.921 4.43423 542.34 4.43424V7.1914L538.456 7.18063C535.998 7.16592 533.808 7.13589 531.883 7.09177L529.197 7.01369C525.881 6.77842 522.623 6.66097 519.426 6.66097C519.072 6.66154 518.895 7.01426 518.895 7.71913L518.927 8.18225C518.994 8.57928 519.16 8.77687 519.426 8.7773C525.347 8.7773 528.841 10.3668 529.907 13.5431C531.091 16.7193 529.491 20.4831 525.11 24.8356L491.718 58.7804V21.3057C491.718 18.3211 491.945 15.9671 492.398 14.2432L492.604 13.5431C493.226 11.9991 494.256 10.8597 495.694 10.1263L496.336 9.83816C497.891 9.22061 500.125 8.87329 503.039 8.79615L504.329 8.7773C504.684 8.77687 504.86 8.42454 504.86 7.71913C504.86 7.10212 504.726 6.75447 504.454 6.67712L504.329 6.66097C501.369 6.66097 497.992 6.77842 494.203 7.01369C490.414 7.13131 486.27 7.19139 481.77 7.1914V4.43424C486.217 4.43423 490.307 4.37429 494.043 4.25922C497.87 4.02184 501.301 3.90381 504.329 3.90381L504.768 3.93343C505.213 3.99361 505.673 4.15043 506.102 4.43424C506.655 4.80103 507.001 5.27679 507.21 5.69165C507.589 6.44396 507.636 7.22537 507.636 7.71913C507.636 8.21286 507.589 8.99403 507.21 9.74662C507.001 10.1619 506.656 10.6396 506.102 11.0067C505.53 11.3852 504.903 11.5343 504.329 11.5345C500.88 11.5345 498.643 11.8888 497.366 12.3961C496.321 12.8114 495.644 13.4705 495.214 14.4909C494.779 15.8382 494.493 18.0493 494.493 21.3057V52.0141L523.126 22.9077L523.147 22.8862C527.145 18.915 527.799 16.3611 527.397 14.8005L527.305 14.5016L527.273 14.4155C526.827 13.0861 525.158 11.5345 519.426 11.5345C518.852 11.5343 518.225 11.3852 517.653 11.0067C517.099 10.6396 516.754 10.1618 516.545 9.74662C516.166 8.99406 516.119 8.21284 516.119 7.71913Z" fill="url(#paint0_linear_43_2)"/>
<path d="M473.38 102.939V21.7105C473.38 18.3187 473.083 15.8041 472.488 14.1667C471.894 12.4123 470.645 11.2427 468.742 10.6579C466.958 9.95613 464.282 9.60526 460.714 9.60526C460.357 9.60526 460.178 9.25438 460.178 8.55263C460.178 7.85088 460.357 7.5 460.714 7.5C463.806 7.5 467.255 7.61696 471.061 7.85087C474.867 7.96783 478.911 8.02631 483.192 8.02631C487.712 8.02631 491.875 7.96783 495.681 7.85087C499.487 7.61696 502.876 7.5 505.85 7.5C506.207 7.5 506.385 7.85088 506.385 8.55263C506.385 9.25438 506.207 9.60526 505.85 9.60526C502.282 9.60526 499.606 9.95613 497.822 10.6579C496.038 11.3596 494.789 12.5877 494.075 14.3421C493.48 16.0965 493.183 18.6696 493.183 22.0614V102.939C493.183 106.33 493.48 108.904 494.075 110.658C494.67 112.412 495.859 113.582 497.643 114.167C499.427 114.751 502.163 114.044 505.85 114.044C506.326 114.044 506.563 115.395 506.563 116.096C506.563 116.798 506.326 117.149 505.85 117.149C502.757 117.149 499.308 117.091 495.502 116.974C491.815 116.857 487.712 116.798 483.192 116.798C478.911 116.798 474.808 116.857 470.883 116.974C466.958 117.091 463.449 117.149 460.357 117.149C460.119 117.149 460 116.798 460 116.096C460 115.395 460.119 115.044 460.357 115.044C464.044 115.044 466.779 114.751 468.563 114.167C470.466 113.582 471.715 112.412 472.31 110.658C473.023 108.904 473.38 106.33 473.38 102.939ZM520.479 91.7105L496.038 59.2544L510.31 45.7456L537.606 81.886C542.244 88.3187 546.169 93.6403 549.38 97.8509C552.592 101.944 555.268 105.219 557.408 107.675C559.668 110.015 561.631 111.711 563.296 112.763C564.961 113.816 566.567 113.459 568.113 113.693C569.778 113.927 571.562 115.044 573.465 115.044C573.822 115.044 574 115.395 574 116.096C574 116.798 573.822 117.149 573.465 117.149C568.232 117.149 564.009 117.149 560.798 117.149C557.587 117.149 555.149 117.149 553.484 117.149C551.7 117.149 550.153 117.208 548.845 117.325C547.537 117.442 546.407 117.5 545.455 117.5C543.909 117.5 542.541 117.208 541.352 116.623C540.163 116.038 538.736 114.868 537.07 113.114C535.524 111.36 533.443 108.787 530.826 105.395C528.21 102.003 524.761 97.4415 520.479 91.7105ZM480.695 71.886L526.723 25.5702C531.124 21.2427 532.729 17.5 531.54 14.3421C530.469 11.1842 526.961 9.60526 521.014 9.60526C520.657 9.60526 520.479 9.25438 520.479 8.55263C520.479 7.85088 520.657 7.5 521.014 7.5C524.225 7.5 527.496 7.61696 530.826 7.85087C534.156 7.96783 538.557 8.02631 544.028 8.02631C549.737 8.02631 554.257 7.96783 557.587 7.85087C560.917 7.61696 564.128 7.5 567.221 7.5C567.577 7.5 567.756 7.85088 567.756 8.55263C567.756 9.25438 567.577 9.60526 567.221 9.60526C561.75 9.60526 555.743 11.1842 549.202 14.3421C542.66 17.383 536.714 21.4766 531.361 26.6228L485.512 72.4123L480.695 71.886Z" fill="url(#paint1_linear_43_2)"/>
<path d="M699.983 62.125C699.994 62.5821 700 63.0404 700 63.5C700 96.9132 672.913 124 639.5 124C634.911 124 630.441 123.488 626.145 122.52C628.751 122.813 631.426 122.961 634.171 122.961C637.304 122.961 640.378 122.764 643.394 122.372C664.679 120.985 682.885 108.312 692.087 90.2764C693.03 88.6511 693.906 86.9775 694.71 85.2539C698.056 78.084 699.806 70.3632 699.983 62.125ZM575.356 73.2979C579.14 90.866 590.552 105.598 605.955 113.855C612.005 117.894 618.823 120.87 626.145 122.52C620.785 121.915 615.721 120.689 610.962 118.824L609.554 118.251L609.529 118.24L609.502 118.227C602.684 115.17 596.724 111.055 591.646 105.881L590.644 104.835L590.619 104.81C585.478 99.1663 581.47 92.7086 578.595 85.459L578.583 85.4316L578.575 85.4072C577.114 81.4892 576.042 77.4515 575.356 73.2979ZM637.386 1.06934C644.887 1.42756 652.024 3.17475 658.546 6.05957C652.557 4.07496 646.154 3 639.5 3C628.313 3 617.836 6.036 608.847 11.3291C605.014 13.2817 601.364 15.6204 597.901 18.3506C591.677 23.1386 586.65 29.1838 582.819 36.4854C579.157 43.6919 577.302 52.065 577.254 61.6035C577.348 61.6681 577.408 61.7772 577.405 61.8994V61.916C577.405 61.9274 577.405 61.9452 577.404 61.9678C577.404 62.0128 577.402 62.0792 577.401 62.1641C577.4 62.3344 577.4 62.5795 577.404 62.875C577.412 63.4666 577.436 64.2597 577.504 65.0703C577.535 65.4486 577.551 65.807 577.567 66.1592C577.991 68.8508 578.768 71.4597 579.894 73.9141C582.109 86.6813 588.326 98.0748 597.206 106.758C597.647 107.112 598.086 107.458 598.497 107.772C599.072 108.213 599.586 108.596 599.956 108.868C600.141 109.004 600.29 109.112 600.393 109.187C600.444 109.224 600.484 109.252 600.511 109.271L600.541 109.294L603.95 111.566C606.224 112.929 608.595 114.145 611.053 115.2C597.001 107.452 586.445 94.1422 582.355 78.2373C583.344 79.665 584.472 81.0126 585.739 82.2598C591.266 87.6983 598.716 90.8055 606.516 90.9453C607.801 93.7366 609.238 96.3523 610.828 98.791C614.539 104.177 618.849 108.366 623.757 111.358C628.47 114.052 633.552 115.483 639.001 115.651L640.098 115.668C646.382 115.668 652.035 113.985 657.057 110.618L658.051 109.923C663.318 106.092 667.448 100.464 670.44 93.043C673.358 86.0857 674.91 77.7086 675.093 67.9111L675.109 65.9326C675.109 54.9202 673.433 45.1038 670.081 36.4854C669.419 34.7837 668.701 33.1548 667.927 31.5977C675.729 31.7355 683.183 34.8448 688.711 40.2852C689.751 41.3087 690.697 42.3996 691.55 43.5469C693.144 48.9196 694 54.6098 694 60.5C694 89.1272 673.783 113.03 646.848 118.715C648.506 118.398 650.099 117.983 652.152 117.386C656.141 116.225 658.175 115.451 661.925 113.756C665.25 112.253 667.196 111.065 670.293 109.013C671.485 108.223 672.874 107.185 674.102 106.236C686.902 95.1434 695 78.768 695 60.5C695 55.5764 694.411 50.7905 693.301 46.208C695.51 50.0152 696.804 54.2941 697.16 58.7373C697.164 58.8531 697.166 58.969 697.169 59.085L697.185 59.084C697.177 58.9684 697.169 58.8527 697.16 58.7373C696.94 52.249 695.636 45.9082 693.246 39.7158C692.806 38.521 692.329 37.3481 691.815 36.1973C696.085 44.3614 698.5 53.6486 698.5 63.5C698.5 73.1404 696.187 82.2403 692.087 90.2764C688.918 95.738 684.967 100.644 680.24 104.985L680.238 104.982C674.233 110.607 667.242 115.036 659.287 118.268L659.268 118.276C654.177 120.296 648.883 121.659 643.394 122.372C642.106 122.456 640.808 122.5 639.5 122.5C632.843 122.5 626.444 121.397 620.475 119.364C624.976 120.433 629.672 121 634.5 121C643.691 121 652.401 118.948 660.202 115.28C657.571 116.413 655.599 117.111 652.348 118.058C648.596 119.149 646.345 119.647 642.465 120.033C638.631 120.415 636.482 120.532 632.592 120.315C629.802 120.16 628.296 120.077 625.556 119.752C623.354 119.491 622.147 119.35 619.918 118.906C619.328 118.789 618.797 118.68 618.295 118.571C619.015 118.849 619.741 119.115 620.475 119.364C615.352 118.148 610.481 116.282 605.955 113.855C605.041 113.245 604.145 112.611 603.267 111.953L600.153 109.877L600.144 109.87C600.143 109.87 600.142 109.869 600.141 109.868C600.139 109.867 600.136 109.865 600.133 109.862C600.126 109.857 600.115 109.85 600.102 109.84C600.074 109.82 600.034 109.791 599.982 109.754C599.879 109.679 599.728 109.569 599.542 109.432C599.169 109.158 598.651 108.773 598.071 108.328C596.915 107.441 595.499 106.309 594.494 105.35C592.913 103.84 592.294 103.207 590.817 101.39C589.781 100.114 589.28 99.3943 588.666 98.4375C580.132 88.139 575 74.9197 575 60.5C575 49.1665 578.169 38.5733 583.669 29.5576C587.131 24.3719 591.296 19.8954 596.165 16.1455L597.387 15.2031C603.538 10.5641 610.25 7.06857 617.511 4.72656C624.159 2.58197 630.787 1.35945 637.386 1.06934ZM611.053 115.2C611.817 115.621 612.592 116.024 613.376 116.412C613.749 116.569 614.124 116.713 614.481 116.827C616.479 117.466 617.794 117.766 619.831 118.174C616.806 117.407 613.873 116.411 611.053 115.2ZM664.829 31.7002C665.79 33.5171 666.67 35.4502 667.468 37.502L668.052 39.0605C670.871 46.9278 672.304 55.8738 672.304 65.9326C672.304 76.3269 670.784 84.9722 667.854 91.958L667.841 91.9961C665 99.0411 661.155 104.197 656.401 107.654C651.629 111.125 646.226 112.862 640.098 112.862C634.723 112.862 629.765 111.555 625.174 108.937C620.672 106.182 616.66 102.301 613.157 97.2236C611.859 95.2298 610.664 93.1047 609.573 90.8477C616.654 90.2665 623.33 87.2412 628.392 82.2598C633.871 76.8676 637.024 69.6143 637.216 62.0098L637.235 60.5352C637.427 52.9307 640.58 45.6773 646.059 40.2852C651.109 35.3149 657.767 32.2911 664.829 31.7002ZM634.897 8.68262C642.942 8.97717 649.881 11.4816 655.717 16.1943C660.712 20.1331 664.782 25.2686 667.927 31.5977C667.746 31.5945 667.566 31.5918 667.385 31.5918C666.528 31.5918 665.676 31.6293 664.829 31.7002C661.936 26.2287 658.311 21.8128 653.979 18.3975L653.955 18.3779C648.277 13.7916 641.432 11.4609 633.272 11.4609C623.209 11.4613 615.717 15.2113 610.423 22.666C605.014 30.2832 602.143 41.0698 602.143 55.3379L602.154 56.9268C602.27 64.8292 603.258 72.1236 605.094 78.8232C606.309 83.1842 607.805 87.1897 609.573 90.8477C608.742 90.9159 607.906 90.9531 607.065 90.9531C606.882 90.9531 606.699 90.9486 606.516 90.9453C604.899 87.4343 603.523 83.6449 602.39 79.5771C600.482 72.6196 599.47 65.0825 599.351 56.9678L599.337 55.3379C599.337 41.1912 602.091 30.0214 607.595 21.8281L608.135 21.0439C614 12.7849 622.38 8.65562 633.272 8.65527L634.897 8.68262ZM642.105 3.8252C649.377 3.99327 655.986 5.28116 661.932 7.6875C660.823 7.1105 659.694 6.56743 658.546 6.05957C661.847 7.1536 665.022 8.52373 668.044 10.1436C669.014 10.791 669.964 11.466 670.894 12.167C675.109 14.7432 678.849 17.8218 682.112 21.4033L683.019 22.4199C686.646 26.595 689.579 31.1873 691.815 36.1973C688.729 30.2955 684.673 24.9811 679.859 20.4648C677.159 17.408 674.155 14.6265 670.894 12.167C668.769 10.8689 666.524 9.69806 664.158 8.65527C663.427 8.31476 662.684 7.99216 661.932 7.6875C665.384 9.4845 668.638 11.6106 671.652 14.0234C662.403 8.00043 651.36 4.5 639.5 4.5C606.915 4.5 580.5 30.9152 580.5 63.5C580.5 68.5886 581.144 73.5267 582.355 78.2373C581.405 76.8652 580.584 75.419 579.894 73.9141C579.307 70.5307 579 67.0512 579 63.5C579 41.2733 590.986 21.846 608.847 11.3291C611.474 9.99095 614.186 8.83292 616.987 7.86035L618.371 7.39746C625.793 5.0035 633.154 3.80567 640.456 3.80566L642.105 3.8252ZM577.956 71.7432C578.079 72.5813 578.217 73.4144 578.373 74.2422C578.372 74.228 578.371 74.2133 578.37 74.1982C578.351 73.9809 578.317 73.6673 578.26 73.2861C578.194 72.8458 578.096 72.3172 577.956 71.7432ZM696.298 71.0107C696.154 71.8138 695.993 72.6107 695.813 73.4014C695.842 73.2807 695.871 73.1592 695.899 73.0361C696.066 72.3001 696.195 71.6363 696.298 71.0107ZM634.5 0C638.8 0 642.994 0.449934 647.04 1.30273C644.899 1.10125 642.704 1.00001 640.456 1C639.433 1 638.41 1.02431 637.386 1.06934C636.43 1.02367 635.467 1 634.5 1C612.973 1 594.116 12.4328 583.669 29.5576C582.474 31.348 581.362 33.2228 580.334 35.1816L580.317 35.2139C576.373 42.9755 574.446 51.925 574.446 61.9814C574.446 65.8431 574.749 69.6163 575.356 73.2979C574.468 69.1725 574 64.8909 574 60.5C574 27.0868 601.087 0 634.5 0ZM647.04 1.30273C653.665 1.92613 659.774 3.51746 665.342 6.10938H665.339C672.254 9.16383 678.217 13.2797 683.199 18.4609L684.186 19.5127C689.327 25.1559 693.224 31.5595 695.863 38.707C698.619 45.846 700 53.191 700 60.7246C700 61.1931 699.993 61.6598 699.983 62.125C699.481 39.6144 686.686 20.1371 668.044 10.1436C661.77 5.9562 654.67 2.91103 647.04 1.30273ZM671.652 14.0234C674.578 15.9285 677.324 18.0859 679.859 20.4648C686.26 27.7109 690.95 36.5024 693.301 46.208C692.77 45.2924 692.186 44.4036 691.55 43.5469C688.054 31.7657 681.008 21.5119 671.652 14.0234Z" fill="url(#paint2_linear_43_2)"/>
<path d="M649.372 183.94C648.867 183.94 648.463 183.808 648.16 183.544C647.857 183.256 647.705 182.872 647.705 182.392C647.705 181.936 647.857 181.576 648.16 181.312C648.463 181.024 648.867 180.88 649.372 180.88C649.902 180.88 650.306 181.024 650.584 181.312C650.861 181.576 651 181.936 651 182.392C651 182.872 650.861 183.256 650.584 183.544C650.306 183.808 649.902 183.94 649.372 183.94Z" fill="#8A8A88"/>
<path d="M632.571 160.648C633.631 160.648 634.565 160.696 635.373 160.792C636.207 160.888 636.977 161.044 637.684 161.26C638.391 161.452 639.111 161.728 639.843 162.088C640.02 162.184 640.121 162.268 640.146 162.34C640.196 162.388 640.234 162.568 640.259 162.88L640.714 167.164C640.714 167.212 640.651 167.26 640.525 167.308C640.398 167.332 640.31 167.296 640.259 167.2C639.679 165.208 638.744 163.708 637.457 162.7C636.194 161.692 634.528 161.188 632.457 161.188C630.311 161.188 628.429 161.632 626.813 162.52C625.223 163.408 623.973 164.668 623.064 166.3C622.18 167.932 621.738 169.852 621.738 172.06C621.738 173.644 622.016 175.132 622.571 176.524C623.152 177.892 623.947 179.104 624.957 180.16C625.968 181.192 627.116 181.996 628.404 182.572C629.717 183.148 631.106 183.436 632.571 183.436C634.666 183.436 636.358 182.956 637.646 181.996C638.934 181.012 639.906 179.548 640.563 177.604C640.588 177.532 640.663 177.508 640.79 177.532C640.941 177.556 641.017 177.592 641.017 177.64L640.638 181.6C640.613 181.888 640.575 182.068 640.525 182.14C640.474 182.212 640.373 182.296 640.222 182.392C638.909 183.016 637.671 183.436 636.51 183.652C635.348 183.892 634.035 184.012 632.571 184.012C629.894 184.012 627.52 183.52 625.45 182.536C623.405 181.528 621.788 180.136 620.602 178.36C619.44 176.56 618.859 174.484 618.859 172.132C618.859 170.404 619.2 168.844 619.882 167.452C620.564 166.036 621.523 164.824 622.761 163.816C623.998 162.808 625.45 162.028 627.116 161.476C628.783 160.924 630.601 160.648 632.571 160.648Z" fill="#8A8A88"/>
<path d="M591.378 179.62V161.872L592.249 161.944V179.62C592.249 180.868 592.477 181.768 592.931 182.32C593.386 182.848 594.143 183.112 595.204 183.112C595.28 183.112 595.317 183.184 595.317 183.328C595.317 183.472 595.28 183.544 595.204 183.544C594.699 183.544 594.181 183.532 593.651 183.508C593.121 183.484 592.527 183.472 591.871 183.472C591.239 183.472 590.633 183.484 590.053 183.508C589.472 183.532 588.916 183.544 588.386 183.544C588.336 183.544 588.31 183.472 588.31 183.328C588.31 183.184 588.336 183.112 588.386 183.112C589.497 183.112 590.267 182.848 590.697 182.32C591.151 181.768 591.378 180.868 591.378 179.62ZM610.468 183.976C610.468 184.024 610.405 184.048 610.279 184.048C610.152 184.072 610.064 184.072 610.013 184.048L592.59 163.996C591.732 163.012 590.962 162.352 590.28 162.016C589.623 161.656 588.992 161.476 588.386 161.476C588.31 161.476 588.272 161.404 588.272 161.26C588.272 161.116 588.31 161.044 588.386 161.044C588.841 161.044 589.295 161.056 589.75 161.08C590.229 161.104 590.659 161.116 591.037 161.116C591.492 161.116 591.921 161.104 592.325 161.08C592.729 161.056 593.032 161.044 593.234 161.044C593.563 161.044 593.79 161.188 593.916 161.476C594.042 161.74 594.408 162.22 595.014 162.916L610.165 180.592L610.468 183.976ZM610.468 165.004V183.976L609.597 182.86V165.004C609.597 163.756 609.37 162.856 608.915 162.304C608.486 161.752 607.754 161.476 606.718 161.476C606.668 161.476 606.642 161.404 606.642 161.26C606.642 161.116 606.668 161.044 606.718 161.044C607.223 161.044 607.741 161.068 608.271 161.116C608.827 161.14 609.42 161.152 610.051 161.152C610.657 161.152 611.251 161.14 611.832 161.116C612.438 161.068 612.993 161.044 613.498 161.044C613.574 161.044 613.612 161.116 613.612 161.26C613.612 161.404 613.574 161.476 613.498 161.476C612.412 161.476 611.63 161.752 611.15 162.304C610.695 162.856 610.468 163.756 610.468 165.004Z" fill="#8A8A88"/>
<path d="M579.143 180.628C579.143 181.324 579.219 181.852 579.371 182.212C579.522 182.572 579.825 182.812 580.28 182.932C580.759 183.052 581.454 183.112 582.363 183.112C582.438 183.112 582.476 183.184 582.476 183.328C582.476 183.472 582.438 183.544 582.363 183.544C581.757 183.544 581.075 183.532 580.317 183.508C579.585 183.484 578.765 183.472 577.855 183.472C577.022 183.472 576.214 183.484 575.431 183.508C574.674 183.532 573.992 183.544 573.386 183.544C573.31 183.544 573.272 183.472 573.272 183.328C573.272 183.184 573.31 183.112 573.386 183.112C574.295 183.112 574.989 183.052 575.469 182.932C575.949 182.812 576.265 182.572 576.416 182.212C576.568 181.852 576.643 181.324 576.643 180.628V163.96C576.643 163.264 576.568 162.748 576.416 162.412C576.265 162.052 575.949 161.812 575.469 161.692C574.989 161.548 574.295 161.476 573.386 161.476C573.31 161.476 573.272 161.404 573.272 161.26C573.272 161.116 573.31 161.044 573.386 161.044C573.992 161.044 574.674 161.068 575.431 161.116C576.214 161.14 577.022 161.152 577.855 161.152C578.765 161.152 579.598 161.14 580.355 161.116C581.113 161.068 581.782 161.044 582.363 161.044C582.438 161.044 582.476 161.116 582.476 161.26C582.476 161.404 582.438 161.476 582.363 161.476C581.454 161.476 580.759 161.548 580.28 161.692C579.825 161.836 579.522 162.088 579.371 162.448C579.219 162.808 579.143 163.336 579.143 164.032V180.628Z" fill="#8A8A88"/>
<path d="M544.313 165.256C544.313 166.24 544.566 167.092 545.071 167.812C545.601 168.508 546.27 169.12 547.078 169.648C547.886 170.176 548.745 170.704 549.654 171.232C550.588 171.736 551.485 172.276 552.343 172.852C553.227 173.428 553.947 174.112 554.502 174.904C555.083 175.696 555.373 176.668 555.373 177.82C555.373 178.972 555.07 180.016 554.464 180.952C553.858 181.864 552.974 182.596 551.813 183.148C550.677 183.7 549.263 183.976 547.571 183.976C546.965 183.976 546.359 183.928 545.753 183.832C545.172 183.76 544.579 183.628 543.973 183.436C543.392 183.244 542.811 183.004 542.23 182.716C542.104 182.644 542.016 182.56 541.965 182.464C541.94 182.344 541.915 182.2 541.889 182.032L541.397 177.136C541.372 177.016 541.422 176.956 541.548 176.956C541.7 176.932 541.788 176.968 541.814 177.064C541.99 177.784 542.243 178.516 542.571 179.26C542.899 180.004 543.329 180.688 543.859 181.312C544.389 181.936 545.033 182.44 545.791 182.824C546.548 183.208 547.432 183.4 548.442 183.4C549.174 183.4 549.881 183.268 550.563 183.004C551.27 182.74 551.838 182.308 552.267 181.708C552.722 181.108 552.949 180.292 552.949 179.26C552.949 178.084 552.671 177.112 552.116 176.344C551.586 175.552 550.904 174.868 550.071 174.292C549.237 173.716 548.354 173.176 547.419 172.672C546.535 172.144 545.677 171.604 544.844 171.052C544.036 170.5 543.367 169.852 542.836 169.108C542.331 168.34 542.079 167.392 542.079 166.264C542.079 164.992 542.42 163.948 543.101 163.132C543.783 162.292 544.667 161.668 545.753 161.26C546.839 160.852 547.962 160.648 549.124 160.648C549.831 160.648 550.563 160.72 551.321 160.864C552.078 160.984 552.823 161.2 553.555 161.512C553.757 161.584 553.896 161.68 553.972 161.8C554.073 161.896 554.123 162.004 554.123 162.124L554.388 166.228C554.388 166.324 554.325 166.384 554.199 166.408C554.073 166.408 553.984 166.36 553.934 166.264C553.883 165.784 553.745 165.256 553.517 164.68C553.29 164.08 552.962 163.516 552.533 162.988C552.103 162.46 551.56 162.028 550.904 161.692C550.247 161.356 549.452 161.188 548.518 161.188C547.533 161.188 546.725 161.392 546.094 161.8C545.488 162.184 545.033 162.688 544.73 163.312C544.452 163.912 544.313 164.56 544.313 165.256Z" fill="#8A8A88"/>
<path d="M533.325 183.544H517.455C517.404 183.544 517.379 183.472 517.379 183.328C517.379 183.184 517.404 183.112 517.455 183.112C518.389 183.112 519.083 183.052 519.538 182.932C519.992 182.812 520.295 182.572 520.447 182.212C520.624 181.852 520.712 181.324 520.712 180.628V163.96C520.712 163.264 520.624 162.748 520.447 162.412C520.295 162.052 519.992 161.812 519.538 161.692C519.083 161.548 518.389 161.476 517.455 161.476C517.404 161.476 517.379 161.404 517.379 161.26C517.379 161.116 517.404 161.044 517.455 161.044H532.681C532.908 161.044 533.022 161.152 533.022 161.368L533.098 165.796C533.098 165.868 533.022 165.916 532.87 165.94C532.744 165.94 532.681 165.904 532.681 165.832C532.605 164.536 532.189 163.54 531.431 162.844C530.699 162.148 529.739 161.8 528.552 161.8H526.242C525.383 161.8 524.727 161.86 524.272 161.98C523.843 162.1 523.54 162.328 523.363 162.664C523.212 163 523.136 163.492 523.136 164.14V180.484C523.136 181.108 523.212 181.588 523.363 181.924C523.54 182.26 523.83 182.488 524.235 182.608C524.664 182.728 525.295 182.788 526.128 182.788H529.158C530.37 182.788 531.38 182.38 532.189 181.564C533.022 180.724 533.565 179.596 533.817 178.18C533.817 178.108 533.893 178.084 534.044 178.108C534.196 178.132 534.272 178.18 534.272 178.252C534.171 178.876 534.082 179.632 534.007 180.52C533.956 181.408 533.931 182.236 533.931 183.004C533.931 183.364 533.729 183.544 533.325 183.544ZM531.204 175.156C531.204 174.1 530.926 173.344 530.37 172.888C529.84 172.432 528.944 172.204 527.681 172.204H522V171.448H527.795C529.007 171.448 529.865 171.256 530.37 170.872C530.901 170.464 531.166 169.816 531.166 168.928C531.166 168.88 531.242 168.856 531.393 168.856C531.545 168.856 531.62 168.88 531.62 168.928C531.62 169.648 531.608 170.212 531.583 170.62C531.583 171.004 531.583 171.412 531.583 171.844C531.583 172.396 531.595 172.936 531.62 173.464C531.646 173.992 531.658 174.556 531.658 175.156C531.658 175.204 531.582 175.228 531.431 175.228C531.279 175.228 531.204 175.204 531.204 175.156Z" fill="#8A8A88"/>
<path d="M500.061 165.256C500.061 166.24 500.314 167.092 500.819 167.812C501.349 168.508 502.018 169.12 502.826 169.648C503.634 170.176 504.493 170.704 505.402 171.232C506.336 171.736 507.233 172.276 508.091 172.852C508.975 173.428 509.695 174.112 510.25 174.904C510.831 175.696 511.121 176.668 511.121 177.82C511.121 178.972 510.818 180.016 510.212 180.952C509.606 181.864 508.722 182.596 507.561 183.148C506.425 183.7 505.011 183.976 503.319 183.976C502.713 183.976 502.107 183.928 501.501 183.832C500.92 183.76 500.327 183.628 499.721 183.436C499.14 183.244 498.559 183.004 497.978 182.716C497.852 182.644 497.764 182.56 497.713 182.464C497.688 182.344 497.663 182.2 497.637 182.032L497.145 177.136C497.12 177.016 497.17 176.956 497.297 176.956C497.448 176.932 497.536 176.968 497.562 177.064C497.738 177.784 497.991 178.516 498.319 179.26C498.647 180.004 499.077 180.688 499.607 181.312C500.137 181.936 500.781 182.44 501.539 182.824C502.296 183.208 503.18 183.4 504.19 183.4C504.922 183.4 505.629 183.268 506.311 183.004C507.018 182.74 507.586 182.308 508.015 181.708C508.47 181.108 508.697 180.292 508.697 179.26C508.697 178.084 508.419 177.112 507.864 176.344C507.334 175.552 506.652 174.868 505.819 174.292C504.985 173.716 504.102 173.176 503.167 172.672C502.284 172.144 501.425 171.604 500.592 171.052C499.784 170.5 499.115 169.852 498.584 169.108C498.079 168.34 497.827 167.392 497.827 166.264C497.827 164.992 498.168 163.948 498.849 163.132C499.531 162.292 500.415 161.668 501.501 161.26C502.587 160.852 503.71 160.648 504.872 160.648C505.579 160.648 506.311 160.72 507.069 160.864C507.826 160.984 508.571 161.2 509.303 161.512C509.505 161.584 509.644 161.68 509.72 161.8C509.821 161.896 509.871 162.004 509.871 162.124L510.137 166.228C510.137 166.324 510.073 166.384 509.947 166.408C509.821 166.408 509.733 166.36 509.682 166.264C509.632 165.784 509.493 165.256 509.265 164.68C509.038 164.08 508.71 163.516 508.281 162.988C507.851 162.46 507.308 162.028 506.652 161.692C505.995 161.356 505.2 161.188 504.266 161.188C503.281 161.188 502.473 161.392 501.842 161.8C501.236 162.184 500.781 162.688 500.478 163.312C500.2 163.912 500.061 164.56 500.061 165.256Z" fill="#8A8A88"/>
<path d="M486.88 180.628C486.88 181.324 486.955 181.852 487.107 182.212C487.258 182.572 487.561 182.812 488.016 182.932C488.496 183.052 489.19 183.112 490.099 183.112C490.175 183.112 490.213 183.184 490.213 183.328C490.213 183.472 490.175 183.544 490.099 183.544C489.493 183.544 488.811 183.532 488.054 183.508C487.321 183.484 486.501 183.472 485.592 183.472C484.759 183.472 483.95 183.484 483.168 183.508C482.41 183.532 481.728 183.544 481.122 183.544C481.047 183.544 481.009 183.472 481.009 183.328C481.009 183.184 481.047 183.112 481.122 183.112C482.031 183.112 482.726 183.052 483.206 182.932C483.685 182.812 484.001 182.572 484.152 182.212C484.304 181.852 484.38 181.324 484.38 180.628V163.96C484.38 163.264 484.304 162.748 484.152 162.412C484.001 162.052 483.685 161.812 483.206 161.692C482.726 161.548 482.031 161.476 481.122 161.476C481.047 161.476 481.009 161.404 481.009 161.26C481.009 161.116 481.047 161.044 481.122 161.044C481.728 161.044 482.41 161.068 483.168 161.116C483.95 161.14 484.759 161.152 485.592 161.152C486.501 161.152 487.334 161.14 488.092 161.116C488.849 161.068 489.518 161.044 490.099 161.044C490.175 161.044 490.213 161.116 490.213 161.26C490.213 161.404 490.175 161.476 490.099 161.476C489.19 161.476 488.496 161.548 488.016 161.692C487.561 161.836 487.258 162.088 487.107 162.448C486.955 162.808 486.88 163.336 486.88 164.032V180.628Z" fill="#8A8A88"/>
<path d="M472.189 183.544C471.76 183.544 471.066 183.088 470.106 182.176C469.172 181.24 468.023 179.908 466.659 178.18C465.321 176.428 463.819 174.364 462.152 171.988L464.273 171.376C466.419 174.28 468.238 176.596 469.727 178.324C471.242 180.028 472.568 181.252 473.704 181.996C474.866 182.74 475.977 183.112 477.037 183.112C477.113 183.112 477.151 183.184 477.151 183.328C477.151 183.472 477.113 183.544 477.037 183.544C475.775 183.544 474.74 183.544 473.932 183.544C473.149 183.544 472.568 183.544 472.189 183.544ZM462.644 160.936C464.665 160.936 466.205 161.38 467.265 162.268C468.351 163.132 468.894 164.272 468.894 165.688C468.894 166.984 468.49 168.16 467.682 169.216C466.899 170.248 465.851 171.064 464.538 171.664C463.25 172.264 461.836 172.564 460.296 172.564C460.044 172.564 459.753 172.552 459.425 172.528C459.122 172.504 458.844 172.48 458.592 172.456V180.628C458.592 181.324 458.655 181.852 458.781 182.212C458.933 182.572 459.236 182.812 459.69 182.932C460.17 183.052 460.877 183.112 461.811 183.112C461.887 183.112 461.925 183.184 461.925 183.328C461.925 183.472 461.887 183.544 461.811 183.544C461.205 183.544 460.523 183.532 459.766 183.508C459.034 183.484 458.226 183.472 457.342 183.472C456.509 183.472 455.701 183.484 454.918 183.508C454.16 183.532 453.466 183.544 452.835 183.544C452.784 183.544 452.759 183.472 452.759 183.328C452.759 183.184 452.784 183.112 452.835 183.112C453.769 183.112 454.463 183.052 454.918 182.932C455.398 182.812 455.726 182.572 455.902 182.212C456.079 181.852 456.168 181.324 456.168 180.628V163.96C456.168 163.264 456.079 162.748 455.902 162.412C455.751 162.052 455.448 161.812 454.993 161.692C454.539 161.548 453.845 161.476 452.91 161.476C452.835 161.476 452.797 161.404 452.797 161.26C452.797 161.116 452.835 161.044 452.91 161.044C453.516 161.044 454.198 161.068 454.956 161.116C455.713 161.14 456.509 161.152 457.342 161.152C458.125 161.152 459.021 161.116 460.031 161.044C461.066 160.972 461.937 160.936 462.644 160.936ZM466.318 166.732C466.318 165.412 466.104 164.368 465.675 163.6C465.271 162.832 464.69 162.292 463.932 161.98C463.175 161.644 462.266 161.476 461.205 161.476C460.271 161.476 459.602 161.632 459.198 161.944C458.794 162.256 458.592 162.952 458.592 164.032V171.592C458.945 171.64 459.324 171.676 459.728 171.7C460.132 171.724 460.498 171.736 460.826 171.736C462.872 171.736 464.298 171.316 465.106 170.476C465.914 169.612 466.318 168.364 466.318 166.732Z" fill="#8A8A88"/>
<path d="M435.26 180.484C435.26 181.204 435.361 181.756 435.563 182.14C435.765 182.5 436.194 182.752 436.851 182.896C437.507 183.04 438.48 183.112 439.767 183.112C439.843 183.112 439.881 183.184 439.881 183.328C439.881 183.472 439.843 183.544 439.767 183.544C438.959 183.544 438.076 183.532 437.116 183.508C436.182 183.484 435.159 183.472 434.048 183.472C433.215 183.472 432.407 183.484 431.624 183.508C430.866 183.532 430.185 183.544 429.579 183.544C429.528 183.544 429.503 183.472 429.503 183.328C429.503 183.184 429.528 183.112 429.579 183.112C430.513 183.112 431.207 183.052 431.662 182.932C432.116 182.812 432.419 182.572 432.571 182.212C432.722 181.852 432.798 181.324 432.798 180.628V163.96C432.798 163.264 432.722 162.748 432.571 162.412C432.419 162.052 432.116 161.812 431.662 161.692C431.207 161.548 430.513 161.476 429.579 161.476C429.528 161.476 429.503 161.404 429.503 161.26C429.503 161.116 429.528 161.044 429.579 161.044C430.185 161.044 430.866 161.068 431.624 161.116C432.382 161.14 433.177 161.152 434.01 161.152C434.667 161.152 435.462 161.116 436.396 161.044C437.356 160.972 438.315 160.936 439.275 160.936C440.714 160.936 442.002 161.14 443.138 161.548C444.3 161.956 445.222 162.592 445.903 163.456C446.585 164.32 446.939 165.448 446.964 166.84C446.964 168.112 446.711 169.204 446.206 170.116C445.727 171.028 445.07 171.784 444.237 172.384C443.429 172.96 442.532 173.392 441.548 173.68C440.563 173.968 439.578 174.112 438.593 174.112C438.29 174.112 437.975 174.1 437.646 174.076C437.343 174.052 437.053 174.004 436.775 173.932C436.674 173.908 436.636 173.824 436.662 173.68C436.712 173.512 436.775 173.44 436.851 173.464C437.078 173.512 437.305 173.548 437.533 173.572C437.785 173.596 438.012 173.608 438.214 173.608C439.25 173.608 440.222 173.392 441.131 172.96C442.04 172.528 442.772 171.868 443.328 170.98C443.883 170.068 444.161 168.94 444.161 167.596C444.161 166.276 443.909 165.172 443.404 164.284C442.899 163.372 442.204 162.676 441.32 162.196C440.437 161.716 439.452 161.476 438.366 161.476C437.533 161.476 436.889 161.524 436.434 161.62C436.005 161.692 435.702 161.908 435.525 162.268C435.348 162.628 435.26 163.216 435.26 164.032V180.484Z" fill="#8A8A88"/>
<path d="M420.835 183.544C420.406 183.544 419.711 183.088 418.752 182.176C417.817 181.24 416.668 179.908 415.305 178.18C413.967 176.428 412.464 174.364 410.798 171.988L412.919 171.376C415.065 174.28 416.883 176.596 418.373 178.324C419.888 180.028 421.214 181.252 422.35 181.996C423.511 182.74 424.622 183.112 425.683 183.112C425.759 183.112 425.797 183.184 425.797 183.328C425.797 183.472 425.759 183.544 425.683 183.544C424.42 183.544 423.385 183.544 422.577 183.544C421.794 183.544 421.214 183.544 420.835 183.544ZM411.29 160.936C413.31 160.936 414.85 161.38 415.911 162.268C416.997 163.132 417.54 164.272 417.54 165.688C417.54 166.984 417.136 168.16 416.328 169.216C415.545 170.248 414.497 171.064 413.184 171.664C411.896 172.264 410.482 172.564 408.942 172.564C408.689 172.564 408.399 172.552 408.071 172.528C407.768 172.504 407.49 172.48 407.237 172.456V180.628C407.237 181.324 407.3 181.852 407.427 182.212C407.578 182.572 407.881 182.812 408.336 182.932C408.815 183.052 409.522 183.112 410.457 183.112C410.532 183.112 410.57 183.184 410.57 183.328C410.57 183.472 410.532 183.544 410.457 183.544C409.851 183.544 409.169 183.532 408.411 183.508C407.679 183.484 406.871 183.472 405.987 183.472C405.154 183.472 404.346 183.484 403.563 183.508C402.806 183.532 402.111 183.544 401.48 183.544C401.43 183.544 401.404 183.472 401.404 183.328C401.404 183.184 401.43 183.112 401.48 183.112C402.414 183.112 403.109 183.052 403.563 182.932C404.043 182.812 404.371 182.572 404.548 182.212C404.725 181.852 404.813 181.324 404.813 180.628V163.96C404.813 163.264 404.725 162.748 404.548 162.412C404.396 162.052 404.094 161.812 403.639 161.692C403.184 161.548 402.49 161.476 401.556 161.476C401.48 161.476 401.442 161.404 401.442 161.26C401.442 161.116 401.48 161.044 401.556 161.044C402.162 161.044 402.844 161.068 403.601 161.116C404.359 161.14 405.154 161.152 405.987 161.152C406.77 161.152 407.666 161.116 408.677 161.044C409.712 160.972 410.583 160.936 411.29 160.936ZM414.964 166.732C414.964 165.412 414.749 164.368 414.32 163.6C413.916 162.832 413.335 162.292 412.578 161.98C411.82 161.644 410.911 161.476 409.851 161.476C408.916 161.476 408.247 161.632 407.843 161.944C407.439 162.256 407.237 162.952 407.237 164.032V171.592C407.591 171.64 407.97 171.676 408.374 171.7C408.778 171.724 409.144 171.736 409.472 171.736C411.517 171.736 412.944 171.316 413.752 170.476C414.56 169.612 414.964 168.364 414.964 166.732Z" fill="#8A8A88"/>
<path d="M394.356 183.544H378.486C378.435 183.544 378.41 183.472 378.41 183.328C378.41 183.184 378.435 183.112 378.486 183.112C379.42 183.112 380.115 183.052 380.569 182.932C381.024 182.812 381.327 182.572 381.478 182.212C381.655 181.852 381.743 181.324 381.743 180.628V163.96C381.743 163.264 381.655 162.748 381.478 162.412C381.327 162.052 381.024 161.812 380.569 161.692C380.115 161.548 379.42 161.476 378.486 161.476C378.435 161.476 378.41 161.404 378.41 161.26C378.41 161.116 378.435 161.044 378.486 161.044H393.712C393.939 161.044 394.053 161.152 394.053 161.368L394.129 165.796C394.129 165.868 394.053 165.916 393.902 165.94C393.775 165.94 393.712 165.904 393.712 165.832C393.636 164.536 393.22 163.54 392.462 162.844C391.73 162.148 390.77 161.8 389.584 161.8H387.273C386.415 161.8 385.758 161.86 385.304 161.98C384.874 162.1 384.571 162.328 384.395 162.664C384.243 163 384.167 163.492 384.167 164.14V180.484C384.167 181.108 384.243 181.588 384.395 181.924C384.571 182.26 384.862 182.488 385.266 182.608C385.695 182.728 386.326 182.788 387.16 182.788H390.19C391.402 182.788 392.412 182.38 393.22 181.564C394.053 180.724 394.596 179.596 394.848 178.18C394.848 178.108 394.924 178.084 395.076 178.108C395.227 178.132 395.303 178.18 395.303 178.252C395.202 178.876 395.114 179.632 395.038 180.52C394.987 181.408 394.962 182.236 394.962 183.004C394.962 183.364 394.76 183.544 394.356 183.544ZM392.235 175.156C392.235 174.1 391.957 173.344 391.402 172.888C390.871 172.432 389.975 172.204 388.712 172.204H383.031V171.448H388.826C390.038 171.448 390.897 171.256 391.402 170.872C391.932 170.464 392.197 169.816 392.197 168.928C392.197 168.88 392.273 168.856 392.424 168.856C392.576 168.856 392.652 168.88 392.652 168.928C392.652 169.648 392.639 170.212 392.614 170.62C392.614 171.004 392.614 171.412 392.614 171.844C392.614 172.396 392.626 172.936 392.652 173.464C392.677 173.992 392.689 174.556 392.689 175.156C392.689 175.204 392.614 175.228 392.462 175.228C392.311 175.228 392.235 175.204 392.235 175.156Z" fill="#8A8A88"/>
<path d="M357.321 161.692C355.756 161.692 354.569 162.076 353.761 162.844C352.978 163.612 352.41 164.92 352.056 166.768C352.056 166.816 351.981 166.84 351.829 166.84C351.703 166.84 351.64 166.816 351.64 166.768C351.69 166.456 351.741 166.024 351.791 165.472C351.842 164.896 351.892 164.284 351.943 163.636C352.018 162.988 352.069 162.364 352.094 161.764C352.145 161.14 352.17 160.636 352.17 160.252C352.17 160.132 352.233 160.072 352.359 160.072C352.511 160.072 352.587 160.132 352.587 160.252C352.587 160.492 352.713 160.672 352.965 160.792C353.218 160.888 353.496 160.96 353.799 161.008C354.127 161.032 354.405 161.044 354.632 161.044C356.803 161.116 359.341 161.152 362.245 161.152C364.038 161.152 365.452 161.14 366.487 161.116C367.548 161.068 368.57 161.044 369.555 161.044C370.414 161.044 371.07 160.996 371.525 160.9C372.004 160.78 372.307 160.528 372.434 160.144C372.459 160.048 372.535 160 372.661 160C372.787 160 372.85 160.048 372.85 160.144C372.825 160.504 372.787 160.996 372.737 161.62C372.686 162.244 372.648 162.892 372.623 163.564C372.598 164.236 372.573 164.86 372.547 165.436C372.522 166.012 372.509 166.456 372.509 166.768C372.509 166.816 372.434 166.84 372.282 166.84C372.131 166.84 372.055 166.816 372.055 166.768C371.979 164.896 371.575 163.588 370.843 162.844C370.111 162.076 368.899 161.692 367.207 161.692C366.146 161.692 365.351 161.74 364.821 161.836C364.29 161.932 363.937 162.148 363.76 162.484C363.609 162.796 363.533 163.312 363.533 164.032V180.628C363.533 181.324 363.621 181.852 363.798 182.212C363.975 182.572 364.316 182.812 364.821 182.932C365.351 183.052 366.146 183.112 367.207 183.112C367.283 183.112 367.32 183.184 367.32 183.328C367.32 183.472 367.283 183.544 367.207 183.544C366.55 183.544 365.805 183.532 364.972 183.508C364.139 183.484 363.23 183.472 362.245 183.472C361.311 183.472 360.427 183.484 359.594 183.508C358.76 183.532 358.003 183.544 357.321 183.544C357.271 183.544 357.245 183.472 357.245 183.328C357.245 183.184 357.271 183.112 357.321 183.112C358.356 183.112 359.139 183.052 359.669 182.932C360.225 182.812 360.591 182.572 360.768 182.212C360.945 181.852 361.033 181.324 361.033 180.628V163.96C361.033 163.24 360.945 162.724 360.768 162.412C360.591 162.076 360.238 161.872 359.707 161.8C359.177 161.728 358.382 161.692 357.321 161.692Z" fill="#8A8A88"/>
<path d="M324.574 179.62V161.872L325.445 161.944V179.62C325.445 180.868 325.672 181.768 326.127 182.32C326.581 182.848 327.339 183.112 328.399 183.112C328.475 183.112 328.513 183.184 328.513 183.328C328.513 183.472 328.475 183.544 328.399 183.544C327.894 183.544 327.376 183.532 326.846 183.508C326.316 183.484 325.723 183.472 325.066 183.472C324.435 183.472 323.829 183.484 323.248 183.508C322.667 183.532 322.112 183.544 321.581 183.544C321.531 183.544 321.506 183.472 321.506 183.328C321.506 183.184 321.531 183.112 321.581 183.112C322.692 183.112 323.463 182.848 323.892 182.32C324.346 181.768 324.574 180.868 324.574 179.62ZM343.663 183.976C343.663 184.024 343.6 184.048 343.474 184.048C343.348 184.072 343.259 184.072 343.209 184.048L325.786 163.996C324.927 163.012 324.157 162.352 323.475 162.016C322.819 161.656 322.187 161.476 321.581 161.476C321.506 161.476 321.468 161.404 321.468 161.26C321.468 161.116 321.506 161.044 321.581 161.044C322.036 161.044 322.49 161.056 322.945 161.08C323.425 161.104 323.854 161.116 324.233 161.116C324.687 161.116 325.117 161.104 325.521 161.08C325.925 161.056 326.228 161.044 326.43 161.044C326.758 161.044 326.985 161.188 327.111 161.476C327.238 161.74 327.604 162.22 328.21 162.916L343.36 180.592L343.663 183.976ZM343.663 165.004V183.976L342.792 182.86V165.004C342.792 163.756 342.565 162.856 342.11 162.304C341.681 161.752 340.949 161.476 339.913 161.476C339.863 161.476 339.838 161.404 339.838 161.26C339.838 161.116 339.863 161.044 339.913 161.044C340.419 161.044 340.936 161.068 341.466 161.116C342.022 161.14 342.615 161.152 343.247 161.152C343.853 161.152 344.446 161.14 345.027 161.116C345.633 161.068 346.188 161.044 346.693 161.044C346.769 161.044 346.807 161.116 346.807 161.26C346.807 161.404 346.769 161.476 346.693 161.476C345.608 161.476 344.825 161.752 344.345 162.304C343.891 162.856 343.663 163.756 343.663 165.004Z" fill="#8A8A88"/>
<path d="M314.533 183.544H298.663C298.612 183.544 298.587 183.472 298.587 183.328C298.587 183.184 298.612 183.112 298.663 183.112C299.597 183.112 300.291 183.052 300.746 182.932C301.2 182.812 301.503 182.572 301.655 182.212C301.832 181.852 301.92 181.324 301.92 180.628V163.96C301.92 163.264 301.832 162.748 301.655 162.412C301.503 162.052 301.2 161.812 300.746 161.692C300.291 161.548 299.597 161.476 298.663 161.476C298.612 161.476 298.587 161.404 298.587 161.26C298.587 161.116 298.612 161.044 298.663 161.044H313.889C314.116 161.044 314.23 161.152 314.23 161.368L314.306 165.796C314.306 165.868 314.23 165.916 314.078 165.94C313.952 165.94 313.889 165.904 313.889 165.832C313.813 164.536 313.397 163.54 312.639 162.844C311.907 162.148 310.947 161.8 309.76 161.8H307.45C306.591 161.8 305.935 161.86 305.48 161.98C305.051 162.1 304.748 162.328 304.571 162.664C304.42 163 304.344 163.492 304.344 164.14V180.484C304.344 181.108 304.42 181.588 304.571 181.924C304.748 182.26 305.039 182.488 305.443 182.608C305.872 182.728 306.503 182.788 307.336 182.788H310.366C311.578 182.788 312.589 182.38 313.397 181.564C314.23 180.724 314.773 179.596 315.025 178.18C315.025 178.108 315.101 178.084 315.252 178.108C315.404 178.132 315.48 178.18 315.48 178.252C315.379 178.876 315.29 179.632 315.215 180.52C315.164 181.408 315.139 182.236 315.139 183.004C315.139 183.364 314.937 183.544 314.533 183.544ZM312.412 175.156C312.412 174.1 312.134 173.344 311.578 172.888C311.048 172.432 310.152 172.204 308.889 172.204H303.208V171.448H309.003C310.215 171.448 311.073 171.256 311.578 170.872C312.109 170.464 312.374 169.816 312.374 168.928C312.374 168.88 312.45 168.856 312.601 168.856C312.753 168.856 312.828 168.88 312.828 168.928C312.828 169.648 312.816 170.212 312.791 170.62C312.791 171.004 312.791 171.412 312.791 171.844C312.791 172.396 312.803 172.936 312.828 173.464C312.854 173.992 312.866 174.556 312.866 175.156C312.866 175.204 312.791 175.228 312.639 175.228C312.488 175.228 312.412 175.204 312.412 175.156Z" fill="#8A8A88"/>
<path d="M267.719 183.976C265.901 183.976 264.247 183.676 262.757 183.076C261.292 182.452 260.03 181.6 258.969 180.52C257.934 179.44 257.126 178.204 256.545 176.812C255.99 175.396 255.712 173.896 255.712 172.312C255.712 170.368 256.103 168.664 256.886 167.2C257.694 165.736 258.755 164.524 260.068 163.564C261.381 162.58 262.82 161.848 264.386 161.368C265.951 160.888 267.504 160.648 269.044 160.648C270.913 160.648 272.579 160.972 274.044 161.62C275.534 162.244 276.796 163.096 277.832 164.176C278.867 165.256 279.65 166.48 280.18 167.848C280.735 169.216 281.013 170.62 281.013 172.06C281.013 173.74 280.66 175.3 279.953 176.74C279.246 178.18 278.274 179.44 277.036 180.52C275.824 181.6 274.41 182.452 272.794 183.076C271.203 183.676 269.511 183.976 267.719 183.976ZM269.044 183.22C270.761 183.22 272.302 182.836 273.665 182.068C275.029 181.276 276.115 180.124 276.923 178.612C277.731 177.1 278.135 175.252 278.135 173.068C278.135 170.812 277.693 168.82 276.809 167.092C275.95 165.34 274.713 163.972 273.097 162.988C271.506 161.98 269.625 161.476 267.454 161.476C264.651 161.476 262.467 162.34 260.901 164.068C259.361 165.772 258.591 168.1 258.591 171.052C258.591 172.756 258.83 174.352 259.31 175.84C259.815 177.304 260.535 178.6 261.469 179.728C262.403 180.832 263.514 181.696 264.802 182.32C266.09 182.92 267.504 183.22 269.044 183.22Z" fill="#8A8A88"/>
<path d="M232.484 180.628V163.96C232.484 163.264 232.408 162.748 232.256 162.412C232.105 162.052 231.789 161.812 231.309 161.692C230.855 161.548 230.173 161.476 229.264 161.476C229.214 161.476 229.188 161.404 229.188 161.26C229.188 161.116 229.214 161.044 229.264 161.044C229.87 161.044 230.552 161.068 231.309 161.116C232.067 161.14 232.862 161.152 233.696 161.152C234.605 161.152 235.425 161.14 236.158 161.116C236.915 161.068 237.584 161.044 238.165 161.044C238.241 161.044 238.279 161.116 238.279 161.26C238.279 161.404 238.241 161.476 238.165 161.476C237.256 161.476 236.574 161.548 236.12 161.692C235.665 161.836 235.349 162.088 235.173 162.448C235.021 162.808 234.945 163.336 234.945 164.032V180.628C234.945 181.324 235.021 181.852 235.173 182.212C235.324 182.572 235.627 182.812 236.082 182.932C236.562 183.052 237.256 183.112 238.165 183.112C238.241 183.112 238.279 183.184 238.279 183.328C238.279 183.472 238.241 183.544 238.165 183.544C237.559 183.544 236.89 183.532 236.158 183.508C235.425 183.484 234.605 183.472 233.696 183.472C232.862 183.472 232.054 183.484 231.271 183.508C230.514 183.532 229.832 183.544 229.226 183.544C229.176 183.544 229.15 183.472 229.15 183.328C229.15 183.184 229.176 183.112 229.226 183.112C230.135 183.112 230.83 183.052 231.309 182.932C231.789 182.812 232.105 182.572 232.256 182.212C232.408 181.852 232.484 181.324 232.484 180.628ZM241.99 178.324L235.968 171.124L237.862 169.684L243.392 176.38C244.528 177.796 245.488 178.936 246.27 179.8C247.078 180.664 247.748 181.336 248.278 181.816C248.808 182.272 249.275 182.596 249.679 182.788C250.109 182.956 250.513 183.052 250.891 183.076C251.27 183.1 251.699 183.112 252.179 183.112C252.255 183.112 252.293 183.184 252.293 183.328C252.293 183.472 252.255 183.544 252.179 183.544C251.043 183.544 250.134 183.544 249.452 183.544C248.77 183.544 248.265 183.544 247.937 183.544C247.71 183.544 247.52 183.544 247.369 183.544C247.243 183.568 247.104 183.58 246.952 183.58C246.599 183.58 246.308 183.52 246.081 183.4C245.879 183.28 245.639 183.04 245.361 182.68C245.084 182.32 244.68 181.792 244.149 181.096C243.644 180.4 242.925 179.476 241.99 178.324ZM233.279 173.212L243.051 163.96C243.985 163.048 244.377 162.412 244.225 162.052C244.099 161.668 243.379 161.476 242.066 161.476C242.016 161.476 241.99 161.404 241.99 161.26C241.99 161.116 242.016 161.044 242.066 161.044C242.697 161.044 243.329 161.068 243.96 161.116C244.591 161.14 245.425 161.152 246.46 161.152C247.445 161.152 248.227 161.14 248.808 161.116C249.389 161.068 249.944 161.044 250.475 161.044C250.55 161.044 250.588 161.116 250.588 161.26C250.588 161.404 250.55 161.476 250.475 161.476C249.566 161.476 248.518 161.68 247.331 162.088C246.144 162.472 245.008 163.168 243.922 164.176L234.226 173.212H233.279Z" fill="#8A8A88"/>
<path d="M199.011 183.688C198.278 183.688 197.369 183.652 196.284 183.58C195.223 183.508 194.238 183.472 193.329 183.472C192.496 183.472 191.688 183.484 190.905 183.508C190.148 183.532 189.466 183.544 188.86 183.544C188.809 183.544 188.784 183.472 188.784 183.328C188.784 183.184 188.809 183.112 188.86 183.112C189.769 183.112 190.463 183.052 190.943 182.932C191.423 182.812 191.739 182.572 191.89 182.212C192.042 181.852 192.117 181.324 192.117 180.628V163.96C192.117 163.264 192.042 162.748 191.89 162.412C191.739 162.052 191.423 161.812 190.943 161.692C190.489 161.548 189.807 161.476 188.898 161.476C188.847 161.476 188.822 161.404 188.822 161.26C188.822 161.116 188.847 161.044 188.898 161.044C189.504 161.044 190.186 161.068 190.943 161.116C191.701 161.14 192.496 161.152 193.329 161.152C194.163 161.152 195.059 161.128 196.019 161.08C196.978 161.008 197.799 160.972 198.481 160.972C201.157 160.972 203.493 161.452 205.488 162.412C207.508 163.372 209.073 164.68 210.184 166.336C211.295 167.992 211.851 169.852 211.851 171.916C211.851 173.716 211.51 175.348 210.828 176.812C210.172 178.252 209.237 179.488 208.025 180.52C206.839 181.528 205.462 182.308 203.897 182.86C202.357 183.412 200.728 183.688 199.011 183.688ZM198.632 183.148C200.652 183.148 202.432 182.752 203.973 181.96C205.513 181.144 206.725 179.956 207.609 178.396C208.518 176.836 208.972 174.94 208.972 172.708C208.972 170.62 208.556 168.736 207.722 167.056C206.889 165.352 205.715 164.008 204.2 163.024C202.71 162.016 200.917 161.512 198.821 161.512C197.306 161.512 196.221 161.656 195.564 161.944C194.908 162.232 194.579 162.928 194.579 164.032V180.232C194.579 181.24 194.832 181.984 195.337 182.464C195.867 182.92 196.965 183.148 198.632 183.148Z" fill="#8A8A88"/>
<path d="M161.908 179.62V161.872L162.779 161.944V179.62C162.779 180.868 163.006 181.768 163.461 182.32C163.915 182.848 164.673 183.112 165.733 183.112C165.809 183.112 165.847 183.184 165.847 183.328C165.847 183.472 165.809 183.544 165.733 183.544C165.228 183.544 164.71 183.532 164.18 183.508C163.65 183.484 163.057 183.472 162.4 183.472C161.769 183.472 161.163 183.484 160.582 183.508C160.001 183.532 159.446 183.544 158.915 183.544C158.865 183.544 158.84 183.472 158.84 183.328C158.84 183.184 158.865 183.112 158.915 183.112C160.026 183.112 160.797 182.848 161.226 182.32C161.68 181.768 161.908 180.868 161.908 179.62ZM180.997 183.976C180.997 184.024 180.934 184.048 180.808 184.048C180.682 184.072 180.593 184.072 180.543 184.048L163.12 163.996C162.261 163.012 161.491 162.352 160.809 162.016C160.153 161.656 159.521 161.476 158.915 161.476C158.84 161.476 158.802 161.404 158.802 161.26C158.802 161.116 158.84 161.044 158.915 161.044C159.37 161.044 159.824 161.056 160.279 161.08C160.759 161.104 161.188 161.116 161.567 161.116C162.021 161.116 162.451 161.104 162.855 161.08C163.259 161.056 163.562 161.044 163.764 161.044C164.092 161.044 164.319 161.188 164.445 161.476C164.572 161.74 164.938 162.22 165.544 162.916L180.694 180.592L180.997 183.976ZM180.997 165.004V183.976L180.126 182.86V165.004C180.126 163.756 179.899 162.856 179.444 162.304C179.015 161.752 178.283 161.476 177.247 161.476C177.197 161.476 177.172 161.404 177.172 161.26C177.172 161.116 177.197 161.044 177.247 161.044C177.753 161.044 178.27 161.068 178.8 161.116C179.356 161.14 179.949 161.152 180.581 161.152C181.187 161.152 181.78 161.14 182.361 161.116C182.967 161.068 183.522 161.044 184.027 161.044C184.103 161.044 184.141 161.116 184.141 161.26C184.141 161.404 184.103 161.476 184.027 161.476C182.942 161.476 182.159 161.752 181.679 162.304C181.225 162.856 180.997 163.756 180.997 165.004Z" fill="#8A8A88"/>
<path d="M135.464 173.644L135.842 172.924H145.88L146.145 173.644H135.464ZM154.591 183.112C154.692 183.112 154.743 183.184 154.743 183.328C154.743 183.472 154.692 183.544 154.591 183.544C153.859 183.544 153.114 183.52 152.356 183.472C151.599 183.424 150.867 183.4 150.16 183.4C149.377 183.4 148.695 183.424 148.114 183.472C147.533 183.52 146.89 183.544 146.183 183.544C146.082 183.544 146.031 183.472 146.031 183.328C146.031 183.184 146.082 183.112 146.183 183.112C147.521 183.112 148.354 182.932 148.682 182.572C149.011 182.188 148.922 181.48 148.417 180.448L140.009 163.564L140.956 162.448L133.608 178.972C132.976 180.436 132.938 181.492 133.494 182.14C134.05 182.788 135.148 183.112 136.789 183.112C136.916 183.112 136.979 183.184 136.979 183.328C136.979 183.472 136.916 183.544 136.789 183.544C136.032 183.544 135.337 183.52 134.706 183.472C134.075 183.424 133.279 183.4 132.32 183.4C131.411 183.4 130.679 183.424 130.123 183.472C129.593 183.52 128.936 183.544 128.153 183.544C128.052 183.544 128.002 183.472 128.002 183.328C128.002 183.184 128.052 183.112 128.153 183.112C128.835 183.112 129.429 182.992 129.934 182.752C130.439 182.488 130.906 182.044 131.335 181.42C131.79 180.772 132.282 179.848 132.812 178.648L140.804 160.72C140.855 160.648 140.943 160.612 141.069 160.612C141.196 160.612 141.271 160.648 141.297 160.72L150.235 178.612C150.816 179.788 151.334 180.712 151.788 181.384C152.243 182.032 152.685 182.488 153.114 182.752C153.568 182.992 154.061 183.112 154.591 183.112Z" fill="#8A8A88"/>
<path d="M111.091 183.544H95.2213C95.1708 183.544 95.1455 183.472 95.1455 183.328C95.1455 183.184 95.1708 183.112 95.2213 183.112C96.1555 183.112 96.8499 183.052 97.3045 182.932C97.759 182.812 98.062 182.572 98.2135 182.212C98.3902 181.852 98.4786 181.324 98.4786 180.628V163.96C98.4786 163.264 98.3902 162.748 98.2135 162.412C98.062 162.052 97.759 161.812 97.3045 161.692C96.8499 161.548 96.1555 161.476 95.2213 161.476C95.1708 161.476 95.1455 161.404 95.1455 161.26C95.1455 161.116 95.1708 161.044 95.2213 161.044H110.448C110.675 161.044 110.788 161.152 110.788 161.368L110.864 165.796C110.864 165.868 110.788 165.916 110.637 165.94C110.511 165.94 110.448 165.904 110.448 165.832C110.372 164.536 109.955 163.54 109.198 162.844C108.465 162.148 107.506 161.8 106.319 161.8H104.009C103.15 161.8 102.494 161.86 102.039 161.98C101.61 162.1 101.307 162.328 101.13 162.664C100.978 163 100.903 163.492 100.903 164.14V180.484C100.903 181.108 100.978 181.588 101.13 181.924C101.307 182.26 101.597 182.488 102.001 182.608C102.43 182.728 103.062 182.788 103.895 182.788H106.925C108.137 182.788 109.147 182.38 109.955 181.564C110.788 180.724 111.331 179.596 111.584 178.18C111.584 178.108 111.66 178.084 111.811 178.108C111.963 178.132 112.038 178.18 112.038 178.252C111.937 178.876 111.849 179.632 111.773 180.52C111.723 181.408 111.697 182.236 111.697 183.004C111.697 183.364 111.495 183.544 111.091 183.544ZM108.97 175.156C108.97 174.1 108.693 173.344 108.137 172.888C107.607 172.432 106.71 172.204 105.448 172.204H99.7664V171.448H105.561C106.774 171.448 107.632 171.256 108.137 170.872C108.667 170.464 108.932 169.816 108.932 168.928C108.932 168.88 109.008 168.856 109.16 168.856C109.311 168.856 109.387 168.88 109.387 168.928C109.387 169.648 109.374 170.212 109.349 170.62C109.349 171.004 109.349 171.412 109.349 171.844C109.349 172.396 109.362 172.936 109.387 173.464C109.412 173.992 109.425 174.556 109.425 175.156C109.425 175.204 109.349 175.228 109.198 175.228C109.046 175.228 108.97 175.204 108.97 175.156Z" fill="#8A8A88"/>
<path d="M88.0963 183.544H72.2261C72.1756 183.544 72.1504 183.472 72.1504 183.328C72.1504 183.184 72.1756 183.112 72.2261 183.112C73.1604 183.112 73.8548 183.052 74.3093 182.932C74.7639 182.812 75.0669 182.572 75.2184 182.212C75.3951 181.852 75.4835 181.324 75.4835 180.628V163.96C75.4835 163.264 75.3951 162.748 75.2184 162.412C75.0669 162.052 74.7639 161.812 74.3093 161.692C73.8548 161.548 73.1604 161.476 72.2261 161.476C72.1756 161.476 72.1504 161.404 72.1504 161.26C72.1504 161.116 72.1756 161.044 72.2261 161.044H87.4524C87.6797 161.044 87.7933 161.152 87.7933 161.368L87.869 165.796C87.869 165.868 87.7933 165.916 87.6418 165.94C87.5155 165.94 87.4524 165.904 87.4524 165.832C87.3767 164.536 86.96 163.54 86.2025 162.844C85.4702 162.148 84.5107 161.8 83.3239 161.8H81.0134C80.1549 161.8 79.4984 161.86 79.0439 161.98C78.6146 162.1 78.3116 162.328 78.1348 162.664C77.9833 163 77.9076 163.492 77.9076 164.14V180.484C77.9076 181.108 77.9833 181.588 78.1348 181.924C78.3116 182.26 78.602 182.488 79.006 182.608C79.4353 182.728 80.0665 182.788 80.8998 182.788H83.9299C85.142 182.788 86.152 182.38 86.96 181.564C87.7933 180.724 88.3362 179.596 88.5887 178.18C88.5887 178.108 88.6644 178.084 88.816 178.108C88.9675 178.132 89.0432 178.18 89.0432 178.252C88.9422 178.876 88.8538 179.632 88.7781 180.52C88.7276 181.408 88.7023 182.236 88.7023 183.004C88.7023 183.364 88.5003 183.544 88.0963 183.544ZM85.9752 175.156C85.9752 174.1 85.6975 173.344 85.142 172.888C84.6117 172.432 83.7153 172.204 82.4527 172.204H76.7713V171.448H82.5664C83.7784 171.448 84.6369 171.256 85.142 170.872C85.6722 170.464 85.9374 169.816 85.9374 168.928C85.9374 168.88 86.0131 168.856 86.1646 168.856C86.3161 168.856 86.3919 168.88 86.3919 168.928C86.3919 169.648 86.3792 170.212 86.354 170.62C86.354 171.004 86.354 171.412 86.354 171.844C86.354 172.396 86.3666 172.936 86.3919 173.464C86.4171 173.992 86.4297 174.556 86.4297 175.156C86.4297 175.204 86.354 175.228 86.2025 175.228C86.051 175.228 85.9752 175.204 85.9752 175.156Z" fill="#8A8A88"/>
<path d="M54.7572 163.996V180.484C54.7572 181.132 54.8329 181.624 54.9845 181.96C55.136 182.296 55.4263 182.524 55.8556 182.644C56.3101 182.74 56.954 182.788 57.7873 182.788H61.9158C63.3804 182.788 64.5419 182.356 65.4004 181.492C66.259 180.604 66.8145 179.452 67.067 178.036C67.067 177.964 67.1301 177.94 67.2564 177.964C67.4079 177.964 67.4836 178 67.4836 178.072C67.4079 178.72 67.3321 179.512 67.2564 180.448C67.1806 181.36 67.1427 182.212 67.1427 183.004C67.1427 183.364 66.9534 183.544 66.5746 183.544H49.0758C49.0253 183.544 49 183.472 49 183.328C49 183.184 49.0253 183.112 49.0758 183.112C49.9848 183.112 50.6666 183.052 51.1211 182.932C51.6008 182.812 51.9165 182.572 52.068 182.212C52.2195 181.852 52.2952 181.324 52.2952 180.628V163.96C52.2952 163.264 52.2195 162.748 52.068 162.412C51.9165 162.052 51.6008 161.812 51.1211 161.692C50.6666 161.548 49.9848 161.476 49.0758 161.476C49.0253 161.476 49 161.404 49 161.26C49 161.116 49.0253 161.044 49.0758 161.044C49.6818 161.044 50.3635 161.068 51.1211 161.116C51.8786 161.14 52.674 161.152 53.5073 161.152C54.3911 161.152 55.2117 161.14 55.9692 161.116C56.7268 161.068 57.3959 161.044 57.9767 161.044C58.0524 161.044 58.0903 161.116 58.0903 161.26C58.0903 161.404 58.0524 161.476 57.9767 161.476C57.0676 161.476 56.3732 161.548 55.8935 161.692C55.439 161.812 55.136 162.052 54.9845 162.412C54.8329 162.772 54.7572 163.3 54.7572 163.996Z" fill="#8A8A88"/>
<defs>
<linearGradient id="paint0_linear_43_2" x1="460.827" y1="62.4147" x2="580.081" y2="62.4147" gradientUnits="userSpaceOnUse">
<stop stop-color="#A9831C"/>
<stop offset="0.33" stop-color="#C9A84C"/>
<stop offset="0.66" stop-color="#937115"/>
<stop offset="1" stop-color="#A9831C"/>
</linearGradient>
<linearGradient id="paint1_linear_43_2" x1="459.841" y1="62.4361" x2="576.954" y2="62.4361" gradientUnits="userSpaceOnUse">
<stop stop-color="#A9831C"/>
<stop offset="0.33" stop-color="#C9A84C"/>
<stop offset="0.66" stop-color="#937115"/>
<stop offset="1" stop-color="#A9831C"/>
</linearGradient>
<linearGradient id="paint2_linear_43_2" x1="579.212" y1="62.4636" x2="705.42" y2="62.4636" gradientUnits="userSpaceOnUse">
<stop stop-color="#A9831C"/>
<stop offset="0.33" stop-color="#C9A84C"/>
<stop offset="0.66" stop-color="#937115"/>
<stop offset="1" stop-color="#A9831C"/>
</linearGradient>
</defs>
</svg>
