<svg width="700" height="189" viewBox="0 0 700 189" fill="none" xmlns="http://www.w3.org/2000/svg">
<path d="M324.38 124.057H222.247C221.785 124.057 221.554 123.686 221.554 122.942C221.554 122.199 221.785 121.827 222.247 121.827C227.022 121.827 230.565 121.517 232.876 120.898C235.187 120.278 236.727 119.039 237.498 117.181C238.268 115.322 238.653 112.597 238.653 109.004V22.9573C238.653 19.3643 238.268 16.7005 237.498 14.9659C236.727 13.1075 235.187 11.8685 232.876 11.249C230.565 10.5056 227.022 10.1339 222.247 10.1339C221.785 10.1339 221.554 9.76226 221.554 9.01888C221.554 8.2755 221.785 7.90381 222.247 7.90381H320.221C321.762 7.90381 322.532 8.46134 322.532 9.57641L322.994 34.2939C322.994 34.5416 322.609 34.7275 321.839 34.8514C321.068 34.9753 320.529 34.8514 320.221 34.4797C317.756 27.1698 313.597 21.8422 307.743 18.497C301.889 15.0279 294.187 13.2933 284.636 13.2933H277.704C274.623 13.2933 272.081 13.665 270.079 14.4084C268.076 15.0279 266.613 16.081 265.688 17.5678C264.764 19.0545 264.302 20.913 264.302 23.1431V108.26C264.302 110.614 264.687 112.597 265.457 114.207C266.227 115.818 267.383 116.995 268.923 117.738C270.464 118.482 272.466 118.854 274.931 118.854H282.556C294.572 118.854 304.2 116.871 311.44 112.906C318.681 108.942 323.995 102.809 327.384 94.5078C327.538 94.1361 328 94.0741 328.771 94.3219C329.695 94.4458 330.157 94.6317 330.157 94.8795C329.541 98.4725 329.002 102.747 328.54 107.703C328.077 112.535 327.846 117.057 327.846 121.27C327.846 123.128 326.691 124.057 324.38 124.057ZM311.44 82.6137C311.44 77.5339 309.053 73.5692 304.277 70.7196C299.502 67.746 292.493 66.2593 283.25 66.2593H252.055V61.0556H283.481C292.57 61.0556 299.425 59.8166 304.046 57.3387C308.822 54.7369 311.209 51.2677 311.209 46.9313C311.209 46.5597 311.594 46.3738 312.365 46.3738C313.289 46.3738 313.751 46.5597 313.751 46.9313C313.751 51.0199 313.674 54.2413 313.52 56.5953C313.52 58.8254 313.52 61.1795 313.52 63.6574C313.52 66.7549 313.597 69.7903 313.751 72.7639C314.059 75.7374 314.213 79.0207 314.213 82.6137C314.213 82.8615 313.751 82.9854 312.827 82.9854C311.903 82.9854 311.44 82.8615 311.44 82.6137Z" fill="white"/>
<path d="M213.919 124.057H111.786C111.324 124.057 111.093 123.686 111.093 122.942C111.093 122.199 111.324 121.827 111.786 121.827C116.561 121.827 120.105 121.517 122.415 120.898C124.726 120.278 126.266 119.039 127.037 117.181C127.807 115.322 128.192 112.597 128.192 109.004V22.9573C128.192 19.3643 127.807 16.7005 127.037 14.9659C126.266 13.1075 124.726 11.8685 122.415 11.249C120.105 10.5056 116.561 10.1339 111.786 10.1339C111.324 10.1339 111.093 9.76226 111.093 9.01888C111.093 8.2755 111.324 7.90381 111.786 7.90381H209.76C211.301 7.90381 212.071 8.46134 212.071 9.57641L212.533 34.2939C212.533 34.5416 212.148 34.7275 211.378 34.8514C210.607 34.9753 210.068 34.8514 209.76 34.4797C207.295 27.1698 203.136 21.8422 197.282 18.497C191.429 15.0279 183.726 13.2933 174.175 13.2933H167.243C164.162 13.2933 161.62 13.665 159.618 14.4084C157.615 15.0279 156.152 16.081 155.227 17.5678C154.303 19.0545 153.841 20.913 153.841 23.1431V108.26C153.841 110.614 154.226 112.597 154.996 114.207C155.767 115.818 156.922 116.995 158.462 117.738C160.003 118.482 162.005 118.854 164.47 118.854H172.096C184.111 118.854 193.739 116.871 200.979 112.906C208.22 108.942 213.534 102.809 216.923 94.5078C217.077 94.1361 217.54 94.0741 218.31 94.3219C219.234 94.4458 219.696 94.6317 219.696 94.8795C219.08 98.4725 218.541 102.747 218.079 107.703C217.617 112.535 217.385 117.057 217.385 121.27C217.385 123.128 216.23 124.057 213.919 124.057ZM200.979 82.6137C200.979 77.5339 198.592 73.5692 193.816 70.7196C189.041 67.746 182.032 66.2593 172.789 66.2593H141.594V61.0556H173.02C182.109 61.0556 188.964 59.8166 193.585 57.3387C198.361 54.7369 200.748 51.2677 200.748 46.9313C200.748 46.5597 201.133 46.3738 201.904 46.3738C202.828 46.3738 203.29 46.5597 203.29 46.9313C203.29 51.0199 203.213 54.2413 203.059 56.5953C203.059 58.8254 203.059 61.1795 203.059 63.6574C203.059 66.7549 203.136 69.7903 203.29 72.7639C203.598 75.7374 203.752 79.0207 203.752 82.6137C203.752 82.8615 203.29 82.9854 202.366 82.9854C201.442 82.9854 200.979 82.8615 200.979 82.6137Z" fill="white"/>
<path d="M40.2691 23.1431V108.26C40.2691 111.234 40.5594 113.526 41.1398 115.137C41.7203 116.623 42.8812 117.615 44.6226 118.11C46.509 118.606 49.1936 118.854 52.6764 118.854H60.0772C71.3961 118.854 81.1913 116.252 89.4628 111.048C97.7343 105.844 103.249 98.9061 106.006 90.2333C106.151 89.8616 106.586 89.7377 107.312 89.8616C108.037 89.9855 108.4 90.2333 108.4 90.605C107.965 94.6936 107.529 99.6495 107.094 105.473C106.659 111.172 106.441 116.438 106.441 121.27C106.441 123.128 105.353 124.057 103.176 124.057H0.435342C0.145114 124.057 0 123.686 0 122.942C0 122.199 0.145114 121.827 0.435342 121.827C4.93388 121.827 8.2715 121.517 10.4482 120.898C12.6249 120.278 14.0761 119.039 14.8016 117.181C15.6723 115.322 16.1077 112.597 16.1077 109.004V22.9573C16.1077 19.3643 15.6723 16.7005 14.8016 14.9659C14.0761 13.1075 12.6249 11.8685 10.4482 11.249C8.2715 10.5056 4.93388 10.1339 0.435342 10.1339C0.145114 10.1339 0 9.76226 0 9.01888C0 8.2755 0.145114 7.90381 0.435342 7.90381C3.91808 7.90381 8.05383 8.0277 12.8426 8.27549C17.7765 8.39939 22.8555 8.46134 28.0796 8.46134C33.5939 8.46134 38.6729 8.39939 43.3165 8.27549C47.9602 8.0277 52.0959 7.90381 55.7238 7.90381C56.1591 7.90381 56.3768 8.2755 56.3768 9.01888C56.3768 9.76226 56.1591 10.1339 55.7238 10.1339C51.3704 10.1339 48.0327 10.5056 45.7109 11.249C43.5342 11.8685 42.0831 13.1075 41.3575 14.9659C40.6319 16.8244 40.2691 19.5501 40.2691 23.1431Z" fill="white"/>
<path d="M427.219 65.7724C427.219 65.312 427.067 65.0812 426.761 65.0812L402.834 65.1964L402.725 65.2071C402.491 65.2577 402.373 65.485 402.373 65.8877C402.45 66.3486 402.605 66.5789 402.834 66.5789C406.343 66.5791 408.557 67.3474 409.473 68.8831C410.466 70.4195 410.961 72.4183 410.961 74.8766L410.932 76.2537C410.799 79.4549 410.198 82.5689 409.13 85.5936C408.557 87.2849 407.846 88.8873 407.005 90.4055C403.494 87.7211 400.111 84.8556 396.86 81.8051L395.39 80.4065C391.574 76.6425 388.176 72.7624 385.199 68.7679C384.213 67.444 383.301 66.1134 382.457 64.7811C383.06 64.3757 383.668 63.9751 384.284 63.5835C386.459 62.1431 388.549 60.6812 390.553 59.1976L392.528 57.7079C395.2 55.6338 397.336 53.4046 398.939 51.0231C400.408 48.8725 401.236 46.399 401.42 43.6016L401.457 42.3825C401.457 39.3866 400.771 37.0806 399.397 35.4674C398.195 33.9887 396.73 32.9209 395.002 32.2657L394.246 32.0111C392.442 31.4063 390.639 31.066 388.836 30.9903L388.061 30.9743C384.245 30.9745 380.926 31.8192 378.102 33.5088C375.278 35.1219 373.063 37.3105 371.46 40.0757C369.857 42.8411 369.056 45.9151 369.056 49.295C369.056 51.2155 369.361 53.2144 369.972 55.2885C370.582 57.3622 371.384 59.5129 372.376 61.7402C373.339 63.679 374.464 65.6481 375.743 67.6506C373.335 69.3294 371.028 71.0828 368.827 72.918C366.232 75.1454 364.095 77.6032 362.416 80.2913L362.11 80.8004C360.634 83.3706 359.898 86.3128 359.898 89.6259L359.93 90.6868C360.088 93.1572 360.804 95.5681 362.073 97.9208C363.6 100.533 365.926 102.685 369.056 104.375C372.262 105.988 376.308 106.795 381.193 106.795C385.849 106.795 389.933 106.065 393.444 104.606C397.032 103.146 400.124 101.227 402.719 98.8452C403.293 98.3019 403.84 97.7418 404.372 97.176C406.475 98.8356 408.324 100.203 409.931 101.265C412.449 102.801 414.51 103.876 416.113 104.49C417.516 105.028 418.686 105.332 419.621 105.399L420.008 105.412H432.373L432.53 105.377C432.626 105.329 432.702 105.232 432.759 105.088L432.831 104.836C432.898 104.432 432.788 104.176 432.504 104.067L432.373 104.03C429.769 103.492 426.638 102.335 422.981 100.563L421.381 99.7668C417.346 97.6295 413.117 94.9253 408.688 91.6648C408.876 91.3707 409.065 91.0768 409.244 90.7779C411.076 87.782 412.564 84.785 413.709 81.789C414.625 79.4847 415.391 77.3102 416.006 75.265L416.571 73.2636C416.914 72.1114 417.281 71.11 417.667 70.2602L418.061 69.4618C418.596 68.4631 419.511 67.7311 420.809 67.2701C422.106 66.7327 424.091 66.4637 426.761 66.4637C427.067 66.4637 427.219 66.2334 427.219 65.7724ZM367.224 85.5936C367.224 82.1368 368.025 79.1397 369.628 76.6047C371.308 73.9928 373.446 71.6511 376.041 69.577C376.249 69.4046 376.462 69.2383 376.672 69.0679C377.575 70.4132 378.546 71.7749 379.59 73.1484C382.643 76.9892 386.003 80.7159 389.667 84.3263C393.33 87.9361 397.069 91.2771 400.885 94.3494C401.583 94.9324 402.264 95.4853 402.919 96.0159C401.024 98.0257 398.824 99.7036 396.306 101.034C393.253 102.57 389.931 103.338 386.344 103.338V100.595C389.519 100.595 392.41 99.9198 395.057 98.5933C396.396 97.8844 397.631 97.07 398.766 96.1525C395.02 93.1135 391.35 89.8246 387.758 86.2848C384.019 82.6007 380.586 78.792 377.46 74.8605L377.442 74.839L377.423 74.8149C376.985 74.238 376.561 73.6605 376.145 73.0868C374.484 74.6208 373.083 76.2862 371.928 78.0783L371.476 78.8606C370.482 80.7353 369.95 82.9551 369.95 85.5936L369.982 86.6117C370.129 88.9511 370.79 91.1229 371.966 93.1625C373.383 95.4157 375.311 97.2346 377.809 98.6255C380.264 99.9171 383.088 100.595 386.344 100.595V103.338L384.989 103.301C382.313 103.157 379.851 102.581 377.604 101.573L376.499 101.034C373.599 99.4209 371.308 97.2685 369.628 94.5798C368.226 92.16 367.437 89.5638 367.262 86.7912L367.224 85.5936ZM391.977 44.2259C391.977 41.6222 391.381 39.8735 390.447 38.6878L390.029 38.2136L390.007 38.1949L389.989 38.1734C388.738 36.8622 387.078 36.1372 384.742 36.1372C382.438 36.1373 380.991 36.8114 380.016 37.876C379.136 38.9188 378.424 40.9182 378.424 44.4563L378.459 45.812C378.624 48.9826 379.372 52.2473 380.735 55.6181C381.235 56.8317 381.804 58.0427 382.431 59.2565C382.922 58.8514 383.412 58.4502 383.89 58.0401L383.903 58.0267L383.919 58.0133C386.415 55.9314 388.404 53.7434 389.917 51.4599C391.272 49.414 391.977 47.0344 391.977 44.2259ZM394.663 45.4449C394.48 48.2512 393.654 50.7635 392.185 52.9817L391.53 53.9248C389.952 56.1094 387.995 58.1779 385.657 60.1273C384.359 61.2417 383.012 62.3361 381.619 63.412C380.287 61.1757 379.149 58.931 378.216 56.671C376.747 53.0411 375.919 49.469 375.735 45.9567L375.698 44.4563C375.698 40.6153 376.461 37.8103 377.988 36.0434C379.59 34.2771 381.842 33.3938 384.742 33.3936C387.718 33.3936 390.124 34.3534 391.956 36.2738C393.788 38.1175 394.703 40.769 394.703 44.2259L394.663 45.4449ZM404.173 43.0899C404.059 46.5994 403.085 49.7859 401.194 52.561L401.196 52.5637C399.405 55.2253 397.053 57.6574 394.192 59.8781L394.184 59.8861C391.677 61.8159 389.031 63.7046 386.254 65.5581C386.618 66.079 386.992 66.6018 387.38 67.1228C390.268 70.998 393.574 74.7738 397.299 78.448C400.102 81.1577 403.006 83.7216 406.01 86.1455C406.199 85.6735 406.385 85.1954 406.55 84.7067L406.955 83.4823C407.809 80.6954 408.235 77.8297 408.235 74.8766C408.235 73.0355 407.908 71.7115 407.41 70.7639L407.186 70.3808L407.16 70.3379L407.136 70.295C407.099 70.2333 406.928 69.9887 406.236 69.7485C405.699 69.5623 404.946 69.4162 403.933 69.3546L402.834 69.3225C401.615 69.3225 400.743 68.6307 400.278 67.9292C399.986 67.4889 399.835 67.031 399.751 66.6673L399.684 66.3404L399.647 66.1154V65.8877C399.647 65.4391 399.707 64.6235 400.219 63.8487C400.86 62.8811 401.877 62.4564 402.82 62.4528L426.748 62.3376H426.761C427.708 62.3376 428.729 62.7617 429.373 63.7335C429.886 64.5085 429.945 65.3237 429.945 65.7724C429.945 66.2211 429.887 67.0386 429.373 67.814C428.729 68.7854 427.708 69.2073 426.761 69.2073C424.184 69.2073 422.638 69.48 421.847 69.8074L421.781 69.8342L421.717 69.8583C420.91 70.1448 420.606 70.4894 420.46 70.7612C420.041 71.5451 419.607 72.626 419.182 74.0513C418.463 76.767 417.481 79.689 416.241 82.8098C415.199 85.5293 413.892 88.2311 412.332 90.9199C415.93 93.4606 419.369 95.5982 422.651 97.3368C426.884 99.5018 430.288 100.799 432.919 101.342C433.661 101.494 434.575 101.935 435.139 102.928C435.651 103.829 435.611 104.736 435.52 105.286L435.512 105.332L435.504 105.375C435.426 105.768 435.251 106.399 434.788 106.982C434.235 107.678 433.377 108.155 432.373 108.156H420.008C418.897 108.156 417.684 107.907 416.422 107.505L415.144 107.054C413.316 106.354 411.093 105.18 408.518 103.609L408.478 103.585L408.435 103.558C407.269 102.788 405.993 101.873 404.604 100.822L404.569 100.857L404.554 100.871C401.696 103.492 398.323 105.579 394.466 107.148L394.464 107.146C390.562 108.764 386.12 109.538 381.193 109.538C376.353 109.538 372.098 108.793 368.539 107.167L367.837 106.829L367.767 106.792C364.495 105.025 361.888 102.738 360.074 99.8901L359.722 99.314L359.698 99.2712L359.677 99.231C358.027 96.1721 357.172 92.9599 357.172 89.6259C357.172 85.6357 358.126 82.0054 360.108 78.8311C361.946 75.8891 364.271 73.2243 367.059 70.8309L367.073 70.8175L367.089 70.8041C368.699 69.4611 370.367 68.1655 372.083 66.9058C371.592 66.0734 371.124 65.2472 370.685 64.4221L369.937 62.9673L369.913 62.9164L369.889 62.8628C368.853 60.5376 368.007 58.2704 367.357 56.0655C366.682 53.7703 366.33 51.5099 366.33 49.295C366.33 45.4575 367.247 41.9019 369.106 38.6932C370.957 35.501 373.522 32.9684 376.755 31.1216C380.053 29.1605 383.855 28.2309 388.061 28.2307C390.431 28.2307 392.784 28.6274 395.108 29.4069C397.641 30.1798 399.774 31.6211 401.465 33.683C401.473 33.6917 401.482 33.7011 401.489 33.7098C401.495 33.7169 401.502 33.7241 401.508 33.7312C403.421 36.0065 404.183 39.0208 404.183 42.3825L404.173 43.0899Z" fill="#8A8A88"/>
<path d="M455.902 119.889C455.902 119.456 455.929 118.83 456.133 118.222C456.313 117.686 457.071 116.074 459.033 116.074L460.326 116.058C463.208 115.995 465.157 115.718 466.327 115.331L466.351 115.323L466.375 115.317C467.479 114.975 468.012 114.412 468.302 113.546L468.327 113.47L468.357 113.395C468.87 112.119 469.224 109.949 469.224 106.655V24.953C469.224 22.0347 468.995 20.0331 468.652 18.7844L468.498 18.2943L468.489 18.2674L468.479 18.2378C468.224 17.4804 467.786 16.9574 466.942 16.6088L466.554 16.4688L466.451 16.4365L466.351 16.3961C465.074 15.8887 462.837 15.5345 459.388 15.5345C458.814 15.5344 458.187 15.3853 457.615 15.0067C457.061 14.6396 456.716 14.1619 456.507 13.7466C456.128 12.994 456.081 12.2129 456.081 11.7191C456.081 11.2254 456.128 10.444 456.507 9.69165C456.716 9.27677 457.062 8.80101 457.615 8.43424C458.187 8.05569 458.814 7.90388 459.388 7.90381C462.531 7.90381 466.02 8.02184 469.847 8.25922C473.584 8.37442 477.559 8.43424 481.77 8.43424V11.1914L478.616 11.1806C475.507 11.1586 472.532 11.1019 469.69 11.0137C465.901 10.7784 462.467 10.661 459.388 10.661C459.033 10.6612 458.857 11.014 458.857 11.7191L458.889 12.1823C458.956 12.5795 459.122 12.7771 459.388 12.7773C462.94 12.7773 465.605 13.1324 467.381 13.8382C469.275 14.4263 470.521 15.6011 471.113 17.3654C471.705 19.0121 471.999 21.542 471.999 24.953V106.655L471.983 107.894C471.906 110.699 471.556 112.874 470.934 114.418C470.342 116.182 469.099 117.36 467.205 117.948C465.428 118.536 462.704 118.831 459.033 118.831L458.949 118.847C458.768 118.925 458.678 119.273 458.678 119.889L458.699 120.352C458.744 120.749 458.855 120.947 459.033 120.947C460.573 120.947 462.216 120.934 463.963 120.904L469.514 120.77C473.422 120.652 477.508 120.595 481.77 120.595L485.066 120.605C488.286 120.627 491.273 120.681 494.027 120.77C496.868 120.858 499.51 120.914 501.952 120.937L504.329 120.947C504.743 120.947 504.977 120.677 505.028 120.137L505.039 119.889C505.039 119.271 504.857 118.924 504.494 118.847L504.329 118.831C501.117 118.831 498.629 118.606 496.867 118.155L496.157 117.948C494.381 117.36 493.196 116.182 492.604 114.418C492.086 112.874 491.796 110.699 491.731 107.894L491.718 106.655V68.2409L495.688 64.2344L518.895 95.3601C523.158 101.124 526.592 105.713 529.197 109.124C531.802 112.536 533.875 115.125 535.415 116.89C537.072 118.653 538.492 119.829 539.676 120.417C540.712 120.932 541.885 121.222 543.194 121.287L543.763 121.3C544.236 121.3 544.754 121.286 545.316 121.257L547.137 121.125C548.114 121.037 549.225 120.98 550.468 120.958L551.756 120.947H571.65L571.775 120.931C571.969 120.876 572.093 120.683 572.149 120.352L572.184 119.889C572.184 119.272 572.047 118.924 571.775 118.847L571.65 118.831C569.756 118.831 567.979 118.711 566.322 118.476C564.975 118.27 563.582 117.75 562.145 116.914L561.524 116.537C559.866 115.478 557.914 113.771 555.664 111.418C553.533 108.948 550.868 105.654 547.671 101.537C544.474 97.3018 540.564 91.9486 535.946 85.4785L509.582 50.217L529.728 29.8938C534.724 25.0413 540.242 21.1216 546.278 18.1301L547.492 17.5431C554.005 14.3669 559.985 12.7774 565.433 12.7773C565.699 12.7773 565.865 12.5796 565.931 12.1823L565.966 11.7191C565.966 11.0137 565.788 10.661 565.433 10.661C562.354 10.661 559.156 10.7784 555.84 11.0137C552.525 11.1313 548.024 11.1914 542.34 11.1914V8.43424C547.994 8.43424 552.448 8.37448 555.713 8.25922C559.064 8.02294 562.304 7.90382 565.433 7.90381C566.007 7.90381 566.633 8.0556 567.205 8.43424C567.759 8.80097 568.105 9.2767 568.314 9.69165C568.692 10.444 568.742 11.2254 568.742 11.7191L568.728 12.1392C568.697 12.6023 568.598 13.1823 568.314 13.7466C568.105 14.1618 567.759 14.6397 567.205 15.0067C566.634 15.3851 566.007 15.5345 565.433 15.5345C560.526 15.5345 554.968 16.9681 548.715 20.0175L548.696 20.0256L548.679 20.0364C542.455 22.9596 536.785 26.898 531.669 31.8674L513.227 50.4701L538.174 83.8361L538.193 83.8603L538.209 83.8845C542.82 90.3434 546.714 95.6753 549.891 99.8836C553.038 103.936 555.647 107.158 557.721 109.566C559.884 111.822 561.646 113.335 563.026 114.216C564.44 115.119 565.677 115.588 566.744 115.751H566.742C567.868 115.909 569.067 116.011 570.341 116.052L571.65 116.074C572.225 116.074 572.851 116.223 573.423 116.602C573.977 116.969 574.322 117.446 574.531 117.862C574.91 118.614 574.96 119.395 574.96 119.889L574.946 120.306C574.915 120.77 574.816 121.352 574.531 121.917C574.322 122.332 573.976 122.807 573.423 123.174C572.851 123.553 572.225 123.704 571.65 123.704H551.756C550.036 123.704 548.585 123.761 547.389 123.869C546.032 123.991 544.819 124.057 543.763 124.057C541.863 124.057 540.062 123.692 538.434 122.883C537.007 122.174 535.533 120.965 534.03 119.442L533.385 118.769L533.349 118.734L533.317 118.694C532.118 117.319 530.627 115.49 528.853 113.214L526.985 110.791C524.368 107.363 520.923 102.764 516.656 96.9945V96.9918L495.39 68.4671L494.493 69.3718V106.655L494.507 107.848C494.56 110.136 494.769 111.827 495.076 113.002L495.238 113.546C495.515 114.369 495.958 114.88 496.699 115.204L497.035 115.331C498.205 115.718 500.154 115.995 503.036 116.058L504.329 116.074C505.374 116.074 506.474 116.529 507.17 117.565C507.592 118.195 507.744 118.865 507.793 119.402L507.815 119.889L507.793 120.374C507.744 120.911 507.593 121.582 507.17 122.213C506.474 123.249 505.374 123.704 504.329 123.704C502.772 123.704 501.128 123.688 499.396 123.659L493.94 123.527H493.937C490.302 123.41 486.247 123.352 481.77 123.352C477.533 123.352 473.475 123.41 469.598 123.527C465.669 123.645 462.146 123.704 459.033 123.704C457.072 123.704 456.313 122.093 456.133 121.556C455.929 120.949 455.902 120.323 455.902 119.889ZM516.119 11.7191C516.119 11.2254 516.166 10.444 516.545 9.69165C516.754 9.27681 517.1 8.80104 517.653 8.43424C518.225 8.05579 518.852 7.90396 519.426 7.90381C522.668 7.90381 525.966 8.023 529.319 8.25922C532.585 8.37463 536.921 8.43423 542.34 8.43424V11.1914L538.456 11.1806C535.998 11.1659 533.808 11.1359 531.883 11.0918L529.197 11.0137C525.881 10.7784 522.623 10.661 519.426 10.661C519.072 10.6615 518.895 11.0143 518.895 11.7191L518.927 12.1823C518.994 12.5793 519.16 12.7769 519.426 12.7773C525.347 12.7773 528.841 14.3668 529.907 17.5431C531.091 20.7193 529.491 24.4831 525.11 28.8356L491.718 62.7804V25.3057C491.718 22.3211 491.945 19.9671 492.398 18.2432L492.604 17.5431C493.226 15.9991 494.256 14.8597 495.694 14.1263L496.336 13.8382C497.891 13.2206 500.125 12.8733 503.039 12.7961L504.329 12.7773C504.684 12.7769 504.86 12.4245 504.86 11.7191C504.86 11.1021 504.726 10.7545 504.454 10.6771L504.329 10.661C501.369 10.661 497.992 10.7784 494.203 11.0137C490.414 11.1313 486.27 11.1914 481.77 11.1914V8.43424C486.217 8.43423 490.307 8.37429 494.043 8.25922C497.87 8.02184 501.301 7.90381 504.329 7.90381L504.768 7.93343C505.213 7.99361 505.673 8.15043 506.102 8.43424C506.655 8.80103 507.001 9.27679 507.21 9.69165C507.589 10.444 507.636 11.2254 507.636 11.7191C507.636 12.2129 507.589 12.994 507.21 13.7466C507.001 14.1619 506.656 14.6396 506.102 15.0067C505.53 15.3852 504.903 15.5343 504.329 15.5345C500.88 15.5345 498.643 15.8888 497.366 16.3961C496.321 16.8114 495.644 17.4705 495.214 18.4909C494.779 19.8382 494.493 22.0493 494.493 25.3057V56.0141L523.126 26.9077L523.147 26.8862C527.145 22.915 527.799 20.3611 527.397 18.8005L527.305 18.5016L527.273 18.4155C526.827 17.0861 525.158 15.5345 519.426 15.5345C518.852 15.5343 518.225 15.3852 517.653 15.0067C517.099 14.6396 516.754 14.1618 516.545 13.7466C516.166 12.9941 516.119 12.2128 516.119 11.7191Z" fill="url(#paint0_linear_43_3)"/>
<path d="M473.38 106.939V25.7105C473.38 22.3187 473.083 19.8041 472.488 18.1667C471.894 16.4123 470.645 15.2427 468.742 14.6579C466.958 13.9561 464.282 13.6053 460.714 13.6053C460.357 13.6053 460.178 13.2544 460.178 12.5526C460.178 11.8509 460.357 11.5 460.714 11.5C463.806 11.5 467.255 11.617 471.061 11.8509C474.867 11.9678 478.911 12.0263 483.192 12.0263C487.712 12.0263 491.875 11.9678 495.681 11.8509C499.487 11.617 502.876 11.5 505.85 11.5C506.207 11.5 506.385 11.8509 506.385 12.5526C506.385 13.2544 506.207 13.6053 505.85 13.6053C502.282 13.6053 499.606 13.9561 497.822 14.6579C496.038 15.3596 494.789 16.5877 494.075 18.3421C493.48 20.0965 493.183 22.6696 493.183 26.0614V106.939C493.183 110.33 493.48 112.904 494.075 114.658C494.67 116.412 495.859 117.582 497.643 118.167C499.427 118.751 502.163 118.044 505.85 118.044C506.326 118.044 506.563 119.395 506.563 120.096C506.563 120.798 506.326 121.149 505.85 121.149C502.757 121.149 499.308 121.091 495.502 120.974C491.815 120.857 487.712 120.798 483.192 120.798C478.911 120.798 474.808 120.857 470.883 120.974C466.958 121.091 463.449 121.149 460.357 121.149C460.119 121.149 460 120.798 460 120.096C460 119.395 460.119 119.044 460.357 119.044C464.044 119.044 466.779 118.751 468.563 118.167C470.466 117.582 471.715 116.412 472.31 114.658C473.023 112.904 473.38 110.33 473.38 106.939ZM520.479 95.7105L496.038 63.2544L510.31 49.7456L537.606 85.886C542.244 92.3187 546.169 97.6403 549.38 101.851C552.592 105.944 555.268 109.219 557.408 111.675C559.668 114.015 561.631 115.711 563.296 116.763C564.961 117.816 566.567 117.459 568.113 117.693C569.778 117.927 571.562 119.044 573.465 119.044C573.822 119.044 574 119.395 574 120.096C574 120.798 573.822 121.149 573.465 121.149C568.232 121.149 564.009 121.149 560.798 121.149C557.587 121.149 555.149 121.149 553.484 121.149C551.7 121.149 550.153 121.208 548.845 121.325C547.537 121.442 546.407 121.5 545.455 121.5C543.909 121.5 542.541 121.208 541.352 120.623C540.163 120.038 538.736 118.868 537.07 117.114C535.524 115.36 533.443 112.787 530.826 109.395C528.21 106.003 524.761 101.442 520.479 95.7105ZM480.695 75.886L526.723 29.5702C531.124 25.2427 532.729 21.5 531.54 18.3421C530.469 15.1842 526.961 13.6053 521.014 13.6053C520.657 13.6053 520.479 13.2544 520.479 12.5526C520.479 11.8509 520.657 11.5 521.014 11.5C524.225 11.5 527.496 11.617 530.826 11.8509C534.156 11.9678 538.557 12.0263 544.028 12.0263C549.737 12.0263 554.257 11.9678 557.587 11.8509C560.917 11.617 564.128 11.5 567.221 11.5C567.577 11.5 567.756 11.8509 567.756 12.5526C567.756 13.2544 567.577 13.6053 567.221 13.6053C561.75 13.6053 555.743 15.1842 549.202 18.3421C542.66 21.383 536.714 25.4766 531.361 30.6228L485.512 76.4123L480.695 75.886Z" fill="url(#paint1_linear_43_3)"/>
<path d="M699.983 66.125C699.994 66.5821 700 67.0404 700 67.5C700 100.913 672.913 128 639.5 128C634.911 128 630.441 127.488 626.145 126.52C628.751 126.813 631.426 126.961 634.171 126.961C637.304 126.961 640.378 126.764 643.394 126.372C664.679 124.985 682.885 112.312 692.087 94.2764C693.03 92.6511 693.906 90.9775 694.71 89.2539C698.056 82.084 699.806 74.3632 699.983 66.125ZM575.356 77.2979C579.14 94.866 590.552 109.598 605.955 117.855C612.005 121.894 618.823 124.87 626.145 126.52C620.785 125.915 615.721 124.689 610.962 122.824L609.554 122.251L609.529 122.24L609.502 122.227C602.684 119.17 596.724 115.055 591.646 109.881L590.644 108.835L590.619 108.81C585.478 103.166 581.47 96.7086 578.595 89.459L578.583 89.4316L578.575 89.4072C577.114 85.4892 576.042 81.4515 575.356 77.2979ZM637.386 5.06934C644.887 5.42756 652.024 7.17475 658.546 10.0596C652.557 8.07496 646.154 7 639.5 7C628.313 7 617.836 10.036 608.847 15.3291C605.014 17.2817 601.364 19.6204 597.901 22.3506C591.677 27.1386 586.65 33.1838 582.819 40.4854C579.157 47.6919 577.302 56.065 577.254 65.6035C577.348 65.6681 577.408 65.7772 577.405 65.8994V65.916C577.405 65.9274 577.405 65.9452 577.404 65.9678C577.404 66.0128 577.402 66.0792 577.401 66.1641C577.4 66.3344 577.4 66.5795 577.404 66.875C577.412 67.4666 577.436 68.2597 577.504 69.0703C577.535 69.4486 577.551 69.807 577.567 70.1592C577.991 72.8508 578.768 75.4597 579.894 77.9141C582.109 90.6813 588.326 102.075 597.206 110.758C597.647 111.112 598.086 111.458 598.497 111.772C599.072 112.213 599.586 112.596 599.956 112.868C600.141 113.004 600.29 113.112 600.393 113.187C600.444 113.224 600.484 113.252 600.511 113.271L600.541 113.294L603.95 115.566C606.224 116.929 608.595 118.145 611.053 119.2C597.001 111.452 586.445 98.1422 582.355 82.2373C583.344 83.665 584.472 85.0126 585.739 86.2598C591.266 91.6983 598.716 94.8055 606.516 94.9453C607.801 97.7366 609.238 100.352 610.828 102.791C614.539 108.177 618.849 112.366 623.757 115.358C628.47 118.052 633.552 119.483 639.001 119.651L640.098 119.668C646.382 119.668 652.035 117.985 657.057 114.618L658.051 113.923C663.318 110.092 667.448 104.464 670.44 97.043C673.358 90.0857 674.91 81.7086 675.093 71.9111L675.109 69.9326C675.109 58.9202 673.433 49.1038 670.081 40.4854C669.419 38.7837 668.701 37.1548 667.927 35.5977C675.729 35.7355 683.183 38.8448 688.711 44.2852C689.751 45.3087 690.697 46.3996 691.55 47.5469C693.144 52.9196 694 58.6098 694 64.5C694 93.1272 673.783 117.03 646.848 122.715C648.506 122.398 650.099 121.983 652.152 121.386C656.141 120.225 658.175 119.451 661.925 117.756C665.25 116.253 667.196 115.065 670.293 113.013C671.485 112.223 672.874 111.185 674.102 110.236C686.902 99.1434 695 82.768 695 64.5C695 59.5764 694.411 54.7905 693.301 50.208C695.51 54.0152 696.804 58.2941 697.16 62.7373C697.164 62.8531 697.166 62.969 697.169 63.085L697.185 63.084C697.177 62.9684 697.169 62.8527 697.16 62.7373C696.94 56.249 695.636 49.9082 693.246 43.7158C692.806 42.521 692.329 41.3481 691.815 40.1973C696.085 48.3614 698.5 57.6486 698.5 67.5C698.5 77.1404 696.187 86.2403 692.087 94.2764C688.918 99.738 684.967 104.644 680.24 108.985L680.238 108.982C674.233 114.607 667.242 119.036 659.287 122.268L659.268 122.276C654.177 124.296 648.883 125.659 643.394 126.372C642.106 126.456 640.808 126.5 639.5 126.5C632.843 126.5 626.444 125.397 620.475 123.364C624.976 124.433 629.672 125 634.5 125C643.691 125 652.401 122.948 660.202 119.28C657.571 120.413 655.599 121.111 652.348 122.058C648.596 123.149 646.345 123.647 642.465 124.033C638.631 124.415 636.482 124.532 632.592 124.315C629.802 124.16 628.296 124.077 625.556 123.752C623.354 123.491 622.147 123.35 619.918 122.906C619.328 122.789 618.797 122.68 618.295 122.571C619.015 122.849 619.741 123.115 620.475 123.364C615.352 122.148 610.481 120.282 605.955 117.855C605.041 117.245 604.145 116.611 603.267 115.953L600.153 113.877L600.144 113.87C600.143 113.87 600.142 113.869 600.141 113.868C600.139 113.867 600.136 113.865 600.133 113.862C600.126 113.857 600.115 113.85 600.102 113.84C600.074 113.82 600.034 113.791 599.982 113.754C599.879 113.679 599.728 113.569 599.542 113.432C599.169 113.158 598.651 112.773 598.071 112.328C596.915 111.441 595.499 110.309 594.494 109.35C592.913 107.84 592.294 107.207 590.817 105.39C589.781 104.114 589.28 103.394 588.666 102.438C580.132 92.139 575 78.9197 575 64.5C575 53.1665 578.169 42.5733 583.669 33.5576C587.131 28.3719 591.296 23.8954 596.165 20.1455L597.387 19.2031C603.538 14.5641 610.25 11.0686 617.511 8.72656C624.159 6.58197 630.787 5.35945 637.386 5.06934ZM611.053 119.2C611.817 119.621 612.592 120.024 613.376 120.412C613.749 120.569 614.124 120.713 614.481 120.827C616.479 121.466 617.794 121.766 619.831 122.174C616.806 121.407 613.873 120.411 611.053 119.2ZM664.829 35.7002C665.79 37.5171 666.67 39.4502 667.468 41.502L668.052 43.0605C670.871 50.9278 672.304 59.8738 672.304 69.9326C672.304 80.3269 670.784 88.9722 667.854 95.958L667.841 95.9961C665 103.041 661.155 108.197 656.401 111.654C651.629 115.125 646.226 116.862 640.098 116.862C634.723 116.862 629.765 115.555 625.174 112.937C620.672 110.182 616.66 106.301 613.157 101.224C611.859 99.2298 610.664 97.1047 609.573 94.8477C616.654 94.2665 623.33 91.2412 628.392 86.2598C633.871 80.8676 637.024 73.6143 637.216 66.0098L637.235 64.5352C637.427 56.9307 640.58 49.6773 646.059 44.2852C651.109 39.3149 657.767 36.2911 664.829 35.7002ZM634.897 12.6826C642.942 12.9772 649.881 15.4816 655.717 20.1943C660.712 24.1331 664.782 29.2686 667.927 35.5977C667.746 35.5945 667.566 35.5918 667.385 35.5918C666.528 35.5918 665.676 35.6293 664.829 35.7002C661.936 30.2287 658.311 25.8128 653.979 22.3975L653.955 22.3779C648.277 17.7916 641.432 15.4609 633.272 15.4609C623.209 15.4613 615.717 19.2113 610.423 26.666C605.014 34.2832 602.143 45.0698 602.143 59.3379L602.154 60.9268C602.27 68.8292 603.258 76.1236 605.094 82.8232C606.309 87.1842 607.805 91.1897 609.573 94.8477C608.742 94.9159 607.906 94.9531 607.065 94.9531C606.882 94.9531 606.699 94.9486 606.516 94.9453C604.899 91.4343 603.523 87.6449 602.39 83.5771C600.482 76.6196 599.47 69.0825 599.351 60.9678L599.337 59.3379C599.337 45.1912 602.091 34.0214 607.595 25.8281L608.135 25.0439C614 16.7849 622.38 12.6556 633.272 12.6553L634.897 12.6826ZM642.105 7.8252C649.377 7.99327 655.986 9.28116 661.932 11.6875C660.823 11.1105 659.694 10.5674 658.546 10.0596C661.847 11.1536 665.022 12.5237 668.044 14.1436C669.014 14.791 669.964 15.466 670.894 16.167C675.109 18.7432 678.849 21.8218 682.112 25.4033L683.019 26.4199C686.646 30.595 689.579 35.1873 691.815 40.1973C688.729 34.2955 684.673 28.9811 679.859 24.4648C677.159 21.408 674.155 18.6265 670.894 16.167C668.769 14.8689 666.524 13.6981 664.158 12.6553C663.427 12.3148 662.684 11.9922 661.932 11.6875C665.384 13.4845 668.638 15.6106 671.652 18.0234C662.403 12.0004 651.36 8.5 639.5 8.5C606.915 8.5 580.5 34.9152 580.5 67.5C580.5 72.5886 581.144 77.5267 582.355 82.2373C581.405 80.8652 580.584 79.419 579.894 77.9141C579.307 74.5307 579 71.0512 579 67.5C579 45.2733 590.986 25.846 608.847 15.3291C611.474 13.991 614.186 12.8329 616.987 11.8604L618.371 11.3975C625.793 9.0035 633.154 7.80567 640.456 7.80566L642.105 7.8252ZM577.956 75.7432C578.079 76.5813 578.217 77.4144 578.373 78.2422C578.372 78.228 578.371 78.2133 578.37 78.1982C578.351 77.9809 578.317 77.6673 578.26 77.2861C578.194 76.8458 578.096 76.3172 577.956 75.7432ZM696.298 75.0107C696.154 75.8138 695.993 76.6107 695.813 77.4014C695.842 77.2807 695.871 77.1592 695.899 77.0361C696.066 76.3001 696.195 75.6363 696.298 75.0107ZM634.5 4C638.8 4 642.994 4.44993 647.04 5.30273C644.899 5.10125 642.704 5.00001 640.456 5C639.433 5 638.41 5.02431 637.386 5.06934C636.43 5.02367 635.467 5 634.5 5C612.973 5 594.116 16.4328 583.669 33.5576C582.474 35.348 581.362 37.2228 580.334 39.1816L580.317 39.2139C576.373 46.9755 574.446 55.925 574.446 65.9814C574.446 69.8431 574.749 73.6163 575.356 77.2979C574.468 73.1725 574 68.8909 574 64.5C574 31.0868 601.087 4 634.5 4ZM647.04 5.30273C653.665 5.92613 659.774 7.51746 665.342 10.1094H665.339C672.254 13.1638 678.217 17.2797 683.199 22.4609L684.186 23.5127C689.327 29.1559 693.224 35.5595 695.863 42.707C698.619 49.846 700 57.191 700 64.7246C700 65.1931 699.993 65.6598 699.983 66.125C699.481 43.6144 686.686 24.1371 668.044 14.1436C661.77 9.9562 654.67 6.91103 647.04 5.30273ZM671.652 18.0234C674.578 19.9285 677.324 22.0859 679.859 24.4648C686.26 31.7109 690.95 40.5024 693.301 50.208C692.77 49.2924 692.186 48.4036 691.55 47.5469C688.054 35.7657 681.008 25.5119 671.652 18.0234Z" fill="url(#paint2_linear_43_3)"/>
<path d="M649.372 187.94C648.867 187.94 648.463 187.808 648.16 187.544C647.857 187.256 647.705 186.872 647.705 186.392C647.705 185.936 647.857 185.576 648.16 185.312C648.463 185.024 648.867 184.88 649.372 184.88C649.902 184.88 650.306 185.024 650.584 185.312C650.861 185.576 651 185.936 651 186.392C651 186.872 650.861 187.256 650.584 187.544C650.306 187.808 649.902 187.94 649.372 187.94Z" fill="#8A8A88"/>
<path d="M632.571 164.648C633.631 164.648 634.565 164.696 635.373 164.792C636.207 164.888 636.977 165.044 637.684 165.26C638.391 165.452 639.111 165.728 639.843 166.088C640.02 166.184 640.121 166.268 640.146 166.34C640.196 166.388 640.234 166.568 640.259 166.88L640.714 171.164C640.714 171.212 640.651 171.26 640.525 171.308C640.398 171.332 640.31 171.296 640.259 171.2C639.679 169.208 638.744 167.708 637.457 166.7C636.194 165.692 634.528 165.188 632.457 165.188C630.311 165.188 628.429 165.632 626.813 166.52C625.223 167.408 623.973 168.668 623.064 170.3C622.18 171.932 621.738 173.852 621.738 176.06C621.738 177.644 622.016 179.132 622.571 180.524C623.152 181.892 623.947 183.104 624.957 184.16C625.968 185.192 627.116 185.996 628.404 186.572C629.717 187.148 631.106 187.436 632.571 187.436C634.666 187.436 636.358 186.956 637.646 185.996C638.934 185.012 639.906 183.548 640.563 181.604C640.588 181.532 640.663 181.508 640.79 181.532C640.941 181.556 641.017 181.592 641.017 181.64L640.638 185.6C640.613 185.888 640.575 186.068 640.525 186.14C640.474 186.212 640.373 186.296 640.222 186.392C638.909 187.016 637.671 187.436 636.51 187.652C635.348 187.892 634.035 188.012 632.571 188.012C629.894 188.012 627.52 187.52 625.45 186.536C623.405 185.528 621.788 184.136 620.602 182.36C619.44 180.56 618.859 178.484 618.859 176.132C618.859 174.404 619.2 172.844 619.882 171.452C620.564 170.036 621.523 168.824 622.761 167.816C623.998 166.808 625.45 166.028 627.116 165.476C628.783 164.924 630.601 164.648 632.571 164.648Z" fill="#8A8A88"/>
<path d="M591.378 183.62V165.872L592.249 165.944V183.62C592.249 184.868 592.477 185.768 592.931 186.32C593.386 186.848 594.143 187.112 595.204 187.112C595.28 187.112 595.317 187.184 595.317 187.328C595.317 187.472 595.28 187.544 595.204 187.544C594.699 187.544 594.181 187.532 593.651 187.508C593.121 187.484 592.527 187.472 591.871 187.472C591.239 187.472 590.633 187.484 590.053 187.508C589.472 187.532 588.916 187.544 588.386 187.544C588.336 187.544 588.31 187.472 588.31 187.328C588.31 187.184 588.336 187.112 588.386 187.112C589.497 187.112 590.267 186.848 590.697 186.32C591.151 185.768 591.378 184.868 591.378 183.62ZM610.468 187.976C610.468 188.024 610.405 188.048 610.279 188.048C610.152 188.072 610.064 188.072 610.013 188.048L592.59 167.996C591.732 167.012 590.962 166.352 590.28 166.016C589.623 165.656 588.992 165.476 588.386 165.476C588.31 165.476 588.272 165.404 588.272 165.26C588.272 165.116 588.31 165.044 588.386 165.044C588.841 165.044 589.295 165.056 589.75 165.08C590.229 165.104 590.659 165.116 591.037 165.116C591.492 165.116 591.921 165.104 592.325 165.08C592.729 165.056 593.032 165.044 593.234 165.044C593.563 165.044 593.79 165.188 593.916 165.476C594.042 165.74 594.408 166.22 595.014 166.916L610.165 184.592L610.468 187.976ZM610.468 169.004V187.976L609.597 186.86V169.004C609.597 167.756 609.37 166.856 608.915 166.304C608.486 165.752 607.754 165.476 606.718 165.476C606.668 165.476 606.642 165.404 606.642 165.26C606.642 165.116 606.668 165.044 606.718 165.044C607.223 165.044 607.741 165.068 608.271 165.116C608.827 165.14 609.42 165.152 610.051 165.152C610.657 165.152 611.251 165.14 611.832 165.116C612.438 165.068 612.993 165.044 613.498 165.044C613.574 165.044 613.612 165.116 613.612 165.26C613.612 165.404 613.574 165.476 613.498 165.476C612.412 165.476 611.63 165.752 611.15 166.304C610.695 166.856 610.468 167.756 610.468 169.004Z" fill="#8A8A88"/>
<path d="M579.143 184.628C579.143 185.324 579.219 185.852 579.371 186.212C579.522 186.572 579.825 186.812 580.28 186.932C580.759 187.052 581.454 187.112 582.363 187.112C582.438 187.112 582.476 187.184 582.476 187.328C582.476 187.472 582.438 187.544 582.363 187.544C581.757 187.544 581.075 187.532 580.317 187.508C579.585 187.484 578.765 187.472 577.855 187.472C577.022 187.472 576.214 187.484 575.431 187.508C574.674 187.532 573.992 187.544 573.386 187.544C573.31 187.544 573.272 187.472 573.272 187.328C573.272 187.184 573.31 187.112 573.386 187.112C574.295 187.112 574.989 187.052 575.469 186.932C575.949 186.812 576.265 186.572 576.416 186.212C576.568 185.852 576.643 185.324 576.643 184.628V167.96C576.643 167.264 576.568 166.748 576.416 166.412C576.265 166.052 575.949 165.812 575.469 165.692C574.989 165.548 574.295 165.476 573.386 165.476C573.31 165.476 573.272 165.404 573.272 165.26C573.272 165.116 573.31 165.044 573.386 165.044C573.992 165.044 574.674 165.068 575.431 165.116C576.214 165.14 577.022 165.152 577.855 165.152C578.765 165.152 579.598 165.14 580.355 165.116C581.113 165.068 581.782 165.044 582.363 165.044C582.438 165.044 582.476 165.116 582.476 165.26C582.476 165.404 582.438 165.476 582.363 165.476C581.454 165.476 580.759 165.548 580.28 165.692C579.825 165.836 579.522 166.088 579.371 166.448C579.219 166.808 579.143 167.336 579.143 168.032V184.628Z" fill="#8A8A88"/>
<path d="M544.313 169.256C544.313 170.24 544.566 171.092 545.071 171.812C545.601 172.508 546.27 173.12 547.078 173.648C547.886 174.176 548.745 174.704 549.654 175.232C550.588 175.736 551.485 176.276 552.343 176.852C553.227 177.428 553.947 178.112 554.502 178.904C555.083 179.696 555.373 180.668 555.373 181.82C555.373 182.972 555.07 184.016 554.464 184.952C553.858 185.864 552.974 186.596 551.813 187.148C550.677 187.7 549.263 187.976 547.571 187.976C546.965 187.976 546.359 187.928 545.753 187.832C545.172 187.76 544.579 187.628 543.973 187.436C543.392 187.244 542.811 187.004 542.23 186.716C542.104 186.644 542.016 186.56 541.965 186.464C541.94 186.344 541.915 186.2 541.889 186.032L541.397 181.136C541.372 181.016 541.422 180.956 541.548 180.956C541.7 180.932 541.788 180.968 541.814 181.064C541.99 181.784 542.243 182.516 542.571 183.26C542.899 184.004 543.329 184.688 543.859 185.312C544.389 185.936 545.033 186.44 545.791 186.824C546.548 187.208 547.432 187.4 548.442 187.4C549.174 187.4 549.881 187.268 550.563 187.004C551.27 186.74 551.838 186.308 552.267 185.708C552.722 185.108 552.949 184.292 552.949 183.26C552.949 182.084 552.671 181.112 552.116 180.344C551.586 179.552 550.904 178.868 550.071 178.292C549.237 177.716 548.354 177.176 547.419 176.672C546.535 176.144 545.677 175.604 544.844 175.052C544.036 174.5 543.367 173.852 542.836 173.108C542.331 172.34 542.079 171.392 542.079 170.264C542.079 168.992 542.42 167.948 543.101 167.132C543.783 166.292 544.667 165.668 545.753 165.26C546.839 164.852 547.962 164.648 549.124 164.648C549.831 164.648 550.563 164.72 551.321 164.864C552.078 164.984 552.823 165.2 553.555 165.512C553.757 165.584 553.896 165.68 553.972 165.8C554.073 165.896 554.123 166.004 554.123 166.124L554.388 170.228C554.388 170.324 554.325 170.384 554.199 170.408C554.073 170.408 553.984 170.36 553.934 170.264C553.883 169.784 553.745 169.256 553.517 168.68C553.29 168.08 552.962 167.516 552.533 166.988C552.103 166.46 551.56 166.028 550.904 165.692C550.247 165.356 549.452 165.188 548.518 165.188C547.533 165.188 546.725 165.392 546.094 165.8C545.488 166.184 545.033 166.688 544.73 167.312C544.452 167.912 544.313 168.56 544.313 169.256Z" fill="#8A8A88"/>
<path d="M533.325 187.544H517.455C517.404 187.544 517.379 187.472 517.379 187.328C517.379 187.184 517.404 187.112 517.455 187.112C518.389 187.112 519.083 187.052 519.538 186.932C519.992 186.812 520.295 186.572 520.447 186.212C520.624 185.852 520.712 185.324 520.712 184.628V167.96C520.712 167.264 520.624 166.748 520.447 166.412C520.295 166.052 519.992 165.812 519.538 165.692C519.083 165.548 518.389 165.476 517.455 165.476C517.404 165.476 517.379 165.404 517.379 165.26C517.379 165.116 517.404 165.044 517.455 165.044H532.681C532.908 165.044 533.022 165.152 533.022 165.368L533.098 169.796C533.098 169.868 533.022 169.916 532.87 169.94C532.744 169.94 532.681 169.904 532.681 169.832C532.605 168.536 532.189 167.54 531.431 166.844C530.699 166.148 529.739 165.8 528.552 165.8H526.242C525.383 165.8 524.727 165.86 524.272 165.98C523.843 166.1 523.54 166.328 523.363 166.664C523.212 167 523.136 167.492 523.136 168.14V184.484C523.136 185.108 523.212 185.588 523.363 185.924C523.54 186.26 523.83 186.488 524.235 186.608C524.664 186.728 525.295 186.788 526.128 186.788H529.158C530.37 186.788 531.38 186.38 532.189 185.564C533.022 184.724 533.565 183.596 533.817 182.18C533.817 182.108 533.893 182.084 534.044 182.108C534.196 182.132 534.272 182.18 534.272 182.252C534.171 182.876 534.082 183.632 534.007 184.52C533.956 185.408 533.931 186.236 533.931 187.004C533.931 187.364 533.729 187.544 533.325 187.544ZM531.204 179.156C531.204 178.1 530.926 177.344 530.37 176.888C529.84 176.432 528.944 176.204 527.681 176.204H522V175.448H527.795C529.007 175.448 529.865 175.256 530.37 174.872C530.901 174.464 531.166 173.816 531.166 172.928C531.166 172.88 531.242 172.856 531.393 172.856C531.545 172.856 531.62 172.88 531.62 172.928C531.62 173.648 531.608 174.212 531.583 174.62C531.583 175.004 531.583 175.412 531.583 175.844C531.583 176.396 531.595 176.936 531.62 177.464C531.646 177.992 531.658 178.556 531.658 179.156C531.658 179.204 531.582 179.228 531.431 179.228C531.279 179.228 531.204 179.204 531.204 179.156Z" fill="#8A8A88"/>
<path d="M500.061 169.256C500.061 170.24 500.314 171.092 500.819 171.812C501.349 172.508 502.018 173.12 502.826 173.648C503.634 174.176 504.493 174.704 505.402 175.232C506.336 175.736 507.233 176.276 508.091 176.852C508.975 177.428 509.695 178.112 510.25 178.904C510.831 179.696 511.121 180.668 511.121 181.82C511.121 182.972 510.818 184.016 510.212 184.952C509.606 185.864 508.722 186.596 507.561 187.148C506.425 187.7 505.011 187.976 503.319 187.976C502.713 187.976 502.107 187.928 501.501 187.832C500.92 187.76 500.327 187.628 499.721 187.436C499.14 187.244 498.559 187.004 497.978 186.716C497.852 186.644 497.764 186.56 497.713 186.464C497.688 186.344 497.663 186.2 497.637 186.032L497.145 181.136C497.12 181.016 497.17 180.956 497.297 180.956C497.448 180.932 497.536 180.968 497.562 181.064C497.738 181.784 497.991 182.516 498.319 183.26C498.647 184.004 499.077 184.688 499.607 185.312C500.137 185.936 500.781 186.44 501.539 186.824C502.296 187.208 503.18 187.4 504.19 187.4C504.922 187.4 505.629 187.268 506.311 187.004C507.018 186.74 507.586 186.308 508.015 185.708C508.47 185.108 508.697 184.292 508.697 183.26C508.697 182.084 508.419 181.112 507.864 180.344C507.334 179.552 506.652 178.868 505.819 178.292C504.985 177.716 504.102 177.176 503.167 176.672C502.284 176.144 501.425 175.604 500.592 175.052C499.784 174.5 499.115 173.852 498.584 173.108C498.079 172.34 497.827 171.392 497.827 170.264C497.827 168.992 498.168 167.948 498.849 167.132C499.531 166.292 500.415 165.668 501.501 165.26C502.587 164.852 503.71 164.648 504.872 164.648C505.579 164.648 506.311 164.72 507.069 164.864C507.826 164.984 508.571 165.2 509.303 165.512C509.505 165.584 509.644 165.68 509.72 165.8C509.821 165.896 509.871 166.004 509.871 166.124L510.137 170.228C510.137 170.324 510.073 170.384 509.947 170.408C509.821 170.408 509.733 170.36 509.682 170.264C509.632 169.784 509.493 169.256 509.265 168.68C509.038 168.08 508.71 167.516 508.281 166.988C507.851 166.46 507.308 166.028 506.652 165.692C505.995 165.356 505.2 165.188 504.266 165.188C503.281 165.188 502.473 165.392 501.842 165.8C501.236 166.184 500.781 166.688 500.478 167.312C500.2 167.912 500.061 168.56 500.061 169.256Z" fill="#8A8A88"/>
<path d="M486.88 184.628C486.88 185.324 486.955 185.852 487.107 186.212C487.258 186.572 487.561 186.812 488.016 186.932C488.496 187.052 489.19 187.112 490.099 187.112C490.175 187.112 490.213 187.184 490.213 187.328C490.213 187.472 490.175 187.544 490.099 187.544C489.493 187.544 488.811 187.532 488.054 187.508C487.321 187.484 486.501 187.472 485.592 187.472C484.759 187.472 483.95 187.484 483.168 187.508C482.41 187.532 481.728 187.544 481.122 187.544C481.047 187.544 481.009 187.472 481.009 187.328C481.009 187.184 481.047 187.112 481.122 187.112C482.031 187.112 482.726 187.052 483.206 186.932C483.685 186.812 484.001 186.572 484.152 186.212C484.304 185.852 484.38 185.324 484.38 184.628V167.96C484.38 167.264 484.304 166.748 484.152 166.412C484.001 166.052 483.685 165.812 483.206 165.692C482.726 165.548 482.031 165.476 481.122 165.476C481.047 165.476 481.009 165.404 481.009 165.26C481.009 165.116 481.047 165.044 481.122 165.044C481.728 165.044 482.41 165.068 483.168 165.116C483.95 165.14 484.759 165.152 485.592 165.152C486.501 165.152 487.334 165.14 488.092 165.116C488.849 165.068 489.518 165.044 490.099 165.044C490.175 165.044 490.213 165.116 490.213 165.26C490.213 165.404 490.175 165.476 490.099 165.476C489.19 165.476 488.496 165.548 488.016 165.692C487.561 165.836 487.258 166.088 487.107 166.448C486.955 166.808 486.88 167.336 486.88 168.032V184.628Z" fill="#8A8A88"/>
<path d="M472.189 187.544C471.76 187.544 471.066 187.088 470.106 186.176C469.172 185.24 468.023 183.908 466.659 182.18C465.321 180.428 463.819 178.364 462.152 175.988L464.273 175.376C466.419 178.28 468.238 180.596 469.727 182.324C471.242 184.028 472.568 185.252 473.704 185.996C474.866 186.74 475.977 187.112 477.037 187.112C477.113 187.112 477.151 187.184 477.151 187.328C477.151 187.472 477.113 187.544 477.037 187.544C475.775 187.544 474.74 187.544 473.932 187.544C473.149 187.544 472.568 187.544 472.189 187.544ZM462.644 164.936C464.665 164.936 466.205 165.38 467.265 166.268C468.351 167.132 468.894 168.272 468.894 169.688C468.894 170.984 468.49 172.16 467.682 173.216C466.899 174.248 465.851 175.064 464.538 175.664C463.25 176.264 461.836 176.564 460.296 176.564C460.044 176.564 459.753 176.552 459.425 176.528C459.122 176.504 458.844 176.48 458.592 176.456V184.628C458.592 185.324 458.655 185.852 458.781 186.212C458.933 186.572 459.236 186.812 459.69 186.932C460.17 187.052 460.877 187.112 461.811 187.112C461.887 187.112 461.925 187.184 461.925 187.328C461.925 187.472 461.887 187.544 461.811 187.544C461.205 187.544 460.523 187.532 459.766 187.508C459.034 187.484 458.226 187.472 457.342 187.472C456.509 187.472 455.701 187.484 454.918 187.508C454.16 187.532 453.466 187.544 452.835 187.544C452.784 187.544 452.759 187.472 452.759 187.328C452.759 187.184 452.784 187.112 452.835 187.112C453.769 187.112 454.463 187.052 454.918 186.932C455.398 186.812 455.726 186.572 455.902 186.212C456.079 185.852 456.168 185.324 456.168 184.628V167.96C456.168 167.264 456.079 166.748 455.902 166.412C455.751 166.052 455.448 165.812 454.993 165.692C454.539 165.548 453.845 165.476 452.91 165.476C452.835 165.476 452.797 165.404 452.797 165.26C452.797 165.116 452.835 165.044 452.91 165.044C453.516 165.044 454.198 165.068 454.956 165.116C455.713 165.14 456.509 165.152 457.342 165.152C458.125 165.152 459.021 165.116 460.031 165.044C461.066 164.972 461.937 164.936 462.644 164.936ZM466.318 170.732C466.318 169.412 466.104 168.368 465.675 167.6C465.271 166.832 464.69 166.292 463.932 165.98C463.175 165.644 462.266 165.476 461.205 165.476C460.271 165.476 459.602 165.632 459.198 165.944C458.794 166.256 458.592 166.952 458.592 168.032V175.592C458.945 175.64 459.324 175.676 459.728 175.7C460.132 175.724 460.498 175.736 460.826 175.736C462.872 175.736 464.298 175.316 465.106 174.476C465.914 173.612 466.318 172.364 466.318 170.732Z" fill="#8A8A88"/>
<path d="M435.26 184.484C435.26 185.204 435.361 185.756 435.563 186.14C435.765 186.5 436.194 186.752 436.851 186.896C437.507 187.04 438.48 187.112 439.767 187.112C439.843 187.112 439.881 187.184 439.881 187.328C439.881 187.472 439.843 187.544 439.767 187.544C438.959 187.544 438.076 187.532 437.116 187.508C436.182 187.484 435.159 187.472 434.048 187.472C433.215 187.472 432.407 187.484 431.624 187.508C430.866 187.532 430.185 187.544 429.579 187.544C429.528 187.544 429.503 187.472 429.503 187.328C429.503 187.184 429.528 187.112 429.579 187.112C430.513 187.112 431.207 187.052 431.662 186.932C432.116 186.812 432.419 186.572 432.571 186.212C432.722 185.852 432.798 185.324 432.798 184.628V167.96C432.798 167.264 432.722 166.748 432.571 166.412C432.419 166.052 432.116 165.812 431.662 165.692C431.207 165.548 430.513 165.476 429.579 165.476C429.528 165.476 429.503 165.404 429.503 165.26C429.503 165.116 429.528 165.044 429.579 165.044C430.185 165.044 430.866 165.068 431.624 165.116C432.382 165.14 433.177 165.152 434.01 165.152C434.667 165.152 435.462 165.116 436.396 165.044C437.356 164.972 438.315 164.936 439.275 164.936C440.714 164.936 442.002 165.14 443.138 165.548C444.3 165.956 445.222 166.592 445.903 167.456C446.585 168.32 446.939 169.448 446.964 170.84C446.964 172.112 446.711 173.204 446.206 174.116C445.727 175.028 445.07 175.784 444.237 176.384C443.429 176.96 442.532 177.392 441.548 177.68C440.563 177.968 439.578 178.112 438.593 178.112C438.29 178.112 437.975 178.1 437.646 178.076C437.343 178.052 437.053 178.004 436.775 177.932C436.674 177.908 436.636 177.824 436.662 177.68C436.712 177.512 436.775 177.44 436.851 177.464C437.078 177.512 437.305 177.548 437.533 177.572C437.785 177.596 438.012 177.608 438.214 177.608C439.25 177.608 440.222 177.392 441.131 176.96C442.04 176.528 442.772 175.868 443.328 174.98C443.883 174.068 444.161 172.94 444.161 171.596C444.161 170.276 443.909 169.172 443.404 168.284C442.899 167.372 442.204 166.676 441.32 166.196C440.437 165.716 439.452 165.476 438.366 165.476C437.533 165.476 436.889 165.524 436.434 165.62C436.005 165.692 435.702 165.908 435.525 166.268C435.348 166.628 435.26 167.216 435.26 168.032V184.484Z" fill="#8A8A88"/>
<path d="M420.835 187.544C420.406 187.544 419.711 187.088 418.752 186.176C417.817 185.24 416.668 183.908 415.305 182.18C413.967 180.428 412.464 178.364 410.798 175.988L412.919 175.376C415.065 178.28 416.883 180.596 418.373 182.324C419.888 184.028 421.214 185.252 422.35 185.996C423.511 186.74 424.622 187.112 425.683 187.112C425.759 187.112 425.797 187.184 425.797 187.328C425.797 187.472 425.759 187.544 425.683 187.544C424.42 187.544 423.385 187.544 422.577 187.544C421.794 187.544 421.214 187.544 420.835 187.544ZM411.29 164.936C413.31 164.936 414.85 165.38 415.911 166.268C416.997 167.132 417.54 168.272 417.54 169.688C417.54 170.984 417.136 172.16 416.328 173.216C415.545 174.248 414.497 175.064 413.184 175.664C411.896 176.264 410.482 176.564 408.942 176.564C408.689 176.564 408.399 176.552 408.071 176.528C407.768 176.504 407.49 176.48 407.237 176.456V184.628C407.237 185.324 407.3 185.852 407.427 186.212C407.578 186.572 407.881 186.812 408.336 186.932C408.815 187.052 409.522 187.112 410.457 187.112C410.532 187.112 410.57 187.184 410.57 187.328C410.57 187.472 410.532 187.544 410.457 187.544C409.851 187.544 409.169 187.532 408.411 187.508C407.679 187.484 406.871 187.472 405.987 187.472C405.154 187.472 404.346 187.484 403.563 187.508C402.806 187.532 402.111 187.544 401.48 187.544C401.43 187.544 401.404 187.472 401.404 187.328C401.404 187.184 401.43 187.112 401.48 187.112C402.414 187.112 403.109 187.052 403.563 186.932C404.043 186.812 404.371 186.572 404.548 186.212C404.725 185.852 404.813 185.324 404.813 184.628V167.96C404.813 167.264 404.725 166.748 404.548 166.412C404.396 166.052 404.094 165.812 403.639 165.692C403.184 165.548 402.49 165.476 401.556 165.476C401.48 165.476 401.442 165.404 401.442 165.26C401.442 165.116 401.48 165.044 401.556 165.044C402.162 165.044 402.844 165.068 403.601 165.116C404.359 165.14 405.154 165.152 405.987 165.152C406.77 165.152 407.666 165.116 408.677 165.044C409.712 164.972 410.583 164.936 411.29 164.936ZM414.964 170.732C414.964 169.412 414.749 168.368 414.32 167.6C413.916 166.832 413.335 166.292 412.578 165.98C411.82 165.644 410.911 165.476 409.851 165.476C408.916 165.476 408.247 165.632 407.843 165.944C407.439 166.256 407.237 166.952 407.237 168.032V175.592C407.591 175.64 407.97 175.676 408.374 175.7C408.778 175.724 409.144 175.736 409.472 175.736C411.517 175.736 412.944 175.316 413.752 174.476C414.56 173.612 414.964 172.364 414.964 170.732Z" fill="#8A8A88"/>
<path d="M394.356 187.544H378.486C378.435 187.544 378.41 187.472 378.41 187.328C378.41 187.184 378.435 187.112 378.486 187.112C379.42 187.112 380.115 187.052 380.569 186.932C381.024 186.812 381.327 186.572 381.478 186.212C381.655 185.852 381.743 185.324 381.743 184.628V167.96C381.743 167.264 381.655 166.748 381.478 166.412C381.327 166.052 381.024 165.812 380.569 165.692C380.115 165.548 379.42 165.476 378.486 165.476C378.435 165.476 378.41 165.404 378.41 165.26C378.41 165.116 378.435 165.044 378.486 165.044H393.712C393.939 165.044 394.053 165.152 394.053 165.368L394.129 169.796C394.129 169.868 394.053 169.916 393.902 169.94C393.775 169.94 393.712 169.904 393.712 169.832C393.636 168.536 393.22 167.54 392.462 166.844C391.73 166.148 390.77 165.8 389.584 165.8H387.273C386.415 165.8 385.758 165.86 385.304 165.98C384.874 166.1 384.571 166.328 384.395 166.664C384.243 167 384.167 167.492 384.167 168.14V184.484C384.167 185.108 384.243 185.588 384.395 185.924C384.571 186.26 384.862 186.488 385.266 186.608C385.695 186.728 386.326 186.788 387.16 186.788H390.19C391.402 186.788 392.412 186.38 393.22 185.564C394.053 184.724 394.596 183.596 394.848 182.18C394.848 182.108 394.924 182.084 395.076 182.108C395.227 182.132 395.303 182.18 395.303 182.252C395.202 182.876 395.114 183.632 395.038 184.52C394.987 185.408 394.962 186.236 394.962 187.004C394.962 187.364 394.76 187.544 394.356 187.544ZM392.235 179.156C392.235 178.1 391.957 177.344 391.402 176.888C390.871 176.432 389.975 176.204 388.712 176.204H383.031V175.448H388.826C390.038 175.448 390.897 175.256 391.402 174.872C391.932 174.464 392.197 173.816 392.197 172.928C392.197 172.88 392.273 172.856 392.424 172.856C392.576 172.856 392.652 172.88 392.652 172.928C392.652 173.648 392.639 174.212 392.614 174.62C392.614 175.004 392.614 175.412 392.614 175.844C392.614 176.396 392.626 176.936 392.652 177.464C392.677 177.992 392.689 178.556 392.689 179.156C392.689 179.204 392.614 179.228 392.462 179.228C392.311 179.228 392.235 179.204 392.235 179.156Z" fill="#8A8A88"/>
<path d="M357.321 165.692C355.756 165.692 354.569 166.076 353.761 166.844C352.978 167.612 352.41 168.92 352.056 170.768C352.056 170.816 351.981 170.84 351.829 170.84C351.703 170.84 351.64 170.816 351.64 170.768C351.69 170.456 351.741 170.024 351.791 169.472C351.842 168.896 351.892 168.284 351.943 167.636C352.018 166.988 352.069 166.364 352.094 165.764C352.145 165.14 352.17 164.636 352.17 164.252C352.17 164.132 352.233 164.072 352.359 164.072C352.511 164.072 352.587 164.132 352.587 164.252C352.587 164.492 352.713 164.672 352.965 164.792C353.218 164.888 353.496 164.96 353.799 165.008C354.127 165.032 354.405 165.044 354.632 165.044C356.803 165.116 359.341 165.152 362.245 165.152C364.038 165.152 365.452 165.14 366.487 165.116C367.548 165.068 368.57 165.044 369.555 165.044C370.414 165.044 371.07 164.996 371.525 164.9C372.004 164.78 372.307 164.528 372.434 164.144C372.459 164.048 372.535 164 372.661 164C372.787 164 372.85 164.048 372.85 164.144C372.825 164.504 372.787 164.996 372.737 165.62C372.686 166.244 372.648 166.892 372.623 167.564C372.598 168.236 372.573 168.86 372.547 169.436C372.522 170.012 372.509 170.456 372.509 170.768C372.509 170.816 372.434 170.84 372.282 170.84C372.131 170.84 372.055 170.816 372.055 170.768C371.979 168.896 371.575 167.588 370.843 166.844C370.111 166.076 368.899 165.692 367.207 165.692C366.146 165.692 365.351 165.74 364.821 165.836C364.29 165.932 363.937 166.148 363.76 166.484C363.609 166.796 363.533 167.312 363.533 168.032V184.628C363.533 185.324 363.621 185.852 363.798 186.212C363.975 186.572 364.316 186.812 364.821 186.932C365.351 187.052 366.146 187.112 367.207 187.112C367.283 187.112 367.32 187.184 367.32 187.328C367.32 187.472 367.283 187.544 367.207 187.544C366.55 187.544 365.805 187.532 364.972 187.508C364.139 187.484 363.23 187.472 362.245 187.472C361.311 187.472 360.427 187.484 359.594 187.508C358.76 187.532 358.003 187.544 357.321 187.544C357.271 187.544 357.245 187.472 357.245 187.328C357.245 187.184 357.271 187.112 357.321 187.112C358.356 187.112 359.139 187.052 359.669 186.932C360.225 186.812 360.591 186.572 360.768 186.212C360.945 185.852 361.033 185.324 361.033 184.628V167.96C361.033 167.24 360.945 166.724 360.768 166.412C360.591 166.076 360.238 165.872 359.707 165.8C359.177 165.728 358.382 165.692 357.321 165.692Z" fill="#8A8A88"/>
<path d="M324.574 183.62V165.872L325.445 165.944V183.62C325.445 184.868 325.672 185.768 326.127 186.32C326.581 186.848 327.339 187.112 328.399 187.112C328.475 187.112 328.513 187.184 328.513 187.328C328.513 187.472 328.475 187.544 328.399 187.544C327.894 187.544 327.376 187.532 326.846 187.508C326.316 187.484 325.723 187.472 325.066 187.472C324.435 187.472 323.829 187.484 323.248 187.508C322.667 187.532 322.112 187.544 321.581 187.544C321.531 187.544 321.506 187.472 321.506 187.328C321.506 187.184 321.531 187.112 321.581 187.112C322.692 187.112 323.463 186.848 323.892 186.32C324.346 185.768 324.574 184.868 324.574 183.62ZM343.663 187.976C343.663 188.024 343.6 188.048 343.474 188.048C343.348 188.072 343.259 188.072 343.209 188.048L325.786 167.996C324.927 167.012 324.157 166.352 323.475 166.016C322.819 165.656 322.187 165.476 321.581 165.476C321.506 165.476 321.468 165.404 321.468 165.26C321.468 165.116 321.506 165.044 321.581 165.044C322.036 165.044 322.49 165.056 322.945 165.08C323.425 165.104 323.854 165.116 324.233 165.116C324.687 165.116 325.117 165.104 325.521 165.08C325.925 165.056 326.228 165.044 326.43 165.044C326.758 165.044 326.985 165.188 327.111 165.476C327.238 165.74 327.604 166.22 328.21 166.916L343.36 184.592L343.663 187.976ZM343.663 169.004V187.976L342.792 186.86V169.004C342.792 167.756 342.565 166.856 342.11 166.304C341.681 165.752 340.949 165.476 339.913 165.476C339.863 165.476 339.838 165.404 339.838 165.26C339.838 165.116 339.863 165.044 339.913 165.044C340.419 165.044 340.936 165.068 341.466 165.116C342.022 165.14 342.615 165.152 343.247 165.152C343.853 165.152 344.446 165.14 345.027 165.116C345.633 165.068 346.188 165.044 346.693 165.044C346.769 165.044 346.807 165.116 346.807 165.26C346.807 165.404 346.769 165.476 346.693 165.476C345.608 165.476 344.825 165.752 344.345 166.304C343.891 166.856 343.663 167.756 343.663 169.004Z" fill="#8A8A88"/>
<path d="M314.533 187.544H298.663C298.612 187.544 298.587 187.472 298.587 187.328C298.587 187.184 298.612 187.112 298.663 187.112C299.597 187.112 300.291 187.052 300.746 186.932C301.2 186.812 301.503 186.572 301.655 186.212C301.832 185.852 301.92 185.324 301.92 184.628V167.96C301.92 167.264 301.832 166.748 301.655 166.412C301.503 166.052 301.2 165.812 300.746 165.692C300.291 165.548 299.597 165.476 298.663 165.476C298.612 165.476 298.587 165.404 298.587 165.26C298.587 165.116 298.612 165.044 298.663 165.044H313.889C314.116 165.044 314.23 165.152 314.23 165.368L314.306 169.796C314.306 169.868 314.23 169.916 314.078 169.94C313.952 169.94 313.889 169.904 313.889 169.832C313.813 168.536 313.397 167.54 312.639 166.844C311.907 166.148 310.947 165.8 309.76 165.8H307.45C306.591 165.8 305.935 165.86 305.48 165.98C305.051 166.1 304.748 166.328 304.571 166.664C304.42 167 304.344 167.492 304.344 168.14V184.484C304.344 185.108 304.42 185.588 304.571 185.924C304.748 186.26 305.039 186.488 305.443 186.608C305.872 186.728 306.503 186.788 307.336 186.788H310.366C311.578 186.788 312.589 186.38 313.397 185.564C314.23 184.724 314.773 183.596 315.025 182.18C315.025 182.108 315.101 182.084 315.252 182.108C315.404 182.132 315.48 182.18 315.48 182.252C315.379 182.876 315.29 183.632 315.215 184.52C315.164 185.408 315.139 186.236 315.139 187.004C315.139 187.364 314.937 187.544 314.533 187.544ZM312.412 179.156C312.412 178.1 312.134 177.344 311.578 176.888C311.048 176.432 310.152 176.204 308.889 176.204H303.208V175.448H309.003C310.215 175.448 311.073 175.256 311.578 174.872C312.109 174.464 312.374 173.816 312.374 172.928C312.374 172.88 312.45 172.856 312.601 172.856C312.753 172.856 312.828 172.88 312.828 172.928C312.828 173.648 312.816 174.212 312.791 174.62C312.791 175.004 312.791 175.412 312.791 175.844C312.791 176.396 312.803 176.936 312.828 177.464C312.854 177.992 312.866 178.556 312.866 179.156C312.866 179.204 312.791 179.228 312.639 179.228C312.488 179.228 312.412 179.204 312.412 179.156Z" fill="#8A8A88"/>
<path d="M267.719 187.976C265.901 187.976 264.247 187.676 262.757 187.076C261.292 186.452 260.03 185.6 258.969 184.52C257.934 183.44 257.126 182.204 256.545 180.812C255.99 179.396 255.712 177.896 255.712 176.312C255.712 174.368 256.103 172.664 256.886 171.2C257.694 169.736 258.755 168.524 260.068 167.564C261.381 166.58 262.82 165.848 264.386 165.368C265.951 164.888 267.504 164.648 269.044 164.648C270.913 164.648 272.579 164.972 274.044 165.62C275.534 166.244 276.796 167.096 277.832 168.176C278.867 169.256 279.65 170.48 280.18 171.848C280.735 173.216 281.013 174.62 281.013 176.06C281.013 177.74 280.66 179.3 279.953 180.74C279.246 182.18 278.274 183.44 277.036 184.52C275.824 185.6 274.41 186.452 272.794 187.076C271.203 187.676 269.511 187.976 267.719 187.976ZM269.044 187.22C270.761 187.22 272.302 186.836 273.665 186.068C275.029 185.276 276.115 184.124 276.923 182.612C277.731 181.1 278.135 179.252 278.135 177.068C278.135 174.812 277.693 172.82 276.809 171.092C275.95 169.34 274.713 167.972 273.097 166.988C271.506 165.98 269.625 165.476 267.454 165.476C264.651 165.476 262.467 166.34 260.901 168.068C259.361 169.772 258.591 172.1 258.591 175.052C258.591 176.756 258.83 178.352 259.31 179.84C259.815 181.304 260.535 182.6 261.469 183.728C262.403 184.832 263.514 185.696 264.802 186.32C266.09 186.92 267.504 187.22 269.044 187.22Z" fill="#8A8A88"/>
<path d="M232.484 184.628V167.96C232.484 167.264 232.408 166.748 232.256 166.412C232.105 166.052 231.789 165.812 231.309 165.692C230.855 165.548 230.173 165.476 229.264 165.476C229.214 165.476 229.188 165.404 229.188 165.26C229.188 165.116 229.214 165.044 229.264 165.044C229.87 165.044 230.552 165.068 231.309 165.116C232.067 165.14 232.862 165.152 233.696 165.152C234.605 165.152 235.425 165.14 236.158 165.116C236.915 165.068 237.584 165.044 238.165 165.044C238.241 165.044 238.279 165.116 238.279 165.26C238.279 165.404 238.241 165.476 238.165 165.476C237.256 165.476 236.574 165.548 236.12 165.692C235.665 165.836 235.349 166.088 235.173 166.448C235.021 166.808 234.945 167.336 234.945 168.032V184.628C234.945 185.324 235.021 185.852 235.173 186.212C235.324 186.572 235.627 186.812 236.082 186.932C236.562 187.052 237.256 187.112 238.165 187.112C238.241 187.112 238.279 187.184 238.279 187.328C238.279 187.472 238.241 187.544 238.165 187.544C237.559 187.544 236.89 187.532 236.158 187.508C235.425 187.484 234.605 187.472 233.696 187.472C232.862 187.472 232.054 187.484 231.271 187.508C230.514 187.532 229.832 187.544 229.226 187.544C229.176 187.544 229.15 187.472 229.15 187.328C229.15 187.184 229.176 187.112 229.226 187.112C230.135 187.112 230.83 187.052 231.309 186.932C231.789 186.812 232.105 186.572 232.256 186.212C232.408 185.852 232.484 185.324 232.484 184.628ZM241.99 182.324L235.968 175.124L237.862 173.684L243.392 180.38C244.528 181.796 245.488 182.936 246.27 183.8C247.078 184.664 247.748 185.336 248.278 185.816C248.808 186.272 249.275 186.596 249.679 186.788C250.109 186.956 250.513 187.052 250.891 187.076C251.27 187.1 251.699 187.112 252.179 187.112C252.255 187.112 252.293 187.184 252.293 187.328C252.293 187.472 252.255 187.544 252.179 187.544C251.043 187.544 250.134 187.544 249.452 187.544C248.77 187.544 248.265 187.544 247.937 187.544C247.71 187.544 247.52 187.544 247.369 187.544C247.243 187.568 247.104 187.58 246.952 187.58C246.599 187.58 246.308 187.52 246.081 187.4C245.879 187.28 245.639 187.04 245.361 186.68C245.084 186.32 244.68 185.792 244.149 185.096C243.644 184.4 242.925 183.476 241.99 182.324ZM233.279 177.212L243.051 167.96C243.985 167.048 244.377 166.412 244.225 166.052C244.099 165.668 243.379 165.476 242.066 165.476C242.016 165.476 241.99 165.404 241.99 165.26C241.99 165.116 242.016 165.044 242.066 165.044C242.697 165.044 243.329 165.068 243.96 165.116C244.591 165.14 245.425 165.152 246.46 165.152C247.445 165.152 248.227 165.14 248.808 165.116C249.389 165.068 249.944 165.044 250.475 165.044C250.55 165.044 250.588 165.116 250.588 165.26C250.588 165.404 250.55 165.476 250.475 165.476C249.566 165.476 248.518 165.68 247.331 166.088C246.144 166.472 245.008 167.168 243.922 168.176L234.226 177.212H233.279Z" fill="#8A8A88"/>
<path d="M199.011 187.688C198.278 187.688 197.369 187.652 196.284 187.58C195.223 187.508 194.238 187.472 193.329 187.472C192.496 187.472 191.688 187.484 190.905 187.508C190.148 187.532 189.466 187.544 188.86 187.544C188.809 187.544 188.784 187.472 188.784 187.328C188.784 187.184 188.809 187.112 188.86 187.112C189.769 187.112 190.463 187.052 190.943 186.932C191.423 186.812 191.739 186.572 191.89 186.212C192.042 185.852 192.117 185.324 192.117 184.628V167.96C192.117 167.264 192.042 166.748 191.89 166.412C191.739 166.052 191.423 165.812 190.943 165.692C190.489 165.548 189.807 165.476 188.898 165.476C188.847 165.476 188.822 165.404 188.822 165.26C188.822 165.116 188.847 165.044 188.898 165.044C189.504 165.044 190.186 165.068 190.943 165.116C191.701 165.14 192.496 165.152 193.329 165.152C194.163 165.152 195.059 165.128 196.019 165.08C196.978 165.008 197.799 164.972 198.481 164.972C201.157 164.972 203.493 165.452 205.488 166.412C207.508 167.372 209.073 168.68 210.184 170.336C211.295 171.992 211.851 173.852 211.851 175.916C211.851 177.716 211.51 179.348 210.828 180.812C210.172 182.252 209.237 183.488 208.025 184.52C206.839 185.528 205.462 186.308 203.897 186.86C202.357 187.412 200.728 187.688 199.011 187.688ZM198.632 187.148C200.652 187.148 202.432 186.752 203.973 185.96C205.513 185.144 206.725 183.956 207.609 182.396C208.518 180.836 208.972 178.94 208.972 176.708C208.972 174.62 208.556 172.736 207.722 171.056C206.889 169.352 205.715 168.008 204.2 167.024C202.71 166.016 200.917 165.512 198.821 165.512C197.306 165.512 196.221 165.656 195.564 165.944C194.908 166.232 194.579 166.928 194.579 168.032V184.232C194.579 185.24 194.832 185.984 195.337 186.464C195.867 186.92 196.965 187.148 198.632 187.148Z" fill="#8A8A88"/>
<path d="M161.908 183.62V165.872L162.779 165.944V183.62C162.779 184.868 163.006 185.768 163.461 186.32C163.915 186.848 164.673 187.112 165.733 187.112C165.809 187.112 165.847 187.184 165.847 187.328C165.847 187.472 165.809 187.544 165.733 187.544C165.228 187.544 164.71 187.532 164.18 187.508C163.65 187.484 163.057 187.472 162.4 187.472C161.769 187.472 161.163 187.484 160.582 187.508C160.001 187.532 159.446 187.544 158.915 187.544C158.865 187.544 158.84 187.472 158.84 187.328C158.84 187.184 158.865 187.112 158.915 187.112C160.026 187.112 160.797 186.848 161.226 186.32C161.68 185.768 161.908 184.868 161.908 183.62ZM180.997 187.976C180.997 188.024 180.934 188.048 180.808 188.048C180.682 188.072 180.593 188.072 180.543 188.048L163.12 167.996C162.261 167.012 161.491 166.352 160.809 166.016C160.153 165.656 159.521 165.476 158.915 165.476C158.84 165.476 158.802 165.404 158.802 165.26C158.802 165.116 158.84 165.044 158.915 165.044C159.37 165.044 159.824 165.056 160.279 165.08C160.759 165.104 161.188 165.116 161.567 165.116C162.021 165.116 162.451 165.104 162.855 165.08C163.259 165.056 163.562 165.044 163.764 165.044C164.092 165.044 164.319 165.188 164.445 165.476C164.572 165.74 164.938 166.22 165.544 166.916L180.694 184.592L180.997 187.976ZM180.997 169.004V187.976L180.126 186.86V169.004C180.126 167.756 179.899 166.856 179.444 166.304C179.015 165.752 178.283 165.476 177.247 165.476C177.197 165.476 177.172 165.404 177.172 165.26C177.172 165.116 177.197 165.044 177.247 165.044C177.753 165.044 178.27 165.068 178.8 165.116C179.356 165.14 179.949 165.152 180.581 165.152C181.187 165.152 181.78 165.14 182.361 165.116C182.967 165.068 183.522 165.044 184.027 165.044C184.103 165.044 184.141 165.116 184.141 165.26C184.141 165.404 184.103 165.476 184.027 165.476C182.942 165.476 182.159 165.752 181.679 166.304C181.225 166.856 180.997 167.756 180.997 169.004Z" fill="#8A8A88"/>
<path d="M135.464 177.644L135.842 176.924H145.88L146.145 177.644H135.464ZM154.591 187.112C154.692 187.112 154.743 187.184 154.743 187.328C154.743 187.472 154.692 187.544 154.591 187.544C153.859 187.544 153.114 187.52 152.356 187.472C151.599 187.424 150.867 187.4 150.16 187.4C149.377 187.4 148.695 187.424 148.114 187.472C147.533 187.52 146.89 187.544 146.183 187.544C146.082 187.544 146.031 187.472 146.031 187.328C146.031 187.184 146.082 187.112 146.183 187.112C147.521 187.112 148.354 186.932 148.682 186.572C149.011 186.188 148.922 185.48 148.417 184.448L140.009 167.564L140.956 166.448L133.608 182.972C132.976 184.436 132.938 185.492 133.494 186.14C134.05 186.788 135.148 187.112 136.789 187.112C136.916 187.112 136.979 187.184 136.979 187.328C136.979 187.472 136.916 187.544 136.789 187.544C136.032 187.544 135.337 187.52 134.706 187.472C134.075 187.424 133.279 187.4 132.32 187.4C131.411 187.4 130.679 187.424 130.123 187.472C129.593 187.52 128.936 187.544 128.153 187.544C128.052 187.544 128.002 187.472 128.002 187.328C128.002 187.184 128.052 187.112 128.153 187.112C128.835 187.112 129.429 186.992 129.934 186.752C130.439 186.488 130.906 186.044 131.335 185.42C131.79 184.772 132.282 183.848 132.812 182.648L140.804 164.72C140.855 164.648 140.943 164.612 141.069 164.612C141.196 164.612 141.271 164.648 141.297 164.72L150.235 182.612C150.816 183.788 151.334 184.712 151.788 185.384C152.243 186.032 152.685 186.488 153.114 186.752C153.568 186.992 154.061 187.112 154.591 187.112Z" fill="#8A8A88"/>
<path d="M111.091 187.544H95.2213C95.1708 187.544 95.1455 187.472 95.1455 187.328C95.1455 187.184 95.1708 187.112 95.2213 187.112C96.1555 187.112 96.8499 187.052 97.3045 186.932C97.759 186.812 98.062 186.572 98.2135 186.212C98.3902 185.852 98.4786 185.324 98.4786 184.628V167.96C98.4786 167.264 98.3902 166.748 98.2135 166.412C98.062 166.052 97.759 165.812 97.3045 165.692C96.8499 165.548 96.1555 165.476 95.2213 165.476C95.1708 165.476 95.1455 165.404 95.1455 165.26C95.1455 165.116 95.1708 165.044 95.2213 165.044H110.448C110.675 165.044 110.788 165.152 110.788 165.368L110.864 169.796C110.864 169.868 110.788 169.916 110.637 169.94C110.511 169.94 110.448 169.904 110.448 169.832C110.372 168.536 109.955 167.54 109.198 166.844C108.465 166.148 107.506 165.8 106.319 165.8H104.009C103.15 165.8 102.494 165.86 102.039 165.98C101.61 166.1 101.307 166.328 101.13 166.664C100.978 167 100.903 167.492 100.903 168.14V184.484C100.903 185.108 100.978 185.588 101.13 185.924C101.307 186.26 101.597 186.488 102.001 186.608C102.43 186.728 103.062 186.788 103.895 186.788H106.925C108.137 186.788 109.147 186.38 109.955 185.564C110.788 184.724 111.331 183.596 111.584 182.18C111.584 182.108 111.66 182.084 111.811 182.108C111.963 182.132 112.038 182.18 112.038 182.252C111.937 182.876 111.849 183.632 111.773 184.52C111.723 185.408 111.697 186.236 111.697 187.004C111.697 187.364 111.495 187.544 111.091 187.544ZM108.97 179.156C108.97 178.1 108.693 177.344 108.137 176.888C107.607 176.432 106.71 176.204 105.448 176.204H99.7664V175.448H105.561C106.774 175.448 107.632 175.256 108.137 174.872C108.667 174.464 108.932 173.816 108.932 172.928C108.932 172.88 109.008 172.856 109.16 172.856C109.311 172.856 109.387 172.88 109.387 172.928C109.387 173.648 109.374 174.212 109.349 174.62C109.349 175.004 109.349 175.412 109.349 175.844C109.349 176.396 109.362 176.936 109.387 177.464C109.412 177.992 109.425 178.556 109.425 179.156C109.425 179.204 109.349 179.228 109.198 179.228C109.046 179.228 108.97 179.204 108.97 179.156Z" fill="#8A8A88"/>
<path d="M88.0963 187.544H72.2261C72.1756 187.544 72.1504 187.472 72.1504 187.328C72.1504 187.184 72.1756 187.112 72.2261 187.112C73.1604 187.112 73.8548 187.052 74.3093 186.932C74.7639 186.812 75.0669 186.572 75.2184 186.212C75.3951 185.852 75.4835 185.324 75.4835 184.628V167.96C75.4835 167.264 75.3951 166.748 75.2184 166.412C75.0669 166.052 74.7639 165.812 74.3093 165.692C73.8548 165.548 73.1604 165.476 72.2261 165.476C72.1756 165.476 72.1504 165.404 72.1504 165.26C72.1504 165.116 72.1756 165.044 72.2261 165.044H87.4524C87.6797 165.044 87.7933 165.152 87.7933 165.368L87.869 169.796C87.869 169.868 87.7933 169.916 87.6418 169.94C87.5155 169.94 87.4524 169.904 87.4524 169.832C87.3767 168.536 86.96 167.54 86.2025 166.844C85.4702 166.148 84.5107 165.8 83.3239 165.8H81.0134C80.1549 165.8 79.4984 165.86 79.0439 165.98C78.6146 166.1 78.3116 166.328 78.1348 166.664C77.9833 167 77.9076 167.492 77.9076 168.14V184.484C77.9076 185.108 77.9833 185.588 78.1348 185.924C78.3116 186.26 78.602 186.488 79.006 186.608C79.4353 186.728 80.0665 186.788 80.8998 186.788H83.9299C85.142 186.788 86.152 186.38 86.96 185.564C87.7933 184.724 88.3362 183.596 88.5887 182.18C88.5887 182.108 88.6644 182.084 88.816 182.108C88.9675 182.132 89.0432 182.18 89.0432 182.252C88.9422 182.876 88.8538 183.632 88.7781 184.52C88.7276 185.408 88.7023 186.236 88.7023 187.004C88.7023 187.364 88.5003 187.544 88.0963 187.544ZM85.9752 179.156C85.9752 178.1 85.6975 177.344 85.142 176.888C84.6117 176.432 83.7153 176.204 82.4527 176.204H76.7713V175.448H82.5664C83.7784 175.448 84.6369 175.256 85.142 174.872C85.6722 174.464 85.9374 173.816 85.9374 172.928C85.9374 172.88 86.0131 172.856 86.1646 172.856C86.3161 172.856 86.3919 172.88 86.3919 172.928C86.3919 173.648 86.3792 174.212 86.354 174.62C86.354 175.004 86.354 175.412 86.354 175.844C86.354 176.396 86.3666 176.936 86.3919 177.464C86.4171 177.992 86.4297 178.556 86.4297 179.156C86.4297 179.204 86.354 179.228 86.2025 179.228C86.051 179.228 85.9752 179.204 85.9752 179.156Z" fill="#8A8A88"/>
<path d="M54.7572 167.996V184.484C54.7572 185.132 54.8329 185.624 54.9845 185.96C55.136 186.296 55.4263 186.524 55.8556 186.644C56.3101 186.74 56.954 186.788 57.7873 186.788H61.9158C63.3804 186.788 64.5419 186.356 65.4004 185.492C66.259 184.604 66.8145 183.452 67.067 182.036C67.067 181.964 67.1301 181.94 67.2564 181.964C67.4079 181.964 67.4836 182 67.4836 182.072C67.4079 182.72 67.3321 183.512 67.2564 184.448C67.1806 185.36 67.1427 186.212 67.1427 187.004C67.1427 187.364 66.9534 187.544 66.5746 187.544H49.0758C49.0253 187.544 49 187.472 49 187.328C49 187.184 49.0253 187.112 49.0758 187.112C49.9848 187.112 50.6666 187.052 51.1211 186.932C51.6008 186.812 51.9165 186.572 52.068 186.212C52.2195 185.852 52.2952 185.324 52.2952 184.628V167.96C52.2952 167.264 52.2195 166.748 52.068 166.412C51.9165 166.052 51.6008 165.812 51.1211 165.692C50.6666 165.548 49.9848 165.476 49.0758 165.476C49.0253 165.476 49 165.404 49 165.26C49 165.116 49.0253 165.044 49.0758 165.044C49.6818 165.044 50.3635 165.068 51.1211 165.116C51.8786 165.14 52.674 165.152 53.5073 165.152C54.3911 165.152 55.2117 165.14 55.9692 165.116C56.7268 165.068 57.3959 165.044 57.9767 165.044C58.0524 165.044 58.0903 165.116 58.0903 165.26C58.0903 165.404 58.0524 165.476 57.9767 165.476C57.0676 165.476 56.3732 165.548 55.8935 165.692C55.439 165.812 55.136 166.052 54.9845 166.412C54.8329 166.772 54.7572 167.3 54.7572 167.996Z" fill="#8A8A88"/>
<defs>
<linearGradient id="paint0_linear_43_3" x1="460.827" y1="66.4147" x2="580.081" y2="66.4147" gradientUnits="userSpaceOnUse">
<stop stop-color="#C9A84C"/>
<stop offset="0.33" stop-color="#C9A84C"/>
<stop offset="0.66" stop-color="#93711A"/>
<stop offset="1" stop-color="#C9A84C"/>
</linearGradient>
<linearGradient id="paint1_linear_43_3" x1="459.841" y1="66.4361" x2="576.954" y2="66.4361" gradientUnits="userSpaceOnUse">
<stop stop-color="#C9A84C"/>
<stop offset="0.33" stop-color="#C9A84C"/>
<stop offset="0.66" stop-color="#A5852F"/>
<stop offset="1" stop-color="#C9A84C"/>
</linearGradient>
<linearGradient id="paint2_linear_43_3" x1="579.212" y1="66.4636" x2="705.42" y2="66.4636" gradientUnits="userSpaceOnUse">
<stop stop-color="#C9A84C"/>
<stop offset="0.33" stop-color="#C9A84C"/>
<stop offset="0.66" stop-color="#93711A"/>
<stop offset="1" stop-color="#C9A84C"/>
</linearGradient>
</defs>
</svg>
