<svg width="700" height="178" viewBox="0 0 700 178" fill="none" xmlns="http://www.w3.org/2000/svg">
<path d="M324.38 119.057H222.247C221.785 119.057 221.554 118.686 221.554 117.942C221.554 117.199 221.785 116.827 222.247 116.827C227.022 116.827 230.565 116.517 232.876 115.898C235.187 115.278 236.727 114.039 237.498 112.181C238.268 110.322 238.653 107.597 238.653 104.004V17.9573C238.653 14.3643 238.268 11.7005 237.498 9.96593C236.727 8.10747 235.187 6.8685 232.876 6.24902C230.565 5.50564 227.022 5.13395 222.247 5.13395C221.785 5.13395 221.554 4.76226 221.554 4.01888C221.554 3.2755 221.785 2.90381 222.247 2.90381H320.221C321.762 2.90381 322.532 3.46134 322.532 4.57641L322.994 29.2939C322.994 29.5416 322.609 29.7275 321.839 29.8514C321.068 29.9753 320.529 29.8514 320.221 29.4797C317.756 22.1698 313.597 16.8422 307.743 13.497C301.889 10.0279 294.187 8.29332 284.636 8.29332H277.704C274.623 8.29332 272.081 8.66501 270.079 9.40839C268.076 10.0279 266.613 11.081 265.688 12.5678C264.764 14.0545 264.302 15.913 264.302 18.1431V103.26C264.302 105.614 264.687 107.597 265.457 109.207C266.227 110.818 267.383 111.995 268.923 112.738C270.464 113.482 272.466 113.854 274.931 113.854H282.556C294.572 113.854 304.2 111.871 311.44 107.906C318.681 103.942 323.995 97.8089 327.384 89.5078C327.538 89.1361 328 89.0741 328.771 89.3219C329.695 89.4458 330.157 89.6317 330.157 89.8795C329.541 93.4725 329.002 97.7469 328.54 102.703C328.077 107.535 327.846 112.057 327.846 116.27C327.846 118.128 326.691 119.057 324.38 119.057ZM311.44 77.6137C311.44 72.5339 309.053 68.5692 304.277 65.7196C299.502 62.746 292.493 61.2593 283.25 61.2593H252.055V56.0556H283.481C292.57 56.0556 299.425 54.8166 304.046 52.3387C308.822 49.7369 311.209 46.2677 311.209 41.9313C311.209 41.5597 311.594 41.3738 312.365 41.3738C313.289 41.3738 313.751 41.5597 313.751 41.9313C313.751 46.0199 313.674 49.2413 313.52 51.5953C313.52 53.8254 313.52 56.1795 313.52 58.6574C313.52 61.7549 313.597 64.7903 313.751 67.7639C314.059 70.7374 314.213 74.0207 314.213 77.6137C314.213 77.8615 313.751 77.9854 312.827 77.9854C311.903 77.9854 311.44 77.8615 311.44 77.6137Z" fill="#252422"/>
<path d="M213.919 119.057H111.786C111.324 119.057 111.093 118.686 111.093 117.942C111.093 117.199 111.324 116.827 111.786 116.827C116.561 116.827 120.105 116.517 122.415 115.898C124.726 115.278 126.266 114.039 127.037 112.181C127.807 110.322 128.192 107.597 128.192 104.004V17.9573C128.192 14.3643 127.807 11.7005 127.037 9.96593C126.266 8.10747 124.726 6.8685 122.415 6.24902C120.105 5.50564 116.561 5.13395 111.786 5.13395C111.324 5.13395 111.093 4.76226 111.093 4.01888C111.093 3.2755 111.324 2.90381 111.786 2.90381H209.76C211.301 2.90381 212.071 3.46134 212.071 4.57641L212.533 29.2939C212.533 29.5416 212.148 29.7275 211.378 29.8514C210.607 29.9753 210.068 29.8514 209.76 29.4797C207.295 22.1698 203.136 16.8422 197.282 13.497C191.429 10.0279 183.726 8.29332 174.175 8.29332H167.243C164.162 8.29332 161.62 8.66501 159.618 9.40839C157.615 10.0279 156.152 11.081 155.227 12.5678C154.303 14.0545 153.841 15.913 153.841 18.1431V103.26C153.841 105.614 154.226 107.597 154.996 109.207C155.767 110.818 156.922 111.995 158.462 112.738C160.003 113.482 162.005 113.854 164.47 113.854H172.096C184.111 113.854 193.739 111.871 200.979 107.906C208.22 103.942 213.534 97.8089 216.923 89.5078C217.077 89.1361 217.54 89.0741 218.31 89.3219C219.234 89.4458 219.696 89.6317 219.696 89.8795C219.08 93.4725 218.541 97.7469 218.079 102.703C217.617 107.535 217.385 112.057 217.385 116.27C217.385 118.128 216.23 119.057 213.919 119.057ZM200.979 77.6137C200.979 72.5339 198.592 68.5692 193.816 65.7196C189.041 62.746 182.032 61.2593 172.789 61.2593H141.594V56.0556H173.02C182.109 56.0556 188.964 54.8166 193.585 52.3387C198.361 49.7369 200.748 46.2677 200.748 41.9313C200.748 41.5597 201.133 41.3738 201.904 41.3738C202.828 41.3738 203.29 41.5597 203.29 41.9313C203.29 46.0199 203.213 49.2413 203.059 51.5953C203.059 53.8254 203.059 56.1795 203.059 58.6574C203.059 61.7549 203.136 64.7903 203.29 67.7639C203.598 70.7374 203.752 74.0207 203.752 77.6137C203.752 77.8615 203.29 77.9854 202.366 77.9854C201.442 77.9854 200.979 77.8615 200.979 77.6137Z" fill="#252422"/>
<path d="M40.2691 18.1431V103.26C40.2691 106.234 40.5594 108.526 41.1398 110.137C41.7203 111.623 42.8812 112.615 44.6226 113.11C46.509 113.606 49.1936 113.854 52.6764 113.854H60.0772C71.3961 113.854 81.1913 111.252 89.4628 106.048C97.7343 100.844 103.249 93.9061 106.006 85.2333C106.151 84.8616 106.586 84.7377 107.312 84.8616C108.037 84.9855 108.4 85.2333 108.4 85.605C107.965 89.6936 107.529 94.6495 107.094 100.473C106.659 106.172 106.441 111.438 106.441 116.27C106.441 118.128 105.353 119.057 103.176 119.057H0.435342C0.145114 119.057 0 118.686 0 117.942C0 117.199 0.145114 116.827 0.435342 116.827C4.93388 116.827 8.2715 116.517 10.4482 115.898C12.6249 115.278 14.0761 114.039 14.8016 112.181C15.6723 110.322 16.1077 107.597 16.1077 104.004V17.9573C16.1077 14.3643 15.6723 11.7005 14.8016 9.96593C14.0761 8.10747 12.6249 6.8685 10.4482 6.24902C8.2715 5.50564 4.93388 5.13395 0.435342 5.13395C0.145114 5.13395 0 4.76226 0 4.01888C0 3.2755 0.145114 2.90381 0.435342 2.90381C3.91808 2.90381 8.05383 3.0277 12.8426 3.27549C17.7765 3.39939 22.8555 3.46134 28.0796 3.46134C33.5939 3.46134 38.6729 3.39939 43.3165 3.27549C47.9602 3.0277 52.0959 2.90381 55.7238 2.90381C56.1591 2.90381 56.3768 3.2755 56.3768 4.01888C56.3768 4.76226 56.1591 5.13395 55.7238 5.13395C51.3704 5.13395 48.0327 5.50564 45.7109 6.24902C43.5342 6.8685 42.0831 8.10747 41.3575 9.96593C40.6319 11.8244 40.2691 14.5501 40.2691 18.1431Z" fill="#252422"/>
<path d="M427.219 60.7724C427.219 60.3119 427.067 60.0811 426.761 60.0811L402.834 60.1963L402.725 60.2071C402.491 60.2576 402.373 60.4849 402.373 60.8876C402.45 61.3485 402.605 61.5788 402.834 61.5788C406.343 61.579 408.557 62.3474 409.473 63.883C410.466 65.4194 410.961 67.4183 410.961 69.8765L410.932 71.2536C410.799 74.4548 410.198 77.5688 409.13 80.5935C408.557 82.2848 407.846 83.8873 407.005 85.4055C403.494 82.7211 400.111 79.8556 396.86 76.805L395.39 75.4065C391.574 71.6424 388.176 67.7623 385.199 63.7678C384.213 62.4439 383.301 61.1134 382.457 59.7811C383.06 59.3756 383.668 58.975 384.284 58.5834C386.459 57.143 388.549 55.6811 390.553 54.1975L392.528 52.7078C395.2 50.6337 397.336 48.4045 398.939 46.0231C400.408 43.8724 401.236 41.399 401.42 38.6015L401.457 37.3825C401.457 34.3865 400.771 32.0805 399.397 30.4673C398.195 28.9887 396.73 27.9209 395.002 27.2656L394.246 27.0111C392.442 26.4062 390.639 26.066 388.836 25.9903L388.061 25.9742C384.245 25.9744 380.926 26.8191 378.102 28.5088C375.278 30.1219 373.063 32.3104 371.46 35.0756C369.857 37.8411 369.056 40.915 369.056 44.295C369.056 46.2155 369.361 48.2143 369.972 50.2885C370.582 52.3622 371.384 54.5128 372.376 56.7401C373.339 58.6789 374.464 60.648 375.743 62.6505C373.335 64.3293 371.028 66.0828 368.827 67.918C366.232 70.1454 364.095 72.6031 362.416 75.2913L362.11 75.8003C360.634 78.3706 359.898 81.3128 359.898 84.6258L359.93 85.6868C360.088 88.1572 360.804 90.568 362.073 92.9208C363.6 95.5326 365.926 97.6851 369.056 99.3751C372.262 100.988 376.308 101.794 381.193 101.794C385.849 101.794 389.933 101.065 393.444 99.6055C397.032 98.146 400.124 96.2265 402.719 93.8451C403.293 93.3019 403.84 92.7417 404.372 92.1759C406.475 93.8356 408.324 95.2032 409.931 96.2645C412.449 97.8005 414.51 98.8757 416.113 99.4903C417.516 100.028 418.686 100.332 419.621 100.399L420.008 100.412H432.373L432.53 100.377C432.626 100.329 432.702 100.232 432.759 100.088L432.831 99.8359C432.898 99.4323 432.788 99.176 432.504 99.067L432.373 99.0295C429.769 98.4918 426.638 97.3352 422.981 95.5625L421.381 94.7668C417.346 92.6295 413.117 89.9252 408.688 86.6647C408.876 86.3707 409.065 86.0768 409.244 85.7779C411.076 82.7819 412.564 79.7849 413.709 76.789C414.625 74.4846 415.391 72.3101 416.006 70.265L416.571 68.2636C416.914 67.1113 417.281 66.11 417.667 65.2601L418.061 64.4617C418.596 63.4631 419.511 62.731 420.809 62.2701C422.106 61.7326 424.091 61.4637 426.761 61.4636C427.067 61.4636 427.219 61.2333 427.219 60.7724ZM367.224 80.5935C367.224 77.1367 368.025 74.1396 369.628 71.6046C371.308 68.9928 373.446 66.651 376.041 64.5769C376.249 64.4046 376.462 64.2383 376.672 64.0679C377.575 65.4131 378.546 66.7748 379.59 68.1484C382.643 71.9892 386.003 75.7159 389.667 79.3262C393.33 82.936 397.069 86.2771 400.885 89.3493C401.583 89.9323 402.264 90.4852 402.919 91.0158C401.024 93.0257 398.824 94.7036 396.306 96.0341C393.253 97.5703 389.931 98.3382 386.344 98.3382V95.5947C389.519 95.5947 392.41 94.9197 395.057 93.5933C396.396 92.8843 397.631 92.0699 398.766 91.1525C395.02 88.1134 391.35 84.8245 387.758 81.2848C384.019 77.6006 380.586 73.7919 377.46 69.8604L377.442 69.839L377.423 69.8149C376.985 69.2379 376.561 68.6604 376.145 68.0868C374.484 69.6207 373.083 71.2861 371.928 73.0782L371.476 73.8605C370.482 75.7352 369.95 77.955 369.95 80.5935L369.982 81.6116C370.129 83.9511 370.79 86.1228 371.966 88.1624C373.383 90.4156 375.311 92.2345 377.809 93.6254C380.264 94.917 383.088 95.5945 386.344 95.5947V98.3382L384.989 98.3007C382.313 98.1567 379.851 97.5809 377.604 96.5726L376.499 96.0341C373.599 94.4209 371.308 92.2684 369.628 89.5797C368.226 87.16 367.437 84.5638 367.262 81.7911L367.224 80.5935ZM391.977 39.2258C391.977 36.6221 391.381 34.8735 390.447 33.6878L390.029 33.2136L390.007 33.1948L389.989 33.1734C388.738 31.8621 387.078 31.1371 384.742 31.1371C382.438 31.1373 380.991 31.8114 380.016 32.876C379.136 33.9187 378.424 35.9182 378.424 39.4562L378.459 40.8119C378.624 43.9826 379.372 47.2472 380.735 50.618C381.235 51.8316 381.804 53.0426 382.431 54.2564C382.922 53.8514 383.412 53.4501 383.89 53.0401L383.903 53.0267L383.919 53.0133C386.415 50.9313 388.404 48.7434 389.917 46.4598C391.272 44.4139 391.977 42.0344 391.977 39.2258ZM394.663 40.4449C394.48 43.2512 393.654 45.7634 392.185 47.9816L391.53 48.9247C389.952 51.1094 387.995 53.1778 385.657 55.1272C384.359 56.2416 383.012 57.336 381.619 58.412C380.287 56.1756 379.149 53.931 378.216 51.671C376.747 48.041 375.919 44.4689 375.735 40.9566L375.698 39.4562C375.698 35.6152 376.461 32.8102 377.988 31.0434C379.59 29.277 381.842 28.3937 384.742 28.3936C387.718 28.3936 390.124 29.3533 391.956 31.2738C393.788 33.1174 394.703 35.769 394.703 39.2258L394.663 40.4449ZM404.173 38.0898C404.059 41.5993 403.085 44.7858 401.194 47.561L401.196 47.5637C399.405 50.2253 397.053 52.6573 394.192 54.878L394.184 54.8861C391.677 56.8159 389.031 58.7045 386.254 60.558C386.618 61.079 386.992 61.6018 387.38 62.1227C390.268 65.998 393.574 69.7737 397.299 73.4479C400.102 76.1576 403.006 78.7215 406.01 81.1454C406.199 80.6735 406.385 80.1954 406.55 79.7067L406.955 78.4823C407.809 75.6953 408.235 72.8297 408.235 69.8765C408.235 68.0354 407.908 66.7114 407.41 65.7638L407.186 65.3807L407.16 65.3378L407.136 65.295C407.099 65.2332 406.928 64.9886 406.236 64.7484C405.699 64.5623 404.946 64.4161 403.933 64.3545L402.834 64.3224C401.615 64.3224 400.743 63.6306 400.278 62.9292C399.986 62.4889 399.835 62.0309 399.751 61.6673L399.684 61.3404L399.647 61.1153V60.8876C399.647 60.439 399.707 59.6234 400.219 58.8487C400.86 57.881 401.877 57.4563 402.82 57.4528L426.748 57.3376H426.761C427.708 57.3376 428.729 57.7617 429.373 58.7335C429.886 59.5085 429.945 60.3236 429.945 60.7724C429.945 61.221 429.887 62.0385 429.373 62.814C428.729 63.7853 427.708 64.2072 426.761 64.2072C424.184 64.2072 422.638 64.4799 421.847 64.8073L421.781 64.8341L421.717 64.8582C420.91 65.1447 420.606 65.4893 420.46 65.7612C420.041 66.545 419.607 67.6259 419.182 69.0513C418.463 71.767 417.481 74.6889 416.241 77.8098C415.199 80.5292 413.892 83.231 412.332 85.9199C415.93 88.4605 419.369 90.5981 422.651 92.3367C426.884 94.5017 430.288 95.7988 432.919 96.3422C433.661 96.4937 434.575 96.9348 435.139 97.9283C435.651 98.8291 435.611 99.7362 435.52 100.286L435.512 100.332L435.504 100.374C435.426 100.768 435.251 101.399 434.788 101.982C434.235 102.678 433.377 103.155 432.373 103.156H420.008C418.897 103.156 417.684 102.907 416.422 102.504L415.144 102.054C413.316 101.354 411.093 100.179 408.518 98.6088L408.478 98.5847L408.435 98.5579C407.269 97.7877 405.993 96.873 404.604 95.8224L404.569 95.8572L404.554 95.8706C401.696 98.4923 398.323 100.579 394.466 102.148L394.464 102.145C390.562 103.764 386.12 104.538 381.193 104.538C376.353 104.538 372.098 103.793 368.539 102.167L367.837 101.829L367.767 101.792C364.495 100.025 361.888 97.7383 360.074 94.89L359.722 94.314L359.698 94.2711L359.677 94.2309C358.027 91.1721 357.172 87.9598 357.172 84.6258C357.172 80.6356 358.126 77.0054 360.108 73.8311C361.946 70.8891 364.271 68.2242 367.059 65.8308L367.073 65.8174L367.089 65.804C368.699 64.461 370.367 63.1655 372.083 61.9057C371.592 61.0734 371.124 60.2472 370.685 59.422L369.937 57.9672L369.913 57.9163L369.889 57.8627C368.853 55.5375 368.007 53.2703 367.357 51.0654C366.682 48.7702 366.33 46.5098 366.33 44.295C366.33 40.4574 367.247 36.9018 369.106 33.6931C370.957 30.5009 373.522 27.9684 376.755 26.1216C380.053 24.1604 383.855 23.2308 388.061 23.2307C390.431 23.2307 392.784 23.6273 395.108 24.4068C397.641 25.1797 399.774 26.6211 401.465 28.6829C401.473 28.6916 401.482 28.701 401.489 28.7097C401.495 28.7168 401.502 28.7241 401.508 28.7312C403.421 31.0064 404.183 34.0207 404.183 37.3825L404.173 38.0898Z" fill="#8A8A88"/>
<path d="M455.902 114.889C455.902 114.456 455.928 113.83 456.132 113.222C456.312 112.686 457.071 111.074 459.032 111.074L460.325 111.058C463.207 110.995 465.157 110.718 466.326 110.331L466.35 110.323L466.375 110.317C467.478 109.975 468.011 109.412 468.302 108.546L468.326 108.47L468.356 108.395C468.87 107.119 469.223 104.949 469.223 101.655V19.953C469.223 17.0347 468.994 15.0331 468.652 13.7844L468.497 13.2943L468.489 13.2674L468.478 13.2378C468.224 12.4804 467.785 11.9574 466.941 11.6088L466.554 11.4688L466.451 11.4365L466.35 11.3961C465.074 10.8887 462.837 10.5345 459.387 10.5345C458.813 10.5344 458.186 10.3853 457.615 10.0067C457.061 9.63961 456.715 9.1619 456.506 8.74662C456.127 7.99402 456.081 7.21287 456.081 6.71913C456.081 6.22537 456.128 5.44396 456.506 4.69165C456.715 4.27677 457.061 3.80101 457.615 3.43424C458.186 3.05569 458.813 2.90388 459.387 2.90381C462.531 2.90381 466.019 3.02184 469.847 3.25922C473.584 3.37442 477.559 3.43424 481.77 3.43424V6.1914L478.615 6.18063C475.507 6.15856 472.531 6.10191 469.69 6.01369C465.901 5.77844 462.466 5.66097 459.387 5.66097C459.033 5.66124 458.856 6.01396 458.856 6.71913L458.889 7.18225C458.955 7.57946 459.121 7.7771 459.387 7.7773C462.94 7.7773 465.604 8.13241 467.38 8.83816C469.275 9.4263 470.52 10.6011 471.113 12.3654C471.705 14.0121 471.999 16.542 471.999 19.953V101.655L471.983 102.894C471.905 105.699 471.555 107.874 470.934 109.418C470.342 111.182 469.099 112.36 467.204 112.948C465.428 113.536 462.703 113.831 459.032 113.831L458.948 113.847C458.768 113.925 458.677 114.273 458.677 114.889L458.699 115.352C458.743 115.749 458.855 115.947 459.032 115.947C460.572 115.947 462.216 115.934 463.963 115.904L469.514 115.77C473.421 115.652 477.507 115.595 481.77 115.595L485.066 115.605C488.286 115.627 491.273 115.681 494.026 115.77C496.868 115.858 499.51 115.914 501.952 115.937L504.329 115.947C504.743 115.947 504.976 115.677 505.028 115.137L505.039 114.889C505.039 114.271 504.857 113.924 504.494 113.847L504.329 113.831C501.116 113.831 498.628 113.606 496.867 113.155L496.157 112.948C494.381 112.36 493.196 111.182 492.603 109.418C492.085 107.874 491.795 105.699 491.731 102.894L491.717 101.655V63.2409L495.688 59.2344L518.894 90.3601C523.157 96.1244 526.591 100.713 529.197 104.124C531.802 107.536 533.875 110.125 535.414 111.89C537.071 113.653 538.491 114.829 539.675 115.417C540.711 115.932 541.885 116.222 543.193 116.287L543.762 116.3C544.236 116.3 544.753 116.286 545.315 116.257L547.137 116.125C548.114 116.037 549.224 115.98 550.468 115.958L551.755 115.947H571.65L571.774 115.931C571.969 115.876 572.093 115.683 572.148 115.352L572.184 114.889C572.184 114.272 572.046 113.924 571.774 113.847L571.65 113.831C569.755 113.831 567.979 113.711 566.321 113.476C564.974 113.27 563.582 112.75 562.144 111.914L561.524 111.537C559.866 110.478 557.913 108.771 555.664 106.418C553.532 103.948 550.868 100.654 547.671 96.5368C544.473 92.3018 540.564 86.9486 535.946 80.4785L509.581 45.217L529.728 24.8938C534.724 20.0413 540.241 16.1216 546.278 13.1301L547.492 12.5431C554.005 9.36692 559.985 7.77738 565.432 7.7773C565.699 7.7773 565.864 7.57958 565.931 7.18225L565.966 6.71913C565.966 6.01369 565.787 5.66097 565.432 5.66097C562.353 5.66098 559.155 5.77843 555.84 6.01369C552.524 6.13131 548.023 6.1914 542.339 6.1914V3.43424C547.993 3.43424 552.447 3.37448 555.713 3.25922C559.064 3.02294 562.304 2.90382 565.432 2.90381C566.006 2.90381 566.633 3.0556 567.205 3.43424C567.758 3.80097 568.104 4.2767 568.313 4.69165C568.692 5.44396 568.741 6.22537 568.741 6.71913L568.728 7.13917C568.697 7.6023 568.597 8.18226 568.313 8.74662C568.104 9.16184 567.759 9.6397 567.205 10.0067C566.633 10.3851 566.006 10.5345 565.432 10.5345C560.525 10.5345 554.967 11.9681 548.714 15.0175L548.695 15.0256L548.679 15.0364C542.454 17.9596 536.785 21.898 531.669 26.8674L513.227 45.4701L538.173 78.8361L538.192 78.8603L538.209 78.8845C542.819 85.3434 546.713 90.6753 549.891 94.8836C553.038 98.9358 555.646 102.158 557.721 104.566C559.883 106.822 561.646 108.335 563.025 109.216C564.44 110.119 565.676 110.588 566.744 110.751H566.741C567.867 110.909 569.067 111.011 570.341 111.052L571.65 111.074C572.224 111.074 572.851 111.223 573.422 111.602C573.977 111.969 574.322 112.446 574.531 112.862C574.91 113.614 574.959 114.395 574.959 114.889L574.946 115.306C574.915 115.77 574.815 116.352 574.531 116.917C574.322 117.332 573.976 117.807 573.422 118.174C572.851 118.553 572.224 118.704 571.65 118.704H551.755C550.036 118.704 548.584 118.761 547.389 118.869C546.032 118.991 544.818 119.057 543.762 119.057C541.862 119.057 540.061 118.692 538.434 117.883C537.006 117.174 535.532 115.965 534.029 114.442L533.384 113.769L533.349 113.734L533.316 113.694C532.117 112.319 530.626 110.49 528.852 108.214L526.985 105.791C524.367 102.363 520.922 97.7637 516.656 91.9945V91.9918L495.39 63.4671L494.493 64.3718V101.655L494.506 102.848C494.56 105.136 494.769 106.827 495.075 108.002L495.238 108.546C495.514 109.369 495.957 109.88 496.699 110.204L497.035 110.331C498.205 110.718 500.154 110.995 503.036 111.058L504.329 111.074C505.374 111.074 506.473 111.529 507.169 112.565C507.592 113.195 507.744 113.865 507.793 114.402L507.814 114.889L507.793 115.374C507.744 115.911 507.592 116.582 507.169 117.213C506.473 118.249 505.373 118.704 504.329 118.704C502.772 118.704 501.127 118.688 499.396 118.659L493.94 118.527H493.937C490.302 118.41 486.246 118.352 481.77 118.352C477.533 118.352 473.475 118.41 469.598 118.527C465.669 118.645 462.146 118.704 459.032 118.704C457.072 118.704 456.313 117.093 456.132 116.556C455.928 115.949 455.902 115.323 455.902 114.889ZM516.119 6.71913C516.119 6.22537 516.166 5.44396 516.544 4.69165C516.753 4.27681 517.1 3.80104 517.653 3.43424C518.224 3.05579 518.851 2.90396 519.426 2.90381C522.667 2.90381 525.966 3.023 529.319 3.25922C532.584 3.37463 536.921 3.43423 542.339 3.43424V6.1914L538.455 6.18063C535.998 6.16592 533.807 6.13589 531.883 6.09177L529.197 6.01369C525.881 5.77842 522.623 5.66097 519.426 5.66097C519.071 5.66154 518.894 6.01426 518.894 6.71913L518.927 7.18225C518.993 7.57928 519.16 7.77687 519.426 7.7773C525.347 7.7773 528.841 9.36685 529.907 12.5431C531.091 15.7193 529.491 19.4831 525.109 23.8356L491.717 57.7804V20.3057C491.717 17.3211 491.944 14.9671 492.397 13.2432L492.603 12.5431C493.225 10.9991 494.256 9.85967 495.693 9.12626L496.336 8.83816C497.89 8.22061 500.124 7.87329 503.039 7.79615L504.329 7.7773C504.683 7.77687 504.86 7.42454 504.86 6.71913C504.86 6.10212 504.725 5.75447 504.453 5.67712L504.329 5.66097C501.368 5.66097 497.992 5.77842 494.203 6.01369C490.414 6.13131 486.269 6.19139 481.77 6.1914V3.43424C486.217 3.43423 490.307 3.37429 494.043 3.25922C497.869 3.02184 501.3 2.90381 504.329 2.90381L504.768 2.93343C505.213 2.99361 505.673 3.15043 506.101 3.43424C506.655 3.80103 507.001 4.27679 507.21 4.69165C507.588 5.44396 507.635 6.22537 507.635 6.71913C507.635 7.21286 507.589 7.99403 507.21 8.74662C507.001 9.16187 506.655 9.63961 506.101 10.0067C505.53 10.3852 504.903 10.5343 504.329 10.5345C500.88 10.5345 498.643 10.8888 497.366 11.3961C496.32 11.8114 495.644 12.4705 495.214 13.4909C494.778 14.8382 494.493 17.0493 494.493 20.3057V51.0141L523.125 21.9077L523.147 21.8862C527.145 17.915 527.799 15.3611 527.397 13.8005L527.305 13.5016L527.272 13.4155C526.826 12.0861 525.158 10.5345 519.426 10.5345C518.851 10.5343 518.224 10.3852 517.653 10.0067C517.099 9.63962 516.753 9.16183 516.544 8.74662C516.166 7.99406 516.119 7.21284 516.119 6.71913Z" fill="url(#paint0_linear_20_365)"/>
<path d="M640.456 0C649.659 2.08437e-05 657.974 1.67975 665.341 5.10938H665.338C672.253 8.16383 678.217 12.2797 683.199 17.4609L684.185 18.5127C689.327 24.1559 693.224 30.5595 695.863 37.707C698.618 44.846 700 52.191 700 59.7246C699.999 68.4897 698.244 76.6792 694.709 84.2539C691.202 91.7696 686.374 98.352 680.24 103.985L680.238 103.982C674.233 109.607 667.241 114.036 659.287 117.268L659.267 117.276C651.381 120.406 643.007 121.961 634.17 121.961C625.782 121.961 618.035 120.595 610.961 117.824L609.553 117.251L609.529 117.24L609.501 117.227C602.683 114.17 596.724 110.055 591.646 104.881L590.643 103.835L590.619 103.81C585.477 98.1663 581.469 91.7086 578.594 84.459L578.583 84.4316L578.575 84.4072C575.819 77.0165 574.446 69.1999 574.446 60.9814C574.446 50.925 576.373 41.9755 580.317 34.2139L580.333 34.1816C584.337 26.5491 589.614 20.19 596.165 15.1455L597.386 14.2031C603.538 9.56411 610.25 6.06857 617.51 3.72656C625.191 1.24914 632.842 1.02015e-05 640.456 0ZM640.456 2.80566C633.154 2.80567 625.792 4.0035 618.371 6.39746L616.987 6.86035C610.099 9.25208 603.737 12.7493 597.901 17.3506C591.677 22.1386 586.649 28.1838 582.819 35.4854C579.108 42.787 577.252 51.286 577.251 60.9814L577.268 62.459C577.272 62.6595 577.279 62.8596 577.286 63.0596C577.301 63.3839 577.32 63.7255 577.349 64.0703C577.372 64.3398 577.385 64.5993 577.398 64.8535C578.157 71.1592 580.963 76.5601 585.739 81.2598C591.265 86.6983 598.715 89.8055 606.515 89.9453C607.8 92.7366 609.237 95.3523 610.828 97.791C614.538 103.177 618.849 107.366 623.756 110.358C628.469 113.052 633.551 114.483 639 114.651L640.097 114.668C646.381 114.668 652.034 112.985 657.056 109.618L658.05 108.923C663.317 105.092 667.447 99.4644 670.44 92.043C673.357 85.0857 674.91 76.7086 675.092 66.9111L675.109 64.9326C675.109 53.9202 673.432 44.1038 670.081 35.4854C669.419 33.7837 668.7 32.1548 667.926 30.5977C675.729 30.7355 683.182 33.8448 688.71 39.2852C693.756 44.2507 696.603 50.7944 697.16 57.7373C697.164 57.8515 697.165 57.9658 697.168 58.0801H697.184C697.176 57.9657 697.169 57.8514 697.16 57.7373C696.939 51.249 695.636 44.9082 693.246 38.7158C690.889 32.3191 687.479 26.5541 683.018 21.4199L682.112 20.4033C677.204 15.0171 671.22 10.7675 664.158 7.65527C657.649 4.62528 650.297 3.01455 642.105 2.8252L640.456 2.80566ZM664.829 30.7002C665.789 32.5171 666.669 34.4502 667.467 36.502L668.051 38.0605C670.871 45.9278 672.303 54.8738 672.303 64.9326C672.303 75.3269 670.783 83.9722 667.854 90.958L667.84 90.9961C664.999 98.0411 661.154 103.197 656.401 106.654C651.629 110.125 646.225 111.862 640.097 111.862C634.723 111.862 629.764 110.555 625.173 107.937C620.671 105.182 616.659 101.301 613.157 96.2236C611.859 94.2298 610.664 92.1047 609.573 89.8477C616.653 89.2665 623.329 86.2412 628.391 81.2598C633.87 75.8676 637.023 68.6143 637.215 61.0098L637.235 59.5352C637.427 51.9307 640.579 44.6773 646.058 39.2852C651.109 34.3149 657.766 31.2911 664.829 30.7002ZM634.897 7.68262C642.941 7.97717 649.881 10.4816 655.716 15.1943C660.712 19.1331 664.781 24.2686 667.926 30.5977C667.746 30.5945 667.565 30.5918 667.384 30.5918C666.528 30.5918 665.675 30.6293 664.829 30.7002C661.936 25.2287 658.311 20.8128 653.979 17.3975L653.955 17.3779C648.276 12.7916 641.432 10.4609 633.272 10.4609C623.208 10.4613 615.717 14.2113 610.422 21.666C605.013 29.2832 602.142 40.0698 602.142 54.3379L602.154 55.9268C602.27 63.8292 603.257 71.1236 605.093 77.8232C606.309 82.1842 607.804 86.1897 609.573 89.8477C608.742 89.9159 607.905 89.9531 607.065 89.9531C606.881 89.9531 606.698 89.9486 606.515 89.9453C604.899 86.4343 603.523 82.6449 602.389 78.5771C600.482 71.6196 599.469 64.0825 599.35 55.9678L599.336 54.3379C599.336 40.1912 602.09 29.0214 607.594 20.8281L608.134 20.0439C613.999 11.7849 622.38 7.65562 633.272 7.65527L634.897 7.68262Z" fill="url(#paint1_linear_20_365)"/>
<path d="M675.328 169.119L675.885 168.492H682.227L682.471 169.119H675.328ZM688.674 176.716C688.767 176.716 688.813 176.785 688.813 176.925C688.813 177.064 688.767 177.134 688.674 177.134C688.023 177.134 687.338 177.111 686.618 177.064C685.921 177.018 685.259 176.995 684.632 176.995C684.097 176.995 683.61 177.018 683.168 177.064C682.727 177.111 682.262 177.134 681.774 177.134C681.681 177.134 681.635 177.064 681.635 176.925C681.635 176.785 681.681 176.716 681.774 176.716C682.634 176.716 683.18 176.542 683.412 176.193C683.668 175.845 683.575 175.183 683.133 174.207L677.837 162.777L678.743 162.011L674.387 172.848C673.806 174.311 673.69 175.322 674.039 175.879C674.387 176.437 675.165 176.716 676.373 176.716C676.489 176.716 676.547 176.785 676.547 176.925C676.547 177.064 676.489 177.134 676.373 177.134C675.792 177.134 675.293 177.111 674.875 177.064C674.457 177.018 673.876 176.995 673.133 176.995C672.319 176.995 671.657 177.018 671.146 177.064C670.658 177.111 670.078 177.134 669.404 177.134C669.311 177.134 669.265 177.064 669.265 176.925C669.265 176.785 669.311 176.716 669.404 176.716C670.101 176.716 670.658 176.623 671.077 176.437C671.518 176.228 671.925 175.821 672.296 175.217C672.668 174.613 673.098 173.719 673.586 172.534L678.603 160.303C678.65 160.21 678.72 160.164 678.812 160.164C678.905 160.164 678.963 160.21 678.987 160.303L684.597 172.36C685.178 173.568 685.654 174.486 686.026 175.113C686.397 175.74 686.781 176.17 687.175 176.402C687.594 176.611 688.093 176.716 688.674 176.716Z" fill="#8A8A88"/>
<path d="M659.451 177.273C658.801 177.273 658.046 177.238 657.186 177.169C656.327 177.099 655.525 177.064 654.782 177.064C654.131 177.064 653.481 177.076 652.83 177.099C652.18 177.122 651.611 177.134 651.123 177.134C651.076 177.134 651.053 177.064 651.053 176.925C651.053 176.785 651.076 176.716 651.123 176.716C651.89 176.716 652.459 176.658 652.83 176.541C653.202 176.425 653.446 176.193 653.562 175.845C653.702 175.496 653.771 174.985 653.771 174.311V163.648C653.771 162.65 653.609 161.999 653.283 161.697C652.981 161.395 652.273 161.244 651.158 161.244C651.111 161.244 651.088 161.174 651.088 161.035C651.088 160.896 651.111 160.826 651.158 160.826C651.646 160.826 652.203 160.849 652.83 160.896C653.481 160.919 654.131 160.93 654.782 160.93C655.479 160.93 656.187 160.907 656.907 160.861C657.651 160.791 658.359 160.756 659.033 160.756C661.054 160.756 662.762 161.116 664.155 161.836C665.549 162.533 666.606 163.497 667.326 164.729C668.07 165.937 668.441 167.319 668.441 168.875C668.441 170.478 668.058 171.919 667.291 173.196C666.525 174.451 665.468 175.45 664.12 176.193C662.773 176.913 661.217 177.273 659.451 177.273ZM659.033 176.785C661.193 176.785 662.878 176.147 664.086 174.869C665.317 173.568 665.932 171.698 665.932 169.259C665.932 167.818 665.689 166.494 665.201 165.286C664.713 164.055 663.935 163.079 662.866 162.359C661.821 161.616 660.45 161.244 658.754 161.244C657.709 161.244 656.965 161.418 656.524 161.767C656.083 162.115 655.862 162.766 655.862 163.718V173.928C655.862 174.904 656.059 175.624 656.454 176.088C656.849 176.553 657.709 176.785 659.033 176.785Z" fill="#8A8A88"/>
<path d="M636.466 169.119L637.024 168.492H643.366L643.609 169.119H636.466ZM649.812 176.716C649.905 176.716 649.951 176.785 649.951 176.925C649.951 177.064 649.905 177.134 649.812 177.134C649.162 177.134 648.476 177.111 647.756 177.064C647.059 177.018 646.397 176.995 645.77 176.995C645.236 176.995 644.748 177.018 644.306 177.064C643.865 177.111 643.4 177.134 642.913 177.134C642.82 177.134 642.773 177.064 642.773 176.925C642.773 176.785 642.82 176.716 642.913 176.716C643.772 176.716 644.318 176.542 644.55 176.193C644.806 175.845 644.713 175.183 644.272 174.207L638.975 162.777L639.881 162.011L635.525 172.848C634.944 174.311 634.828 175.322 635.177 175.879C635.525 176.437 636.303 176.716 637.511 176.716C637.628 176.716 637.686 176.785 637.686 176.925C637.686 177.064 637.628 177.134 637.511 177.134C636.931 177.134 636.431 177.111 636.013 177.064C635.595 177.018 635.014 176.995 634.271 176.995C633.458 176.995 632.796 177.018 632.285 177.064C631.797 177.111 631.216 177.134 630.542 177.134C630.449 177.134 630.403 177.064 630.403 176.925C630.403 176.785 630.449 176.716 630.542 176.716C631.239 176.716 631.797 176.623 632.215 176.437C632.656 176.228 633.063 175.821 633.434 175.217C633.806 174.613 634.236 173.719 634.724 172.534L639.742 160.303C639.788 160.21 639.858 160.164 639.951 160.164C640.044 160.164 640.102 160.21 640.125 160.303L645.735 172.36C646.316 173.568 646.792 174.486 647.164 175.113C647.535 175.74 647.919 176.17 648.314 176.402C648.732 176.611 649.231 176.716 649.812 176.716Z" fill="#8A8A88"/>
<path d="M613.98 173.336V161.593L614.677 161.697V173.336C614.677 174.567 614.851 175.438 615.2 175.949C615.548 176.46 616.152 176.716 617.012 176.716C617.058 176.716 617.082 176.785 617.082 176.925C617.082 177.064 617.058 177.134 617.012 177.134C616.617 177.134 616.199 177.122 615.757 177.099C615.339 177.076 614.875 177.064 614.364 177.064C613.876 177.064 613.399 177.076 612.935 177.099C612.47 177.122 612.029 177.134 611.611 177.134C611.564 177.134 611.541 177.064 611.541 176.925C611.541 176.785 611.564 176.716 611.611 176.716C612.493 176.716 613.109 176.46 613.458 175.949C613.806 175.438 613.98 174.567 613.98 173.336ZM626.978 177.517C626.978 177.564 626.92 177.587 626.804 177.587C626.687 177.61 626.606 177.61 626.56 177.587L615.13 163.683C614.364 162.754 613.713 162.115 613.179 161.767C612.644 161.418 612.122 161.244 611.611 161.244C611.564 161.244 611.541 161.174 611.541 161.035C611.541 160.896 611.564 160.826 611.611 160.826C611.936 160.826 612.273 160.838 612.621 160.861C612.97 160.861 613.283 160.861 613.562 160.861C613.794 160.861 613.992 160.861 614.154 160.861C614.34 160.838 614.526 160.826 614.712 160.826C614.921 160.826 615.153 160.826 615.409 160.826C615.711 160.826 615.932 160.965 616.071 161.244C616.21 161.523 616.536 161.987 617.047 162.638L626.629 174.451L626.978 177.517ZM626.978 164.624V177.517L626.281 176.437V164.624C626.281 163.393 626.107 162.522 625.758 162.011C625.433 161.5 624.841 161.244 623.981 161.244C623.911 161.244 623.877 161.174 623.877 161.035C623.877 160.896 623.911 160.826 623.981 160.826C624.376 160.826 624.782 160.849 625.201 160.896C625.642 160.919 626.118 160.93 626.629 160.93C627.117 160.93 627.605 160.919 628.093 160.896C628.581 160.849 629.01 160.826 629.382 160.826C629.452 160.826 629.487 160.896 629.487 161.035C629.487 161.174 629.452 161.244 629.382 161.244C628.523 161.244 627.907 161.5 627.535 162.011C627.164 162.522 626.978 163.393 626.978 164.624Z" fill="#8A8A88"/>
<path d="M597.128 169.119L597.686 168.492H604.028L604.272 169.119H597.128ZM610.474 176.716C610.567 176.716 610.614 176.785 610.614 176.925C610.614 177.064 610.567 177.134 610.474 177.134C609.824 177.134 609.138 177.111 608.418 177.064C607.721 177.018 607.059 176.995 606.432 176.995C605.898 176.995 605.41 177.018 604.968 177.064C604.527 177.111 604.063 177.134 603.575 177.134C603.482 177.134 603.435 177.064 603.435 176.925C603.435 176.785 603.482 176.716 603.575 176.716C604.434 176.716 604.98 176.542 605.212 176.193C605.468 175.845 605.375 175.183 604.934 174.207L599.637 162.777L600.543 162.011L596.187 172.848C595.607 174.311 595.49 175.322 595.839 175.879C596.187 176.437 596.966 176.716 598.174 176.716C598.29 176.716 598.348 176.785 598.348 176.925C598.348 177.064 598.29 177.134 598.174 177.134C597.593 177.134 597.093 177.111 596.675 177.064C596.257 177.018 595.676 176.995 594.933 176.995C594.12 176.995 593.458 177.018 592.947 177.064C592.459 177.111 591.878 177.134 591.204 177.134C591.111 177.134 591.065 177.064 591.065 176.925C591.065 176.785 591.111 176.716 591.204 176.716C591.901 176.716 592.459 176.623 592.877 176.437C593.318 176.228 593.725 175.821 594.097 175.217C594.468 174.613 594.898 173.719 595.386 172.534L600.404 160.303C600.45 160.21 600.52 160.164 600.613 160.164C600.706 160.164 600.764 160.21 600.787 160.303L606.397 172.36C606.978 173.568 607.454 174.486 607.826 175.113C608.198 175.74 608.581 176.17 608.976 176.402C609.394 176.611 609.893 176.716 610.474 176.716Z" fill="#8A8A88"/>
<path d="M583.188 160.408C584.001 160.408 584.919 160.501 585.941 160.687C586.986 160.849 587.834 161.093 588.485 161.418C588.671 161.488 588.775 161.558 588.798 161.627C588.845 161.697 588.88 161.825 588.903 162.011L589.251 165.6C589.251 165.67 589.182 165.716 589.042 165.739C588.926 165.763 588.856 165.728 588.833 165.635C588.392 164.009 587.614 162.824 586.498 162.08C585.383 161.314 584.036 160.931 582.456 160.931C581.248 160.931 580.157 161.256 579.181 161.906C578.228 162.533 577.473 163.416 576.916 164.555C576.358 165.67 576.08 166.947 576.08 168.388C576.08 169.433 576.231 170.467 576.533 171.489C576.835 172.511 577.288 173.452 577.892 174.311C578.496 175.148 579.251 175.821 580.157 176.332C581.086 176.82 582.166 177.064 583.397 177.064C584.791 177.064 585.987 176.681 586.986 175.914C587.985 175.148 588.705 173.928 589.147 172.255C589.17 172.163 589.24 172.128 589.356 172.151C589.495 172.174 589.565 172.221 589.565 172.29L589.112 175.984C589.089 176.17 589.054 176.298 589.007 176.367C588.961 176.437 588.833 176.518 588.624 176.611C587.625 176.96 586.638 177.204 585.662 177.343C584.71 177.482 583.839 177.552 583.049 177.552C581.283 177.552 579.796 177.285 578.588 176.751C577.38 176.193 576.405 175.485 575.661 174.625C574.941 173.742 574.419 172.801 574.093 171.802C573.768 170.78 573.605 169.816 573.605 168.91C573.605 167.284 574.024 165.832 574.86 164.555C575.719 163.277 576.869 162.266 578.31 161.523C579.75 160.78 581.376 160.408 583.188 160.408Z" fill="#8A8A88"/>
<path d="M554.176 176.716C554.222 176.716 554.245 176.786 554.245 176.925C554.245 177.064 554.222 177.134 554.176 177.134C553.665 177.134 553.107 177.122 552.503 177.099C551.899 177.076 551.225 177.064 550.482 177.064C549.831 177.064 549.181 177.076 548.531 177.099C547.88 177.122 547.311 177.134 546.823 177.134C546.777 177.134 546.753 177.064 546.753 176.925C546.753 176.786 546.777 176.716 546.823 176.716C547.566 176.716 548.124 176.658 548.496 176.542C548.867 176.425 549.123 176.193 549.262 175.845C549.402 175.496 549.471 174.985 549.471 174.312V163.649C549.471 162.65 549.309 161.999 548.984 161.697C548.682 161.395 547.973 161.244 546.858 161.244C546.812 161.244 546.788 161.175 546.788 161.035C546.788 160.896 546.812 160.826 546.858 160.826C547.346 160.826 547.903 160.849 548.531 160.896C549.181 160.919 549.831 160.931 550.482 160.931C551.109 160.931 551.806 160.896 552.573 160.826C553.339 160.756 554.025 160.722 554.629 160.722C556.139 160.722 557.289 161.012 558.078 161.593C558.868 162.173 559.263 163.01 559.263 164.102C559.263 165.077 558.973 165.972 558.392 166.785C557.834 167.575 557.079 168.213 556.127 168.701C555.198 169.166 554.129 169.398 552.921 169.398C552.619 169.398 552.294 169.387 551.946 169.363C551.62 169.34 551.307 169.305 551.005 169.259L550.97 168.562C551.295 168.655 551.609 168.725 551.911 168.771C552.236 168.794 552.654 168.806 553.165 168.806C554.698 168.806 555.72 168.469 556.232 167.795C556.766 167.098 557.033 166.181 557.033 165.042C557.033 162.487 555.93 161.209 553.723 161.209C552.77 161.209 552.178 161.418 551.946 161.837C551.713 162.255 551.597 162.882 551.597 163.718V174.312C551.597 174.985 551.655 175.496 551.771 175.845C551.887 176.193 552.131 176.425 552.503 176.542C552.875 176.658 553.432 176.716 554.176 176.716ZM564.525 176.716C564.571 176.716 564.595 176.786 564.595 176.925C564.595 177.064 564.571 177.134 564.525 177.134C563.48 177.134 562.608 177.134 561.911 177.134C561.215 177.134 560.727 177.134 560.448 177.134C560.03 177.134 559.263 176.414 558.148 174.974C557.056 173.51 555.767 171.535 554.28 169.05L556.127 168.318C557.428 170.455 558.543 172.139 559.472 173.371C560.401 174.579 561.261 175.438 562.051 175.949C562.841 176.46 563.665 176.716 564.525 176.716Z" fill="#8A8A88"/>
<path d="M530.659 177.134C530.613 177.134 530.589 177.064 530.589 176.925C530.589 176.785 530.613 176.716 530.659 176.716C531.402 176.716 531.96 176.658 532.332 176.541C532.703 176.425 532.947 176.193 533.063 175.845C533.18 175.496 533.238 174.985 533.238 174.311V163.648C533.238 162.975 533.18 162.475 533.063 162.15C532.947 161.802 532.703 161.569 532.332 161.453C531.96 161.314 531.402 161.244 530.659 161.244C530.613 161.244 530.589 161.174 530.589 161.035C530.589 160.896 530.613 160.826 530.659 160.826H542.785C543.018 160.826 543.134 160.919 543.134 161.105C543.134 161.685 543.146 162.359 543.169 163.126C543.192 163.892 543.204 164.496 543.204 164.938C543.204 165.007 543.134 165.042 542.995 165.042C542.855 165.042 542.785 165.007 542.785 164.938C542.693 163.869 542.309 162.998 541.636 162.324C540.962 161.627 540.114 161.279 539.092 161.279H538.116C537.35 161.279 536.769 161.349 536.374 161.488C535.979 161.604 535.712 161.836 535.572 162.185C535.433 162.51 535.363 163.01 535.363 163.683V174.172C535.363 174.822 535.433 175.322 535.572 175.67C535.712 176.019 535.979 176.263 536.374 176.402C536.769 176.518 537.35 176.576 538.116 176.576H539.789C540.439 176.576 541.032 176.402 541.566 176.054C542.123 175.705 542.588 175.229 542.96 174.625C543.355 173.998 543.633 173.289 543.796 172.499C543.796 172.43 543.854 172.395 543.97 172.395C544.11 172.395 544.179 172.43 544.179 172.499C544.133 173.034 544.075 173.684 544.005 174.451C543.959 175.217 543.935 175.937 543.935 176.611C543.935 176.96 543.761 177.134 543.413 177.134H530.659ZM541.392 169.642C541.275 169.642 540.997 169.607 540.555 169.537C540.114 169.445 539.417 169.363 538.465 169.294C537.512 169.224 536.188 169.189 534.492 169.189V168.457C536.188 168.457 537.512 168.434 538.465 168.388C539.417 168.318 540.114 168.26 540.555 168.213C540.997 168.144 541.275 168.109 541.392 168.109C541.461 168.109 541.508 168.19 541.531 168.353C541.554 168.492 541.566 168.655 541.566 168.841C541.566 169.05 541.554 169.235 541.531 169.398C541.508 169.561 541.461 169.642 541.392 169.642Z" fill="#8A8A88"/>
<path d="M529.588 160.826C529.634 160.826 529.657 160.896 529.657 161.035C529.657 161.174 529.634 161.244 529.588 161.244C528.937 161.244 528.368 161.43 527.88 161.802C527.392 162.15 526.963 162.812 526.591 163.788L521.329 177.099C521.306 177.192 521.178 177.238 520.946 177.238C520.737 177.238 520.609 177.192 520.563 177.099L514.221 163.718C513.779 162.766 513.384 162.115 513.036 161.767C512.687 161.418 512.2 161.244 511.572 161.244C511.503 161.244 511.468 161.174 511.468 161.035C511.468 160.896 511.503 160.826 511.572 160.826C511.898 160.826 512.211 160.838 512.513 160.861C512.815 160.861 513.117 160.872 513.419 160.896C513.744 160.919 514.081 160.93 514.43 160.93C515.173 160.93 515.824 160.919 516.381 160.896C516.939 160.849 517.461 160.826 517.949 160.826C517.996 160.826 518.019 160.896 518.019 161.035C518.019 161.174 517.996 161.244 517.949 161.244C517.206 161.244 516.671 161.407 516.346 161.732C516.044 162.034 516.067 162.58 516.416 163.37L521.922 174.764L520.841 176.716L525.859 163.579C526.161 162.766 526.161 162.173 525.859 161.802C525.557 161.43 524.86 161.244 523.768 161.244C523.699 161.244 523.664 161.174 523.664 161.035C523.664 160.896 523.699 160.826 523.768 160.826C524.256 160.826 524.721 160.849 525.162 160.896C525.604 160.919 526.184 160.93 526.905 160.93C527.462 160.93 527.915 160.919 528.264 160.896C528.635 160.849 529.077 160.826 529.588 160.826Z" fill="#8A8A88"/>
<path d="M507.979 164.241C507.979 163.079 507.793 162.289 507.421 161.871C507.049 161.453 506.329 161.244 505.261 161.244C505.191 161.244 505.156 161.174 505.156 161.035C505.156 160.896 505.191 160.826 505.261 160.826C505.748 160.826 506.236 160.849 506.724 160.896C507.212 160.919 507.746 160.93 508.327 160.93C508.792 160.93 509.268 160.919 509.756 160.896C510.267 160.849 510.72 160.826 511.115 160.826C511.161 160.826 511.184 160.896 511.184 161.035C511.184 161.174 511.161 161.244 511.115 161.244C510.185 161.244 509.547 161.453 509.198 161.871C508.873 162.289 508.71 163.079 508.71 164.241V170.722C508.71 172.906 508.095 174.602 506.864 175.81C505.632 176.994 504.018 177.587 502.02 177.587C500.742 177.587 499.569 177.331 498.5 176.82C497.432 176.309 496.572 175.566 495.922 174.59C495.295 173.614 494.981 172.441 494.981 171.071V163.648C494.981 162.65 494.818 161.999 494.493 161.697C494.191 161.395 493.494 161.244 492.402 161.244C492.333 161.244 492.298 161.174 492.298 161.035C492.298 160.896 492.333 160.826 492.402 160.826C492.89 160.826 493.448 160.849 494.075 160.896C494.702 160.919 495.329 160.93 495.957 160.93C496.677 160.93 497.351 160.919 497.978 160.896C498.605 160.849 499.163 160.826 499.65 160.826C499.72 160.826 499.755 160.896 499.755 161.035C499.755 161.174 499.72 161.244 499.65 161.244C498.535 161.244 497.815 161.407 497.49 161.732C497.188 162.057 497.037 162.719 497.037 163.718V170.165C497.037 171.675 497.304 172.894 497.838 173.823C498.373 174.753 499.081 175.438 499.964 175.879C500.847 176.298 501.799 176.507 502.821 176.507C504.424 176.507 505.679 176.03 506.585 175.078C507.514 174.102 507.979 172.674 507.979 170.792V164.241Z" fill="#8A8A88"/>
<path d="M480.968 177.552C479.296 177.552 477.832 177.169 476.578 176.402C475.323 175.612 474.348 174.579 473.651 173.301C472.977 172 472.64 170.594 472.64 169.084C472.64 167.667 472.919 166.425 473.476 165.356C474.034 164.264 474.777 163.358 475.707 162.638C476.659 161.895 477.693 161.337 478.808 160.965C479.923 160.594 481.015 160.408 482.083 160.408C483.361 160.408 484.499 160.652 485.498 161.14C486.497 161.604 487.345 162.231 488.042 163.021C488.762 163.811 489.308 164.706 489.68 165.704C490.052 166.68 490.237 167.691 490.237 168.736C490.237 169.921 489.993 171.047 489.506 172.116C489.018 173.185 488.344 174.126 487.485 174.939C486.648 175.752 485.673 176.391 484.557 176.855C483.442 177.32 482.246 177.552 480.968 177.552ZM481.874 176.82C483.663 176.82 485.103 176.193 486.195 174.939C487.287 173.661 487.833 171.884 487.833 169.607C487.833 168.074 487.566 166.669 487.032 165.391C486.497 164.113 485.719 163.091 484.697 162.324C483.675 161.535 482.409 161.14 480.899 161.14C479.04 161.14 477.6 161.767 476.578 163.021C475.556 164.276 475.044 166.006 475.044 168.213C475.044 169.793 475.312 171.233 475.846 172.534C476.403 173.835 477.193 174.881 478.215 175.67C479.238 176.437 480.457 176.82 481.874 176.82Z" fill="#8A8A88"/>
<path d="M463.711 160.408C464.524 160.408 465.442 160.501 466.464 160.687C467.509 160.849 468.357 161.093 469.008 161.418C469.193 161.488 469.298 161.558 469.321 161.627C469.368 161.697 469.403 161.825 469.426 162.011L469.774 165.6C469.774 165.67 469.705 165.716 469.565 165.739C469.449 165.763 469.379 165.728 469.356 165.635C468.915 164.009 468.136 162.824 467.021 162.08C465.906 161.314 464.559 160.931 462.979 160.931C461.771 160.931 460.679 161.256 459.704 161.906C458.751 162.533 457.996 163.416 457.439 164.555C456.881 165.67 456.602 166.947 456.602 168.388C456.602 169.433 456.753 170.467 457.055 171.489C457.357 172.511 457.81 173.452 458.414 174.311C459.018 175.148 459.773 175.821 460.679 176.332C461.609 176.82 462.689 177.064 463.92 177.064C465.314 177.064 466.51 176.681 467.509 175.914C468.508 175.148 469.228 173.928 469.67 172.255C469.693 172.163 469.763 172.128 469.879 172.151C470.018 172.174 470.088 172.221 470.088 172.29L469.635 175.984C469.612 176.17 469.577 176.298 469.53 176.367C469.484 176.437 469.356 176.518 469.147 176.611C468.148 176.96 467.161 177.204 466.185 177.343C465.233 177.482 464.362 177.552 463.572 177.552C461.806 177.552 460.319 177.285 459.111 176.751C457.903 176.193 456.928 175.485 456.184 174.625C455.464 173.742 454.941 172.801 454.616 171.802C454.291 170.78 454.128 169.816 454.128 168.91C454.128 167.284 454.547 165.832 455.383 164.555C456.242 163.277 457.392 162.266 458.833 161.523C460.273 160.78 461.899 160.408 463.711 160.408Z" fill="#8A8A88"/>
<path d="M436.415 173.336V161.593L437.112 161.697V173.336C437.112 174.567 437.286 175.438 437.634 175.949C437.983 176.46 438.587 176.716 439.446 176.716C439.493 176.716 439.516 176.785 439.516 176.925C439.516 177.064 439.493 177.134 439.446 177.134C439.051 177.134 438.633 177.122 438.192 177.099C437.774 177.076 437.309 177.064 436.798 177.064C436.31 177.064 435.834 177.076 435.369 177.099C434.905 177.122 434.463 177.134 434.045 177.134C433.999 177.134 433.976 177.064 433.976 176.925C433.976 176.785 433.999 176.716 434.045 176.716C434.928 176.716 435.544 176.46 435.892 175.949C436.241 175.438 436.415 174.567 436.415 173.336ZM449.412 177.517C449.412 177.564 449.354 177.587 449.238 177.587C449.122 177.61 449.041 177.61 448.994 177.587L437.565 163.683C436.798 162.754 436.148 162.115 435.613 161.767C435.079 161.418 434.556 161.244 434.045 161.244C433.999 161.244 433.976 161.174 433.976 161.035C433.976 160.896 433.999 160.826 434.045 160.826C434.371 160.826 434.707 160.838 435.056 160.861C435.404 160.861 435.718 160.861 435.997 160.861C436.229 160.861 436.426 160.861 436.589 160.861C436.775 160.838 436.961 160.826 437.147 160.826C437.356 160.826 437.588 160.826 437.843 160.826C438.145 160.826 438.366 160.965 438.506 161.244C438.645 161.523 438.97 161.987 439.481 162.638L449.064 174.451L449.412 177.517ZM449.412 164.624V177.517L448.715 176.437V164.624C448.715 163.393 448.541 162.522 448.193 162.011C447.868 161.5 447.275 161.244 446.416 161.244C446.346 161.244 446.311 161.174 446.311 161.035C446.311 160.896 446.346 160.826 446.416 160.826C446.811 160.826 447.217 160.849 447.635 160.896C448.077 160.919 448.553 160.93 449.064 160.93C449.552 160.93 450.04 160.919 450.527 160.896C451.015 160.849 451.445 160.826 451.817 160.826C451.886 160.826 451.921 160.896 451.921 161.035C451.921 161.174 451.886 161.244 451.817 161.244C450.957 161.244 450.342 161.5 449.97 162.011C449.598 162.522 449.412 163.393 449.412 164.624Z" fill="#8A8A88"/>
<path d="M419.563 169.119L420.121 168.492H426.463L426.707 169.119H419.563ZM432.909 176.716C433.002 176.716 433.049 176.785 433.049 176.925C433.049 177.064 433.002 177.134 432.909 177.134C432.259 177.134 431.573 177.111 430.853 177.064C430.156 177.018 429.494 176.995 428.867 176.995C428.333 176.995 427.845 177.018 427.404 177.064C426.962 177.111 426.498 177.134 426.01 177.134C425.917 177.134 425.87 177.064 425.87 176.925C425.87 176.785 425.917 176.716 426.01 176.716C426.869 176.716 427.415 176.542 427.647 176.193C427.903 175.845 427.81 175.183 427.369 174.207L422.072 162.777L422.978 162.011L418.622 172.848C418.042 174.311 417.925 175.322 418.274 175.879C418.622 176.437 419.401 176.716 420.609 176.716C420.725 176.716 420.783 176.785 420.783 176.925C420.783 177.064 420.725 177.134 420.609 177.134C420.028 177.134 419.528 177.111 419.11 177.064C418.692 177.018 418.111 176.995 417.368 176.995C416.555 176.995 415.893 177.018 415.382 177.064C414.894 177.111 414.313 177.134 413.639 177.134C413.546 177.134 413.5 177.064 413.5 176.925C413.5 176.785 413.546 176.716 413.639 176.716C414.336 176.716 414.894 176.623 415.312 176.437C415.753 176.228 416.16 175.821 416.532 175.217C416.903 174.613 417.333 173.719 417.821 172.534L422.839 160.303C422.885 160.21 422.955 160.164 423.048 160.164C423.141 160.164 423.199 160.21 423.222 160.303L428.832 172.36C429.413 173.568 429.889 174.486 430.261 175.113C430.633 175.74 431.016 176.17 431.411 176.402C431.829 176.611 432.328 176.716 432.909 176.716Z" fill="#8A8A88"/>
<path d="M415.862 160.826C415.908 160.826 415.931 160.896 415.931 161.035C415.931 161.174 415.908 161.244 415.862 161.244C415.211 161.244 414.642 161.43 414.154 161.802C413.666 162.15 413.237 162.812 412.865 163.788L407.603 177.099C407.58 177.192 407.452 177.238 407.22 177.238C407.011 177.238 406.883 177.192 406.837 177.099L400.495 163.718C400.053 162.766 399.658 162.115 399.31 161.767C398.961 161.418 398.473 161.244 397.846 161.244C397.777 161.244 397.742 161.174 397.742 161.035C397.742 160.896 397.777 160.826 397.846 160.826C398.171 160.826 398.485 160.838 398.787 160.861C399.089 160.861 399.391 160.872 399.693 160.896C400.018 160.919 400.355 160.93 400.704 160.93C401.447 160.93 402.097 160.919 402.655 160.896C403.213 160.849 403.735 160.826 404.223 160.826C404.27 160.826 404.293 160.896 404.293 161.035C404.293 161.174 404.27 161.244 404.223 161.244C403.48 161.244 402.945 161.407 402.62 161.732C402.318 162.034 402.341 162.58 402.69 163.37L408.195 174.764L407.115 176.716L412.133 163.579C412.435 162.766 412.435 162.173 412.133 161.802C411.831 161.43 411.134 161.244 410.042 161.244C409.973 161.244 409.938 161.174 409.938 161.035C409.938 160.896 409.973 160.826 410.042 160.826C410.53 160.826 410.995 160.849 411.436 160.896C411.878 160.919 412.458 160.93 413.178 160.93C413.736 160.93 414.189 160.919 414.537 160.896C414.909 160.849 415.351 160.826 415.862 160.826Z" fill="#8A8A88"/>
<path d="M378.158 177.517C377.694 177.517 377.322 177.389 377.043 177.134C376.764 176.855 376.625 176.483 376.625 176.019C376.625 175.577 376.764 175.229 377.043 174.973C377.322 174.695 377.694 174.555 378.158 174.555C378.646 174.555 379.018 174.695 379.273 174.973C379.529 175.229 379.657 175.577 379.657 176.019C379.657 176.483 379.529 176.855 379.273 177.134C379.018 177.389 378.646 177.517 378.158 177.517Z" fill="#8A8A88"/>
<path d="M366.796 160.408C367.609 160.408 368.526 160.501 369.548 160.687C370.594 160.849 371.442 161.093 372.092 161.418C372.278 161.488 372.383 161.558 372.406 161.627C372.452 161.697 372.487 161.825 372.51 162.011L372.859 165.6C372.859 165.67 372.789 165.716 372.65 165.739C372.534 165.763 372.464 165.728 372.441 165.635C371.999 164.009 371.221 162.824 370.106 162.08C368.991 161.314 367.643 160.931 366.064 160.931C364.856 160.931 363.764 161.256 362.788 161.906C361.836 162.533 361.081 163.416 360.523 164.555C359.966 165.67 359.687 166.947 359.687 168.388C359.687 169.433 359.838 170.467 360.14 171.489C360.442 172.511 360.895 173.452 361.499 174.311C362.103 175.148 362.858 175.821 363.764 176.332C364.693 176.82 365.773 177.064 367.005 177.064C368.398 177.064 369.595 176.681 370.594 175.914C371.593 175.148 372.313 173.928 372.754 172.255C372.777 172.163 372.847 172.128 372.963 172.151C373.103 172.174 373.172 172.221 373.172 172.29L372.719 175.984C372.696 176.17 372.661 176.298 372.615 176.367C372.568 176.437 372.441 176.518 372.232 176.611C371.233 176.96 370.245 177.204 369.27 177.343C368.317 177.482 367.446 177.552 366.656 177.552C364.891 177.552 363.404 177.285 362.196 176.751C360.988 176.193 360.012 175.485 359.269 174.625C358.549 173.742 358.026 172.801 357.701 171.802C357.376 170.78 357.213 169.816 357.213 168.91C357.213 167.284 357.631 165.832 358.467 164.555C359.327 163.277 360.477 162.266 361.917 161.523C363.357 160.78 364.984 160.408 366.796 160.408Z" fill="#8A8A88"/>
<path d="M339.5 173.336V161.593L340.197 161.697V173.336C340.197 174.567 340.371 175.438 340.719 175.949C341.068 176.46 341.672 176.716 342.531 176.716C342.578 176.716 342.601 176.785 342.601 176.925C342.601 177.064 342.578 177.134 342.531 177.134C342.136 177.134 341.718 177.122 341.277 177.099C340.859 177.076 340.394 177.064 339.883 177.064C339.395 177.064 338.919 177.076 338.454 177.099C337.99 177.122 337.548 177.134 337.13 177.134C337.084 177.134 337.061 177.064 337.061 176.925C337.061 176.785 337.084 176.716 337.13 176.716C338.013 176.716 338.629 176.46 338.977 175.949C339.326 175.438 339.5 174.567 339.5 173.336ZM352.497 177.517C352.497 177.564 352.439 177.587 352.323 177.587C352.207 177.61 352.126 177.61 352.079 177.587L340.65 163.683C339.883 162.754 339.233 162.115 338.698 161.767C338.164 161.418 337.641 161.244 337.13 161.244C337.084 161.244 337.061 161.174 337.061 161.035C337.061 160.896 337.084 160.826 337.13 160.826C337.455 160.826 337.792 160.838 338.141 160.861C338.489 160.861 338.803 160.861 339.082 160.861C339.314 160.861 339.511 160.861 339.674 160.861C339.86 160.838 340.046 160.826 340.232 160.826C340.441 160.826 340.673 160.826 340.928 160.826C341.23 160.826 341.451 160.965 341.591 161.244C341.73 161.523 342.055 161.987 342.566 162.638L352.149 174.451L352.497 177.517ZM352.497 164.624V177.517L351.8 176.437V164.624C351.8 163.393 351.626 162.522 351.278 162.011C350.953 161.5 350.36 161.244 349.501 161.244C349.431 161.244 349.396 161.174 349.396 161.035C349.396 160.896 349.431 160.826 349.501 160.826C349.896 160.826 350.302 160.849 350.72 160.896C351.162 160.919 351.638 160.93 352.149 160.93C352.637 160.93 353.125 160.919 353.612 160.896C354.1 160.849 354.53 160.826 354.902 160.826C354.971 160.826 355.006 160.896 355.006 161.035C355.006 161.174 354.971 161.244 354.902 161.244C354.042 161.244 353.427 161.5 353.055 162.011C352.683 162.522 352.497 163.393 352.497 164.624Z" fill="#8A8A88"/>
<path d="M332.078 174.311C332.078 174.985 332.136 175.496 332.252 175.845C332.392 176.193 332.647 176.425 333.019 176.541C333.39 176.658 333.948 176.716 334.691 176.716C334.738 176.716 334.761 176.785 334.761 176.925C334.761 177.064 334.738 177.134 334.691 177.134C334.18 177.134 333.611 177.122 332.984 177.099C332.38 177.076 331.706 177.064 330.963 177.064C330.312 177.064 329.662 177.076 329.012 177.099C328.361 177.122 327.792 177.134 327.304 177.134C327.258 177.134 327.234 177.064 327.234 176.925C327.234 176.785 327.258 176.716 327.304 176.716C328.071 176.716 328.64 176.658 329.012 176.541C329.383 176.425 329.627 176.193 329.743 175.845C329.859 175.496 329.918 174.985 329.918 174.311V163.648C329.918 162.975 329.859 162.475 329.743 162.15C329.627 161.802 329.383 161.569 329.012 161.453C328.64 161.314 328.071 161.244 327.304 161.244C327.258 161.244 327.234 161.174 327.234 161.035C327.234 160.896 327.258 160.826 327.304 160.826C327.792 160.826 328.361 160.849 329.012 160.896C329.662 160.919 330.312 160.93 330.963 160.93C331.706 160.93 332.392 160.919 333.019 160.896C333.646 160.849 334.204 160.826 334.691 160.826C334.738 160.826 334.761 160.896 334.761 161.035C334.761 161.174 334.738 161.244 334.691 161.244C333.576 161.244 332.856 161.407 332.531 161.732C332.229 162.057 332.078 162.719 332.078 163.718V174.311Z" fill="#8A8A88"/>
<path d="M308.141 163.649C308.141 164.392 308.327 165.031 308.698 165.565C309.093 166.076 309.604 166.529 310.232 166.924C310.859 167.296 311.509 167.656 312.183 168.004C312.903 168.376 313.588 168.771 314.239 169.189C314.913 169.607 315.458 170.107 315.877 170.687C316.295 171.268 316.504 172 316.504 172.883C316.504 173.742 316.272 174.532 315.807 175.252C315.342 175.949 314.669 176.507 313.786 176.925C312.926 177.343 311.881 177.552 310.65 177.552C309.906 177.552 309.175 177.448 308.454 177.238C307.734 177.053 307.072 176.751 306.468 176.332C306.352 176.286 306.271 176.205 306.224 176.089C306.201 175.972 306.178 175.833 306.155 175.67L305.806 172.221C305.783 172.104 305.829 172.046 305.945 172.046C306.085 172.023 306.178 172.058 306.224 172.151C306.433 173.01 306.782 173.812 307.27 174.555C307.781 175.299 308.385 175.891 309.082 176.332C309.802 176.774 310.568 176.995 311.381 176.995C311.846 176.995 312.311 176.902 312.775 176.716C313.24 176.53 313.623 176.228 313.925 175.81C314.227 175.392 314.378 174.811 314.378 174.067C314.378 173.254 314.181 172.569 313.786 172.012C313.391 171.454 312.88 170.966 312.253 170.548C311.625 170.13 310.975 169.747 310.301 169.398C309.604 169.003 308.942 168.608 308.315 168.213C307.688 167.795 307.165 167.307 306.747 166.75C306.352 166.169 306.155 165.461 306.155 164.624C306.155 163.695 306.398 162.928 306.886 162.324C307.397 161.697 308.048 161.221 308.838 160.896C309.651 160.57 310.51 160.408 311.416 160.408C311.951 160.408 312.508 160.466 313.089 160.582C313.693 160.698 314.297 160.907 314.901 161.209C315.087 161.302 315.215 161.384 315.284 161.453C315.354 161.523 315.4 161.639 315.424 161.802L315.633 164.833C315.633 164.926 315.575 164.984 315.458 165.008C315.342 165.031 315.261 164.996 315.215 164.903C315.145 164.508 314.982 164.078 314.727 163.614C314.494 163.149 314.181 162.719 313.786 162.324C313.414 161.906 312.973 161.569 312.462 161.314C311.951 161.058 311.393 160.931 310.789 160.931C309.953 160.931 309.302 161.198 308.838 161.732C308.373 162.243 308.141 162.882 308.141 163.649Z" fill="#8A8A88"/>
<path d="M289.119 177.134C289.073 177.134 289.049 177.064 289.049 176.925C289.049 176.785 289.073 176.716 289.119 176.716C289.862 176.716 290.42 176.658 290.792 176.541C291.163 176.425 291.407 176.193 291.523 175.845C291.64 175.496 291.698 174.985 291.698 174.311V163.648C291.698 162.975 291.64 162.475 291.523 162.15C291.407 161.802 291.163 161.569 290.792 161.453C290.42 161.314 289.862 161.244 289.119 161.244C289.073 161.244 289.049 161.174 289.049 161.035C289.049 160.896 289.073 160.826 289.119 160.826H301.245C301.478 160.826 301.594 160.919 301.594 161.105C301.594 161.685 301.605 162.359 301.629 163.126C301.652 163.892 301.664 164.496 301.664 164.938C301.664 165.007 301.594 165.042 301.454 165.042C301.315 165.042 301.245 165.007 301.245 164.938C301.152 163.869 300.769 162.998 300.095 162.324C299.422 161.627 298.574 161.279 297.552 161.279H296.576C295.809 161.279 295.229 161.349 294.834 161.488C294.439 161.604 294.172 161.836 294.032 162.185C293.893 162.51 293.823 163.01 293.823 163.683V174.172C293.823 174.822 293.893 175.322 294.032 175.67C294.172 176.019 294.439 176.263 294.834 176.402C295.229 176.518 295.809 176.576 296.576 176.576H298.249C298.899 176.576 299.492 176.402 300.026 176.054C300.583 175.705 301.048 175.229 301.42 174.625C301.815 173.998 302.093 173.289 302.256 172.499C302.256 172.43 302.314 172.395 302.43 172.395C302.57 172.395 302.639 172.43 302.639 172.499C302.593 173.034 302.535 173.684 302.465 174.451C302.419 175.217 302.395 175.937 302.395 176.611C302.395 176.96 302.221 177.134 301.873 177.134H289.119ZM299.852 169.642C299.735 169.642 299.457 169.607 299.015 169.537C298.574 169.445 297.877 169.363 296.925 169.294C295.972 169.224 294.648 169.189 292.952 169.189V168.457C294.648 168.457 295.972 168.434 296.925 168.388C297.877 168.318 298.574 168.26 299.015 168.213C299.457 168.144 299.735 168.109 299.852 168.109C299.921 168.109 299.968 168.19 299.991 168.353C300.014 168.492 300.026 168.655 300.026 168.841C300.026 169.05 300.014 169.235 299.991 169.398C299.968 169.561 299.921 169.642 299.852 169.642Z" fill="#8A8A88"/>
<path d="M278.331 163.649C278.331 164.392 278.517 165.031 278.889 165.565C279.284 166.076 279.795 166.529 280.422 166.924C281.049 167.296 281.7 167.656 282.373 168.004C283.093 168.376 283.779 168.771 284.429 169.189C285.103 169.607 285.649 170.107 286.067 170.687C286.485 171.268 286.694 172 286.694 172.883C286.694 173.742 286.462 174.532 285.997 175.252C285.533 175.949 284.859 176.507 283.976 176.925C283.117 177.343 282.071 177.552 280.84 177.552C280.097 177.552 279.365 177.448 278.645 177.238C277.925 177.053 277.263 176.751 276.659 176.332C276.542 176.286 276.461 176.205 276.415 176.089C276.391 175.972 276.368 175.833 276.345 175.67L275.997 172.221C275.973 172.104 276.02 172.046 276.136 172.046C276.275 172.023 276.368 172.058 276.415 172.151C276.624 173.01 276.972 173.812 277.46 174.555C277.971 175.299 278.575 175.891 279.272 176.332C279.992 176.774 280.759 176.995 281.572 176.995C282.037 176.995 282.501 176.902 282.966 176.716C283.43 176.53 283.814 176.228 284.116 175.81C284.418 175.392 284.569 174.811 284.569 174.067C284.569 173.254 284.371 172.569 283.976 172.012C283.581 171.454 283.07 170.966 282.443 170.548C281.816 170.13 281.165 169.747 280.492 169.398C279.795 169.003 279.133 168.608 278.505 168.213C277.878 167.795 277.356 167.307 276.937 166.75C276.542 166.169 276.345 165.461 276.345 164.624C276.345 163.695 276.589 162.928 277.077 162.324C277.588 161.697 278.238 161.221 279.028 160.896C279.841 160.57 280.701 160.408 281.607 160.408C282.141 160.408 282.699 160.466 283.279 160.582C283.883 160.698 284.487 160.907 285.091 161.209C285.277 161.302 285.405 161.384 285.475 161.453C285.544 161.523 285.591 161.639 285.614 161.802L285.823 164.833C285.823 164.926 285.765 164.984 285.649 165.008C285.533 165.031 285.451 164.996 285.405 164.903C285.335 164.508 285.173 164.078 284.917 163.614C284.685 163.149 284.371 162.719 283.976 162.324C283.605 161.906 283.163 161.569 282.652 161.314C282.141 161.058 281.584 160.931 280.98 160.931C280.143 160.931 279.493 161.198 279.028 161.732C278.564 162.243 278.331 162.882 278.331 163.649Z" fill="#8A8A88"/>
<path d="M270.247 174.311C270.247 174.985 270.305 175.496 270.421 175.845C270.561 176.193 270.816 176.425 271.188 176.541C271.559 176.658 272.117 176.716 272.86 176.716C272.907 176.716 272.93 176.785 272.93 176.925C272.93 177.064 272.907 177.134 272.86 177.134C272.349 177.134 271.78 177.122 271.153 177.099C270.549 177.076 269.875 177.064 269.132 177.064C268.481 177.064 267.831 177.076 267.18 177.099C266.53 177.122 265.961 177.134 265.473 177.134C265.427 177.134 265.403 177.064 265.403 176.925C265.403 176.785 265.427 176.716 265.473 176.716C266.24 176.716 266.809 176.658 267.18 176.541C267.552 176.425 267.796 176.193 267.912 175.845C268.028 175.496 268.086 174.985 268.086 174.311V163.648C268.086 162.975 268.028 162.475 267.912 162.15C267.796 161.802 267.552 161.569 267.18 161.453C266.809 161.314 266.24 161.244 265.473 161.244C265.427 161.244 265.403 161.174 265.403 161.035C265.403 160.896 265.427 160.826 265.473 160.826C265.961 160.826 266.53 160.849 267.18 160.896C267.831 160.919 268.481 160.93 269.132 160.93C269.875 160.93 270.561 160.919 271.188 160.896C271.815 160.849 272.373 160.826 272.86 160.826C272.907 160.826 272.93 160.896 272.93 161.035C272.93 161.174 272.907 161.244 272.86 161.244C271.745 161.244 271.025 161.407 270.7 161.732C270.398 162.057 270.247 162.719 270.247 163.718V174.311Z" fill="#8A8A88"/>
<path d="M254.037 176.716C254.083 176.716 254.107 176.786 254.107 176.925C254.107 177.064 254.083 177.134 254.037 177.134C253.526 177.134 252.968 177.122 252.364 177.099C251.76 177.076 251.087 177.064 250.343 177.064C249.693 177.064 249.042 177.076 248.392 177.099C247.741 177.122 247.172 177.134 246.684 177.134C246.638 177.134 246.615 177.064 246.615 176.925C246.615 176.786 246.638 176.716 246.684 176.716C247.428 176.716 247.985 176.658 248.357 176.542C248.729 176.425 248.984 176.193 249.124 175.845C249.263 175.496 249.333 174.985 249.333 174.312V163.649C249.333 162.65 249.17 161.999 248.845 161.697C248.543 161.395 247.834 161.244 246.719 161.244C246.673 161.244 246.65 161.175 246.65 161.035C246.65 160.896 246.673 160.826 246.719 160.826C247.207 160.826 247.765 160.849 248.392 160.896C249.042 160.919 249.693 160.931 250.343 160.931C250.97 160.931 251.667 160.896 252.434 160.826C253.201 160.756 253.886 160.722 254.49 160.722C256 160.722 257.15 161.012 257.94 161.593C258.73 162.173 259.124 163.01 259.124 164.102C259.124 165.077 258.834 165.972 258.253 166.785C257.696 167.575 256.941 168.213 255.988 168.701C255.059 169.166 253.99 169.398 252.782 169.398C252.48 169.398 252.155 169.387 251.807 169.363C251.482 169.34 251.168 169.305 250.866 169.259L250.831 168.562C251.156 168.655 251.47 168.725 251.772 168.771C252.097 168.794 252.515 168.806 253.026 168.806C254.56 168.806 255.582 168.469 256.093 167.795C256.627 167.098 256.894 166.181 256.894 165.042C256.894 162.487 255.791 161.209 253.584 161.209C252.631 161.209 252.039 161.418 251.807 161.837C251.574 162.255 251.458 162.882 251.458 163.718V174.312C251.458 174.985 251.516 175.496 251.633 175.845C251.749 176.193 251.993 176.425 252.364 176.542C252.736 176.658 253.294 176.716 254.037 176.716ZM264.386 176.716C264.433 176.716 264.456 176.786 264.456 176.925C264.456 177.064 264.433 177.134 264.386 177.134C263.341 177.134 262.47 177.134 261.773 177.134C261.076 177.134 260.588 177.134 260.309 177.134C259.891 177.134 259.124 176.414 258.009 174.974C256.918 173.51 255.628 171.535 254.141 169.05L255.988 168.318C257.289 170.455 258.404 172.139 259.334 173.371C260.263 174.579 261.122 175.438 261.912 175.949C262.702 176.46 263.527 176.716 264.386 176.716Z" fill="#8A8A88"/>
<path d="M235.293 174.172C235.293 174.869 235.374 175.403 235.537 175.775C235.699 176.123 236.025 176.367 236.513 176.507C237.024 176.646 237.767 176.716 238.743 176.716C238.812 176.716 238.847 176.786 238.847 176.925C238.847 177.064 238.812 177.134 238.743 177.134C238.092 177.134 237.395 177.122 236.652 177.099C235.909 177.076 235.107 177.064 234.248 177.064C233.597 177.064 232.947 177.076 232.296 177.099C231.646 177.122 231.077 177.134 230.589 177.134C230.542 177.134 230.519 177.064 230.519 176.925C230.519 176.786 230.542 176.716 230.589 176.716C231.332 176.716 231.89 176.658 232.261 176.542C232.633 176.425 232.877 176.193 232.993 175.845C233.109 175.496 233.167 174.985 233.167 174.312V163.649C233.167 162.975 233.109 162.475 232.993 162.15C232.877 161.802 232.633 161.569 232.261 161.453C231.89 161.314 231.332 161.244 230.589 161.244C230.542 161.244 230.519 161.175 230.519 161.035C230.519 160.896 230.542 160.826 230.589 160.826C231.077 160.826 231.634 160.849 232.261 160.896C232.912 160.919 233.562 160.931 234.213 160.931C234.817 160.931 235.502 160.896 236.269 160.826C237.035 160.756 237.709 160.722 238.29 160.722C240.055 160.722 241.449 161.047 242.471 161.697C243.517 162.348 244.039 163.44 244.039 164.973C244.039 166.134 243.737 167.087 243.133 167.83C242.553 168.574 241.821 169.131 240.938 169.503C240.055 169.851 239.184 170.025 238.325 170.025C238.046 170.025 237.767 170.014 237.488 169.991C237.233 169.967 237 169.933 236.791 169.886C236.698 169.863 236.664 169.782 236.687 169.642C236.71 169.503 236.78 169.433 236.896 169.433C237.058 169.456 237.233 169.48 237.419 169.503C237.628 169.526 237.813 169.538 237.976 169.538C238.929 169.538 239.776 169.224 240.52 168.597C241.263 167.946 241.635 166.971 241.635 165.67C241.635 164.16 241.24 163.045 240.45 162.324C239.684 161.581 238.685 161.209 237.453 161.209C236.942 161.209 236.524 161.256 236.199 161.349C235.897 161.418 235.665 161.628 235.502 161.976C235.363 162.324 235.293 162.905 235.293 163.718V174.172Z" fill="#8A8A88"/>
<path d="M219.361 176.716C219.408 176.716 219.431 176.786 219.431 176.925C219.431 177.064 219.408 177.134 219.361 177.134C218.85 177.134 218.293 177.122 217.689 177.099C217.085 177.076 216.411 177.064 215.667 177.064C215.017 177.064 214.367 177.076 213.716 177.099C213.066 177.122 212.496 177.134 212.009 177.134C211.962 177.134 211.939 177.064 211.939 176.925C211.939 176.786 211.962 176.716 212.009 176.716C212.752 176.716 213.31 176.658 213.681 176.542C214.053 176.425 214.308 176.193 214.448 175.845C214.587 175.496 214.657 174.985 214.657 174.312V163.649C214.657 162.65 214.494 161.999 214.169 161.697C213.867 161.395 213.159 161.244 212.043 161.244C211.997 161.244 211.974 161.175 211.974 161.035C211.974 160.896 211.997 160.826 212.043 160.826C212.531 160.826 213.089 160.849 213.716 160.896C214.367 160.919 215.017 160.931 215.667 160.931C216.295 160.931 216.992 160.896 217.758 160.826C218.525 160.756 219.21 160.722 219.814 160.722C221.324 160.722 222.474 161.012 223.264 161.593C224.054 162.173 224.449 163.01 224.449 164.102C224.449 165.077 224.158 165.972 223.578 166.785C223.02 167.575 222.265 168.213 221.313 168.701C220.383 169.166 219.315 169.398 218.107 169.398C217.805 169.398 217.479 169.387 217.131 169.363C216.806 169.34 216.492 169.305 216.19 169.259L216.155 168.562C216.481 168.655 216.794 168.725 217.096 168.771C217.421 168.794 217.84 168.806 218.351 168.806C219.884 168.806 220.906 168.469 221.417 167.795C221.951 167.098 222.219 166.181 222.219 165.042C222.219 162.487 221.115 161.209 218.908 161.209C217.956 161.209 217.363 161.418 217.131 161.837C216.899 162.255 216.783 162.882 216.783 163.718V174.312C216.783 174.985 216.841 175.496 216.957 175.845C217.073 176.193 217.317 176.425 217.689 176.542C218.06 176.658 218.618 176.716 219.361 176.716ZM229.71 176.716C229.757 176.716 229.78 176.786 229.78 176.925C229.78 177.064 229.757 177.134 229.71 177.134C228.665 177.134 227.794 177.134 227.097 177.134C226.4 177.134 225.912 177.134 225.633 177.134C225.215 177.134 224.449 176.414 223.334 174.974C222.242 173.51 220.952 171.535 219.466 169.05L221.313 168.318C222.613 170.455 223.729 172.139 224.658 173.371C225.587 174.579 226.447 175.438 227.236 175.949C228.026 176.46 228.851 176.716 229.71 176.716Z" fill="#8A8A88"/>
<path d="M195.845 177.134C195.798 177.134 195.775 177.064 195.775 176.925C195.775 176.785 195.798 176.716 195.845 176.716C196.588 176.716 197.146 176.658 197.517 176.541C197.889 176.425 198.133 176.193 198.249 175.845C198.365 175.496 198.423 174.985 198.423 174.311V163.648C198.423 162.975 198.365 162.475 198.249 162.15C198.133 161.802 197.889 161.569 197.517 161.453C197.146 161.314 196.588 161.244 195.845 161.244C195.798 161.244 195.775 161.174 195.775 161.035C195.775 160.896 195.798 160.826 195.845 160.826H207.971C208.203 160.826 208.319 160.919 208.319 161.105C208.319 161.685 208.331 162.359 208.354 163.126C208.378 163.892 208.389 164.496 208.389 164.938C208.389 165.007 208.319 165.042 208.18 165.042C208.041 165.042 207.971 165.007 207.971 164.938C207.878 163.869 207.495 162.998 206.821 162.324C206.147 161.627 205.299 161.279 204.277 161.279H203.302C202.535 161.279 201.954 161.349 201.559 161.488C201.164 161.604 200.897 161.836 200.758 162.185C200.618 162.51 200.549 163.01 200.549 163.683V174.172C200.549 174.822 200.618 175.322 200.758 175.67C200.897 176.019 201.164 176.263 201.559 176.402C201.954 176.518 202.535 176.576 203.302 176.576H204.974C205.625 176.576 206.217 176.402 206.751 176.054C207.309 175.705 207.774 175.229 208.145 174.625C208.54 173.998 208.819 173.289 208.982 172.499C208.982 172.43 209.04 172.395 209.156 172.395C209.295 172.395 209.365 172.43 209.365 172.499C209.318 173.034 209.26 173.684 209.191 174.451C209.144 175.217 209.121 175.937 209.121 176.611C209.121 176.96 208.947 177.134 208.598 177.134H195.845ZM206.577 169.642C206.461 169.642 206.182 169.607 205.741 169.537C205.299 169.445 204.603 169.363 203.65 169.294C202.698 169.224 201.373 169.189 199.678 169.189V168.457C201.373 168.457 202.698 168.434 203.65 168.388C204.603 168.318 205.299 168.26 205.741 168.213C206.182 168.144 206.461 168.109 206.577 168.109C206.647 168.109 206.693 168.19 206.717 168.353C206.74 168.492 206.751 168.655 206.751 168.841C206.751 169.05 206.74 169.235 206.717 169.398C206.693 169.561 206.647 169.642 206.577 169.642Z" fill="#8A8A88"/>
<path d="M182.564 161.279C181.681 161.279 180.985 161.407 180.473 161.662C179.962 161.895 179.567 162.313 179.289 162.917C179.01 163.497 178.778 164.311 178.592 165.356C178.592 165.402 178.522 165.426 178.383 165.426C178.267 165.426 178.208 165.402 178.208 165.356C178.255 165.031 178.301 164.531 178.348 163.858C178.418 163.184 178.476 162.487 178.522 161.767C178.569 161.047 178.592 160.478 178.592 160.059C178.592 159.943 178.662 159.885 178.801 159.885C178.94 159.885 179.01 159.943 179.01 160.059C179.01 160.408 179.231 160.617 179.672 160.687C180.137 160.733 180.52 160.756 180.822 160.756C181.589 160.78 182.413 160.803 183.296 160.826C184.202 160.826 185.131 160.826 186.084 160.826C187.176 160.826 188.082 160.814 188.802 160.791C189.522 160.768 190.172 160.756 190.753 160.756C191.52 160.756 192.112 160.71 192.53 160.617C192.972 160.524 193.25 160.292 193.367 159.92C193.413 159.85 193.494 159.815 193.61 159.815C193.727 159.815 193.785 159.85 193.785 159.92C193.761 160.222 193.738 160.64 193.715 161.174C193.692 161.685 193.669 162.22 193.645 162.777C193.622 163.335 193.599 163.846 193.576 164.311C193.576 164.775 193.576 165.124 193.576 165.356C193.576 165.402 193.506 165.426 193.367 165.426C193.25 165.426 193.192 165.402 193.192 165.356C193.169 164.311 193.041 163.497 192.809 162.917C192.577 162.313 192.205 161.895 191.694 161.662C191.206 161.407 190.509 161.279 189.603 161.279C188.581 161.279 187.907 161.442 187.582 161.767C187.257 162.069 187.094 162.696 187.094 163.648V174.311C187.094 174.985 187.164 175.496 187.303 175.845C187.443 176.193 187.721 176.425 188.14 176.542C188.581 176.658 189.231 176.716 190.091 176.716C190.161 176.716 190.196 176.785 190.196 176.925C190.196 177.064 190.161 177.134 190.091 177.134C189.533 177.134 188.906 177.122 188.209 177.099C187.536 177.076 186.792 177.064 185.979 177.064C185.236 177.064 184.504 177.076 183.784 177.099C183.087 177.122 182.46 177.134 181.902 177.134C181.856 177.134 181.832 177.064 181.832 176.925C181.832 176.785 181.856 176.716 181.902 176.716C182.762 176.716 183.401 176.658 183.819 176.542C184.26 176.425 184.55 176.193 184.69 175.845C184.852 175.496 184.934 174.985 184.934 174.311V163.579C184.934 162.928 184.876 162.44 184.76 162.115C184.667 161.79 184.458 161.569 184.132 161.453C183.807 161.337 183.284 161.279 182.564 161.279Z" fill="#8A8A88"/>
<path d="M160.88 173.336V161.593L161.577 161.697V173.336C161.577 174.567 161.751 175.438 162.099 175.949C162.448 176.46 163.052 176.716 163.911 176.716C163.958 176.716 163.981 176.785 163.981 176.925C163.981 177.064 163.958 177.134 163.911 177.134C163.516 177.134 163.098 177.122 162.657 177.099C162.239 177.076 161.774 177.064 161.263 177.064C160.775 177.064 160.299 177.076 159.834 177.099C159.37 177.122 158.928 177.134 158.51 177.134C158.464 177.134 158.44 177.064 158.44 176.925C158.44 176.785 158.464 176.716 158.51 176.716C159.393 176.716 160.008 176.46 160.357 175.949C160.705 175.438 160.88 174.567 160.88 173.336ZM173.877 177.517C173.877 177.564 173.819 177.587 173.703 177.587C173.587 177.61 173.506 177.61 173.459 177.587L162.03 163.683C161.263 162.754 160.613 162.115 160.078 161.767C159.544 161.418 159.021 161.244 158.51 161.244C158.464 161.244 158.44 161.174 158.44 161.035C158.44 160.896 158.464 160.826 158.51 160.826C158.835 160.826 159.172 160.838 159.521 160.861C159.869 160.861 160.183 160.861 160.462 160.861C160.694 160.861 160.891 160.861 161.054 160.861C161.24 160.838 161.426 160.826 161.611 160.826C161.821 160.826 162.053 160.826 162.308 160.826C162.61 160.826 162.831 160.965 162.97 161.244C163.11 161.523 163.435 161.987 163.946 162.638L173.529 174.451L173.877 177.517ZM173.877 164.624V177.517L173.18 176.437V164.624C173.18 163.393 173.006 162.522 172.658 162.011C172.332 161.5 171.74 161.244 170.88 161.244C170.811 161.244 170.776 161.174 170.776 161.035C170.776 160.896 170.811 160.826 170.88 160.826C171.275 160.826 171.682 160.849 172.1 160.896C172.541 160.919 173.018 160.93 173.529 160.93C174.017 160.93 174.504 160.919 174.992 160.896C175.48 160.849 175.91 160.826 176.282 160.826C176.351 160.826 176.386 160.896 176.386 161.035C176.386 161.174 176.351 161.244 176.282 161.244C175.422 161.244 174.806 161.5 174.435 162.011C174.063 162.522 173.877 163.393 173.877 164.624Z" fill="#8A8A88"/>
<path d="M142.521 177.134C142.474 177.134 142.451 177.064 142.451 176.925C142.451 176.785 142.474 176.716 142.521 176.716C143.264 176.716 143.822 176.658 144.193 176.541C144.565 176.425 144.809 176.193 144.925 175.845C145.041 175.496 145.099 174.985 145.099 174.311V163.648C145.099 162.975 145.041 162.475 144.925 162.15C144.809 161.802 144.565 161.569 144.193 161.453C143.822 161.314 143.264 161.244 142.521 161.244C142.474 161.244 142.451 161.174 142.451 161.035C142.451 160.896 142.474 160.826 142.521 160.826H154.647C154.88 160.826 154.996 160.919 154.996 161.105C154.996 161.685 155.007 162.359 155.031 163.126C155.054 163.892 155.065 164.496 155.065 164.938C155.065 165.007 154.996 165.042 154.856 165.042C154.717 165.042 154.647 165.007 154.647 164.938C154.554 163.869 154.171 162.998 153.497 162.324C152.824 161.627 151.976 161.279 150.954 161.279H149.978C149.211 161.279 148.631 161.349 148.236 161.488C147.841 161.604 147.574 161.836 147.434 162.185C147.295 162.51 147.225 163.01 147.225 163.683V174.172C147.225 174.822 147.295 175.322 147.434 175.67C147.574 176.019 147.841 176.263 148.236 176.402C148.631 176.518 149.211 176.576 149.978 176.576H151.651C152.301 176.576 152.893 176.402 153.428 176.054C153.985 175.705 154.45 175.229 154.822 174.625C155.216 173.998 155.495 173.289 155.658 172.499C155.658 172.43 155.716 172.395 155.832 172.395C155.971 172.395 156.041 172.43 156.041 172.499C155.995 173.034 155.937 173.684 155.867 174.451C155.82 175.217 155.797 175.937 155.797 176.611C155.797 176.96 155.623 177.134 155.275 177.134H142.521ZM153.253 169.642C153.137 169.642 152.859 169.607 152.417 169.537C151.976 169.445 151.279 169.363 150.326 169.294C149.374 169.224 148.05 169.189 146.354 169.189V168.457C148.05 168.457 149.374 168.434 150.326 168.388C151.279 168.318 151.976 168.26 152.417 168.213C152.859 168.144 153.137 168.109 153.253 168.109C153.323 168.109 153.37 168.19 153.393 168.353C153.416 168.492 153.428 168.655 153.428 168.841C153.428 169.05 153.416 169.235 153.393 169.398C153.37 169.561 153.323 169.642 153.253 169.642Z" fill="#8A8A88"/>
<path d="M122.606 177.552C120.933 177.552 119.469 177.169 118.215 176.402C116.96 175.612 115.985 174.579 115.288 173.301C114.614 172 114.277 170.594 114.277 169.084C114.277 167.667 114.556 166.425 115.114 165.356C115.671 164.264 116.415 163.358 117.344 162.638C118.296 161.895 119.33 161.337 120.445 160.965C121.56 160.594 122.652 160.408 123.721 160.408C124.998 160.408 126.137 160.652 127.136 161.14C128.134 161.604 128.982 162.231 129.679 163.021C130.399 163.811 130.945 164.706 131.317 165.704C131.689 166.68 131.875 167.691 131.875 168.736C131.875 169.921 131.631 171.047 131.143 172.116C130.655 173.185 129.981 174.126 129.122 174.939C128.285 175.752 127.31 176.391 126.195 176.855C125.08 177.32 123.883 177.552 122.606 177.552ZM123.512 176.82C125.3 176.82 126.741 176.193 127.832 174.939C128.924 173.661 129.47 171.884 129.47 169.607C129.47 168.074 129.203 166.669 128.669 165.391C128.134 164.113 127.356 163.091 126.334 162.324C125.312 161.535 124.046 161.14 122.536 161.14C120.677 161.14 119.237 161.767 118.215 163.021C117.193 164.276 116.682 166.006 116.682 168.213C116.682 169.793 116.949 171.233 117.483 172.534C118.041 173.835 118.831 174.881 119.853 175.67C120.875 176.437 122.094 176.82 123.512 176.82Z" fill="#8A8A88"/>
<path d="M96.2406 177.134C96.1941 177.134 96.1709 177.064 96.1709 176.925C96.1709 176.785 96.1941 176.716 96.2406 176.716C97.0072 176.716 97.5764 176.658 97.948 176.541C98.3197 176.425 98.5637 176.193 98.6798 175.845C98.8192 175.496 98.8889 174.985 98.8889 174.311V163.648C98.8889 162.65 98.7263 161.999 98.401 161.697C98.099 161.395 97.3905 161.244 96.2754 161.244C96.229 161.244 96.2057 161.174 96.2057 161.035C96.2057 160.896 96.229 160.826 96.2754 160.826C96.7633 160.826 97.3208 160.849 97.948 160.896C98.5985 160.919 99.249 160.93 99.8994 160.93C100.62 160.93 101.293 160.919 101.92 160.896C102.548 160.849 103.105 160.826 103.593 160.826C103.64 160.826 103.663 160.896 103.663 161.035C103.663 161.174 103.64 161.244 103.593 161.244C102.478 161.244 101.758 161.407 101.433 161.732C101.131 162.057 100.98 162.719 100.98 163.718V174.311C100.98 174.985 101.038 175.496 101.154 175.845C101.293 176.193 101.549 176.425 101.92 176.541C102.292 176.658 102.85 176.716 103.593 176.716C103.64 176.716 103.663 176.785 103.663 176.925C103.663 177.064 103.64 177.134 103.593 177.134C103.082 177.134 102.513 177.122 101.886 177.099C101.282 177.076 100.62 177.064 99.8994 177.064C99.249 177.064 98.5985 177.076 97.948 177.099C97.2976 177.122 96.7284 177.134 96.2406 177.134ZM109.97 177.134C109.529 177.134 109.203 177.134 108.994 177.134C108.808 177.111 108.646 177.041 108.506 176.925C108.39 176.785 108.228 176.541 108.019 176.193C107.833 175.845 107.519 175.345 107.078 174.695C106.636 174.021 105.986 173.15 105.126 172.081L102.199 168.353L103.732 166.994L106.276 170.234C107.438 171.698 108.367 172.871 109.064 173.754C109.761 174.613 110.342 175.264 110.806 175.705C111.271 176.123 111.712 176.402 112.13 176.541C112.549 176.658 113.048 176.716 113.629 176.716C113.698 176.716 113.733 176.785 113.733 176.925C113.733 177.064 113.698 177.134 113.629 177.134C112.769 177.134 112.026 177.134 111.399 177.134C110.795 177.134 110.318 177.134 109.97 177.134ZM99.5161 170.618L106.52 163.579C107.403 162.696 107.868 162.092 107.914 161.767C107.96 161.418 107.415 161.244 106.276 161.244C106.207 161.244 106.172 161.174 106.172 161.035C106.172 160.896 106.207 160.826 106.276 160.826C106.648 160.826 106.973 160.838 107.252 160.861C107.554 160.861 107.902 160.872 108.297 160.896C108.715 160.919 109.238 160.93 109.865 160.93C110.748 160.93 111.422 160.919 111.886 160.896C112.374 160.849 112.758 160.826 113.036 160.826C113.106 160.826 113.141 160.896 113.141 161.035C113.141 161.174 113.106 161.244 113.036 161.244C112.595 161.244 112.049 161.337 111.399 161.523C110.748 161.685 110.063 161.953 109.343 162.324C108.623 162.696 107.926 163.207 107.252 163.858L100.352 170.618H99.5161Z" fill="#8A8A88"/>
<path d="M76.1508 160.408C76.5922 160.408 77.0684 160.478 77.5795 160.617C78.0906 160.756 78.5203 161.023 78.8688 161.418C79.2405 161.813 79.4263 162.394 79.4263 163.161C79.4263 163.927 79.2405 164.601 78.8688 165.182C78.4971 165.739 78.0209 166.25 77.4401 166.715C76.8593 167.156 76.2321 167.586 75.5584 168.004C74.908 168.422 74.2923 168.864 73.7116 169.328C73.1308 169.793 72.6546 170.316 72.2829 170.896C71.9112 171.454 71.7253 172.116 71.7253 172.883C71.7253 173.998 72.1203 174.904 72.9101 175.601C73.7 176.274 74.6989 176.611 75.9069 176.611C76.8129 176.611 77.6376 176.437 78.3809 176.089C79.1243 175.717 79.7748 175.241 80.3323 174.66C80.8898 174.056 81.308 173.394 81.5868 172.674C81.8888 171.93 82.0398 171.175 82.0398 170.409C82.0398 169.805 81.9004 169.294 81.6216 168.875C81.3428 168.457 80.7853 168.248 79.949 168.248C79.8793 168.248 79.8329 168.178 79.8096 168.039C79.8096 167.9 79.8561 167.83 79.949 167.83L85.9425 167.795C86.0354 167.795 86.0819 167.865 86.0819 168.004C86.0819 168.144 86.0354 168.213 85.9425 168.213C85.3153 168.213 84.8507 168.295 84.5487 168.457C84.2699 168.597 84.0725 168.806 83.9563 169.084C83.8401 169.363 83.7124 169.712 83.573 170.13C83.3639 170.804 83.0503 171.57 82.6321 172.43C82.214 173.266 81.6565 174.079 80.9595 174.869C80.2626 175.636 79.3915 176.274 78.3461 176.785C77.3239 177.297 76.0811 177.552 74.6176 177.552C72.852 177.552 71.586 177.18 70.8194 176.437C70.0527 175.694 69.6694 174.857 69.6694 173.928C69.6694 173.045 69.9366 172.267 70.4709 171.593C71.0052 170.92 71.6673 170.304 72.4571 169.747C73.247 169.189 74.0368 168.62 74.8266 168.039C75.6165 167.458 76.2786 166.831 76.8129 166.157C77.3472 165.461 77.6143 164.647 77.6143 163.718C77.6143 162.905 77.3936 162.266 76.9522 161.802C76.5109 161.314 75.9301 161.07 75.2099 161.07C74.6292 161.07 74.1646 161.256 73.8161 161.627C73.4676 161.999 73.2934 162.592 73.2934 163.405C73.2934 164.241 73.549 165.193 74.06 166.262C74.5943 167.331 75.3261 168.434 76.2553 169.572C77.2078 170.687 78.2996 171.768 79.5309 172.813C81.0641 174.114 82.4928 175.09 83.8169 175.74C85.1411 176.367 86.1168 176.693 86.744 176.716C86.8137 176.716 86.8485 176.785 86.8485 176.925C86.8485 177.064 86.8137 177.134 86.744 177.134C86.2329 177.134 85.6521 177.134 85.0017 177.134C84.3745 177.134 83.7588 177.134 83.1548 177.134C82.667 177.134 81.9468 176.867 80.9944 176.332C80.0419 175.775 78.9385 174.927 77.684 173.789C77.0568 173.231 76.3599 172.581 75.5933 171.837C74.8499 171.071 74.153 170.281 73.5025 169.468C72.8753 168.655 72.3874 167.876 72.039 167.133C71.8067 166.599 71.644 166.123 71.5511 165.704C71.4582 165.286 71.4117 164.926 71.4117 164.624C71.4117 163.765 71.6324 163.021 72.0738 162.394C72.5384 161.767 73.1308 161.279 73.851 160.931C74.5943 160.582 75.3609 160.408 76.1508 160.408Z" fill="#8A8A88"/>
<path d="M45.1288 177.134C45.0823 177.134 45.0591 177.064 45.0591 176.925C45.0591 176.785 45.0823 176.716 45.1288 176.716C45.8722 176.716 46.4297 176.658 46.8014 176.541C47.1731 176.425 47.417 176.193 47.5331 175.845C47.6493 175.496 47.7074 174.985 47.7074 174.311V163.648C47.7074 162.975 47.6493 162.475 47.5331 162.15C47.417 161.802 47.1731 161.569 46.8014 161.453C46.4297 161.314 45.8722 161.244 45.1288 161.244C45.0823 161.244 45.0591 161.174 45.0591 161.035C45.0591 160.896 45.0823 160.826 45.1288 160.826H57.2552C57.4875 160.826 57.6036 160.919 57.6036 161.105C57.6036 161.685 57.6153 162.359 57.6385 163.126C57.6617 163.892 57.6733 164.496 57.6733 164.938C57.6733 165.007 57.6036 165.042 57.4643 165.042C57.3249 165.042 57.2552 165.007 57.2552 164.938C57.1623 163.869 56.779 162.998 56.1053 162.324C55.4316 161.627 54.5837 161.279 53.5615 161.279H52.5858C51.8192 161.279 51.2384 161.349 50.8435 161.488C50.4486 161.604 50.1814 161.836 50.0421 162.185C49.9027 162.51 49.833 163.01 49.833 163.683V174.172C49.833 174.822 49.9027 175.322 50.0421 175.67C50.1814 176.019 50.4486 176.263 50.8435 176.402C51.2384 176.518 51.8192 176.576 52.5858 176.576H54.2584C54.9089 176.576 55.5013 176.402 56.0356 176.054C56.5931 175.705 57.0577 175.229 57.4294 174.625C57.8243 173.998 58.1031 173.289 58.2657 172.499C58.2657 172.43 58.3238 172.395 58.44 172.395C58.5793 172.395 58.649 172.43 58.649 172.499C58.6026 173.034 58.5445 173.684 58.4748 174.451C58.4283 175.217 58.4051 175.937 58.4051 176.611C58.4051 176.96 58.2309 177.134 57.8824 177.134H45.1288ZM55.8613 169.642C55.7452 169.642 55.4664 169.607 55.025 169.537C54.5837 169.445 53.8867 169.363 52.9343 169.294C51.9818 169.224 50.6577 169.189 48.9618 169.189V168.457C50.6577 168.457 51.9818 168.434 52.9343 168.388C53.8867 168.318 54.5837 168.26 55.025 168.213C55.4664 168.144 55.7452 168.109 55.8613 168.109C55.931 168.109 55.9775 168.19 56.0007 168.353C56.024 168.492 56.0356 168.655 56.0356 168.841C56.0356 169.05 56.024 169.235 56.0007 169.398C55.9775 169.561 55.931 169.642 55.8613 169.642Z" fill="#8A8A88"/>
<path d="M28.9647 177.134C28.9183 177.134 28.895 177.064 28.895 176.925C28.895 176.785 28.9183 176.716 28.9647 176.716C29.7081 176.716 30.2656 176.658 30.6373 176.541C31.009 176.425 31.2529 176.193 31.3691 175.845C31.4852 175.496 31.5433 174.985 31.5433 174.311V163.648C31.5433 162.975 31.4852 162.475 31.3691 162.15C31.2529 161.802 31.009 161.569 30.6373 161.453C30.2656 161.314 29.7081 161.244 28.9647 161.244C28.9183 161.244 28.895 161.174 28.895 161.035C28.895 160.896 28.9183 160.826 28.9647 160.826H41.0911C41.3234 160.826 41.4396 160.919 41.4396 161.105C41.4396 161.685 41.4512 162.359 41.4744 163.126C41.4977 163.892 41.5093 164.496 41.5093 164.938C41.5093 165.007 41.4396 165.042 41.3002 165.042C41.1608 165.042 41.0911 165.007 41.0911 164.938C40.9982 163.869 40.6149 162.998 39.9412 162.324C39.2675 161.627 38.4196 161.279 37.3974 161.279H36.4218C35.6551 161.279 35.0744 161.349 34.6795 161.488C34.2845 161.604 34.0174 161.836 33.878 162.185C33.7386 162.51 33.6689 163.01 33.6689 163.683V174.172C33.6689 174.822 33.7386 175.322 33.878 175.67C34.0174 176.019 34.2845 176.263 34.6795 176.402C35.0744 176.518 35.6551 176.576 36.4218 176.576H38.0944C38.7448 176.576 39.3372 176.402 39.8715 176.054C40.4291 175.705 40.8937 175.229 41.2654 174.625C41.6603 173.998 41.939 173.289 42.1017 172.499C42.1017 172.43 42.1597 172.395 42.2759 172.395C42.4153 172.395 42.485 172.43 42.485 172.499C42.4385 173.034 42.3804 173.684 42.3107 174.451C42.2643 175.217 42.241 175.937 42.241 176.611C42.241 176.96 42.0668 177.134 41.7184 177.134H28.9647ZM39.6973 169.642C39.5811 169.642 39.3024 169.607 38.861 169.537C38.4196 169.445 37.7227 169.363 36.7702 169.294C35.8178 169.224 34.4936 169.189 32.7978 169.189V168.457C34.4936 168.457 35.8178 168.434 36.7702 168.388C37.7227 168.318 38.4196 168.26 38.861 168.213C39.3024 168.144 39.5811 168.109 39.6973 168.109C39.767 168.109 39.8134 168.19 39.8367 168.353C39.8599 168.492 39.8715 168.655 39.8715 168.841C39.8715 169.05 39.8599 169.235 39.8367 169.398C39.8134 169.561 39.767 169.642 39.6973 169.642Z" fill="#8A8A88"/>
<path d="M17.539 163.683V174.172C17.539 175.124 17.69 175.763 17.992 176.088C18.3173 176.414 19.0142 176.576 20.0828 176.576H22.4175C23.6719 176.576 24.6592 176.181 25.3794 175.392C26.0995 174.578 26.5758 173.533 26.8081 172.255C26.8081 172.209 26.8778 172.197 27.0172 172.221C27.1565 172.221 27.2262 172.255 27.2262 172.325C27.1333 172.883 27.0636 173.568 27.0172 174.381C26.9939 175.171 26.9823 175.914 26.9823 176.611C26.9823 176.96 26.8081 177.134 26.4596 177.134H12.8348C12.7884 177.134 12.7651 177.064 12.7651 176.925C12.7651 176.785 12.7884 176.716 12.8348 176.716C13.555 176.716 14.1009 176.658 14.4726 176.541C14.8443 176.425 15.0882 176.193 15.2044 175.845C15.3205 175.496 15.3786 174.985 15.3786 174.311V163.648C15.3786 162.975 15.3205 162.475 15.2044 162.15C15.0882 161.802 14.8443 161.569 14.4726 161.453C14.1009 161.314 13.555 161.244 12.8348 161.244C12.7884 161.244 12.7651 161.174 12.7651 161.035C12.7651 160.896 12.7884 160.826 12.8348 160.826C13.3227 160.826 13.8802 160.849 14.5074 160.896C15.1579 160.919 15.8084 160.93 16.4588 160.93C17.179 160.93 17.8527 160.919 18.4799 160.896C19.1071 160.849 19.653 160.826 20.1176 160.826C20.1873 160.826 20.2222 160.896 20.2222 161.035C20.2222 161.174 20.1873 161.244 20.1176 161.244C19.3743 161.244 18.8167 161.314 18.445 161.453C18.0966 161.569 17.8527 161.802 17.7133 162.15C17.5971 162.499 17.539 163.01 17.539 163.683Z" fill="#8A8A88"/>
<defs>
<linearGradient id="paint0_linear_20_365" x1="451.653" y1="7.05214" x2="592.7" y2="34.1901" gradientUnits="userSpaceOnUse">
<stop stop-color="#C9A84C"/>
<stop offset="0.265883" stop-color="#BD9A39"/>
<stop offset="0.489895" stop-color="#DAB756"/>
<stop offset="0.83" stop-color="#D1AF51"/>
<stop offset="1" stop-color="#C9A84C"/>
</linearGradient>
<linearGradient id="paint1_linear_20_365" x1="569.965" y1="4.35575" x2="718.663" y2="33.09" gradientUnits="userSpaceOnUse">
<stop stop-color="#C9A84C"/>
<stop offset="0.265883" stop-color="#BD9A39"/>
<stop offset="0.489895" stop-color="#DAB756"/>
<stop offset="0.83" stop-color="#D1AF51"/>
<stop offset="1" stop-color="#C9A84C"/>
</linearGradient>
</defs>
</svg>
