<svg width="700" height="187" viewBox="0 0 700 187" fill="none" xmlns="http://www.w3.org/2000/svg">
<path d="M324.38 119.057H222.247C221.785 119.057 221.554 118.686 221.554 117.942C221.554 117.199 221.785 116.827 222.247 116.827C227.022 116.827 230.565 116.517 232.876 115.898C235.187 115.278 236.727 114.039 237.498 112.181C238.268 110.322 238.653 107.597 238.653 104.004V17.9573C238.653 14.3643 238.268 11.7005 237.498 9.96593C236.727 8.10747 235.187 6.8685 232.876 6.24902C230.565 5.50564 227.022 5.13395 222.247 5.13395C221.785 5.13395 221.554 4.76226 221.554 4.01888C221.554 3.2755 221.785 2.90381 222.247 2.90381H320.221C321.762 2.90381 322.532 3.46134 322.532 4.57641L322.994 29.2939C322.994 29.5416 322.609 29.7275 321.839 29.8514C321.068 29.9753 320.529 29.8514 320.221 29.4797C317.756 22.1698 313.597 16.8422 307.743 13.497C301.889 10.0279 294.187 8.29332 284.636 8.29332H277.704C274.623 8.29332 272.081 8.66501 270.079 9.40839C268.076 10.0279 266.613 11.081 265.688 12.5678C264.764 14.0545 264.302 15.913 264.302 18.1431V103.26C264.302 105.614 264.687 107.597 265.457 109.207C266.227 110.818 267.383 111.995 268.923 112.738C270.464 113.482 272.466 113.854 274.931 113.854H282.556C294.572 113.854 304.2 111.871 311.44 107.906C318.681 103.942 323.995 97.8089 327.384 89.5078C327.538 89.1361 328 89.0741 328.771 89.3219C329.695 89.4458 330.157 89.6317 330.157 89.8795C329.541 93.4725 329.002 97.7469 328.54 102.703C328.077 107.535 327.846 112.057 327.846 116.27C327.846 118.128 326.691 119.057 324.38 119.057ZM311.44 77.6137C311.44 72.5339 309.053 68.5692 304.277 65.7196C299.502 62.746 292.493 61.2593 283.25 61.2593H252.055V56.0556H283.481C292.57 56.0556 299.425 54.8166 304.046 52.3387C308.822 49.7369 311.209 46.2677 311.209 41.9313C311.209 41.5597 311.594 41.3738 312.365 41.3738C313.289 41.3738 313.751 41.5597 313.751 41.9313C313.751 46.0199 313.674 49.2413 313.52 51.5953C313.52 53.8254 313.52 56.1795 313.52 58.6574C313.52 61.7549 313.597 64.7903 313.751 67.7639C314.059 70.7374 314.213 74.0207 314.213 77.6137C314.213 77.8615 313.751 77.9854 312.827 77.9854C311.903 77.9854 311.44 77.8615 311.44 77.6137Z" fill="#252422"/>
<path d="M213.919 119.057H111.786C111.324 119.057 111.093 118.686 111.093 117.942C111.093 117.199 111.324 116.827 111.786 116.827C116.561 116.827 120.105 116.517 122.415 115.898C124.726 115.278 126.266 114.039 127.037 112.181C127.807 110.322 128.192 107.597 128.192 104.004V17.9573C128.192 14.3643 127.807 11.7005 127.037 9.96593C126.266 8.10747 124.726 6.8685 122.415 6.24902C120.105 5.50564 116.561 5.13395 111.786 5.13395C111.324 5.13395 111.093 4.76226 111.093 4.01888C111.093 3.2755 111.324 2.90381 111.786 2.90381H209.76C211.301 2.90381 212.071 3.46134 212.071 4.57641L212.533 29.2939C212.533 29.5416 212.148 29.7275 211.378 29.8514C210.607 29.9753 210.068 29.8514 209.76 29.4797C207.295 22.1698 203.136 16.8422 197.282 13.497C191.429 10.0279 183.726 8.29332 174.175 8.29332H167.243C164.162 8.29332 161.62 8.66501 159.618 9.40839C157.615 10.0279 156.152 11.081 155.227 12.5678C154.303 14.0545 153.841 15.913 153.841 18.1431V103.26C153.841 105.614 154.226 107.597 154.996 109.207C155.767 110.818 156.922 111.995 158.462 112.738C160.003 113.482 162.005 113.854 164.47 113.854H172.096C184.111 113.854 193.739 111.871 200.979 107.906C208.22 103.942 213.534 97.8089 216.923 89.5078C217.077 89.1361 217.54 89.0741 218.31 89.3219C219.234 89.4458 219.696 89.6317 219.696 89.8795C219.08 93.4725 218.541 97.7469 218.079 102.703C217.617 107.535 217.385 112.057 217.385 116.27C217.385 118.128 216.23 119.057 213.919 119.057ZM200.979 77.6137C200.979 72.5339 198.592 68.5692 193.816 65.7196C189.041 62.746 182.032 61.2593 172.789 61.2593H141.594V56.0556H173.02C182.109 56.0556 188.964 54.8166 193.585 52.3387C198.361 49.7369 200.748 46.2677 200.748 41.9313C200.748 41.5597 201.133 41.3738 201.904 41.3738C202.828 41.3738 203.29 41.5597 203.29 41.9313C203.29 46.0199 203.213 49.2413 203.059 51.5953C203.059 53.8254 203.059 56.1795 203.059 58.6574C203.059 61.7549 203.136 64.7903 203.29 67.7639C203.598 70.7374 203.752 74.0207 203.752 77.6137C203.752 77.8615 203.29 77.9854 202.366 77.9854C201.442 77.9854 200.979 77.8615 200.979 77.6137Z" fill="#252422"/>
<path d="M40.2691 18.1431V103.26C40.2691 106.234 40.5594 108.526 41.1398 110.137C41.7203 111.623 42.8812 112.615 44.6226 113.11C46.509 113.606 49.1936 113.854 52.6764 113.854H60.0772C71.3961 113.854 81.1913 111.252 89.4628 106.048C97.7343 100.844 103.249 93.9061 106.006 85.2333C106.151 84.8616 106.586 84.7377 107.312 84.8616C108.037 84.9855 108.4 85.2333 108.4 85.605C107.965 89.6936 107.529 94.6495 107.094 100.473C106.659 106.172 106.441 111.438 106.441 116.27C106.441 118.128 105.353 119.057 103.176 119.057H0.435342C0.145114 119.057 0 118.686 0 117.942C0 117.199 0.145114 116.827 0.435342 116.827C4.93388 116.827 8.2715 116.517 10.4482 115.898C12.6249 115.278 14.0761 114.039 14.8016 112.181C15.6723 110.322 16.1077 107.597 16.1077 104.004V17.9573C16.1077 14.3643 15.6723 11.7005 14.8016 9.96593C14.0761 8.10747 12.6249 6.8685 10.4482 6.24902C8.2715 5.50564 4.93388 5.13395 0.435342 5.13395C0.145114 5.13395 0 4.76226 0 4.01888C0 3.2755 0.145114 2.90381 0.435342 2.90381C3.91808 2.90381 8.05383 3.0277 12.8426 3.27549C17.7765 3.39939 22.8555 3.46134 28.0796 3.46134C33.5939 3.46134 38.6729 3.39939 43.3165 3.27549C47.9602 3.0277 52.0959 2.90381 55.7238 2.90381C56.1591 2.90381 56.3768 3.2755 56.3768 4.01888C56.3768 4.76226 56.1591 5.13395 55.7238 5.13395C51.3704 5.13395 48.0327 5.50564 45.7109 6.24902C43.5342 6.8685 42.0831 8.10747 41.3575 9.96593C40.6319 11.8244 40.2691 14.5501 40.2691 18.1431Z" fill="#252422"/>
<path d="M427.219 60.7724C427.219 60.3119 427.067 60.0811 426.761 60.0811L402.834 60.1963L402.725 60.2071C402.491 60.2576 402.373 60.4849 402.373 60.8876C402.45 61.3485 402.605 61.5788 402.834 61.5788C406.343 61.579 408.557 62.3474 409.473 63.883C410.466 65.4194 410.961 67.4183 410.961 69.8765L410.932 71.2536C410.799 74.4548 410.198 77.5688 409.13 80.5935C408.557 82.2848 407.846 83.8873 407.005 85.4055C403.494 82.7211 400.111 79.8556 396.86 76.805L395.39 75.4065C391.574 71.6424 388.176 67.7623 385.199 63.7678C384.213 62.4439 383.301 61.1134 382.457 59.7811C383.06 59.3756 383.668 58.975 384.284 58.5834C386.459 57.143 388.549 55.6811 390.553 54.1975L392.528 52.7078C395.2 50.6337 397.336 48.4045 398.939 46.0231C400.408 43.8724 401.236 41.399 401.42 38.6015L401.457 37.3825C401.457 34.3865 400.771 32.0805 399.397 30.4673C398.195 28.9887 396.73 27.9209 395.002 27.2656L394.246 27.0111C392.442 26.4062 390.639 26.066 388.836 25.9903L388.061 25.9742C384.245 25.9744 380.926 26.8191 378.102 28.5088C375.278 30.1219 373.063 32.3104 371.46 35.0756C369.857 37.8411 369.056 40.915 369.056 44.295C369.056 46.2155 369.361 48.2143 369.972 50.2885C370.582 52.3622 371.384 54.5128 372.376 56.7401C373.339 58.6789 374.464 60.648 375.743 62.6505C373.335 64.3293 371.028 66.0828 368.827 67.918C366.232 70.1454 364.095 72.6031 362.416 75.2913L362.11 75.8003C360.634 78.3706 359.898 81.3128 359.898 84.6258L359.93 85.6868C360.088 88.1572 360.804 90.568 362.073 92.9208C363.6 95.5326 365.926 97.6851 369.056 99.3751C372.262 100.988 376.308 101.794 381.193 101.794C385.849 101.794 389.933 101.065 393.444 99.6055C397.032 98.146 400.124 96.2265 402.719 93.8451C403.293 93.3019 403.84 92.7417 404.372 92.1759C406.475 93.8356 408.324 95.2032 409.931 96.2645C412.449 97.8005 414.51 98.8757 416.113 99.4903C417.516 100.028 418.686 100.332 419.621 100.399L420.008 100.412H432.373L432.53 100.377C432.626 100.329 432.702 100.232 432.759 100.088L432.831 99.8359C432.898 99.4323 432.788 99.176 432.504 99.067L432.373 99.0295C429.769 98.4918 426.638 97.3352 422.981 95.5625L421.381 94.7668C417.346 92.6295 413.117 89.9252 408.688 86.6647C408.876 86.3707 409.065 86.0768 409.244 85.7779C411.076 82.7819 412.564 79.7849 413.709 76.789C414.625 74.4846 415.391 72.3101 416.006 70.265L416.571 68.2636C416.914 67.1113 417.281 66.11 417.667 65.2601L418.061 64.4617C418.596 63.4631 419.511 62.731 420.809 62.2701C422.106 61.7326 424.091 61.4637 426.761 61.4636C427.067 61.4636 427.219 61.2333 427.219 60.7724ZM367.224 80.5935C367.224 77.1367 368.025 74.1396 369.628 71.6046C371.308 68.9928 373.446 66.651 376.041 64.5769C376.249 64.4046 376.462 64.2383 376.672 64.0679C377.575 65.4131 378.546 66.7748 379.59 68.1484C382.643 71.9892 386.003 75.7159 389.667 79.3262C393.33 82.936 397.069 86.2771 400.885 89.3493C401.583 89.9323 402.264 90.4852 402.919 91.0158C401.024 93.0257 398.824 94.7036 396.306 96.0341C393.253 97.5703 389.931 98.3382 386.344 98.3382V95.5947C389.519 95.5947 392.41 94.9197 395.057 93.5933C396.396 92.8843 397.631 92.0699 398.766 91.1525C395.02 88.1134 391.35 84.8245 387.758 81.2848C384.019 77.6006 380.586 73.7919 377.46 69.8604L377.442 69.839L377.423 69.8149C376.985 69.2379 376.561 68.6604 376.145 68.0868C374.484 69.6207 373.083 71.2861 371.928 73.0782L371.476 73.8605C370.482 75.7352 369.95 77.955 369.95 80.5935L369.982 81.6116C370.129 83.9511 370.79 86.1228 371.966 88.1624C373.383 90.4156 375.311 92.2345 377.809 93.6254C380.264 94.917 383.088 95.5945 386.344 95.5947V98.3382L384.989 98.3007C382.313 98.1567 379.851 97.5809 377.604 96.5726L376.499 96.0341C373.599 94.4209 371.308 92.2684 369.628 89.5797C368.226 87.16 367.437 84.5638 367.262 81.7911L367.224 80.5935ZM391.977 39.2258C391.977 36.6221 391.381 34.8735 390.447 33.6878L390.029 33.2136L390.007 33.1948L389.989 33.1734C388.738 31.8621 387.078 31.1371 384.742 31.1371C382.438 31.1373 380.991 31.8114 380.016 32.876C379.136 33.9187 378.424 35.9182 378.424 39.4562L378.459 40.8119C378.624 43.9826 379.372 47.2472 380.735 50.618C381.235 51.8316 381.804 53.0426 382.431 54.2564C382.922 53.8514 383.412 53.4501 383.89 53.0401L383.903 53.0267L383.919 53.0133C386.415 50.9313 388.404 48.7434 389.917 46.4598C391.272 44.4139 391.977 42.0344 391.977 39.2258ZM394.663 40.4449C394.48 43.2512 393.654 45.7634 392.185 47.9816L391.53 48.9247C389.952 51.1094 387.995 53.1778 385.657 55.1272C384.359 56.2416 383.012 57.336 381.619 58.412C380.287 56.1756 379.149 53.931 378.216 51.671C376.747 48.041 375.919 44.4689 375.735 40.9566L375.698 39.4562C375.698 35.6152 376.461 32.8102 377.988 31.0434C379.59 29.277 381.842 28.3937 384.742 28.3936C387.718 28.3936 390.124 29.3533 391.956 31.2738C393.788 33.1174 394.703 35.769 394.703 39.2258L394.663 40.4449ZM404.173 38.0898C404.059 41.5993 403.085 44.7858 401.194 47.561L401.196 47.5637C399.405 50.2253 397.053 52.6573 394.192 54.878L394.184 54.8861C391.677 56.8159 389.031 58.7045 386.254 60.558C386.618 61.079 386.992 61.6018 387.38 62.1227C390.268 65.998 393.574 69.7737 397.299 73.4479C400.102 76.1576 403.006 78.7215 406.01 81.1454C406.199 80.6735 406.385 80.1954 406.55 79.7067L406.955 78.4823C407.809 75.6953 408.235 72.8297 408.235 69.8765C408.235 68.0354 407.908 66.7114 407.41 65.7638L407.186 65.3807L407.16 65.3378L407.136 65.295C407.099 65.2332 406.928 64.9886 406.236 64.7484C405.699 64.5623 404.946 64.4161 403.933 64.3545L402.834 64.3224C401.615 64.3224 400.743 63.6306 400.278 62.9292C399.986 62.4889 399.835 62.0309 399.751 61.6673L399.684 61.3404L399.647 61.1153V60.8876C399.647 60.439 399.707 59.6234 400.219 58.8487C400.86 57.881 401.877 57.4563 402.82 57.4528L426.748 57.3376H426.761C427.708 57.3376 428.729 57.7617 429.373 58.7335C429.886 59.5085 429.945 60.3236 429.945 60.7724C429.945 61.221 429.887 62.0385 429.373 62.814C428.729 63.7853 427.708 64.2072 426.761 64.2072C424.184 64.2072 422.638 64.4799 421.847 64.8073L421.781 64.8341L421.717 64.8582C420.91 65.1447 420.606 65.4893 420.46 65.7612C420.041 66.545 419.607 67.6259 419.182 69.0513C418.463 71.767 417.481 74.6889 416.241 77.8098C415.199 80.5292 413.892 83.231 412.332 85.9199C415.93 88.4605 419.369 90.5981 422.651 92.3367C426.884 94.5017 430.288 95.7988 432.919 96.3422C433.661 96.4937 434.575 96.9348 435.139 97.9283C435.651 98.8291 435.611 99.7362 435.52 100.286L435.512 100.332L435.504 100.374C435.426 100.768 435.251 101.399 434.788 101.982C434.235 102.678 433.377 103.155 432.373 103.156H420.008C418.897 103.156 417.684 102.907 416.422 102.504L415.144 102.054C413.316 101.354 411.093 100.179 408.518 98.6088L408.478 98.5847L408.435 98.5579C407.269 97.7877 405.993 96.873 404.604 95.8224L404.569 95.8572L404.554 95.8706C401.696 98.4923 398.323 100.579 394.466 102.148L394.464 102.145C390.562 103.764 386.12 104.538 381.193 104.538C376.353 104.538 372.098 103.793 368.539 102.167L367.837 101.829L367.767 101.792C364.495 100.025 361.888 97.7383 360.074 94.89L359.722 94.314L359.698 94.2711L359.677 94.2309C358.027 91.1721 357.172 87.9598 357.172 84.6258C357.172 80.6356 358.126 77.0054 360.108 73.8311C361.946 70.8891 364.271 68.2242 367.059 65.8308L367.073 65.8174L367.089 65.804C368.699 64.461 370.367 63.1655 372.083 61.9057C371.592 61.0734 371.124 60.2472 370.685 59.422L369.937 57.9672L369.913 57.9163L369.889 57.8627C368.853 55.5375 368.007 53.2703 367.357 51.0654C366.682 48.7702 366.33 46.5098 366.33 44.295C366.33 40.4574 367.247 36.9018 369.106 33.6931C370.957 30.5009 373.522 27.9684 376.755 26.1216C380.053 24.1604 383.855 23.2308 388.061 23.2307C390.431 23.2307 392.784 23.6273 395.108 24.4068C397.641 25.1797 399.774 26.6211 401.465 28.6829C401.473 28.6916 401.482 28.701 401.489 28.7097C401.495 28.7168 401.502 28.7241 401.508 28.7312C403.421 31.0064 404.183 34.0207 404.183 37.3825L404.173 38.0898Z" fill="#8A8A88"/>
<path d="M455.902 114.889C455.902 114.456 455.928 113.83 456.132 113.222C456.312 112.686 457.071 111.074 459.032 111.074L460.325 111.058C463.207 110.995 465.157 110.718 466.326 110.331L466.35 110.323L466.375 110.317C467.478 109.975 468.011 109.412 468.302 108.546L468.326 108.47L468.356 108.395C468.87 107.119 469.223 104.949 469.223 101.655V19.953C469.223 17.0347 468.994 15.0331 468.652 13.7844L468.497 13.2943L468.489 13.2674L468.478 13.2378C468.224 12.4804 467.785 11.9574 466.941 11.6088L466.554 11.4688L466.451 11.4365L466.35 11.3961C465.074 10.8887 462.837 10.5345 459.387 10.5345C458.813 10.5344 458.186 10.3853 457.615 10.0067C457.061 9.63961 456.715 9.1619 456.506 8.74662C456.127 7.99402 456.081 7.21287 456.081 6.71913C456.081 6.22537 456.128 5.44396 456.506 4.69165C456.715 4.27677 457.061 3.80101 457.615 3.43424C458.186 3.05569 458.813 2.90388 459.387 2.90381C462.531 2.90381 466.019 3.02184 469.847 3.25922C473.584 3.37442 477.559 3.43424 481.77 3.43424V6.1914L478.615 6.18063C475.507 6.15856 472.531 6.10191 469.69 6.01369C465.901 5.77844 462.466 5.66097 459.387 5.66097C459.033 5.66124 458.856 6.01396 458.856 6.71913L458.889 7.18225C458.955 7.57946 459.121 7.7771 459.387 7.7773C462.94 7.7773 465.604 8.13241 467.38 8.83816C469.275 9.4263 470.52 10.6011 471.113 12.3654C471.705 14.0121 471.999 16.542 471.999 19.953V101.655L471.983 102.894C471.905 105.699 471.555 107.874 470.934 109.418C470.342 111.182 469.099 112.36 467.204 112.948C465.428 113.536 462.703 113.831 459.032 113.831L458.948 113.847C458.768 113.925 458.677 114.273 458.677 114.889L458.699 115.352C458.743 115.749 458.855 115.947 459.032 115.947C460.572 115.947 462.216 115.934 463.963 115.904L469.514 115.77C473.421 115.652 477.507 115.595 481.77 115.595L485.066 115.605C488.286 115.627 491.273 115.681 494.026 115.77C496.868 115.858 499.51 115.914 501.952 115.937L504.329 115.947C504.743 115.947 504.976 115.677 505.028 115.137L505.039 114.889C505.039 114.271 504.857 113.924 504.494 113.847L504.329 113.831C501.116 113.831 498.628 113.606 496.867 113.155L496.157 112.948C494.381 112.36 493.196 111.182 492.603 109.418C492.085 107.874 491.795 105.699 491.731 102.894L491.717 101.655V63.2409L495.688 59.2344L518.894 90.3601C523.157 96.1244 526.591 100.713 529.197 104.124C531.802 107.536 533.875 110.125 535.414 111.89C537.071 113.653 538.491 114.829 539.675 115.417C540.711 115.932 541.885 116.222 543.193 116.287L543.762 116.3C544.236 116.3 544.753 116.286 545.315 116.257L547.137 116.125C548.114 116.037 549.224 115.98 550.468 115.958L551.755 115.947H571.65L571.774 115.931C571.969 115.876 572.093 115.683 572.148 115.352L572.184 114.889C572.184 114.272 572.046 113.924 571.774 113.847L571.65 113.831C569.755 113.831 567.979 113.711 566.321 113.476C564.974 113.27 563.582 112.75 562.144 111.914L561.524 111.537C559.866 110.478 557.913 108.771 555.664 106.418C553.532 103.948 550.868 100.654 547.671 96.5368C544.473 92.3018 540.564 86.9486 535.946 80.4785L509.581 45.217L529.728 24.8938C534.724 20.0413 540.241 16.1216 546.278 13.1301L547.492 12.5431C554.005 9.36692 559.985 7.77738 565.432 7.7773C565.699 7.7773 565.864 7.57958 565.931 7.18225L565.966 6.71913C565.966 6.01369 565.787 5.66097 565.432 5.66097C562.353 5.66098 559.155 5.77843 555.84 6.01369C552.524 6.13131 548.023 6.1914 542.339 6.1914V3.43424C547.993 3.43424 552.447 3.37448 555.713 3.25922C559.064 3.02294 562.304 2.90382 565.432 2.90381C566.006 2.90381 566.633 3.0556 567.205 3.43424C567.758 3.80097 568.104 4.2767 568.313 4.69165C568.692 5.44396 568.741 6.22537 568.741 6.71913L568.728 7.13917C568.697 7.6023 568.597 8.18226 568.313 8.74662C568.104 9.16184 567.759 9.6397 567.205 10.0067C566.633 10.3851 566.006 10.5345 565.432 10.5345C560.525 10.5345 554.967 11.9681 548.714 15.0175L548.695 15.0256L548.679 15.0364C542.454 17.9596 536.785 21.898 531.669 26.8674L513.227 45.4701L538.173 78.8361L538.192 78.8603L538.209 78.8845C542.819 85.3434 546.713 90.6753 549.891 94.8836C553.038 98.9358 555.646 102.158 557.721 104.566C559.883 106.822 561.646 108.335 563.025 109.216C564.44 110.119 565.676 110.588 566.744 110.751H566.741C567.867 110.909 569.067 111.011 570.341 111.052L571.65 111.074C572.224 111.074 572.851 111.223 573.422 111.602C573.977 111.969 574.322 112.446 574.531 112.862C574.91 113.614 574.959 114.395 574.959 114.889L574.946 115.306C574.915 115.77 574.815 116.352 574.531 116.917C574.322 117.332 573.976 117.807 573.422 118.174C572.851 118.553 572.224 118.704 571.65 118.704H551.755C550.036 118.704 548.584 118.761 547.389 118.869C546.032 118.991 544.818 119.057 543.762 119.057C541.862 119.057 540.061 118.692 538.434 117.883C537.006 117.174 535.532 115.965 534.029 114.442L533.384 113.769L533.349 113.734L533.316 113.694C532.117 112.319 530.626 110.49 528.852 108.214L526.985 105.791C524.367 102.363 520.922 97.7637 516.656 91.9945V91.9918L495.39 63.4671L494.493 64.3718V101.655L494.506 102.848C494.56 105.136 494.769 106.827 495.075 108.002L495.238 108.546C495.514 109.369 495.957 109.88 496.699 110.204L497.035 110.331C498.205 110.718 500.154 110.995 503.036 111.058L504.329 111.074C505.374 111.074 506.473 111.529 507.169 112.565C507.592 113.195 507.744 113.865 507.793 114.402L507.814 114.889L507.793 115.374C507.744 115.911 507.592 116.582 507.169 117.213C506.473 118.249 505.373 118.704 504.329 118.704C502.772 118.704 501.127 118.688 499.396 118.659L493.94 118.527H493.937C490.302 118.41 486.246 118.352 481.77 118.352C477.533 118.352 473.475 118.41 469.598 118.527C465.669 118.645 462.146 118.704 459.032 118.704C457.072 118.704 456.313 117.093 456.132 116.556C455.928 115.949 455.902 115.323 455.902 114.889ZM516.119 6.71913C516.119 6.22537 516.166 5.44396 516.544 4.69165C516.753 4.27681 517.1 3.80104 517.653 3.43424C518.224 3.05579 518.851 2.90396 519.426 2.90381C522.667 2.90381 525.966 3.023 529.319 3.25922C532.584 3.37463 536.921 3.43423 542.339 3.43424V6.1914L538.455 6.18063C535.998 6.16592 533.807 6.13589 531.883 6.09177L529.197 6.01369C525.881 5.77842 522.623 5.66097 519.426 5.66097C519.071 5.66154 518.894 6.01426 518.894 6.71913L518.927 7.18225C518.993 7.57928 519.16 7.77687 519.426 7.7773C525.347 7.7773 528.841 9.36685 529.907 12.5431C531.091 15.7193 529.491 19.4831 525.109 23.8356L491.717 57.7804V20.3057C491.717 17.3211 491.944 14.9671 492.397 13.2432L492.603 12.5431C493.225 10.9991 494.256 9.85967 495.693 9.12626L496.336 8.83816C497.89 8.22061 500.124 7.87329 503.039 7.79615L504.329 7.7773C504.683 7.77687 504.86 7.42454 504.86 6.71913C504.86 6.10212 504.725 5.75447 504.453 5.67712L504.329 5.66097C501.368 5.66097 497.992 5.77842 494.203 6.01369C490.414 6.13131 486.269 6.19139 481.77 6.1914V3.43424C486.217 3.43423 490.307 3.37429 494.043 3.25922C497.869 3.02184 501.3 2.90381 504.329 2.90381L504.768 2.93343C505.213 2.99361 505.673 3.15043 506.101 3.43424C506.655 3.80103 507.001 4.27679 507.21 4.69165C507.588 5.44396 507.635 6.22537 507.635 6.71913C507.635 7.21286 507.589 7.99403 507.21 8.74662C507.001 9.16187 506.655 9.63961 506.101 10.0067C505.53 10.3852 504.903 10.5343 504.329 10.5345C500.88 10.5345 498.643 10.8888 497.366 11.3961C496.32 11.8114 495.644 12.4705 495.214 13.4909C494.778 14.8382 494.493 17.0493 494.493 20.3057V51.0141L523.125 21.9077L523.147 21.8862C527.145 17.915 527.799 15.3611 527.397 13.8005L527.305 13.5016L527.272 13.4155C526.826 12.0861 525.158 10.5345 519.426 10.5345C518.851 10.5343 518.224 10.3852 517.653 10.0067C517.099 9.63962 516.753 9.16183 516.544 8.74662C516.166 7.99406 516.119 7.21284 516.119 6.71913Z" fill="url(#paint0_linear_20_325)"/>
<path d="M640.456 0C649.659 2.08437e-05 657.974 1.67975 665.341 5.10938H665.338C672.253 8.16383 678.217 12.2797 683.199 17.4609L684.185 18.5127C689.327 24.1559 693.224 30.5595 695.863 37.707C698.618 44.846 700 52.191 700 59.7246C699.999 68.4897 698.244 76.6792 694.709 84.2539C691.202 91.7696 686.374 98.352 680.24 103.985L680.238 103.982C674.233 109.607 667.241 114.036 659.287 117.268L659.267 117.276C651.381 120.406 643.007 121.961 634.17 121.961C625.782 121.961 618.035 120.595 610.961 117.824L609.553 117.251L609.529 117.24L609.501 117.227C602.683 114.17 596.724 110.055 591.646 104.881L590.643 103.835L590.619 103.81C585.477 98.1663 581.469 91.7086 578.594 84.459L578.583 84.4316L578.575 84.4072C575.819 77.0165 574.446 69.1999 574.446 60.9814C574.446 50.925 576.373 41.9755 580.317 34.2139L580.333 34.1816C584.337 26.5491 589.614 20.19 596.165 15.1455L597.386 14.2031C603.538 9.56411 610.25 6.06857 617.51 3.72656C625.191 1.24914 632.842 1.02015e-05 640.456 0ZM640.456 2.80566C633.154 2.80567 625.792 4.0035 618.371 6.39746L616.987 6.86035C610.099 9.25208 603.737 12.7493 597.901 17.3506C591.677 22.1386 586.649 28.1838 582.819 35.4854C579.157 42.6919 577.301 51.065 577.253 60.6035C577.347 60.6681 577.408 60.7772 577.405 60.8994V60.916C577.405 60.9274 577.404 60.9452 577.404 60.9678C577.403 61.0128 577.402 61.0792 577.401 61.1641C577.4 61.3344 577.4 61.5795 577.404 61.875C577.412 62.4666 577.436 63.2597 577.503 64.0703C577.535 64.4517 577.552 64.8129 577.568 65.168C578.523 71.2239 581.269 76.8612 585.739 81.2598C591.265 86.6983 598.715 89.8055 606.515 89.9453C607.8 92.7366 609.237 95.3523 610.828 97.791C614.538 103.177 618.849 107.366 623.756 110.358C628.469 113.052 633.551 114.483 639 114.651L640.097 114.668C646.381 114.668 652.034 112.985 657.056 109.618L658.05 108.923C663.317 105.092 667.447 99.4644 670.44 92.043C673.357 85.0857 674.91 76.7086 675.092 66.9111L675.109 64.9326C675.109 53.9202 673.432 44.1038 670.081 35.4854C669.419 33.7837 668.7 32.1548 667.926 30.5977C675.729 30.7355 683.182 33.8448 688.71 39.2852C693.756 44.2507 696.603 50.7944 697.16 57.7373C697.164 57.8531 697.165 57.969 697.168 58.085L697.184 58.084C697.176 57.9684 697.169 57.8527 697.16 57.7373C696.939 51.249 695.636 44.9082 693.246 38.7158C690.889 32.3191 687.479 26.5541 683.018 21.4199L682.112 20.4033C677.204 15.0171 671.22 10.7675 664.158 7.65527C657.649 4.62528 650.297 3.01455 642.105 2.8252L640.456 2.80566ZM664.829 30.7002C665.789 32.5171 666.669 34.4502 667.467 36.502L668.051 38.0605C670.871 45.9278 672.303 54.8738 672.303 64.9326C672.303 75.3269 670.783 83.9722 667.854 90.958L667.84 90.9961C664.999 98.0411 661.154 103.197 656.401 106.654C651.629 110.125 646.225 111.862 640.097 111.862C634.723 111.862 629.764 110.555 625.173 107.937C620.671 105.182 616.659 101.301 613.157 96.2236C611.859 94.2298 610.664 92.1047 609.573 89.8477C616.653 89.2665 623.329 86.2412 628.391 81.2598C633.87 75.8676 637.023 68.6143 637.215 61.0098L637.235 59.5352C637.427 51.9307 640.579 44.6773 646.058 39.2852C651.109 34.3149 657.766 31.2911 664.829 30.7002ZM634.897 7.68262C642.941 7.97717 649.881 10.4816 655.716 15.1943C660.712 19.1331 664.781 24.2686 667.926 30.5977C667.746 30.5945 667.565 30.5918 667.384 30.5918C666.528 30.5918 665.675 30.6293 664.829 30.7002C661.936 25.2287 658.311 20.8128 653.979 17.3975L653.955 17.3779C648.276 12.7916 641.432 10.4609 633.272 10.4609C623.208 10.4613 615.717 14.2113 610.422 21.666C605.013 29.2832 602.142 40.0698 602.142 54.3379L602.154 55.9268C602.27 63.8292 603.257 71.1236 605.093 77.8232C606.309 82.1842 607.804 86.1897 609.573 89.8477C608.742 89.9159 607.905 89.9531 607.065 89.9531C606.881 89.9531 606.698 89.9486 606.515 89.9453C604.899 86.4343 603.523 82.6449 602.389 78.5771C600.482 71.6196 599.469 64.0825 599.35 55.9678L599.336 54.3379C599.336 40.1912 602.09 29.0214 607.594 20.8281L608.134 20.0439C613.999 11.7849 622.38 7.65562 633.272 7.65527L634.897 7.68262ZM577.956 70.7441C578.079 71.5819 578.217 72.4147 578.373 73.2422C578.371 73.228 578.371 73.2133 578.37 73.1982C578.35 72.9809 578.316 72.6673 578.259 72.2861C578.193 71.846 578.096 71.3178 577.956 70.7441ZM696.295 70.0234C696.152 70.8222 695.991 71.6149 695.813 72.4014C695.841 72.2807 695.871 72.1592 695.899 72.0361C696.065 71.305 696.193 70.6452 696.295 70.0234Z" fill="url(#paint1_linear_20_325)"/>
<path d="M612.662 186.325C612.081 186.325 611.616 186.165 611.268 185.845C610.919 185.497 610.745 185.032 610.745 184.452C610.745 183.9 610.919 183.464 611.268 183.145C611.616 182.796 612.081 182.622 612.662 182.622C613.271 182.622 613.736 182.796 614.055 183.145C614.375 183.464 614.535 183.9 614.535 184.452C614.535 185.032 614.375 185.497 614.055 185.845C613.736 186.165 613.271 186.325 612.662 186.325Z" fill="#8A8A88"/>
<path d="M595.409 164.938C596.426 164.938 597.573 165.054 598.851 165.286C600.157 165.49 601.217 165.794 602.03 166.201C602.263 166.288 602.393 166.375 602.422 166.462C602.48 166.549 602.524 166.709 602.553 166.941L602.988 171.428C602.988 171.515 602.901 171.573 602.727 171.602C602.582 171.631 602.495 171.588 602.466 171.471C601.914 169.439 600.941 167.958 599.547 167.029C598.154 166.07 596.469 165.591 594.495 165.591C592.985 165.591 591.62 165.998 590.4 166.811C589.21 167.595 588.266 168.698 587.569 170.121C586.872 171.515 586.524 173.112 586.524 174.912C586.524 176.219 586.713 177.511 587.09 178.789C587.468 180.067 588.034 181.243 588.789 182.317C589.544 183.363 590.487 184.205 591.62 184.844C592.782 185.453 594.132 185.758 595.671 185.758C597.413 185.758 598.909 185.279 600.157 184.321C601.406 183.363 602.306 181.838 602.858 179.747C602.887 179.631 602.974 179.588 603.119 179.617C603.293 179.646 603.381 179.704 603.381 179.791L602.814 184.408C602.785 184.64 602.742 184.8 602.684 184.887C602.626 184.974 602.466 185.076 602.204 185.192C600.956 185.628 599.722 185.933 598.502 186.107C597.311 186.281 596.223 186.368 595.235 186.368C593.028 186.368 591.17 186.034 589.66 185.366C588.15 184.669 586.93 183.784 586.001 182.709C585.101 181.606 584.448 180.43 584.041 179.181C583.634 177.903 583.431 176.698 583.431 175.566C583.431 173.533 583.954 171.718 584.999 170.121C586.074 168.524 587.511 167.261 589.311 166.332C591.112 165.402 593.144 164.938 595.409 164.938Z" fill="#8A8A88"/>
<path d="M558.241 181.098V166.419L559.113 166.549V181.098C559.113 182.637 559.33 183.726 559.766 184.364C560.201 185.003 560.956 185.323 562.031 185.323C562.089 185.323 562.118 185.41 562.118 185.584C562.118 185.758 562.089 185.845 562.031 185.845C561.537 185.845 561.015 185.831 560.463 185.802C559.94 185.773 559.359 185.758 558.721 185.758C558.111 185.758 557.515 185.773 556.935 185.802C556.354 185.831 555.802 185.845 555.279 185.845C555.221 185.845 555.192 185.758 555.192 185.584C555.192 185.41 555.221 185.323 555.279 185.323C556.383 185.323 557.152 185.003 557.588 184.364C558.024 183.726 558.241 182.637 558.241 181.098ZM574.488 186.325C574.488 186.383 574.416 186.412 574.271 186.412C574.125 186.441 574.024 186.441 573.966 186.412L559.679 169.032C558.721 167.871 557.907 167.072 557.24 166.637C556.572 166.201 555.918 165.983 555.279 165.983C555.221 165.983 555.192 165.896 555.192 165.722C555.192 165.548 555.221 165.46 555.279 165.46C555.686 165.46 556.107 165.475 556.543 165.504C556.978 165.504 557.37 165.504 557.719 165.504C558.009 165.504 558.256 165.504 558.459 165.504C558.692 165.475 558.924 165.46 559.156 165.46C559.417 165.46 559.708 165.46 560.027 165.46C560.405 165.46 560.681 165.635 560.855 165.983C561.029 166.332 561.436 166.912 562.074 167.725L574.053 182.491L574.488 186.325ZM574.488 170.208V186.325L573.617 184.974V170.208C573.617 168.669 573.399 167.58 572.964 166.941C572.557 166.303 571.817 165.983 570.742 165.983C570.655 165.983 570.612 165.896 570.612 165.722C570.612 165.548 570.655 165.46 570.742 165.46C571.236 165.46 571.744 165.489 572.267 165.548C572.819 165.577 573.414 165.591 574.053 165.591C574.663 165.591 575.272 165.577 575.882 165.548C576.492 165.489 577.029 165.46 577.494 165.46C577.581 165.46 577.625 165.548 577.625 165.722C577.625 165.896 577.581 165.983 577.494 165.983C576.419 165.983 575.65 166.303 575.185 166.941C574.721 167.58 574.488 168.669 574.488 170.208Z" fill="#8A8A88"/>
<path d="M545.915 182.317C545.915 183.159 545.988 183.798 546.133 184.234C546.307 184.669 546.627 184.96 547.091 185.105C547.556 185.25 548.253 185.323 549.182 185.323C549.24 185.323 549.269 185.41 549.269 185.584C549.269 185.758 549.24 185.845 549.182 185.845C548.543 185.845 547.832 185.831 547.048 185.802C546.293 185.773 545.451 185.758 544.521 185.758C543.708 185.758 542.895 185.773 542.082 185.802C541.269 185.831 540.558 185.845 539.948 185.845C539.89 185.845 539.861 185.758 539.861 185.584C539.861 185.41 539.89 185.323 539.948 185.323C540.906 185.323 541.618 185.25 542.082 185.105C542.547 184.96 542.852 184.669 542.997 184.234C543.142 183.798 543.215 183.159 543.215 182.317V168.989C543.215 168.146 543.142 167.522 542.997 167.116C542.852 166.68 542.547 166.39 542.082 166.244C541.618 166.07 540.906 165.983 539.948 165.983C539.89 165.983 539.861 165.896 539.861 165.722C539.861 165.548 539.89 165.46 539.948 165.46C540.558 165.46 541.269 165.489 542.082 165.548C542.895 165.577 543.708 165.591 544.521 165.591C545.451 165.591 546.307 165.577 547.091 165.548C547.875 165.489 548.572 165.46 549.182 165.46C549.24 165.46 549.269 165.548 549.269 165.722C549.269 165.896 549.24 165.983 549.182 165.983C547.788 165.983 546.888 166.186 546.482 166.593C546.104 166.999 545.915 167.827 545.915 169.076V182.317Z" fill="#8A8A88"/>
<path d="M509.894 168.989C509.894 169.918 510.127 170.716 510.591 171.384C511.085 172.023 511.724 172.589 512.508 173.083C513.292 173.548 514.105 173.998 514.947 174.433C515.847 174.898 516.704 175.392 517.517 175.914C518.359 176.437 519.041 177.061 519.564 177.787C520.087 178.513 520.348 179.428 520.348 180.531C520.348 181.606 520.058 182.593 519.477 183.493C518.896 184.364 518.054 185.061 516.951 185.584C515.876 186.107 514.57 186.368 513.031 186.368C512.101 186.368 511.187 186.237 510.286 185.976C509.386 185.744 508.559 185.366 507.804 184.844C507.658 184.786 507.557 184.684 507.499 184.539C507.47 184.393 507.441 184.219 507.412 184.016L506.976 179.704C506.947 179.559 507.005 179.486 507.15 179.486C507.324 179.457 507.441 179.501 507.499 179.617C507.76 180.691 508.196 181.693 508.805 182.622C509.444 183.551 510.199 184.292 511.07 184.844C511.971 185.395 512.929 185.671 513.945 185.671C514.526 185.671 515.107 185.555 515.688 185.323C516.268 185.09 516.747 184.713 517.125 184.19C517.502 183.668 517.691 182.942 517.691 182.012C517.691 180.996 517.444 180.139 516.951 179.442C516.457 178.746 515.818 178.136 515.034 177.613C514.25 177.09 513.437 176.611 512.595 176.176C511.724 175.682 510.896 175.188 510.112 174.695C509.328 174.172 508.675 173.562 508.152 172.865C507.658 172.139 507.412 171.254 507.412 170.208C507.412 169.047 507.716 168.088 508.326 167.333C508.965 166.549 509.778 165.954 510.765 165.548C511.782 165.141 512.856 164.938 513.989 164.938C514.657 164.938 515.354 165.01 516.08 165.156C516.835 165.301 517.59 165.562 518.345 165.94C518.577 166.056 518.737 166.157 518.824 166.245C518.911 166.332 518.969 166.477 518.998 166.68L519.259 170.47C519.259 170.586 519.187 170.658 519.041 170.687C518.896 170.716 518.795 170.673 518.737 170.557C518.649 170.063 518.446 169.526 518.127 168.945C517.836 168.364 517.444 167.827 516.951 167.333C516.486 166.811 515.934 166.39 515.296 166.07C514.657 165.751 513.96 165.591 513.205 165.591C512.159 165.591 511.346 165.925 510.765 166.593C510.185 167.232 509.894 168.03 509.894 168.989Z" fill="#8A8A88"/>
<path d="M483.07 185.845C483.011 185.845 482.982 185.758 482.982 185.584C482.982 185.41 483.011 185.323 483.07 185.323C483.999 185.323 484.696 185.25 485.16 185.105C485.625 184.96 485.93 184.669 486.075 184.234C486.22 183.798 486.293 183.159 486.293 182.317V168.989C486.293 168.146 486.22 167.522 486.075 167.116C485.93 166.68 485.625 166.39 485.16 166.244C484.696 166.07 483.999 165.983 483.07 165.983C483.011 165.983 482.982 165.896 482.982 165.722C482.982 165.548 483.011 165.46 483.07 165.46H498.228C498.518 165.46 498.663 165.577 498.663 165.809C498.663 166.535 498.678 167.377 498.707 168.335C498.736 169.294 498.75 170.049 498.75 170.6C498.75 170.687 498.663 170.731 498.489 170.731C498.315 170.731 498.228 170.687 498.228 170.6C498.111 169.264 497.632 168.176 496.79 167.333C495.948 166.462 494.888 166.027 493.61 166.027H492.391C491.433 166.027 490.707 166.114 490.213 166.288C489.719 166.433 489.385 166.724 489.211 167.159C489.037 167.566 488.95 168.19 488.95 169.032V182.143C488.95 182.956 489.037 183.58 489.211 184.016C489.385 184.452 489.719 184.756 490.213 184.931C490.707 185.076 491.433 185.148 492.391 185.148H494.482C495.295 185.148 496.035 184.931 496.703 184.495C497.4 184.06 497.981 183.464 498.445 182.709C498.939 181.925 499.287 181.04 499.491 180.052C499.491 179.965 499.563 179.922 499.709 179.922C499.883 179.922 499.97 179.965 499.97 180.052C499.912 180.72 499.839 181.533 499.752 182.491C499.694 183.45 499.665 184.35 499.665 185.192C499.665 185.628 499.447 185.845 499.012 185.845H483.07ZM496.485 176.481C496.34 176.481 495.992 176.437 495.44 176.35C494.888 176.234 494.017 176.132 492.826 176.045C491.636 175.958 489.981 175.914 487.861 175.914V175C489.981 175 491.636 174.971 492.826 174.912C494.017 174.825 494.888 174.753 495.44 174.695C495.992 174.608 496.34 174.564 496.485 174.564C496.572 174.564 496.63 174.666 496.66 174.869C496.689 175.043 496.703 175.246 496.703 175.479C496.703 175.74 496.689 175.972 496.66 176.176C496.63 176.379 496.572 176.481 496.485 176.481Z" fill="#8A8A88"/>
<path d="M466.535 168.989C466.535 169.918 466.768 170.716 467.232 171.384C467.726 172.023 468.365 172.589 469.149 173.083C469.933 173.548 470.746 173.998 471.588 174.433C472.488 174.898 473.345 175.392 474.158 175.914C475 176.437 475.683 177.061 476.205 177.787C476.728 178.513 476.989 179.428 476.989 180.531C476.989 181.606 476.699 182.593 476.118 183.493C475.537 184.364 474.695 185.061 473.592 185.584C472.517 186.107 471.211 186.368 469.672 186.368C468.742 186.368 467.828 186.237 466.927 185.976C466.027 185.744 465.2 185.366 464.445 184.844C464.3 184.786 464.198 184.684 464.14 184.539C464.111 184.393 464.082 184.219 464.053 184.016L463.617 179.704C463.588 179.559 463.646 179.486 463.791 179.486C463.966 179.457 464.082 179.501 464.14 179.617C464.401 180.691 464.837 181.693 465.447 182.622C466.085 183.551 466.84 184.292 467.712 184.844C468.612 185.395 469.57 185.671 470.586 185.671C471.167 185.671 471.748 185.555 472.329 185.323C472.909 185.09 473.389 184.713 473.766 184.19C474.144 183.668 474.332 182.942 474.332 182.012C474.332 180.996 474.085 180.139 473.592 179.442C473.098 178.746 472.459 178.136 471.675 177.613C470.891 177.09 470.078 176.611 469.236 176.176C468.365 175.682 467.537 175.188 466.753 174.695C465.969 174.172 465.316 173.562 464.793 172.865C464.3 172.139 464.053 171.254 464.053 170.208C464.053 169.047 464.358 168.088 464.967 167.333C465.606 166.549 466.419 165.954 467.407 165.548C468.423 165.141 469.497 164.938 470.63 164.938C471.298 164.938 471.995 165.01 472.721 165.156C473.476 165.301 474.231 165.562 474.986 165.94C475.218 166.056 475.378 166.157 475.465 166.245C475.552 166.332 475.61 166.477 475.639 166.68L475.9 170.47C475.9 170.586 475.828 170.658 475.683 170.687C475.537 170.716 475.436 170.673 475.378 170.557C475.291 170.063 475.087 169.526 474.768 168.945C474.477 168.364 474.085 167.827 473.592 167.333C473.127 166.811 472.575 166.39 471.937 166.07C471.298 165.751 470.601 165.591 469.846 165.591C468.8 165.591 467.987 165.925 467.407 166.593C466.826 167.232 466.535 168.03 466.535 168.989Z" fill="#8A8A88"/>
<path d="M453.381 182.317C453.381 183.159 453.454 183.798 453.599 184.234C453.773 184.669 454.093 184.96 454.557 185.105C455.022 185.25 455.719 185.323 456.648 185.323C456.706 185.323 456.735 185.41 456.735 185.584C456.735 185.758 456.706 185.845 456.648 185.845C456.009 185.845 455.298 185.831 454.514 185.802C453.759 185.773 452.917 185.758 451.987 185.758C451.174 185.758 450.361 185.773 449.548 185.802C448.735 185.831 448.024 185.845 447.414 185.845C447.356 185.845 447.327 185.758 447.327 185.584C447.327 185.41 447.356 185.323 447.414 185.323C448.372 185.323 449.083 185.25 449.548 185.105C450.013 184.96 450.318 184.669 450.463 184.234C450.608 183.798 450.681 183.159 450.681 182.317V168.989C450.681 168.146 450.608 167.522 450.463 167.116C450.318 166.68 450.013 166.39 449.548 166.244C449.083 166.07 448.372 165.983 447.414 165.983C447.356 165.983 447.327 165.896 447.327 165.722C447.327 165.548 447.356 165.46 447.414 165.46C448.024 165.46 448.735 165.489 449.548 165.548C450.361 165.577 451.174 165.591 451.987 165.591C452.917 165.591 453.773 165.577 454.557 165.548C455.341 165.489 456.038 165.46 456.648 165.46C456.706 165.46 456.735 165.548 456.735 165.722C456.735 165.896 456.706 165.983 456.648 165.983C455.254 165.983 454.354 166.186 453.947 166.593C453.57 166.999 453.381 167.827 453.381 169.076V182.317Z" fill="#8A8A88"/>
<path d="M430.07 185.323C430.128 185.323 430.157 185.41 430.157 185.584C430.157 185.758 430.128 185.845 430.07 185.845C429.431 185.845 428.734 185.831 427.979 185.802C427.224 185.773 426.382 185.758 425.453 185.758C424.64 185.758 423.827 185.773 423.014 185.802C422.201 185.831 421.489 185.845 420.88 185.845C420.822 185.845 420.792 185.758 420.792 185.584C420.792 185.41 420.822 185.323 420.88 185.323C421.809 185.323 422.506 185.25 422.97 185.105C423.435 184.96 423.754 184.669 423.929 184.234C424.103 183.798 424.19 183.159 424.19 182.317V168.989C424.19 167.74 423.987 166.927 423.58 166.549C423.203 166.172 422.317 165.983 420.923 165.983C420.865 165.983 420.836 165.896 420.836 165.722C420.836 165.548 420.865 165.461 420.923 165.461C421.533 165.461 422.23 165.49 423.014 165.548C423.827 165.577 424.64 165.591 425.453 165.591C426.237 165.591 427.108 165.548 428.067 165.461C429.025 165.373 429.881 165.33 430.636 165.33C432.524 165.33 433.961 165.693 434.949 166.419C435.936 167.145 436.43 168.19 436.43 169.555C436.43 170.775 436.067 171.893 435.341 172.909C434.644 173.896 433.7 174.695 432.509 175.305C431.348 175.885 430.012 176.176 428.502 176.176C428.125 176.176 427.718 176.161 427.283 176.132C426.876 176.103 426.484 176.06 426.106 176.001L426.063 175.13C426.469 175.246 426.861 175.334 427.239 175.392C427.646 175.421 428.168 175.435 428.807 175.435C430.724 175.435 432.001 175.014 432.64 174.172C433.308 173.301 433.642 172.154 433.642 170.731C433.642 167.537 432.263 165.94 429.504 165.94C428.313 165.94 427.573 166.201 427.283 166.724C426.992 167.246 426.847 168.03 426.847 169.076V182.317C426.847 183.159 426.92 183.798 427.065 184.234C427.21 184.669 427.515 184.96 427.979 185.105C428.444 185.25 429.141 185.323 430.07 185.323ZM443.007 185.323C443.065 185.323 443.094 185.41 443.094 185.584C443.094 185.758 443.065 185.845 443.007 185.845C441.7 185.845 440.611 185.845 439.74 185.845C438.869 185.845 438.259 185.845 437.911 185.845C437.388 185.845 436.43 184.945 435.036 183.145C433.671 181.315 432.059 178.847 430.201 175.74L432.509 174.825C434.136 177.497 435.529 179.602 436.691 181.141C437.853 182.651 438.927 183.726 439.914 184.364C440.902 185.003 441.932 185.323 443.007 185.323Z" fill="#8A8A88"/>
<path d="M403.59 182.143C403.59 183.014 403.692 183.682 403.895 184.147C404.098 184.582 404.505 184.887 405.114 185.061C405.753 185.236 406.683 185.323 407.902 185.323C407.989 185.323 408.033 185.41 408.033 185.584C408.033 185.758 407.989 185.845 407.902 185.845C407.089 185.845 406.218 185.831 405.289 185.802C404.359 185.773 403.358 185.758 402.283 185.758C401.47 185.758 400.657 185.773 399.844 185.802C399.031 185.831 398.319 185.845 397.71 185.845C397.652 185.845 397.623 185.758 397.623 185.584C397.623 185.41 397.652 185.323 397.71 185.323C398.639 185.323 399.336 185.25 399.8 185.105C400.265 184.96 400.57 184.669 400.715 184.234C400.86 183.798 400.933 183.159 400.933 182.317V168.989C400.933 168.147 400.86 167.522 400.715 167.116C400.57 166.68 400.265 166.39 399.8 166.245C399.336 166.07 398.639 165.983 397.71 165.983C397.652 165.983 397.623 165.896 397.623 165.722C397.623 165.548 397.652 165.461 397.71 165.461C398.319 165.461 399.016 165.49 399.8 165.548C400.614 165.577 401.427 165.591 402.24 165.591C402.995 165.591 403.851 165.548 404.81 165.461C405.768 165.373 406.61 165.33 407.336 165.33C409.543 165.33 411.285 165.736 412.563 166.549C413.87 167.363 414.523 168.727 414.523 170.644C414.523 172.096 414.145 173.286 413.39 174.216C412.664 175.145 411.75 175.842 410.646 176.306C409.543 176.742 408.454 176.96 407.379 176.96C407.031 176.96 406.683 176.945 406.334 176.916C406.015 176.887 405.724 176.844 405.463 176.785C405.347 176.756 405.303 176.655 405.332 176.481C405.361 176.306 405.448 176.219 405.594 176.219C405.797 176.248 406.015 176.277 406.247 176.306C406.508 176.335 406.741 176.35 406.944 176.35C408.134 176.35 409.194 175.958 410.124 175.174C411.053 174.361 411.517 173.141 411.517 171.515C411.517 169.628 411.024 168.234 410.036 167.333C409.078 166.404 407.83 165.94 406.291 165.94C405.652 165.94 405.129 165.998 404.722 166.114C404.345 166.201 404.055 166.462 403.851 166.898C403.677 167.333 403.59 168.059 403.59 169.076V182.143Z" fill="#8A8A88"/>
<path d="M380.627 185.323C380.685 185.323 380.714 185.41 380.714 185.584C380.714 185.758 380.685 185.845 380.627 185.845C379.988 185.845 379.291 185.831 378.536 185.802C377.781 185.773 376.939 185.758 376.01 185.758C375.197 185.758 374.384 185.773 373.571 185.802C372.757 185.831 372.046 185.845 371.436 185.845C371.378 185.845 371.349 185.758 371.349 185.584C371.349 185.41 371.378 185.323 371.436 185.323C372.365 185.323 373.062 185.25 373.527 185.105C373.992 184.96 374.311 184.669 374.485 184.234C374.659 183.798 374.747 183.159 374.747 182.317V168.989C374.747 167.74 374.543 166.927 374.137 166.549C373.759 166.172 372.874 165.983 371.48 165.983C371.422 165.983 371.393 165.896 371.393 165.722C371.393 165.548 371.422 165.461 371.48 165.461C372.09 165.461 372.787 165.49 373.571 165.548C374.384 165.577 375.197 165.591 376.01 165.591C376.794 165.591 377.665 165.548 378.623 165.461C379.581 165.373 380.438 165.33 381.193 165.33C383.081 165.33 384.518 165.693 385.505 166.419C386.493 167.145 386.986 168.19 386.986 169.555C386.986 170.775 386.623 171.893 385.897 172.909C385.2 173.896 384.257 174.695 383.066 175.305C381.905 175.885 380.569 176.176 379.059 176.176C378.681 176.176 378.275 176.161 377.839 176.132C377.433 176.103 377.041 176.06 376.663 176.001L376.62 175.13C377.026 175.246 377.418 175.334 377.796 175.392C378.202 175.421 378.725 175.435 379.364 175.435C381.28 175.435 382.558 175.014 383.197 174.172C383.865 173.301 384.199 172.154 384.199 170.731C384.199 167.537 382.819 165.94 380.061 165.94C378.87 165.94 378.13 166.201 377.839 166.724C377.549 167.246 377.404 168.03 377.404 169.076V182.317C377.404 183.159 377.476 183.798 377.621 184.234C377.767 184.669 378.071 184.96 378.536 185.105C379.001 185.25 379.698 185.323 380.627 185.323ZM393.563 185.323C393.622 185.323 393.651 185.41 393.651 185.584C393.651 185.758 393.622 185.845 393.563 185.845C392.257 185.845 391.168 185.845 390.297 185.845C389.425 185.845 388.816 185.845 388.467 185.845C387.945 185.845 386.986 184.945 385.592 183.145C384.228 181.315 382.616 178.847 380.758 175.74L383.066 174.825C384.692 177.497 386.086 179.602 387.248 181.141C388.409 182.651 389.484 183.726 390.471 184.364C391.458 185.003 392.489 185.323 393.563 185.323Z" fill="#8A8A88"/>
<path d="M348.183 185.845C348.125 185.845 348.096 185.758 348.096 185.584C348.096 185.41 348.125 185.323 348.183 185.323C349.112 185.323 349.809 185.25 350.274 185.105C350.738 184.96 351.043 184.669 351.188 184.234C351.333 183.798 351.406 183.159 351.406 182.317V168.989C351.406 168.146 351.333 167.522 351.188 167.116C351.043 166.68 350.738 166.39 350.274 166.244C349.809 166.07 349.112 165.983 348.183 165.983C348.125 165.983 348.096 165.896 348.096 165.722C348.096 165.548 348.125 165.46 348.183 165.46H363.341C363.631 165.46 363.776 165.577 363.776 165.809C363.776 166.535 363.791 167.377 363.82 168.335C363.849 169.294 363.864 170.049 363.864 170.6C363.864 170.687 363.776 170.731 363.602 170.731C363.428 170.731 363.341 170.687 363.341 170.6C363.225 169.264 362.746 168.176 361.903 167.333C361.061 166.462 360.001 166.027 358.724 166.027H357.504C356.546 166.027 355.82 166.114 355.326 166.288C354.833 166.433 354.499 166.724 354.324 167.159C354.15 167.566 354.063 168.19 354.063 169.032V182.143C354.063 182.956 354.15 183.58 354.324 184.016C354.499 184.452 354.833 184.756 355.326 184.931C355.82 185.076 356.546 185.148 357.504 185.148H359.595C360.408 185.148 361.148 184.931 361.816 184.495C362.513 184.06 363.094 183.464 363.559 182.709C364.052 181.925 364.401 181.04 364.604 180.052C364.604 179.965 364.677 179.922 364.822 179.922C364.996 179.922 365.083 179.965 365.083 180.052C365.025 180.72 364.952 181.533 364.865 182.491C364.807 183.45 364.778 184.35 364.778 185.192C364.778 185.628 364.56 185.845 364.125 185.845H348.183ZM361.599 176.481C361.453 176.481 361.105 176.437 360.553 176.35C360.001 176.234 359.13 176.132 357.94 176.045C356.749 175.958 355.094 175.914 352.974 175.914V175C355.094 175 356.749 174.971 357.94 174.912C359.13 174.825 360.001 174.753 360.553 174.695C361.105 174.608 361.453 174.564 361.599 174.564C361.686 174.564 361.744 174.666 361.773 174.869C361.802 175.043 361.816 175.246 361.816 175.479C361.816 175.74 361.802 175.972 361.773 176.176C361.744 176.379 361.686 176.481 361.599 176.481Z" fill="#8A8A88"/>
<path d="M328.533 166.027C327.43 166.027 326.558 166.186 325.92 166.506C325.281 166.796 324.787 167.319 324.439 168.074C324.09 168.8 323.8 169.816 323.568 171.123C323.568 171.181 323.48 171.21 323.306 171.21C323.161 171.21 323.088 171.181 323.088 171.123C323.146 170.716 323.205 170.092 323.263 169.25C323.35 168.408 323.422 167.537 323.48 166.636C323.538 165.736 323.568 165.025 323.568 164.502C323.568 164.357 323.655 164.284 323.829 164.284C324.003 164.284 324.09 164.357 324.09 164.502C324.09 164.938 324.366 165.199 324.918 165.286C325.499 165.344 325.978 165.373 326.355 165.373C327.313 165.402 328.344 165.431 329.448 165.46C330.58 165.46 331.742 165.46 332.932 165.46C334.297 165.46 335.43 165.446 336.33 165.417C337.23 165.388 338.043 165.373 338.769 165.373C339.727 165.373 340.468 165.315 340.991 165.199C341.542 165.083 341.891 164.793 342.036 164.328C342.094 164.241 342.196 164.197 342.341 164.197C342.486 164.197 342.559 164.241 342.559 164.328C342.53 164.705 342.501 165.228 342.471 165.896C342.442 166.535 342.413 167.203 342.384 167.9C342.355 168.597 342.326 169.235 342.297 169.816C342.297 170.397 342.297 170.833 342.297 171.123C342.297 171.181 342.21 171.21 342.036 171.21C341.891 171.21 341.818 171.181 341.818 171.123C341.789 169.816 341.629 168.8 341.339 168.074C341.049 167.319 340.584 166.796 339.945 166.506C339.335 166.186 338.464 166.027 337.332 166.027C336.054 166.027 335.212 166.23 334.805 166.636C334.399 167.014 334.196 167.798 334.196 168.989V182.317C334.196 183.159 334.283 183.798 334.457 184.234C334.631 184.669 334.98 184.96 335.502 185.105C336.054 185.25 336.867 185.323 337.941 185.323C338.029 185.323 338.072 185.41 338.072 185.584C338.072 185.758 338.029 185.845 337.941 185.845C337.245 185.845 336.461 185.831 335.589 185.802C334.747 185.773 333.818 185.758 332.802 185.758C331.872 185.758 330.958 185.773 330.058 185.802C329.186 185.831 328.402 185.845 327.705 185.845C327.647 185.845 327.618 185.758 327.618 185.584C327.618 185.41 327.647 185.323 327.705 185.323C328.78 185.323 329.578 185.25 330.101 185.105C330.653 184.96 331.016 184.669 331.19 184.234C331.393 183.798 331.495 183.159 331.495 182.317V168.901C331.495 168.088 331.422 167.479 331.277 167.072C331.161 166.666 330.9 166.39 330.493 166.244C330.087 166.099 329.433 166.027 328.533 166.027Z" fill="#8A8A88"/>
<path d="M298.378 181.098V166.419L299.249 166.549V181.098C299.249 182.637 299.467 183.726 299.903 184.364C300.338 185.003 301.093 185.323 302.168 185.323C302.226 185.323 302.255 185.41 302.255 185.584C302.255 185.758 302.226 185.845 302.168 185.845C301.674 185.845 301.151 185.831 300.6 185.802C300.077 185.773 299.496 185.758 298.857 185.758C298.247 185.758 297.652 185.773 297.071 185.802C296.491 185.831 295.939 185.845 295.416 185.845C295.358 185.845 295.329 185.758 295.329 185.584C295.329 185.41 295.358 185.323 295.416 185.323C296.52 185.323 297.289 185.003 297.725 184.364C298.16 183.726 298.378 182.637 298.378 181.098ZM314.625 186.325C314.625 186.383 314.552 186.412 314.407 186.412C314.262 186.441 314.16 186.441 314.102 186.412L299.816 169.032C298.857 167.871 298.044 167.072 297.376 166.637C296.708 166.201 296.055 165.983 295.416 165.983C295.358 165.983 295.329 165.896 295.329 165.722C295.329 165.548 295.358 165.46 295.416 165.46C295.823 165.46 296.244 165.475 296.679 165.504C297.115 165.504 297.507 165.504 297.855 165.504C298.146 165.504 298.393 165.504 298.596 165.504C298.828 165.475 299.061 165.46 299.293 165.46C299.554 165.46 299.845 165.46 300.164 165.46C300.541 165.46 300.817 165.635 300.992 165.983C301.166 166.332 301.572 166.912 302.211 167.725L314.19 182.491L314.625 186.325ZM314.625 170.208V186.325L313.754 184.974V170.208C313.754 168.669 313.536 167.58 313.101 166.941C312.694 166.303 311.954 165.983 310.879 165.983C310.792 165.983 310.748 165.896 310.748 165.722C310.748 165.548 310.792 165.46 310.879 165.46C311.373 165.46 311.881 165.489 312.404 165.548C312.955 165.577 313.551 165.591 314.19 165.591C314.799 165.591 315.409 165.577 316.019 165.548C316.629 165.489 317.166 165.46 317.631 165.46C317.718 165.46 317.761 165.548 317.761 165.722C317.761 165.896 317.718 165.983 317.631 165.983C316.556 165.983 315.787 166.303 315.322 166.941C314.857 167.58 314.625 168.669 314.625 170.208Z" fill="#8A8A88"/>
<path d="M272.38 185.845C272.322 185.845 272.292 185.758 272.292 185.584C272.292 185.41 272.322 185.323 272.38 185.323C273.309 185.323 274.006 185.25 274.47 185.105C274.935 184.96 275.24 184.669 275.385 184.234C275.53 183.798 275.603 183.159 275.603 182.317V168.989C275.603 168.146 275.53 167.522 275.385 167.116C275.24 166.68 274.935 166.39 274.47 166.244C274.006 166.07 273.309 165.983 272.38 165.983C272.322 165.983 272.292 165.896 272.292 165.722C272.292 165.548 272.322 165.46 272.38 165.46H287.538C287.828 165.46 287.973 165.577 287.973 165.809C287.973 166.535 287.988 167.377 288.017 168.335C288.046 169.294 288.06 170.049 288.06 170.6C288.06 170.687 287.973 170.731 287.799 170.731C287.625 170.731 287.538 170.687 287.538 170.6C287.421 169.264 286.942 168.176 286.1 167.333C285.258 166.462 284.198 166.027 282.921 166.027H281.701C280.743 166.027 280.017 166.114 279.523 166.288C279.029 166.433 278.695 166.724 278.521 167.159C278.347 167.566 278.26 168.19 278.26 169.032V182.143C278.26 182.956 278.347 183.58 278.521 184.016C278.695 184.452 279.029 184.756 279.523 184.931C280.017 185.076 280.743 185.148 281.701 185.148H283.792C284.605 185.148 285.345 184.931 286.013 184.495C286.71 184.06 287.291 183.464 287.755 182.709C288.249 181.925 288.598 181.04 288.801 180.052C288.801 179.965 288.873 179.922 289.019 179.922C289.193 179.922 289.28 179.965 289.28 180.052C289.222 180.72 289.149 181.533 289.062 182.491C289.004 183.45 288.975 184.35 288.975 185.192C288.975 185.628 288.757 185.845 288.322 185.845H272.38ZM285.795 176.481C285.65 176.481 285.302 176.437 284.75 176.35C284.198 176.234 283.327 176.132 282.136 176.045C280.946 175.958 279.291 175.914 277.171 175.914V175C279.291 175 280.946 174.971 282.136 174.912C283.327 174.825 284.198 174.753 284.75 174.695C285.302 174.608 285.65 174.564 285.795 174.564C285.882 174.564 285.941 174.666 285.97 174.869C285.999 175.043 286.013 175.246 286.013 175.479C286.013 175.74 285.999 175.972 285.97 176.176C285.941 176.379 285.882 176.481 285.795 176.481Z" fill="#8A8A88"/>
<path d="M241.388 186.368C239.298 186.368 237.468 185.889 235.9 184.931C234.332 183.943 233.112 182.651 232.241 181.054C231.399 179.428 230.978 177.671 230.978 175.784C230.978 174.012 231.326 172.459 232.023 171.123C232.72 169.758 233.65 168.626 234.811 167.725C236.002 166.796 237.294 166.099 238.688 165.635C240.082 165.17 241.446 164.938 242.782 164.938C244.379 164.938 245.802 165.243 247.051 165.853C248.299 166.433 249.359 167.217 250.23 168.205C251.131 169.192 251.813 170.31 252.278 171.559C252.742 172.778 252.975 174.041 252.975 175.348C252.975 176.829 252.67 178.237 252.06 179.573C251.45 180.909 250.608 182.085 249.534 183.101C248.488 184.118 247.269 184.916 245.875 185.497C244.481 186.078 242.985 186.368 241.388 186.368ZM242.521 185.453C244.757 185.453 246.557 184.669 247.922 183.101C249.287 181.504 249.969 179.283 249.969 176.437C249.969 174.52 249.635 172.764 248.967 171.167C248.299 169.569 247.327 168.292 246.049 167.333C244.771 166.346 243.189 165.853 241.301 165.853C238.978 165.853 237.178 166.637 235.9 168.205C234.622 169.773 233.983 171.936 233.983 174.695C233.983 176.669 234.317 178.47 234.985 180.096C235.682 181.722 236.67 183.029 237.947 184.016C239.225 184.974 240.749 185.453 242.521 185.453Z" fill="#8A8A88"/>
<path d="M205.383 185.845C205.325 185.845 205.296 185.758 205.296 185.584C205.296 185.41 205.325 185.323 205.383 185.323C206.341 185.323 207.053 185.25 207.517 185.105C207.982 184.96 208.287 184.669 208.432 184.234C208.606 183.798 208.693 183.159 208.693 182.317V168.989C208.693 167.74 208.49 166.927 208.084 166.549C207.706 166.172 206.82 165.983 205.427 165.983C205.369 165.983 205.339 165.896 205.339 165.722C205.339 165.548 205.369 165.46 205.427 165.46C206.036 165.46 206.733 165.489 207.517 165.548C208.33 165.577 209.143 165.591 209.957 165.591C210.857 165.591 211.699 165.577 212.483 165.548C213.267 165.489 213.964 165.46 214.574 165.46C214.632 165.46 214.661 165.548 214.661 165.722C214.661 165.896 214.632 165.983 214.574 165.983C213.18 165.983 212.28 166.186 211.873 166.593C211.496 166.999 211.307 167.827 211.307 169.076V182.317C211.307 183.159 211.379 183.798 211.525 184.234C211.699 184.669 212.018 184.96 212.483 185.105C212.948 185.25 213.644 185.323 214.574 185.323C214.632 185.323 214.661 185.41 214.661 185.584C214.661 185.758 214.632 185.845 214.574 185.845C213.935 185.845 213.223 185.831 212.439 185.802C211.684 185.773 210.857 185.758 209.957 185.758C209.143 185.758 208.33 185.773 207.517 185.802C206.704 185.831 205.993 185.845 205.383 185.845ZM222.545 185.845C221.993 185.845 221.586 185.845 221.325 185.845C221.093 185.816 220.889 185.729 220.715 185.584C220.57 185.41 220.367 185.105 220.105 184.669C219.873 184.234 219.481 183.609 218.929 182.796C218.378 181.954 217.565 180.865 216.49 179.53L212.831 174.869L214.748 173.17L217.928 177.221C219.38 179.05 220.541 180.517 221.412 181.62C222.283 182.695 223.009 183.508 223.59 184.06C224.171 184.582 224.723 184.931 225.245 185.105C225.768 185.25 226.392 185.323 227.118 185.323C227.205 185.323 227.249 185.41 227.249 185.584C227.249 185.758 227.205 185.845 227.118 185.845C226.044 185.845 225.115 185.845 224.331 185.845C223.576 185.845 222.98 185.845 222.545 185.845ZM209.477 177.7L218.232 168.901C219.336 167.798 219.917 167.043 219.975 166.637C220.033 166.201 219.35 165.983 217.928 165.983C217.84 165.983 217.797 165.896 217.797 165.722C217.797 165.548 217.84 165.46 217.928 165.46C218.392 165.46 218.799 165.475 219.147 165.504C219.525 165.504 219.96 165.519 220.454 165.548C220.977 165.577 221.63 165.591 222.414 165.591C223.517 165.591 224.36 165.577 224.94 165.548C225.55 165.489 226.029 165.46 226.378 165.46C226.465 165.46 226.508 165.548 226.508 165.722C226.508 165.896 226.465 165.983 226.378 165.983C225.826 165.983 225.144 166.099 224.331 166.332C223.517 166.535 222.661 166.869 221.761 167.333C220.86 167.798 219.989 168.437 219.147 169.25L210.523 177.7H209.477Z" fill="#8A8A88"/>
<path d="M174.172 164.938C174.724 164.938 175.319 165.025 175.958 165.199C176.597 165.373 177.134 165.707 177.57 166.201C178.034 166.695 178.266 167.421 178.266 168.379C178.266 169.337 178.034 170.179 177.57 170.905C177.105 171.602 176.51 172.241 175.784 172.822C175.058 173.373 174.274 173.911 173.432 174.433C172.618 174.956 171.849 175.508 171.123 176.089C170.397 176.669 169.802 177.323 169.337 178.049C168.873 178.746 168.64 179.573 168.64 180.531C168.64 181.925 169.134 183.058 170.121 183.929C171.108 184.771 172.357 185.192 173.867 185.192C175 185.192 176.03 184.974 176.96 184.539C177.889 184.074 178.702 183.479 179.399 182.753C180.096 181.998 180.619 181.17 180.967 180.27C181.344 179.341 181.533 178.397 181.533 177.439C181.533 176.684 181.359 176.045 181.011 175.522C180.662 175 179.965 174.738 178.92 174.738C178.833 174.738 178.775 174.651 178.746 174.477C178.746 174.303 178.804 174.216 178.92 174.216L186.412 174.172C186.528 174.172 186.586 174.259 186.586 174.433C186.586 174.608 186.528 174.695 186.412 174.695C185.628 174.695 185.047 174.796 184.669 175C184.321 175.174 184.074 175.435 183.929 175.784C183.784 176.132 183.624 176.568 183.45 177.09C183.188 177.932 182.796 178.891 182.274 179.965C181.751 181.011 181.054 182.027 180.183 183.014C179.312 183.972 178.223 184.771 176.916 185.41C175.638 186.049 174.085 186.368 172.255 186.368C170.049 186.368 168.466 185.903 167.508 184.974C166.549 184.045 166.07 183 166.07 181.838C166.07 180.735 166.404 179.762 167.072 178.92C167.74 178.078 168.568 177.308 169.555 176.611C170.542 175.914 171.53 175.203 172.517 174.477C173.504 173.751 174.332 172.967 175 172.125C175.667 171.254 176.001 170.237 176.001 169.076C176.001 168.059 175.726 167.261 175.174 166.68C174.622 166.07 173.896 165.765 172.996 165.765C172.27 165.765 171.689 165.998 171.254 166.462C170.818 166.927 170.6 167.667 170.6 168.684C170.6 169.729 170.92 170.92 171.559 172.255C172.226 173.591 173.141 174.971 174.303 176.393C175.493 177.787 176.858 179.138 178.397 180.444C180.314 182.07 182.099 183.29 183.755 184.103C185.41 184.887 186.629 185.294 187.413 185.323C187.501 185.323 187.544 185.41 187.544 185.584C187.544 185.758 187.501 185.845 187.413 185.845C186.775 185.845 186.049 185.845 185.236 185.845C184.452 185.845 183.682 185.845 182.927 185.845C182.317 185.845 181.417 185.511 180.227 184.844C179.036 184.147 177.657 183.087 176.089 181.664C175.305 180.967 174.433 180.154 173.475 179.225C172.546 178.266 171.675 177.279 170.862 176.263C170.078 175.246 169.468 174.274 169.032 173.344C168.742 172.677 168.539 172.081 168.422 171.559C168.306 171.036 168.248 170.586 168.248 170.208C168.248 169.134 168.524 168.205 169.076 167.421C169.657 166.637 170.397 166.027 171.297 165.591C172.226 165.156 173.185 164.938 174.172 164.938Z" fill="#8A8A88"/>
<path d="M129.298 185.845C129.24 185.845 129.211 185.758 129.211 185.584C129.211 185.41 129.24 185.323 129.298 185.323C130.227 185.323 130.924 185.25 131.389 185.105C131.853 184.96 132.158 184.669 132.304 184.234C132.449 183.798 132.521 183.159 132.521 182.317V168.989C132.521 168.146 132.449 167.522 132.304 167.116C132.158 166.68 131.853 166.39 131.389 166.244C130.924 166.07 130.227 165.983 129.298 165.983C129.24 165.983 129.211 165.896 129.211 165.722C129.211 165.548 129.24 165.46 129.298 165.46H144.456C144.746 165.46 144.892 165.577 144.892 165.809C144.892 166.535 144.906 167.377 144.935 168.335C144.964 169.294 144.979 170.049 144.979 170.6C144.979 170.687 144.892 170.731 144.717 170.731C144.543 170.731 144.456 170.687 144.456 170.6C144.34 169.264 143.861 168.176 143.019 167.333C142.177 166.462 141.117 166.027 139.839 166.027H138.619C137.661 166.027 136.935 166.114 136.441 166.288C135.948 166.433 135.614 166.724 135.44 167.159C135.265 167.566 135.178 168.19 135.178 169.032V182.143C135.178 182.956 135.265 183.58 135.44 184.016C135.614 184.452 135.948 184.756 136.441 184.931C136.935 185.076 137.661 185.148 138.619 185.148H140.71C141.523 185.148 142.264 184.931 142.932 184.495C143.628 184.06 144.209 183.464 144.674 182.709C145.168 181.925 145.516 181.04 145.719 180.052C145.719 179.965 145.792 179.922 145.937 179.922C146.111 179.922 146.198 179.965 146.198 180.052C146.14 180.72 146.068 181.533 145.981 182.491C145.923 183.45 145.893 184.35 145.893 185.192C145.893 185.628 145.676 185.845 145.24 185.845H129.298ZM142.714 176.481C142.569 176.481 142.22 176.437 141.668 176.35C141.117 176.234 140.246 176.132 139.055 176.045C137.864 175.958 136.209 175.914 134.089 175.914V175C136.209 175 137.864 174.971 139.055 174.912C140.246 174.825 141.117 174.753 141.668 174.695C142.22 174.608 142.569 174.564 142.714 174.564C142.801 174.564 142.859 174.666 142.888 174.869C142.917 175.043 142.932 175.246 142.932 175.479C142.932 175.74 142.917 175.972 142.888 176.176C142.859 176.379 142.801 176.481 142.714 176.481Z" fill="#8A8A88"/>
<path d="M106.043 185.845C105.985 185.845 105.956 185.758 105.956 185.584C105.956 185.41 105.985 185.323 106.043 185.323C106.972 185.323 107.669 185.25 108.134 185.105C108.599 184.96 108.903 184.669 109.049 184.234C109.194 183.798 109.266 183.159 109.266 182.317V168.989C109.266 168.146 109.194 167.522 109.049 167.116C108.903 166.68 108.599 166.39 108.134 166.244C107.669 166.07 106.972 165.983 106.043 165.983C105.985 165.983 105.956 165.896 105.956 165.722C105.956 165.548 105.985 165.46 106.043 165.46H121.201C121.492 165.46 121.637 165.577 121.637 165.809C121.637 166.535 121.651 167.377 121.68 168.335C121.709 169.294 121.724 170.049 121.724 170.6C121.724 170.687 121.637 170.731 121.463 170.731C121.288 170.731 121.201 170.687 121.201 170.6C121.085 169.264 120.606 168.176 119.764 167.333C118.922 166.462 117.862 166.027 116.584 166.027H115.364C114.406 166.027 113.68 166.114 113.187 166.288C112.693 166.433 112.359 166.724 112.185 167.159C112.011 167.566 111.923 168.19 111.923 169.032V182.143C111.923 182.956 112.011 183.58 112.185 184.016C112.359 184.452 112.693 184.756 113.187 184.931C113.68 185.076 114.406 185.148 115.364 185.148H117.455C118.268 185.148 119.009 184.931 119.677 184.495C120.374 184.06 120.954 183.464 121.419 182.709C121.913 181.925 122.261 181.04 122.464 180.052C122.464 179.965 122.537 179.922 122.682 179.922C122.856 179.922 122.943 179.965 122.943 180.052C122.885 180.72 122.813 181.533 122.726 182.491C122.668 183.45 122.639 184.35 122.639 185.192C122.639 185.628 122.421 185.845 121.985 185.845H106.043ZM119.459 176.481C119.314 176.481 118.965 176.437 118.414 176.35C117.862 176.234 116.991 176.132 115.8 176.045C114.609 175.958 112.954 175.914 110.834 175.914V175C112.954 175 114.609 174.971 115.8 174.912C116.991 174.825 117.862 174.753 118.414 174.695C118.965 174.608 119.314 174.564 119.459 174.564C119.546 174.564 119.604 174.666 119.633 174.869C119.662 175.043 119.677 175.246 119.677 175.479C119.677 175.74 119.662 175.972 119.633 176.176C119.604 176.379 119.546 176.481 119.459 176.481Z" fill="#8A8A88"/>
<path d="M88.7125 169.032V182.143C88.7125 183.334 88.9012 184.132 89.2787 184.539C89.6853 184.945 90.5564 185.148 91.8922 185.148H94.8106C96.3786 185.148 97.6128 184.655 98.5129 183.667C99.4131 182.651 100.008 181.344 100.299 179.747C100.299 179.689 100.386 179.675 100.56 179.704C100.734 179.704 100.821 179.747 100.821 179.834C100.705 180.531 100.618 181.388 100.56 182.404C100.531 183.392 100.517 184.321 100.517 185.192C100.517 185.628 100.299 185.845 99.8632 185.845H82.8322C82.7742 185.845 82.7451 185.758 82.7451 185.584C82.7451 185.41 82.7742 185.323 82.8322 185.323C83.7324 185.323 84.4148 185.25 84.8794 185.105C85.344 184.96 85.649 184.669 85.7941 184.234C85.9393 183.798 86.0119 183.159 86.0119 182.317V168.989C86.0119 168.146 85.9393 167.522 85.7941 167.116C85.649 166.68 85.344 166.39 84.8794 166.244C84.4148 166.07 83.7324 165.983 82.8322 165.983C82.7742 165.983 82.7451 165.896 82.7451 165.722C82.7451 165.548 82.7742 165.46 82.8322 165.46C83.442 165.46 84.139 165.489 84.923 165.548C85.7361 165.577 86.5491 165.591 87.3622 165.591C88.2624 165.591 89.1045 165.577 89.8886 165.548C90.6726 165.489 91.355 165.46 91.9358 165.46C92.0229 165.46 92.0664 165.548 92.0664 165.722C92.0664 165.896 92.0229 165.983 91.9358 165.983C91.0065 165.983 90.3096 166.07 89.845 166.244C89.4094 166.39 89.1045 166.68 88.9303 167.116C88.7851 167.551 88.7125 168.19 88.7125 169.032Z" fill="#8A8A88"/>
<defs>
<linearGradient id="paint0_linear_20_325" x1="451.653" y1="7.05214" x2="592.7" y2="34.1901" gradientUnits="userSpaceOnUse">
<stop stop-color="#C9A84C"/>
<stop offset="0.265883" stop-color="#BD9A39"/>
<stop offset="0.489895" stop-color="#DAB756"/>
<stop offset="0.83" stop-color="#D1AF51"/>
<stop offset="1" stop-color="#C9A84C"/>
</linearGradient>
<linearGradient id="paint1_linear_20_325" x1="569.965" y1="4.35575" x2="718.663" y2="33.09" gradientUnits="userSpaceOnUse">
<stop stop-color="#C9A84C"/>
<stop offset="0.265883" stop-color="#BD9A39"/>
<stop offset="0.489895" stop-color="#DAB756"/>
<stop offset="0.83" stop-color="#D1AF51"/>
<stop offset="1" stop-color="#C9A84C"/>
</linearGradient>
</defs>
</svg>
