<svg width="700" height="122" viewBox="0 0 700 122" fill="none" xmlns="http://www.w3.org/2000/svg">
<path d="M324.38 119.057H222.247C221.785 119.057 221.554 118.686 221.554 117.942C221.554 117.199 221.785 116.827 222.247 116.827C227.022 116.827 230.565 116.517 232.876 115.898C235.187 115.278 236.727 114.039 237.498 112.181C238.268 110.322 238.653 107.597 238.653 104.004V17.9573C238.653 14.3643 238.268 11.7005 237.498 9.96596C236.727 8.1075 235.187 6.86853 232.876 6.24905C230.565 5.50567 227.022 5.13398 222.247 5.13398C221.785 5.13398 221.554 4.76229 221.554 4.01891C221.554 3.27553 221.785 2.90384 222.247 2.90384H320.221C321.762 2.90384 322.532 3.46137 322.532 4.57644L322.994 29.2939C322.994 29.5417 322.609 29.7275 321.839 29.8514C321.068 29.9753 320.529 29.8514 320.221 29.4797C317.756 22.1698 313.597 16.8422 307.743 13.497C301.889 10.0279 294.187 8.29335 284.636 8.29335H277.704C274.623 8.29335 272.081 8.66504 270.079 9.40842C268.076 10.0279 266.613 11.081 265.688 12.5678C264.764 14.0546 264.302 15.913 264.302 18.1432V103.26C264.302 105.614 264.687 107.597 265.457 109.207C266.227 110.818 267.383 111.995 268.923 112.738C270.464 113.482 272.466 113.854 274.931 113.854H282.556C294.572 113.854 304.2 111.871 311.44 107.907C318.681 103.942 323.995 97.8089 327.384 89.5078C327.538 89.1361 328 89.0742 328.771 89.322C329.695 89.4459 330.157 89.6317 330.157 89.8795C329.541 93.4725 329.002 97.747 328.54 102.703C328.077 107.535 327.846 112.057 327.846 116.27C327.846 118.128 326.691 119.057 324.38 119.057ZM311.44 77.6137C311.44 72.5339 309.053 68.5692 304.277 65.7196C299.502 62.7461 292.493 61.2593 283.25 61.2593H252.055V56.0556H283.481C292.57 56.0556 299.425 54.8167 304.046 52.3387C308.822 49.7369 311.209 46.2678 311.209 41.9314C311.209 41.5597 311.594 41.3738 312.365 41.3738C313.289 41.3738 313.751 41.5597 313.751 41.9314C313.751 46.02 313.674 49.2413 313.52 51.5953C313.52 53.8255 313.52 56.1795 313.52 58.6575C313.52 61.7549 313.597 64.7904 313.751 67.7639C314.059 70.7374 314.213 74.0207 314.213 77.6137C314.213 77.8615 313.751 77.9854 312.827 77.9854C311.903 77.9854 311.44 77.8615 311.44 77.6137Z" fill="#252422"/>
<path d="M213.919 119.057H111.786C111.324 119.057 111.093 118.686 111.093 117.942C111.093 117.199 111.324 116.827 111.786 116.827C116.561 116.827 120.105 116.517 122.415 115.898C124.726 115.278 126.266 114.039 127.037 112.181C127.807 110.322 128.192 107.597 128.192 104.004V17.9573C128.192 14.3643 127.807 11.7005 127.037 9.96596C126.266 8.1075 124.726 6.86853 122.415 6.24905C120.105 5.50567 116.561 5.13398 111.786 5.13398C111.324 5.13398 111.093 4.76229 111.093 4.01891C111.093 3.27553 111.324 2.90384 111.786 2.90384H209.76C211.301 2.90384 212.071 3.46137 212.071 4.57644L212.533 29.2939C212.533 29.5417 212.148 29.7275 211.378 29.8514C210.607 29.9753 210.068 29.8514 209.76 29.4797C207.295 22.1698 203.136 16.8422 197.282 13.497C191.429 10.0279 183.726 8.29335 174.175 8.29335H167.243C164.162 8.29335 161.62 8.66504 159.618 9.40842C157.615 10.0279 156.152 11.081 155.227 12.5678C154.303 14.0546 153.841 15.913 153.841 18.1432V103.26C153.841 105.614 154.226 107.597 154.996 109.207C155.767 110.818 156.922 111.995 158.462 112.738C160.003 113.482 162.005 113.854 164.47 113.854H172.096C184.111 113.854 193.739 111.871 200.979 107.907C208.22 103.942 213.534 97.8089 216.923 89.5078C217.077 89.1361 217.54 89.0742 218.31 89.322C219.234 89.4459 219.696 89.6317 219.696 89.8795C219.08 93.4725 218.541 97.747 218.079 102.703C217.617 107.535 217.385 112.057 217.385 116.27C217.385 118.128 216.23 119.057 213.919 119.057ZM200.979 77.6137C200.979 72.5339 198.592 68.5692 193.816 65.7196C189.041 62.7461 182.032 61.2593 172.789 61.2593H141.594V56.0556H173.02C182.109 56.0556 188.964 54.8167 193.585 52.3387C198.361 49.7369 200.748 46.2678 200.748 41.9314C200.748 41.5597 201.133 41.3738 201.904 41.3738C202.828 41.3738 203.29 41.5597 203.29 41.9314C203.29 46.02 203.213 49.2413 203.059 51.5953C203.059 53.8255 203.059 56.1795 203.059 58.6575C203.059 61.7549 203.136 64.7904 203.29 67.7639C203.598 70.7374 203.752 74.0207 203.752 77.6137C203.752 77.8615 203.29 77.9854 202.366 77.9854C201.442 77.9854 200.979 77.8615 200.979 77.6137Z" fill="#252422"/>
<path d="M40.2691 18.1432V103.26C40.2691 106.234 40.5594 108.526 41.1398 110.137C41.7203 111.623 42.8812 112.615 44.6226 113.11C46.509 113.606 49.1936 113.854 52.6764 113.854H60.0772C71.3961 113.854 81.1913 111.252 89.4628 106.048C97.7343 100.844 103.249 93.9061 106.006 85.2334C106.151 84.8617 106.586 84.7378 107.312 84.8617C108.037 84.9856 108.4 85.2334 108.4 85.6051C107.965 89.6937 107.529 94.6495 107.094 100.473C106.659 106.172 106.441 111.438 106.441 116.27C106.441 118.128 105.353 119.057 103.176 119.057H0.435342C0.145114 119.057 0 118.686 0 117.942C0 117.199 0.145114 116.827 0.435342 116.827C4.93388 116.827 8.2715 116.517 10.4482 115.898C12.6249 115.278 14.0761 114.039 14.8016 112.181C15.6723 110.322 16.1077 107.597 16.1077 104.004V17.9573C16.1077 14.3643 15.6723 11.7005 14.8016 9.96596C14.0761 8.1075 12.6249 6.86853 10.4482 6.24905C8.2715 5.50567 4.93388 5.13398 0.435342 5.13398C0.145114 5.13398 0 4.76229 0 4.01891C0 3.27553 0.145114 2.90384 0.435342 2.90384C3.91808 2.90384 8.05383 3.02773 12.8426 3.27553C17.7765 3.39942 22.8555 3.46137 28.0796 3.46137C33.5939 3.46137 38.6729 3.39942 43.3165 3.27553C47.9602 3.02773 52.0959 2.90384 55.7238 2.90384C56.1591 2.90384 56.3768 3.27553 56.3768 4.01891C56.3768 4.76229 56.1591 5.13398 55.7238 5.13398C51.3704 5.13398 48.0327 5.50567 45.7109 6.24905C43.5342 6.86853 42.0831 8.1075 41.3575 9.96596C40.6319 11.8244 40.2691 14.5501 40.2691 18.1432Z" fill="#252422"/>
<path d="M427.219 60.7724C427.219 60.3119 427.067 60.0812 426.761 60.0812L402.834 60.1964L402.725 60.2071C402.491 60.2576 402.373 60.485 402.373 60.8876C402.45 61.3485 402.605 61.5789 402.834 61.5789C406.343 61.5791 408.557 62.3474 409.473 63.883C410.466 65.4194 410.961 67.4183 410.961 69.8765L410.932 71.2537C410.799 74.4548 410.198 77.5688 409.13 80.5935C408.557 82.2848 407.846 83.8873 407.005 85.4055C403.494 82.7211 400.111 79.8556 396.86 76.8051L395.39 75.4065C391.574 71.6425 388.176 67.7623 385.199 63.7678C384.213 62.4439 383.301 61.1134 382.457 59.7811C383.06 59.3756 383.668 58.9751 384.284 58.5835C386.459 57.143 388.549 55.6812 390.553 54.1975L392.528 52.7079C395.2 50.6337 397.336 48.4045 398.939 46.0231C400.408 43.8725 401.236 41.399 401.42 38.6016L401.457 37.3825C401.457 34.3865 400.771 32.0806 399.397 30.4674C398.195 28.9887 396.73 27.9209 395.002 27.2656L394.246 27.0111C392.442 26.4062 390.639 26.066 388.836 25.9903L388.061 25.9742C384.245 25.9744 380.926 26.8191 378.102 28.5088C375.278 30.1219 373.063 32.3104 371.46 35.0757C369.857 37.8411 369.056 40.915 369.056 44.295C369.056 46.2155 369.361 48.2144 369.972 50.2885C370.582 52.3622 371.384 54.5128 372.376 56.7401C373.339 58.6789 374.464 60.6481 375.743 62.6506C373.335 64.3294 371.028 66.0828 368.827 67.918C366.232 70.1454 364.095 72.6031 362.416 75.2913L362.11 75.8004C360.634 78.3706 359.898 81.3128 359.898 84.6258L359.93 85.6868C360.088 88.1572 360.804 90.5681 362.073 92.9208C363.6 95.5326 365.926 97.6851 369.056 99.3751C372.262 100.988 376.308 101.795 381.193 101.795C385.849 101.795 389.933 101.065 393.444 99.6055C397.032 98.146 400.124 96.2265 402.719 93.8451C403.293 93.3019 403.84 92.7417 404.372 92.176C406.475 93.8356 408.324 95.2033 409.931 96.2645C412.449 97.8005 414.51 98.8757 416.113 99.4903C417.516 100.028 418.686 100.332 419.621 100.399L420.008 100.412H432.373L432.53 100.377C432.626 100.329 432.702 100.232 432.759 100.088L432.831 99.836C432.898 99.4324 432.788 99.1761 432.504 99.067L432.373 99.0295C429.769 98.4918 426.638 97.3352 422.981 95.5626L421.381 94.7668C417.346 92.6295 413.117 89.9253 408.688 86.6647C408.876 86.3707 409.065 86.0768 409.244 85.7779C411.076 82.7819 412.564 79.785 413.709 76.789C414.625 74.4846 415.391 72.3102 416.006 70.265L416.571 68.2636C416.914 67.1113 417.281 66.11 417.667 65.2602L418.061 64.4618C418.596 63.4631 419.511 62.731 420.809 62.2701C422.106 61.7327 424.091 61.4637 426.761 61.4637C427.067 61.4637 427.219 61.2333 427.219 60.7724ZM367.224 80.5935C367.224 77.1368 368.025 74.1396 369.628 71.6046C371.308 68.9928 373.446 66.6511 376.041 64.577C376.249 64.4046 376.462 64.2383 376.672 64.0679C377.575 65.4131 378.546 66.7748 379.59 68.1484C382.643 71.9892 386.003 75.7159 389.667 79.3263C393.33 82.9361 397.069 86.2771 400.885 89.3494C401.583 89.9323 402.264 90.4852 402.919 91.0159C401.024 93.0257 398.824 94.7036 396.306 96.0341C393.253 97.5703 389.931 98.3383 386.344 98.3383V95.5947C389.519 95.5947 392.41 94.9198 395.057 93.5933C396.396 92.8844 397.631 92.07 398.766 91.1525C395.02 88.1135 391.35 84.8246 387.758 81.2848C384.019 77.6006 380.586 73.7919 377.46 69.8605L377.442 69.839L377.423 69.8149C376.985 69.2379 376.561 68.6605 376.145 68.0868C374.484 69.6208 373.083 71.2862 371.928 73.0782L371.476 73.8606C370.482 75.7352 369.95 77.955 369.95 80.5935L369.982 81.6117C370.129 83.9511 370.79 86.1228 371.966 88.1624C373.383 90.4156 375.311 92.2345 377.809 93.6255C380.264 94.917 383.088 95.5946 386.344 95.5947V98.3383L384.989 98.3008C382.313 98.1567 379.851 97.5809 377.604 96.5726L376.499 96.0341C373.599 94.4209 371.308 92.2685 369.628 89.5798C368.226 87.16 367.437 84.5638 367.262 81.7912L367.224 80.5935ZM391.977 39.2258C391.977 36.6221 391.381 34.8735 390.447 33.6878L390.029 33.2136L390.007 33.1948L389.989 33.1734C388.738 31.8622 387.078 31.1372 384.742 31.1372C382.438 31.1373 380.991 31.8114 380.016 32.876C379.136 33.9187 378.424 35.9182 378.424 39.4563L378.459 40.812C378.624 43.9826 379.372 47.2472 380.735 50.618C381.235 51.8317 381.804 53.0426 382.431 54.2565C382.922 53.8514 383.412 53.4501 383.89 53.0401L383.903 53.0267L383.919 53.0133C386.415 50.9313 388.404 48.7434 389.917 46.4598C391.272 44.4139 391.977 42.0344 391.977 39.2258ZM394.663 40.4449C394.48 43.2512 393.654 45.7635 392.185 47.9816L391.53 48.9247C389.952 51.1094 387.995 53.1779 385.657 55.1272C384.359 56.2416 383.012 57.336 381.619 58.412C380.287 56.1756 379.149 53.931 378.216 51.671C376.747 48.041 375.919 44.4689 375.735 40.9566L375.698 39.4563C375.698 35.6153 376.461 32.8102 377.988 31.0434C379.59 29.2771 381.842 28.3937 384.742 28.3936C387.718 28.3936 390.124 29.3533 391.956 31.2738C393.788 33.1175 394.703 35.769 394.703 39.2258L394.663 40.4449ZM404.173 38.0898C404.059 41.5994 403.085 44.7858 401.194 47.561L401.196 47.5637C399.405 50.2253 397.053 52.6573 394.192 54.8781L394.184 54.8861C391.677 56.8159 389.031 58.7045 386.254 60.5581C386.618 61.079 386.992 61.6018 387.38 62.1228C390.268 65.998 393.574 69.7738 397.299 73.448C400.102 76.1577 403.006 78.7216 406.01 81.1455C406.199 80.6735 406.385 80.1954 406.55 79.7067L406.955 78.4823C407.809 75.6954 408.235 72.8297 408.235 69.8765C408.235 68.0355 407.908 66.7115 407.41 65.7639L407.186 65.3807L407.16 65.3379L407.136 65.295C407.099 65.2333 406.928 64.9887 406.236 64.7484C405.699 64.5623 404.946 64.4161 403.933 64.3546L402.834 64.3224C401.615 64.3224 400.743 63.6306 400.278 62.9292C399.986 62.4889 399.835 62.0309 399.751 61.6673L399.684 61.3404L399.647 61.1154V60.8876C399.647 60.439 399.707 59.6234 400.219 58.8487C400.86 57.881 401.877 57.4564 402.82 57.4528L426.748 57.3376H426.761C427.708 57.3376 428.729 57.7617 429.373 58.7335C429.886 59.5085 429.945 60.3237 429.945 60.7724C429.945 61.2211 429.887 62.0385 429.373 62.814C428.729 63.7853 427.708 64.2072 426.761 64.2072C424.184 64.2073 422.638 64.48 421.847 64.8074L421.781 64.8342L421.717 64.8583C420.91 65.1448 420.606 65.4893 420.46 65.7612C420.041 66.5451 419.607 67.6259 419.182 69.0513C418.463 71.767 417.481 74.6889 416.241 77.8098C415.199 80.5292 413.892 83.2311 412.332 85.9199C415.93 88.4605 419.369 90.5982 422.651 92.3367C426.884 94.5018 430.288 95.7989 432.919 96.3422C433.661 96.4938 434.575 96.9348 435.139 97.9283C435.651 98.8291 435.611 99.7362 435.52 100.286L435.512 100.332L435.504 100.374C435.426 100.768 435.251 101.399 434.788 101.982C434.235 102.678 433.377 103.155 432.373 103.156H420.008C418.897 103.156 417.684 102.907 416.422 102.505L415.144 102.054C413.316 101.354 411.093 100.179 408.518 98.6089L408.478 98.5848L408.435 98.558C407.269 97.7877 405.993 96.873 404.604 95.8224L404.569 95.8573L404.554 95.8707C401.696 98.4923 398.323 100.579 394.466 102.148L394.464 102.145C390.562 103.764 386.12 104.538 381.193 104.538C376.353 104.538 372.098 103.793 368.539 102.167L367.837 101.829L367.767 101.792C364.495 100.025 361.888 97.7383 360.074 94.8901L359.722 94.314L359.698 94.2711L359.677 94.231C358.027 91.1721 357.172 87.9598 357.172 84.6258C357.172 80.6356 358.126 77.0054 360.108 73.8311C361.946 70.8891 364.271 68.2242 367.059 65.8308L367.073 65.8175L367.089 65.8041C368.699 64.4611 370.367 63.1655 372.083 61.9057C371.592 61.0734 371.124 60.2472 370.685 59.4221L369.937 57.9672L369.913 57.9163L369.889 57.8627C368.853 55.5375 368.007 53.2703 367.357 51.0655C366.682 48.7703 366.33 46.5099 366.33 44.295C366.33 40.4574 367.247 36.9019 369.106 33.6932C370.957 30.5009 373.522 27.9684 376.755 26.1216C380.053 24.1605 383.855 23.2309 388.061 23.2307C390.431 23.2307 392.784 23.6273 395.108 24.4069C397.641 25.1798 399.774 26.6211 401.465 28.683C401.473 28.6917 401.482 28.7011 401.489 28.7098C401.495 28.7168 401.502 28.7241 401.508 28.7312C403.421 31.0064 404.183 34.0208 404.183 37.3825L404.173 38.0898Z" fill="#8A8A88"/>
<path d="M455.902 114.889C455.902 114.456 455.928 113.83 456.132 113.222C456.312 112.686 457.071 111.074 459.032 111.074L460.325 111.058C463.207 110.995 465.157 110.718 466.326 110.331L466.35 110.323L466.375 110.317C467.478 109.975 468.011 109.412 468.302 108.546L468.326 108.47L468.356 108.395C468.87 107.119 469.223 104.949 469.223 101.655V19.953C469.223 17.0347 468.994 15.0331 468.652 13.7844L468.497 13.2943L468.489 13.2674L468.478 13.2378C468.224 12.4804 467.785 11.9574 466.941 11.6088L466.554 11.4688L466.451 11.4365L466.35 11.3961C465.074 10.8888 462.837 10.5345 459.387 10.5345C458.813 10.5344 458.186 10.3853 457.615 10.0068C457.061 9.63964 456.715 9.16193 456.506 8.74665C456.127 7.99405 456.081 7.2129 456.081 6.71917C456.081 6.2254 456.128 5.44399 456.506 4.69168C456.715 4.2768 457.061 3.80104 457.615 3.43427C458.186 3.05572 458.813 2.90391 459.387 2.90384C462.531 2.90384 466.019 3.02187 469.847 3.25925C473.584 3.37445 477.559 3.43427 481.77 3.43427V6.19143L478.615 6.18066C475.507 6.1586 472.531 6.10194 469.69 6.01372C465.901 5.77847 462.466 5.661 459.387 5.661C459.033 5.66127 458.856 6.01399 458.856 6.71917L458.889 7.18228C458.955 7.57949 459.121 7.77713 459.387 7.77733C462.94 7.77733 465.604 8.13244 467.38 8.83819C469.275 9.42633 470.52 10.6011 471.113 12.3654C471.705 14.0122 471.999 16.542 471.999 19.953V101.655L471.983 102.894C471.905 105.699 471.555 107.874 470.934 109.418C470.342 111.182 469.099 112.36 467.204 112.948C465.428 113.536 462.703 113.831 459.032 113.831L458.948 113.847C458.768 113.925 458.677 114.273 458.677 114.889L458.699 115.352C458.743 115.749 458.855 115.947 459.032 115.947C460.572 115.947 462.216 115.934 463.963 115.904L469.514 115.77C473.421 115.652 477.507 115.595 481.77 115.595L485.066 115.605C488.286 115.627 491.273 115.681 494.026 115.77C496.868 115.858 499.51 115.915 501.952 115.937L504.329 115.947C504.743 115.947 504.976 115.677 505.028 115.137L505.039 114.889C505.039 114.271 504.857 113.924 504.494 113.847L504.329 113.831C501.116 113.831 498.628 113.606 496.867 113.155L496.157 112.948C494.381 112.36 493.196 111.182 492.603 109.418C492.085 107.874 491.795 105.699 491.731 102.894L491.717 101.655V63.2409L495.688 59.2344L518.894 90.3602C523.157 96.1245 526.591 100.713 529.197 104.124C531.802 107.536 533.875 110.125 535.414 111.89C537.071 113.653 538.491 114.829 539.675 115.417C540.711 115.932 541.885 116.222 543.193 116.287L543.762 116.3C544.236 116.3 544.753 116.286 545.315 116.257L547.137 116.125C548.114 116.037 549.224 115.98 550.468 115.958L551.755 115.947H571.65L571.774 115.931C571.969 115.876 572.093 115.683 572.148 115.352L572.184 114.889C572.184 114.272 572.046 113.925 571.774 113.847L571.65 113.831C569.755 113.831 567.979 113.711 566.321 113.476C564.974 113.27 563.582 112.75 562.144 111.914L561.524 111.537C559.866 110.478 557.913 108.771 555.664 106.418C553.532 103.948 550.868 100.654 547.671 96.5368C544.473 92.3018 540.564 86.9487 535.946 80.4785L509.581 45.2171L529.728 24.8938C534.724 20.0413 540.241 16.1216 546.278 13.1301L547.492 12.5431C554.005 9.36695 559.985 7.77741 565.432 7.77733C565.699 7.77733 565.864 7.57961 565.931 7.18228L565.966 6.71917C565.966 6.01372 565.787 5.661 565.432 5.661C562.353 5.66101 559.155 5.77846 555.84 6.01372C552.524 6.13134 548.023 6.19143 542.339 6.19143V3.43427C547.993 3.43427 552.447 3.37451 555.713 3.25925C559.064 3.02297 562.304 2.90385 565.432 2.90384C566.006 2.90384 566.633 3.05563 567.205 3.43427C567.758 3.801 568.104 4.27673 568.313 4.69168C568.692 5.44399 568.741 6.2254 568.741 6.71917L568.728 7.1392C568.697 7.60233 568.597 8.18229 568.313 8.74665C568.104 9.16187 567.759 9.63973 567.205 10.0068C566.633 10.3852 566.006 10.5345 565.432 10.5345C560.525 10.5346 554.967 11.9682 548.714 15.0176L548.695 15.0256L548.679 15.0364C542.454 17.9596 536.785 21.898 531.669 26.8674L513.227 45.4702L538.173 78.8361L538.192 78.8603L538.209 78.8846C542.819 85.3435 546.713 90.6753 549.891 94.8836C553.038 98.9359 555.646 102.158 557.721 104.566C559.883 106.822 561.646 108.335 563.025 109.216C564.44 110.119 565.676 110.588 566.744 110.751H566.741C567.867 110.909 569.067 111.012 570.341 111.052L571.65 111.074C572.224 111.074 572.851 111.223 573.422 111.602C573.977 111.969 574.322 112.446 574.531 112.862C574.91 113.614 574.959 114.395 574.959 114.889L574.946 115.307C574.915 115.77 574.815 116.352 574.531 116.917C574.322 117.332 573.976 117.807 573.422 118.174C572.851 118.553 572.224 118.704 571.65 118.705H551.755C550.036 118.705 548.584 118.761 547.389 118.869C546.032 118.991 544.818 119.057 543.762 119.057C541.862 119.057 540.061 118.692 538.434 117.883C537.006 117.174 535.532 115.965 534.029 114.442L533.384 113.769L533.349 113.734L533.316 113.694C532.117 112.319 530.626 110.49 528.852 108.214L526.985 105.791C524.367 102.363 520.922 97.7637 516.656 91.9945V91.9918L495.39 63.4671L494.493 64.3718V101.655L494.506 102.848C494.56 105.136 494.769 106.827 495.075 108.002L495.238 108.546C495.514 109.369 495.957 109.88 496.699 110.204L497.035 110.331C498.205 110.718 500.154 110.995 503.036 111.058L504.329 111.074C505.374 111.074 506.473 111.529 507.169 112.566C507.592 113.195 507.744 113.865 507.793 114.402L507.814 114.889L507.793 115.374C507.744 115.911 507.592 116.582 507.169 117.213C506.473 118.249 505.373 118.704 504.329 118.705C502.772 118.705 501.127 118.688 499.396 118.659L493.94 118.527H493.937C490.302 118.41 486.246 118.352 481.77 118.352C477.533 118.352 473.475 118.41 469.598 118.527C465.669 118.645 462.146 118.705 459.032 118.705C457.072 118.704 456.313 117.093 456.132 116.556C455.928 115.949 455.902 115.323 455.902 114.889ZM516.119 6.71917C516.119 6.2254 516.166 5.44399 516.544 4.69168C516.753 4.27684 517.1 3.80107 517.653 3.43427C518.224 3.05582 518.851 2.90399 519.426 2.90384C522.667 2.90384 525.966 3.02303 529.319 3.25925C532.584 3.37466 536.921 3.43426 542.339 3.43427V6.19143L538.455 6.18066C535.998 6.16595 533.807 6.13592 531.883 6.0918L529.197 6.01372C525.881 5.77845 522.623 5.661 519.426 5.661C519.071 5.66157 518.894 6.0143 518.894 6.71917L518.927 7.18228C518.993 7.57931 519.16 7.7769 519.426 7.77733C525.347 7.77733 528.841 9.36688 529.907 12.5431C531.091 15.7193 529.491 19.4831 525.109 23.8356L491.717 57.7805V20.3057C491.717 17.3211 491.944 14.9671 492.397 13.2432L492.603 12.5431C493.225 10.9991 494.256 9.8597 495.693 9.12629L496.336 8.83819C497.89 8.22064 500.124 7.87332 503.039 7.79618L504.329 7.77733C504.683 7.7769 504.86 7.42457 504.86 6.71917C504.86 6.10215 504.725 5.7545 504.453 5.67715L504.329 5.661C501.368 5.661 497.992 5.77845 494.203 6.01372C490.414 6.13134 486.269 6.19142 481.77 6.19143V3.43427C486.217 3.43426 490.307 3.37432 494.043 3.25925C497.869 3.02187 501.3 2.90384 504.329 2.90384L504.768 2.93346C505.213 2.99364 505.673 3.15046 506.101 3.43427C506.655 3.80106 507.001 4.27682 507.21 4.69168C507.588 5.44399 507.635 6.2254 507.635 6.71917C507.635 7.21289 507.589 7.99406 507.21 8.74665C507.001 9.1619 506.655 9.63964 506.101 10.0068C505.53 10.3853 504.903 10.5344 504.329 10.5345C500.88 10.5345 498.643 10.8888 497.366 11.3961C496.32 11.8114 495.644 12.4705 495.214 13.4909C494.778 14.8382 494.493 17.0493 494.493 20.3057V51.0141L523.125 21.9078L523.147 21.8862C527.145 17.915 527.799 15.3611 527.397 13.8005L527.305 13.5017L527.272 13.4155C526.826 12.0861 525.158 10.5345 519.426 10.5345C518.851 10.5343 518.224 10.3852 517.653 10.0068C517.099 9.63965 516.753 9.16186 516.544 8.74665C516.166 7.99409 516.119 7.21287 516.119 6.71917Z" fill="url(#paint0_linear_20_240)"/>
<path d="M640.456 0C649.659 2.08437e-05 657.974 1.67975 665.341 5.10938H665.338C672.253 8.16383 678.217 12.2797 683.199 17.4609L684.185 18.5127C689.327 24.1559 693.224 30.5595 695.863 37.707C698.618 44.846 700 52.191 700 59.7246C699.999 68.4897 698.244 76.6792 694.709 84.2539C691.202 91.7696 686.374 98.352 680.24 103.985L680.238 103.982C674.233 109.607 667.241 114.036 659.287 117.268L659.267 117.276C651.381 120.406 643.007 121.961 634.17 121.961C625.782 121.961 618.035 120.595 610.961 117.824L609.553 117.251L609.529 117.24L609.501 117.227C602.683 114.17 596.724 110.055 591.646 104.881L590.643 103.835L590.619 103.81C585.477 98.1663 581.469 91.7086 578.594 84.459L578.583 84.4316L578.575 84.4072C575.819 77.0165 574.446 69.1999 574.446 60.9814C574.446 50.925 576.373 41.9755 580.317 34.2139L580.333 34.1816C584.337 26.5491 589.614 20.19 596.165 15.1455L597.386 14.2031C603.538 9.56411 610.25 6.06857 617.51 3.72656C625.191 1.24914 632.842 1.02015e-05 640.456 0ZM640.456 2.80566C633.154 2.80567 625.792 4.0035 618.371 6.39746L616.987 6.86035C610.099 9.25208 603.737 12.7493 597.901 17.3506C591.677 22.1386 586.649 28.1838 582.819 35.4854C579.156 42.6922 577.301 51.0656 577.253 60.6045C577.347 60.6691 577.408 60.7774 577.405 60.8994V60.916C577.405 60.9274 577.404 60.9452 577.404 60.9678C577.403 61.0128 577.402 61.0792 577.401 61.1641C577.4 61.3344 577.4 61.5795 577.404 61.875C577.412 62.4666 577.436 63.2597 577.503 64.0703C577.535 64.451 577.552 64.8116 577.568 65.166C578.523 71.2227 581.269 76.8607 585.739 81.2598C591.265 86.6983 598.715 89.8055 606.515 89.9453C607.8 92.7366 609.237 95.3523 610.828 97.791C614.538 103.177 618.849 107.366 623.756 110.358C628.469 113.052 633.551 114.483 639 114.651L640.097 114.668C646.381 114.668 652.034 112.985 657.056 109.618L658.05 108.923C663.317 105.092 667.447 99.4644 670.44 92.043C673.357 85.0857 674.91 76.7086 675.092 66.9111L675.109 64.9326C675.109 53.9202 673.432 44.1038 670.081 35.4854C669.419 33.7837 668.7 32.1548 667.926 30.5977C675.729 30.7355 683.182 33.8448 688.71 39.2852C693.756 44.2507 696.603 50.7944 697.16 57.7373C697.164 57.8531 697.165 57.969 697.168 58.085L697.184 58.084C697.176 57.9684 697.169 57.8527 697.16 57.7373C696.939 51.249 695.636 44.9082 693.246 38.7158C690.889 32.3191 687.479 26.5541 683.018 21.4199L682.112 20.4033C677.204 15.0171 671.22 10.7675 664.158 7.65527C657.649 4.62528 650.297 3.01455 642.105 2.8252L640.456 2.80566ZM664.829 30.7002C665.789 32.5171 666.669 34.4502 667.467 36.502L668.051 38.0605C670.871 45.9278 672.303 54.8738 672.303 64.9326C672.303 75.3269 670.783 83.9722 667.854 90.958L667.84 90.9961C664.999 98.0411 661.154 103.197 656.401 106.654C651.629 110.125 646.225 111.862 640.097 111.862C634.723 111.862 629.764 110.555 625.173 107.937C620.671 105.182 616.659 101.301 613.157 96.2236C611.859 94.2298 610.664 92.1047 609.573 89.8477C616.653 89.2665 623.329 86.2412 628.391 81.2598C633.87 75.8676 637.023 68.6143 637.215 61.0098L637.235 59.5352C637.427 51.9307 640.579 44.6773 646.058 39.2852C651.109 34.3149 657.766 31.2911 664.829 30.7002ZM634.897 7.68262C642.941 7.97717 649.881 10.4816 655.716 15.1943C660.712 19.1331 664.781 24.2686 667.926 30.5977C667.746 30.5945 667.565 30.5918 667.384 30.5918C666.528 30.5918 665.675 30.6293 664.829 30.7002C661.936 25.2287 658.311 20.8128 653.979 17.3975L653.955 17.3779C648.276 12.7916 641.432 10.4609 633.272 10.4609C623.208 10.4613 615.717 14.2113 610.422 21.666C605.013 29.2832 602.142 40.0698 602.142 54.3379L602.154 55.9268C602.27 63.8292 603.257 71.1236 605.093 77.8232C606.309 82.1842 607.804 86.1897 609.573 89.8477C608.742 89.9159 607.905 89.9531 607.065 89.9531C606.881 89.9531 606.698 89.9486 606.515 89.9453C604.899 86.4343 603.523 82.6449 602.389 78.5771C600.482 71.6196 599.469 64.0825 599.35 55.9678L599.336 54.3379C599.336 40.1912 602.09 29.0214 607.594 20.8281L608.134 20.0439C613.999 11.7849 622.38 7.65562 633.272 7.65527L634.897 7.68262ZM577.956 70.7441C578.079 71.5819 578.217 72.4147 578.373 73.2422C578.371 73.228 578.371 73.2133 578.37 73.1982C578.35 72.9809 578.316 72.6673 578.259 72.2861C578.193 71.846 578.096 71.3178 577.956 70.7441ZM696.29 70.0566C696.147 70.8442 695.989 71.6258 695.813 72.4014C695.841 72.2807 695.871 72.1592 695.899 72.0361C696.062 71.3181 696.188 70.6687 696.29 70.0566Z" fill="url(#paint1_linear_20_240)"/>
<defs>
<linearGradient id="paint0_linear_20_240" x1="451.653" y1="7.05218" x2="592.7" y2="34.1901" gradientUnits="userSpaceOnUse">
<stop stop-color="#C9A84C"/>
<stop offset="0.265883" stop-color="#BD9A39"/>
<stop offset="0.489895" stop-color="#DAB756"/>
<stop offset="0.83" stop-color="#D1AF51"/>
<stop offset="1" stop-color="#C9A84C"/>
</linearGradient>
<linearGradient id="paint1_linear_20_240" x1="569.965" y1="4.35575" x2="718.663" y2="33.09" gradientUnits="userSpaceOnUse">
<stop stop-color="#C9A84C"/>
<stop offset="0.265883" stop-color="#BD9A39"/>
<stop offset="0.489895" stop-color="#DAB756"/>
<stop offset="0.83" stop-color="#D1AF51"/>
<stop offset="1" stop-color="#C9A84C"/>
</linearGradient>
</defs>
</svg>
