<svg width="500" height="500" viewBox="0 0 500 500" fill="none" xmlns="http://www.w3.org/2000/svg">
<circle cx="250" cy="250" r="249.5" fill="#252422" stroke="#C9A84C"/>
<circle cx="250" cy="250" r="222.576" stroke="#C9A84C" stroke-width="0.5"/>
<path d="M499 260.5C499 227.581 487.937 195.5 464.386 172.223C440.834 148.946 408.891 135.87 375.584 135.87C342.277 135.87 310.335 148.946 286.783 172.223C263.231 195.5 250 247.283 250 259.989C250 277.174 236.769 324.478 213.217 347.755C189.666 371.032 157.723 384.108 124.416 384.108C91.1091 384.108 59.1663 371.032 35.6147 347.755C17 327.5 1.99999 308.5 1.49999 272.5C6.93477 344.033 46.1957 404.891 95.1087 445.652C151 486.5 188.5 496.783 251 499.5C317.614 499.5 371 477.5 427.5 426C475 371 493.5 332 499 260.5Z" fill="white" fill-opacity="0.08"/>
<path d="M149.052 189.87V309.348C149.052 313.522 149.46 316.739 150.277 319C151.094 321.087 152.727 322.478 155.177 323.174C157.832 323.87 161.609 324.217 166.509 324.217H176.923C192.849 324.217 206.631 320.565 218.27 313.261C229.908 305.957 237.667 296.217 241.547 284.043C241.751 283.522 242.363 283.348 243.384 283.522C244.405 283.696 244.916 284.043 244.916 284.565C244.303 290.304 243.691 297.261 243.078 305.435C242.465 313.435 242.159 320.826 242.159 327.609C242.159 330.217 240.628 331.522 237.565 331.522H93.0037C92.5953 331.522 92.3911 331 92.3911 329.957C92.3911 328.913 92.5953 328.391 93.0037 328.391C99.3333 328.391 104.03 327.957 107.092 327.087C110.155 326.217 112.197 324.478 113.218 321.87C114.443 319.261 115.055 315.435 115.055 310.391V189.609C115.055 184.565 114.443 180.826 113.218 178.391C112.197 175.783 110.155 174.043 107.092 173.174C104.03 172.13 99.3333 171.609 93.0037 171.609C92.5953 171.609 92.3911 171.087 92.3911 170.043C92.3911 169 92.5953 168.478 93.0037 168.478C97.904 168.478 103.723 168.652 110.461 169C117.404 169.174 124.55 169.261 131.9 169.261C139.659 169.261 146.806 169.174 153.34 169C159.874 168.652 165.693 168.478 170.797 168.478C171.41 168.478 171.716 169 171.716 170.043C171.716 171.087 171.41 171.609 170.797 171.609C164.672 171.609 159.976 172.13 156.709 173.174C153.646 174.043 151.604 175.783 150.583 178.391C149.562 181 149.052 184.826 149.052 189.87Z" fill="white"/>
<path d="M271.878 309.939V189.541C271.878 184.514 271.444 180.787 270.578 178.36C269.711 175.759 267.891 174.026 265.117 173.159C262.516 172.119 258.616 171.599 253.415 171.599C252.895 171.599 252.635 171.079 252.635 170.038C252.635 168.998 252.895 168.478 253.415 168.478C257.922 168.478 262.95 168.652 268.497 168.998C274.045 169.172 279.939 169.258 286.18 169.258C292.767 169.258 298.835 169.172 304.382 168.998C309.93 168.652 314.871 168.478 319.205 168.478C319.725 168.478 319.985 168.998 319.985 170.038C319.985 171.079 319.725 171.599 319.205 171.599C314.004 171.599 310.103 172.119 307.503 173.159C304.903 174.199 303.082 176.019 302.042 178.62C301.175 181.22 300.742 185.034 300.742 190.061V309.939C300.742 314.966 301.175 318.78 302.042 321.38C302.909 323.981 304.643 325.714 307.243 326.581C309.843 327.448 313.831 327.881 319.205 327.881C319.898 327.881 320.245 328.401 320.245 329.441C320.245 330.482 319.898 331.002 319.205 331.002C314.697 331.002 309.67 330.915 304.122 330.742C298.748 330.568 292.767 330.482 286.18 330.482C279.939 330.482 273.958 330.568 268.237 330.742C262.516 330.915 257.402 331.002 252.895 331.002C252.548 331.002 252.375 330.482 252.375 329.441C252.375 328.401 252.548 327.881 252.895 327.881C258.269 327.881 262.256 327.448 264.857 326.581C267.631 325.714 269.451 323.981 270.318 321.38C271.358 318.78 271.878 314.966 271.878 309.939ZM340.528 293.296L304.903 245.189L325.706 225.166L365.491 278.734C372.252 288.269 377.973 296.157 382.654 302.398C387.334 308.465 391.235 313.319 394.355 316.96C397.649 320.427 400.51 322.941 402.937 324.501C405.364 326.061 407.704 327.014 409.958 327.361C412.385 327.708 414.985 327.881 417.759 327.881C418.279 327.881 418.539 328.401 418.539 329.441C418.539 330.482 418.279 331.002 417.759 331.002C410.131 331.002 403.977 331.002 399.296 331.002C394.615 331.002 391.062 331.002 388.635 331.002C386.034 331.002 383.781 331.088 381.874 331.262C379.967 331.435 378.32 331.522 376.933 331.522C374.679 331.522 372.686 331.088 370.952 330.222C369.218 329.355 367.138 327.621 364.711 325.021C362.458 322.42 359.424 318.607 355.61 313.579C351.796 308.552 346.769 301.791 340.528 293.296ZM282.539 263.912L349.629 195.262C356.043 188.848 358.384 183.3 356.65 178.62C355.09 173.939 349.976 171.599 341.308 171.599C340.788 171.599 340.528 171.079 340.528 170.038C340.528 168.998 340.788 168.478 341.308 168.478C345.988 168.478 350.756 168.652 355.61 168.998C360.464 169.172 366.878 169.258 374.853 169.258C383.174 169.258 389.761 169.172 394.615 168.998C399.47 168.652 404.15 168.478 408.658 168.478C409.178 168.478 409.438 168.998 409.438 170.038C409.438 171.079 409.178 171.599 408.658 171.599C400.683 171.599 391.928 173.939 382.394 178.62C372.859 183.127 364.191 189.195 356.39 196.822L289.56 264.692L282.539 263.912Z" fill="url(#paint0_linear_19_144)"/>
<defs>
<linearGradient id="paint0_linear_19_144" x1="335.457" y1="168.478" x2="335.457" y2="331.522" gradientUnits="userSpaceOnUse">
<stop stop-color="#C9A84C"/>
<stop offset="0.33" stop-color="#B59743"/>
<stop offset="0.66" stop-color="#DBC483"/>
<stop offset="1" stop-color="#C9A84C"/>
</linearGradient>
</defs>
</svg>
