<svg width="1441" height="370" viewBox="0 0 1441 370" fill="none" xmlns="http://www.w3.org/2000/svg">
<path d="M974.159 216.971H847.221C846.647 216.971 846.36 216.509 846.36 215.585C846.36 214.661 846.647 214.199 847.221 214.199C853.157 214.199 857.56 213.814 860.432 213.044C863.304 212.274 865.219 210.735 866.176 208.425C867.133 206.115 867.612 202.727 867.612 198.262V91.3182C867.612 86.8526 867.133 83.5419 866.176 81.3861C865.219 79.0763 863.304 77.5364 860.432 76.7665C857.56 75.8426 853.157 75.3806 847.221 75.3806C846.647 75.3806 846.36 74.9187 846.36 73.9948C846.36 73.0708 846.647 72.6089 847.221 72.6089H968.989C970.904 72.6089 971.861 73.3018 971.861 74.6877L972.436 105.408C972.436 105.716 971.957 105.947 971 106.101C970.042 106.255 969.372 106.101 968.989 105.639C965.926 96.5537 960.757 89.9323 953.481 85.7747C946.206 81.4631 936.633 79.3073 924.762 79.3073H916.147C912.318 79.3073 909.158 79.7692 906.669 80.6932C904.181 81.4631 902.362 82.772 901.213 84.6198C900.064 86.4676 899.49 88.7774 899.49 91.5492V197.338C899.49 200.263 899.968 202.727 900.926 204.729C901.883 206.731 903.319 208.194 905.234 209.118C907.148 210.042 909.637 210.504 912.7 210.504H922.178C937.111 210.504 949.078 208.04 958.076 203.112C967.075 198.185 973.68 190.562 977.892 180.245C978.084 179.783 978.658 179.706 979.615 180.014C980.764 180.168 981.338 180.399 981.338 180.707C980.573 185.173 979.903 190.485 979.328 196.645C978.754 202.65 978.467 208.271 978.467 213.506C978.467 215.816 977.031 216.971 974.159 216.971ZM958.076 165.463C958.076 159.149 955.109 154.222 949.173 150.68C943.238 146.984 934.527 145.136 923.039 145.136H884.269V138.669H923.326C934.622 138.669 943.142 137.129 948.886 134.049C954.821 130.816 957.789 126.504 957.789 121.115C957.789 120.653 958.268 120.422 959.225 120.422C960.374 120.422 960.948 120.653 960.948 121.115C960.948 126.196 960.852 130.2 960.661 133.125C960.661 135.897 960.661 138.823 960.661 141.903C960.661 145.752 960.757 149.525 960.948 153.221C961.331 156.916 961.522 160.997 961.522 165.463C961.522 165.771 960.948 165.925 959.799 165.925C958.651 165.925 958.076 165.771 958.076 165.463Z" fill="#252422"/>
<path d="M836.871 216.971H709.934C709.359 216.971 709.072 216.509 709.072 215.585C709.072 214.661 709.359 214.199 709.934 214.199C715.869 214.199 720.273 213.814 723.145 213.044C726.016 212.274 727.931 210.735 728.888 208.425C729.846 206.115 730.324 202.727 730.324 198.262V91.3182C730.324 86.8526 729.846 83.5419 728.888 81.3861C727.931 79.0763 726.016 77.5364 723.145 76.7665C720.273 75.8426 715.869 75.3806 709.934 75.3806C709.359 75.3806 709.072 74.9187 709.072 73.9948C709.072 73.0708 709.359 72.6089 709.934 72.6089H831.702C833.616 72.6089 834.574 73.3018 834.574 74.6877L835.148 105.408C835.148 105.716 834.669 105.947 833.712 106.101C832.755 106.255 832.085 106.101 831.702 105.639C828.638 96.5537 823.469 89.9323 816.194 85.7747C808.918 81.4631 799.345 79.3073 787.475 79.3073H778.859C775.03 79.3073 771.871 79.7692 769.382 80.6932C766.893 81.4631 765.074 82.772 763.925 84.6198C762.777 86.4676 762.202 88.7774 762.202 91.5492V197.338C762.202 200.263 762.681 202.727 763.638 204.729C764.595 206.731 766.031 208.194 767.946 209.118C769.861 210.042 772.349 210.504 775.413 210.504H784.89C799.824 210.504 811.79 208.04 820.789 203.112C829.787 198.185 836.393 190.562 840.605 180.245C840.796 179.783 841.37 179.706 842.328 180.014C843.477 180.168 844.051 180.399 844.051 180.707C843.285 185.173 842.615 190.485 842.041 196.645C841.466 202.65 841.179 208.271 841.179 213.506C841.179 215.816 839.743 216.971 836.871 216.971ZM820.789 165.463C820.789 159.149 817.821 154.222 811.886 150.68C805.951 146.984 797.239 145.136 785.752 145.136H746.981V138.669H786.039C797.335 138.669 805.855 137.129 811.599 134.049C817.534 130.816 820.501 126.504 820.501 121.115C820.501 120.653 820.98 120.422 821.937 120.422C823.086 120.422 823.661 120.653 823.661 121.115C823.661 126.196 823.565 130.2 823.373 133.125C823.373 135.897 823.373 138.823 823.373 141.903C823.373 145.752 823.469 149.525 823.661 153.221C824.043 156.916 824.235 160.997 824.235 165.463C824.235 165.771 823.661 165.925 822.512 165.925C821.363 165.925 820.789 165.771 820.789 165.463Z" fill="#252422"/>
<path d="M621.049 91.5492V197.338C621.049 201.033 621.41 203.882 622.131 205.884C622.852 207.732 624.295 208.964 626.459 209.58C628.804 210.196 632.141 210.504 636.469 210.504H645.667C659.735 210.504 671.909 207.27 682.19 200.802C692.47 194.335 699.323 185.712 702.75 174.933C702.93 174.471 703.472 174.317 704.373 174.471C705.275 174.625 705.726 174.933 705.726 175.395C705.185 180.476 704.644 186.636 704.103 193.873C703.562 200.956 703.291 207.501 703.291 213.506C703.291 215.816 701.939 216.971 699.233 216.971H571.541C571.18 216.971 571 216.509 571 215.585C571 214.661 571.18 214.199 571.541 214.199C577.132 214.199 581.28 213.814 583.986 213.044C586.691 212.274 588.495 210.735 589.396 208.425C590.478 206.115 591.02 202.727 591.02 198.262V91.3182C591.02 86.8526 590.478 83.5419 589.396 81.3861C588.495 79.0763 586.691 77.5364 583.986 76.7665C581.28 75.8426 577.132 75.3806 571.541 75.3806C571.18 75.3806 571 74.9187 571 73.9948C571 73.0708 571.18 72.6089 571.541 72.6089C575.87 72.6089 581.01 72.7629 586.962 73.0708C593.094 73.2248 599.406 73.3018 605.899 73.3018C612.752 73.3018 619.065 73.2248 624.836 73.0708C630.608 72.7629 635.748 72.6089 640.257 72.6089C640.798 72.6089 641.068 73.0708 641.068 73.9948C641.068 74.9187 640.798 75.3806 640.257 75.3806C634.846 75.3806 630.698 75.8426 627.812 76.7665C625.107 77.5364 623.303 79.0763 622.401 81.3861C621.5 83.6959 621.049 87.0836 621.049 91.5492Z" fill="#252422"/>
<path d="M1101.97 144.532C1101.97 143.959 1101.78 143.672 1101.4 143.672L1071.67 143.816L1071.53 143.829C1071.24 143.892 1071.09 144.174 1071.09 144.675C1071.19 145.248 1071.38 145.534 1071.67 145.534C1076.03 145.534 1078.78 146.489 1079.92 148.398C1081.15 150.307 1081.77 152.791 1081.77 155.847L1081.73 157.558C1081.56 161.537 1080.82 165.407 1079.49 169.166C1078.78 171.268 1077.89 173.26 1076.85 175.147C1072.49 171.811 1068.28 168.249 1064.24 164.458L1062.41 162.72C1057.67 158.041 1053.45 153.219 1049.75 148.254C1048.52 146.609 1047.39 144.955 1046.34 143.299C1047.09 142.796 1047.84 142.298 1048.61 141.811C1051.31 140.021 1053.91 138.204 1056.4 136.36L1058.86 134.508C1062.18 131.931 1064.83 129.16 1066.82 126.2C1068.65 123.527 1069.68 120.453 1069.91 116.976L1069.95 115.461C1069.95 111.738 1069.1 108.872 1067.39 106.867C1065.9 105.029 1064.08 103.702 1061.93 102.887L1060.99 102.571C1058.75 101.819 1056.51 101.396 1054.27 101.302L1053.31 101.282C1048.56 101.283 1044.44 102.333 1040.93 104.433C1037.42 106.437 1034.66 109.157 1032.67 112.594C1030.68 116.031 1029.68 119.852 1029.68 124.052C1029.68 126.439 1030.06 128.924 1030.82 131.502C1031.58 134.079 1032.58 136.752 1033.81 139.52C1035.01 141.93 1036.41 144.377 1038 146.866C1035 148.952 1032.13 151.132 1029.4 153.412C1026.17 156.181 1023.52 159.235 1021.43 162.576L1021.05 163.209C1019.22 166.404 1018.3 170.06 1018.3 174.178L1018.34 175.497C1018.54 178.567 1019.43 181.563 1021.01 184.487C1022.9 187.734 1025.79 190.409 1029.68 192.509C1033.67 194.514 1038.7 195.516 1044.77 195.516C1050.56 195.516 1055.63 194.61 1060 192.796C1064.45 190.982 1068.3 188.596 1071.52 185.636C1072.24 184.961 1072.92 184.265 1073.58 183.562C1076.19 185.624 1078.49 187.324 1080.49 188.643C1083.62 190.552 1086.18 191.889 1088.17 192.652C1089.91 193.321 1091.37 193.698 1092.53 193.781L1093.01 193.798H1108.38L1108.57 193.755C1108.69 193.695 1108.79 193.574 1108.86 193.395L1108.95 193.082C1109.03 192.58 1108.89 192.262 1108.54 192.126L1108.38 192.08C1105.14 191.411 1101.25 189.974 1096.71 187.771L1094.72 186.782C1089.7 184.125 1084.45 180.764 1078.94 176.712C1079.18 176.347 1079.41 175.981 1079.63 175.61C1081.91 171.886 1083.76 168.161 1085.18 164.438C1086.32 161.574 1087.27 158.871 1088.04 156.33L1088.74 153.842C1089.17 152.41 1089.62 151.165 1090.1 150.109L1090.59 149.117C1091.26 147.876 1092.39 146.966 1094.01 146.393C1095.62 145.725 1098.08 145.391 1101.4 145.391C1101.78 145.391 1101.97 145.104 1101.97 144.532ZM1027.41 169.166C1027.41 164.87 1028.4 161.145 1030.4 157.994C1032.48 154.748 1035.14 151.838 1038.37 149.26C1038.62 149.046 1038.89 148.839 1039.15 148.627C1040.27 150.299 1041.48 151.992 1042.78 153.699C1046.57 158.472 1050.75 163.104 1055.3 167.591C1059.85 172.078 1064.5 176.23 1069.24 180.049C1070.11 180.773 1070.96 181.46 1071.77 182.12C1069.42 184.618 1066.68 186.703 1063.55 188.357C1059.76 190.266 1055.63 191.221 1051.17 191.221V187.811C1055.12 187.811 1058.71 186.972 1062 185.323C1063.66 184.442 1065.2 183.43 1066.61 182.29C1061.95 178.513 1057.39 174.425 1052.93 170.026C1048.28 165.447 1044.01 160.713 1040.13 155.827L1040.11 155.8L1040.08 155.77C1039.54 155.053 1039.01 154.335 1038.5 153.622C1036.43 155.529 1034.69 157.599 1033.25 159.826L1032.69 160.798C1031.46 163.128 1030.8 165.887 1030.8 169.166L1030.84 170.432C1031.02 173.339 1031.84 176.039 1033.3 178.573C1035.06 181.374 1037.46 183.634 1040.56 185.363C1043.61 186.968 1047.12 187.811 1051.17 187.811V191.221L1049.49 191.174C1046.16 190.995 1043.1 190.279 1040.31 189.026L1038.94 188.357C1035.33 186.352 1032.48 183.677 1030.4 180.335C1028.65 177.328 1027.67 174.101 1027.45 170.655L1027.41 169.166ZM1058.17 117.752C1058.17 114.516 1057.43 112.343 1056.27 110.869L1055.75 110.28L1055.72 110.257L1055.7 110.23C1054.15 108.6 1052.08 107.699 1049.18 107.699C1046.32 107.699 1044.52 108.537 1043.31 109.86C1042.21 111.156 1041.33 113.641 1041.33 118.039L1041.37 119.724C1041.58 123.664 1042.51 127.722 1044.2 131.911C1044.82 133.419 1045.53 134.925 1046.31 136.433C1046.92 135.93 1047.53 135.431 1048.12 134.921L1048.14 134.905L1048.16 134.888C1051.26 132.301 1053.73 129.581 1055.61 126.743C1057.3 124.2 1058.17 121.243 1058.17 117.752ZM1061.51 119.267C1061.28 122.755 1060.26 125.878 1058.43 128.634L1057.62 129.807C1055.66 132.522 1053.22 135.093 1050.32 137.515C1048.7 138.9 1047.03 140.261 1045.3 141.598C1043.64 138.818 1042.23 136.029 1041.07 133.22C1039.24 128.708 1038.21 124.269 1037.99 119.903L1037.94 118.039C1037.94 113.265 1038.89 109.779 1040.78 107.583C1042.78 105.387 1045.57 104.29 1049.18 104.289C1052.88 104.289 1055.87 105.482 1058.15 107.869C1060.42 110.16 1061.56 113.456 1061.56 117.752L1061.51 119.267ZM1073.33 116.34C1073.19 120.702 1071.98 124.663 1069.63 128.112L1069.63 128.115C1067.4 131.423 1064.48 134.446 1060.93 137.206L1060.92 137.216C1057.8 139.614 1054.51 141.962 1051.06 144.265C1051.51 144.913 1051.98 145.562 1052.46 146.21C1056.05 151.026 1060.16 155.719 1064.79 160.285C1068.27 163.653 1071.88 166.84 1075.61 169.852C1075.85 169.266 1076.08 168.672 1076.28 168.064L1076.79 166.542C1077.85 163.079 1078.38 159.517 1078.38 155.847C1078.38 153.558 1077.97 151.913 1077.35 150.735L1077.08 150.259L1077.04 150.206L1077.01 150.152C1076.97 150.076 1076.75 149.772 1075.89 149.473C1075.23 149.242 1074.29 149.06 1073.03 148.984L1071.67 148.944C1070.15 148.944 1069.07 148.084 1068.49 147.212C1068.13 146.665 1067.94 146.096 1067.83 145.644L1067.75 145.238L1067.7 144.958V144.675C1067.7 144.117 1067.78 143.104 1068.42 142.141C1069.21 140.938 1070.48 140.41 1071.65 140.406L1101.39 140.263H1101.4C1102.58 140.263 1103.85 140.79 1104.65 141.997C1105.29 142.961 1105.36 143.974 1105.36 144.532C1105.36 145.089 1105.29 146.105 1104.65 147.069C1103.85 148.276 1102.58 148.801 1101.4 148.801C1098.2 148.801 1096.28 149.14 1095.3 149.546L1095.21 149.58L1095.13 149.61C1094.13 149.966 1093.75 150.394 1093.57 150.732C1093.05 151.706 1092.51 153.05 1091.98 154.821C1091.09 158.196 1089.87 161.828 1088.33 165.707C1087.03 169.086 1085.41 172.444 1083.47 175.786C1087.94 178.944 1092.22 181.601 1096.3 183.762C1101.56 186.452 1105.79 188.064 1109.06 188.74C1109.98 188.928 1111.12 189.476 1111.82 190.711C1112.45 191.831 1112.4 192.958 1112.29 193.641L1112.28 193.698L1112.27 193.751C1112.17 194.241 1111.96 195.025 1111.38 195.749C1110.69 196.615 1109.63 197.207 1108.38 197.208H1093.01C1091.63 197.208 1090.12 196.899 1088.55 196.399L1086.96 195.839C1084.69 194.968 1081.93 193.509 1078.73 191.557L1078.68 191.527L1078.63 191.494C1077.18 190.536 1075.59 189.399 1073.87 188.094L1073.82 188.137L1073.8 188.154C1070.25 191.412 1066.06 194.006 1061.27 195.956L1061.26 195.952C1056.41 197.964 1050.89 198.926 1044.77 198.926C1038.75 198.926 1033.46 198 1029.04 195.979L1028.17 195.559L1028.08 195.513C1024.02 193.317 1020.78 190.475 1018.52 186.935L1018.08 186.219L1018.05 186.166L1018.03 186.116C1015.98 182.314 1014.91 178.322 1014.91 174.178C1014.91 169.219 1016.1 164.707 1018.56 160.762C1020.85 157.105 1023.74 153.793 1027.2 150.818L1027.22 150.802L1027.24 150.785C1029.24 149.116 1031.31 147.506 1033.45 145.94C1032.84 144.906 1032.25 143.879 1031.71 142.853L1030.78 141.045L1030.75 140.982L1030.72 140.915C1029.43 138.025 1028.38 135.208 1027.57 132.467C1026.73 129.615 1026.3 126.805 1026.3 124.052C1026.3 119.283 1027.44 114.864 1029.75 110.876C1032.05 106.908 1035.23 103.761 1039.25 101.466C1043.35 99.0281 1048.08 97.8728 1053.31 97.8726C1056.25 97.8726 1059.18 98.3655 1062.06 99.3344C1065.21 100.295 1067.86 102.086 1069.96 104.649C1069.97 104.66 1069.99 104.671 1069.99 104.682C1070 104.691 1070.01 104.7 1070.02 104.709C1072.4 107.537 1073.34 111.283 1073.34 115.461L1073.33 116.34Z" fill="#8A8A88"/>
<path d="M1137.62 211.791C1137.62 211.252 1137.65 210.474 1137.91 209.719C1138.13 209.052 1139.07 207.049 1141.51 207.049L1143.12 207.029C1146.7 206.95 1149.12 206.606 1150.58 206.125L1150.61 206.115L1150.64 206.108C1152.01 205.683 1152.67 204.983 1153.03 203.906L1153.06 203.813L1153.1 203.719C1153.74 202.134 1154.18 199.437 1154.18 195.343V93.7985C1154.18 90.1715 1153.89 87.6839 1153.47 86.1319L1153.28 85.5228L1153.27 85.4893L1153.25 85.4525C1152.94 84.5112 1152.39 83.8611 1151.34 83.4279L1150.86 83.2539L1150.73 83.2138L1150.61 83.1636C1149.02 82.533 1146.24 82.0927 1141.95 82.0927C1141.24 82.0926 1140.46 81.9073 1139.75 81.4368C1139.06 80.9805 1138.63 80.3868 1138.37 79.8707C1137.9 78.9353 1137.84 77.9644 1137.84 77.3508C1137.84 76.7371 1137.9 75.7659 1138.37 74.8309C1138.63 74.3153 1139.06 73.724 1139.75 73.2681C1140.46 72.7977 1141.24 72.609 1141.95 72.6089C1145.86 72.6089 1150.2 72.7556 1154.95 73.0506C1159.6 73.1938 1164.54 73.2681 1169.77 73.2681V76.6949L1165.85 76.6815C1161.99 76.6541 1158.29 76.5837 1154.76 76.474C1150.05 76.1816 1145.78 76.0356 1141.95 76.0356C1141.51 76.036 1141.29 76.4744 1141.29 77.3508L1141.33 77.9264C1141.42 78.42 1141.62 78.6657 1141.95 78.6659C1146.37 78.6659 1149.68 79.1073 1151.89 79.9844C1154.24 80.7154 1155.79 82.1755 1156.53 84.3683C1157.26 86.415 1157.63 89.5592 1157.63 93.7985V195.343L1157.61 196.882C1157.51 200.369 1157.08 203.072 1156.3 204.991C1155.57 207.184 1154.02 208.647 1151.67 209.378C1149.46 210.109 1146.07 210.476 1141.51 210.476L1141.41 210.496C1141.18 210.593 1141.07 211.025 1141.07 211.791L1141.1 212.366C1141.15 212.859 1141.29 213.106 1141.51 213.106C1143.43 213.106 1145.47 213.089 1147.64 213.052L1154.54 212.885C1159.4 212.739 1164.47 212.667 1169.77 212.667L1173.87 212.681C1177.87 212.708 1181.58 212.775 1185 212.885C1188.54 212.995 1191.82 213.065 1194.85 213.092L1197.81 213.106C1198.32 213.105 1198.61 212.77 1198.68 212.099L1198.69 211.791C1198.69 211.023 1198.47 210.591 1198.01 210.496L1197.81 210.476C1193.82 210.476 1190.72 210.195 1188.53 209.636L1187.65 209.378C1185.44 208.647 1183.97 207.184 1183.24 204.991C1182.59 203.072 1182.23 200.369 1182.15 196.882L1182.13 195.343V147.599L1187.07 142.62L1215.91 181.305C1221.21 188.469 1225.48 194.172 1228.72 198.412C1231.95 202.652 1234.53 205.87 1236.44 208.063C1238.5 210.254 1240.27 211.715 1241.74 212.447C1243.03 213.086 1244.49 213.448 1246.11 213.527L1246.82 213.544C1247.41 213.544 1248.05 213.527 1248.75 213.491L1251.01 213.327C1252.23 213.217 1253.61 213.147 1255.15 213.119L1256.75 213.106H1281.48L1281.63 213.086C1281.88 213.017 1282.03 212.777 1282.1 212.366L1282.14 211.791C1282.14 211.023 1281.97 210.592 1281.63 210.496L1281.48 210.476C1279.12 210.476 1276.92 210.326 1274.86 210.034C1273.18 209.778 1271.45 209.132 1269.67 208.093L1268.89 207.624C1266.83 206.309 1264.41 204.187 1261.61 201.263C1258.96 198.193 1255.65 194.098 1251.68 188.981C1247.7 183.718 1242.84 177.065 1237.1 169.023L1204.34 125.198L1229.38 99.9393C1235.59 93.9084 1242.44 89.0367 1249.95 85.3187L1251.45 84.5891C1259.55 80.6416 1266.98 78.666 1273.75 78.6659C1274.08 78.6659 1274.29 78.4202 1274.37 77.9264L1274.42 77.3508C1274.42 76.474 1274.19 76.0356 1273.75 76.0356C1269.93 76.0357 1265.95 76.1816 1261.83 76.474C1257.71 76.6202 1252.11 76.6949 1245.05 76.6949V73.2681C1252.08 73.2681 1257.61 73.1939 1261.67 73.0506C1265.84 72.7569 1269.86 72.6089 1273.75 72.6089C1274.47 72.6089 1275.24 72.7975 1275.95 73.2681C1276.64 73.7239 1277.07 74.3152 1277.33 74.8309C1277.8 75.7659 1277.86 76.7371 1277.86 77.3508L1277.85 77.8728C1277.81 78.4484 1277.69 79.1692 1277.33 79.8707C1277.07 80.3867 1276.64 80.9806 1275.95 81.4368C1275.24 81.9071 1274.47 82.0927 1273.75 82.0927C1267.65 82.0928 1260.75 83.8746 1252.97 87.6645L1252.95 87.6746L1252.93 87.6879C1245.19 91.321 1238.15 96.2159 1231.79 102.392L1208.87 125.513L1239.87 166.982L1239.9 167.012L1239.92 167.042C1245.65 175.07 1250.49 181.696 1254.44 186.927C1258.35 191.963 1261.59 195.968 1264.17 198.96C1266.85 201.765 1269.05 203.645 1270.76 204.74C1272.52 205.863 1274.06 206.444 1275.38 206.647H1275.38C1276.78 206.844 1278.27 206.971 1279.85 207.022L1281.48 207.049C1282.19 207.049 1282.97 207.234 1283.68 207.705C1284.37 208.161 1284.8 208.755 1285.06 209.271C1285.53 210.206 1285.59 211.177 1285.59 211.791L1285.58 212.309C1285.54 212.885 1285.41 213.608 1285.06 214.311C1284.8 214.826 1284.37 215.417 1283.68 215.873C1282.97 216.344 1282.19 216.533 1281.48 216.533H1256.75C1254.62 216.533 1252.81 216.603 1251.33 216.737C1249.64 216.889 1248.13 216.971 1246.82 216.971C1244.46 216.971 1242.22 216.517 1240.2 215.512C1238.42 214.63 1236.59 213.128 1234.72 211.235L1233.92 210.399L1233.88 210.355L1233.84 210.305C1232.35 208.597 1230.49 206.323 1228.29 203.495L1225.97 200.483C1222.71 196.223 1218.43 190.506 1213.13 183.336V183.333L1186.7 147.88L1185.58 149.005V195.343L1185.6 196.825C1185.67 199.669 1185.93 201.771 1186.31 203.23L1186.51 203.906C1186.85 204.93 1187.4 205.564 1188.33 205.968L1188.74 206.125C1190.2 206.606 1192.62 206.95 1196.2 207.029L1197.81 207.049C1199.11 207.049 1200.47 207.614 1201.34 208.903C1201.86 209.685 1202.05 210.518 1202.11 211.185L1202.14 211.791L1202.11 212.393C1202.05 213.061 1201.86 213.895 1201.34 214.679C1200.47 215.967 1199.11 216.532 1197.81 216.533C1195.87 216.533 1193.83 216.513 1191.68 216.476L1184.9 216.312H1184.89C1180.38 216.167 1175.33 216.094 1169.77 216.094C1164.51 216.094 1159.46 216.167 1154.64 216.312C1149.76 216.459 1145.38 216.533 1141.51 216.533C1139.07 216.532 1138.13 214.53 1137.91 213.862C1137.65 213.107 1137.62 212.329 1137.62 211.791ZM1212.46 77.3508C1212.46 76.7371 1212.52 75.7659 1212.99 74.8309C1213.25 74.3153 1213.68 73.724 1214.37 73.2681C1215.08 72.7978 1215.86 72.6091 1216.57 72.6089C1220.6 72.6089 1224.7 72.757 1228.87 73.0506C1232.93 73.1941 1238.32 73.2681 1245.05 73.2681V76.6949L1240.22 76.6815C1237.17 76.6632 1234.45 76.6259 1232.05 76.5711L1228.72 76.474C1224.6 76.1816 1220.55 76.0356 1216.57 76.0356C1216.13 76.0364 1215.91 76.4747 1215.91 77.3508L1215.95 77.9264C1216.03 78.4198 1216.24 78.6654 1216.57 78.6659C1223.93 78.6659 1228.27 80.6415 1229.6 84.5891C1231.07 88.5367 1229.08 93.2146 1223.64 98.6241L1182.13 140.813V94.2369C1182.13 90.5275 1182.42 87.6018 1182.98 85.4592L1183.24 84.5891C1184.01 82.6702 1185.29 81.254 1187.08 80.3425L1187.87 79.9844C1189.81 79.2169 1192.58 78.7852 1196.21 78.6894L1197.81 78.6659C1198.25 78.6654 1198.47 78.2275 1198.47 77.3508C1198.47 76.5839 1198.3 76.1518 1197.96 76.0557L1197.81 76.0356C1194.13 76.0356 1189.93 76.1816 1185.22 76.474C1180.51 76.6202 1175.36 76.6949 1169.77 76.6949V73.2681C1175.3 73.2681 1180.38 73.1936 1185.02 73.0506C1189.78 72.7556 1194.04 72.6089 1197.81 72.6089L1198.35 72.6457C1198.91 72.7205 1199.48 72.9154 1200.01 73.2681C1200.7 73.724 1201.13 74.3153 1201.39 74.8309C1201.86 75.7659 1201.92 76.7371 1201.92 77.3508C1201.92 77.9644 1201.86 78.9353 1201.39 79.8707C1201.13 80.3868 1200.7 80.9805 1200.01 81.4368C1199.3 81.9072 1198.52 82.0926 1197.81 82.0927C1193.52 82.0927 1190.74 82.5331 1189.15 83.1636C1187.86 83.6798 1187.01 84.4989 1186.48 85.7671C1185.94 87.4416 1185.58 90.1897 1185.58 94.2369V132.403L1221.17 96.2281L1221.2 96.2013C1226.17 91.2656 1226.98 88.0915 1226.48 86.1519L1226.36 85.7805L1226.32 85.6734C1225.77 84.0212 1223.7 82.0927 1216.57 82.0927C1215.86 82.0925 1215.08 81.9072 1214.37 81.4368C1213.68 80.9805 1213.25 80.3867 1212.99 79.8707C1212.52 78.9353 1212.46 77.9644 1212.46 77.3508Z" fill="url(#paint0_linear_23_116)"/>
<path d="M1367 69C1378.43 69 1388.77 71.0881 1397.92 75.3506H1397.92C1406.52 79.1468 1413.93 84.2616 1420.12 90.7012L1421.35 92.0088C1427.74 99.0226 1432.58 106.982 1435.86 115.865C1439.28 124.738 1441 133.865 1441 143.229C1441 154.122 1438.82 164.301 1434.42 173.715C1430.06 183.056 1424.07 191.238 1416.44 198.239L1416.44 198.235C1408.98 205.226 1400.29 210.731 1390.4 214.747L1390.38 214.758C1380.57 218.647 1370.17 220.58 1359.18 220.58C1348.76 220.58 1339.13 218.883 1330.34 215.438L1328.59 214.727L1328.56 214.713L1328.52 214.696C1320.05 210.898 1312.64 205.783 1306.33 199.353L1305.09 198.052L1305.06 198.021C1298.66 191.008 1293.68 182.981 1290.11 173.971L1290.1 173.937L1290.09 173.906C1286.66 164.721 1284.95 155.006 1284.95 144.792C1284.95 132.293 1287.35 121.17 1292.25 111.523L1292.27 111.482C1297.25 101.996 1303.81 94.0929 1311.95 87.8232L1313.47 86.6523C1321.11 80.8867 1329.45 76.5416 1338.48 73.6309C1348.02 70.5517 1357.53 69 1367 69ZM1367 72.4873C1357.92 72.4873 1348.77 73.9757 1339.55 76.9512L1337.83 77.5264C1329.27 80.4989 1321.36 84.8458 1314.11 90.5645C1306.37 96.5153 1300.12 104.029 1295.36 113.104C1290.8 122.088 1288.49 132.532 1288.44 144.433C1288.51 144.498 1288.55 144.588 1288.55 144.688V144.709C1288.55 144.723 1288.54 144.745 1288.54 144.772C1288.54 144.829 1288.54 144.912 1288.54 145.018C1288.54 145.23 1288.54 145.534 1288.54 145.902C1288.55 146.639 1288.59 147.627 1288.67 148.638C1288.68 148.766 1288.69 148.892 1288.69 149.017C1289.73 156.913 1293.2 164.291 1298.99 169.994C1305.86 176.753 1315.12 180.616 1324.81 180.79C1326.41 184.259 1328.2 187.509 1330.17 190.54C1334.78 197.234 1340.14 202.44 1346.24 206.159C1352.1 209.506 1358.41 211.286 1365.19 211.495L1366.55 211.516C1374.36 211.516 1381.39 209.424 1387.63 205.24L1388.86 204.375C1395.41 199.614 1400.54 192.619 1404.26 183.396C1407.89 174.748 1409.82 164.337 1410.04 152.16L1410.06 149.702C1410.06 136.015 1407.98 123.815 1403.82 113.104C1402.99 110.988 1402.1 108.964 1401.14 107.028C1410.83 107.199 1420.1 111.064 1426.97 117.825C1433.24 123.994 1436.78 132.124 1437.47 140.749C1437.48 140.896 1437.48 141.043 1437.48 141.19C1437.49 141.19 1437.49 141.191 1437.5 141.19C1437.49 141.043 1437.48 140.896 1437.47 140.749C1437.2 132.689 1435.58 124.811 1432.61 117.118C1429.68 109.168 1425.44 102.002 1419.9 95.6211L1418.77 94.3584C1412.67 87.664 1405.23 82.3817 1396.45 78.5137C1388.36 74.7479 1379.23 72.7461 1369.05 72.5107L1367 72.4873ZM1397.29 107.156C1398.48 109.414 1399.58 111.817 1400.57 114.367L1401.29 116.305C1404.8 126.082 1406.58 137.201 1406.58 149.702C1406.58 162.621 1404.69 173.366 1401.05 182.048L1401.03 182.095C1397.5 190.851 1392.72 197.259 1386.81 201.556C1380.88 205.869 1374.17 208.028 1366.55 208.028C1359.87 208.028 1353.71 206.403 1348 203.149C1342.41 199.726 1337.42 194.903 1333.07 188.592C1331.45 186.114 1329.97 183.473 1328.61 180.668C1337.41 179.946 1345.71 176.186 1352 169.994C1358.81 163.292 1362.73 154.278 1362.97 144.826L1362.99 142.994C1363.23 133.542 1367.15 124.527 1373.96 117.825C1380.24 111.648 1388.51 107.891 1397.29 107.156ZM1299.26 184.731C1300.21 186.346 1301.23 187.916 1302.3 189.432C1301.65 188.395 1300.82 187.071 1299.42 184.973C1299.37 184.892 1299.31 184.812 1299.26 184.731ZM1430.03 174.772C1428.83 177.099 1427.53 179.346 1426.11 181.514C1427.48 179.566 1428.66 177.575 1430.03 174.772ZM1360.09 78.5479C1370.08 78.9139 1378.71 82.0274 1385.96 87.8848C1392.17 92.78 1397.23 99.1624 1401.14 107.028C1400.91 107.024 1400.69 107.021 1400.46 107.021C1399.4 107.021 1398.34 107.068 1397.29 107.156C1393.69 100.356 1389.19 94.8678 1383.8 90.623L1383.77 90.5986C1376.72 84.8983 1368.21 82.001 1358.07 82.001C1345.56 82.0014 1336.25 86.6625 1329.67 95.9277C1322.94 105.395 1319.38 118.801 1319.38 136.534L1319.39 138.51C1319.54 148.331 1320.76 157.397 1323.04 165.724C1324.55 171.144 1326.41 176.122 1328.61 180.668C1327.58 180.753 1326.54 180.799 1325.5 180.799C1325.27 180.799 1325.04 180.794 1324.81 180.79C1322.8 176.426 1321.09 171.715 1319.68 166.659C1317.31 158.012 1316.06 148.646 1315.91 138.561L1315.89 136.534C1315.89 118.952 1319.31 105.069 1326.15 94.8857L1326.82 93.9121C1334.11 83.6472 1344.53 78.5142 1358.07 78.5137L1360.09 78.5479ZM1436.81 153.466C1436.03 158.958 1434.62 164.221 1432.57 169.256C1433.98 165.93 1435.02 162.827 1435.99 158.55C1436.43 156.58 1436.66 155.026 1436.81 153.466ZM1289.21 156.197C1289.46 157.997 1289.77 159.778 1290.13 161.54C1290.07 161.2 1290.03 160.925 1290 160.732C1289.98 160.633 1289.97 160.555 1289.96 160.503C1289.96 160.477 1289.96 160.457 1289.95 160.443C1289.95 160.437 1289.95 160.431 1289.95 160.428C1289.95 160.426 1289.95 160.425 1289.95 160.424L1289.95 160.423L1289.95 160.404L1289.95 160.386V160.385C1289.95 160.384 1289.95 160.382 1289.95 160.38C1289.95 160.376 1289.95 160.369 1289.94 160.36C1289.94 160.343 1289.94 160.316 1289.94 160.28C1289.94 160.209 1289.93 160.103 1289.92 159.968C1289.89 159.727 1289.86 159.391 1289.8 158.985C1289.7 158.467 1289.61 157.949 1289.52 157.431C1289.44 157.039 1289.33 156.625 1289.21 156.197Z" fill="url(#paint1_linear_23_116)"/>
<path d="M1332.45 300.575C1331.73 300.575 1331.15 300.376 1330.72 299.979C1330.29 299.546 1330.07 298.969 1330.07 298.247C1330.07 297.561 1330.29 297.02 1330.72 296.623C1331.15 296.19 1331.73 295.973 1332.45 295.973C1333.21 295.973 1333.79 296.19 1334.18 296.623C1334.58 297.02 1334.78 297.561 1334.78 298.247C1334.78 298.969 1334.58 299.546 1334.18 299.979C1333.79 300.376 1333.21 300.575 1332.45 300.575Z" fill="#8A8A88"/>
<path d="M1311.01 273.994C1312.27 273.994 1313.7 274.138 1315.29 274.427C1316.91 274.68 1318.23 275.059 1319.24 275.564C1319.53 275.672 1319.69 275.78 1319.73 275.889C1319.8 275.997 1319.85 276.195 1319.89 276.484L1320.43 282.06C1320.43 282.168 1320.32 282.241 1320.1 282.277C1319.92 282.313 1319.82 282.259 1319.78 282.114C1319.09 279.588 1317.88 277.747 1316.15 276.592C1314.42 275.401 1312.33 274.806 1309.87 274.806C1308 274.806 1306.3 275.311 1304.78 276.322C1303.3 277.296 1302.13 278.668 1301.26 280.436C1300.4 282.168 1299.97 284.153 1299.97 286.391C1299.97 288.015 1300.2 289.621 1300.67 291.209C1301.14 292.797 1301.84 294.259 1302.78 295.594C1303.72 296.893 1304.89 297.94 1306.3 298.734C1307.74 299.492 1309.42 299.871 1311.33 299.871C1313.5 299.871 1315.36 299.275 1316.91 298.084C1318.46 296.893 1319.58 294.999 1320.27 292.4C1320.3 292.256 1320.41 292.202 1320.59 292.238C1320.81 292.274 1320.92 292.346 1320.92 292.454L1320.21 298.193C1320.18 298.481 1320.12 298.68 1320.05 298.788C1319.98 298.896 1319.78 299.023 1319.45 299.167C1317.9 299.708 1316.37 300.087 1314.85 300.304C1313.37 300.52 1312.02 300.629 1310.79 300.629C1308.05 300.629 1305.74 300.214 1303.86 299.384C1301.99 298.517 1300.47 297.417 1299.32 296.081C1298.2 294.71 1297.39 293.248 1296.88 291.696C1296.37 290.108 1296.12 288.611 1296.12 287.203C1296.12 284.677 1296.77 282.421 1298.07 280.436C1299.41 278.451 1301.19 276.881 1303.43 275.726C1305.67 274.571 1308.19 273.994 1311.01 273.994Z" fill="#8A8A88"/>
<path d="M1264.81 294.079V275.835L1265.9 275.997V294.079C1265.9 295.991 1266.17 297.345 1266.71 298.139C1267.25 298.933 1268.19 299.33 1269.52 299.33C1269.6 299.33 1269.63 299.438 1269.63 299.655C1269.63 299.871 1269.6 299.979 1269.52 299.979C1268.91 299.979 1268.26 299.961 1267.58 299.925C1266.93 299.889 1266.2 299.871 1265.41 299.871C1264.65 299.871 1263.91 299.889 1263.19 299.925C1262.47 299.961 1261.78 299.979 1261.13 299.979C1261.06 299.979 1261.03 299.871 1261.03 299.655C1261.03 299.438 1261.06 299.33 1261.13 299.33C1262.51 299.33 1263.46 298.933 1264 298.139C1264.54 297.345 1264.81 295.991 1264.81 294.079ZM1285.01 300.575C1285.01 300.647 1284.92 300.683 1284.74 300.683C1284.56 300.719 1284.43 300.719 1284.36 300.683L1266.6 279.083C1265.41 277.639 1264.4 276.647 1263.57 276.105C1262.74 275.564 1261.93 275.293 1261.13 275.293C1261.06 275.293 1261.03 275.185 1261.03 274.969C1261.03 274.752 1261.06 274.644 1261.13 274.644C1261.64 274.644 1262.16 274.662 1262.7 274.698C1263.24 274.698 1263.73 274.698 1264.17 274.698C1264.53 274.698 1264.83 274.698 1265.09 274.698C1265.37 274.662 1265.66 274.644 1265.95 274.644C1266.28 274.644 1266.64 274.644 1267.03 274.644C1267.5 274.644 1267.85 274.86 1268.06 275.293C1268.28 275.727 1268.78 276.448 1269.58 277.459L1284.47 295.811L1285.01 300.575ZM1285.01 280.545V300.575L1283.92 298.897V280.545C1283.92 278.632 1283.65 277.278 1283.11 276.484C1282.61 275.69 1281.69 275.293 1280.35 275.293C1280.24 275.293 1280.19 275.185 1280.19 274.969C1280.19 274.752 1280.24 274.644 1280.35 274.644C1280.97 274.644 1281.6 274.68 1282.25 274.752C1282.93 274.788 1283.67 274.806 1284.47 274.806C1285.22 274.806 1285.98 274.788 1286.74 274.752C1287.5 274.68 1288.17 274.644 1288.74 274.644C1288.85 274.644 1288.91 274.752 1288.91 274.969C1288.91 275.185 1288.85 275.293 1288.74 275.293C1287.41 275.293 1286.45 275.69 1285.87 276.484C1285.3 277.278 1285.01 278.632 1285.01 280.545Z" fill="#8A8A88"/>
<path d="M1249.5 295.594C1249.5 296.641 1249.59 297.435 1249.77 297.976C1249.98 298.518 1250.38 298.879 1250.96 299.059C1251.53 299.239 1252.4 299.33 1253.56 299.33C1253.63 299.33 1253.66 299.438 1253.66 299.655C1253.66 299.871 1253.63 299.979 1253.56 299.979C1252.76 299.979 1251.88 299.961 1250.9 299.925C1249.96 299.889 1248.92 299.871 1247.76 299.871C1246.75 299.871 1245.74 299.889 1244.73 299.925C1243.72 299.961 1242.84 299.979 1242.08 299.979C1242.01 299.979 1241.97 299.871 1241.97 299.655C1241.97 299.438 1242.01 299.33 1242.08 299.33C1243.27 299.33 1244.15 299.239 1244.73 299.059C1245.31 298.879 1245.69 298.518 1245.87 297.976C1246.05 297.435 1246.14 296.641 1246.14 295.594V279.029C1246.14 277.982 1246.05 277.206 1245.87 276.701C1245.69 276.16 1245.31 275.799 1244.73 275.618C1244.15 275.402 1243.27 275.293 1242.08 275.293C1242.01 275.293 1241.97 275.185 1241.97 274.969C1241.97 274.752 1242.01 274.644 1242.08 274.644C1242.84 274.644 1243.72 274.68 1244.73 274.752C1245.74 274.788 1246.75 274.806 1247.76 274.806C1248.92 274.806 1249.98 274.788 1250.96 274.752C1251.93 274.68 1252.8 274.644 1253.56 274.644C1253.63 274.644 1253.66 274.752 1253.66 274.969C1253.66 275.185 1253.63 275.293 1253.56 275.293C1251.82 275.293 1250.7 275.546 1250.2 276.051C1249.73 276.557 1249.5 277.585 1249.5 279.137V295.594Z" fill="#8A8A88"/>
<path d="M1204.73 279.029C1204.73 280.183 1205.02 281.176 1205.59 282.006C1206.21 282.8 1207 283.504 1207.97 284.117C1208.95 284.695 1209.96 285.254 1211.01 285.795C1212.12 286.373 1213.19 286.986 1214.2 287.636C1215.25 288.286 1216.09 289.062 1216.74 289.964C1217.39 290.866 1217.72 292.003 1217.72 293.375C1217.72 294.71 1217.36 295.937 1216.64 297.056C1215.91 298.138 1214.87 299.005 1213.5 299.654C1212.16 300.304 1210.54 300.629 1208.62 300.629C1207.47 300.629 1206.33 300.466 1205.21 300.141C1204.09 299.853 1203.07 299.384 1202.13 298.734C1201.95 298.662 1201.82 298.535 1201.75 298.355C1201.71 298.175 1201.68 297.958 1201.64 297.705L1201.1 292.346C1201.06 292.165 1201.14 292.075 1201.32 292.075C1201.53 292.039 1201.68 292.093 1201.75 292.238C1202.07 293.573 1202.62 294.818 1203.37 295.973C1204.17 297.128 1205.11 298.048 1206.19 298.734C1207.31 299.42 1208.5 299.763 1209.76 299.763C1210.48 299.763 1211.2 299.618 1211.93 299.329C1212.65 299.041 1213.24 298.572 1213.71 297.922C1214.18 297.272 1214.42 296.37 1214.42 295.215C1214.42 293.952 1214.11 292.887 1213.5 292.021C1212.88 291.155 1212.09 290.397 1211.11 289.747C1210.14 289.098 1209.13 288.502 1208.08 287.961C1207 287.347 1205.97 286.734 1205 286.12C1204.02 285.471 1203.21 284.713 1202.56 283.847C1201.95 282.944 1201.64 281.844 1201.64 280.544C1201.64 279.101 1202.02 277.91 1202.78 276.971C1203.57 275.997 1204.58 275.257 1205.81 274.752C1207.07 274.247 1208.41 273.994 1209.82 273.994C1210.65 273.994 1211.51 274.084 1212.41 274.265C1213.35 274.445 1214.29 274.77 1215.23 275.239C1215.52 275.383 1215.72 275.51 1215.82 275.618C1215.93 275.726 1216 275.907 1216.04 276.159L1216.37 280.869C1216.37 281.014 1216.28 281.104 1216.09 281.14C1215.91 281.176 1215.79 281.122 1215.72 280.977C1215.61 280.364 1215.36 279.696 1214.96 278.974C1214.6 278.253 1214.11 277.585 1213.5 276.971C1212.92 276.322 1212.23 275.798 1211.44 275.401C1210.65 275.004 1209.78 274.806 1208.84 274.806C1207.54 274.806 1206.53 275.221 1205.81 276.051C1205.09 276.845 1204.73 277.838 1204.73 279.029Z" fill="#8A8A88"/>
<path d="M1171.39 299.979C1171.31 299.979 1171.28 299.871 1171.28 299.655C1171.28 299.438 1171.31 299.33 1171.39 299.33C1172.54 299.33 1173.41 299.239 1173.99 299.059C1174.56 298.879 1174.94 298.518 1175.12 297.976C1175.3 297.435 1175.39 296.641 1175.39 295.594V279.029C1175.39 277.982 1175.3 277.206 1175.12 276.701C1174.94 276.16 1174.56 275.799 1173.99 275.618C1173.41 275.402 1172.54 275.293 1171.39 275.293C1171.31 275.293 1171.28 275.185 1171.28 274.969C1171.28 274.752 1171.31 274.644 1171.39 274.644H1190.23C1190.59 274.644 1190.77 274.788 1190.77 275.077C1190.77 275.979 1190.79 277.026 1190.82 278.217C1190.86 279.408 1190.88 280.346 1190.88 281.032C1190.88 281.14 1190.77 281.194 1190.55 281.194C1190.33 281.194 1190.23 281.14 1190.23 281.032C1190.08 279.372 1189.49 278.018 1188.44 276.972C1187.39 275.889 1186.08 275.348 1184.49 275.348H1182.97C1181.78 275.348 1180.88 275.456 1180.26 275.672C1179.65 275.853 1179.24 276.214 1179.02 276.755C1178.8 277.26 1178.69 278.036 1178.69 279.083V295.378C1178.69 296.388 1178.8 297.164 1179.02 297.706C1179.24 298.247 1179.65 298.626 1180.26 298.842C1180.88 299.023 1181.78 299.113 1182.97 299.113H1185.57C1186.58 299.113 1187.5 298.842 1188.33 298.301C1189.2 297.76 1189.92 297.02 1190.5 296.082C1191.11 295.107 1191.54 294.006 1191.8 292.779C1191.8 292.671 1191.89 292.617 1192.07 292.617C1192.28 292.617 1192.39 292.671 1192.39 292.779C1192.32 293.609 1192.23 294.62 1192.12 295.811C1192.05 297.002 1192.01 298.121 1192.01 299.167C1192.01 299.709 1191.74 299.979 1191.2 299.979H1171.39ZM1188.06 288.34C1187.88 288.34 1187.45 288.286 1186.76 288.178C1186.08 288.033 1184.99 287.907 1183.51 287.799C1182.03 287.691 1179.98 287.636 1177.34 287.636V286.5C1179.98 286.5 1182.03 286.463 1183.51 286.391C1184.99 286.283 1186.08 286.193 1186.76 286.121C1187.45 286.012 1187.88 285.958 1188.06 285.958C1188.17 285.958 1188.24 286.084 1188.28 286.337C1188.31 286.554 1188.33 286.806 1188.33 287.095C1188.33 287.42 1188.31 287.709 1188.28 287.961C1188.24 288.214 1188.17 288.34 1188.06 288.34Z" fill="#8A8A88"/>
<path d="M1150.84 279.029C1150.84 280.183 1151.13 281.176 1151.7 282.006C1152.32 282.8 1153.11 283.504 1154.09 284.117C1155.06 284.695 1156.07 285.254 1157.12 285.795C1158.24 286.373 1159.3 286.986 1160.31 287.636C1161.36 288.286 1162.21 289.062 1162.86 289.964C1163.51 290.866 1163.83 292.003 1163.83 293.375C1163.83 294.71 1163.47 295.937 1162.75 297.056C1162.03 298.138 1160.98 299.005 1159.61 299.654C1158.27 300.304 1156.65 300.629 1154.74 300.629C1153.58 300.629 1152.44 300.466 1151.32 300.141C1150.21 299.853 1149.18 299.384 1148.24 298.734C1148.06 298.662 1147.93 298.535 1147.86 298.355C1147.82 298.175 1147.79 297.958 1147.75 297.705L1147.21 292.346C1147.17 292.165 1147.25 292.075 1147.43 292.075C1147.64 292.039 1147.79 292.093 1147.86 292.238C1148.18 293.573 1148.73 294.818 1149.48 295.973C1150.28 297.128 1151.22 298.048 1152.3 298.734C1153.42 299.42 1154.61 299.763 1155.87 299.763C1156.59 299.763 1157.32 299.618 1158.04 299.329C1158.76 299.041 1159.35 298.572 1159.82 297.922C1160.29 297.272 1160.53 296.37 1160.53 295.215C1160.53 293.952 1160.22 292.887 1159.61 292.021C1158.99 291.155 1158.2 290.397 1157.23 289.747C1156.25 289.098 1155.24 288.502 1154.19 287.961C1153.11 287.347 1152.08 286.734 1151.11 286.12C1150.13 285.471 1149.32 284.713 1148.67 283.847C1148.06 282.944 1147.75 281.844 1147.75 280.544C1147.75 279.101 1148.13 277.91 1148.89 276.971C1149.68 275.997 1150.69 275.257 1151.92 274.752C1153.18 274.247 1154.52 273.994 1155.93 273.994C1156.76 273.994 1157.62 274.084 1158.52 274.265C1159.46 274.445 1160.4 274.77 1161.34 275.239C1161.63 275.383 1161.83 275.51 1161.94 275.618C1162.04 275.726 1162.12 275.907 1162.15 276.159L1162.48 280.869C1162.48 281.014 1162.39 281.104 1162.21 281.14C1162.03 281.176 1161.9 281.122 1161.83 280.977C1161.72 280.364 1161.47 279.696 1161.07 278.974C1160.71 278.253 1160.22 277.585 1159.61 276.971C1159.03 276.322 1158.34 275.798 1157.55 275.401C1156.76 275.004 1155.89 274.806 1154.95 274.806C1153.65 274.806 1152.64 275.221 1151.92 276.051C1151.2 276.845 1150.84 277.838 1150.84 279.029Z" fill="#8A8A88"/>
<path d="M1134.49 295.594C1134.49 296.641 1134.58 297.435 1134.76 297.976C1134.98 298.518 1135.37 298.879 1135.95 299.059C1136.53 299.239 1137.39 299.33 1138.55 299.33C1138.62 299.33 1138.66 299.438 1138.66 299.655C1138.66 299.871 1138.62 299.979 1138.55 299.979C1137.75 299.979 1136.87 299.961 1135.9 299.925C1134.96 299.889 1133.91 299.871 1132.76 299.871C1131.75 299.871 1130.73 299.889 1129.72 299.925C1128.71 299.961 1127.83 299.979 1127.07 299.979C1127 299.979 1126.96 299.871 1126.96 299.655C1126.96 299.438 1127 299.33 1127.07 299.33C1128.26 299.33 1129.15 299.239 1129.72 299.059C1130.3 298.879 1130.68 298.518 1130.86 297.976C1131.04 297.435 1131.13 296.641 1131.13 295.594V279.029C1131.13 277.982 1131.04 277.206 1130.86 276.701C1130.68 276.16 1130.3 275.799 1129.72 275.618C1129.15 275.402 1128.26 275.293 1127.07 275.293C1127 275.293 1126.96 275.185 1126.96 274.969C1126.96 274.752 1127 274.644 1127.07 274.644C1127.83 274.644 1128.71 274.68 1129.72 274.752C1130.73 274.788 1131.75 274.806 1132.76 274.806C1133.91 274.806 1134.98 274.788 1135.95 274.752C1136.92 274.68 1137.79 274.644 1138.55 274.644C1138.62 274.644 1138.66 274.752 1138.66 274.969C1138.66 275.185 1138.62 275.293 1138.55 275.293C1136.82 275.293 1135.7 275.546 1135.19 276.051C1134.72 276.557 1134.49 277.585 1134.49 279.137V295.594Z" fill="#8A8A88"/>
<path d="M1105.52 299.33C1105.59 299.33 1105.62 299.438 1105.62 299.654C1105.62 299.871 1105.59 299.979 1105.52 299.979C1104.72 299.979 1103.86 299.961 1102.92 299.925C1101.98 299.889 1100.93 299.871 1099.78 299.871C1098.77 299.871 1097.76 299.889 1096.75 299.925C1095.74 299.961 1094.85 299.979 1094.09 299.979C1094.02 299.979 1093.99 299.871 1093.99 299.654C1093.99 299.438 1094.02 299.33 1094.09 299.33C1095.25 299.33 1096.11 299.239 1096.69 299.059C1097.27 298.878 1097.67 298.517 1097.88 297.976C1098.1 297.435 1098.21 296.641 1098.21 295.594V279.029C1098.21 277.477 1097.96 276.466 1097.45 275.997C1096.98 275.528 1095.88 275.293 1094.15 275.293C1094.08 275.293 1094.04 275.185 1094.04 274.968C1094.04 274.752 1094.08 274.644 1094.15 274.644C1094.91 274.644 1095.77 274.68 1096.75 274.752C1097.76 274.788 1098.77 274.806 1099.78 274.806C1100.75 274.806 1101.84 274.752 1103.03 274.644C1104.22 274.535 1105.28 274.481 1106.22 274.481C1108.57 274.481 1110.35 274.932 1111.58 275.835C1112.81 276.737 1113.42 278.036 1113.42 279.732C1113.42 281.248 1112.97 282.638 1112.07 283.901C1111.2 285.128 1110.03 286.12 1108.55 286.878C1107.1 287.6 1105.44 287.961 1103.57 287.961C1103.1 287.961 1102.59 287.943 1102.05 287.907C1101.55 287.871 1101.06 287.817 1100.59 287.744L1100.54 286.662C1101.04 286.806 1101.53 286.914 1102 286.987C1102.5 287.023 1103.15 287.041 1103.95 287.041C1106.33 287.041 1107.92 286.517 1108.71 285.471C1109.54 284.388 1109.96 282.962 1109.96 281.194C1109.96 277.224 1108.24 275.239 1104.81 275.239C1103.33 275.239 1102.41 275.564 1102.05 276.214C1101.69 276.863 1101.51 277.838 1101.51 279.137V295.594C1101.51 296.641 1101.6 297.435 1101.78 297.976C1101.96 298.517 1102.34 298.878 1102.92 299.059C1103.5 299.239 1104.36 299.33 1105.52 299.33ZM1121.59 299.33C1121.67 299.33 1121.7 299.438 1121.7 299.654C1121.7 299.871 1121.67 299.979 1121.59 299.979C1119.97 299.979 1118.62 299.979 1117.53 299.979C1116.45 299.979 1115.69 299.979 1115.26 299.979C1114.61 299.979 1113.42 298.86 1111.69 296.623C1109.99 294.349 1107.99 291.281 1105.68 287.42L1108.55 286.283C1110.57 289.603 1112.3 292.22 1113.74 294.132C1115.19 296.009 1116.52 297.345 1117.75 298.139C1118.98 298.933 1120.26 299.33 1121.59 299.33Z" fill="#8A8A88"/>
<path d="M1072.61 295.378C1072.61 296.46 1072.73 297.29 1072.98 297.868C1073.24 298.409 1073.74 298.788 1074.5 299.005C1075.29 299.221 1076.45 299.33 1077.96 299.33C1078.07 299.33 1078.13 299.438 1078.13 299.654C1078.13 299.871 1078.07 299.979 1077.96 299.979C1076.95 299.979 1075.87 299.961 1074.72 299.925C1073.56 299.889 1072.32 299.871 1070.98 299.871C1069.97 299.871 1068.96 299.889 1067.95 299.925C1066.94 299.961 1066.05 299.979 1065.3 299.979C1065.22 299.979 1065.19 299.871 1065.19 299.654C1065.19 299.438 1065.22 299.33 1065.3 299.33C1066.45 299.33 1067.32 299.239 1067.9 299.059C1068.47 298.878 1068.85 298.517 1069.03 297.976C1069.21 297.435 1069.3 296.641 1069.3 295.594V279.029C1069.3 277.982 1069.21 277.206 1069.03 276.701C1068.85 276.159 1068.47 275.799 1067.9 275.618C1067.32 275.402 1066.45 275.293 1065.3 275.293C1065.22 275.293 1065.19 275.185 1065.19 274.968C1065.19 274.752 1065.22 274.644 1065.3 274.644C1066.05 274.644 1066.92 274.68 1067.9 274.752C1068.91 274.788 1069.92 274.806 1070.93 274.806C1071.87 274.806 1072.93 274.752 1074.12 274.644C1075.31 274.535 1076.36 274.481 1077.26 274.481C1080 274.481 1082.17 274.986 1083.76 275.997C1085.38 277.008 1086.19 278.704 1086.19 281.086C1086.19 282.89 1085.72 284.37 1084.79 285.525C1083.88 286.68 1082.75 287.546 1081.38 288.123C1080 288.665 1078.65 288.935 1077.31 288.935C1076.88 288.935 1076.45 288.917 1076.02 288.881C1075.62 288.845 1075.26 288.791 1074.93 288.719C1074.79 288.683 1074.73 288.557 1074.77 288.34C1074.81 288.123 1074.91 288.015 1075.1 288.015C1075.35 288.051 1075.62 288.087 1075.91 288.123C1076.23 288.16 1076.52 288.178 1076.77 288.178C1078.25 288.178 1079.57 287.69 1080.73 286.716C1081.88 285.705 1082.46 284.19 1082.46 282.168C1082.46 279.823 1081.84 278.09 1080.62 276.971C1079.43 275.817 1077.87 275.239 1075.96 275.239C1075.17 275.239 1074.52 275.311 1074.01 275.456C1073.54 275.564 1073.18 275.889 1072.93 276.43C1072.71 276.971 1072.61 277.874 1072.61 279.137V295.378Z" fill="#8A8A88"/>
<path d="M1044.07 299.33C1044.14 299.33 1044.17 299.438 1044.17 299.654C1044.17 299.871 1044.14 299.979 1044.07 299.979C1043.27 299.979 1042.4 299.961 1041.47 299.925C1040.53 299.889 1039.48 299.871 1038.33 299.871C1037.32 299.871 1036.31 299.889 1035.3 299.925C1034.28 299.961 1033.4 299.979 1032.64 299.979C1032.57 299.979 1032.53 299.871 1032.53 299.654C1032.53 299.438 1032.57 299.33 1032.64 299.33C1033.8 299.33 1034.66 299.239 1035.24 299.059C1035.82 298.878 1036.22 298.517 1036.43 297.976C1036.65 297.435 1036.76 296.641 1036.76 295.594V279.029C1036.76 277.477 1036.5 276.466 1036 275.997C1035.53 275.528 1034.43 275.293 1032.7 275.293C1032.62 275.293 1032.59 275.185 1032.59 274.968C1032.59 274.752 1032.62 274.644 1032.7 274.644C1033.45 274.644 1034.32 274.68 1035.3 274.752C1036.31 274.788 1037.32 274.806 1038.33 274.806C1039.3 274.806 1040.38 274.752 1041.57 274.644C1042.77 274.535 1043.83 274.481 1044.77 274.481C1047.11 274.481 1048.9 274.932 1050.13 275.835C1051.36 276.737 1051.97 278.036 1051.97 279.732C1051.97 281.248 1051.52 282.638 1050.62 283.901C1049.75 285.128 1048.58 286.12 1047.1 286.878C1045.65 287.6 1043.99 287.961 1042.12 287.961C1041.65 287.961 1041.14 287.943 1040.6 287.907C1040.1 287.871 1039.61 287.817 1039.14 287.744L1039.08 286.662C1039.59 286.806 1040.08 286.914 1040.55 286.987C1041.05 287.023 1041.7 287.041 1042.5 287.041C1044.88 287.041 1046.47 286.517 1047.26 285.471C1048.09 284.388 1048.5 282.962 1048.5 281.194C1048.5 277.224 1046.79 275.239 1043.36 275.239C1041.88 275.239 1040.96 275.564 1040.6 276.214C1040.24 276.863 1040.06 277.838 1040.06 279.137V295.594C1040.06 296.641 1040.15 297.435 1040.33 297.976C1040.51 298.517 1040.89 298.878 1041.47 299.059C1042.04 299.239 1042.91 299.33 1044.07 299.33ZM1060.14 299.33C1060.22 299.33 1060.25 299.438 1060.25 299.654C1060.25 299.871 1060.22 299.979 1060.14 299.979C1058.52 299.979 1057.17 299.979 1056.08 299.979C1055 299.979 1054.24 299.979 1053.81 299.979C1053.16 299.979 1051.97 298.86 1050.24 296.623C1048.54 294.349 1046.54 291.281 1044.23 287.42L1047.1 286.283C1049.12 289.603 1050.85 292.22 1052.29 294.132C1053.74 296.009 1055.07 297.345 1056.3 298.139C1057.53 298.933 1058.81 299.33 1060.14 299.33Z" fill="#8A8A88"/>
<path d="M1003.74 299.979C1003.67 299.979 1003.63 299.871 1003.63 299.655C1003.63 299.438 1003.67 299.33 1003.74 299.33C1004.9 299.33 1005.76 299.239 1006.34 299.059C1006.92 298.879 1007.3 298.518 1007.48 297.976C1007.66 297.435 1007.75 296.641 1007.75 295.594V279.029C1007.75 277.982 1007.66 277.206 1007.48 276.701C1007.3 276.16 1006.92 275.799 1006.34 275.618C1005.76 275.402 1004.9 275.293 1003.74 275.293C1003.67 275.293 1003.63 275.185 1003.63 274.969C1003.63 274.752 1003.67 274.644 1003.74 274.644H1022.58C1022.94 274.644 1023.12 274.788 1023.12 275.077C1023.12 275.979 1023.14 277.026 1023.18 278.217C1023.21 279.408 1023.23 280.346 1023.23 281.032C1023.23 281.14 1023.12 281.194 1022.91 281.194C1022.69 281.194 1022.58 281.14 1022.58 281.032C1022.44 279.372 1021.84 278.018 1020.79 276.972C1019.75 275.889 1018.43 275.348 1016.84 275.348H1015.33C1014.14 275.348 1013.23 275.456 1012.62 275.672C1012.01 275.853 1011.59 276.214 1011.38 276.755C1011.16 277.26 1011.05 278.036 1011.05 279.083V295.378C1011.05 296.388 1011.16 297.164 1011.38 297.706C1011.59 298.247 1012.01 298.626 1012.62 298.842C1013.23 299.023 1014.14 299.113 1015.33 299.113H1017.93C1018.94 299.113 1019.86 298.842 1020.69 298.301C1021.55 297.76 1022.27 297.02 1022.85 296.082C1023.47 295.107 1023.9 294.006 1024.15 292.779C1024.15 292.671 1024.24 292.617 1024.42 292.617C1024.64 292.617 1024.75 292.671 1024.75 292.779C1024.67 293.609 1024.58 294.62 1024.48 295.811C1024.4 297.002 1024.37 298.121 1024.37 299.167C1024.37 299.709 1024.1 299.979 1023.56 299.979H1003.74ZM1020.42 288.34C1020.24 288.34 1019.8 288.286 1019.12 288.178C1018.43 288.033 1017.35 287.907 1015.87 287.799C1014.39 287.691 1012.33 287.636 1009.7 287.636V286.5C1012.33 286.5 1014.39 286.463 1015.87 286.391C1017.35 286.283 1018.43 286.193 1019.12 286.121C1019.8 286.012 1020.24 285.958 1020.42 285.958C1020.52 285.958 1020.6 286.084 1020.63 286.337C1020.67 286.554 1020.69 286.806 1020.69 287.095C1020.69 287.42 1020.67 287.709 1020.63 287.961C1020.6 288.214 1020.52 288.34 1020.42 288.34Z" fill="#8A8A88"/>
<path d="M979.32 275.347C977.948 275.347 976.866 275.546 976.072 275.943C975.278 276.304 974.664 276.953 974.231 277.892C973.798 278.794 973.437 280.057 973.148 281.681C973.148 281.753 973.04 281.79 972.823 281.79C972.643 281.79 972.553 281.753 972.553 281.681C972.625 281.176 972.697 280.4 972.769 279.353C972.878 278.307 972.968 277.224 973.04 276.105C973.112 274.987 973.148 274.102 973.148 273.453C973.148 273.272 973.256 273.182 973.473 273.182C973.69 273.182 973.798 273.272 973.798 273.453C973.798 273.994 974.141 274.319 974.826 274.427C975.548 274.499 976.144 274.535 976.613 274.535C977.804 274.571 979.085 274.608 980.457 274.644C981.864 274.644 983.308 274.644 984.787 274.644C986.484 274.644 987.891 274.626 989.01 274.59C990.129 274.553 991.139 274.535 992.042 274.535C993.233 274.535 994.153 274.463 994.803 274.319C995.488 274.174 995.921 273.814 996.102 273.236C996.174 273.128 996.3 273.074 996.481 273.074C996.661 273.074 996.751 273.128 996.751 273.236C996.715 273.705 996.679 274.355 996.643 275.185C996.607 275.979 996.571 276.809 996.535 277.675C996.499 278.541 996.463 279.335 996.427 280.057C996.427 280.779 996.427 281.32 996.427 281.681C996.427 281.753 996.318 281.79 996.102 281.79C995.921 281.79 995.831 281.753 995.831 281.681C995.795 280.057 995.597 278.794 995.236 277.892C994.875 276.953 994.297 276.304 993.503 275.943C992.745 275.546 991.663 275.347 990.255 275.347C988.667 275.347 987.621 275.6 987.115 276.105C986.61 276.575 986.357 277.549 986.357 279.029V295.594C986.357 296.641 986.466 297.435 986.682 297.976C986.899 298.518 987.332 298.878 987.981 299.059C988.667 299.239 989.678 299.33 991.013 299.33C991.121 299.33 991.175 299.438 991.175 299.654C991.175 299.871 991.121 299.979 991.013 299.979C990.147 299.979 989.172 299.961 988.09 299.925C987.043 299.889 985.888 299.871 984.625 299.871C983.47 299.871 982.333 299.889 981.214 299.925C980.132 299.961 979.157 299.979 978.291 299.979C978.219 299.979 978.183 299.871 978.183 299.654C978.183 299.438 978.219 299.33 978.291 299.33C979.626 299.33 980.619 299.239 981.269 299.059C981.954 298.878 982.405 298.518 982.622 297.976C982.875 297.435 983.001 296.641 983.001 295.594V278.92C983.001 277.91 982.911 277.152 982.73 276.647C982.586 276.141 982.261 275.799 981.756 275.618C981.251 275.438 980.439 275.347 979.32 275.347Z" fill="#8A8A88"/>
<path d="M941.842 294.079V275.835L942.924 275.997V294.079C942.924 295.991 943.195 297.345 943.737 298.139C944.278 298.933 945.216 299.33 946.552 299.33C946.624 299.33 946.66 299.438 946.66 299.655C946.66 299.871 946.624 299.979 946.552 299.979C945.938 299.979 945.288 299.961 944.603 299.925C943.953 299.889 943.231 299.871 942.437 299.871C941.679 299.871 940.939 299.889 940.218 299.925C939.496 299.961 938.81 299.979 938.161 299.979C938.088 299.979 938.052 299.871 938.052 299.655C938.052 299.438 938.088 299.33 938.161 299.33C939.532 299.33 940.488 298.933 941.03 298.139C941.571 297.345 941.842 295.991 941.842 294.079ZM962.034 300.575C962.034 300.647 961.944 300.683 961.764 300.683C961.583 300.719 961.457 300.719 961.385 300.683L943.628 279.083C942.437 277.639 941.427 276.647 940.597 276.105C939.767 275.564 938.955 275.293 938.161 275.293C938.088 275.293 938.052 275.185 938.052 274.969C938.052 274.752 938.088 274.644 938.161 274.644C938.666 274.644 939.189 274.662 939.73 274.698C940.272 274.698 940.759 274.698 941.192 274.698C941.553 274.698 941.86 274.698 942.112 274.698C942.401 274.662 942.69 274.644 942.979 274.644C943.303 274.644 943.664 274.644 944.061 274.644C944.531 274.644 944.873 274.86 945.09 275.293C945.306 275.727 945.812 276.448 946.606 277.459L961.493 295.811L962.034 300.575ZM962.034 280.545V300.575L960.952 298.897V280.545C960.952 278.632 960.681 277.278 960.14 276.484C959.634 275.69 958.714 275.293 957.379 275.293C957.27 275.293 957.216 275.185 957.216 274.969C957.216 274.752 957.27 274.644 957.379 274.644C957.992 274.644 958.624 274.68 959.274 274.752C959.959 274.788 960.699 274.806 961.493 274.806C962.251 274.806 963.009 274.788 963.767 274.752C964.525 274.68 965.192 274.644 965.77 274.644C965.878 274.644 965.932 274.752 965.932 274.969C965.932 275.185 965.878 275.293 965.77 275.293C964.434 275.293 963.478 275.69 962.901 276.484C962.323 277.278 962.034 278.632 962.034 280.545Z" fill="#8A8A88"/>
<path d="M909.529 299.979C909.457 299.979 909.421 299.871 909.421 299.655C909.421 299.438 909.457 299.33 909.529 299.33C910.684 299.33 911.55 299.239 912.128 299.059C912.705 298.879 913.084 298.518 913.265 297.976C913.445 297.435 913.535 296.641 913.535 295.594V279.029C913.535 277.982 913.445 277.206 913.265 276.701C913.084 276.16 912.705 275.799 912.128 275.618C911.55 275.402 910.684 275.293 909.529 275.293C909.457 275.293 909.421 275.185 909.421 274.969C909.421 274.752 909.457 274.644 909.529 274.644H928.368C928.729 274.644 928.91 274.788 928.91 275.077C928.91 275.979 928.928 277.026 928.964 278.217C929 279.408 929.018 280.346 929.018 281.032C929.018 281.14 928.91 281.194 928.693 281.194C928.477 281.194 928.368 281.14 928.368 281.032C928.224 279.372 927.629 278.018 926.582 276.972C925.535 275.889 924.218 275.348 922.63 275.348H921.114C919.923 275.348 919.021 275.456 918.407 275.672C917.794 275.853 917.379 276.214 917.162 276.755C916.946 277.26 916.838 278.036 916.838 279.083V295.378C916.838 296.388 916.946 297.164 917.162 297.706C917.379 298.247 917.794 298.626 918.407 298.842C919.021 299.023 919.923 299.113 921.114 299.113H923.713C924.723 299.113 925.644 298.842 926.474 298.301C927.34 297.76 928.062 297.02 928.639 296.082C929.253 295.107 929.686 294.006 929.938 292.779C929.938 292.671 930.029 292.617 930.209 292.617C930.426 292.617 930.534 292.671 930.534 292.779C930.462 293.609 930.371 294.62 930.263 295.811C930.191 297.002 930.155 298.121 930.155 299.167C930.155 299.709 929.884 299.979 929.343 299.979H909.529ZM926.203 288.34C926.023 288.34 925.589 288.286 924.904 288.178C924.218 288.033 923.135 287.907 921.656 287.799C920.176 287.691 918.119 287.636 915.484 287.636V286.5C918.119 286.5 920.176 286.463 921.656 286.391C923.135 286.283 924.218 286.193 924.904 286.121C925.589 286.012 926.023 285.958 926.203 285.958C926.311 285.958 926.383 286.084 926.42 286.337C926.456 286.554 926.474 286.806 926.474 287.095C926.474 287.42 926.456 287.709 926.42 287.961C926.383 288.214 926.311 288.34 926.203 288.34Z" fill="#8A8A88"/>
<path d="M871.011 300.629C868.413 300.629 866.139 300.033 864.19 298.842C862.241 297.615 860.725 296.009 859.643 294.024C858.596 292.003 858.073 289.82 858.073 287.474C858.073 285.272 858.506 283.341 859.372 281.681C860.238 279.985 861.393 278.577 862.837 277.459C864.316 276.304 865.922 275.438 867.655 274.86C869.387 274.283 871.083 273.994 872.744 273.994C874.729 273.994 876.497 274.373 878.049 275.131C879.601 275.853 880.918 276.827 882.001 278.054C883.12 279.281 883.968 280.671 884.545 282.223C885.123 283.738 885.411 285.308 885.411 286.932C885.411 288.773 885.032 290.523 884.274 292.184C883.517 293.844 882.47 295.305 881.135 296.569C879.835 297.832 878.32 298.824 876.587 299.546C874.855 300.268 872.996 300.629 871.011 300.629ZM872.419 299.492C875.198 299.492 877.435 298.517 879.132 296.569C880.828 294.584 881.676 291.823 881.676 288.286C881.676 285.904 881.261 283.72 880.431 281.735C879.601 279.75 878.392 278.162 876.804 276.971C875.216 275.744 873.249 275.131 870.903 275.131C868.016 275.131 865.778 276.105 864.19 278.054C862.602 280.003 861.808 282.692 861.808 286.12C861.808 288.574 862.223 290.812 863.053 292.833C863.919 294.854 865.146 296.478 866.734 297.705C868.322 298.896 870.217 299.492 872.419 299.492Z" fill="#8A8A88"/>
<path d="M826.262 299.979C826.189 299.979 826.153 299.871 826.153 299.655C826.153 299.438 826.189 299.33 826.262 299.33C827.453 299.33 828.337 299.239 828.914 299.059C829.492 298.879 829.871 298.518 830.051 297.976C830.268 297.435 830.376 296.641 830.376 295.594V279.029C830.376 277.477 830.123 276.466 829.618 275.997C829.149 275.528 828.048 275.293 826.316 275.293C826.244 275.293 826.207 275.185 826.207 274.969C826.207 274.752 826.244 274.644 826.316 274.644C827.074 274.644 827.94 274.68 828.914 274.752C829.925 274.788 830.935 274.806 831.946 274.806C833.065 274.806 834.111 274.788 835.086 274.752C836.06 274.68 836.926 274.644 837.684 274.644C837.756 274.644 837.793 274.752 837.793 274.969C837.793 275.185 837.756 275.293 837.684 275.293C835.952 275.293 834.833 275.546 834.328 276.051C833.859 276.557 833.624 277.585 833.624 279.137V295.594C833.624 296.641 833.714 297.435 833.895 297.976C834.111 298.518 834.508 298.879 835.086 299.059C835.663 299.239 836.529 299.33 837.684 299.33C837.756 299.33 837.793 299.438 837.793 299.655C837.793 299.871 837.756 299.979 837.684 299.979C836.89 299.979 836.006 299.961 835.032 299.925C834.093 299.889 833.065 299.871 831.946 299.871C830.935 299.871 829.925 299.889 828.914 299.925C827.904 299.961 827.02 299.979 826.262 299.979ZM847.591 299.979C846.905 299.979 846.4 299.979 846.075 299.979C845.787 299.943 845.534 299.835 845.317 299.655C845.137 299.438 844.884 299.059 844.56 298.518C844.271 297.976 843.784 297.2 843.098 296.19C842.412 295.143 841.402 293.79 840.066 292.13L835.519 286.337L837.901 284.226L841.853 289.26C843.657 291.534 845.101 293.357 846.184 294.728C847.266 296.064 848.169 297.074 848.89 297.76C849.612 298.409 850.298 298.842 850.948 299.059C851.597 299.239 852.373 299.33 853.275 299.33C853.384 299.33 853.438 299.438 853.438 299.655C853.438 299.871 853.384 299.979 853.275 299.979C851.94 299.979 850.785 299.979 849.811 299.979C848.872 299.979 848.132 299.979 847.591 299.979ZM831.35 289.856L842.232 278.921C843.603 277.549 844.325 276.611 844.397 276.105C844.469 275.564 843.621 275.293 841.853 275.293C841.744 275.293 841.69 275.185 841.69 274.969C841.69 274.752 841.744 274.644 841.853 274.644C842.43 274.644 842.935 274.662 843.369 274.698C843.838 274.698 844.379 274.716 844.993 274.752C845.642 274.788 846.454 274.806 847.429 274.806C848.8 274.806 849.847 274.788 850.569 274.752C851.326 274.68 851.922 274.644 852.355 274.644C852.463 274.644 852.517 274.752 852.517 274.969C852.517 275.185 852.463 275.293 852.355 275.293C851.669 275.293 850.821 275.438 849.811 275.727C848.8 275.979 847.735 276.394 846.617 276.972C845.498 277.549 844.415 278.343 843.369 279.354L832.65 289.856H831.35Z" fill="#8A8A88"/>
<path d="M787.471 273.994C788.157 273.994 788.897 274.102 789.691 274.319C790.485 274.535 791.152 274.95 791.694 275.564C792.271 276.177 792.56 277.08 792.56 278.271C792.56 279.462 792.271 280.508 791.694 281.41C791.116 282.277 790.376 283.071 789.474 283.792C788.572 284.478 787.597 285.146 786.551 285.795C785.54 286.445 784.584 287.131 783.682 287.853C782.779 288.574 782.039 289.387 781.462 290.289C780.885 291.155 780.596 292.184 780.596 293.375C780.596 295.107 781.209 296.514 782.436 297.597C783.664 298.644 785.215 299.167 787.092 299.167C788.5 299.167 789.781 298.896 790.936 298.355C792.091 297.778 793.101 297.038 793.967 296.135C794.834 295.197 795.483 294.168 795.916 293.05C796.385 291.895 796.62 290.722 796.62 289.531C796.62 288.593 796.404 287.799 795.97 287.149C795.537 286.499 794.671 286.174 793.372 286.174C793.264 286.174 793.191 286.066 793.155 285.85C793.155 285.633 793.228 285.525 793.372 285.525L802.683 285.471C802.828 285.471 802.9 285.579 802.9 285.795C802.9 286.012 802.828 286.12 802.683 286.12C801.709 286.12 800.987 286.247 800.518 286.499C800.085 286.716 799.778 287.041 799.598 287.474C799.417 287.907 799.219 288.448 799.002 289.098C798.677 290.144 798.19 291.335 797.54 292.671C796.891 293.97 796.025 295.233 794.942 296.46C793.859 297.651 792.506 298.644 790.882 299.438C789.294 300.232 787.363 300.629 785.089 300.629C782.346 300.629 780.379 300.051 779.188 298.896C777.997 297.741 777.402 296.442 777.402 294.999C777.402 293.627 777.817 292.418 778.647 291.371C779.477 290.325 780.506 289.368 781.733 288.502C782.96 287.636 784.187 286.752 785.414 285.85C786.641 284.947 787.67 283.973 788.5 282.926C789.33 281.844 789.745 280.58 789.745 279.137C789.745 277.874 789.402 276.881 788.716 276.159C788.031 275.401 787.128 275.022 786.009 275.022C785.107 275.022 784.385 275.311 783.844 275.889C783.303 276.466 783.032 277.386 783.032 278.65C783.032 279.949 783.429 281.429 784.223 283.089C785.053 284.749 786.19 286.463 787.634 288.232C789.113 289.964 790.809 291.642 792.722 293.266C795.104 295.287 797.324 296.803 799.381 297.814C801.438 298.788 802.954 299.293 803.928 299.329C804.037 299.329 804.091 299.438 804.091 299.654C804.091 299.871 804.037 299.979 803.928 299.979C803.134 299.979 802.232 299.979 801.222 299.979C800.247 299.979 799.291 299.979 798.352 299.979C797.595 299.979 796.476 299.564 794.996 298.734C793.516 297.868 791.802 296.55 789.853 294.782C788.879 293.916 787.796 292.905 786.605 291.75C785.45 290.559 784.367 289.332 783.357 288.069C782.382 286.806 781.624 285.597 781.083 284.442C780.722 283.612 780.47 282.872 780.325 282.223C780.181 281.573 780.109 281.014 780.109 280.544C780.109 279.209 780.452 278.054 781.137 277.08C781.859 276.105 782.779 275.347 783.898 274.806C785.053 274.265 786.244 273.994 787.471 273.994Z" fill="#8A8A88"/>
<path d="M731.699 299.979C731.627 299.979 731.591 299.871 731.591 299.655C731.591 299.438 731.627 299.33 731.699 299.33C732.854 299.33 733.72 299.239 734.298 299.059C734.875 298.879 735.254 298.518 735.434 297.976C735.615 297.435 735.705 296.641 735.705 295.594V279.029C735.705 277.982 735.615 277.206 735.434 276.701C735.254 276.16 734.875 275.799 734.298 275.618C733.72 275.402 732.854 275.293 731.699 275.293C731.627 275.293 731.591 275.185 731.591 274.969C731.591 274.752 731.627 274.644 731.699 274.644H750.538C750.899 274.644 751.08 274.788 751.08 275.077C751.08 275.979 751.098 277.026 751.134 278.217C751.17 279.408 751.188 280.346 751.188 281.032C751.188 281.14 751.08 281.194 750.863 281.194C750.647 281.194 750.538 281.14 750.538 281.032C750.394 279.372 749.798 278.018 748.752 276.972C747.705 275.889 746.388 275.348 744.8 275.348H743.284C742.093 275.348 741.191 275.456 740.577 275.672C739.964 275.853 739.549 276.214 739.332 276.755C739.116 277.26 739.007 278.036 739.007 279.083V295.378C739.007 296.388 739.116 297.164 739.332 297.706C739.549 298.247 739.964 298.626 740.577 298.842C741.191 299.023 742.093 299.113 743.284 299.113H745.883C746.893 299.113 747.814 298.842 748.644 298.301C749.51 297.76 750.232 297.02 750.809 296.082C751.423 295.107 751.856 294.006 752.108 292.779C752.108 292.671 752.199 292.617 752.379 292.617C752.596 292.617 752.704 292.671 752.704 292.779C752.632 293.609 752.541 294.62 752.433 295.811C752.361 297.002 752.325 298.121 752.325 299.167C752.325 299.709 752.054 299.979 751.513 299.979H731.699ZM748.373 288.34C748.192 288.34 747.759 288.286 747.074 288.178C746.388 288.033 745.305 287.907 743.826 287.799C742.346 287.691 740.289 287.636 737.654 287.636V286.5C740.289 286.5 742.346 286.463 743.826 286.391C745.305 286.283 746.388 286.193 747.074 286.121C747.759 286.012 748.192 285.958 748.373 285.958C748.481 285.958 748.553 286.084 748.589 286.337C748.626 286.554 748.644 286.806 748.644 287.095C748.644 287.42 748.626 287.709 748.589 287.961C748.553 288.214 748.481 288.34 748.373 288.34Z" fill="#8A8A88"/>
<path d="M702.796 299.979C702.724 299.979 702.688 299.871 702.688 299.655C702.688 299.438 702.724 299.33 702.796 299.33C703.951 299.33 704.817 299.239 705.395 299.059C705.972 298.879 706.351 298.518 706.532 297.976C706.712 297.435 706.802 296.641 706.802 295.594V279.029C706.802 277.982 706.712 277.206 706.532 276.701C706.351 276.16 705.972 275.799 705.395 275.618C704.817 275.402 703.951 275.293 702.796 275.293C702.724 275.293 702.688 275.185 702.688 274.969C702.688 274.752 702.724 274.644 702.796 274.644H721.636C721.996 274.644 722.177 274.788 722.177 275.077C722.177 275.979 722.195 277.026 722.231 278.217C722.267 279.408 722.285 280.346 722.285 281.032C722.285 281.14 722.177 281.194 721.96 281.194C721.744 281.194 721.636 281.14 721.636 281.032C721.491 279.372 720.896 278.018 719.849 276.972C718.802 275.889 717.485 275.348 715.897 275.348H714.381C713.19 275.348 712.288 275.456 711.675 275.672C711.061 275.853 710.646 276.214 710.429 276.755C710.213 277.26 710.105 278.036 710.105 279.083V295.378C710.105 296.388 710.213 297.164 710.429 297.706C710.646 298.247 711.061 298.626 711.675 298.842C712.288 299.023 713.19 299.113 714.381 299.113H716.98C717.99 299.113 718.911 298.842 719.741 298.301C720.607 297.76 721.329 297.02 721.906 296.082C722.52 295.107 722.953 294.006 723.205 292.779C723.205 292.671 723.296 292.617 723.476 292.617C723.693 292.617 723.801 292.671 723.801 292.779C723.729 293.609 723.639 294.62 723.53 295.811C723.458 297.002 723.422 298.121 723.422 299.167C723.422 299.709 723.151 299.979 722.61 299.979H702.796ZM719.47 288.34C719.29 288.34 718.857 288.286 718.171 288.178C717.485 288.033 716.402 287.907 714.923 287.799C713.443 287.691 711.386 287.636 708.751 287.636V286.5C711.386 286.5 713.443 286.463 714.923 286.391C716.402 286.283 717.485 286.193 718.171 286.121C718.857 286.012 719.29 285.958 719.47 285.958C719.578 285.958 719.651 286.084 719.687 286.337C719.723 286.554 719.741 286.806 719.741 287.095C719.741 287.42 719.723 287.709 719.687 287.961C719.651 288.214 719.578 288.34 719.47 288.34Z" fill="#8A8A88"/>
<path d="M681.257 279.083V295.378C681.257 296.858 681.492 297.85 681.961 298.355C682.466 298.861 683.549 299.113 685.209 299.113H688.836C690.785 299.113 692.319 298.5 693.437 297.273C694.556 296.009 695.296 294.385 695.657 292.4C695.657 292.328 695.765 292.31 695.982 292.346C696.198 292.346 696.307 292.4 696.307 292.509C696.162 293.375 696.054 294.439 695.982 295.703C695.946 296.93 695.928 298.085 695.928 299.167C695.928 299.709 695.657 299.979 695.116 299.979H673.949C673.876 299.979 673.84 299.871 673.84 299.655C673.84 299.438 673.876 299.33 673.949 299.33C675.067 299.33 675.916 299.239 676.493 299.059C677.07 298.879 677.449 298.518 677.63 297.976C677.81 297.435 677.901 296.641 677.901 295.594V279.029C677.901 277.982 677.81 277.206 677.63 276.701C677.449 276.16 677.07 275.799 676.493 275.618C675.916 275.402 675.067 275.293 673.949 275.293C673.876 275.293 673.84 275.185 673.84 274.969C673.84 274.752 673.876 274.644 673.949 274.644C674.707 274.644 675.573 274.68 676.547 274.752C677.558 274.788 678.568 274.806 679.579 274.806C680.698 274.806 681.744 274.788 682.719 274.752C683.693 274.68 684.541 274.644 685.263 274.644C685.371 274.644 685.425 274.752 685.425 274.969C685.425 275.185 685.371 275.293 685.263 275.293C684.108 275.293 683.242 275.402 682.664 275.618C682.123 275.799 681.744 276.16 681.528 276.701C681.347 277.242 681.257 278.036 681.257 279.083Z" fill="#8A8A88"/>
<circle cx="185" cy="185" r="164.641" stroke="#C9A84C" stroke-width="0.5"/>
<path d="M369.26 192.77C369.26 168.41 361.073 144.67 343.645 127.445C326.217 110.22 302.579 100.543 277.932 100.543C253.285 100.543 229.647 110.22 212.219 127.445C194.791 144.67 185 182.989 185 192.392C185 205.109 175.209 240.113 157.781 257.338C140.353 274.563 116.715 284.24 92.0677 284.24C67.4205 284.24 43.7828 274.563 26.3546 257.338C12.5798 242.35 1.47976 228.29 1.10976 201.65C5.1315 254.584 34.1846 299.62 70.3802 329.783C111.74 360.01 139.49 367.619 185.74 369.63C235.034 369.63 274.54 353.35 316.35 315.24C351.5 274.54 365.19 245.68 369.26 192.77Z" fill="#C9A84C" fill-opacity="0.2"/>
<circle cx="185" cy="185" r="184.5" stroke="#C9A84C"/>
<path d="M110.299 140.503V228.917C110.299 232.006 110.601 234.387 111.205 236.06C111.81 237.604 113.018 238.634 114.831 239.149C116.796 239.663 119.591 239.921 123.217 239.921H130.923C142.709 239.921 152.907 237.218 161.52 231.813C170.132 226.408 175.874 219.201 178.745 210.192C178.896 209.806 179.349 209.677 180.105 209.806C180.86 209.935 181.238 210.192 181.238 210.578C180.785 214.825 180.331 219.973 179.878 226.022C179.425 231.942 179.198 237.411 179.198 242.43C179.198 244.361 178.065 245.326 175.798 245.326H68.8229C68.5207 245.326 68.3696 244.94 68.3696 244.168C68.3696 243.396 68.5207 243.009 68.8229 243.009C73.5069 243.009 76.9821 242.688 79.2485 242.044C81.5149 241.401 83.0259 240.114 83.7813 238.183C84.6879 236.253 85.1412 233.422 85.1412 229.689V140.31C85.1412 136.578 84.6879 133.811 83.7813 132.009C83.0259 130.079 81.5149 128.792 79.2485 128.149C76.9821 127.376 73.5069 126.99 68.8229 126.99C68.5207 126.99 68.3696 126.604 68.3696 125.832C68.3696 125.06 68.5207 124.674 68.8229 124.674C72.4492 124.674 76.7554 124.803 81.7416 125.06C86.8788 125.189 92.1671 125.253 97.6066 125.253C103.348 125.253 108.637 125.189 113.472 125.06C118.307 124.803 122.613 124.674 126.39 124.674C126.844 124.674 127.07 125.06 127.07 125.832C127.07 126.604 126.844 126.99 126.39 126.99C121.857 126.99 118.382 127.376 115.965 128.149C113.698 128.792 112.187 130.079 111.432 132.009C110.676 133.94 110.299 136.771 110.299 140.503Z" fill="#252422"/>
<path d="M200.306 226.646V142.996C200.306 139.503 200.005 136.913 199.403 135.227C198.8 133.421 197.536 132.216 195.609 131.614C193.802 130.891 191.092 130.53 187.479 130.53C187.117 130.53 186.937 130.168 186.937 129.446C186.937 128.723 187.117 128.362 187.479 128.362C190.61 128.362 194.103 128.482 197.957 128.723C201.812 128.844 205.907 128.904 210.243 128.904C214.82 128.904 219.035 128.844 222.89 128.723C226.744 128.482 230.177 128.362 233.188 128.362C233.549 128.362 233.73 128.723 233.73 129.446C233.73 130.168 233.549 130.53 233.188 130.53C229.574 130.53 226.864 130.891 225.058 131.614C223.251 132.337 221.986 133.601 221.264 135.408C220.661 137.215 220.36 139.864 220.36 143.357V226.646C220.36 230.138 220.661 232.788 221.264 234.595C221.866 236.402 223.07 237.606 224.877 238.208C226.684 238.811 229.454 239.112 233.188 239.112C233.669 239.112 233.91 239.473 233.91 240.196C233.91 240.918 233.669 241.28 233.188 241.28C230.056 241.28 226.563 241.219 222.709 241.099C218.975 240.979 214.82 240.918 210.243 240.918C205.907 240.918 201.751 240.979 197.777 241.099C193.802 241.219 190.249 241.28 187.117 241.28C186.876 241.28 186.756 240.918 186.756 240.196C186.756 239.473 186.876 239.112 187.117 239.112C190.851 239.112 193.621 238.811 195.428 238.208C197.355 237.606 198.62 236.402 199.222 234.595C199.945 232.788 200.306 230.138 200.306 226.646ZM248.003 215.083L223.251 181.659L237.704 167.748L265.347 204.965C270.044 211.59 274.019 217.07 277.271 221.406C280.523 225.622 283.233 228.994 285.401 231.524C287.689 233.933 289.677 235.679 291.363 236.763C293.049 237.847 294.675 238.509 296.241 238.75C297.927 238.991 299.734 239.112 301.661 239.112C302.022 239.112 302.203 239.473 302.203 240.196C302.203 240.918 302.022 241.28 301.661 241.28C296.361 241.28 292.086 241.28 288.834 241.28C285.582 241.28 283.112 241.28 281.426 241.28C279.62 241.28 278.054 241.34 276.729 241.46C275.404 241.581 274.26 241.641 273.296 241.641C271.73 241.641 270.345 241.34 269.141 240.738C267.936 240.135 266.491 238.931 264.805 237.124C263.239 235.318 261.131 232.668 258.481 229.175C255.831 225.682 252.339 220.985 248.003 215.083ZM207.713 194.667L254.326 146.971C258.782 142.514 260.408 138.66 259.204 135.408C258.12 132.156 254.567 130.53 248.545 130.53C248.183 130.53 248.003 130.168 248.003 129.446C248.003 128.723 248.183 128.362 248.545 128.362C251.797 128.362 255.109 128.482 258.481 128.723C261.854 128.844 266.31 128.904 271.851 128.904C277.632 128.904 282.209 128.844 285.582 128.723C288.954 128.482 292.206 128.362 295.338 128.362C295.699 128.362 295.88 128.723 295.88 129.446C295.88 130.168 295.699 130.53 295.338 130.53C289.797 130.53 283.715 132.156 277.09 135.408C270.466 138.539 264.443 142.755 259.023 148.055L212.591 195.209L207.713 194.667Z" fill="white"/>
<path d="M183.07 240.195C183.07 239.726 183.098 238.972 183.351 238.215C183.572 237.551 184.55 235.425 187.117 235.424L188.42 235.41C191.313 235.345 193.195 235.068 194.264 234.711L194.329 234.69C195.205 234.416 195.525 234.034 195.726 233.429L195.759 233.325L195.798 233.224C196.259 232.071 196.619 229.981 196.619 226.646V142.994C196.619 140.027 196.386 138.074 196.072 136.916L195.932 136.466L195.917 136.43L195.906 136.394C195.73 135.864 195.462 135.506 194.812 135.242L194.509 135.134L194.372 135.091L194.239 135.037C193.239 134.637 191.474 134.309 188.719 134.234L187.481 134.216C186.745 134.216 185.937 134.02 185.198 133.528C184.482 133.051 184.039 132.435 183.776 131.908C183.3 130.956 183.25 129.994 183.25 129.445C183.25 128.895 183.3 127.933 183.776 126.982C184.039 126.454 184.483 125.838 185.198 125.362C185.937 124.869 186.745 124.674 187.481 124.674C190.695 124.674 194.256 124.794 198.157 125.037C201.944 125.155 205.973 125.218 210.244 125.218V128.905L203.921 128.858C201.874 128.828 199.886 128.781 197.959 128.721C195.068 128.54 192.381 128.428 189.897 128.383L187.481 128.361C187.119 128.361 186.937 128.722 186.937 129.445C186.937 130.167 187.119 130.529 187.481 130.529C191.093 130.529 193.805 130.89 195.611 131.612C197.537 132.215 198.8 133.421 199.403 135.227C200.005 136.914 200.306 139.502 200.306 142.994V226.646L200.288 227.917C200.209 230.787 199.854 233.012 199.223 234.592C198.62 236.399 197.355 237.605 195.427 238.207C193.621 238.809 190.85 239.111 187.117 239.111L187.034 239.129C186.85 239.208 186.757 239.562 186.757 240.195L186.779 240.67C186.824 241.075 186.937 241.278 187.117 241.279C190.249 241.279 193.804 241.219 197.779 241.099C201.753 240.978 205.909 240.919 210.244 240.919L216.794 240.962C218.871 240.992 220.843 241.039 222.71 241.099C226.564 241.219 230.057 241.279 233.188 241.279C233.549 241.279 233.774 241.076 233.865 240.67L233.912 240.195C233.912 239.562 233.726 239.208 233.357 239.129L233.188 239.111C229.454 239.111 226.684 238.81 224.878 238.207C223.297 237.681 222.177 236.693 221.518 235.244L221.266 234.592C220.739 233.012 220.443 230.787 220.377 227.917L220.362 226.646V187.315L224.399 183.21L248.005 215.08C252.341 220.982 255.833 225.68 258.483 229.173C261.133 232.666 263.24 235.317 264.806 237.124C266.491 238.93 267.937 240.133 269.141 240.735C270.345 241.337 271.731 241.639 273.296 241.639C273.778 241.639 274.305 241.626 274.877 241.596L276.731 241.459C278.056 241.339 279.621 241.279 281.426 241.279H301.662L301.788 241.261C301.986 241.204 302.114 241.008 302.17 240.67L302.202 240.195C302.202 239.563 302.065 239.208 301.788 239.129L301.662 239.111C299.736 239.111 297.929 238.992 296.243 238.751C294.874 238.54 293.456 238.005 291.995 237.149L291.364 236.764C289.678 235.68 287.69 233.93 285.402 231.521C283.234 228.992 280.523 225.621 277.271 221.407C274.019 217.071 270.043 211.59 265.346 204.966L238.531 168.858L259.023 148.053C264.104 143.085 269.716 139.068 275.856 136.005L277.091 135.408C283.301 132.359 289.034 130.737 294.292 130.547L295.34 130.529C295.7 130.528 295.88 130.167 295.88 129.445C295.88 128.813 295.742 128.458 295.466 128.379L295.34 128.361C292.208 128.361 288.954 128.48 285.582 128.721C282.209 128.841 277.633 128.905 271.852 128.905V125.218C277.595 125.218 282.111 125.155 285.416 125.037C288.835 124.795 292.144 124.674 295.34 124.674C296.075 124.674 296.884 124.869 297.622 125.362C298.337 125.838 298.777 126.455 299.041 126.982C299.517 127.933 299.567 128.895 299.567 129.445C299.567 129.994 299.517 130.956 299.041 131.908C298.777 132.435 298.337 133.051 297.622 133.528C296.884 134.02 296.075 134.215 295.34 134.216C290.517 134.216 284.994 135.634 278.715 138.717L278.69 138.727L278.668 138.742C272.447 141.683 266.772 145.638 261.648 150.638L243.378 169.196L268.309 202.766L268.331 202.798L268.356 202.831C273.028 209.419 276.972 214.858 280.191 219.153C283.397 223.308 286.048 226.603 288.149 229.058C290.042 231.044 291.6 232.429 292.841 233.31L293.359 233.66C294.721 234.535 295.863 234.959 296.801 235.104H296.798C297.908 235.261 299.094 235.362 300.359 235.402L301.662 235.424C302.398 235.424 303.207 235.619 303.945 236.112C304.66 236.589 305.104 237.205 305.368 237.732C305.724 238.446 305.839 239.166 305.875 239.713L305.89 240.195L305.875 240.677C305.839 241.224 305.724 241.944 305.368 242.658C305.104 243.185 304.66 243.801 303.945 244.278C303.207 244.771 302.398 244.966 301.662 244.966H281.426C279.695 244.966 278.245 245.024 277.062 245.132C275.665 245.259 274.404 245.326 273.296 245.326C271.251 245.326 269.285 244.93 267.492 244.033C266.143 243.359 264.79 242.298 263.448 241.005L262.109 239.64L262.062 239.59L262.019 239.54C260.785 238.117 259.26 236.227 257.449 233.89L255.545 231.402C252.878 227.888 249.371 223.174 245.031 217.266V217.262L224.049 188.925V226.646L224.06 227.852C224.114 230.158 224.328 231.81 224.615 232.918L224.762 233.429C224.939 233.958 225.175 234.282 225.58 234.51L226.044 234.711C227.114 235.068 228.993 235.345 231.884 235.41L233.188 235.424C234.503 235.424 235.912 236.004 236.799 237.336C237.333 238.137 237.516 238.977 237.574 239.622L237.599 240.195L237.574 240.768C237.515 241.413 237.333 242.253 236.799 243.054C235.912 244.386 234.503 244.966 233.188 244.966C231.6 244.966 229.923 244.95 228.158 244.919L222.595 244.782H222.591C218.905 244.663 214.79 244.606 210.244 244.606C205.943 244.606 201.824 244.663 197.89 244.782C193.888 244.904 190.294 244.966 187.117 244.966C184.551 244.965 183.573 242.84 183.351 242.175C183.098 241.418 183.07 240.664 183.07 240.195ZM248.545 124.674C251.856 124.674 255.223 124.795 258.645 125.037C261.951 125.155 266.349 125.218 271.852 125.218V128.905L264.356 128.858C262.127 128.828 260.169 128.781 258.483 128.721C255.11 128.48 251.797 128.361 248.545 128.361C248.184 128.361 248.005 128.723 248.005 129.445C248.005 130.167 248.184 130.528 248.545 130.529C254.567 130.529 258.123 132.155 259.207 135.408C260.41 138.659 258.783 142.514 254.328 146.969L220.362 181.723V143.358C220.362 140.301 220.592 137.889 221.054 136.124L221.266 135.408C221.989 133.601 223.251 132.335 225.058 131.612C226.864 130.89 229.575 130.529 233.188 130.529C233.459 130.529 233.628 130.326 233.696 129.92L233.732 129.445C233.732 128.722 233.549 128.361 233.188 128.361C230.177 128.361 226.744 128.48 222.89 128.721C219.036 128.841 214.821 128.905 210.244 128.905V125.218C214.755 125.218 218.902 125.155 222.688 125.037C226.587 124.794 230.09 124.674 233.188 124.674C233.923 124.674 234.732 124.869 235.471 125.362C236.186 125.838 236.629 126.454 236.893 126.982C237.25 127.695 237.365 128.415 237.401 128.962L237.419 129.445L237.401 129.927C237.365 130.474 237.25 131.194 236.893 131.908C236.629 132.435 236.186 133.051 235.471 133.528C234.732 134.02 233.923 134.216 233.188 134.216C229.713 134.216 227.573 134.58 226.429 135.037C225.595 135.37 225.081 135.865 224.733 136.671C224.337 137.925 224.049 140.075 224.049 143.358V172.675L251.688 144.391L251.721 144.362C255.485 140.598 256.041 138.343 255.862 137.139L255.746 136.689L255.725 136.632L255.707 136.574C255.446 135.792 254.316 134.216 248.545 134.216C247.809 134.216 247.001 134.02 246.262 133.528C245.547 133.051 245.104 132.435 244.84 131.908C244.483 131.194 244.368 130.474 244.332 129.927L244.318 129.445L244.332 128.962C244.368 128.415 244.483 127.695 244.84 126.982C245.104 126.454 245.547 125.838 246.262 125.362C247.001 124.869 247.809 124.674 248.545 124.674Z" fill="#C9A84C"/>
<line x1="465.5" y1="62" x2="465.5" y2="308" stroke="black"/>
<defs>
<linearGradient id="paint0_linear_23_116" x1="1132.34" y1="77.7647" x2="1307.64" y2="111.493" gradientUnits="userSpaceOnUse">
<stop stop-color="#C9A84C"/>
<stop offset="0.265883" stop-color="#BD9A39"/>
<stop offset="0.489895" stop-color="#DAB756"/>
<stop offset="0.83" stop-color="#D1AF51"/>
<stop offset="1" stop-color="#C9A84C"/>
</linearGradient>
<linearGradient id="paint1_linear_23_116" x1="1279.39" y1="74.4136" x2="1464.2" y2="110.126" gradientUnits="userSpaceOnUse">
<stop stop-color="#C9A84C"/>
<stop offset="0.265883" stop-color="#BD9A39"/>
<stop offset="0.489895" stop-color="#DAB756"/>
<stop offset="0.83" stop-color="#D1AF51"/>
<stop offset="1" stop-color="#C9A84C"/>
</linearGradient>
</defs>
</svg>
