<svg width="2883" height="291" viewBox="0 0 2883 291" fill="none" xmlns="http://www.w3.org/2000/svg">
<rect x="2170" y="210" width="713" height="81" rx="13" fill="#002842"/>
<path d="M2819.71 264.953C2817.53 261.043 2817.26 254.701 2811.33 257.236C2811.33 262.421 2811.33 267.757 2811.33 273.508C2808.7 273.508 2806.48 273.508 2803.97 273.508C2803.97 258.308 2803.97 243.334 2803.97 227.897C2810.07 227.897 2816.27 227.296 2822.36 228.093C2826.98 228.697 2829.96 232.98 2830.73 238.931C2831.67 246.187 2829.41 251.632 2823.9 255.123C2826.42 261.104 2828.83 266.814 2831.23 272.521C2824.78 275.527 2824.21 275.171 2819.71 264.953ZM2815.78 235.139C2814.29 235.251 2812.81 235.362 2811.51 235.459C2811.51 240.176 2811.51 244.104 2811.51 247.957C2819.66 249.447 2822.68 248.176 2823.14 242.996C2823.68 237.094 2821.06 234.968 2815.78 235.139Z" fill="white"/>
<path d="M2858.59 256.082C2857.58 260.246 2856.55 263.854 2855.87 267.563C2855.05 272.033 2853.54 274.152 2849.37 274.18C2844.97 274.209 2844.58 270.819 2843.68 267.222C2840.4 254.195 2837.11 241.176 2833.77 227.956C2839.11 225.782 2842.22 227.038 2843.54 234.455C2845 242.658 2847.38 250.601 2850.45 258.721C2853.07 248.421 2855.68 238.121 2858.38 227.517C2860.7 227.517 2862.95 227.517 2866 227.517C2863.51 237.108 2861.12 246.339 2858.59 256.082Z" fill="white"/>
<path d="M2598.22 251.763C2600.91 246.339 2603.93 240.645 2605.67 234.393C2607.56 227.599 2610.71 225.875 2616.2 227.761C2616.2 242.733 2616.2 257.869 2616.2 273.449C2614.11 273.449 2612.05 273.449 2609.43 273.449C2609.43 265.197 2609.43 256.991 2609.43 248.785C2608.97 248.624 2608.51 248.462 2608.04 248.3C2606.59 252.616 2605.38 257.095 2603.61 261.191C2602.48 263.801 2600.81 267.217 2598.87 267.858C2594.76 269.221 2595.11 263.67 2593.95 260.814C2592.36 256.895 2591.2 252.704 2588.91 248.713C2588.91 256.724 2588.91 264.734 2588.91 273.314C2586.11 273.314 2583.94 273.314 2581.63 273.314C2581.63 258.023 2581.63 242.857 2581.63 227.845C2587.59 225.401 2590.97 227.676 2592.7 235.042C2594 240.612 2596.19 245.858 2598.22 251.763Z" fill="white"/>
<path d="M2731.44 251.439C2731.44 259.053 2731.44 265.993 2731.44 273.089C2726.78 274.949 2723.6 274.15 2721.23 268.257C2718.19 260.709 2714.4 253.639 2710.19 244.806C2710.19 255.267 2710.19 264.043 2710.19 273.353C2707.49 273.353 2705.31 273.353 2702.87 273.353C2702.87 258.114 2702.87 243.153 2702.87 227.8C2707.3 226.569 2710.65 226.51 2713.05 232.644C2715.93 240.004 2719.73 246.804 2723.93 255.526C2723.93 245.181 2723.93 236.636 2723.93 227.634C2726.57 227.634 2728.63 227.634 2731.44 227.634C2731.44 235.206 2731.44 242.985 2731.44 251.439Z" fill="white"/>
<path d="M2683.13 273.055C2676.9 276.029 2674.27 271.842 2671.85 265.766C2670.34 261.957 2670.03 255.23 2663.67 257.294C2663.67 262.544 2663.67 267.857 2663.67 273.536C2660.98 273.536 2658.75 273.536 2656.26 273.536C2656.26 258.256 2656.26 243.265 2656.26 227.816C2662.46 227.816 2668.66 227.298 2674.77 227.995C2678.99 228.476 2682.42 232.412 2682.46 237.758C2682.5 242.503 2680.78 247.353 2679.44 251.978C2679.05 253.359 2677.33 254.139 2676.11 255.286C2678.58 261.156 2680.99 266.884 2683.13 273.055ZM2667.28 235.038C2659.62 236.781 2665.56 243.739 2663.25 247.709C2671.57 249.304 2674.87 247.712 2675.15 242.307C2675.47 236.154 2672.28 234.87 2667.28 235.038Z" fill="white"/>
<path d="M2641.24 229.113C2645.21 244.022 2649.04 258.408 2652.87 272.821C2645.73 275 2645.73 275 2642.36 263.526C2640.25 263.526 2637.94 263.813 2635.69 263.465C2631.34 262.791 2628.74 264.452 2627.75 270.249C2626.71 276.425 2622.78 273.309 2619.34 273.785C2623.4 258.935 2627.02 244.501 2631.36 230.423C2633.24 224.328 2637.56 227.052 2641.24 229.113ZM2638.61 247.267C2637.82 244.556 2637.03 241.846 2635.99 238.261C2634.52 244.441 2633.3 249.609 2631.92 255.448C2634.43 255.448 2636.18 255.489 2637.93 255.428C2638.58 255.404 2639.24 255.144 2640.18 254.925C2639.67 252.545 2639.23 250.441 2638.61 247.267Z" fill="white"/>
<path d="M2737.77 243.663C2737.77 238.104 2737.77 233.177 2737.77 227.707C2745.82 227.707 2753.54 227.707 2761.48 227.707C2761.48 230.076 2761.48 232.227 2761.48 235.087C2755.99 235.087 2750.71 235.087 2745.14 235.087C2745.14 238.826 2745.14 241.861 2745.14 245.628C2749.36 245.628 2753.55 245.628 2758.15 245.628C2758.32 248.41 2758.45 250.511 2758.62 253.382C2754.09 253.382 2749.91 253.382 2745.32 253.382C2745.32 257.538 2745.32 261 2745.32 265.336C2750.46 265.336 2755.9 265.336 2761.64 265.336C2761.64 268.55 2761.64 270.901 2761.64 273.658C2753.84 273.658 2746.21 273.658 2737.77 273.658C2737.77 263.803 2737.77 254.048 2737.77 243.663Z" fill="white"/>
<path d="M2696.07 263.475C2696.07 267.041 2696.07 269.952 2696.07 273.435C2693.53 273.435 2691.17 273.435 2688.65 273.435C2688.65 258.08 2688.65 243.095 2688.65 227.668C2691.1 227.668 2693.29 227.668 2696.07 227.668C2696.07 239.53 2696.07 251.175 2696.07 263.475Z" fill="white"/>
<path d="M2313.3 268.475C2313.3 254.441 2313.3 241.025 2313.3 227.832C2319.57 225.63 2323.32 227.57 2325.17 235.155C2326.56 240.838 2328.78 246.2 2330.94 252.62C2333.2 246.171 2335.63 240.663 2337.08 234.773C2338.9 227.358 2342.47 225.709 2348.17 227.881C2348.17 242.909 2348.17 258.053 2348.17 273.539C2345.94 273.539 2343.91 273.539 2341.22 273.539C2341.22 264.616 2341.22 256.081 2341.22 247.545C2340.83 247.466 2340.45 247.386 2340.07 247.307C2338.3 252.794 2336.71 258.392 2334.66 263.707C2333.98 265.472 2332.19 267.378 2330.75 267.595C2329.67 267.758 2327.85 265.617 2327.22 263.98C2325.4 259.266 2324.01 254.287 2322.45 249.412C2321.98 249.499 2321.51 249.587 2321.05 249.674C2321.05 257.485 2321.05 265.296 2321.05 273.642C2317.43 273.138 2313.13 277.21 2313.3 268.475Z" fill="white"/>
<path d="M2275.13 273.902C2271.29 274.555 2269.98 273.163 2270.08 268.476C2270.35 255.046 2270.17 241.601 2270.17 228.258C2278.27 225.883 2278.7 226.144 2281.56 234.906C2283.51 240.893 2285.48 246.875 2287.69 253.62C2289.97 246.847 2292.29 241.011 2293.92 234.882C2295.69 228.174 2298.82 225.532 2304.78 227.819C2304.78 242.583 2304.78 257.708 2304.78 273.422C2302.9 273.422 2300.71 273.422 2298.08 273.422C2298.08 264.562 2298.08 255.739 2298.08 246.917C2297.74 246.805 2297.4 246.693 2297.06 246.581C2295.29 251.78 2293.54 256.991 2291.73 262.171C2290.8 264.823 2290.91 268.29 2287.15 268.16C2283.33 268.028 2283.76 264.32 2282.87 261.746C2281.27 257.139 2279.89 252.412 2277.34 247.974C2277.34 254.779 2277.47 261.59 2277.26 268.385C2277.21 270.24 2276.17 272.05 2275.13 273.902Z" fill="white"/>
<path d="M2255.88 233.126C2260.81 240.155 2261.46 248.166 2260.33 256.338C2258.81 267.375 2251.92 274.64 2243.63 274.805C2235.02 274.975 2228.33 267.83 2226.36 256.375C2224.54 245.761 2228.06 233.711 2234.39 228.908C2240.97 223.92 2248.9 225.364 2255.88 233.126ZM2239.72 265.281C2244.11 267.618 2247.76 266.422 2250.47 261.486C2253.76 255.479 2253.67 245.151 2250.39 239.183C2247.09 233.194 2239.55 233.212 2236.21 239.216C2232.13 246.535 2233.42 258.564 2239.72 265.281Z" fill="white"/>
<path d="M2405.68 227.291C2411.1 228.821 2414.6 232.204 2415.38 238.853C2416.24 246.193 2413.85 251.525 2408.16 254.875C2410.81 260.992 2413.35 266.822 2416.06 273.075C2411.52 274.802 2407.79 274.946 2405.67 268.358C2404.73 265.467 2403.57 262.55 2402 260.173C2400.76 258.292 2398.75 257.217 2396.01 254.868C2396.01 262.232 2396.01 267.524 2396.01 273.343C2393.38 273.343 2391.2 273.343 2388.83 273.343C2388.83 258.008 2388.83 242.885 2388.83 227.221C2394.55 227.221 2399.88 227.221 2405.68 227.291ZM2396.64 248.112C2398.77 248.193 2401.27 249.187 2402.94 248.119C2404.91 246.851 2407.4 243.786 2407.37 241.545C2407.34 239.374 2404.68 236.494 2402.67 235.345C2400.81 234.288 2398.27 235.12 2395.98 235.12C2395.98 239.718 2395.98 243.486 2396.64 248.112Z" fill="white"/>
<path d="M2472.73 272.797C2475.69 260.155 2479.22 248.156 2481.84 235.849C2483.45 228.268 2486.21 225.132 2493.19 228.053C2497.08 242.299 2501.21 257.437 2505.34 272.573C2498.65 275.591 2498.65 275.591 2494.84 263.522C2492.83 263.522 2490.69 263.766 2488.59 263.471C2484.37 262.877 2481.44 264.033 2480.55 270.08C2479.62 276.361 2475.85 273.66 2472.73 272.797ZM2491.03 247.092C2490.27 244.58 2489.52 242.068 2488.48 238.608C2486.94 244.856 2485.72 249.863 2484.42 255.135C2487.48 255.135 2489.88 255.135 2492.57 255.135C2492.06 252.498 2491.65 250.342 2491.03 247.092Z" fill="white"/>
<path d="M2188 241.291C2192.3 228.69 2199.57 223.783 2208.5 227.019C2213.86 228.959 2216.49 232.627 2217.87 240.185C2214.45 242.458 2211.86 243.162 2209.13 237.882C2206.31 232.422 2199.46 233.686 2197.11 239.66C2194.44 246.423 2194.14 253.604 2196.79 260.491C2199.37 267.202 2206.47 268.587 2209.51 262.565C2212.27 257.114 2214.81 259.064 2217.9 260.774C2216.73 268.946 2212.67 273.618 2206.01 274.635C2198.51 275.781 2191.19 271.518 2189.15 262.802C2187.61 256.219 2188.23 248.838 2188 241.291Z" fill="white"/>
<path d="M2435.06 226.711C2445.16 225.371 2450.63 229.657 2452.45 240.129C2449.14 242.045 2446.43 243.866 2443.76 237.94C2441.4 232.679 2434.44 233.568 2432.04 239.099C2428.96 246.24 2428.66 253.843 2431.9 261.047C2435.29 268.574 2441.16 267.593 2446.46 258.532C2448.35 259.06 2450.4 259.631 2452.41 260.193C2451.07 272.792 2439.43 279.047 2430.41 272.236C2422.55 266.303 2421.25 256.704 2422.12 246.332C2422.94 236.582 2426.5 229.319 2435.06 226.711Z" fill="white"/>
<path d="M2376.09 235.23C2372.38 235.236 2369.19 235.236 2365.7 235.236C2365.7 238.843 2365.7 241.896 2365.7 245.675C2369.68 245.675 2373.72 245.675 2378.11 245.675C2378.21 248.515 2378.28 250.659 2378.38 253.582C2374.05 253.582 2370.02 253.582 2365.72 253.582C2365.72 257.836 2365.72 261.339 2365.72 265.598C2371.14 265.598 2376.58 265.598 2382.29 265.598C2382.29 268.502 2382.29 270.658 2382.29 273.421C2374.4 273.421 2366.47 273.421 2358.2 273.421C2358.2 258.286 2358.2 243.134 2358.2 227.557C2365.93 227.557 2373.53 227.557 2381.35 227.557C2381.35 229.998 2381.35 232.153 2381.35 234.777C2379.72 234.931 2378.16 235.077 2376.09 235.23Z" fill="white"/>
<path d="M2512.61 251.437C2512.61 243.153 2512.61 235.544 2512.61 227.578C2515.23 227.578 2517.3 227.578 2519.84 227.578C2519.84 239.842 2519.84 252.111 2519.84 265.178C2524.97 265.178 2529.69 265.178 2534.98 265.178C2535.11 268.253 2535.21 270.575 2535.34 273.505C2527.72 273.505 2520.49 273.505 2512.61 273.505C2512.61 266.34 2512.61 259.226 2512.61 251.437Z" fill="white"/>
<path d="M2459.98 251.438C2459.98 243.197 2459.98 235.629 2459.98 227.645C2462.62 227.645 2464.81 227.645 2467.28 227.645C2467.28 242.924 2467.28 258.039 2467.28 273.548C2464.9 273.548 2462.68 273.548 2459.98 273.548C2459.98 266.281 2459.98 259.197 2459.98 251.438Z" fill="white"/>
<path d="M2550 251.623C2550.17 247.621 2551.67 244.785 2555.28 243.499C2559.53 241.987 2563.81 244.012 2565.52 248.212C2566.97 251.748 2565 256.416 2561.28 258.263C2557.84 259.971 2553.44 258.628 2551.24 255.084C2550.67 254.159 2550.44 253.025 2550 251.623Z" fill="#CE8B31"/>
<path d="M2786.97 244.678C2790.8 247.652 2792.09 251.086 2790.01 255.349C2788.29 258.867 2785.39 260.442 2781.62 259.893C2777.74 259.329 2775.68 256.667 2775.11 252.861C2774.14 246.411 2779.85 242.31 2786.97 244.678Z" fill="#CE8B31"/>
<path d="M1957.59 223.732C1961.24 233.862 1964.49 243.616 1968.19 254.689C1970.75 246.578 1972.98 239.782 1975.04 232.938C1978.43 221.694 1978.39 221.681 1990.62 223.7C1990.62 241.484 1990.62 259.348 1990.62 277.673C1987.54 277.673 1984.55 277.673 1980.97 277.673C1980.97 267.74 1980.97 258.008 1980.97 248.276C1980.47 248.166 1979.97 248.056 1979.48 247.946C1977.33 254.345 1975.45 260.853 1972.89 267.076C1972.12 268.951 1969.41 271.211 1967.66 271.146C1965.91 271.081 1963.46 268.646 1962.72 266.705C1960.36 260.56 1958.65 254.159 1955.3 248.101C1955.3 257.778 1955.3 267.454 1955.3 277.566C1951.64 277.566 1948.64 277.566 1945.13 277.566C1945.13 259.515 1945.13 241.493 1945.13 222.623C1949.37 222.88 1953.28 223.117 1957.59 223.732Z" fill="#CE8B31"/>
<path d="M2059.6 227.998C2064.03 236.854 2068.19 245.268 2073.13 255.235C2073.13 243.804 2073.13 233.929 2073.13 223.481C2076.98 223.481 2080.14 223.481 2083.66 223.481C2083.66 241.514 2083.66 259.401 2083.66 277.376C2076.93 279.563 2072.43 278.217 2069.51 270.979C2066.09 262.51 2061.5 254.522 2056.55 244.588C2056.55 256.581 2056.55 266.842 2056.55 277.509C2052.81 277.509 2049.85 277.509 2046.44 277.509C2046.44 259.446 2046.44 241.57 2046.44 223.215C2051.27 223.426 2056.81 220.448 2059.6 227.998Z" fill="#CE8B31"/>
<path d="M1671.16 272.509C1671.97 274.387 1672.6 275.756 1673.25 277.178C1662.52 279.58 1662.16 279.398 1657.89 269.889C1656.51 266.818 1655.34 263.608 1653.59 260.765C1652.55 259.078 1650.56 257.984 1649 256.624C1648.43 256.979 1647.85 257.334 1647.27 257.689C1647.27 264.28 1647.27 270.871 1647.27 277.788C1643.44 277.788 1640.4 277.788 1636.81 277.788C1636.81 259.813 1636.81 241.959 1636.81 223.813C1644.54 223.813 1652.66 222.582 1660.25 224.099C1671.86 226.421 1675.8 242.303 1667.7 251.181C1666.36 252.653 1664.82 253.942 1663.2 255.479C1665.82 261.053 1668.4 266.526 1671.16 272.509ZM1652.67 248.234C1659.54 246.811 1661.85 243.662 1660.39 237.684C1659.14 232.597 1655.33 231.227 1646.94 233.077C1646.94 236.778 1646.52 240.649 1647.15 244.336C1647.41 245.842 1649.96 246.95 1652.67 248.234Z" fill="#CE8B31"/>
<path d="M1848.89 273.913C1848.08 275.302 1847.13 277.944 1846.5 277.866C1843.53 277.498 1839.94 277.163 1837.96 275.312C1836.15 273.631 1836.13 270.013 1835.22 266.913C1830.37 266.913 1825.58 266.913 1820.85 266.913C1816.39 278.665 1816.39 278.665 1806.94 277.375C1811.64 260.077 1816.07 242.782 1821.37 225.761C1821.92 223.997 1827.6 223.407 1830.96 223.185C1832.42 223.089 1834.95 225.025 1835.4 226.526C1837.35 232.928 1838.7 239.512 1840.76 246.874C1843.16 254.518 1845.07 261.32 1846.95 268.567C1847.41 270.377 1847.9 271.74 1848.4 273.261C1848.54 273.624 1848.7 273.788 1848.89 273.913ZM1825.35 247.059C1824.69 250.232 1824.03 253.406 1823.36 256.645C1826.98 256.645 1829.88 256.645 1833.06 256.645C1831.52 250.222 1830.12 244.389 1828.72 238.556C1828.36 238.552 1827.99 238.548 1827.62 238.544C1826.95 241.032 1826.29 243.519 1825.35 247.059Z" fill="#CE8B31"/>
<path d="M1699.21 268.846C1704.75 268.857 1709.62 268.857 1714.75 268.857C1714.75 272.123 1714.75 274.716 1714.75 277.693C1704.53 277.693 1694.62 277.693 1684.3 277.693C1684.3 259.622 1684.3 241.745 1684.3 223.385C1694.07 223.385 1703.93 223.385 1714.15 223.385C1714.15 226.12 1714.15 228.738 1714.15 231.938C1708.1 231.938 1701.97 231.938 1695.34 231.938C1695.34 236.436 1695.34 240.366 1695.34 245.098C1700.43 245.098 1705.64 245.098 1711.01 245.098C1711.01 248.489 1711.01 251.086 1711.01 254.335C1705.74 254.335 1700.72 254.335 1694.16 254.335C1697.21 259.492 1690.36 265.721 1699.21 268.846Z" fill="#CE8B31"/>
<path d="M2026.15 278.188C2019.06 278.116 2012.58 278.05 2006.11 277.953C2005.69 277.947 2005.28 277.703 2004.36 277.408C2004.36 259.697 2004.36 241.832 2004.36 223.406C2014.12 223.406 2024.03 223.406 2034.24 223.406C2034.24 226.092 2034.24 228.718 2034.24 232.043C2028.14 232.043 2022.02 232.043 2015.39 232.043C2015.39 236.6 2015.39 240.489 2015.39 245.104C2020.37 245.104 2025.39 245.104 2030.79 245.104C2030.79 248.416 2030.79 251.017 2030.79 254.361C2025.74 254.361 2020.73 254.361 2015.3 254.361C2015.3 259.236 2015.3 263.4 2015.3 268.538C2021.62 268.538 2028.15 268.538 2034.91 268.538C2034.91 272.102 2034.91 274.696 2034.91 278.186C2032 278.186 2029.39 278.186 2026.15 278.188Z" fill="#CE8B31"/>
<path d="M1754.18 226.218C1761.28 232.15 1762.31 239.498 1759.96 247.309C1756.5 258.817 1746.48 258.757 1736.69 259.181C1736.69 265.352 1736.69 271.14 1736.69 277.523C1733.1 277.523 1729.94 277.523 1726.35 277.523C1726.35 259.601 1726.35 241.707 1726.35 222.943C1735.58 223.689 1744.98 220.792 1754.18 226.218ZM1736.66 243.157C1736.66 245.259 1736.66 247.362 1736.66 251.984C1741.95 249.297 1746.69 248.366 1748.45 245.545C1750 243.075 1749.44 237.494 1747.55 235.106C1745.67 232.73 1740.96 232.619 1736.68 231.255C1736.68 236.073 1736.68 238.972 1736.66 243.157Z" fill="#CE8B31"/>
<path d="M1924.28 232.339C1920.58 232.344 1917.51 232.344 1914.12 232.344C1914.12 236.655 1914.12 240.405 1914.12 245.117C1916.67 245.117 1919.24 245.117 1921.82 245.117C1924.25 245.117 1926.68 245.117 1929.62 245.117C1929.62 248.219 1929.62 251.003 1929.62 254.338C1924.79 254.338 1919.76 254.338 1914.26 254.338C1914.26 259.222 1914.26 263.579 1914.26 268.717C1920.51 268.717 1926.87 268.717 1933.46 268.717C1933.46 272.05 1933.46 274.618 1933.46 277.67C1923.19 277.67 1913.27 277.67 1903.14 277.67C1903.14 259.406 1903.14 241.48 1903.14 223.258C1913.03 223.258 1922.58 223.258 1932.87 223.258C1933.02 226.002 1933.17 228.771 1933.36 232.334C1930.13 232.334 1927.52 232.334 1924.28 232.339Z" fill="#CE8B31"/>
<path d="M1853.94 239.943C1855.17 237.484 1856.44 235.045 1857.63 232.563C1861.34 224.791 1870.13 220.609 1879.03 222.425C1886.82 224.016 1891.7 230.179 1891.94 238.982C1891.2 239.247 1890.41 239.707 1889.57 239.801C1887.38 240.048 1885.16 240.136 1882.55 240.315C1882.16 239.159 1882.1 237.866 1881.43 237.236C1879.33 235.256 1876.63 231.74 1874.82 232.107C1871.95 232.688 1867.73 235.656 1867.38 238.09C1866.3 245.746 1866.03 253.713 1866.98 261.368C1867.35 264.322 1871.48 268.169 1874.54 268.913C1876.41 269.366 1879.52 264.695 1882.03 262.279C1882.49 261.832 1882.75 261.164 1883.31 260.255C1886.2 260.486 1889.22 260.727 1892.2 260.964C1892 269.536 1888.43 275.078 1881.72 277.753C1873.81 280.906 1866.36 278.869 1858.98 271.297C1858.54 270.94 1858.47 270.674 1858.25 270.203C1856.7 267.31 1855.37 264.888 1853.97 261.853C1853.92 254.14 1853.93 247.042 1853.94 239.943Z" fill="#CE8B31"/>
<path d="M2116.66 234.75C2116.62 249.296 2116.62 263.202 2116.62 277.594C2113.02 277.594 2109.85 277.594 2106.14 277.594C2106.14 262.612 2106.14 247.88 2106.14 232.618C2101.77 232.385 2097.89 232.178 2093.65 231.952C2093.65 229.163 2093.65 226.57 2093.65 223.43C2105.13 223.43 2116.57 223.43 2128.47 223.43C2128.47 226.054 2128.47 228.821 2128.47 231.306C2124.43 232.268 2120.56 233.189 2116.66 234.75Z" fill="#CE8B31"/>
<path d="M1781.21 245.155C1781.21 253.199 1781.21 260.571 1781.21 268.636C1787.62 268.636 1793.53 268.636 1799.86 268.636C1799.86 271.876 1799.86 274.428 1799.86 277.596C1790.25 277.596 1780.62 277.596 1770.55 277.596C1770.55 259.649 1770.55 241.791 1770.55 223.395C1773.92 223.395 1777.3 223.395 1781.22 223.395C1781.22 230.643 1781.22 237.562 1781.21 245.155Z" fill="#CE8B31"/>
<path d="M1534.9 222.919C1538.19 222.919 1540.88 222.871 1543.56 222.93C1551.33 223.1 1558.33 224.793 1561.49 233.107C1564.68 241.472 1562.49 248.236 1554.12 255.504C1557.31 262.545 1560.59 269.775 1563.9 277.079C1553.06 279.524 1553.08 279.515 1549.09 270.211C1547.68 266.91 1546.39 263.505 1544.54 260.46C1543.53 258.802 1541.46 257.8 1538.46 255.356C1538.46 264.105 1538.46 270.584 1538.46 277.63C1534.59 277.63 1531.21 277.63 1527.53 277.63C1527.53 259.521 1527.53 241.62 1527.53 223.237C1529.97 223.122 1532.13 223.021 1534.9 222.919ZM1538.26 240.531C1538.26 242.946 1538.26 245.361 1538.26 249.923C1543.14 247.924 1547.6 247.272 1550.03 244.689C1551.63 242.995 1551.61 237.23 1549.99 235.574C1547.52 233.034 1543.06 232.462 1538.25 230.592C1538.25 234.867 1538.25 237.061 1538.26 240.531Z" fill="#CE8B31"/>
<path d="M1358.37 270.748C1358.91 272.867 1359.45 274.986 1360.05 277.338C1356.4 277.338 1352.87 277.338 1349.35 277.338C1344.62 270.903 1345.17 260.803 1335.09 256.075C1335.09 264.086 1335.09 270.507 1335.09 277.455C1331.25 277.455 1328.05 277.455 1324.36 277.455C1324.36 259.683 1324.36 241.794 1324.36 223.458C1331.66 223.458 1338.99 222.891 1346.17 223.628C1352.53 224.28 1357.19 228.154 1359.1 235.727C1360.29 244.611 1357.53 250.955 1350.72 255.092C1353.53 260.845 1355.95 265.797 1358.37 270.748ZM1345.64 233.481C1342.33 232.8 1339.02 232.118 1335.3 231.352C1335.3 237.629 1335.3 242.776 1335.3 247.881C1347.52 248.701 1351.11 244.077 1345.64 233.481Z" fill="#CE8B31"/>
<path d="M1457.91 252.763C1460.32 243.794 1462.84 235.413 1464.76 226.894C1465.66 222.872 1468.03 222.458 1471.09 222.921C1474.2 223.392 1478.35 220.913 1479.79 226.449C1484.16 243.339 1488.8 260.159 1493.34 277.013C1484.02 279.314 1484.02 279.314 1478.83 266.502C1476.57 266.502 1474.09 266.808 1471.72 266.441C1466.37 265.612 1463.22 267.45 1462.64 273.074C1461.81 281.073 1455.95 277.221 1450.68 278.28C1453.21 269.38 1455.49 261.338 1457.91 252.763ZM1473.01 239.887C1472.78 239.321 1472.54 238.755 1472.31 238.188C1472.13 238.322 1471.84 238.424 1471.79 238.595C1470.13 244.523 1468.49 250.458 1466.72 256.83C1470.63 256.83 1473.62 256.83 1477.09 256.83C1475.71 251.189 1474.45 246.019 1473.01 239.887Z" fill="#CE8B31"/>
<path d="M1413.96 234.453C1413.96 230.436 1413.96 227.078 1413.96 223.09C1420.63 223.09 1427.07 222.685 1433.43 223.185C1443.06 223.941 1448.69 230.453 1448.88 240.151C1449.07 249.872 1443.73 256.68 1434.47 258.232C1431.45 258.737 1428.36 258.744 1424.74 259.02C1424.74 265.253 1424.74 271.236 1424.74 277.616C1420.99 277.616 1417.8 277.616 1413.96 277.616C1413.96 263.301 1413.96 249.206 1413.96 234.453ZM1437.06 236.363C1434.23 230.973 1429.67 231.871 1424.96 232.543C1424.96 238.287 1424.96 243.583 1424.96 248.827C1435.67 250.075 1438.41 247.486 1437.06 236.363Z" fill="#CE8B31"/>
<path d="M1371.38 228.893C1371.67 227.147 1371.96 225.401 1372.31 223.281C1382.06 223.281 1391.75 223.281 1401.77 223.281C1401.77 226.086 1401.77 228.682 1401.77 232.015C1395.69 232.015 1389.55 232.015 1383.14 232.015C1383.14 236.673 1383.14 240.612 1383.14 245.127C1388.27 245.127 1393.09 245.127 1398.36 245.127C1398.36 248.264 1398.36 250.846 1398.36 254.184C1393.54 254.184 1388.54 254.184 1383.12 254.184C1383.12 259.261 1383.12 263.625 1383.12 268.731C1389.56 268.731 1395.93 268.731 1402.6 268.731C1402.6 272.022 1402.6 274.582 1402.6 278.169C1392.62 278.169 1382.86 278.169 1372.49 277.352C1371.74 274.626 1371.6 272.717 1371.63 270.196C1371.67 261.895 1371.54 254.204 1371.6 245.914C1371.66 239.84 1371.52 234.366 1371.38 228.893Z" fill="#CE8B31"/>
<path d="M1513.68 255.669C1513.68 263.268 1513.68 270.227 1513.68 277.561C1510.05 277.561 1506.85 277.561 1503.46 277.561C1503.46 259.356 1503.46 241.466 1503.46 223.277C1506.9 223.277 1509.93 223.277 1513.68 223.277C1513.68 234.011 1513.68 244.52 1513.68 255.669Z" fill="#CE8B31"/>
<path d="M1220.81 247.882C1220.81 257.693 1220.81 267.504 1220.81 278.356C1216.74 277.824 1213.6 277.414 1210.36 275.928C1210.11 269.962 1209.96 265.071 1209.96 259.617C1210 252.176 1209.88 245.299 1209.95 237.826C1210.19 232.645 1210.24 228.058 1210.29 223.472C1220.89 222.023 1220.89 222.021 1225.51 231.421C1229.23 238.985 1232.93 246.557 1237.73 254.005C1237.73 243.943 1237.73 233.88 1237.73 223.35C1241.53 223.35 1244.53 223.35 1248.06 223.35C1248.06 241.329 1248.06 259.353 1248.06 277.483C1241.42 279.298 1236.64 278.55 1233.82 271.063C1230.9 263.343 1226.69 256.12 1222.85 247.83C1221.89 246.494 1221.12 246.007 1220.35 245.52C1220.51 246.308 1220.66 247.095 1220.81 247.882Z" fill="#CE8B31"/>
<path d="M655.726 266.416C652.31 259.381 649.141 252.784 645.972 246.188C645.58 246.246 645.188 246.303 644.796 246.361C644.796 251.581 644.796 256.802 644.796 262.023C644.796 267.151 644.796 272.279 644.796 277.743C641.232 277.743 638.213 277.743 634.779 277.743C634.779 259.547 634.779 241.676 634.779 223.852C644.45 221.747 645.527 222.166 649.54 230.339C653.391 238.182 657.082 246.103 661.652 255.686C661.652 243.947 661.652 233.885 661.652 223.296C665.578 223.296 668.767 223.296 672.351 223.296C672.351 241.264 672.351 259.167 672.351 277.099C662.655 279.821 662.388 279.655 655.726 266.416Z" fill="#CE8B31"/>
<path d="M795.877 270.77C795.633 272.958 795.389 275.145 795.105 277.697C791.943 277.697 788.939 277.697 785.553 277.697C785.553 259.511 785.553 241.46 785.553 223.472C792.865 221.166 797.405 223.16 800.291 230.433C803.384 238.228 807.556 245.589 812.67 252.972C812.67 243.131 812.67 233.289 812.67 223.155C816.641 223.155 819.634 223.155 822.93 223.155C822.93 241.355 822.93 259.241 822.93 277.114C812.829 279.594 812.829 279.594 805.974 265.19C803.359 260.231 801.147 256.057 798.859 251.386C798.044 249.493 797.304 248.097 796.563 246.702C796.278 246.789 795.993 246.875 795.708 246.962C795.822 248.615 795.936 250.268 795.883 252.528C795.77 259.013 795.823 264.891 795.877 270.77Z" fill="#CE8B31"/>
<path d="M1196.75 266.615C1192.92 274.355 1187.1 279.004 1178.13 278.925C1169.15 278.846 1163.23 274.319 1159.39 265.342C1155.7 254.33 1157.24 244.331 1159.54 234.342C1163.77 226.01 1170.28 221.308 1179.81 222.1C1187.44 222.735 1193.25 226.307 1196.39 234.6C1197.09 235.923 1197.37 236.596 1197.68 237.81C1197.9 246.449 1198.07 254.547 1197.94 262.949C1197.34 264.373 1197.04 265.494 1196.75 266.615ZM1187.94 247.469C1187.28 243.953 1187.39 239.991 1185.72 237.057C1184.31 234.565 1180.83 231.818 1178.28 231.831C1175.7 231.844 1171.13 234.908 1170.92 236.992C1170.04 245.75 1169.92 254.695 1170.77 263.447C1171 265.718 1175.77 269.115 1178.46 269.113C1181.07 269.111 1185.02 265.919 1186 263.24C1187.65 258.767 1187.4 253.587 1187.94 247.469Z" fill="#CE8B31"/>
<path d="M713.73 238.836C711.035 234.768 708.895 230.464 703.314 231.608C697.654 232.768 696.2 237.561 695.929 242.365C695.59 248.384 695.518 254.532 696.377 260.471C697.116 265.581 699.894 270.182 706.214 269.178C712.388 268.198 713.746 263.635 712.872 257.577C710.481 257.225 707.947 256.852 705.186 256.446C705.186 253.789 705.186 251.383 705.186 248.46C711.174 248.46 717.047 248.46 723.725 248.46C723.725 255.057 724.355 261.585 723.57 267.935C722.519 276.445 714.183 276.399 708.48 278.338C700.01 281.218 690.975 276.643 687.38 268.289C682.286 256.456 681.85 244.281 687.446 232.401C691.136 224.568 698.873 220.991 708.172 222.246C715.826 223.279 720.399 227.849 722.305 237.02C719.63 237.664 716.918 238.317 713.73 238.836Z" fill="#CE8B31"/>
<path d="M1052.07 250.115C1054.2 241.993 1055.94 234.321 1058.29 226.844C1058.81 225.191 1061.52 223.158 1063.19 223.182C1066.32 223.227 1071.68 223.922 1072.22 225.609C1077.66 242.624 1082.32 259.895 1087.22 277.148C1076.63 279.2 1076.31 279.283 1074.2 270.886C1073.16 266.764 1071.05 265.736 1067.58 266.479C1063.78 267.293 1058.19 263.603 1056.73 270.717C1056.24 273.098 1055.35 275.395 1054.6 277.87C1051.29 277.87 1048.21 277.87 1044.21 277.87C1046.85 268.502 1049.38 259.568 1052.07 250.115ZM1064.59 238.945C1063.22 244.745 1061.84 250.545 1060.38 256.701C1063.86 256.701 1066.81 256.701 1070.82 256.701C1068.74 250.064 1066.87 244.079 1064.59 238.945Z" fill="#CE8B31"/>
<path d="M540.367 222.852C543.116 222.852 545.312 222.852 548.015 222.852C552.971 241.078 557.834 258.964 562.696 276.843C552.907 279.778 552.668 279.606 548.748 266.902C544.065 266.902 539.255 266.902 534.468 266.902C529.725 279.013 529.725 279.013 520.291 277.228C525.016 260.199 529.623 243.183 534.619 226.283C535.07 224.755 538.023 223.978 540.367 222.852ZM540.054 240.561C538.804 245.87 537.554 251.179 536.208 256.895C539.956 256.895 542.965 256.895 546.652 256.895C544.929 250.062 543.321 243.687 541.713 237.311C541.353 237.403 540.992 237.494 540.632 237.586C540.48 238.231 540.328 238.875 540.054 240.561Z" fill="#CE8B31"/>
<path d="M927.349 269.007C924.581 278.925 924.581 278.925 914.439 277.362C919.271 259.397 924.083 241.509 928.955 223.395C929.898 223.199 930.726 222.894 931.561 222.871C941.62 222.594 941.565 222.62 944.283 232.526C948.362 247.391 952.526 262.232 956.664 277.119C946.663 279.225 946.663 279.225 941.95 265.735C937.296 266.603 932.379 267.519 927.349 269.007ZM936.209 257.125C937.352 256.277 939.581 255.228 939.469 254.611C938.464 249.07 937.046 243.605 935.75 238.118C935.318 238.165 934.886 238.213 934.454 238.261C933.043 244.267 931.633 250.273 930.131 256.666C932.071 256.848 933.561 256.988 936.209 257.125Z" fill="#CE8B31"/>
<path d="M462.422 249.034C469.28 254.722 471.469 262.228 468.554 268.927C465.415 276.142 457.432 279.879 447.65 278.711C439.292 277.713 434.599 272.993 433 263.76C433.691 263.406 434.414 262.824 435.22 262.662C437.599 262.186 440.012 261.876 442.502 261.487C443.437 263.268 443.867 265.488 445.137 266.208C447.659 267.639 450.682 269.03 453.424 268.898C455.113 268.816 458.14 265.696 457.961 264.275C457.625 261.617 455.909 258.565 453.82 256.847C451.135 254.639 447.464 253.683 444.311 252.011C435.631 247.409 432.424 241.396 434.387 233.662C436.296 226.137 442.524 222.011 451.825 222.109C461.041 222.206 466.297 226.347 468.657 236.004C465.508 236.664 462.388 237.318 459.331 237.958C458.16 236.03 457.539 234.226 456.302 233.125C453.04 230.22 449.23 229.676 446.305 233.295C443.322 236.985 445.423 240.215 448.847 242.201C453.082 244.657 457.611 246.601 462.422 249.034Z" fill="#CE8B31"/>
<path d="M865.425 274.458C851.094 283.315 837.895 278.86 833.821 263.447C836.951 262.699 840.076 261.952 843.419 261.153C844.56 263.302 845.115 266.03 846.704 266.953C849.164 268.382 852.425 269.35 855.16 269.007C856.784 268.804 859.355 265.563 859.174 263.954C858.902 261.555 857.056 258.689 855.02 257.281C851.385 254.766 846.97 253.431 843.13 251.172C835.765 246.839 833.339 240.45 835.811 232.95C838.289 225.431 845.492 221.285 854.537 222.173C862.163 222.922 867.574 228.048 868.76 236.019C864.314 237.276 860.27 239.802 856.717 233.451C854.795 230.014 850.318 230.159 847.439 233.328C844.536 236.524 845.812 239.836 849.084 241.845C852.676 244.051 856.711 245.51 860.472 247.456C871.857 253.348 873.981 264.104 865.425 274.458Z" fill="#CE8B31"/>
<path d="M512.026 275.883C510.034 277.014 508.077 277.977 506.101 278.019C497.885 278.195 489.663 278.093 481.037 278.093C481.037 259.586 481.037 241.52 481.037 223.119C490.797 223.119 500.325 223.119 510.396 223.119C510.396 225.663 510.396 228.436 510.396 231.953C504.56 231.953 498.452 231.953 491.982 231.953C491.982 236.588 491.982 240.496 491.982 244.978C497.245 244.978 502.265 244.978 507.619 244.978C507.619 248.148 507.619 250.755 507.619 254.064C502.655 254.064 497.658 254.064 492.081 254.064C492.081 259.28 492.081 263.809 492.081 268.871C498.61 268.871 505.01 268.871 511.73 268.871C511.854 271.345 511.953 273.318 512.026 275.883Z" fill="#CE8B31"/>
<path d="M1105.93 222.96C1112.38 222.959 1118.18 222.959 1124.52 222.959C1124.52 225.867 1124.52 228.642 1124.52 232.092C1120.84 232.092 1116.92 232.092 1112.47 232.092C1112.47 247.49 1112.47 262.242 1112.47 277.548C1108.73 277.548 1105.51 277.548 1101.73 277.548C1101.73 263.081 1101.73 248.34 1101.73 232.915C1097.15 232.563 1093.06 232.249 1088.68 231.913C1088.68 229.111 1088.68 226.497 1088.68 222.961C1094.31 222.961 1099.79 222.961 1105.93 222.96Z" fill="#CE8B31"/>
<path d="M889.99 270.531C889.987 257.773 889.987 245.652 889.987 232.798C885.591 232.487 881.476 232.196 877.05 231.883C877.05 229.067 877.05 226.462 877.05 223.309C888.781 223.309 900.476 223.309 912.667 223.309C912.667 225.903 912.667 228.658 912.667 231.939C908.978 232.137 905.269 232.336 900.753 232.578C900.753 247.612 900.753 262.531 900.753 277.79C896.91 277.79 893.883 277.79 890.318 277.79C890.205 275.477 890.099 273.323 889.99 270.531Z" fill="#CE8B31"/>
<path d="M965.569 250.556C965.571 241.174 965.571 232.467 965.571 223.334C969.252 223.334 972.452 223.334 976.226 223.334C976.226 238.244 976.226 252.971 976.226 268.447C982.877 268.447 988.99 268.447 995.515 268.447C995.515 271.947 995.515 274.706 995.515 277.736C985.67 277.736 975.958 277.736 965.568 277.736C965.568 268.61 965.568 259.92 965.569 250.556Z" fill="#CE8B31"/>
<path d="M1017.55 278.108C1013.59 278.097 1010.28 278.097 1006.64 278.097C1006.64 259.524 1006.64 241.591 1006.64 223.27C1009.91 223.27 1012.93 223.27 1016.81 223.27C1016.81 238.209 1016.81 253.132 1016.81 268.747C1023.76 268.747 1029.91 268.747 1036.29 268.747C1036.29 272.082 1036.29 274.707 1036.29 278.119C1030.1 278.119 1024.15 278.119 1017.55 278.108Z" fill="#CE8B31"/>
<path d="M587.249 277.647C583.965 277.812 580.681 277.977 576.741 278.174C576.741 262.761 576.741 247.999 576.741 232.836C572.433 232.547 568.721 232.297 564.523 232.015C564.523 229.311 564.523 226.742 564.523 223.52C576.041 223.52 587.9 223.52 600.099 223.52C600.099 226.222 600.099 228.821 600.099 231.826C598.321 232.018 596.616 232.202 593.95 232.384C591.894 232.529 590.799 232.678 589.226 232.75C588.455 233.184 588.161 233.695 587.673 234.732C587.402 249.387 587.325 263.517 587.249 277.647Z" fill="#CE8B31"/>
<path d="M771.137 223.587C771.6 241.66 771.6 259.371 771.6 277.615C768.458 277.615 765.269 277.615 761.616 277.615C761.616 259.722 761.616 241.893 761.616 223.225C764.657 223.225 767.665 223.225 771.137 223.587Z" fill="#CE8B31"/>
<path d="M1146.18 274.869C1143.86 278.614 1143.86 278.614 1135.22 277.46C1135.22 259.881 1135.22 242.225 1135.86 223.79C1139.3 222.93 1142.09 222.848 1144.88 222.766C1145.19 223.22 1145.51 223.674 1145.84 225.129C1145.97 242.376 1146.07 258.622 1146.18 274.869Z" fill="#CE8B31"/>
<path d="M610.657 223.477C613.913 223.231 617.168 222.984 620.908 222.701C620.908 241.321 620.908 259.218 620.908 277.593C617.698 277.593 614.667 277.593 610.456 277.593C610.456 268.742 610.456 259.63 610.493 249.349C610.399 245.785 610.267 243.391 610.135 240.997C610.271 237.847 610.407 234.696 610.587 230.421C610.64 227.357 610.648 225.417 610.657 223.477Z" fill="#CE8B31"/>
<path d="M1286.08 264.463C1277.21 261.825 1273.8 257.316 1274.78 250.112C1275.57 244.298 1280.15 239.962 1285.95 239.53C1292.98 239.007 1298.69 243.707 1299.37 250.582C1300.12 258.129 1295.6 263.041 1286.08 264.463Z" fill="#CE8B31"/>
<path d="M1591.8 243.567C1598.66 238.564 1603.96 238.332 1608.46 242.48C1612.88 246.55 1613.86 253.391 1610.76 258.427C1607.16 264.274 1600.33 266.014 1594.47 262.576C1588.07 258.816 1586.92 251.764 1591.8 243.567Z" fill="#CE8B31"/>
<path d="M545.179 16.1984C561.818 31.6532 562.539 49.3169 554.754 67.061C546.67 85.4834 528.118 93.0699 506.137 94.9935C498.564 95.6562 490.843 95.0988 482.305 95.0988C482.305 109.312 481.897 122.971 482.67 136.581C482.814 139.118 487.221 142.717 490.503 143.613C496.026 145.12 496.326 148.273 495.148 151.356C494.554 152.91 490.648 154.415 488.202 154.46C472.803 154.748 457.394 154.641 441.988 154.607C439.158 154.601 436.328 154.33 433.56 154.185C432.543 148.877 432.197 145.304 438.987 142.689C442.166 141.465 444.457 135.761 444.537 132.047C445.055 107.972 444.862 83.8859 444.883 59.8035C444.893 48.55 444.91 37.2963 444.824 26.0432C444.778 20.1571 443.717 14.9004 435.579 12.684C434.044 12.266 432.806 8.6134 433.116 6.64365C433.323 5.32501 436.501 3.36722 438.361 3.3579C461.731 3.24113 485.117 3.05491 508.469 3.67948C521.998 4.04133 534.527 7.83187 545.179 16.1984ZM519.229 56.6087C519.479 53.2484 519.975 49.8862 519.939 46.5282C519.729 27.1281 505.468 17.6399 482.172 21.8461C482.172 30.8921 482.172 40.0612 482.172 49.2302C482.172 58.584 482.172 67.9379 482.172 77.1789C504.224 79.3614 514.521 73.7567 519.229 56.6087Z" fill="#002842"/>
<path d="M635.274 112.054C625.191 112.021 615.895 112.133 606.613 111.881C602.529 111.77 600.421 112.765 599.322 116.3C597.368 122.584 594.692 128.704 592.491 134.936C591.154 138.721 591.323 142.842 596.71 143.623C604.588 144.765 603.96 148.816 602.797 154.578C587.937 154.578 572.909 154.644 557.887 154.455C556.667 154.439 554.383 152.588 554.481 151.749C554.772 149.268 555.323 145.202 556.991 144.708C566.854 141.786 569.008 134.747 571.768 127.594C586.907 88.3464 602.388 49.1935 617.343 9.89622C619.347 4.63058 621.998 2.6964 628.445 3.13665C635.804 3.63922 643.248 3.25297 650.927 3.25297C659.003 24.6313 666.96 45.5481 674.802 66.496C683.136 88.7607 691.405 111.043 699.599 133.345C701.432 138.333 704.349 141.941 710.494 144.092C712.689 144.86 713.782 148.954 714.177 151.657C714.287 152.405 710.105 154.435 707.863 154.467C690.879 154.711 673.884 154.739 656.901 154.449C654.54 154.409 650.879 152.664 650.188 151.002C648.95 148.022 649.743 144.683 654.832 143.938C661.256 142.997 662.052 139.27 660.581 134.818C658.724 129.201 656.131 123.735 654.672 118.053C653.409 113.137 650.481 111.413 644.818 112.006C641.943 112.307 638.986 112.054 635.274 112.054ZM620.081 61.3182C615.961 72.3625 611.84 83.4069 607.667 94.592C621.045 94.592 633.523 94.592 646.416 94.592C640.295 76.608 634.37 59.1997 627.89 40.1602C625.045 47.9789 622.801 54.148 620.081 61.3182Z" fill="#002842"/>
<path d="M850.225 123.642C850.209 124.96 850.054 125.663 850.222 126.305C853.675 139.536 844.371 145.788 832.152 151.014C791.869 168.241 742.591 153.306 726.928 117.695C712.955 85.9274 713.607 54.3173 737.531 25.6032C757.059 2.16564 793.997 -5.89278 826.74 4.73651C831.299 6.21668 835.263 8.43353 840.422 4.44127C843.853 1.78615 848.622 3.99653 848.781 8.23684C849.228 20.1465 849.112 32.0772 848.818 43.9926C848.785 45.3328 846.119 47.7665 844.799 47.7072C842.017 47.5823 838.313 46.7814 836.811 45.0929C834.345 42.3212 833.621 38.4927 831.651 35.3393C825.588 25.6363 816.813 18.9009 803.183 18.3506C788.934 17.7752 776.906 22.3633 770.88 33.2398C765.688 42.6111 762.077 52.9863 760.253 63.2353C757.429 79.1019 758.496 95.1831 764.425 110.622C769.472 123.763 777.555 134.871 795.483 137.445C811.985 139.815 827.588 133.218 835.461 120.706C836.457 119.123 836.903 117.109 838.34 115.95C840.589 114.135 843.466 112.879 846.077 111.386C847.477 113.682 849.159 115.894 850.168 118.308C850.751 119.703 850.25 121.424 850.225 123.642Z" fill="#002842"/>
<path d="M1217.1 80.2367C1217.45 94.4698 1219.38 107.783 1226.69 120.144C1233.31 131.353 1243.83 137.825 1258.81 137.917C1274.09 138.011 1285.74 132.291 1293.48 120.928C1296.06 117.131 1296.63 110.348 1304.16 111.975C1311.4 113.541 1306.71 119.647 1307.94 123.608C1308 123.818 1307.94 124.056 1307.94 124.281C1307.99 142.754 1304.36 147.071 1283.43 153.391C1235.96 167.724 1191.13 146.982 1180.36 105.343C1174.55 82.8719 1175.53 60.6269 1186.69 39.247C1203.41 7.23505 1243.14 -7.44585 1282.56 3.6954C1288.29 5.31447 1293.91 9.0802 1300.04 3.92741C1300.47 3.56297 1306.83 6.39672 1306.91 7.89041C1307.62 20.0127 1307.59 32.1711 1307.45 44.3155C1307.43 45.5629 1305.02 47.9082 1303.97 47.8124C1301.14 47.5546 1297.61 46.8648 1295.89 45.2069C1293.74 43.1446 1293.31 39.8649 1291.82 37.241C1285.15 25.5114 1274.41 18.4215 1258.75 18.472C1243.1 18.5225 1232.44 25.5695 1225.97 37.4802C1218.7 50.8768 1217.02 65.0935 1217.1 80.2367Z" fill="#002842"/>
<path d="M1013.73 103.258C1013.74 113.829 1013.28 123.75 1014.03 133.605C1014.28 136.867 1016.71 141.092 1019.76 142.898C1026.52 146.889 1026.94 146.376 1025.23 154.201C1005.54 154.201 985.729 154.201 965.511 154.201C963.938 149.557 963.002 145.707 970.465 143.131C973.411 142.115 976.391 137.59 976.424 134.639C976.838 97.7573 976.747 60.8716 976.686 23.9872C976.677 19.1336 974.062 15.727 968.715 13.2221C966.605 12.2338 965.781 8.62003 965.38 6.08716C965.268 5.37476 968.729 3.45059 970.559 3.44268C1004.26 3.29694 1037.97 3.35588 1071.68 3.39639C1072.16 3.39697 1072.65 3.71327 1075.09 4.56479C1075.09 15.2659 1075.24 26.6697 1074.89 38.0626C1074.85 39.3217 1071.79 41.6665 1070.48 41.5048C1067.77 41.1703 1064.57 39.9752 1062.89 38.2273C1061 36.2663 1060.74 33.2305 1059.44 30.7919C1056.49 25.2818 1051.46 21.4603 1044.32 21.1058C1034.32 20.6088 1024.26 20.9803 1013.91 20.9803C1013.91 37.0418 1013.91 52.4657 1013.91 68.3876C1021.57 68.3876 1029.13 69.3237 1036.12 68.0273C1040.14 67.2813 1044.08 63.3689 1046.48 60.0593C1048.74 56.9423 1049.43 53.0064 1055.11 54.0264C1060.98 55.0821 1058.86 59.2517 1058.9 62.3318C1059.07 73.3505 1059.24 84.3774 1058.84 95.3864C1058.77 97.4055 1056.04 99.3557 1054.54 101.338C1052.42 100.033 1049.27 99.1157 1048.35 97.3607C1042.36 85.8656 1041.79 85.3931 1027.11 85.4435C1022.91 85.4581 1018.7 85.4458 1013.73 85.4458C1013.73 91.5042 1013.73 97.0429 1013.73 103.258Z" fill="#002842"/>
<path d="M881.709 154.631C876.406 150.091 876.575 145.938 882.196 144.117C888.244 142.159 890.229 138.605 890.23 133.728C890.233 97.2672 890.224 60.8059 890.113 24.3448C890.098 19.3241 887.871 15.4156 882.039 12.8984C879.99 12.0141 878.369 8.79001 878.428 6.67175C878.461 5.51012 882.378 3.49552 884.583 3.45669C900.513 3.17625 916.456 3.18111 932.387 3.44017C934.593 3.47607 938.472 5.30823 938.565 6.47984C938.735 8.62815 937.345 12.1135 935.395 12.9082C928.538 15.7024 926.665 20.1284 926.685 26.0448C926.801 61.3806 926.798 96.7168 926.753 132.053C926.746 137.608 927.812 142.028 935.152 144.337C937.245 144.995 938.117 149.29 938.619 152.039C938.723 152.613 934.738 154.445 932.613 154.475C915.883 154.711 899.147 154.649 881.709 154.631Z" fill="#002842"/>
<path d="M1110.41 124.79C1110.41 91.5096 1110.39 58.8924 1110.43 26.2753C1110.44 20.5555 1109.28 15.7538 1102.26 12.8649C1100.36 12.0856 1099.25 8.55943 1099.32 6.33058C1099.36 5.27046 1103 3.44996 1105.04 3.41687C1120.97 3.15934 1136.9 3.14977 1152.82 3.36493C1154.89 3.39283 1158.61 5.10378 1158.64 6.09746C1158.7 8.37481 1157.68 12.0582 1155.83 12.7511C1148.36 15.557 1147.01 20.4915 1147.01 26.5036C1147.04 61.5952 1146.99 96.6867 1146.94 131.778C1146.93 137.498 1147.79 142.366 1155.76 144.475C1157.63 144.972 1158.79 149.022 1159.02 151.52C1159.11 152.426 1155.52 154.448 1153.58 154.475C1137.13 154.7 1120.67 154.658 1104.21 154.463C1102.25 154.44 1098.75 153.108 1098.68 152.226C1098.48 149.755 1099.05 145.332 1100.47 144.973C1113.38 141.717 1109.91 132.931 1110.41 124.79Z" fill="#002842"/>
<path d="M1833.75 129.971C1833.76 114.968 1833.76 100.605 1833.76 85.7354C1815.96 85.7354 1798.58 85.7354 1780.58 85.7354C1780.45 87.4319 1780.22 89.1383 1780.21 90.8452C1780.18 105.019 1780.27 119.194 1780.14 133.367C1780.09 138.555 1781.44 142.36 1788.1 144.365C1790.08 144.962 1791.39 148.903 1791.51 151.365C1791.56 152.358 1787.61 154.383 1785.45 154.42C1769.52 154.693 1753.59 154.699 1737.66 154.453C1735.45 154.419 1731.31 152.224 1731.45 151.569C1732.05 148.881 1733.21 144.991 1735.52 144.117C1741.78 141.751 1743.38 137.973 1743.38 132.85C1743.38 97.077 1743.41 61.3042 1743.47 25.5313C1743.47 19.9082 1741.41 15.6647 1734.91 12.9756C1732.97 12.1773 1731.74 8.81551 1731.72 6.61741C1731.71 5.52638 1735.15 3.4803 1737.06 3.45177C1753.52 3.2062 1769.98 3.24058 1786.44 3.44341C1788.33 3.46674 1791.77 5.03532 1791.77 5.88333C1791.77 8.26233 1791.06 12.1812 1789.35 12.7561C1780.87 15.6043 1780.09 21.2037 1780.15 27.5974C1780.26 40.382 1780.18 53.1678 1780.18 66.4163C1798.27 66.4163 1815.59 66.4163 1833.51 66.4163C1833.51 51.1461 1833.74 36.1326 1833.27 21.1347C1833.2 18.688 1830.62 14.8848 1828.19 14.1723C1821.4 12.1774 1821.85 8.60254 1823.27 3.36204C1841.83 3.36204 1860.34 3.30904 1878.85 3.492C1879.98 3.50305 1882.06 5.43216 1881.99 6.38886C1881.85 8.60617 1881.32 12.2297 1879.79 12.7229C1870.85 15.6102 1870.48 21.5161 1870.51 28.1577C1870.63 62.5802 1870.59 97.0034 1870.48 131.426C1870.46 137.513 1871.46 142.453 1879.76 144.487C1881.5 144.911 1882.68 148.713 1882.89 151.039C1882.99 152.12 1880.18 154.407 1878.66 154.426C1860.15 154.663 1841.64 154.58 1822.9 154.58C1821.69 149.165 1820.82 145.179 1828.44 142.936C1834.89 141.037 1833.66 135.281 1833.75 129.971Z" fill="#002842"/>
<path d="M2709.72 97.2333C2717.16 109.208 2723.8 121.009 2731.67 132.185C2734.84 136.676 2740.97 139.601 2745.25 143.62C2747.4 145.638 2749.17 148.427 2749.58 151.042C2749.73 151.969 2745.43 154.346 2743.05 154.454C2733.78 154.875 2724.47 154.637 2715.18 154.672C2707.26 154.702 2701.54 151.961 2698.05 145.716C2688.78 129.082 2679.1 112.606 2670.07 95.8784C2667.46 91.0598 2664.6 88.4218 2657.51 90.4086C2657.51 105.657 2657.24 121.108 2657.79 136.537C2657.88 138.943 2661.17 142.474 2663.92 143.344C2669.1 144.983 2669.94 148.14 2668.55 151.203C2667.78 152.906 2663.56 154.372 2660.86 154.419C2644.19 154.709 2627.5 154.565 2610.48 154.565C2609.18 149.335 2608.24 145.341 2615.69 142.899C2618.4 142.011 2621.13 137.702 2621.16 134.934C2621.54 98.0329 2621.46 61.1283 2621.42 24.2246C2621.42 19.3816 2619.13 15.8615 2613.64 13.4177C2611.47 12.4546 2610.09 9.01124 2609.92 6.61786C2609.85 5.5976 2613.79 3.41088 2615.92 3.39134C2637.7 3.19259 2659.5 2.7835 2681.24 3.49954C2717.45 4.69176 2737.6 26.4619 2730.43 55.6613C2727.43 67.8733 2720.12 74.8455 2701.03 83.4099C2703.82 87.8686 2706.61 92.3384 2709.72 97.2333ZM2689.72 30.0821C2681.69 20.1044 2669.97 20.582 2657.87 21.4297C2657.87 38.9905 2657.87 55.9495 2657.87 73.4204C2661.77 73.4204 2665.17 73.5277 2668.55 73.4011C2681.09 72.9324 2690.03 67.5096 2692.56 57.9744C2694.97 48.9037 2695.52 39.7127 2689.72 30.0821Z" fill="#002842"/>
<path d="M2037.91 25.0444C2061.7 59.2239 2062.25 93.8022 2040.89 128.031C2027.46 149.566 2003.98 158.311 1975.78 157.331C1948.3 156.377 1927.29 145.506 1915.62 124.305C1899 94.0981 1898.58 63.0181 1916.13 33.1646C1939.8 -7.10788 2004.68 -11.2332 2037.91 25.0444ZM2005.04 32.0677C1998.79 23.0431 1990.05 17.5743 1977.15 18.4201C1964.22 19.2672 1956.84 26.2942 1951.67 35.4713C1950.19 38.0858 1949.03 40.8983 1948.28 43.7254C1942.38 65.9804 1942.08 88.3832 1948.12 110.551C1950.02 117.529 1954.12 124.653 1959.36 130.284C1970.23 141.982 1990.56 141.303 2001.33 129.552C2004.53 126.065 2007.63 122.082 2009.02 117.907C2018.58 89.3302 2019.7 60.8782 2005.04 32.0677Z" fill="#002842"/>
<path d="M1646.16 154.453C1626.14 154.596 1606.79 154.596 1587.24 154.596C1585.33 149.426 1584.52 145.533 1592.05 143.075C1594.83 142.169 1597.8 138.006 1597.83 135.307C1598.23 98.2184 1598.16 61.126 1598.13 24.0346C1598.13 19.0619 1595 15.9297 1589.96 13.3461C1587.77 12.2201 1586.38 8.9476 1586.18 6.55562C1586.1 5.59965 1590.19 3.45592 1592.41 3.43894C1614.42 3.27007 1636.49 2.66628 1658.45 3.66473C1702.19 5.65344 1725.2 39.9304 1704.87 72.1566C1694.65 88.3522 1676.68 93.7028 1656.53 95.1437C1649.7 95.6321 1642.79 95.221 1635.06 95.221C1635.06 109.277 1634.78 123.121 1635.33 136.943C1635.42 139.195 1638.69 142.764 1641.2 143.284C1649.57 145.02 1649.42 149.012 1646.16 154.453ZM1637.66 21.1484C1636.78 21.8053 1635.11 22.458 1635.11 23.1199C1634.97 41.2337 1635 59.3484 1635 77.3997C1650.14 78.4653 1659.67 76.9385 1664.63 71.3482C1674.9 59.7552 1675.41 46.7141 1669.47 33.6705C1664.15 21.9712 1652.02 20.4782 1637.66 21.1484Z" fill="#002842"/>
<path d="M2527.32 3.17983C2545.35 3.17872 2562.58 3.17872 2581.7 3.17872C2581.7 15.2016 2581.79 26.5901 2581.55 37.9739C2581.53 39.0401 2579.52 40.9071 2578.36 40.9538C2575.93 41.0513 2573.43 40.2163 2571 39.6615C2570.64 39.5791 2570.3 38.9616 2570.21 38.5502C2566.11 20.6597 2550.68 19.6482 2533.67 20.8249C2530 21.079 2526.28 20.862 2521.95 20.862C2521.95 36.6754 2521.95 52.0376 2521.95 67.8562C2528.88 67.8562 2535.47 68.1107 2542.03 67.7838C2548.44 67.4643 2551.34 63.7987 2553.52 58.9047C2554.51 56.6835 2558.38 55.3843 2560.95 53.6669C2562.47 55.8658 2565.22 58.0288 2565.31 60.2695C2565.77 71.5108 2565.72 82.777 2565.35 94.0223C2565.29 95.8605 2562.61 99.1772 2561.32 99.1171C2558.79 98.9998 2555.15 97.477 2554.13 95.6654C2548.38 85.39 2548.6 85.3091 2535.46 85.3786C2531.01 85.4022 2526.55 85.3823 2521.71 85.3823C2521.71 102.161 2521.71 118.27 2521.71 134.398C2533.98 134.398 2546.23 135.395 2558.06 133.94C2563.27 133.299 2567.93 127.922 2572.25 124.204C2574.36 122.387 2574.57 119.004 2576.65 117.136C2578.87 115.137 2582.29 114.088 2585.18 112.624C2586.33 114.836 2588.56 117.084 2588.46 119.254C2587.93 130.687 2586.81 142.101 2585.86 154.058C2548.78 154.058 2512.06 154.058 2475.11 154.058C2473.63 148.84 2473.77 145.088 2480.91 142.73C2483.52 141.868 2485.88 137.336 2485.91 134.462C2486.24 97.7735 2486.13 61.0824 2486.11 24.3921C2486.11 19.2536 2483.81 15.5664 2478.09 12.9619C2475.95 11.9915 2474.77 8.49234 2474.57 6.0626C2474.5 5.24088 2478.78 3.3677 2481.1 3.3283C2496.23 3.07168 2511.38 3.18717 2527.32 3.17983Z" fill="#002842"/>
<path d="M2211.06 39.0513C2214.71 9.72802 2247.58 -6.78105 2281.34 3.17087C2286.58 4.71542 2291.32 7.57477 2297.38 3.55597C2300.38 1.56429 2304.9 3.36542 2304.98 7.68181C2305.17 18.0333 2305.26 28.3934 2304.89 38.7377C2304.84 40.3851 2302.3 43.2511 2300.81 43.3003C2298.16 43.3878 2294.51 42.3675 2292.95 40.6912C2290.58 38.1405 2289.93 34.4958 2288.03 31.5633C2283.29 24.2842 2276.37 19.3069 2266.28 18.3372C2258.22 17.5619 2251.51 19.8104 2247.2 25.8266C2242.81 31.9553 2242.61 38.4795 2247.75 44.1778C2251.22 48.0286 2255.77 51.3975 2260.5 54.1715C2270.09 59.7953 2280.15 64.8331 2289.97 70.1759C2319.03 85.9844 2321.1 116.915 2307.96 135.73C2293.98 155.733 2260.07 163.173 2232.39 152.246C2230.23 151.394 2228.09 150.502 2223.91 148.799C2223.55 149.496 2223.32 151.194 2222.2 151.921C2217.06 155.264 2211.36 153.151 2211.23 147.692C2210.94 135.768 2210.93 123.834 2211.24 111.912C2211.29 110.329 2213.99 107.449 2215.28 107.521C2217.85 107.665 2221.35 108.9 2222.6 110.644C2225.86 115.213 2226.98 121.172 2231.05 124.961C2236.36 129.898 2243.07 134.52 2250.27 137.038C2261.33 140.904 2271.6 137.611 2277.09 130.549C2282.77 123.254 2281.99 111.672 2274.36 104.837C2269.68 100.652 2263.88 97.2962 2258.24 93.9839C2251.71 90.1482 2244.77 86.8265 2238.08 83.1806C2219.39 72.9936 2209.53 58.8373 2211.06 39.0513Z" fill="#002842"/>
<path d="M2375.2 119.454C2375.19 86.4373 2375.19 54.0943 2375.19 21.849C2357.61 19.5779 2350.41 23.1825 2344.8 36.5979C2344.18 38.0774 2343.99 40.2143 2342.74 40.8596C2340.49 42.0239 2337.54 42.8631 2334.99 42.6902C2333.72 42.6041 2331.73 39.9915 2331.7 38.4998C2331.51 28.1521 2331.57 17.7924 2332.05 7.45379C2332.12 6.02684 2334.99 3.50246 2336.58 3.4934C2375.59 3.27037 2414.6 3.31892 2454.92 3.31892C2454.92 15.9037 2455.06 27.9698 2454.7 40.025C2454.66 41.2484 2451.56 43.4094 2449.95 43.362C2447.52 43.2902 2444.72 42.0435 2442.88 40.5713C2441.54 39.4994 2441.56 37.2427 2440.88 35.5405C2435.77 22.6945 2428.63 19.2757 2411.55 22.009C2411.55 30.8157 2411.54 39.7689 2411.55 48.7221C2411.58 76.1799 2411.64 103.638 2411.62 131.096C2411.62 137.312 2412.47 142.691 2421.31 144.665C2423.03 145.049 2424.4 148.871 2424.49 151.145C2424.53 152.226 2421.19 154.348 2419.34 154.38C2402.35 154.667 2385.35 154.677 2368.35 154.526C2366.45 154.509 2363.06 153.073 2362.99 152.15C2362.8 149.711 2363.4 145.366 2364.85 144.992C2376.88 141.879 2375.17 133.754 2375.28 126.204C2375.31 124.179 2375.23 122.153 2375.2 119.454Z" fill="#002842"/>
<path d="M2837.4 11.5886C2835.47 5.54119 2837.39 2.9587 2844.94 3.23477C2857.34 3.68796 2869.77 3.35752 2882.09 3.35752C2883.75 8.56933 2883.65 11.8668 2877.42 14.3227C2873.81 15.7477 2870.76 19.4769 2868.98 22.7607C2857.89 43.1346 2847.18 63.6586 2836.5 84.1902C2835.48 86.1511 2835.15 88.504 2835.12 90.6793C2834.99 104.857 2835.1 119.036 2834.97 133.213C2834.92 138.45 2836.43 142.66 2843.22 143.885C2848.58 144.851 2848.2 148.449 2847.27 151.266C2846.77 152.744 2843.31 154.417 2841.16 154.448C2823.39 154.702 2805.61 154.592 2787.53 154.592C2786.17 149.628 2784.64 145.46 2792.6 143.282C2795.14 142.588 2797.9 138.566 2797.99 136C2798.53 121.16 2798.41 106.299 2798.22 91.4479C2798.19 89.1059 2796.99 86.6378 2795.75 84.4651C2784.08 64.0262 2772.51 43.5416 2760.33 23.3208C2757.98 19.4041 2752.79 16.7758 2749.5 13.1669C2747.7 11.1884 2746.55 8.4378 2746.34 5.96058C2746.27 5.16615 2750.16 3.35566 2752.25 3.33176C2768.45 3.14706 2784.66 3.18704 2800.85 3.45372C2802.86 3.48678 2806.5 5.29149 2806.47 6.2226C2806.42 8.5218 2805.42 11.9064 2803.46 12.8532C2798.43 15.274 2797.25 17.9112 2799.7 22.1982C2807.88 36.5327 2815.97 50.9068 2824.73 66.4043C2832.26 51.3464 2839.48 37.2737 2846.33 23.0749C2849.58 16.3399 2844.22 13.7395 2837.4 11.5886Z" fill="#002842"/>
<path d="M2089.02 107.309C2089.03 80.318 2088.98 54.0023 2089.09 27.6871C2089.12 21.2652 2088.29 15.7165 2079.96 12.7551C2078.31 12.1674 2077.71 8.20021 2077.86 5.84738C2077.92 4.91297 2081.32 3.41673 2083.22 3.39097C2099.67 3.16778 2116.13 3.13699 2132.58 3.31142C2134.42 3.33079 2137.76 4.9966 2137.75 5.88184C2137.73 8.25255 2136.96 12.1773 2135.26 12.7158C2126.72 15.4283 2125.8 20.9143 2125.82 27.3933C2125.89 61.1309 2125.94 94.8696 2125.64 128.606C2125.59 133.935 2127.3 135.926 2133.69 135.4C2138.94 134.967 2144.3 135.151 2149.6 135.373C2161.52 135.873 2169.3 131.271 2173.54 121.99C2174.4 120.105 2174.93 117.878 2176.47 116.507C2178.74 114.491 2181.79 113.102 2184.51 111.447C2185.78 113.741 2188.13 116.027 2188.15 118.33C2188.25 128.442 2187.43 138.56 2187.46 148.675C2187.47 153.49 2185.27 154.693 2179.88 154.667C2148.03 154.511 2116.18 154.686 2084.33 154.533C2082.02 154.522 2077.69 152.603 2077.79 151.907C2078.15 149.172 2079.11 145.035 2081.31 144.212C2087.62 141.849 2089.14 138.082 2089.06 132.95C2088.94 124.629 2089.02 116.306 2089.02 107.309Z" fill="#002842"/>
<path d="M1544.03 119.171C1541.43 118.508 1537.85 118.008 1537.03 116.463C1536.24 114.954 1538.27 112.379 1539.07 110.271C1539.77 110.306 1540.48 110.341 1541.19 110.376C1541.83 112.764 1542.47 115.151 1543.58 117.864C1544.12 118.419 1544.19 118.647 1544.03 119.171Z" fill="#002842"/>
<path d="M1543.8 119.466C1541.37 134.254 1531.94 144.953 1516.15 151.007C1491.29 160.545 1466.13 160.335 1441.64 149.911C1422.15 141.619 1414.79 126.832 1414.52 109.34C1414.09 82.1229 1414.37 54.8977 1414.4 27.6759C1414.41 21.3008 1413.49 15.6487 1405.12 12.7864C1403.48 12.2285 1402.7 8.71289 1402.64 6.53825C1402.61 5.50579 1405.18 3.50887 1406.59 3.49358C1425.64 3.28848 1444.68 3.35616 1463.89 3.35616C1464.95 8.0689 1466.18 11.7706 1459.72 13.8142C1454.01 15.6184 1452.49 20.0404 1452.5 24.8512C1452.59 52.9722 1452.34 81.0983 1452.92 109.212C1453.28 126.828 1465.5 136.018 1486.7 135.979C1508.47 135.94 1520.52 126.702 1522.6 109.09C1524.59 110.695 1525.65 112.397 1526.7 114.1C1527.35 113.934 1528 113.768 1528.66 113.602C1528.66 82.5751 1528.66 51.5478 1528.66 20.1926C1526.6 20.9423 1524.79 21.6047 1522.98 22.2671C1519.67 19.1174 1516.36 15.9676 1513.65 12.2586C1516.06 11.4915 1517.88 11.2839 1519.7 11.0762C1519.42 9.62949 1519.45 8.05605 1518.72 6.79977C1518.43 6.31196 1515.62 6.13843 1515.36 6.51273C1514.26 8.12364 1513.68 9.99109 1512.91 11.7651C1509.06 6.43504 1510.43 3.4294 1517.05 3.34355C1529.23 3.18556 1541.41 3.15329 1553.59 3.40735C1555.61 3.44956 1559.23 5.18779 1559.25 6.17804C1559.29 8.44411 1558.22 12.1777 1556.43 12.7673C1547.55 15.6928 1545.93 21.4008 1545.97 28.4333C1546.08 53.5642 1546.06 78.6961 1545.94 103.827C1545.92 108.292 1545.15 112.754 1543.92 117.379C1542.47 115.152 1541.83 112.764 1541.19 110.377C1540.48 110.342 1539.77 110.307 1539.07 110.272C1538.27 112.38 1536.24 114.955 1537.03 116.464C1537.85 118.009 1541.43 118.509 1543.8 119.466Z" fill="#002842"/>
<path d="M1522.82 22.7609C1524.79 21.6035 1526.6 20.9411 1528.66 20.1914C1528.66 51.5466 1528.66 82.5738 1528.66 113.601C1528 113.767 1527.35 113.933 1526.7 114.098C1525.65 112.396 1524.59 110.694 1523.01 108.705C1522.56 84.1787 1522.63 59.9395 1523.56 34.9473C1526.63 31.237 1528.72 28.2947 1523.1 26.2709C1522.96 25.2659 1522.81 24.2609 1522.82 22.7609Z" fill="#002842"/>
<path d="M1522.91 26.7734C1528.72 28.2948 1526.63 31.2371 1523.76 34.3438C1522.97 32.0873 1522.84 29.6815 1522.91 26.7734Z" fill="#002842"/>
<path d="M1512.98 11.7449C1513.68 9.98926 1514.26 8.12181 1515.36 6.5109C1515.62 6.13661 1518.43 6.31013 1518.72 6.79794C1519.45 8.05422 1519.42 9.62766 1519.7 11.0744C1517.88 11.2821 1516.06 11.4897 1513.62 11.7737C1513 11.8501 1513.06 11.7265 1512.98 11.7449Z" fill="#002842"/>
<path d="M180.298 170.09C189.498 180.091 198.264 189.712 207.192 199.18C208.545 200.615 210.523 201.778 212.425 202.329C228.034 206.851 235.648 217.486 237.438 233.524C238.069 239.176 243.636 244.217 246.701 249.677C248.804 253.424 256.56 256.371 251.072 261.404C245.993 266.061 242.73 259.353 239.729 256.211C234.286 250.513 229.395 246.029 220.168 245.77C204.806 245.339 194.591 233.159 193.807 218.046C193.708 216.143 192.932 213.838 191.654 212.498C169.952 189.765 148.122 167.155 126.967 145.189C116.489 155.058 105.967 164.68 95.7844 174.649C87.068 183.183 78.7257 192.1 70.2478 200.877C63.8137 207.538 57.7089 213.425 56.1966 224.166C54.252 237.98 42.2797 244.613 29.2242 246.278C22.4907 247.136 18.2977 249.878 14.4941 254.633C13.6486 255.69 12.8085 256.814 11.7504 257.626C8.86301 259.843 6.83994 265.646 2.0265 261.479C-2.83742 257.269 2.29518 254.205 4.53735 251.37C10.0638 244.382 14.6476 237.766 15.4269 227.895C16.4821 214.527 26.0162 206.58 38.8253 202.821C40.7622 202.253 42.9764 201.452 44.2674 200.034C66.1715 175.977 87.9499 151.806 110.3 127.057C95.5568 111.075 80.9043 95.1925 67.5504 80.7171C62.6702 80.3065 58.5121 81.0938 56.09 79.3988C54.0963 78.0035 54.1609 73.6646 52.9534 69.3414C49.0212 66.9583 43.3355 63.8119 37.9944 60.1611C34.8999 58.0458 32.0408 55.3867 29.6271 52.5095C20.7952 41.9808 20.2942 28.9669 28.16 21.531C35.7978 14.3106 47.7323 15.6546 57.4446 26.4498C63.8231 33.5395 68.3527 42.2938 73.9804 50.706C80.6915 49.026 84.2348 52.5822 82.3613 60.4797C82.0386 61.8406 82.9105 63.9599 83.9339 65.0939C97.551 80.1837 111.294 95.1601 125.733 110.962C140.389 95.2073 154.718 79.8045 169.032 64.4165C165.722 55.7242 169.31 50.7155 178.511 51.4232C181.219 39.466 186.972 29.3057 196.953 21.8299C204.508 16.1708 214.024 15.4194 220.44 19.9211C227.098 24.5929 229.358 33.2237 226.178 42.6316C222.271 54.1877 213.5 61.2168 203.213 66.7007C200.6 68.0935 197.78 69.0979 196.918 71.1078C195.787 74.6964 195.455 78.9518 193.227 81.6265C191.866 83.2602 187.59 82.4638 182.417 82.9782C169.839 96.3915 155.589 111.587 140.807 127.349C153.961 141.58 166.939 155.62 180.298 170.09ZM211.06 26.4152C195.211 27.902 192.234 41.4855 186.878 51.3164C189.166 55.1753 191.005 58.2749 192.784 61.2754C202.901 57.1971 212.773 51.7514 217.428 40.2548C219.872 34.2188 219.744 29.018 211.06 26.4152ZM41.471 26.0813C31.7306 27.1946 28.7679 32.449 33.1025 40.9865C38.2035 51.0339 47.3172 56.1144 57.7558 60.8912C59.1471 56.6086 62.4153 51.9787 61.3786 48.7184C58.3089 39.0628 52.8567 30.538 41.471 26.0813ZM44.2584 229.794C46.0028 226.14 47.7472 222.486 48.5751 220.751C43.982 217.157 40.9033 214.747 37.6591 212.208C25.6856 218.186 22.1519 226.343 27.2434 239.266C32.7039 236.357 38.0617 233.502 44.2584 229.794ZM225.42 233.568C226.295 232.01 228.053 230.359 227.901 228.908C227.012 220.395 220.483 213.759 211.041 211.426C212.201 218.147 209.359 220.457 202.943 217.95C203.842 228.717 212.17 237.288 221.504 237.318C222.506 237.322 223.514 235.471 225.42 233.568Z" fill="#CE8B31"/>
<path d="M343 19L343 273" stroke="#CE8B31" stroke-width="8" stroke-linecap="round"/>
</svg>
