<svg width="1206" height="1012" viewBox="0 0 1206 1012" fill="none" xmlns="http://www.w3.org/2000/svg">
<path d="M78.6377 144.84C78.6377 144.84 8.1377 132.84 5.1377 206.84C5.13757 523.34 4.1377 874.84 4.1377 874.84C16.8872 889.931 38.6377 911.84 38.6377 911.84L114.638 919.84C114.638 919.84 340.638 1009.34 672.138 1001.84C810.638 991.34 987.138 970.34 1090.14 919.34C1114.34 918.696 1152.14 915.34 1152.14 915.34C1152.14 915.34 1186.64 900.34 1193.14 868.84C1193.14 868.84 1197.14 225.34 1197.14 191.84C1177.14 144.84 1142.14 144.84 1142.14 144.84L1003.64 136.34C1003.64 136.34 856.138 2.33984 577.638 4.33984C577.638 4.33984 398.138 -6.16016 184.638 140.84C141.405 144 78.6377 144.84 78.6377 144.84Z" fill="#002842"/>
<path d="M1202.19 308.046C1202.19 491.087 1202.17 673.668 1202.21 856.25C1202.22 894.113 1170.5 923.577 1129.24 923.804C1119.74 923.857 1110.23 923.622 1100.74 923.869C1097.52 923.953 1093.79 924.353 1091.21 925.902C1067.93 939.894 1041.66 946.736 1015.26 953.355C965.585 965.808 915.462 976.463 864.844 985.129C813.566 993.908 761.956 1000.42 709.942 1004.21C662.057 1007.7 614.115 1009.08 566.104 1007.57C522.958 1006.21 479.982 1002.86 437.13 998C353.125 988.48 270.815 971.539 189.405 950.618C167.835 945.075 147.05 937.797 127.532 927.492C123.277 925.245 117.83 924.119 112.869 923.936C99.225 923.435 85.5235 924.178 71.8879 923.588C32.9396 921.903 3.0341 892.388 3.04068 856.515C3.08036 640.264 3.0695 424.012 3 207.761C2.98764 169.292 34.8873 139.437 76.7088 139.309C108.373 139.212 140.04 139.09 171.702 139.388C184.267 139.506 194.605 136.113 204.715 128.946C232.438 109.293 262.175 92.3533 293.066 77.1621C349.019 49.6463 407.881 29.3191 469.891 16.751C531.993 4.16429 594.742 0.335477 658.135 4.78368C730.564 9.86586 799.898 25.9763 865.957 53.774C914.493 74.1976 959.676 99.7247 1001.6 130.036C1010.62 136.559 1020.24 139.519 1031.5 139.46C1064 139.288 1096.49 139.298 1128.99 139.293C1170.13 139.286 1202.16 168.704 1202.21 206.578C1202.26 240.248 1202.2 273.918 1202.19 308.046ZM803.06 987.438C804.42 987.156 805.781 986.873 807.708 986.711C808.268 986.594 808.828 986.476 810.232 986.47C813.569 985.88 816.906 985.29 821.116 984.782C824.186 984.317 827.256 983.852 831.185 983.393C841.196 981.712 851.206 980.031 862.083 978.396C864.817 977.891 867.551 977.386 871.114 976.836C876.483 975.816 881.851 974.795 887.931 973.83C888.386 973.706 888.84 973.581 890.143 973.532C899.803 971.548 909.463 969.563 919.785 967.666C920.634 967.437 921.483 967.208 923.172 967.04C932.175 965.063 941.178 963.087 950.758 961.198C951.298 961.012 951.839 960.827 953.197 960.709C975.885 955.223 998.574 949.737 1021.98 944.26C1023.1 943.909 1024.23 943.557 1026.16 943.233C1046.34 938.279 1065.8 931.837 1083.82 921.85C1088.62 919.187 1094.58 918.279 1100.83 916.756C1111.26 916.686 1121.69 916.616 1132.77 916.743C1134.35 916.51 1135.92 916.276 1138.48 916.198C1139.46 916.027 1140.43 915.857 1142.23 915.72C1173.44 909.492 1194.61 885.74 1194.62 856.679C1194.64 752.47 1194.6 648.261 1194.59 544.052C1194.59 431.579 1194.69 319.106 1194.54 206.634C1194.51 183.36 1183.31 165.598 1160.82 153.661C1160.82 153.661 1160.39 153.656 1159.98 153.107C1153.03 151.189 1146.09 149.271 1138.37 147.054C1137 146.937 1135.63 146.819 1133.48 146.452C1101.01 146.436 1068.53 146.489 1036.06 146.349C1029.44 146.32 1022.82 145.563 1015.79 144.78C1015.24 144.724 1014.69 144.668 1013.53 144.25C1009.53 142.435 1005.23 141.034 1001.59 138.738C977.624 123.609 954.345 107.499 929.763 93.2825C910.701 82.2574 890.071 73.5185 869.65 63.2731C869.189 63.1624 868.728 63.0518 867.864 62.4957C862.362 60.2728 856.861 58.0499 850.812 55.4369C849.949 55.1641 849.086 54.8913 847.815 54.1749C834.925 49.6872 822.035 45.1996 808.537 40.2291C807.751 40.098 806.964 39.9669 805.75 39.3992C799.879 37.7337 794.008 36.0683 787.533 33.9583C786.778 33.8457 786.023 33.7332 784.75 33.2175C780.209 32.1499 775.668 31.0824 770.385 29.6646C769.579 29.5077 768.774 29.3508 767.382 28.889C762.97 27.9223 758.559 26.9556 753.605 25.5733C752.448 25.4226 751.291 25.272 749.538 24.6788C743.737 23.6498 737.936 22.6208 731.399 21.1932C730.003 21.0133 728.607 20.8335 726.656 20.2735C720.227 19.2853 713.798 18.2971 706.614 17.0874C704.495 16.8441 702.375 16.601 699.53 16.1207C696.396 15.8189 693.263 15.5171 689.277 14.9004C687.455 14.7459 685.633 14.5914 683.153 14.2092C678.497 13.785 673.841 13.3608 668.463 12.6348C666.021 12.5335 663.579 12.4322 660.379 12.0035C648.295 11.5564 636.212 11.1093 623.219 10.4572C618.188 10.4345 613.158 10.4118 607.33 10.1257C605.935 10.2241 604.539 10.3224 602.246 10.209C598.544 10.3273 594.843 10.4456 590.276 10.3393C585.894 10.5228 581.511 10.7063 576.454 10.7596C576.008 10.8427 575.563 10.9258 574.198 10.8301C560.172 12.0422 546.147 13.2543 531.402 14.3648C529.981 14.6213 528.561 14.8779 526.314 15.0067C522.565 15.5691 518.816 16.1316 514.321 16.6037C513.597 16.7719 512.872 16.94 511.381 17.005C504.272 18.229 497.162 19.453 489.208 20.6295C487.852 20.9422 486.495 21.2548 484.349 21.4951C478.613 22.6889 472.876 23.8828 466.271 25.058C464.893 25.4052 463.515 25.7524 461.341 26.0687C457.016 27.097 452.691 28.1253 447.623 29.0946C446.696 29.4089 445.768 29.7231 444.022 29.9673C439.688 31.1693 435.354 32.3713 430.247 33.5539C429.543 33.8111 428.839 34.0684 427.353 34.3035C418.917 36.7962 410.482 39.2889 401.258 41.8072C400.552 42.0981 399.845 42.3889 398.389 42.6784C328.789 64.5569 264.843 96.2227 206.094 136.762C196.576 143.329 186.196 146.367 174.563 146.383C142.576 146.427 110.587 146.472 78.6001 146.373C39.2189 146.251 10.5321 172.644 10.5586 208.811C10.6418 322.18 10.6057 435.548 10.6214 548.916C10.6353 649.586 10.7753 750.256 10.5454 850.926C10.5114 865.831 13.6989 879.445 22.8842 891.836C29.255 900.43 37.8025 906.389 48.3211 911.117C49.2407 911.25 50.1604 911.384 51.3217 912.148C54.5691 913.099 57.8166 914.05 61.7974 915.295C63.5906 915.522 65.3838 915.749 67.6737 916.171C68.1977 916.117 68.7218 916.063 69.8755 916.459C86.2957 916.569 102.716 916.68 119.891 917.059C121.111 917.313 122.431 917.373 123.534 917.854C129.403 920.411 135.357 922.844 141.025 925.742C159.291 935.081 178.964 940.837 199.442 945.776L199.904 945.881C199.904 945.881 200.372 945.809 201.033 946.221C236.68 954.305 272.326 962.39 308.603 970.988C311.446 971.346 314.289 971.704 317.65 972.446C325.756 973.927 333.863 975.408 342.593 977.411C345.692 977.772 348.791 978.133 352.431 978.882C363.665 980.584 374.899 982.287 386.861 984.34C387.674 984.385 388.487 984.429 389.979 984.722C399.037 985.915 408.094 987.107 417.925 988.583C419.293 988.725 420.661 988.867 422.78 989.252C426.566 989.617 430.352 989.983 434.854 990.687C435.65 990.734 436.445 990.782 437.991 991.076C442.371 991.474 446.751 991.871 451.987 992.63C453.859 992.733 455.73 992.835 458.222 993.199C461.858 993.511 465.493 993.824 469.75 994.459C470.219 994.45 470.689 994.442 471.694 994.698C472.093 994.672 472.493 994.646 473.686 994.836C476.534 995.026 479.383 995.216 483.017 995.657C488.725 996.017 494.433 996.377 501.019 997.024C504.693 997.195 508.367 997.367 512.729 997.821C519.513 998.199 526.298 998.577 533.85 999.235C538.613 999.343 543.376 999.451 548.9 999.876C577.358 1000.21 605.815 1000.69 634.274 1000.81C644.225 1000.85 654.181 1000.01 665.043 999.736C668.734 999.556 672.424 999.376 676.955 999.325C684.704 998.756 692.453 998.186 701.092 997.761C704.11 997.473 707.128 997.184 711.038 997.053C723.565 996 736.114 995.13 748.613 993.845C761.256 992.546 773.848 990.835 786.834 989.343C786.834 989.343 787.187 989.231 787.905 989.364C788.618 989.24 789.331 989.115 790.826 989.088C792.362 988.809 793.897 988.531 796.186 988.375C797.918 988.049 799.65 987.724 801.817 987.491C801.817 987.491 802.224 987.323 803.06 987.438Z" fill="#CE8B31" stroke="#CE8B31" stroke-width="6"/>
<path d="M476.304 48.9189C473.764 49.3992 471.637 49.96 469.517 49.9391C468.478 49.9288 467.452 48.8381 466.42 48.2365C467.205 47.2242 467.796 45.5625 468.808 45.3071C474.564 43.8538 480.397 42.6175 486.268 41.6248C487.216 41.4643 488.484 42.8948 489.604 43.5899C488.774 44.571 488.156 46.0382 487.071 46.439C484.205 47.4978 481.137 48.0945 477.885 48.807C477.32 48.7459 477.02 48.7529 476.304 48.9189Z" fill="white"/>
<path d="M555.255 32.3369C556.323 32.3056 557.39 32.2743 559.257 32.1501C565.068 31.9509 570.079 31.8446 575.09 31.7383C575.064 32.0241 575.148 32.2795 575.527 32.9018C575.629 33.879 575.548 34.4588 575.467 35.0385C574.123 35.4457 572.779 35.8529 570.701 36.2919C567.022 36.6327 564.076 36.9417 561.131 37.2508C558.237 37.0796 555.344 36.9084 552.387 36.2348C552.454 35.0528 552.584 34.373 552.714 33.6933C552.714 33.6933 553.072 33.4163 553.351 33.1528C554.171 32.7052 554.713 32.5211 555.255 32.3369Z" fill="white"/>
<path d="M639.619 976.526C638.219 977.737 636.646 979.565 634.894 979.724C629.655 980.198 624.346 980.018 618.602 980.163C617.874 980.081 617.64 979.896 617.342 979.151C617.009 973.28 621.915 975.887 624.387 974.73C628.008 974.723 631.641 974.563 635.245 974.786C636.651 974.873 637.993 975.823 639.619 976.526Z" fill="white"/>
<path d="M687.312 40.2587C685.07 39.3844 679.628 40.6375 684.258 35.3271C691.597 35.8568 698.321 36.6634 705.045 37.4701C705.108 38.8057 705.171 40.1413 704.726 41.7208C698.582 41.3961 692.947 40.8274 687.312 40.2587Z" fill="white"/>
<path d="M833.859 956.421C836.721 955.96 839.186 955.334 841.621 955.422C843.07 955.475 844.471 956.651 845.893 957.322C844.894 958.324 844.055 959.964 842.867 960.216C837.867 961.276 832.783 962.103 827.682 962.595C826.338 962.724 824.822 961.347 823.384 960.662C824.465 959.702 825.424 958.568 826.663 957.834C827.722 957.207 829.102 957.038 830.59 956.724C831.71 956.707 832.58 956.632 833.859 956.421Z" fill="white"/>
<path d="M664.713 34.4298C663.921 35.069 663.13 35.7082 661.866 36.7054C660.969 37.1833 660.546 37.3031 659.717 37.3264C657.92 37.2031 656.53 37.1763 654.721 36.9878C651.376 36.6991 648.449 36.5719 645.522 36.4447C643.798 36.2653 642.073 36.0858 640.211 35.3232C639.458 31.8022 641.067 31.0128 643.946 31.1813C648.995 31.477 654.054 31.6503 659.109 31.8749C660.717 32.748 662.325 33.6211 664.367 34.4072C664.801 34.3202 664.713 34.4298 664.713 34.4298Z" fill="white"/>
<path d="M35.495 250.713C35.2107 244.205 34.8392 237.709 34.7696 231.211C34.7622 230.527 36.5321 229.827 37.4775 229.134C38.2808 230.148 39.7466 231.146 39.7771 232.18C39.9439 237.828 39.7579 243.485 39.5642 249.54C39.1556 250.064 38.9071 250.228 38.2806 250.669C37.0872 250.848 36.303 250.79 35.5187 250.732C35.5187 250.732 35.4946 250.725 35.495 250.713Z" fill="white"/>
<path d="M1165.59 765.077C1165.4 759.618 1165.25 754.287 1165.61 748.984C1165.7 747.574 1167.33 746.25 1168.58 744.832C1169.42 745.275 1169.92 745.773 1170.63 746.447C1170.81 751.753 1170.98 756.895 1170.62 762.006C1170.51 763.562 1168.94 765.031 1167.71 766.591C1166.86 766.167 1166.34 765.692 1165.59 765.077Z" fill="white"/>
<path d="M39.7122 785.819C39.9366 791.291 40.12 796.643 39.7923 801.968C39.7053 803.38 38.0472 804.711 37.1105 806.08C36.219 804.695 34.6601 803.349 34.5593 801.917C34.2383 797.357 34.4537 792.765 34.4742 788.185C34.485 785.767 34.9672 783.769 38.7734 784.695C39.2193 785.078 39.3496 785.383 39.7122 785.819Z" fill="white"/>
<path d="M233.886 149.158C233.266 148.895 232.646 148.631 231.777 147.903C231.532 146.533 231.536 145.629 231.54 144.724C233.235 143.727 234.93 142.73 237.135 141.392C241.714 138.773 245.782 136.495 249.85 134.217C250.375 134.671 250.9 135.125 251.6 135.994C251.372 137.192 251.198 138.277 250.527 138.711C245.032 142.262 239.445 145.692 233.886 149.158Z" fill="white"/>
<path d="M37.2383 727.046C36.1994 726.563 34.8656 725.99 34.8462 725.381C34.6529 719.304 34.5849 713.219 34.7699 707.143C34.7899 706.486 36.6289 705.876 37.6241 705.244C38.375 706.313 39.7277 707.36 39.7745 708.454C39.9959 713.631 39.8605 718.82 39.8282 724.427C39.0539 725.546 38.3036 726.242 37.2383 727.046Z" fill="white"/>
<path d="M36.1293 744.896C37.5139 745.864 39.6063 746.942 39.7083 748.16C40.1131 752.995 40.0822 757.883 39.7832 762.73C39.7049 763.998 38.0779 765.186 37.1621 766.412C36.2666 765.216 34.6669 764.054 34.5981 762.82C34.3109 757.667 34.4836 752.493 34.4368 746.929C34.8981 746.044 35.4102 745.557 36.1293 744.896Z" fill="white"/>
<path d="M174.21 917.34C172.263 916.322 170.171 915.5 168.408 914.279C167.567 913.697 166.655 911.862 166.994 911.459C167.734 910.579 169.487 909.552 170.417 909.814C175.655 911.287 180.815 913.026 185.888 914.93C186.756 915.256 187.699 916.957 187.477 917.759C187.255 918.56 185.517 919.651 184.612 919.532C181.341 919.102 178.142 918.216 174.579 917.411C174.242 917.32 174.201 917.373 174.21 917.34Z" fill="white"/>
<path d="M1167.2 428.161C1168.49 429.057 1170.46 430.055 1170.54 431.171C1170.91 436.192 1170.93 441.255 1170.63 446.282C1170.56 447.466 1168.79 448.565 1167.8 449.704C1167 448.556 1165.57 447.434 1165.52 446.257C1165.27 440.919 1165.4 435.565 1165.42 429.795C1165.97 429.02 1166.5 428.669 1167.2 428.161Z" fill="white"/>
<path d="M597.388 975.764C598.801 978.879 597.467 980.19 594.147 980.167C588.823 980.129 583.499 980.099 577.795 980.127C576.964 979.896 576.514 979.604 575.707 978.893C574.498 975.356 576.559 974.81 579.202 974.837C584.952 974.895 590.702 974.981 596.452 975.055C596.624 975.324 596.86 975.531 597.388 975.764Z" fill="white"/>
<path d="M34.7856 567.988C34.7711 561.083 34.9892 554.382 35.4203 547.361C36.7606 547.236 37.888 547.431 39.3546 548.192C39.7367 554.8 39.7795 560.841 39.8223 566.882C38.2209 567.319 36.6196 567.755 34.7856 567.988Z" fill="white"/>
<path d="M34.6561 289.272C34.4527 283.756 34.2634 278.4 34.5902 273.07C34.6751 271.685 36.3731 270.384 37.3302 269.045C38.1767 270.339 39.6658 271.597 39.7537 272.934C40.0644 277.653 40.091 282.41 39.7769 287.128C39.6934 288.381 38.0051 289.545 36.7309 290.808C35.8931 290.391 35.3779 289.915 34.6561 289.272Z" fill="white"/>
<path d="M35.8951 199.097C36.2348 198.322 36.5745 197.546 37.0698 196.211C38.3218 193.468 39.4183 191.286 40.5147 189.104C41.5302 188.006 42.5457 186.908 44.0628 185.268C45.1636 186.686 45.9949 187.756 46.5284 189.343C44.1049 195.547 41.9793 201.235 39.8536 206.922C38.5801 206.974 37.3065 207.025 35.7163 206.767C35.2384 206.029 35.0772 205.601 35.01 204.876C35.0617 204.171 35.0194 203.763 35.1347 203.078C35.4932 201.566 35.6942 200.332 35.8951 199.097Z" fill="white"/>
<path d="M35.0506 845.012C34.7176 838.998 34.4625 833.073 34.5524 827.151C34.5679 826.133 36.051 825.133 36.8562 824.125C37.8388 825.13 39.6101 826.097 39.6712 827.148C39.9804 832.459 39.9768 837.798 39.7366 843.114C39.6961 844.011 37.9631 844.845 36.655 845.742C35.947 845.552 35.5961 845.327 35.0506 845.012Z" fill="white"/>
<path d="M35.1362 369.62C35.1362 369.62 35.0886 369.376 34.8787 368.92C35.0089 361.846 35.349 355.229 35.6892 348.612C36.8203 348.823 37.9515 349.035 39.4123 349.806C39.7711 356.42 39.8002 362.475 39.8294 368.53C39.3069 368.942 38.7843 369.355 37.8293 369.999C36.6433 370.026 35.8898 369.823 35.1362 369.62Z" fill="white"/>
<path d="M34.622 487.826C34.3998 481.731 34.4422 475.849 34.4265 469.568C36.0092 468.967 37.6499 468.765 39.546 469.142C39.8185 475.48 39.8357 481.239 39.8529 486.998C38.3137 487.813 37.7402 492.51 34.622 487.826Z" fill="white"/>
<path d="M39.5663 627.662C39.8096 633.096 40.05 638.445 39.7782 643.771C39.706 645.183 38.0586 646.528 37.1345 647.904C36.2314 646.547 34.6466 645.229 34.5506 643.826C34.2389 639.268 34.4565 634.678 34.5023 630.101C34.5261 627.73 34.8884 625.62 38.7753 626.721C39.0805 627.098 39.1743 627.349 39.5663 627.662Z" fill="white"/>
<path d="M39.5309 429.272C39.8035 434.762 40.0649 440.126 39.7894 445.467C39.7183 446.845 37.9603 448.149 36.9772 449.488C36.1359 448.195 34.6492 446.935 34.5695 445.604C34.2862 440.875 34.2908 436.11 34.6236 431.384C34.7135 430.109 36.3492 428.925 37.6403 427.718C38.4435 428.204 38.8817 428.671 39.5309 429.272Z" fill="white"/>
<path d="M1169.04 489.233C1167.78 488.362 1165.75 487.404 1165.67 486.324C1165.3 481.329 1165.29 476.29 1165.59 471.289C1165.66 470.08 1167.4 468.955 1168.38 467.792C1169.12 468.969 1170.49 470.138 1170.51 471.325C1170.6 476.932 1170.32 482.545 1170.04 488.512C1169.64 488.849 1169.39 488.922 1169.04 489.233Z" fill="white"/>
<path d="M1170.91 566.607C1169.28 567.135 1167.66 567.663 1165.77 567.57C1165.68 560.539 1165.86 554.129 1166.03 547.719C1167.52 547.99 1169 548.26 1170.6 549.163C1170.78 555.399 1170.85 561.002 1170.91 566.607Z" fill="white"/>
<path d="M266.929 938.85C266.478 939.085 266.027 939.32 264.981 939.57C258.348 938.344 252.31 937.103 246.272 935.862C245.525 934.918 244.779 933.973 243.683 932.587C245.626 932.219 247.936 931.782 250.941 931.499C256.402 932.712 261.169 933.771 265.936 934.83C266.027 935.065 266.197 935.232 266.761 935.696C267.025 936.992 266.977 937.921 266.929 938.85Z" fill="white"/>
<path d="M1167.95 268.894C1168.57 268.995 1169.34 269.226 1169.36 269.489C1169.68 276.207 1169.97 282.927 1170.08 289.65C1170.09 290.005 1168.12 290.891 1167.75 290.65C1166.8 290.035 1165.6 288.922 1165.6 288.007C1165.59 282.094 1165.88 276.18 1166.21 269.909C1166.81 269.381 1167.28 269.21 1167.95 268.894Z" fill="white"/>
<path d="M321.291 100.519C317.327 102.433 313.585 104.377 309.646 105.886C308.34 106.387 306.525 105.769 304.943 105.662C305.699 104.278 306.062 102.314 307.284 101.614C311.338 99.2919 315.613 97.239 319.992 95.48C321.587 94.8394 323.714 95.3141 325.598 95.28C324.489 96.8069 323.381 98.3338 322.064 100.123C321.855 100.385 321.436 100.38 321.291 100.519Z" fill="white"/>
<path d="M511.514 42.7288C508.287 40.0052 508.481 37.9916 511.971 37.4717C518.254 36.5358 524.615 36.0424 531.354 35.4834C531.766 35.6027 531.787 35.586 531.881 35.8977C531.604 37.4837 531.232 38.7579 530.861 40.0321C529.023 40.2925 527.186 40.5529 524.749 41.209C520.816 41.901 517.482 42.1972 514.148 42.4935C513.394 42.5449 512.64 42.5964 511.514 42.7288Z" fill="white"/>
<path d="M388.948 962.804C383.081 962.202 377.304 961.6 371.63 960.534C370.176 960.26 369.048 958.519 367.77 957.453C369.265 956.852 370.713 956.086 372.273 955.717C373.154 955.508 374.219 955.955 375.546 956.056C377.362 956.296 378.832 956.587 381.085 956.986C383.599 957.382 385.602 957.274 386.983 958.073C388.364 958.872 389.122 960.579 390.154 961.887C389.795 962.136 389.436 962.384 388.948 962.804Z" fill="white"/>
<path d="M1165.69 369.532C1165.47 364.001 1165.24 358.557 1165.55 353.139C1165.64 351.594 1167.3 350.124 1168.6 348.565C1169.48 349.097 1169.99 349.682 1170.72 350.475C1170.85 355.867 1170.73 361.052 1170.71 366.238C1170.7 368.648 1170.22 370.556 1166.57 370.426C1166.15 370.115 1166.05 369.861 1165.69 369.532Z" fill="white"/>
<path d="M1165.8 207.053C1163.69 201.443 1161.62 195.92 1159.75 190.34C1159.38 189.22 1159.78 187.88 1160 186.344C1161.92 187.219 1163.65 188.392 1165.74 190.078C1167.12 192.703 1168.14 194.815 1169.16 196.928C1169.28 197.989 1169.39 199.049 1169.7 200.707C1169.39 203.68 1172.96 208.067 1166.31 207.403C1166.21 207.264 1166.08 207.17 1165.8 207.053Z" fill="white"/>
<path d="M1169.56 824.536C1170.02 831.268 1170.16 837.874 1170.18 844.841C1167.29 846.166 1165.46 845.586 1165.47 842.57C1165.51 836.975 1165.67 831.38 1165.87 825.416C1167.05 824.834 1168.15 824.621 1169.56 824.536Z" fill="white"/>
<path d="M1167.15 309.262C1168.42 310.261 1170.33 311.429 1170.45 312.728C1170.86 317.437 1170.84 322.199 1170.57 326.921C1170.5 328.227 1168.98 329.463 1168.12 330.731C1167.23 329.486 1165.66 328.276 1165.58 326.988C1165.27 321.962 1165.43 316.911 1165.34 311.461C1165.83 310.532 1166.4 310.011 1167.15 309.262Z" fill="white"/>
<path d="M944.48 939.018C945.455 937.706 946.391 935.852 947.848 935.394C952.345 933.98 957.009 932.96 961.677 932.1C962.995 931.858 964.549 932.691 965.994 933.031C965.446 934.264 964.898 935.496 963.921 936.943C963.085 937.166 962.677 937.173 961.688 937.274C955.872 938.297 950.636 939.228 945.4 940.158C945.16 939.81 944.92 939.463 944.48 939.018Z" fill="white"/>
<path d="M916.174 947.251C914.671 947.5 913.168 947.749 910.867 948.162C908.29 948.028 906.511 947.728 904.731 947.429C905.309 946.172 905.886 944.915 906.463 943.658C906.992 943.634 907.522 943.61 908.691 943.476C914.886 942.605 920.442 941.846 925.998 941.086C925.998 941.086 926.054 941.448 926.209 941.926C925.302 943.472 924.447 944.961 923.128 945.511C920.969 946.412 918.507 946.702 916.174 947.251Z" fill="white"/>
<path d="M804.77 965.28C798.58 966.31 792.422 967.486 786.201 968.222C785.259 968.333 784.029 966.399 782.956 965.022C784.923 964.046 786.866 963.458 789.571 962.776C794.602 962.113 798.87 961.544 803.138 960.975C803.692 961.465 804.246 961.954 804.98 962.935C805.034 964.037 804.907 964.649 804.78 965.261C804.78 965.261 804.782 965.282 804.77 965.28Z" fill="white"/>
<path d="M214.782 922.485C218.148 923.301 221.261 923.921 224.113 925.082C225.428 925.618 226.232 927.214 227.267 928.329C225.866 928.802 224.501 929.451 223.054 929.695C221.795 929.908 220.445 929.665 218.691 929.562C218.046 929.245 217.845 928.991 217.015 928.79C214.306 928.19 212.226 927.537 210.146 926.883C209.97 926.599 209.704 926.453 208.824 926.321C207.417 925.005 206.535 923.813 205.652 922.622C207.105 922.256 208.54 921.799 210.018 921.562C210.794 921.437 211.643 921.696 212.459 921.781C213.114 922.024 213.769 922.266 214.782 922.485Z" fill="white"/>
<path d="M658.732 977.087C660.117 975.794 661.622 974.149 663.326 973.951C668.265 973.376 673.285 973.382 678.704 973.051C679.551 974.476 679.966 976.011 679.744 977.824C676.779 978.292 674.451 978.482 671.774 978.607C670.258 978.659 669.089 978.778 667.552 978.805C665.328 978.9 663.473 979.088 661.619 979.275C660.727 978.649 659.835 978.023 658.732 977.087Z" fill="white"/>
<path d="M426.107 963.165C427.532 963.409 428.884 963.423 429.639 964.046C430.474 964.734 431.184 966 431.132 966.978C431.101 967.573 429.466 968.644 428.655 968.568C422.872 968.027 417.097 967.342 411.37 966.437C410.494 966.299 409.876 964.787 409.139 963.911C410.235 963.179 411.346 961.81 412.423 961.832C415.729 961.9 419.021 962.502 422.729 962.842C424.016 962.926 424.894 963.064 426.107 963.165Z" fill="white"/>
<path d="M788.196 60.1787C782.142 58.814 776.202 57.446 770.4 55.6906C769.141 55.3096 768.38 53.5391 767.39 52.4085C768.777 51.9249 770.328 50.8066 771.522 51.0671C776.823 52.2233 782.073 53.6398 787.218 55.2857C788.391 55.661 789.076 57.3235 789.898 58.7267C789.327 59.3854 788.844 59.7109 788.196 60.1787Z" fill="white"/>
<path d="M425.142 56.2403C430.766 54.5628 436.137 53.0008 441.573 51.6595C443.035 51.2987 444.694 51.6092 446.605 51.7494C446.439 53.1139 445.932 54.3405 444.805 55.8076C440.462 57.1496 436.738 58.2512 433.013 59.3527C432.265 59.4648 431.516 59.5768 430.031 59.8792C427.911 60.0745 426.527 60.0796 425.143 60.0847C425.067 58.8694 424.991 57.6541 425.142 56.2403Z" fill="white"/>
<path d="M344.476 950.77C346.318 951.924 347.735 953.1 349.153 954.276C347.172 954.776 345.132 955.831 343.222 955.661C339.129 955.298 335.028 954.535 331.086 953.455C329.467 953.012 328.251 951.33 326.851 950.211C328.509 949.687 330.132 948.973 331.838 948.709C332.904 948.544 334.094 949.057 335.612 949.321C338.681 949.849 341.366 950.321 344.476 950.77Z" fill="white"/>
<path d="M861.519 81.9546C863.784 82.9672 865.816 83.7395 867.47 84.9477C868.24 85.5101 868.894 87.2773 868.495 87.853C867.979 88.5976 866.078 89.2989 865.259 88.9772C859.771 86.822 854.365 84.473 849.064 81.9532C848.315 81.5971 847.696 79.6949 848.079 79.0078C848.482 78.2848 850.254 77.7038 851.261 77.8778C853.011 78.1801 854.631 79.1109 856.627 79.8198C858.342 80.5387 859.737 81.2158 861.519 81.9546Z" fill="white"/>
<path d="M706.791 971.269C711.1 970.906 715.062 970.488 719.014 970.554C720.282 970.575 721.524 971.872 722.777 972.585C721.728 973.535 720.781 975.168 719.612 975.316C714.368 975.977 709.067 976.398 703.776 976.539C700.424 976.629 699.074 975.132 701.501 972.007C703.241 971.654 704.84 971.528 706.791 971.269Z" fill="white"/>
<path d="M534.319 977.977C533.663 977.217 533.007 976.456 531.916 975.19C533.555 974.52 535.034 973.915 537.219 973.352C543.913 973.868 549.9 974.343 555.888 974.819C555.925 975.754 555.962 976.689 555.51 978.105C548.12 978.383 541.22 978.18 534.319 977.977Z" fill="white"/>
<path d="M493.858 975.697C493.278 974.491 492.698 973.286 492.55 971.613C497.033 971.138 501.084 971.13 505.134 971.123C507.456 971.344 509.777 971.566 512.721 972.028C513.835 973.106 514.327 973.943 514.82 974.781C514.587 975.057 514.354 975.332 513.6 975.993C506.672 976.151 500.265 975.924 493.858 975.697Z" fill="white"/>
<path d="M214.131 163.196C209.285 165.707 204.764 168.144 200.033 170.166C197.59 171.21 194.937 171.278 195.405 167.124C195.766 166.785 195.994 166.702 196.602 166.236C200.414 164.507 203.832 163.112 207.165 161.562C209.867 160.306 212.467 158.864 215.112 157.505C217.721 159.648 217.051 161.414 214.131 163.196Z" fill="white"/>
<path d="M1003.84 164.832C1005.77 165.502 1007.54 165.992 1008.99 166.899C1009.76 167.382 1010.62 168.877 1010.33 169.404C1009.87 170.245 1008.11 171.388 1007.55 171.145C1001.64 168.567 995.82 165.792 990.084 162.889C989.594 162.641 989.561 160.385 989.882 160.256C991.041 159.793 992.687 159.356 993.706 159.789C996.388 160.928 998.838 162.529 1001.73 163.984C1002.57 164.29 1003.06 164.557 1003.84 164.832Z" fill="white"/>
<path d="M754.998 967.077C756.973 966.813 758.677 966.352 760.243 966.608C761.615 966.832 762.832 967.861 764.118 968.534C763.137 969.525 762.282 971.216 761.155 971.385C755.752 972.199 750.284 972.763 744.818 972.998C743.864 973.04 742.808 971.084 741.812 969.694C741.825 969.338 742.147 969.018 742.614 968.812C745.767 968.181 748.454 967.756 751.141 967.33C752.316 967.284 753.491 967.237 754.998 967.077Z" fill="white"/>
<path d="M1097.82 890.134C1103.28 890.075 1108.42 890.164 1113.57 890.187C1115.85 890.197 1118.08 890.141 1117.88 893.481C1117.52 893.836 1117.28 893.973 1116.63 894.525C1110.13 894.921 1104.13 895.03 1098.12 895.139C1097.47 894.847 1096.81 894.555 1095.84 893.849C1095.49 892.85 1095.44 892.265 1095.39 891.68C1096.1 891.205 1096.81 890.729 1097.82 890.134Z" fill="white"/>
<path d="M89.5793 893.908C88.9353 891.313 90.1099 890.165 92.9156 890.19C98.0645 890.236 103.223 890.038 108.358 890.278C109.591 890.336 110.75 891.715 111.943 892.486C110.625 893.302 109.337 894.765 107.983 894.82C102.351 895.047 96.6989 894.85 90.634 894.738C90.2225 894.36 90.084 894.125 89.5793 893.908Z" fill="white"/>
<path d="M67.0717 170.491C72.4091 170.07 77.6664 169.544 82.9276 169.51C84.111 169.502 85.3076 171.216 86.4981 172.137C85.2599 172.821 84.088 173.922 82.7689 174.099C80.3413 174.426 77.8271 174.21 75.0243 174.373C73.395 174.649 72.0903 174.77 70.0755 175.017C68.2573 175.429 67.1115 176.028 66.0509 175.921C64.7966 175.793 63.6159 175.055 62.4033 174.581C62.985 173.621 63.4068 172.523 64.1996 171.743C64.8183 171.135 65.898 170.922 66.7728 170.533C66.7728 170.533 66.993 170.564 67.0717 170.491Z" fill="white"/>
<path d="M999.433 928.537C995.908 929.407 992.714 930.317 989.45 930.658C987.824 930.828 986.069 929.958 984.373 929.558C985.545 928.406 986.494 926.686 987.932 926.21C992.132 924.819 996.483 923.712 1000.87 922.95C1002.42 922.682 1004.24 923.736 1005.93 924.186C1004.77 925.363 1003.6 926.539 1002.18 927.9C1001.19 928.17 1000.46 928.255 999.433 928.537Z" fill="white"/>
<path d="M461.813 967.521C464.766 967.757 467.454 967.84 469.985 968.461C471.135 968.744 471.974 970.092 472.954 970.957C471.76 971.73 470.534 973.2 469.377 973.154C464.235 972.954 459.084 972.488 454.004 971.732C452.632 971.527 451.498 969.97 450.255 969.034C451.692 968.335 453.061 967.424 454.589 967.01C455.624 966.73 456.882 967.148 458.446 967.197C459.729 967.29 460.606 967.439 461.813 967.521Z" fill="white"/>
<path d="M1026.96 915.823C1031.34 914.552 1035.43 913.238 1039.63 912.425C1040.95 912.17 1042.57 913.263 1044.06 913.74C1043.19 914.824 1042.56 916.483 1041.4 916.89C1036.92 918.47 1032.31 919.831 1027.66 920.925C1024.28 921.718 1022.36 920.71 1024.3 916.871C1025.21 916.394 1025.96 916.183 1026.96 915.823Z" fill="white"/>
<path d="M1132.66 174.439C1129.15 174.384 1126 174.467 1122.93 174.088C1121.82 173.952 1120.88 172.704 1119.86 171.963C1120.83 171.126 1121.82 169.543 1122.76 169.574C1128.5 169.761 1134.26 170.115 1139.94 170.885C1141.33 171.074 1142.44 173.022 1143.68 174.162C1142.05 174.632 1140.44 175.185 1138.78 175.526C1138.23 175.64 1137.54 175.212 1136.52 175.049C1135.1 174.842 1134.08 174.618 1132.66 174.439Z" fill="white"/>
<path d="M975.005 148.512C973.352 148.857 971.336 149.457 970.214 148.79C966.052 146.316 962.061 143.556 958.284 140.604C957.234 139.783 957.146 137.925 956.616 136.542C958.191 136.542 960.086 136.024 961.277 136.645C964.137 138.137 966.666 140.162 969.654 142.083C971.111 143.059 972.245 143.924 973.72 145.079C974.216 145.582 974.432 145.674 974.709 145.647C974.824 146.493 974.938 147.339 975.005 148.512Z" fill="white"/>
<path d="M928.644 115.874C932.373 118.017 935.946 119.959 939.164 122.312C940.253 123.108 940.442 124.941 941.042 126.3C939.453 126.324 937.532 126.89 936.334 126.273C932.009 124.047 927.832 121.543 923.822 118.863C922.833 118.201 922.686 116.477 922.273 114.9C922.395 114.559 922.343 114.553 922.747 114.461C924.401 114.537 925.652 114.706 926.902 114.875C927.384 115.194 927.866 115.514 928.644 115.874Z" fill="white"/>
<path d="M131.765 898.039C131.381 896.72 130.893 895.231 131.485 894.369C131.882 893.791 134.015 893.681 135.023 894.088C139.404 895.858 143.761 897.732 147.891 899.94C149.043 900.556 149.388 902.444 150.103 903.748C148.205 903.967 146.16 904.698 144.444 904.282C142.058 903.703 139.919 902.265 137.365 901.055C135.41 899.989 133.765 899.062 131.765 898.039Z" fill="white"/>
<path d="M1099.01 173.261C1092.33 173.794 1085.72 174.108 1079.11 174.083C1077.91 174.078 1076.72 172.677 1075.53 171.92C1076.72 171.095 1077.87 169.598 1079.09 169.557C1085.21 169.349 1091.36 169.52 1097.89 169.657C1098.56 170.813 1098.83 171.87 1099.01 173.261Z" fill="white"/>
<path d="M1032.22 169.954C1038.77 169.653 1045.23 169.394 1051.67 169.513C1052.82 169.534 1053.94 171.12 1055.08 171.984C1053.86 172.729 1052.66 174.08 1051.42 174.117C1045.3 174.299 1039.17 174.132 1032.57 174.034C1032.03 173.682 1031.87 173.435 1031.42 172.8C1031.26 171.696 1031.29 171.03 1031.32 170.363C1031.61 170.367 1031.88 170.288 1032.22 169.954Z" fill="white"/>
<path d="M129.886 170.225C131.122 173.12 129.877 174.285 126.783 174.251C121.473 174.194 116.152 174.378 110.859 174.095C109.512 174.023 108.252 172.576 106.953 171.761C108.348 170.98 109.712 169.59 111.145 169.526C116.774 169.273 122.424 169.439 128.525 169.441C129.202 169.673 129.42 169.913 129.886 170.225Z" fill="white"/>
<path d="M57.4857 892.187C56.0501 891.362 54.7288 890.629 53.9379 889.563C53.2556 888.644 53.1769 887.347 52.8313 886.217C54.1224 885.945 55.5835 885.174 56.674 885.488C60.609 886.622 64.4192 888.121 68.6549 889.532C69.0747 889.911 69.2664 890.125 69.9638 890.536C71.3708 893.685 69.7597 894.413 67.0936 894.222C64.8166 894.059 62.5461 893.821 60.2727 893.616C59.4585 893.122 58.6444 892.629 57.4857 892.187Z" fill="white"/>
<path d="M151.082 173.083C150.697 170.154 152.489 169.412 155.255 169.437C160.883 169.489 166.511 169.44 172.604 169.417C173.47 169.951 173.873 170.502 174.442 171.471C174.388 172.539 174.168 173.188 173.948 173.838C173.948 173.838 174.067 173.905 173.581 173.946C165.76 173.707 158.424 173.426 151.088 173.146C151.088 173.146 151.115 173.089 151.082 173.083Z" fill="white"/>
<path d="M1136.79 889.49C1140.38 888.37 1143.64 887.478 1146.87 886.496C1148.85 885.892 1150.92 883.402 1152.76 886.345C1154.56 889.236 1151.32 889.771 1149.46 891.184C1148.05 891.75 1146.86 892.12 1145.05 892.736C1143.33 893.352 1142.23 893.722 1141.13 894.092C1137.37 894.593 1134.95 893.887 1136.79 889.49Z" fill="white"/>
<path d="M1165.78 862.933C1166.96 863.137 1168.14 863.341 1169.58 863.97C1169.86 865.031 1169.9 865.67 1169.93 866.308C1169.61 867.325 1169.28 868.341 1168.71 869.899C1167.57 872.469 1166.69 874.499 1165.81 876.528C1165.37 876.867 1164.92 877.205 1163.99 877.692C1163.11 877.837 1162.72 877.833 1162.33 877.83C1161.83 877.682 1161.33 877.534 1160.51 877.016C1162.06 872.075 1163.92 867.504 1165.78 862.933Z" fill="white"/>
<path d="M39.8855 875.499C38.452 872.368 37.0094 869.584 36.211 866.652C35.9157 865.567 37.1359 864.135 37.6649 862.861C38.7741 863.728 40.2561 864.404 40.9171 865.499C42.4341 868.011 43.6583 870.689 44.773 873.379C45.1757 874.351 44.9264 875.551 44.8411 876.927C43.1824 876.734 41.6571 876.26 39.8855 875.499Z" fill="white"/>
<path d="M342.606 948.525C342.662 948.496 342.551 948.555 342.606 948.525Z" fill="white"/>
<path d="M534.687 15.5311C534.721 15.5814 534.654 15.4809 534.687 15.5311Z" fill="white"/>
<path d="M466.604 992.6C466.66 992.571 466.547 992.63 466.604 992.6Z" fill="white"/>
<path d="M425.586 988.085C425.62 988.135 425.552 988.035 425.586 988.085Z" fill="white"/>
<path d="M697.673 17.4442C697.729 17.4141 697.616 17.4743 697.673 17.4442Z" fill="white"/>
<path d="M37.8991 586.751C38.7981 587.92 39.7699 588.929 39.803 589.964C39.9628 594.963 40.0566 599.979 39.7296 604.964C39.6522 606.143 37.8594 607.227 36.8557 608.354C36.0598 607.209 34.6427 606.093 34.5764 604.913C34.3046 600.074 34.2275 595.203 34.5751 590.373C34.6695 589.062 36.5036 587.857 37.8991 586.751Z" fill="white"/>
<path d="M1165.54 393.832C1165.54 392.354 1165.24 391.159 1165.66 390.255C1166.06 389.419 1167.44 388.231 1168.02 388.382C1169.03 388.643 1170.46 389.798 1170.49 390.616C1170.7 396.268 1170.7 401.933 1170.48 407.584C1170.45 408.402 1168.93 409.173 1168.1 409.965C1167.24 409.007 1165.69 408.085 1165.63 407.085C1165.36 402.817 1165.54 398.526 1165.54 393.832Z" fill="white"/>
<path d="M34.5017 405.772C34.48 400.807 34.2591 396.236 34.5649 391.694C34.6503 390.427 36.292 389.248 37.2197 388.028C38.1117 389.281 39.6876 390.495 39.7731 391.792C40.0824 396.487 40.0763 401.22 39.7696 405.916C39.6836 407.231 38.1559 408.467 37.2896 409.74C36.3603 408.552 35.431 407.364 34.5017 405.772Z" fill="white"/>
<path d="M1165.49 594.725C1165.46 592.93 1165.1 591.472 1165.51 590.226C1165.91 589.004 1167.09 587.996 1167.93 586.895C1168.82 587.921 1170.43 588.918 1170.48 589.979C1170.73 595.125 1170.69 600.294 1170.44 605.442C1170.39 606.437 1168.95 607.374 1168.15 608.337C1167.26 607.281 1165.73 606.28 1165.62 605.156C1165.28 601.849 1165.5 598.493 1165.49 594.725Z" fill="white"/>
<path d="M737.148 48.0112C733.812 47.3735 730.808 47.0233 727.978 46.1819C726.872 45.8531 726.154 44.4209 725.26 43.4912C726.517 42.7708 727.908 41.2931 729.01 41.4569C734.747 42.3101 740.444 43.4617 746.067 44.8207C747.033 45.0542 747.569 46.7892 748.304 47.8305C747.149 48.4403 745.953 49.6131 744.848 49.5451C742.391 49.3939 739.979 48.6215 737.148 48.0112Z" fill="white"/>
<path d="M39.8955 510.77C39.9055 515.732 40.1388 520.322 39.7945 524.876C39.6889 526.272 38.0009 527.568 37.0375 528.909C36.1935 527.642 34.7051 526.409 34.6212 525.101C34.3193 520.388 34.3433 515.643 34.5828 510.925C34.6463 509.676 35.924 508.478 36.6441 507.257C37.7283 508.299 38.8125 509.342 39.8955 510.77Z" fill="white"/>
<path d="M39.9031 321.733C39.9057 323.999 40.2161 325.889 39.7976 327.631C39.5345 328.726 38.1781 329.6 37.3121 330.573C36.3395 329.557 34.5825 328.576 34.5272 327.52C34.2567 322.354 34.2836 317.161 34.5884 311.997C34.653 310.903 36.3192 309.89 37.2474 308.839C38.1332 309.945 39.6397 310.987 39.783 312.169C40.1478 315.178 39.9033 318.249 39.9031 321.733Z" fill="white"/>
<path d="M296.434 946.707C293.591 946.15 291.036 945.937 288.743 945.111C287.533 944.675 286.78 943.17 285.82 942.147C287.107 941.502 288.525 940.152 289.658 940.331C295.067 941.182 300.436 942.329 305.727 943.673C306.738 943.929 307.337 945.549 308.126 946.539C306.959 947.169 305.745 948.386 304.635 948.311C302.007 948.133 299.43 947.341 296.434 946.707Z" fill="white"/>
<path d="M286.768 117.505C281.843 120.414 277.285 123.258 272.461 125.649C271.198 126.275 269.109 125.494 267.399 125.358C268.137 124.045 268.51 122.24 269.68 121.505C274.067 118.744 278.665 116.251 283.306 113.856C284.255 113.366 285.73 113.734 286.962 113.707C286.987 114.895 287.012 116.083 286.768 117.505Z" fill="white"/>
<path d="M35.6171 686.799C35.0314 680.36 34.6748 674.158 34.6275 667.954C34.6213 667.144 36.2047 666.323 37.0518 665.508C37.9883 666.425 39.6901 667.311 39.7351 668.264C39.9944 673.752 40.0247 679.263 39.6872 684.744C39.6364 685.57 37.2488 686.274 35.6171 686.799Z" fill="white"/>
<path d="M823.029 66.6931C825.069 67.4545 826.972 67.8369 828.348 68.8339C829.24 69.481 829.362 71.0246 829.829 72.1665C828.692 72.5302 827.343 73.4514 826.453 73.1665C820.987 71.4189 815.574 69.5062 810.276 67.3717C809.295 66.9764 808.917 65.3196 808.26 64.2451C809.658 63.8386 811.231 62.8408 812.421 63.1371C815.919 64.0074 819.264 65.3918 823.029 66.6931Z" fill="white"/>
<path d="M343.765 87.8009C344.366 86.2642 344.84 84.3958 346.047 83.8182C350.877 81.5064 355.884 79.4808 360.949 77.634C361.946 77.2705 363.489 78.169 364.78 78.4855C364.462 79.5346 364.48 81.2176 363.774 81.5328C357.987 84.1158 352.082 86.4795 346.156 88.7877C345.634 88.991 344.711 88.3248 343.765 87.8009Z" fill="white"/>
<path d="M1165.88 627.326C1168.82 625.764 1170.51 626.397 1170.56 629.494C1170.64 634.54 1170.74 639.594 1170.47 644.628C1170.41 645.74 1168.86 646.785 1168 647.861C1167.17 646.726 1165.69 645.615 1165.64 644.45C1165.4 639.11 1165.56 633.754 1165.63 628.047C1165.68 627.691 1165.78 627.426 1165.88 627.326Z" fill="white"/>
<path d="M1169.5 705.853C1170.05 712.234 1170.39 718.41 1170.43 724.588C1170.43 725.346 1168.84 726.113 1167.98 726.875C1167.15 726.057 1165.62 725.266 1165.58 724.418C1165.34 718.957 1165.26 713.475 1165.58 708.022C1165.62 707.175 1167.93 706.437 1169.5 705.853Z" fill="white"/>
<path d="M1167.42 665.811C1168.74 666.777 1170.48 667.862 1170.57 669.045C1170.9 673.887 1170.91 678.767 1170.63 683.613C1170.55 684.885 1169 686.084 1168.12 687.317C1167.23 686.091 1165.66 684.905 1165.57 683.633C1165.25 678.942 1165.31 674.219 1165.48 669.516C1165.52 668.321 1166.52 667.155 1167.42 665.811Z" fill="white"/>
<path d="M903.955 102.573C904.697 103.994 905.131 105.225 905.565 106.456C904.221 106.596 902.594 107.255 901.583 106.788C896.702 104.537 891.923 102.078 887.268 99.4544C886.339 98.9308 886.105 97.3663 885.551 96.2817C886.964 95.9272 888.739 94.8908 889.728 95.3339C894.484 97.4648 899.028 99.995 903.955 102.573Z" fill="white"/>
<path d="M875.681 949.736C878.212 949.248 880.331 948.494 882.442 948.514C883.733 948.526 885.011 949.727 886.295 950.394C885.446 951.354 884.768 952.924 883.72 953.17C878.562 954.383 873.331 955.397 868.066 956.115C866.847 956.282 865.397 955.015 864.054 954.408C865.01 953.367 865.76 951.785 866.966 951.396C869.61 950.543 872.485 950.294 875.681 949.736Z" fill="white"/>
<path d="M1170.58 239.218C1170.6 242.545 1170.79 245.448 1170.52 248.313C1170.43 249.253 1169.12 250.094 1168.36 250.98C1167.42 250.102 1165.71 249.253 1165.67 248.339C1165.42 242.876 1165.42 237.392 1165.69 231.929C1165.73 231.015 1167.45 230.169 1168.4 229.291C1169.13 230.173 1170.37 230.997 1170.5 231.949C1170.81 234.193 1170.59 236.499 1170.58 239.218Z" fill="white"/>
<path d="M1170.39 804.522C1167.26 807.337 1165.69 806.03 1165.55 803.024C1165.3 797.879 1165.32 792.71 1165.6 787.569C1165.66 786.49 1167.32 785.484 1168.25 784.445C1169.05 785.57 1170.49 786.674 1170.53 787.823C1170.74 793.271 1170.56 798.73 1170.39 804.522Z" fill="white"/>
<path d="M600.758 30.0381C605.835 30.0207 610.494 29.7931 615.111 30.1037C616.678 30.2091 618.137 31.6726 619.646 32.5155C618.231 33.4125 616.872 34.9783 615.39 35.0844C610.443 35.4385 605.439 35.4681 600.486 35.1838C598.936 35.0947 597.48 33.6194 595.981 32.7786C597.429 31.8653 598.877 30.952 600.758 30.0381Z" fill="white"/>
<path d="M1165.5 522.625C1165.51 518.552 1165.29 514.884 1165.62 511.257C1165.74 509.895 1167.11 508.627 1167.92 507.315C1168.81 508.666 1170.36 509.973 1170.47 511.376C1170.81 515.766 1170.81 520.203 1170.51 524.598C1170.41 526.085 1169.04 527.5 1168.24 528.947C1167.33 527.589 1166.34 526.267 1165.54 524.852C1165.27 524.371 1165.5 523.655 1165.5 522.625Z" fill="white"/>
<path d="M402.209 63.1738C403.657 63.7941 404.745 64.5099 405.833 65.2257C405.022 66.1 404.398 67.3925 403.371 67.7781C398.17 69.7293 392.911 71.5752 387.562 73.1411C386.387 73.485 384.765 72.5395 383.348 72.1878C384.232 70.9762 384.826 69.1398 386.049 68.6617C391.214 66.6438 396.566 65.0306 402.209 63.1738Z" fill="white"/>
<path d="M1075.4 896.19C1078.94 897.408 1079.32 899.148 1076.34 900.991C1072.65 903.274 1068.92 905.551 1064.97 907.416C1063.84 907.953 1061.9 907.061 1060.33 906.824C1060.97 905.604 1061.25 903.89 1062.3 903.25C1066.42 900.749 1070.79 898.589 1075.4 896.19Z" fill="white"/>
<path d="M639.298 208.179C644.949 214.32 650.333 220.227 655.817 226.041C656.648 226.922 657.863 227.636 659.032 227.974C668.619 230.751 673.297 237.281 674.396 247.129C674.784 250.6 678.203 253.695 680.086 257.048C681.378 259.349 686.142 261.158 682.771 264.248C679.651 267.108 677.647 262.989 675.803 261.06C672.46 257.561 669.456 254.808 663.788 254.649C654.352 254.384 648.077 246.905 647.595 237.625C647.535 236.457 647.058 235.041 646.273 234.219C632.943 220.26 619.533 206.376 606.539 192.889C600.103 198.948 593.64 204.856 587.385 210.978C582.031 216.218 576.907 221.694 571.699 227.083C567.747 231.173 563.997 234.787 563.068 241.383C561.874 249.865 554.52 253.938 546.5 254.96C542.364 255.488 539.789 257.171 537.452 260.091C536.933 260.74 536.417 261.43 535.767 261.929C533.993 263.29 532.751 266.853 529.794 264.295C526.806 261.71 529.959 259.828 531.336 258.087C534.731 253.796 537.547 249.734 538.025 243.673C538.673 235.464 544.53 230.584 552.398 228.277C553.588 227.928 554.948 227.436 555.741 226.565C569.195 211.793 582.573 196.951 596.301 181.755C587.245 171.941 578.245 162.189 570.042 153.3C567.045 153.048 564.491 153.532 563.003 152.491C561.778 151.634 561.818 148.97 561.076 146.315C558.661 144.852 555.168 142.92 551.887 140.678C549.987 139.379 548.23 137.747 546.748 135.98C541.323 129.515 541.015 121.524 545.847 116.958C550.538 112.524 557.869 113.35 563.835 119.978C567.753 124.332 570.535 129.707 573.992 134.872C578.114 133.841 580.291 136.025 579.14 140.874C578.942 141.709 579.477 143.011 580.106 143.707C588.47 152.973 596.912 162.169 605.781 171.872C614.784 162.198 623.585 152.74 632.378 143.291C630.344 137.954 632.548 134.878 638.2 135.313C639.863 127.971 643.397 121.732 649.528 117.141C654.169 113.667 660.014 113.205 663.955 115.969C668.045 118.838 669.433 124.138 667.48 129.914C665.08 137.01 659.692 141.326 653.373 144.694C651.768 145.549 650.036 146.166 649.507 147.4C648.812 149.603 648.608 152.216 647.239 153.859C646.403 154.862 643.777 154.373 640.6 154.689C632.873 162.925 624.12 172.255 615.04 181.934C623.12 190.672 631.092 199.293 639.298 208.179ZM658.193 119.957C648.458 120.87 646.629 129.211 643.339 135.247C644.745 137.617 645.874 139.52 646.967 141.362C653.182 138.858 659.246 135.514 662.105 128.455C663.606 124.749 663.528 121.555 658.193 119.957ZM554.023 119.752C548.04 120.436 546.22 123.662 548.883 128.904C552.016 135.074 557.614 138.193 564.026 141.127C564.881 138.497 566.888 135.654 566.251 133.652C564.366 127.723 561.017 122.489 554.023 119.752ZM555.735 244.839C556.807 242.595 557.878 240.351 558.387 239.286C555.565 237.079 553.674 235.6 551.681 234.041C544.327 237.711 542.156 242.72 545.284 250.655C548.638 248.869 551.929 247.116 555.735 244.839ZM667.014 247.156C667.552 246.199 668.631 245.186 668.538 244.295C667.992 239.068 663.982 234.993 658.181 233.56C658.894 237.687 657.149 239.106 653.207 237.566C653.76 244.177 658.875 249.44 664.609 249.459C665.224 249.461 665.843 248.325 667.014 247.156Z" fill="#CE8B31"/>
<path d="M793.35 181.206C804.864 181.198 816.011 181.099 827.155 181.309C828.497 181.334 830.853 182.859 830.964 183.999C831.328 187.746 828.867 187.139 827.1 187.14C790.354 187.156 753.609 187.177 716.864 187.033C715.519 187.028 713.127 185.524 713.029 184.429C712.705 180.782 715.143 181.199 716.919 181.198C742.274 181.177 767.628 181.197 793.35 181.206Z" fill="#CE8B31"/>
<path d="M443.549 181.228C459.944 181.227 475.948 181.21 491.952 181.246C493.659 181.25 495.918 180.456 495.998 184.102C496.079 187.779 493.848 187.131 492.106 187.133C455.414 187.17 418.721 187.213 382.029 187.081C380.62 187.076 378.075 185.442 378.012 184.383C377.798 180.74 380.4 181.312 382.265 181.307C402.563 181.252 422.86 181.247 443.549 181.228Z" fill="#CE8B31"/>
<path d="M1076.37 631.278C1078.96 631.293 1081.27 631.035 1083.53 631.459C1084.41 631.625 1085.18 633.324 1086 634.325C1085.14 635.234 1084.3 636.84 1083.41 636.926C1080.13 637.242 1076.84 637.052 1073.55 637.053C936.408 637.064 799.27 637.075 662.131 637.084C660.537 637.084 658.907 637.371 657.361 636.93C656.502 636.684 655.782 635.209 655 634.287C655.826 633.299 656.573 631.992 657.501 631.42C658.28 630.94 659.271 631.316 660.168 631.316C798.801 631.303 937.435 631.291 1076.37 631.278Z" fill="#CE8B31"/>
<path d="M176.404 637.074C159.632 637.079 143.164 637.099 126.697 637.062C125.19 637.059 122.938 638.058 123.001 634.188C123.06 630.594 125.215 631.276 126.786 631.276C230.268 631.263 333.75 631.26 437.232 631.26C474.742 631.26 512.251 631.271 549.761 631.28C550.675 631.281 551.689 630.952 552.474 631.458C553.157 631.899 553.996 633.301 554 634.285C554.004 635.189 553.079 636.556 552.392 636.9C551.469 637.363 550.383 637.052 549.367 637.052C425.148 637.06 300.929 637.066 176.404 637.074Z" fill="#CE8B31"/>
<path d="M628.1 647.634C628.455 647.282 643 634.64 643 634.64L640.521 633.585C639.105 632.896 639.473 631.968 639.813 631.138C640.153 630.07 642.66 621.674 642.66 621.674C642.66 621.674 635.904 623.08 634.488 623.432C633.426 623.77 633.072 623.08 632.718 622.377C632.364 621.674 630.593 617.821 630.593 617.821C630.593 617.821 623.143 626.245 622.789 626.582C621.373 627.637 619.942 626.582 620.297 625.176C620.297 623.77 624.206 606.951 624.206 606.951C624.206 606.951 619.942 609.398 618.526 610.101C617.464 610.804 616.742 610.804 616.033 609.398C615.311 608.343 609.986 598.176 609.986 598.176C609.986 598.176 604.675 608.343 603.967 609.398C603.258 610.804 602.55 610.804 601.474 610.101C600.058 609.398 595.794 606.951 595.794 606.951C595.794 606.951 599.703 623.77 599.703 625.176C600.058 626.582 598.641 627.637 597.211 626.582C596.857 626.23 589.407 617.821 589.407 617.821C589.407 617.821 587.636 621.66 587.282 622.363C586.928 623.066 586.574 623.755 585.512 623.418C584.082 623.066 577.34 621.66 577.34 621.66C577.34 621.66 579.833 630.055 580.187 631.124C580.527 631.968 580.895 632.882 579.479 633.571L577 634.64C577 634.64 591.531 647.282 591.9 647.634C592.622 648.337 593.316 648.688 592.622 650.798C591.9 652.907 591.191 655.734 591.191 655.734C591.191 655.734 604.675 652.907 606.105 652.555C607.337 652.429 608.697 652.907 608.697 654.313C608.697 655.72 607.876 670.176 607.876 670.176H612.124C612.124 670.176 611.303 655.734 611.303 654.313C611.303 652.893 612.648 652.429 613.909 652.555C615.325 652.907 628.809 655.734 628.809 655.734C628.809 655.734 628.1 652.907 627.392 650.798C626.684 648.688 627.392 648.337 628.1 647.634Z" fill="#CE8B31"/>
<path d="M897.949 564.809V513.332H933.133L914.934 370.16H947.54L965.738 513.332H971.198L989.396 370.16H1022L1003.8 513.332H1038.99V564.809H897.949ZM897.949 364.798V313.856H1038.99V364.798H897.949ZM1042.02 564.809V313.856H1075.38V403.406H1086V457.028H1075.38V564.809H1042.02Z" fill="white"/>
<path d="M720.527 483.035L788.771 348.443V313.856H826.684V348.443L894.928 483.035H850.191L807.728 398.312L765.265 483.035H720.527ZM722.043 564.809V513.868H790.287V463.731H825.168V513.868H893.412V564.809H722.043Z" fill="white"/>
<path d="M547.665 452.739C514.302 452.739 498.378 429.681 498.378 383.834V380.081C498.378 334.233 514.302 311.176 547.665 311.176H590.128C623.34 311.176 639.416 334.233 639.416 380.081V383.834C639.416 429.681 623.492 452.739 590.128 452.739H547.665ZM588.612 404.479C602.261 404.479 606.81 395.631 606.81 382.762V381.153C606.81 368.284 602.261 359.436 588.612 359.436H549.182C535.533 359.436 530.983 368.552 530.983 381.153V382.762C530.983 395.363 535.533 404.479 549.182 404.479H588.612ZM642.449 452.739V313.857H675.813V328.067H686.428V373.646H675.813V389.733H686.428V435.312H675.813V452.739H642.449ZM533.865 564.81C516.121 564.81 503.231 551.672 503.231 512.796C503.231 473.92 516.121 460.782 533.865 460.782H646.695C664.439 460.782 677.329 473.92 677.329 512.796C677.329 551.672 664.439 564.81 646.695 564.81H533.865ZM640.174 519.231C643.055 519.231 644.724 517.622 644.724 512.796C644.724 507.97 643.055 506.361 640.174 506.361H540.386C537.505 506.361 535.836 507.97 535.836 512.796C535.836 517.622 537.505 519.231 540.386 519.231H640.174Z" fill="white"/>
<path d="M316.4 452.738V407.159H347.034L328.836 364.798H362.958L381.156 407.159H389.649L407.847 364.798H441.969L423.771 407.159H447.429V389.732H460.471V376.327H447.429V359.435H316.4V313.856H454.405V333.429H460.471V313.856H493.835V452.738H460.471V432.63H454.405V452.738H316.4ZM351.887 564.809C334.143 564.809 321.253 551.672 321.253 512.795C321.253 473.919 334.143 460.782 351.887 460.782H464.717C482.461 460.782 495.351 473.919 495.351 512.795C495.351 551.672 482.461 564.809 464.717 564.809H351.887ZM458.196 519.23C461.077 519.23 462.746 517.621 462.746 512.795C462.746 507.969 461.077 506.361 458.196 506.361H358.408C355.527 506.361 353.858 507.969 353.858 512.795C353.858 517.621 355.527 519.23 358.408 519.23H458.196Z" fill="white"/>
<path d="M135.132 564.809C127.853 564.809 123 556.23 123 543.36V313.856H235.224V367.479H153.331V411.985H234.465V462.927H153.331V507.165C153.331 509.578 154.241 511.187 155.606 511.187H235.982V564.809H135.132ZM241.29 564.809V313.856H272.379V400.993H279.203V313.856H310.292V564.809H279.203V459.977H272.379V564.809H241.29Z" fill="white"/>
<path d="M703.384 751.176C697.67 749.486 695.475 746.596 696.104 741.981C696.612 738.256 699.562 735.478 703.303 735.201C707.833 734.866 711.51 737.878 711.949 742.282C712.43 747.117 709.52 750.265 703.384 751.176Z" fill="#CE8B31"/>
<path d="M909.028 737.757C913.647 734.523 917.21 734.373 920.239 737.054C923.211 739.684 923.874 744.106 921.786 747.361C919.361 751.14 914.764 752.265 910.826 750.043C906.519 747.613 905.747 743.054 909.028 737.757Z" fill="#CE8B31"/>
<path d="M598.719 768.58L615.753 726.041H600.546V719.256H616.338V712.176H625.842V719.256H641.122V726.041H626.427L643.461 768.58H633.08L621.09 736.484L609.1 768.58H598.719ZM649.822 768.58V713.356H659.326V768.58H649.822Z" fill="white"/>
<path d="M542.179 768.58C539.108 768.58 537.792 767.164 537.792 764.686V752.06H582.242V748.225H537.792V741.735H591.747V758.255H547.297V760.792C547.297 761.736 547.735 762.09 549.563 762.09H591.747V768.58H542.179ZM530.043 739.198L547.662 721.498V713.356H557.166V721.498L574.785 739.198H564.404L552.414 727.988L540.424 739.198H530.043ZM567.621 728.46V721.675H582.242V713.356H591.747V739.611H582.242V728.46H567.621Z" fill="white"/>
<path d="M432.271 751.765C429.201 751.765 427.885 750.703 427.885 748.225V713.002H484.544V719.787H437.389V729.227H484.179V736.012H437.389V742.915C437.389 744.567 437.901 744.98 439.948 744.98H484.544V751.765H432.271ZM427.154 768.58V761.795H485.641V768.58H427.154Z" fill="white"/>
<path d="M360.315 768.58L377.935 729.876V713.356H387.439V729.876L405.058 768.58H395.554L382.687 740.142L369.82 768.58H360.315ZM411.418 768.58V713.356H420.922V768.58H411.418Z" fill="white"/>
<path d="M298.863 766.515C285.996 766.515 277.954 759.73 277.954 751.352C277.954 745.098 282.34 741.027 289.066 737.605C285.338 734.773 282.925 731.292 282.925 727.044C282.925 719.728 290.748 714.595 301.056 714.595C310.341 714.595 317.359 719.315 317.359 726.1C317.359 732 312.753 735.068 303.103 739.08C307.197 742.502 311.657 745.983 316.043 749.287C317.944 746.042 319.772 741.381 320.503 737.959L328.691 739.257C327.887 744.036 325.84 749.7 323.281 753.771C325.986 755.718 329.495 758.019 332.273 759.789L326.79 765.866C323.939 764.096 320.283 761.795 317.725 759.966L315.897 761.382C311.51 764.804 306.027 766.515 298.863 766.515ZM300.252 759.553C304.638 759.553 308.001 757.842 311.072 755.187C305.589 750.998 300.398 746.986 295.207 742.443C290.821 744.154 286.727 747.045 286.727 751.175C286.727 756.249 290.967 759.553 300.252 759.553ZM297.401 734.124C302.664 732.413 308.732 729.876 308.732 726.336C308.732 722.796 305.369 720.967 300.983 720.967C295.207 720.967 291.99 722.973 291.99 726.454C291.99 729.345 294.476 732.295 297.401 734.124Z" fill="white"/>
<path d="M186.765 768.58V761.795H195.684L194.807 722.501H204.092L204.75 761.795H214.108L214.766 722.501H224.051L223.173 761.795H232.092V768.58H186.765ZM187.131 720.141V713.356H231.727V720.141H187.131ZM235.967 768.58V713.356H245.471V734.95H252.417V741.735H245.471V768.58H235.967Z" fill="white"/>
<path d="M123 750.29L147.491 722.206V713.356H156.995V722.206L181.487 750.29H169.278L152.243 730.525L135.209 750.29H123ZM123 768.58V761.795H147.199V749.287H156.703V761.795H181.487V768.58H123Z" fill="white"/>
<path d="M820.533 767.4C817.501 767.4 816.202 765.984 816.202 763.506V737.074H847.164V718.961H816.202V712.176H856.258V743.682H825.585V759.317C825.585 760.261 826.018 760.615 827.822 760.615H856.98V767.4H820.533ZM864.847 767.4V712.176H874.229V767.4H864.847Z" fill="white"/>
<path d="M748.303 740.693L773.72 721.42V712.605H783.583V721.42L809 740.693H795.192L778.652 728.353L762.112 740.693H748.303ZM773.417 767.605V753.209H748V746.452H808.697V753.209H783.28V767.605H773.417Z" fill="white"/>
<path d="M1019.99 768.58L1031.89 726.631H1021.8V719.846H1032.47V712.176H1041.91V719.846H1052.07V726.631H1042.49L1054.97 768.58H1044.09L1037.19 736.484L1030.3 768.58H1019.99ZM1058.02 768.58V741.263H1049.02V734.478H1058.02V713.356H1066.73V768.58H1058.02ZM1072.17 768.58V713.356H1080.88V768.58H1072.17Z" fill="white"/>
<path d="M1000.54 750.467V720.141H954.161V713.356H1008.16C1009.4 713.356 1009.98 713.828 1009.98 714.831V750.467H1000.54ZM953 768.58V761.5H963.96V738.667H973.395V761.5H984.282V738.667H993.718V761.5H1011.06V768.58H953Z" fill="white"/>
<path d="M456.233 841.291V859.531H400.435V861.679C400.435 861.884 400.463 862.005 400.502 862.081C400.535 862.146 400.592 862.214 400.723 862.28C401.028 862.435 401.626 862.533 402.779 862.533H456.233V870.307H393.51C391.533 870.307 390.026 869.93 389.005 869.14C387.959 868.33 387.504 867.15 387.504 865.742V852.066H443.303V849.064H387.504V841.291H456.233ZM412.824 811.676V820.439L424.029 829.821V827.253H443.303V823.327H424.029V815.432H443.303V811.676H456.233V840.075H443.303V835.149H430.412L434.761 838.759L435.826 839.644H421.238L421.103 839.539L406.358 828.078L391.614 839.539L391.479 839.644H376.896L377.955 838.76L399.893 820.438V811.676H412.824Z" fill="#CE8B31" stroke="#CE8B31"/>
<path d="M350.357 811.676V834.826H360.371V811.676H373.302V870.307H360.371V842.907H350.357V870.307H306.265C303.995 870.307 302.053 869.8 300.663 868.867C299.26 867.926 298.423 866.548 298.423 864.881V811.676H350.357ZM311.354 861.802C311.354 861.89 311.388 861.975 311.511 862.057C311.646 862.147 311.885 862.226 312.23 862.226H337.427V819.757H311.354V861.802Z" fill="#CE8B31" stroke="#CE8B31"/>
<path d="M268.526 811.676V834.826H278.724V811.676H291.654V870.307H278.724V842.907H268.526V870.307H255.596V844.385H217.326V836.305H255.596V819.757H216.5V811.676H268.526Z" fill="#CE8B31" stroke="#CE8B31"/>
<path d="M734.996 862.595V870.676H660.576V862.595H734.996ZM733.619 811.676V819.757H674.425V828.607H733.16V836.688H674.425V843.393C674.425 844.216 674.582 844.525 674.846 844.701C675.003 844.807 675.245 844.898 675.63 844.959C676.013 845.02 676.504 845.047 677.137 845.047H733.619V853.128H667.5C665.547 853.128 664.045 852.851 663.023 852.166C661.955 851.449 661.494 850.346 661.494 848.934V811.676H733.619Z" fill="#CE8B31" stroke="#CE8B31"/>
<path d="M597.349 812.044V823.065H643.612V812.044H656.543V851.218H626.808V862.594H657.92V870.675H583.5V862.594H613.877V851.218H592.26C589.99 851.218 588.049 850.711 586.658 849.778C585.255 848.837 584.418 847.459 584.418 845.792V812.044H597.349ZM597.349 842.714C597.349 842.802 597.384 842.886 597.506 842.968C597.641 843.059 597.879 843.138 598.225 843.138H643.612V831.146H597.349V842.714Z" fill="#CE8B31" stroke="#CE8B31"/>
<path d="M934.107 812.724L934.234 813.033L953.977 861.017L974.979 813.023L975.111 812.724H988.689L988.376 813.428L964.79 866.316V866.317C964.337 867.331 963.688 868.056 962.767 868.516C961.864 868.966 960.742 869.138 959.378 869.138H948.548C946.957 869.138 945.801 868.936 944.935 868.46C944.046 867.972 943.525 867.233 943.132 866.31V866.308L920.83 813.418L920.537 812.724H934.107Z" fill="#CE8B31" stroke="#CE8B31"/>
<path d="M892.735 812.724C901.035 812.724 907.347 814.113 911.598 816.965C915.883 819.84 918.014 824.162 918.014 829.848V833.911C918.014 839.633 915.77 844.028 911.525 846.85L920.363 868.448L920.646 869.138H907.259L907.136 868.817L900.118 850.588C897.902 850.868 895.441 851.036 892.735 851.036H875.431V869.138H862.5V812.724H892.735ZM875.431 842.955H896.406C899.168 842.955 901.347 842.512 902.822 841.558C904.259 840.628 905.083 839.179 905.083 836.99V826.831C905.083 824.594 904.315 823.135 902.92 822.206C901.484 821.25 899.311 820.805 896.406 820.805H875.431V842.955Z" fill="#CE8B31" stroke="#CE8B31"/>
<path d="M514 842.877C514.195 838.375 515.875 835.184 519.943 833.737C524.725 832.036 529.536 834.315 531.466 839.039C533.09 843.018 530.873 848.269 526.69 850.347C522.822 852.268 517.873 850.757 515.395 846.77C514.749 845.73 514.49 844.454 514 842.877Z" fill="#CE8B31"/>
<path d="M807.466 834.938C811.774 838.284 813.229 842.147 810.887 846.943C808.953 850.901 805.694 852.673 801.451 852.056C797.085 851.421 794.767 848.426 794.122 844.144C793.028 836.889 799.456 832.274 807.466 834.938Z" fill="#CE8B31"/>
</svg>
