<svg width="2365" height="262" viewBox="0 0 2365 262" fill="none" xmlns="http://www.w3.org/2000/svg">
<rect x="1498" y="131" width="867" height="127" rx="13" fill="#002842"/>
<path d="M1785.23 194.753V216.857H1729.43V219.599C1729.43 220.126 1729.55 220.324 1729.76 220.455C1730.05 220.636 1730.63 220.757 1731.78 220.757H1785.23V230.047H1722.51C1720.51 230.047 1718.99 229.579 1717.97 228.61C1716.94 227.636 1716.5 226.238 1716.5 224.572V207.943H1772.3V204.044H1716.5V194.753H1785.23ZM1741.82 158.5V169.197L1753.03 180.683V177.568H1772.3V172.539H1753.03V163.098H1772.3V158.5H1785.23V193.04H1772.3V187.011H1759.22L1763.8 191.662L1764.63 192.513H1750.21L1750.06 192.375L1735.36 178.382L1720.65 192.375L1720.51 192.513H1706.09L1706.92 191.663L1728.89 169.197V158.5H1741.82Z" fill="white" stroke="white"/>
<path d="M1679.36 158.5V186.84H1689.37V158.5H1702.3V230.047H1689.37V196.507H1679.36V230.047H1635.26C1632.97 230.047 1631.02 229.42 1629.62 228.275C1628.22 227.124 1627.42 225.473 1627.42 223.518V158.5H1679.36ZM1640.35 219.749C1640.35 219.941 1640.43 220.081 1640.55 220.183C1640.68 220.291 1640.91 220.38 1641.23 220.38H1666.43V168.168H1640.35V219.749Z" fill="white" stroke="white"/>
<path d="M1597.53 158.5V186.84H1607.72V158.5H1620.65V230.047H1607.72V196.507H1597.53V230.047H1584.6V198.316H1546.33V188.648H1584.6V168.168H1545.5V158.5H1597.53Z" fill="white" stroke="white"/>
<path d="M2064 220.832V230.499H1989.58V220.832H2064ZM2062.62 158.5V168.168H2003.42V179.227H2062.16V188.895H2003.42V197.213C2003.42 198.255 2003.59 198.699 2003.88 198.938C2004.04 199.065 2004.27 199.172 2004.65 199.245C2005.02 199.318 2005.51 199.351 2006.14 199.351H2062.62V209.019H1996.5C1994.53 209.019 1993.01 208.676 1991.98 207.831C1990.93 206.966 1990.49 205.663 1990.49 203.996V158.5H2062.62Z" fill="white" stroke="white"/>
<path d="M1926.35 158.953V172.444H1972.61V158.953H1985.54V206.683H1955.81V220.833H1986.92V230.5H1912.5V220.833H1942.88V206.683H1921.26C1918.97 206.683 1917.01 206.056 1915.62 204.911C1914.22 203.759 1913.42 202.109 1913.42 200.153V158.953H1926.35ZM1926.35 196.385C1926.35 196.577 1926.42 196.717 1926.54 196.818C1926.68 196.927 1926.9 197.016 1927.22 197.016H1972.61V182.112H1926.35V196.385Z" fill="white" stroke="white"/>
<path d="M2263.13 159.777L2263.25 160.118L2282.98 218.822L2303.97 160.109L2304.09 159.777H2317.63L2317.39 160.448L2293.8 225.192C2293.36 226.397 2292.73 227.276 2291.8 227.841C2290.89 228.398 2289.75 228.611 2288.38 228.611H2277.55C2275.95 228.611 2274.77 228.362 2273.9 227.772C2273.01 227.177 2272.5 226.287 2272.12 225.186L2272.12 225.184L2249.82 160.44L2249.59 159.777H2263.13Z" fill="white" stroke="white"/>
<path d="M2221.74 159.777C2230.05 159.777 2236.38 161.483 2240.64 164.979C2244.91 168.49 2247.01 173.739 2247.01 180.628V185.602C2247.01 192.572 2244.77 197.932 2240.49 201.377L2249.37 227.952L2249.59 228.611H2236.24L2236.12 228.261L2229.09 205.908C2226.88 206.248 2224.43 206.452 2221.74 206.452H2204.43V228.611H2191.5V159.777H2221.74ZM2204.43 196.784H2225.41C2228.15 196.784 2230.32 196.246 2231.78 195.084C2233.23 193.94 2234.08 192.124 2234.08 189.37V176.935C2234.08 174.129 2233.29 172.298 2231.88 171.15C2230.45 169.986 2228.3 169.445 2225.41 169.445H2204.43V196.784Z" fill="white" stroke="white"/>
<path d="M1847.44 185.152C1853.01 183.169 1858.63 185.841 1860.87 191.326C1862.79 196.021 1860.17 202.117 1855.32 204.526C1850.77 206.787 1845 204.996 1842.13 200.368C1841.74 199.739 1841.47 199.051 1841.23 198.317C1841.12 197.951 1841.01 197.566 1840.89 197.17C1840.78 196.772 1840.66 196.359 1840.52 195.927L1840.5 195.844L1840.5 195.757C1840.61 193.203 1841.14 190.974 1842.26 189.165C1843.39 187.347 1845.08 185.99 1847.44 185.152Z" fill="#CE8B31" stroke="#CE8B31"/>
<path d="M2124.47 187.419C2127.28 185.454 2131.29 184.889 2135.69 186.236L2136.12 186.373L2136.2 186.4L2136.27 186.452C2138.71 188.348 2140.39 190.429 2141.11 192.766C2141.83 195.115 2141.56 197.652 2140.21 200.405C2139.1 202.678 2137.59 204.357 2135.72 205.372C2133.85 206.388 2131.65 206.717 2129.21 206.361C2126.68 205.993 2124.71 204.934 2123.28 203.322C2121.86 201.717 2121.01 199.597 2120.64 197.15C2120.01 192.947 2121.55 189.456 2124.47 187.419Z" fill="#CE8B31" stroke="#CE8B31"/>
<path d="M2023.23 60C2016.09 57.8872 2013.34 54.2758 2014.13 48.5062C2014.76 43.8508 2018.45 40.3781 2023.13 40.0318C2028.79 39.6127 2033.39 43.3773 2033.94 48.8828C2034.54 54.9267 2030.9 58.8613 2023.23 60Z" fill="#CE8B31"/>
<path d="M2203.54 43.2262C2209.31 39.1842 2213.76 38.9962 2217.55 42.348C2221.26 45.6357 2222.09 51.1626 2219.48 55.2311C2216.45 59.9552 2210.71 61.3611 2205.78 58.5835C2200.4 55.546 2199.43 49.8479 2203.54 43.2262Z" fill="#CE8B31"/>
<path d="M1934.72 92.9989L1951.75 24.369H1936.55V13.4225H1952.34V2H1961.84V13.4225H1977.12V24.369H1962.43L1979.46 92.9989H1969.08L1957.09 41.2171L1945.1 92.9989H1934.72ZM1985.82 92.9989V3.90374H1995.33V92.9989H1985.82Z" fill="#CE8B31"/>
<path d="M1878.18 92.9975C1875.11 92.9975 1873.79 90.713 1873.79 86.7152V66.3451H1918.24V60.158H1873.79V49.6874H1927.75V76.3398H1883.3V80.4328C1883.3 81.9558 1883.74 82.5269 1885.56 82.5269H1927.75V92.9975H1878.18ZM1866.04 45.5943L1883.66 17.0382V3.90234H1893.17V17.0382L1910.79 45.5943H1900.4L1888.41 27.5088L1876.42 45.5943H1866.04ZM1903.62 28.2703V17.3237H1918.24V3.90234H1927.75V46.2606H1918.24V28.2703H1903.62Z" fill="#CE8B31"/>
<path d="M1787.27 65.87C1784.2 65.87 1782.88 64.1566 1782.88 60.1588V3.33203H1839.54V14.2786H1792.39V29.5085H1839.18V40.455H1792.39V51.5919C1792.39 54.2572 1792.9 54.9235 1794.95 54.9235H1839.54V65.87H1787.27ZM1782.15 92.9983V82.0518H1840.64V92.9983H1782.15Z" fill="#CE8B31"/>
<path d="M1715.32 92.9975L1732.93 30.5548V3.90234H1742.44V30.5548L1760.06 92.9975H1750.55L1737.69 47.1173L1724.82 92.9975H1715.32ZM1766.42 92.9975V3.90234H1775.92V92.9975H1766.42Z" fill="#CE8B31"/>
<path d="M1667.86 89.6651C1655 89.6651 1646.95 78.7186 1646.95 65.202C1646.95 55.1122 1651.34 48.5442 1658.07 43.0234C1654.34 38.4544 1651.92 32.8384 1651.92 25.9849C1651.92 14.1817 1659.75 5.90039 1670.06 5.90039C1679.34 5.90039 1686.36 13.5154 1686.36 24.4619C1686.36 33.9806 1681.75 38.9303 1672.1 45.4031C1676.2 50.9239 1680.66 56.54 1685.04 61.8704C1686.94 56.6352 1688.77 49.1154 1689.5 43.5945L1697.69 45.6886C1696.89 53.3988 1694.84 62.5368 1692.28 69.1047C1694.99 72.2458 1698.5 75.9581 1701.27 78.8138L1695.79 88.618C1692.94 85.7624 1689.28 82.0501 1686.72 79.0993L1684.9 81.3838C1680.51 86.9047 1675.03 89.6651 1667.86 89.6651ZM1669.25 78.433C1673.64 78.433 1677 75.6726 1680.07 71.3892C1674.59 64.6309 1669.4 58.1581 1664.21 50.8287C1659.82 53.5892 1655.73 58.2533 1655.73 64.9164C1655.73 73.1025 1659.97 78.433 1669.25 78.433ZM1666.4 37.4073C1671.66 34.6469 1677.73 30.5539 1677.73 24.8426C1677.73 19.1314 1674.37 16.1806 1669.98 16.1806C1664.21 16.1806 1660.99 19.417 1660.99 25.033C1660.99 29.6972 1663.48 34.4565 1666.4 37.4073Z" fill="#CE8B31"/>
<path d="M1561.77 92.9975V82.051H1570.68L1569.81 18.6564H1579.09L1579.75 82.051H1589.11L1589.77 18.6564H1599.05L1598.17 82.051H1607.09V92.9975H1561.77ZM1562.13 14.8489V3.90234H1606.73V14.8489H1562.13ZM1610.97 92.9975V3.90234H1620.47V38.7408H1627.42V49.6874H1620.47V92.9975H1610.97Z" fill="#CE8B31"/>
<path d="M1498 63.4895L1522.49 18.1804V3.90234H1532V18.1804L1556.49 63.4895H1544.28L1527.24 31.6018L1510.21 63.4895H1498ZM1498 92.9975V82.051H1522.2V61.8713H1531.7V82.051H1556.49V92.9975H1498Z" fill="#CE8B31"/>
<path d="M2128.53 91.0952C2125.5 91.0952 2124.2 88.8107 2124.2 84.8128V42.169H2155.16V12.9465H2124.2V2H2164.26V52.83H2133.58V78.0545C2133.58 79.5775 2134.02 80.1487 2135.82 80.1487H2164.98V91.0952H2128.53ZM2172.85 91.0952V2H2182.23V91.0952H2172.85Z" fill="#CE8B31"/>
<path d="M2056.3 48.0083L2081.72 16.9135V2.69336H2091.58V16.9135L2117 48.0083H2103.19L2086.65 28.1L2070.11 48.0083H2056.3ZM2081.42 91.4272V68.2009H2056V57.2988H2116.7V68.2009H2091.28V91.4272H2081.42Z" fill="#CE8B31"/>
<path d="M2303.99 92.9989L2315.89 25.3209H2305.8V14.3743H2316.47V2H2325.91V14.3743H2336.07V25.3209H2326.49L2338.97 92.9989H2328.09L2321.19 41.2171L2314.3 92.9989H2303.99ZM2342.02 92.9989V48.9273H2333.02V37.9807H2342.02V3.90374H2350.73V92.9989H2342.02ZM2356.17 92.9989V3.90374H2364.88V92.9989H2356.17Z" fill="#CE8B31"/>
<path d="M2284.54 63.7751V14.8489H2238.16V3.90234H2292.16C2293.4 3.90234 2293.98 4.66384 2293.98 6.28202V63.7751H2284.54ZM2237 92.9975V81.5751H2247.96V44.7376H2257.4V81.5751H2268.28V44.7376H2277.72V81.5751H2295.06V92.9975H2237Z" fill="#CE8B31"/>
<path d="M1236.95 257.999V206.041H1272.13L1253.93 61.5338H1286.54L1304.74 206.041H1310.2L1328.4 61.5338H1361L1342.8 206.041H1377.99V257.999H1236.95ZM1236.95 56.1216V4.70508H1377.99V56.1216H1236.95ZM1381.02 257.999V4.70508H1414.38V95.0899H1425V149.212H1414.38V257.999H1381.02Z" fill="#002842"/>
<path d="M1059.53 175.462L1127.77 39.6142V4.70508H1165.68V39.6142L1233.93 175.462H1189.19L1146.73 89.9482L1104.26 175.462H1059.53ZM1061.04 257.999V206.582H1129.29V155.978H1164.17V206.582H1232.41V257.999H1061.04Z" fill="#002842"/>
<path d="M886.665 144.884C853.302 144.884 837.378 121.611 837.378 75.3362V71.5476C837.378 25.2727 853.302 2 886.665 2H929.128C962.34 2 978.416 25.2727 978.416 71.5476V75.3362C978.416 121.611 962.492 144.884 929.128 144.884H886.665ZM927.612 96.1734C941.261 96.1734 945.81 87.2431 945.81 74.2537V72.63C945.81 59.6406 941.261 50.7104 927.612 50.7104H888.182C874.533 50.7104 869.983 59.9112 869.983 72.63V74.2537C869.983 86.9725 874.533 96.1734 888.182 96.1734H927.612ZM981.449 144.884V4.70613H1014.81V19.0486H1025.43V65.0529H1014.81V81.2896H1025.43V127.294H1014.81V144.884H981.449ZM872.865 258C855.121 258 842.231 244.74 842.231 205.501C842.231 166.262 855.121 153.002 872.865 153.002H985.695C1003.44 153.002 1016.33 166.262 1016.33 205.501C1016.33 244.74 1003.44 258 985.695 258H872.865ZM979.174 211.996C982.055 211.996 983.724 210.372 983.724 205.501C983.724 200.63 982.055 199.006 979.174 199.006H879.386C876.505 199.006 874.836 200.63 874.836 205.501C874.836 210.372 876.505 211.996 879.386 211.996H979.174Z" fill="#002842"/>
<path d="M655.4 144.883V98.8784H686.034L667.836 56.1216H701.958L720.156 98.8784H728.649L746.847 56.1216H780.969L762.771 98.8784H786.429V81.2886H799.471V67.7579H786.429V50.7093H655.4V4.70508H793.405V24.4598H799.471V4.70508H832.835V144.883H799.471V124.587H793.405V144.883H655.4ZM690.887 257.999C673.143 257.999 660.253 244.739 660.253 205.5C660.253 166.261 673.143 153.001 690.887 153.001H803.717C821.461 153.001 834.351 166.261 834.351 205.5C834.351 244.739 821.461 257.999 803.717 257.999H690.887ZM797.196 211.995C800.077 211.995 801.746 210.371 801.746 205.5C801.746 200.629 800.077 199.005 797.196 199.005H697.408C694.527 199.005 692.858 200.629 692.858 205.5C692.858 210.371 694.527 211.995 697.408 211.995H797.196Z" fill="#002842"/>
<path d="M474.132 257.999C466.853 257.999 462 249.339 462 236.35V4.70508H574.224V58.8277H492.331V103.749H573.465V155.166H492.331V199.817C492.331 202.253 493.241 203.876 494.606 203.876H574.982V257.999H474.132ZM580.29 257.999V4.70508H611.379V92.6543H618.203V4.70508H649.292V257.999H618.203V152.189H611.379V257.999H580.29Z" fill="#002842"/>
<path d="M180.298 155.09C189.498 165.091 198.264 174.712 207.192 184.18C208.545 185.615 210.523 186.778 212.425 187.329C228.034 191.851 235.648 202.486 237.438 218.524C238.069 224.176 243.636 229.217 246.701 234.677C248.804 238.424 256.56 241.371 251.072 246.404C245.993 251.061 242.73 244.353 239.729 241.211C234.286 235.513 229.395 231.029 220.168 230.77C204.806 230.339 194.591 218.159 193.807 203.046C193.708 201.143 192.932 198.838 191.654 197.498C169.952 174.765 148.122 152.155 126.967 130.189C116.489 140.058 105.967 149.68 95.7844 159.649C87.068 168.183 78.7257 177.1 70.2478 185.877C63.8137 192.538 57.7089 198.425 56.1966 209.166C54.252 222.98 42.2797 229.613 29.2242 231.278C22.4907 232.136 18.2977 234.878 14.4941 239.633C13.6486 240.69 12.8085 241.814 11.7504 242.626C8.86301 244.843 6.83994 250.646 2.0265 246.479C-2.83742 242.269 2.29518 239.205 4.53735 236.37C10.0638 229.382 14.6476 222.766 15.4269 212.895C16.4821 199.527 26.0162 191.58 38.8253 187.821C40.7622 187.253 42.9764 186.452 44.2674 185.034C66.1715 160.977 87.9499 136.806 110.3 112.057C95.5568 96.0754 80.9043 80.1925 67.5504 65.7171C62.6702 65.3065 58.5121 66.0938 56.09 64.3988C54.0963 63.0035 54.1609 58.6646 52.9534 54.3414C49.0212 51.9583 43.3355 48.8119 37.9944 45.1611C34.8999 43.0458 32.0408 40.3867 29.6271 37.5095C20.7952 26.9808 20.2942 13.9669 28.16 6.53097C35.7978 -0.689402 47.7323 0.654613 57.4446 11.4498C63.8231 18.5395 68.3527 27.2938 73.9804 35.706C80.6915 34.026 84.2348 37.5822 82.3613 45.4797C82.0386 46.8406 82.9105 48.9599 83.9339 50.0939C97.551 65.1837 111.294 80.1601 125.733 95.9617C140.389 80.2073 154.718 64.8045 169.032 49.4165C165.722 40.7242 169.31 35.7155 178.511 36.4232C181.219 24.466 186.972 14.3057 196.953 6.82985C204.508 1.17076 214.024 0.419418 220.44 4.92114C227.098 9.59294 229.358 18.2237 226.178 27.6316C222.271 39.1877 213.5 46.2168 203.213 51.7007C200.6 53.0935 197.78 54.0979 196.918 56.1078C195.787 59.6964 195.455 63.9518 193.227 66.6265C191.866 68.2602 187.59 67.4638 182.417 67.9782C169.839 81.3915 155.589 96.5866 140.807 112.349C153.961 126.58 166.939 140.62 180.298 155.09ZM211.06 11.4152C195.211 12.902 192.234 26.4855 186.878 36.3164C189.166 40.1753 191.005 43.2749 192.784 46.2754C202.901 42.1971 212.773 36.7514 217.428 25.2548C219.872 19.2188 219.744 14.018 211.06 11.4152ZM41.471 11.0813C31.7306 12.1946 28.7679 17.449 33.1025 25.9865C38.2035 36.0339 47.3172 41.1144 57.7558 45.8912C59.1471 41.6086 62.4153 36.9787 61.3786 33.7184C58.3089 24.0628 52.8567 15.538 41.471 11.0813ZM44.2584 214.794C46.0028 211.14 47.7472 207.486 48.5751 205.751C43.982 202.157 40.9033 199.747 37.6591 197.208C25.6856 203.186 22.1519 211.343 27.2434 224.266C32.7039 221.357 38.0617 218.502 44.2584 214.794ZM225.42 218.568C226.295 217.01 228.053 215.359 227.901 213.908C227.012 205.395 220.483 198.759 211.041 196.426C212.201 203.147 209.359 205.457 202.943 202.95C203.842 213.717 212.17 222.288 221.504 222.318C222.506 222.322 223.514 220.471 225.42 218.568Z" fill="#CE8B31"/>
<path d="M343 4L343 258" stroke="#CE8B31" stroke-width="8" stroke-linecap="round"/>
</svg>
